<svg id="Camada_1" data-name="Camada 1" xmlns="http://www.w3.org/2000/svg" viewBox="0 0 503.74 191.99"><defs><style>.cls-1{fill:#fff;}.cls-2{fill:#f2a11b;}</style></defs><title>Artboard 2 cópia</title><path class="cls-1" d="M75.77,88q0,19.09-8.16,29.78T44.85,128.45q-12.93,0-20.64-9.92L23.26,127H4.16V14.18H25.39V54.64Q32.73,46,44.7,46.05q14.53,0,22.8,10.69t8.27,30.07ZM54.54,86.44q0-12-3.82-17.59T39.34,63.31q-10.14,0-14,8.3V103q3.88,8.37,14.1,8.37T53,101.2Q54.55,96.35,54.54,86.44Z"/><path class="cls-1" d="M133,118.9q-7.86,9.55-21.74,9.55-12.78,0-19.5-7.34T84.86,99.59V47.52h21.23V98.91q0,12.44,11.31,12.43,10.78,0,14.83-7.5V47.52h21.3V127h-20Z"/><path class="cls-1" d="M209.11,105c0-2.59-1.28-4.64-3.85-6.13s-6.7-2.83-12.38-4q-28.33-6-28.34-24.09,0-10.57,8.77-17.66t22.95-7.09q15.13,0,24.2,7.12a22.45,22.45,0,0,1,9.07,18.51H208.31a10.29,10.29,0,0,0-2.94-7.53q-2.94-3-9.18-3-5.35,0-8.3,2.42A7.65,7.65,0,0,0,185,69.77a6.55,6.55,0,0,0,3.34,5.69q3.35,2.17,11.28,3.75a91.71,91.71,0,0,1,13.36,3.56q16.81,6.17,16.82,21.37,0,10.88-9.33,17.59t-24.08,6.72a42.12,42.12,0,0,1-17.74-3.56,29.75,29.75,0,0,1-12.15-9.77,22.68,22.68,0,0,1-4.41-13.4h20.12a11.06,11.06,0,0,0,4.19,8.66q3.89,3,10.43,3,6.09,0,9.21-2.31A7.19,7.19,0,0,0,209.11,105Z"/><path class="cls-1" d="M283,105c0-2.59-1.29-4.64-3.86-6.13s-6.69-2.83-12.37-4q-28.35-6-28.35-24.09,0-10.57,8.78-17.66t22.95-7.09q15.12,0,24.19,7.12a22.45,22.45,0,0,1,9.07,18.51H282.18a10.29,10.29,0,0,0-2.94-7.53q-2.94-3-9.18-3-5.35,0-8.3,2.42a7.64,7.64,0,0,0-2.93,6.17,6.53,6.53,0,0,0,3.34,5.69q3.33,2.17,11.27,3.75a92.23,92.23,0,0,1,13.37,3.56q16.81,6.17,16.81,21.37,0,10.88-9.32,17.59t-24.09,6.72a42.12,42.12,0,0,1-17.74-3.56,29.82,29.82,0,0,1-12.15-9.77,22.68,22.68,0,0,1-4.41-13.4H256a11,11,0,0,0,4.18,8.66q3.9,3,10.43,3,6.09,0,9.22-2.31A7.19,7.19,0,0,0,283,105Z"/><path class="cls-1" d="M310.52,86.52a47.19,47.19,0,0,1,4.55-21.08,33.33,33.33,0,0,1,13.11-14.32,38.24,38.24,0,0,1,19.87-5.07q16.08,0,26.25,9.84t11.35,26.73l.14,5.44q0,18.28-10.2,29.34t-27.4,11q-17.18,0-27.43-11t-10.24-30ZM331.74,88q0,11.33,4.26,17.32t12.19,6a14.11,14.11,0,0,0,12.05-5.92q4.33-5.92,4.33-18.94,0-11.12-4.33-17.21a14.09,14.09,0,0,0-12.19-6.11A13.86,13.86,0,0,0,336,69.23Q331.74,75.31,331.74,88Z"/><path class="cls-1" d="M417.81,127h-21.3V14.18h21.3Z"/><path class="cls-1" d="M477.87,127a23.5,23.5,0,0,1-2.13-7.12q-7.71,8.58-20.05,8.59-11.67,0-19.35-6.76a21.73,21.73,0,0,1-7.67-17q0-12.64,9.36-19.39t27.06-6.83h9.77V73.88A13.06,13.06,0,0,0,472,65.07q-2.82-3.3-8.92-3.3c-3.57,0-6.38.85-8.41,2.57a8.72,8.72,0,0,0-3,7H430.43a21.31,21.31,0,0,1,4.26-12.78,28.17,28.17,0,0,1,12.05-9.22,43.79,43.79,0,0,1,17.47-3.34q14.69,0,23.32,7.38t8.63,20.75v34.44q.07,11.31,3.16,17.11V127Zm-17.55-14.76a18.38,18.38,0,0,0,8.67-2.09,13.77,13.77,0,0,0,5.87-5.62V90.85h-7.93q-15.93,0-17,11l-.08,1.25a8.51,8.51,0,0,0,2.79,6.54A10.86,10.86,0,0,0,460.32,112.22Z"/><polygon class="cls-2" points="106.09 47.52 106.09 8.71 136.7 8.71 106.09 47.52"/><path class="cls-1" d="M176.67,165.62a13.27,13.27,0,0,1-.46,3.53,8.58,8.58,0,0,1-1.34,2.84,6.15,6.15,0,0,1-2.17,1.89,6.27,6.27,0,0,1-3,.69,6.57,6.57,0,0,1-2.94-.61,5.87,5.87,0,0,1-2.12-1.72l-.15,2h-2.77v-25h3v9.29a5.84,5.84,0,0,1,2.08-1.65,6.68,6.68,0,0,1,2.85-.57,6.56,6.56,0,0,1,3,.67,6.21,6.21,0,0,1,2.18,1.86,8.39,8.39,0,0,1,1.34,2.84,13.87,13.87,0,0,1,.46,3.63Zm-3-.34a11.37,11.37,0,0,0-.25-2.45,6.52,6.52,0,0,0-.81-2.06,4.16,4.16,0,0,0-1.45-1.41,4.39,4.39,0,0,0-2.2-.52,4.62,4.62,0,0,0-1.43.21,3.86,3.86,0,0,0-1.17.57,4.63,4.63,0,0,0-.91.86,5,5,0,0,0-.67,1.08v7.71a5.51,5.51,0,0,0,.69,1.08,4.27,4.27,0,0,0,.92.88,4,4,0,0,0,1.17.57A4.68,4.68,0,0,0,169,172a4,4,0,0,0,3.57-1.91,6.34,6.34,0,0,0,.83-2,10.67,10.67,0,0,0,.27-2.44Z"/><path class="cls-1" d="M193.33,174.24a3.68,3.68,0,0,1-.28-.85,9.19,9.19,0,0,1-.15-1.07,9.64,9.64,0,0,1-1,.86,7.89,7.89,0,0,1-1.24.72,8.13,8.13,0,0,1-1.44.49,7.14,7.14,0,0,1-1.63.18,7.52,7.52,0,0,1-2.54-.41,6,6,0,0,1-1.92-1.1,4.74,4.74,0,0,1-1.22-1.65,4.87,4.87,0,0,1-.43-2.06,5.43,5.43,0,0,1,.57-2.54,5.19,5.19,0,0,1,1.64-1.82,7.79,7.79,0,0,1,2.55-1.08,14.28,14.28,0,0,1,3.33-.36h3.3v-1.38a3.37,3.37,0,0,0-.3-1.44,3,3,0,0,0-.83-1.08,3.71,3.71,0,0,0-1.31-.69,5.58,5.58,0,0,0-1.74-.25,5.28,5.28,0,0,0-1.6.23,4,4,0,0,0-1.2.6,2.8,2.8,0,0,0-.76.89,2.38,2.38,0,0,0-.26,1.07h-3a4.37,4.37,0,0,1,.5-1.89,5.19,5.19,0,0,1,1.39-1.67,7.11,7.11,0,0,1,2.2-1.2,8.89,8.89,0,0,1,2.94-.46,10.21,10.21,0,0,1,2.78.37,6.39,6.39,0,0,1,2.23,1.11,5.25,5.25,0,0,1,1.47,1.85,5.85,5.85,0,0,1,.54,2.59v8.19a11.34,11.34,0,0,0,.16,1.87,8.07,8.07,0,0,0,.46,1.72v.26Zm-5.32-2.3a5.8,5.8,0,0,0,1.64-.22,6.58,6.58,0,0,0,1.4-.61,5.41,5.41,0,0,0,1.08-.85,4.47,4.47,0,0,0,.72-1v-3.56H190a8.81,8.81,0,0,0-4.1.78,2.6,2.6,0,0,0-1.47,2.46,3.16,3.16,0,0,0,.22,1.2,2.66,2.66,0,0,0,.66,1,3.29,3.29,0,0,0,1.11.63A4.83,4.83,0,0,0,188,171.94Z"/><path class="cls-1" d="M202.25,156.61h9v15H217v2.61H202.25v-2.61h6v-12.4h-6Zm9.14-6.5H215l-4.37,4.33h-2.28Z"/><path class="cls-1" d="M233.38,174.24a3.68,3.68,0,0,1-.28-.85c-.07-.35-.12-.7-.16-1.07a8.61,8.61,0,0,1-1,.86,7.89,7.89,0,0,1-1.24.72,8.13,8.13,0,0,1-1.44.49,7.21,7.21,0,0,1-1.63.18,7.52,7.52,0,0,1-2.54-.41,6,6,0,0,1-1.92-1.1,4.74,4.74,0,0,1-1.22-1.65,4.87,4.87,0,0,1-.43-2.06,5.43,5.43,0,0,1,.57-2.54,5.19,5.19,0,0,1,1.64-1.82,7.79,7.79,0,0,1,2.55-1.08,14.28,14.28,0,0,1,3.33-.36h3.3v-1.38a3.37,3.37,0,0,0-.3-1.44,3,3,0,0,0-.83-1.08,3.71,3.71,0,0,0-1.31-.69,5.58,5.58,0,0,0-1.74-.25,5.28,5.28,0,0,0-1.6.23,4,4,0,0,0-1.2.6,2.8,2.8,0,0,0-.76.89,2.25,2.25,0,0,0-.26,1.07h-3a4.37,4.37,0,0,1,.5-1.89,5.19,5.19,0,0,1,1.39-1.67,7.11,7.11,0,0,1,2.2-1.2,8.89,8.89,0,0,1,2.94-.46,10.27,10.27,0,0,1,2.78.37,6.39,6.39,0,0,1,2.23,1.11,5.25,5.25,0,0,1,1.47,1.85,5.85,5.85,0,0,1,.54,2.59v8.19a11.34,11.34,0,0,0,.16,1.87,8.07,8.07,0,0,0,.46,1.72v.26Zm-5.32-2.3a5.8,5.8,0,0,0,1.64-.22,6.58,6.58,0,0,0,1.4-.61,5.41,5.41,0,0,0,1.08-.85,4.47,4.47,0,0,0,.72-1v-3.56h-2.81a8.81,8.81,0,0,0-4.1.78,2.6,2.6,0,0,0-1.47,2.46,3.16,3.16,0,0,0,.22,1.2,2.66,2.66,0,0,0,.66,1,3.29,3.29,0,0,0,1.11.63A4.83,4.83,0,0,0,228.06,171.94Z"/><path class="cls-1" d="M261.28,165.28a12.69,12.69,0,0,1,.5-3.63,8.68,8.68,0,0,1,1.41-2.84,6.75,6.75,0,0,1,2.23-1.86,6.37,6.37,0,0,1,2.92-.67,6.76,6.76,0,0,1,2.76.53,5.89,5.89,0,0,1,2,1.54v-9.14h3v25h-2.77l-.13-1.86a5.75,5.75,0,0,1-2.11,1.63,6.8,6.8,0,0,1-2.85.56,6,6,0,0,1-2.89-.69A6.54,6.54,0,0,1,263.2,172a9.11,9.11,0,0,1-1.42-2.84,12.14,12.14,0,0,1-.5-3.53Zm3,.34a10.66,10.66,0,0,0,.28,2.44,6.37,6.37,0,0,0,.86,2,4.06,4.06,0,0,0,3.62,1.91,5,5,0,0,0,1.39-.18,4.23,4.23,0,0,0,1.12-.51,4.3,4.3,0,0,0,.9-.8,5.33,5.33,0,0,0,.68-1V161.3a5.14,5.14,0,0,0-1.58-1.76,4.17,4.17,0,0,0-2.48-.7,4.11,4.11,0,0,0-3.65,1.93,6.58,6.58,0,0,0-.86,2.06,10.75,10.75,0,0,0-.28,2.45Z"/><path class="cls-1" d="M289.66,174.57a9,9,0,0,1-3.41-.64,7.46,7.46,0,0,1-2.66-1.78,8.07,8.07,0,0,1-1.73-2.7,9.23,9.23,0,0,1-.62-3.41v-.68a10.2,10.2,0,0,1,.68-3.82,8.82,8.82,0,0,1,1.82-2.85,8.06,8.06,0,0,1,2.57-1.79,7.52,7.52,0,0,1,3-.62,7.85,7.85,0,0,1,3.33.66,6.55,6.55,0,0,1,2.38,1.83,8,8,0,0,1,1.4,2.74,12.15,12.15,0,0,1,.47,3.43v1.35h-12.6a7,7,0,0,0,.47,2.26,5.7,5.7,0,0,0,1.14,1.85,5.16,5.16,0,0,0,1.73,1.25,5.47,5.47,0,0,0,2.24.46,6,6,0,0,0,2.86-.66,6.17,6.17,0,0,0,2.09-1.72l1.84,1.43a6.81,6.81,0,0,1-1.1,1.28,7.42,7.42,0,0,1-1.52,1.08,8.42,8.42,0,0,1-2,.76A9.41,9.41,0,0,1,289.66,174.57Zm-.39-15.81a4.56,4.56,0,0,0-3.19,1.31,5.57,5.57,0,0,0-1.1,1.58,7.59,7.59,0,0,0-.63,2.16h9.48v-.23a6.68,6.68,0,0,0-.33-1.74,4.85,4.85,0,0,0-.84-1.55,4.37,4.37,0,0,0-1.39-1.11A4.44,4.44,0,0,0,289.27,158.76Z"/><path class="cls-1" d="M321.37,165.28a13.06,13.06,0,0,1,.48-3.63,8.48,8.48,0,0,1,1.4-2.84,6.27,6.27,0,0,1,5.16-2.53,6.73,6.73,0,0,1,2.86.58,5.84,5.84,0,0,1,2.09,1.67l.15-1.92h2.74v17.26a8.07,8.07,0,0,1-.55,3.09,6.36,6.36,0,0,1-3.88,3.73,8.92,8.92,0,0,1-3,.49,9.49,9.49,0,0,1-1.57-.15,9.37,9.37,0,0,1-1.78-.51,8,8,0,0,1-1.75-.93,6,6,0,0,1-1.44-1.45l1.57-1.81a7.58,7.58,0,0,0,1.14,1.13,5.84,5.84,0,0,0,1.19.74,5.64,5.64,0,0,0,1.2.4,6.13,6.13,0,0,0,1.21.12,5.68,5.68,0,0,0,1.94-.31,4.08,4.08,0,0,0,1.47-.9,4,4,0,0,0,.94-1.48,6,6,0,0,0,.32-2V172.5a6,6,0,0,1-2.07,1.54,6.89,6.89,0,0,1-2.78.53,6.14,6.14,0,0,1-2.92-.69,6.45,6.45,0,0,1-2.21-1.89,9.07,9.07,0,0,1-1.39-2.84,12.15,12.15,0,0,1-.49-3.53Zm3,.34a11.27,11.27,0,0,0,.26,2.44,6.36,6.36,0,0,0,.85,2,4.4,4.4,0,0,0,1.48,1.4,4.25,4.25,0,0,0,2.15.51,4.76,4.76,0,0,0,1.41-.19,3.85,3.85,0,0,0,1.12-.53,4.56,4.56,0,0,0,.89-.81,5.73,5.73,0,0,0,.68-1v-8.08a5.41,5.41,0,0,0-.68-1,4.26,4.26,0,0,0-.9-.79,4.43,4.43,0,0,0-1.12-.52,4.88,4.88,0,0,0-1.37-.19,4.11,4.11,0,0,0-3.66,1.93,6.57,6.57,0,0,0-.85,2.06,11.36,11.36,0,0,0-.26,2.45Z"/><path class="cls-1" d="M353.39,171.81a6.07,6.07,0,0,1-5.25,2.76,7.14,7.14,0,0,1-2.51-.43,4.8,4.8,0,0,1-1.92-1.35,6.32,6.32,0,0,1-1.23-2.32,11.58,11.58,0,0,1-.43-3.38V156.61h3v10.51a10.46,10.46,0,0,0,.23,2.38A3.71,3.71,0,0,0,346,171a2.5,2.5,0,0,0,1.11.79,4.72,4.72,0,0,0,1.52.22,5.33,5.33,0,0,0,3-.75,4.44,4.44,0,0,0,1.68-2V156.61h3v17.63h-2.74Z"/><path class="cls-1" d="M373.56,174.24a3.66,3.66,0,0,1-.29-.85,9.19,9.19,0,0,1-.15-1.07,8,8,0,0,1-1,.86,7.46,7.46,0,0,1-1.24.72,8.13,8.13,0,0,1-1.44.49,7.08,7.08,0,0,1-1.63.18,7.46,7.46,0,0,1-2.53-.41,5.79,5.79,0,0,1-1.92-1.1,4.76,4.76,0,0,1-1.23-1.65,5,5,0,0,1-.43-2.06,5.32,5.32,0,0,1,.58-2.54A5.1,5.1,0,0,1,363.9,165a7.61,7.61,0,0,1,2.55-1.08,14.16,14.16,0,0,1,3.33-.36h3.29v-1.38a3.53,3.53,0,0,0-.29-1.44,3.13,3.13,0,0,0-.83-1.08,3.8,3.8,0,0,0-1.31-.69,5.58,5.58,0,0,0-1.74-.25,5.23,5.23,0,0,0-1.6.23,3.75,3.75,0,0,0-1.2.6,2.68,2.68,0,0,0-.76.89,2.27,2.27,0,0,0-.27,1.07h-3a4.23,4.23,0,0,1,.5-1.89,5.29,5.29,0,0,1,1.38-1.67,7.23,7.23,0,0,1,2.2-1.2,9,9,0,0,1,2.94-.46,10.34,10.34,0,0,1,2.79.37,6.26,6.26,0,0,1,2.22,1.11,5.17,5.17,0,0,1,1.48,1.85,5.85,5.85,0,0,1,.54,2.59v8.19a11.34,11.34,0,0,0,.16,1.87,8.74,8.74,0,0,0,.45,1.72v.26Zm-5.33-2.3a5.83,5.83,0,0,0,1.65-.22,6.5,6.5,0,0,0,1.39-.61,4.89,4.89,0,0,0,1.08-.85,3.92,3.92,0,0,0,.72-1v-3.56h-2.8a8.89,8.89,0,0,0-4.11.78,2.61,2.61,0,0,0-1.46,2.46,3.16,3.16,0,0,0,.22,1.2,2.44,2.44,0,0,0,.66,1,3.34,3.34,0,0,0,1.1.63A4.92,4.92,0,0,0,368.23,171.94Z"/><path class="cls-1" d="M384.71,156.61l.21,2.61a7,7,0,0,1,2.36-2.15,6.66,6.66,0,0,1,3.13-.79,7.74,7.74,0,0,1,2.52.4,4.82,4.82,0,0,1,1.93,1.22,5.6,5.6,0,0,1,1.23,2.11,9.73,9.73,0,0,1,.43,3v11.19h-3V163.11a6.45,6.45,0,0,0-.26-2,3.18,3.18,0,0,0-.77-1.32,3,3,0,0,0-1.26-.73,5.83,5.83,0,0,0-1.7-.23,4.74,4.74,0,0,0-2.66.76,5.5,5.5,0,0,0-1.83,2v12.64h-3V156.61Z"/><path class="cls-1" d="M413.61,174.24a3.26,3.26,0,0,1-.28-.85,9.18,9.18,0,0,1-.16-1.07,8,8,0,0,1-1,.86,7.46,7.46,0,0,1-1.24.72,8.13,8.13,0,0,1-1.44.49,7.08,7.08,0,0,1-1.63.18,7.46,7.46,0,0,1-2.53-.41,5.79,5.79,0,0,1-1.92-1.1,4.76,4.76,0,0,1-1.23-1.65,5,5,0,0,1-.43-2.06,5.44,5.44,0,0,1,.58-2.54A5.1,5.1,0,0,1,404,165a7.61,7.61,0,0,1,2.55-1.08,14.16,14.16,0,0,1,3.33-.36h3.29v-1.38a3.53,3.53,0,0,0-.29-1.44,3.13,3.13,0,0,0-.83-1.08,3.8,3.8,0,0,0-1.31-.69,5.58,5.58,0,0,0-1.74-.25,5.23,5.23,0,0,0-1.6.23,3.75,3.75,0,0,0-1.2.6,2.68,2.68,0,0,0-.76.89,2.27,2.27,0,0,0-.27,1.07h-3a4.23,4.23,0,0,1,.5-1.89,5.29,5.29,0,0,1,1.38-1.67,7.35,7.35,0,0,1,2.2-1.2,9,9,0,0,1,2.94-.46,10.34,10.34,0,0,1,2.79.37,6.26,6.26,0,0,1,2.22,1.11,5.17,5.17,0,0,1,1.48,1.85,5.85,5.85,0,0,1,.54,2.59v8.19a11.34,11.34,0,0,0,.16,1.87,8.07,8.07,0,0,0,.46,1.72v.26Zm-5.33-2.3a5.83,5.83,0,0,0,1.65-.22,6.5,6.5,0,0,0,1.39-.61,4.89,4.89,0,0,0,1.08-.85,3.92,3.92,0,0,0,.72-1v-3.56h-2.8a8.89,8.89,0,0,0-4.11.78,2.61,2.61,0,0,0-1.46,2.46,3.16,3.16,0,0,0,.22,1.2,2.44,2.44,0,0,0,.66,1,3.34,3.34,0,0,0,1.1.63A4.92,4.92,0,0,0,408.28,171.94Z"/><path class="cls-1" d="M437,165.62a13.28,13.28,0,0,1-.45,3.53A8.78,8.78,0,0,1,435.2,172a6.17,6.17,0,0,1-5.15,2.58,6.57,6.57,0,0,1-2.94-.61,6,6,0,0,1-2.13-1.72l-.14,2h-2.77v-25h3v9.29a5.87,5.87,0,0,1,2.09-1.65,6.65,6.65,0,0,1,2.85-.57,6.56,6.56,0,0,1,3,.67,6.3,6.3,0,0,1,2.18,1.86,8.59,8.59,0,0,1,1.34,2.84,13.88,13.88,0,0,1,.45,3.63Zm-3-.34a12,12,0,0,0-.25-2.45,6.52,6.52,0,0,0-.81-2.06,4.16,4.16,0,0,0-1.45-1.41,4.39,4.39,0,0,0-2.2-.52,4.62,4.62,0,0,0-1.43.21,3.75,3.75,0,0,0-1.17.57,4.36,4.36,0,0,0-.91.86,5.47,5.47,0,0,0-.68,1.08v7.71a6.62,6.62,0,0,0,.69,1.08,4.78,4.78,0,0,0,.92.88,3.92,3.92,0,0,0,1.18.57,4.62,4.62,0,0,0,1.43.21,4.2,4.2,0,0,0,2.13-.51,4.31,4.31,0,0,0,1.45-1.4,6.57,6.57,0,0,0,.83-2,10.67,10.67,0,0,0,.27-2.44Z"/><path class="cls-1" d="M453.66,174.24a3.26,3.26,0,0,1-.28-.85,9.18,9.18,0,0,1-.16-1.07,8,8,0,0,1-1,.86,7.46,7.46,0,0,1-1.24.72,8.13,8.13,0,0,1-1.44.49,7.08,7.08,0,0,1-1.63.18,7.46,7.46,0,0,1-2.53-.41,5.79,5.79,0,0,1-1.92-1.1,4.76,4.76,0,0,1-1.23-1.65,5,5,0,0,1-.43-2.06,5.44,5.44,0,0,1,.58-2.54A5.1,5.1,0,0,1,444,165a7.61,7.61,0,0,1,2.55-1.08,14.16,14.16,0,0,1,3.33-.36h3.29v-1.38a3.53,3.53,0,0,0-.29-1.44,3.13,3.13,0,0,0-.83-1.08,3.8,3.8,0,0,0-1.31-.69,5.58,5.58,0,0,0-1.74-.25,5.23,5.23,0,0,0-1.6.23,3.75,3.75,0,0,0-1.2.6,2.68,2.68,0,0,0-.76.89,2.27,2.27,0,0,0-.27,1.07h-3a4.23,4.23,0,0,1,.5-1.89,5.29,5.29,0,0,1,1.38-1.67,7.35,7.35,0,0,1,2.2-1.2,9,9,0,0,1,2.94-.46,10.34,10.34,0,0,1,2.79.37,6.26,6.26,0,0,1,2.22,1.11,5.17,5.17,0,0,1,1.48,1.85,5.85,5.85,0,0,1,.54,2.59v8.19a11.34,11.34,0,0,0,.16,1.87,8.07,8.07,0,0,0,.46,1.72v.26Zm-5.33-2.3a5.83,5.83,0,0,0,1.65-.22,6.5,6.5,0,0,0,1.39-.61,4.89,4.89,0,0,0,1.08-.85,3.92,3.92,0,0,0,.72-1v-3.56h-2.8a8.89,8.89,0,0,0-4.11.78,2.61,2.61,0,0,0-1.46,2.46,3.16,3.16,0,0,0,.22,1.2,2.44,2.44,0,0,0,.66,1,3.34,3.34,0,0,0,1.1.63A4.92,4.92,0,0,0,448.33,171.94Z"/><path class="cls-1" d="M473.65,156.28l.88,0c.31,0,.6,0,.87.08a7.13,7.13,0,0,1,.77.14,2.86,2.86,0,0,1,.58.18l-.41,2.95a15.85,15.85,0,0,0-1.67-.29,14.54,14.54,0,0,0-1.65-.09,5.67,5.67,0,0,0-3.43,1,5.55,5.55,0,0,0-1.93,2.69v11.31h-3V156.61h2.86l.15,2.8a8.27,8.27,0,0,1,2.58-2.29A6.94,6.94,0,0,1,473.65,156.28Z"/><path class="cls-1" d="M493.71,174.24a3.26,3.26,0,0,1-.28-.85,9.18,9.18,0,0,1-.16-1.07,8,8,0,0,1-1,.86,7.36,7.36,0,0,1-1.23.72,8.52,8.52,0,0,1-1.45.49,7.08,7.08,0,0,1-1.63.18,7.46,7.46,0,0,1-2.53-.41,5.79,5.79,0,0,1-1.92-1.1,4.61,4.61,0,0,1-1.22-1.65,4.88,4.88,0,0,1-.44-2.06,5.44,5.44,0,0,1,.58-2.54,5.1,5.1,0,0,1,1.64-1.82,7.7,7.7,0,0,1,2.55-1.08,14.16,14.16,0,0,1,3.33-.36h3.29v-1.38a3.53,3.53,0,0,0-.29-1.44,3.13,3.13,0,0,0-.83-1.08,3.8,3.8,0,0,0-1.31-.69,5.58,5.58,0,0,0-1.74-.25,5.23,5.23,0,0,0-1.6.23,3.75,3.75,0,0,0-1.2.6,2.68,2.68,0,0,0-.76.89,2.27,2.27,0,0,0-.27,1.07h-3a4.23,4.23,0,0,1,.5-1.89,5.29,5.29,0,0,1,1.38-1.67,7.35,7.35,0,0,1,2.2-1.2,9,9,0,0,1,2.94-.46,10.34,10.34,0,0,1,2.79.37,6.39,6.39,0,0,1,2.23,1.11,5.25,5.25,0,0,1,1.47,1.85,5.85,5.85,0,0,1,.54,2.59v8.19a11.34,11.34,0,0,0,.16,1.87,8.07,8.07,0,0,0,.46,1.72v.26Zm-5.33-2.3a5.83,5.83,0,0,0,1.65-.22,6.5,6.5,0,0,0,1.39-.61,5.2,5.2,0,0,0,1.09-.85,4.13,4.13,0,0,0,.71-1v-3.56h-2.8a8.89,8.89,0,0,0-4.11.78,2.61,2.61,0,0,0-1.46,2.46,3.16,3.16,0,0,0,.22,1.2,2.44,2.44,0,0,0,.66,1,3.29,3.29,0,0,0,1.11.63A4.81,4.81,0,0,0,488.38,171.94Z"/></svg>