<svg id="Camada_1" data-name="Camada 1" xmlns="http://www.w3.org/2000/svg" viewBox="0 0 431.49 104.17"><defs><style>.cls-1{fill:#52539f;}.cls-2{fill:#fff;}</style></defs><circle class="cls-1" cx="54.63" cy="27.7" r="5.18"/><circle class="cls-1" cx="54.63" cy="8.03" r="4.14"/><circle class="cls-1" cx="54.63" cy="76.27" r="5.18"/><circle class="cls-1" cx="54.63" cy="95.94" r="4.14"/><circle class="cls-1" cx="54.63" cy="51.98" r="8.29"/><circle class="cls-1" cx="36.42" cy="33.78" r="5.18"/><circle class="cls-1" cx="24.15" cy="21.51" r="4.14"/><circle class="cls-1" cx="29.31" cy="51.98" r="5.18"/><circle class="cls-1" cx="10.67" cy="51.98" r="4.14"/><circle class="cls-1" cx="36.42" cy="70.19" r="5.18"/><circle class="cls-1" cx="24.15" cy="82.46" r="4.14"/><path class="cls-2" d="M105.38,82.62c-15.77,0-25.71-7-26.06-20.81a.79.79,0,0,1,.8-.8h8.46a.78.78,0,0,1,.8.8c.35,9.38,6.06,13.61,16.46,13.61,8.69,0,14.52-3.66,14.52-10.18,0-15.43-39.78-3-39.78-26.75,0-11.31,9.37-17.25,23.32-17.25,13.6,0,23.77,5.83,24.46,18.17a.78.78,0,0,1-.8.8h-8.12a.78.78,0,0,1-.8-.8c-.68-7.54-6.4-11.09-14.86-11.09-8.11,0-13.26,3-13.26,9.49,0,14.63,39.78,1.94,39.78,26.63C130.3,76,119.56,82.62,105.38,82.62Z"/><path class="cls-2" d="M135.91,17.46a1.09,1.09,0,0,1-1.15-.45l-1.6-4a.78.78,0,0,1,.35-1L158.65.09a.62.62,0,0,1,.92.46L162,7.29a.83.83,0,0,1-.57,1Zm4,63.9a.78.78,0,0,1-.8-.8l.23-29.49-.23-27.78a.78.78,0,0,1,.8-.8h9a.79.79,0,0,1,.8.8L149.51,51l.23,29.61a.78.78,0,0,1-.8.8Z"/><path class="cls-2" d="M161.4,81.36a.78.78,0,0,1-.8-.8l.34-26.06-.23-31.21a.78.78,0,0,1,.8-.8h8.57a.78.78,0,0,1,.8.8l-.23,9.15A22.52,22.52,0,0,1,190.2,21.12c12.12,0,19.78,8,19.78,23.32V56.21l.22,24.35a.78.78,0,0,1-.8.8h-9a.78.78,0,0,1-.8-.8l.23-24.35V44.9c0-10.63-5-15.43-12.46-15.43-7.66,0-13.94,6.17-16.23,17.83v8.91l.23,24.35a.78.78,0,0,1-.8.8Z"/><path class="cls-2" d="M248.84,79.87a1.09,1.09,0,0,1-.8,1,30.75,30.75,0,0,1-8.11,1.49c-8.58,0-15.89-4.46-15.89-17.26l.11-34.52h-6.86a.78.78,0,0,1-.8-.8V23.29a.79.79,0,0,1,.8-.8h6.86L224,8.55a.78.78,0,0,1,.8-.8h8.91a.78.78,0,0,1,.8.8l-.23,13.94h13.83a.79.79,0,0,1,.81.8v6.52a.79.79,0,0,1-.81.8H234.32l.12,34.29c0,7.09,2.4,9.26,7.31,9.26a24,24,0,0,0,6.29-.8.62.62,0,0,1,.8.57Z"/><path class="cls-2" d="M305.42,60.9a.65.65,0,0,1,.69.8c-1.72,12.12-10.63,21-25.83,21C262,82.73,252.16,70,252.16,52.1c0-18.41,10.51-31,27.55-31s27.2,11.77,27.43,31.43a.79.79,0,0,1-.8.81H262.56c.34,14.17,6.29,21.71,17.83,21.71,8.8,0,13.95-4.68,15.66-13.37a1,1,0,0,1,.91-.8Zm-25.6-32.24C270.1,28.66,264.39,35,262.9,46h33C295.59,36.67,290.22,28.66,279.82,28.66Z"/><path class="cls-2" d="M339.15,82.62c-15.78,0-25.72-7-26.06-20.81a.78.78,0,0,1,.8-.8h8.45a.78.78,0,0,1,.8.8c.35,9.38,6.06,13.61,16.47,13.61,8.68,0,14.51-3.66,14.51-10.18,0-15.43-39.78-3-39.78-26.75,0-11.31,9.38-17.25,23.32-17.25,13.6,0,23.78,5.83,24.46,18.17a.78.78,0,0,1-.8.8h-8.11a.78.78,0,0,1-.8-.8c-.69-7.54-6.4-11.09-14.86-11.09-8.12,0-13.26,3-13.26,9.49,0,14.63,39.78,1.94,39.78,26.63C364.07,76,353.32,82.62,339.15,82.62Z"/><path class="cls-2" d="M423.85,60.9a.65.65,0,0,1,.69.8c-1.72,12.12-10.64,21-25.84,21-18.29,0-28.12-12.69-28.12-30.63,0-18.41,10.52-31,27.55-31s27.2,11.77,27.43,31.43a.79.79,0,0,1-.8.81H381c.35,14.17,6.29,21.71,17.84,21.71,8.8,0,13.94-4.68,15.66-13.37a1,1,0,0,1,.91-.8ZM398.24,28.66c-9.71,0-15.43,6.29-16.91,17.38h33C414,36.67,408.65,28.66,398.24,28.66Z"/></svg>