<svg id="Camada_1" data-name="Camada 1" xmlns="http://www.w3.org/2000/svg" viewBox="0 0 503.74 191.99"><defs><style>.cls-1{fill:#fff;}.cls-2{fill:#f2a11b;}</style></defs><title>Artboard 2 cópia 2</title><path class="cls-1" d="M75.77,88q0,19.09-8.16,29.78T44.85,128.45q-12.93,0-20.64-9.92L23.26,127H4.16V14.18H25.39V54.64Q32.73,46,44.7,46.05q14.53,0,22.8,10.69t8.27,30.07ZM54.54,86.44q0-12-3.82-17.59T39.34,63.31q-10.14,0-14,8.3V103q3.88,8.37,14.1,8.37T53,101.2Q54.55,96.35,54.54,86.44Z"/><path class="cls-1" d="M133,118.9q-7.86,9.55-21.74,9.55-12.78,0-19.5-7.34T84.86,99.59V47.52h21.23V98.91q0,12.44,11.31,12.43,10.78,0,14.83-7.5V47.52h21.3V127h-20Z"/><path class="cls-1" d="M209.11,105c0-2.59-1.28-4.64-3.85-6.13s-6.7-2.83-12.38-4q-28.33-6-28.34-24.09,0-10.57,8.77-17.66t22.95-7.09q15.13,0,24.2,7.12a22.45,22.45,0,0,1,9.07,18.51H208.31a10.29,10.29,0,0,0-2.94-7.53q-2.94-3-9.18-3-5.35,0-8.3,2.42A7.65,7.65,0,0,0,185,69.77a6.55,6.55,0,0,0,3.34,5.69q3.35,2.17,11.28,3.75a91.71,91.71,0,0,1,13.36,3.56q16.81,6.17,16.82,21.37,0,10.88-9.33,17.59t-24.08,6.72a42.12,42.12,0,0,1-17.74-3.56,29.75,29.75,0,0,1-12.15-9.77,22.68,22.68,0,0,1-4.41-13.4h20.12a11.06,11.06,0,0,0,4.19,8.66q3.89,3,10.43,3,6.09,0,9.21-2.31A7.19,7.19,0,0,0,209.11,105Z"/><path class="cls-1" d="M283,105c0-2.59-1.29-4.64-3.86-6.13s-6.69-2.83-12.37-4q-28.35-6-28.35-24.09,0-10.57,8.78-17.66t22.95-7.09q15.12,0,24.19,7.12a22.45,22.45,0,0,1,9.07,18.51H282.18a10.29,10.29,0,0,0-2.94-7.53q-2.94-3-9.18-3-5.35,0-8.3,2.42a7.64,7.64,0,0,0-2.93,6.17,6.53,6.53,0,0,0,3.34,5.69q3.33,2.17,11.27,3.75a92.23,92.23,0,0,1,13.37,3.56q16.81,6.17,16.81,21.37,0,10.88-9.32,17.59t-24.09,6.72a42.12,42.12,0,0,1-17.74-3.56,29.82,29.82,0,0,1-12.15-9.77,22.68,22.68,0,0,1-4.41-13.4H256a11,11,0,0,0,4.18,8.66q3.9,3,10.43,3,6.09,0,9.22-2.31A7.19,7.19,0,0,0,283,105Z"/><path class="cls-1" d="M310.52,86.52a47.19,47.19,0,0,1,4.55-21.08,33.33,33.33,0,0,1,13.11-14.32,38.24,38.24,0,0,1,19.87-5.07q16.08,0,26.25,9.84t11.35,26.73l.14,5.44q0,18.28-10.2,29.34t-27.4,11q-17.18,0-27.43-11t-10.24-30ZM331.74,88q0,11.33,4.26,17.32t12.19,6a14.11,14.11,0,0,0,12.05-5.92q4.33-5.92,4.33-18.94,0-11.12-4.33-17.21a14.09,14.09,0,0,0-12.19-6.11A13.86,13.86,0,0,0,336,69.23Q331.74,75.31,331.74,88Z"/><path class="cls-1" d="M417.81,127h-21.3V14.18h21.3Z"/><path class="cls-1" d="M477.87,127a23.5,23.5,0,0,1-2.13-7.12q-7.71,8.58-20.05,8.59-11.67,0-19.35-6.76a21.73,21.73,0,0,1-7.67-17q0-12.64,9.36-19.39t27.06-6.83h9.77V73.88A13.06,13.06,0,0,0,472,65.07q-2.82-3.3-8.92-3.3c-3.57,0-6.38.85-8.41,2.57a8.72,8.72,0,0,0-3,7H430.43a21.31,21.31,0,0,1,4.26-12.78,28.17,28.17,0,0,1,12.05-9.22,43.79,43.79,0,0,1,17.47-3.34q14.69,0,23.32,7.38t8.63,20.75v34.44q.07,11.31,3.16,17.11V127Zm-17.55-14.76a18.38,18.38,0,0,0,8.67-2.09,13.77,13.77,0,0,0,5.87-5.62V90.85h-7.93q-15.93,0-17,11l-.08,1.25a8.51,8.51,0,0,0,2.79,6.54A10.86,10.86,0,0,0,460.32,112.22Z"/><polygon class="cls-2" points="106.09 47.52 106.09 8.71 136.7 8.71 106.09 47.52"/><path class="cls-1" d="M159.46,165.48a13.3,13.3,0,0,1,.48-3.67,8.85,8.85,0,0,1,1.41-2.87,6.63,6.63,0,0,1,2.24-1.88,6.44,6.44,0,0,1,3-.67,6.72,6.72,0,0,1,2.89.58,5.87,5.87,0,0,1,2.12,1.69l.14-1.94h2.77v17.43a8.25,8.25,0,0,1-.55,3.13,6.47,6.47,0,0,1-3.93,3.77,9,9,0,0,1-3.06.5,8.71,8.71,0,0,1-1.58-.16,9,9,0,0,1-1.81-.51,8.63,8.63,0,0,1-1.76-.95,5.75,5.75,0,0,1-1.45-1.46l1.58-1.83a7.26,7.26,0,0,0,1.15,1.14,5.18,5.18,0,0,0,1.2.75,5.31,5.31,0,0,0,1.22.41,6.31,6.31,0,0,0,1.22.12,5.76,5.76,0,0,0,2-.31,4.12,4.12,0,0,0,1.49-.92,3.92,3.92,0,0,0,.94-1.49,5.82,5.82,0,0,0,.33-2v-1.53a6,6,0,0,1-2.1,1.56,7,7,0,0,1-2.8.53,6.26,6.26,0,0,1-2.95-.69,6.59,6.59,0,0,1-2.23-1.91,9.05,9.05,0,0,1-1.41-2.87,12.42,12.42,0,0,1-.49-3.57Zm3,.34a10.94,10.94,0,0,0,.27,2.47,6.49,6.49,0,0,0,.86,2.06,4.46,4.46,0,0,0,1.49,1.41,4.37,4.37,0,0,0,2.18.52,5.19,5.19,0,0,0,1.42-.19,4.11,4.11,0,0,0,2-1.36,5.29,5.29,0,0,0,.69-1v-8.17a4.81,4.81,0,0,0-.69-1,4,4,0,0,0-.9-.8,4.26,4.26,0,0,0-1.14-.53,5,5,0,0,0-1.38-.19,4.34,4.34,0,0,0-2.2.53,4.43,4.43,0,0,0-1.5,1.42,6.6,6.6,0,0,0-.86,2.08,11,11,0,0,0-.27,2.48Z"/><path class="cls-1" d="M188.12,174.86a8.93,8.93,0,0,1-3.44-.64,8,8,0,0,1-2.7-1.79,8.17,8.17,0,0,1-1.74-2.74,9.19,9.19,0,0,1-.63-3.44v-.69a10.18,10.18,0,0,1,.69-3.86,8.79,8.79,0,0,1,1.84-2.88,8,8,0,0,1,2.6-1.81,7.63,7.63,0,0,1,3-.62,8,8,0,0,1,3.37.66,6.55,6.55,0,0,1,2.39,1.85,7.92,7.92,0,0,1,1.43,2.77,12.37,12.37,0,0,1,.47,3.46v1.37H182.66a7,7,0,0,0,.47,2.29,5.88,5.88,0,0,0,1.15,1.86,5.13,5.13,0,0,0,1.75,1.26,5.41,5.41,0,0,0,2.26.47,6.2,6.2,0,0,0,2.9-.66A6.31,6.31,0,0,0,193.3,170l1.86,1.45a7,7,0,0,1-1.12,1.29,7.29,7.29,0,0,1-1.53,1.1,8.77,8.77,0,0,1-2,.76A9.2,9.2,0,0,1,188.12,174.86Zm-.39-16a4.51,4.51,0,0,0-3.23,1.33,5.5,5.5,0,0,0-1.11,1.59,7.63,7.63,0,0,0-.63,2.18h9.58v-.23A6.77,6.77,0,0,0,192,162a4.73,4.73,0,0,0-.85-1.56,4.18,4.18,0,0,0-1.4-1.12A4.39,4.39,0,0,0,187.73,158.89Z"/><path class="cls-1" d="M212.33,169.81a2.21,2.21,0,0,0-.21-1,2.27,2.27,0,0,0-.73-.8,6,6,0,0,0-1.35-.67,15.83,15.83,0,0,0-2.09-.55,20.77,20.77,0,0,1-2.79-.76A9.06,9.06,0,0,1,203,165a4.55,4.55,0,0,1-1.39-1.45,3.69,3.69,0,0,1-.49-1.93,4.23,4.23,0,0,1,.51-2,5.08,5.08,0,0,1,1.43-1.65,7.12,7.12,0,0,1,2.2-1.12,8.92,8.92,0,0,1,2.81-.41,9.45,9.45,0,0,1,3,.43,6.82,6.82,0,0,1,2.24,1.18,5.45,5.45,0,0,1,1.42,1.77,4.79,4.79,0,0,1,.51,2.18h-3a2.3,2.3,0,0,0-.3-1.12,3,3,0,0,0-.82-1,4.24,4.24,0,0,0-1.28-.7,5.2,5.2,0,0,0-1.68-.26,6.25,6.25,0,0,0-1.71.21,4.07,4.07,0,0,0-1.22.58,2.52,2.52,0,0,0-.73.84,2.19,2.19,0,0,0,0,1.93,2,2,0,0,0,.68.74,5.49,5.49,0,0,0,1.3.59,17.4,17.4,0,0,0,2.07.51,24.34,24.34,0,0,1,3,.8,8.29,8.29,0,0,1,2.19,1.09,4.61,4.61,0,0,1,1.36,1.47,4,4,0,0,1,.47,1.94,4.38,4.38,0,0,1-.54,2.16,5,5,0,0,1-1.49,1.66,7.24,7.24,0,0,1-2.29,1.07,10.35,10.35,0,0,1-2.91.38,10,10,0,0,1-3.23-.48,8.06,8.06,0,0,1-2.4-1.29,5.47,5.47,0,0,1-1.49-1.85,4.83,4.83,0,0,1-.52-2.19h3a3.22,3.22,0,0,0,.51,1.58,3.57,3.57,0,0,0,1.08,1,4.75,4.75,0,0,0,1.44.56,7.68,7.68,0,0,0,1.57.16,5.56,5.56,0,0,0,3-.71A2.16,2.16,0,0,0,212.33,169.81Z"/><path class="cls-1" d="M227.94,152.4v4.32h6.78v2.35h-6.78v9.68a4.94,4.94,0,0,0,.26,1.72,2.64,2.64,0,0,0,1.79,1.64,4.83,4.83,0,0,0,1.28.17,9,9,0,0,0,1-.06l1-.14.93-.17.72-.16.43,2.16a4.16,4.16,0,0,1-.92.4,11.47,11.47,0,0,1-1.19.3c-.43.08-.88.14-1.36.19s-1,.06-1.42.06a7,7,0,0,1-2.22-.34,4.5,4.5,0,0,1-1.78-1.07,5,5,0,0,1-1.2-1.89,8,8,0,0,1-.43-2.81v-9.68H220.2v-2.35h4.68V152.4Z"/><path class="cls-1" d="M252.67,174.53a3.75,3.75,0,0,1-.29-.86,9.36,9.36,0,0,1-.15-1.08,8,8,0,0,1-1,.87,7.31,7.31,0,0,1-1.25.73,7.59,7.59,0,0,1-1.46.49,7.32,7.32,0,0,1-1.65.18,7.43,7.43,0,0,1-2.56-.41,5.83,5.83,0,0,1-1.94-1.11,4.83,4.83,0,0,1-1.67-3.75,5.44,5.44,0,0,1,.58-2.57,5.09,5.09,0,0,1,1.66-1.83,7.59,7.59,0,0,1,2.58-1.1,14.42,14.42,0,0,1,3.36-.36h3.33v-1.4a3.39,3.39,0,0,0-.3-1.45,3.1,3.1,0,0,0-.84-1.09,3.78,3.78,0,0,0-1.32-.7,5.67,5.67,0,0,0-1.76-.25,5.42,5.42,0,0,0-1.62.23,4.16,4.16,0,0,0-1.21.61,2.62,2.62,0,0,0-.76.9,2.18,2.18,0,0,0-.28,1.08H241a4.28,4.28,0,0,1,.5-1.91,5.43,5.43,0,0,1,1.4-1.69,7.3,7.3,0,0,1,2.23-1.21,8.82,8.82,0,0,1,3-.46,10.05,10.05,0,0,1,2.81.37,6.26,6.26,0,0,1,2.25,1.12,5.26,5.26,0,0,1,1.49,1.87,5.94,5.94,0,0,1,.55,2.61v8.29a11.45,11.45,0,0,0,.16,1.88,8.11,8.11,0,0,0,.46,1.74v.26Zm1.39-25.06a4,4,0,0,1-.26,1.42,3.61,3.61,0,0,1-.7,1.17,3.24,3.24,0,0,1-2.44,1.1,3.63,3.63,0,0,1-1-.12,4.48,4.48,0,0,1-.78-.28,6.15,6.15,0,0,1-.67-.38,7,7,0,0,0-.63-.38,3.76,3.76,0,0,0-.68-.29,2.6,2.6,0,0,0-.81-.12,1.5,1.5,0,0,0-1.19.54,1.93,1.93,0,0,0-.49,1.29l-1.71-.39a4.06,4.06,0,0,1,.25-1.43,4.2,4.2,0,0,1,.7-1.2,3.58,3.58,0,0,1,1.06-.83,3,3,0,0,1,1.38-.31,3.08,3.08,0,0,1,1.24.24c.37.17.73.35,1.07.54s.7.37,1.06.53a2.67,2.67,0,0,0,1.17.25,1.52,1.52,0,0,0,.66-.15,1.78,1.78,0,0,0,.54-.39,2,2,0,0,0,.36-.59,1.87,1.87,0,0,0,.14-.71Zm-6.77,22.74A5.89,5.89,0,0,0,249,172a6,6,0,0,0,1.41-.61,5,5,0,0,0,1.09-.86,4.28,4.28,0,0,0,.73-1v-3.6h-2.83a8.87,8.87,0,0,0-4.15.79,2.62,2.62,0,0,0-1.48,2.48,3.23,3.23,0,0,0,.22,1.22,2.62,2.62,0,0,0,.66,1,3.12,3.12,0,0,0,1.12.63A5,5,0,0,0,247.29,172.21Z"/><path class="cls-1" d="M260.35,165.46a10.92,10.92,0,0,1,.56-3.58,8.46,8.46,0,0,1,1.6-2.87,7.34,7.34,0,0,1,2.55-1.92,7.78,7.78,0,0,1,3.37-.7,7.92,7.92,0,0,1,3.4.7,7.16,7.16,0,0,1,2.55,1.92,8.48,8.48,0,0,1,1.61,2.87,11.19,11.19,0,0,1,.56,3.58v.36a11.15,11.15,0,0,1-.56,3.58,8.53,8.53,0,0,1-1.61,2.86,7.31,7.31,0,0,1-2.54,1.91,8,8,0,0,1-3.38.69,8.1,8.1,0,0,1-3.4-.69,7.44,7.44,0,0,1-2.55-1.91,8.51,8.51,0,0,1-1.6-2.86,10.88,10.88,0,0,1-.56-3.58Zm3,.36a9.75,9.75,0,0,0,.32,2.51,6.29,6.29,0,0,0,.94,2.1,4.67,4.67,0,0,0,1.59,1.44,4.55,4.55,0,0,0,2.22.52,4.45,4.45,0,0,0,2.2-.52,4.73,4.73,0,0,0,1.58-1.44,6.31,6.31,0,0,0,.95-2.1,9.75,9.75,0,0,0,.31-2.51v-.36a9.24,9.24,0,0,0-.32-2.49,6.51,6.51,0,0,0-.95-2.1,4.72,4.72,0,0,0-1.58-1.44,4.81,4.81,0,0,0-4.43,0,4.69,4.69,0,0,0-1.57,1.44,6.29,6.29,0,0,0-.94,2.1,9.65,9.65,0,0,0-.32,2.49Z"/><path class="cls-1" d="M304.72,159.37a6.81,6.81,0,0,1,2.36-2.18,6.34,6.34,0,0,1,3.14-.8,7.66,7.66,0,0,1,2.55.4,4.91,4.91,0,0,1,2,1.26,5.81,5.81,0,0,1,1.24,2.17,9.82,9.82,0,0,1,.44,3.1v11.21h-3V163.29A4.48,4.48,0,0,0,312.3,160a3.9,3.9,0,0,0-3-1.06,5,5,0,0,0-2.66.72,5.78,5.78,0,0,0-1.94,1.9v12.94h-3V149.24h3Z"/><path class="cls-1" d="M321.06,165.46a10.92,10.92,0,0,1,.56-3.58,8.46,8.46,0,0,1,1.6-2.87,7.34,7.34,0,0,1,2.55-1.92,7.78,7.78,0,0,1,3.37-.7,7.92,7.92,0,0,1,3.4.7,7.16,7.16,0,0,1,2.55,1.92,8.48,8.48,0,0,1,1.61,2.87,11.19,11.19,0,0,1,.56,3.58v.36a11.15,11.15,0,0,1-.56,3.58,8.53,8.53,0,0,1-1.61,2.86,7.31,7.31,0,0,1-2.54,1.91,8,8,0,0,1-3.38.69,8.1,8.1,0,0,1-3.4-.69,7.44,7.44,0,0,1-2.55-1.91,8.51,8.51,0,0,1-1.6-2.86,10.88,10.88,0,0,1-.56-3.58Zm3,.36a9.75,9.75,0,0,0,.32,2.51,6.29,6.29,0,0,0,.94,2.1,4.67,4.67,0,0,0,1.59,1.44,4.55,4.55,0,0,0,2.22.52,4.45,4.45,0,0,0,2.2-.52,4.73,4.73,0,0,0,1.58-1.44,6.31,6.31,0,0,0,.95-2.1,9.75,9.75,0,0,0,.31-2.51v-.36a9.24,9.24,0,0,0-.32-2.49,6.51,6.51,0,0,0-.95-2.1,4.72,4.72,0,0,0-1.58-1.44,4.81,4.81,0,0,0-4.43,0,4.69,4.69,0,0,0-1.57,1.44,6.29,6.29,0,0,0-.94,2.1,9.65,9.65,0,0,0-.32,2.49Z"/><path class="cls-1" d="M354,169.81a2.08,2.08,0,0,0-.22-1,2.15,2.15,0,0,0-.72-.8,6,6,0,0,0-1.35-.67,15.83,15.83,0,0,0-2.09-.55,20.77,20.77,0,0,1-2.79-.76,9.06,9.06,0,0,1-2.16-1.06,4.55,4.55,0,0,1-1.39-1.45,3.69,3.69,0,0,1-.49-1.93,4.23,4.23,0,0,1,.51-2,5.08,5.08,0,0,1,1.43-1.65,7.12,7.12,0,0,1,2.2-1.12,8.9,8.9,0,0,1,2.8-.41,9.47,9.47,0,0,1,3,.43,6.82,6.82,0,0,1,2.24,1.18,5.45,5.45,0,0,1,1.42,1.77,4.78,4.78,0,0,1,.5,2.18h-3a2.3,2.3,0,0,0-.3-1.12,3.18,3.18,0,0,0-.82-1,4.24,4.24,0,0,0-1.28-.7,5.21,5.21,0,0,0-1.69-.26,6.23,6.23,0,0,0-1.7.21,4,4,0,0,0-1.22.58,2.41,2.41,0,0,0-.73.84,2.08,2.08,0,0,0-.25,1,2.2,2.2,0,0,0,.2.94,2,2,0,0,0,.68.74,5.49,5.49,0,0,0,1.3.59,17.4,17.4,0,0,0,2.07.51,24.34,24.34,0,0,1,2.95.8,8.61,8.61,0,0,1,2.19,1.09,4.61,4.61,0,0,1,1.36,1.47,4,4,0,0,1,.47,1.94,4.38,4.38,0,0,1-.54,2.16,5,5,0,0,1-1.49,1.66,7.24,7.24,0,0,1-2.29,1.07,10.35,10.35,0,0,1-2.91.38,10,10,0,0,1-3.23-.48,7.94,7.94,0,0,1-2.4-1.29,5.47,5.47,0,0,1-1.49-1.85,4.83,4.83,0,0,1-.52-2.19h3a3.21,3.21,0,0,0,.5,1.58,3.72,3.72,0,0,0,1.09,1,4.65,4.65,0,0,0,1.44.56,7.68,7.68,0,0,0,1.57.16,5.56,5.56,0,0,0,3-.71A2.16,2.16,0,0,0,354,169.81Z"/><path class="cls-1" d="M377.42,165.82a13.17,13.17,0,0,1-.46,3.57,9,9,0,0,1-1.35,2.87,6.4,6.4,0,0,1-2.2,1.91,6.31,6.31,0,0,1-3,.69,7.35,7.35,0,0,1-2.87-.52,6,6,0,0,1-2.13-1.52v8.56h-3.05V156.72h2.78l.15,1.94a5.88,5.88,0,0,1,2.15-1.69,6.86,6.86,0,0,1,2.92-.58,6.56,6.56,0,0,1,3,.67,6.26,6.26,0,0,1,2.21,1.88,8.76,8.76,0,0,1,1.35,2.87,13.71,13.71,0,0,1,.46,3.67Zm-3.05-.34a10.47,10.47,0,0,0-.28-2.48,6.64,6.64,0,0,0-.89-2.08,4.52,4.52,0,0,0-1.53-1.42,4.37,4.37,0,0,0-2.2-.53,4.2,4.2,0,0,0-2.46.69,5,5,0,0,0-1.59,1.75V170a5,5,0,0,0,1.58,1.72,4.41,4.41,0,0,0,2.5.67,4.23,4.23,0,0,0,2.19-.54,4.52,4.52,0,0,0,1.51-1.44,6.7,6.7,0,0,0,.89-2.09,10.62,10.62,0,0,0,.28-2.49Z"/><path class="cls-1" d="M383.1,156.72h9.11V171.9H398v2.63H383.1V171.9h6.06V159.37H383.1Zm5.67-4.68a1.91,1.91,0,0,1,.45-1.28,2.06,2.06,0,0,1,2.74,0,1.86,1.86,0,0,1,.46,1.28,1.75,1.75,0,0,1-.46,1.24,2.16,2.16,0,0,1-2.74,0A1.79,1.79,0,0,1,388.77,152Z"/><path class="cls-1" d="M410.07,152.4v4.32h6.79v2.35h-6.79v9.68a4.7,4.7,0,0,0,.27,1.72,2.53,2.53,0,0,0,.72,1.07,2.67,2.67,0,0,0,1.06.57,4.83,4.83,0,0,0,1.28.17,9,9,0,0,0,1-.06l1-.14.94-.17.71-.16.43,2.16a4.16,4.16,0,0,1-.92.4,10.86,10.86,0,0,1-1.19.3c-.42.08-.88.14-1.35.19s-1,.06-1.43.06a6.87,6.87,0,0,1-2.21-.34,4.53,4.53,0,0,1-1.79-1.07,5.06,5.06,0,0,1-1.19-1.89,8,8,0,0,1-.44-2.81v-9.68h-4.68v-2.35H407V152.4Z"/><path class="cls-1" d="M434.81,174.53a3,3,0,0,1-.29-.86,9.36,9.36,0,0,1-.16-1.08,8,8,0,0,1-1,.87,7,7,0,0,1-1.25.73,7.59,7.59,0,0,1-1.46.49,7.17,7.17,0,0,1-1.64.18,7.35,7.35,0,0,1-2.56-.41,5.88,5.88,0,0,1-1.95-1.11,4.89,4.89,0,0,1-1.23-1.66,5.05,5.05,0,0,1-.44-2.09,5.44,5.44,0,0,1,.59-2.57,5.15,5.15,0,0,1,1.65-1.83,7.59,7.59,0,0,1,2.58-1.1,14.45,14.45,0,0,1,3.37-.36h3.32v-1.4a3.54,3.54,0,0,0-.29-1.45,3.1,3.1,0,0,0-.84-1.09,3.92,3.92,0,0,0-1.33-.7,5.65,5.65,0,0,0-1.75-.25,5.44,5.44,0,0,0-1.63.23,4.29,4.29,0,0,0-1.21.61,2.73,2.73,0,0,0-.76.9,2.28,2.28,0,0,0-.27,1.08h-3.07a4.17,4.17,0,0,1,.51-1.91,5.29,5.29,0,0,1,1.4-1.69,7.36,7.36,0,0,1,2.22-1.21,8.82,8.82,0,0,1,3-.46,10.18,10.18,0,0,1,2.82.37,6.29,6.29,0,0,1,2.24,1.12,5.15,5.15,0,0,1,1.49,1.87,5.8,5.8,0,0,1,.55,2.61v8.29a11.45,11.45,0,0,0,.16,1.88,8.74,8.74,0,0,0,.46,1.74v.26Zm-5.39-2.32a5.89,5.89,0,0,0,1.66-.23,6,6,0,0,0,1.41-.61,5.31,5.31,0,0,0,1.1-.86,4.23,4.23,0,0,0,.72-1v-3.6h-2.83a8.9,8.9,0,0,0-4.15.79,2.62,2.62,0,0,0-1.48,2.48,3.23,3.23,0,0,0,.22,1.22,2.53,2.53,0,0,0,.67,1,3,3,0,0,0,1.12.63A4.93,4.93,0,0,0,429.42,172.21Z"/><path class="cls-1" d="M443.81,149.24h9.11V171.9h5.81v2.63H443.81V171.9h6.06v-20h-6.06Z"/><path class="cls-1" d="M475.28,174.53a3.32,3.32,0,0,1-.29-.86c-.07-.35-.12-.71-.16-1.08a7.91,7.91,0,0,1-1,.87,7,7,0,0,1-1.26.73,7.49,7.49,0,0,1-1.45.49,7.32,7.32,0,0,1-1.65.18,7.39,7.39,0,0,1-2.56-.41,5.83,5.83,0,0,1-1.94-1.11,4.79,4.79,0,0,1-1.24-1.66,5,5,0,0,1-.43-2.09,5.44,5.44,0,0,1,.58-2.57,5.09,5.09,0,0,1,1.66-1.83,7.62,7.62,0,0,1,2.57-1.1,14.57,14.57,0,0,1,3.37-.36h3.33v-1.4a3.39,3.39,0,0,0-.3-1.45,3.1,3.1,0,0,0-.84-1.09,3.74,3.74,0,0,0-1.33-.7,5.6,5.6,0,0,0-1.75-.25,5.42,5.42,0,0,0-1.62.23,4.16,4.16,0,0,0-1.21.61,2.65,2.65,0,0,0-.77.9,2.28,2.28,0,0,0-.27,1.08h-3.06a4.28,4.28,0,0,1,.5-1.91,5.29,5.29,0,0,1,1.4-1.69,7.36,7.36,0,0,1,2.22-1.21,8.92,8.92,0,0,1,3-.46,10.1,10.1,0,0,1,2.81.37,6.26,6.26,0,0,1,2.25,1.12,5.26,5.26,0,0,1,1.49,1.87,5.94,5.94,0,0,1,.54,2.61v8.29a11.51,11.51,0,0,0,.17,1.88,8.11,8.11,0,0,0,.46,1.74v.26Zm-5.38-2.32a5.94,5.94,0,0,0,1.66-.23,6.39,6.39,0,0,0,1.41-.61,5.24,5.24,0,0,0,1.09-.86,4.28,4.28,0,0,0,.73-1v-3.6H472a8.93,8.93,0,0,0-4.15.79,2.64,2.64,0,0,0-1.48,2.48,3.44,3.44,0,0,0,.22,1.22,2.53,2.53,0,0,0,.67,1,3.12,3.12,0,0,0,1.12.63A5,5,0,0,0,469.9,172.21Z"/><path class="cls-1" d="M495.48,156.39l.89,0,.88.08c.28,0,.54.09.78.14a3.59,3.59,0,0,1,.58.19l-.41,3a13.93,13.93,0,0,0-1.69-.29,14.9,14.9,0,0,0-1.67-.09,5.67,5.67,0,0,0-3.46,1,5.59,5.59,0,0,0-2,2.72v11.42h-3.06V156.72h2.9l.15,2.83a8.13,8.13,0,0,1,2.61-2.32A7,7,0,0,1,495.48,156.39Z"/></svg>