<svg id="Camada_1" data-name="Camada 1" xmlns="http://www.w3.org/2000/svg" xmlns:xlink="http://www.w3.org/1999/xlink" viewBox="0 0 1169 821"><defs><style>.cls-1,.cls-3{fill:none;}.cls-2{clip-path:url(#clip-path);}.cls-3,.cls-4{stroke:#1f344b;stroke-miterlimit:10;}.cls-3{stroke-width:35px;}.cls-4{fill:#3e4f6b;stroke-width:5px;}</style><clipPath id="clip-path"><rect class="cls-1" x="-27.27" y="-23.04" width="1198" height="870"/></clipPath></defs><g class="cls-2"><path class="cls-3" d="M646.39,607.51A163.2,163.2,0,0,1,483.2,770.71a84.11,84.11,0,0,1-84.11-84.11c0-46.45,37.66-84.1,85.11-84.1H734.26"/><path class="cls-3" d="M646.39,585V533.83a83.24,83.24,0,0,0-83.24-83.24H449"/><path class="cls-3" d="M159.5,562.5l.81-27.81a84.1,84.1,0,0,1,84.11-84.1H449"/><circle class="cls-4" cx="161.45" cy="593.92" r="37.5"/><path class="cls-3" d="M951,470.58A145.55,145.55,0,0,0,805.45,325a75,75,0,0,0-75,75c0,41.42,33.58,75,75.9,75h198.9"/><line class="cls-3" x1="940.1" y1="475.05" x2="1339.44" y2="475.05"/><path class="cls-3" d="M950.46,456.18v60.07c0,46.45-37.65,86.11-84.1,86.11H734.26"/><line class="cls-3" x1="734.26" y1="196.57" x2="1282.17" y2="196.57"/><path class="cls-3" d="M531.32,191.5A163.2,163.2,0,0,0,368.13,28.3,84.1,84.1,0,0,0,284,112.4c0,46.45,37.65,84.11,85.1,84.11H734.26"/><path class="cls-3" d="M356.62,432.66h57.5c64.71,0,118.09-51.46,118.09-116.17V244l-.94-56.61"/><path class="cls-3" d="M125.23,289.33v59.23a84.1,84.1,0,0,0,84.1,84.1H362.51"/><circle class="cls-4" cx="124.97" cy="265.82" r="40"/></g></svg>