<svg id="Camada_1" data-name="Camada 1" xmlns="http://www.w3.org/2000/svg" viewBox="0 0 732 206"><defs><style>.cls-1,.cls-3{fill:#fff;}.cls-2{fill:#f1a019;}.cls-3{font-size:37.18px;font-family:RobotoMono-Regular, Roboto Mono;}.cls-4{fill:#20334a;}.cls-5{fill:#f3f0f0;}.cls-6{fill:#f5a015;}.cls-7{fill:#e9521b;}.cls-8{fill:none;stroke:#20334a;stroke-miterlimit:10;stroke-width:3px;}</style></defs><path class="cls-1" d="M248.65,103.05q0,21.27-9.08,33.17T214.2,148.13q-14.4,0-23-11l-1.06,9.41H168.87V20.82h23.65V65.9q8.17-9.57,21.52-9.57,16.2,0,25.4,11.9t9.21,33.51ZM225,101.33q0-13.42-4.25-19.6t-12.69-6.18q-11.28,0-15.54,9.25v34.94q4.33,9.33,15.71,9.33t15.05-11.3Q225,112.37,225,101.33Z"/><path class="cls-1" d="M312.38,137.49q-8.76,10.63-24.22,10.64-14.24,0-21.73-8.18t-7.65-24V58h23.65v57.26q0,13.85,12.6,13.85,12,0,16.53-8.36V58h23.73v88.53H313Z"/><path class="cls-1" d="M397.22,122c0-2.89-1.44-5.17-4.3-6.83s-7.46-3.15-13.79-4.46q-31.58-6.63-31.58-26.84,0-11.79,9.78-19.68t25.57-7.89q16.85,0,27,7.93A25,25,0,0,1,420,84.88H396.32A11.43,11.43,0,0,0,393,76.5q-3.27-3.31-10.23-3.32-6,0-9.24,2.7a8.52,8.52,0,0,0-3.27,6.87A7.3,7.3,0,0,0,374,89.1q3.72,2.41,12.56,4.17a101.43,101.43,0,0,1,14.89,4q18.73,6.87,18.74,23.81,0,12.11-10.39,19.59T383,148.13a46.73,46.73,0,0,1-19.76-4,33,33,0,0,1-13.54-10.88,25.31,25.31,0,0,1-4.91-14.93h22.42q.33,6.3,4.66,9.65t11.62,3.36q6.79,0,10.27-2.58A8,8,0,0,0,397.22,122Z"/><path class="cls-1" d="M479.52,122q0-4.34-4.3-6.83t-13.78-4.46q-31.59-6.63-31.59-26.84,0-11.79,9.78-19.68t25.57-7.89q16.86,0,27,7.93a25,25,0,0,1,10.1,20.62H478.62a11.42,11.42,0,0,0-3.27-8.38q-3.28-3.31-10.23-3.32c-4,0-7.07.9-9.25,2.7a8.52,8.52,0,0,0-3.27,6.87,7.3,7.3,0,0,0,3.72,6.35q3.72,2.41,12.56,4.17a101.09,101.09,0,0,1,14.89,4q18.74,6.87,18.74,23.81,0,12.11-10.39,19.59t-26.84,7.49a46.76,46.76,0,0,1-19.76-4A33.11,33.11,0,0,1,432,133.28a25.31,25.31,0,0,1-4.91-14.93h22.42q.33,6.3,4.66,9.65t11.62,3.36q6.8,0,10.27-2.58A8,8,0,0,0,479.52,122Z"/><path class="cls-1" d="M510.19,101.41a52.38,52.38,0,0,1,5.08-23.48,37.21,37.21,0,0,1,14.6-16A42.62,42.62,0,0,1,552,56.33q17.93,0,29.25,11T593.9,97.07l.16,6.06q0,20.37-11.37,32.68t-30.52,12.32q-19.15,0-30.56-12.27t-11.42-33.39Zm23.65,1.68q0,12.61,4.74,19.3t13.59,6.68a15.73,15.73,0,0,0,13.42-6.6q4.81-6.6,4.82-21.1,0-12.37-4.82-19.18A15.71,15.71,0,0,0,552,75.39a15.46,15.46,0,0,0-13.42,6.76Q533.84,88.92,533.84,103.09Z"/><path class="cls-1" d="M629.72,146.49H606V20.82h23.72Z"/><path class="cls-1" d="M696.65,146.49a26,26,0,0,1-2.38-7.93q-8.6,9.57-22.33,9.57-13,0-21.56-7.53a24.2,24.2,0,0,1-8.55-19q0-14.07,10.43-21.6t30.15-7.61h10.88V87.34q0-6.15-3.15-9.82t-9.94-3.68q-6,0-9.37,2.86a9.74,9.74,0,0,0-3.39,7.85H643.79a23.7,23.7,0,0,1,4.75-14.23A31.27,31.27,0,0,1,662,60.05a49,49,0,0,1,19.48-3.72q16.37,0,26,8.22T717,87.66V126q.08,12.6,3.52,19.06v1.39Zm-19.56-16.44a20.45,20.45,0,0,0,9.66-2.33,15.42,15.42,0,0,0,6.54-6.26V106.24h-8.84q-17.75,0-18.9,12.27l-.08,1.39a9.47,9.47,0,0,0,3.11,7.28Q671.69,130,677.09,130.05Z"/><polygon class="cls-2" points="282.43 57.96 282.43 14.72 316.54 14.72 282.43 57.96"/><text class="cls-3" transform="translate(341.26 199.15)">baía de guanabara</text><path class="cls-4" d="M124.57,80.82l-.85.34a1.38,1.38,0,0,0-1.79-.77l-1.27.51A48.49,48.49,0,0,0,96.43,56.11L97,54.85A1.38,1.38,0,0,0,96.24,53l.38-.86A52.22,52.22,0,0,1,124.57,80.82Z"/><path class="cls-4" d="M123.72,81.16l.85-.34a52.17,52.17,0,0,1-.44,40l-.86-.35a1.38,1.38,0,0,0-.72-1.81l-1.26-.54a48.57,48.57,0,0,0,.4-34.67L123,83A1.37,1.37,0,0,0,123.72,81.16Z"/><path class="cls-4" d="M121.93,80.39A1.38,1.38,0,0,1,123,83l-1.26.51c-.16-.43-.32-.85-.5-1.28s-.35-.86-.53-1.28Z"/><path class="cls-5" d="M120.66,80.9c.18.42.36.85.53,1.28s.34.85.5,1.28L82.36,99.22c0-1-.06-1.94,0-3Z"/><path class="cls-1" d="M120.66,80.9,82.33,96.26a39.63,39.63,0,0,1,4.49-17c.11-.21.07-.36-.09-.44l9.7-22.69A48.49,48.49,0,0,1,120.66,80.9Z"/><path class="cls-1" d="M82.36,99.22l39.33-15.76a48.57,48.57,0,0,1-.4,34.67L82.57,101.57C82.47,100.81,82.41,100,82.36,99.22Z"/><path class="cls-4" d="M55.26,38.11a65.5,65.5,0,1,1-8.11,3.31,9,9,0,0,0,8.11-3.31Zm79.06,38.81a62.86,62.86,0,1,0-35,81.73A62.93,62.93,0,0,0,134.32,76.92Z"/><path class="cls-6" d="M52.58,42a62.86,62.86,0,1,1-35,81.74A62.93,62.93,0,0,1,52.58,42Zm72,38.87a52.35,52.35,0,0,0-68-29.15l-.07,0a52.36,52.36,0,1,0,38.95,97.2l.08,0a52.37,52.37,0,0,0,29.05-68.05Z"/><path class="cls-4" d="M96.62,52.18l-.38.86a1.39,1.39,0,0,0-1.82.73L93.89,55a48.51,48.51,0,0,0-34.69-.47l-.48-1.19a1.38,1.38,0,0,0-1.8-.77l-.36-.92A52.25,52.25,0,0,1,96.62,52.18Z"/><path class="cls-4" d="M124.13,120.83a52.19,52.19,0,0,1-28.61,28l-.37-.91a1.38,1.38,0,0,0,.77-1.79l-.48-1.2a48.55,48.55,0,0,0,24.76-24.3l1.25.54a1.35,1.35,0,0,0,1.06,0,1.38,1.38,0,0,0,.76-.74Z"/><path class="cls-4" d="M96.24,53A1.38,1.38,0,0,1,97,54.85l-.54,1.26c-.84-.4-1.68-.76-2.54-1.09l.53-1.25A1.39,1.39,0,0,1,96.24,53Z"/><path class="cls-4" d="M122.55,118.67a1.38,1.38,0,0,1,0,2.55,1.35,1.35,0,0,1-1.06,0l-1.25-.54c.39-.83.75-1.68,1.09-2.54Z"/><path class="cls-5" d="M96.43,56.11,86.73,78.8h0c-.42-.19-1.59,0-3.25.59L93.89,55C94.75,55.35,95.59,55.71,96.43,56.11Z"/><path class="cls-5" d="M82.57,101.57l38.72,16.56c-.34.86-.7,1.71-1.09,2.54l-37.15-15.9C82.85,103.76,82.68,102.68,82.57,101.57Z"/><path class="cls-1" d="M93.89,55,83.47,79.39a48.3,48.3,0,0,0-11.71,6.49L59.2,54.55A48.51,48.51,0,0,1,93.89,55Z"/><path class="cls-1" d="M83.05,104.77l37.15,15.9A48.55,48.55,0,0,1,95.44,145l-9.34-23.3a11.53,11.53,0,0,0,2.43-.43c3.78-1.19,7.14-7.69,5-7.15-1,.23-5.47-.42-10.79-.92l-.14-.34c1.66-.07,2.1-1,1.47-3.59C83.68,107.86,83.34,106.38,83.05,104.77Z"/><path class="cls-1" d="M86.73,78.8c.16.08.2.23.09.44a39.63,39.63,0,0,0-4.49,17l-3.71,1.49,8.1-19Z"/><path class="cls-1" d="M86.72,78.8l-8.1,19-.77,1.8,1.79.76,2.93,1.26c.11,1.11.28,2.19.48,3.2l-4.49-1.92,4,10a16.07,16.07,0,0,1-3.11-.34L76,103.88l-3.21,7.5c-.89-.12-1.85-.23-2.86-.33l3.53-8.26-19,7.62A29.91,29.91,0,0,1,55.65,107l16.77-6.72-10.74-4.6c.58-.77,1.2-1.5,1.82-2.22l10,4.28-4-10c.75-.62,1.52-1.21,2.27-1.77l4.32,10.79,7.39-17.28C85.13,78.81,86.3,78.61,86.72,78.8Z"/><path class="cls-1" d="M83.47,79.39,76.08,96.67,71.76,85.88A48.3,48.3,0,0,1,83.47,79.39Z"/><path class="cls-7" d="M93.48,114.09c2.19-.54-1.17,6-5,7.15a11.53,11.53,0,0,1-2.43.43l-3.41-8.5C88,113.67,92.53,114.32,93.48,114.09Z"/><path class="cls-1" d="M82.33,96.26c0,1,0,2,0,3l-2.72,1.09-1.79-.76.77-1.8Z"/><path class="cls-1" d="M79.64,100.31l2.72-1.09c0,.8.11,1.59.21,2.35Z"/><path class="cls-6" d="M44.85,24.05A9,9,0,0,1,55.26,38.11c-1.23.4-2.46.85-3.68,1.34q-2.27.91-4.43,2a9,9,0,0,1-2.3-17.37Z"/><path class="cls-1" d="M78.56,102.85l4.49,1.92c.29,1.61.63,3.09,1,4.47.63,2.64.19,3.52-1.47,3.59Z"/><path class="cls-6" d="M51.58,39.45c1.22-.49,2.45-.94,3.68-1.34a9,9,0,0,1-8.11,3.31Q49.31,40.37,51.58,39.45Z"/><path class="cls-4" d="M95.44,145l.48,1.2a1.38,1.38,0,0,1-2.57,1l-.48-1.2,1.22-.47Z"/><path class="cls-5" d="M86.1,121.67,95.44,145l-1.35.56-1.22.47-9.69-24.19C84.24,121.79,85.23,121.75,86.1,121.67Z"/><path class="cls-7" d="M82.69,113.17l3.41,8.5c-.87.08-1.86.12-2.92.14l-3.57-8.91C80.65,113,81.69,113.07,82.69,113.17Z"/><path class="cls-5" d="M82.55,112.83l.14.34c-1-.1-2-.19-3.08-.27l-.17-.41A16.07,16.07,0,0,0,82.55,112.83Z"/><path class="cls-5" d="M59.2,54.55,71.76,85.88c-.75.56-1.52,1.15-2.27,1.77L56.63,55.57l1.21-.5Z"/><path class="cls-4" d="M58.72,53.36l.48,1.19-1.36.52-1.21.5-.47-1.19a1.36,1.36,0,0,1,.76-1.79A1.38,1.38,0,0,1,58.72,53.36Z"/><path class="cls-4" d="M56.56,51.67l.36.92a1.36,1.36,0,0,0-.76,1.79l.47,1.19A48.49,48.49,0,0,0,31.78,79.84l-1.17-.5a1.37,1.37,0,0,0-1.81.73l-.95-.42A52.22,52.22,0,0,1,56.49,51.7Z"/><path class="cls-4" d="M95.15,148l.37.91-.08,0a52.22,52.22,0,0,1-40-.43l.4-1a1.37,1.37,0,0,0,1.05,0,1.4,1.4,0,0,0,.76-.75l.5-1.17a48.47,48.47,0,0,0,34.73.39l.48,1.2A1.37,1.37,0,0,0,95.15,148Z"/><path class="cls-1" d="M83.18,121.81,92.87,146a48.47,48.47,0,0,1-34.73-.39l10.4-24.31C72.39,121.5,78.51,121.9,83.18,121.81Z"/><path class="cls-7" d="M79.61,112.9l3.57,8.91c-4.67.09-10.79-.31-14.64-.51l3.71-8.66C74.6,112.6,77.13,112.72,79.61,112.9Z"/><path class="cls-1" d="M79.44,112.49l.17.41c-2.48-.18-5-.3-7.36-.26l.53-1.26C75.51,111.75,77.72,112.19,79.44,112.49Z"/><path class="cls-1" d="M76,103.88l3.45,8.61c-1.72-.3-3.93-.74-6.66-1.11Z"/><path class="cls-1" d="M69.49,87.65l4,10-10-4.28A49,49,0,0,1,69.49,87.65Z"/><path class="cls-1" d="M56.63,55.57,69.49,87.65a49,49,0,0,0-6,5.76L31.78,79.84A48.49,48.49,0,0,1,56.63,55.57Z"/><path class="cls-1" d="M73.45,102.79l-3.53,8.26-1.41-.12c-11.32-.87-14.24,1-14.07-.52Z"/><path class="cls-1" d="M72.42,100.23,55.65,107c.08-.2.14-.41.22-.62a37.09,37.09,0,0,1,5.81-10.7Z"/><path class="cls-5" d="M72.78,111.38l-.53,1.26c-1.08,0-2.11.07-3.09.17l.76-1.76C70.93,111.15,71.89,111.26,72.78,111.38Z"/><path class="cls-7" d="M72.25,112.64l-3.71,8.66-1.34-.06a2.26,2.26,0,0,1-1.31-.78l3.27-7.65C70.14,112.71,71.17,112.66,72.25,112.64Z"/><path class="cls-5" d="M31.78,79.84,63.5,93.41c-.62.72-1.24,1.45-1.82,2.22l-31-13.26C31,81.52,31.38,80.67,31.78,79.84Z"/><path class="cls-1" d="M69.92,111.05l-.76,1.76A14.79,14.79,0,0,0,64,114.09c-1.63.86.19,4.7,1.88,6.37L55.6,144.53A48.52,48.52,0,0,1,31.27,119.7l23.17-9.29c-.17,1.51,2.75-.35,14.07.52Z"/><path class="cls-7" d="M69.16,112.81l-3.27,7.65c-1.69-1.67-3.51-5.51-1.88-6.37A14.79,14.79,0,0,1,69.16,112.81Z"/><path class="cls-1" d="M30.69,82.37l31,13.26a37.09,37.09,0,0,0-5.81,10.7c-.08.21-.14.42-.22.62l-25.4,10.18A48.49,48.49,0,0,1,30.69,82.37Z"/><path class="cls-5" d="M68.54,121.3l-10.4,24.31c-.86-.32-1.71-.68-2.54-1.08l10.29-24.07a2.26,2.26,0,0,0,1.31.78Z"/><path class="cls-5" d="M30.25,117.13,55.65,107a29.91,29.91,0,0,0-1.21,3.46L31.27,119.7c-.18-.42-.36-.84-.53-1.27S30.4,117.57,30.25,117.13Z"/><path class="cls-4" d="M58.14,145.61l-.5,1.17a1.4,1.4,0,0,1-.76.75,1.39,1.39,0,0,1-1.78-1.83l.5-1.17C56.43,144.93,57.28,145.29,58.14,145.61Z"/><path class="cls-4" d="M30.61,79.34l1.17.5c-.4.83-.76,1.68-1.09,2.53l-1.17-.49a1.38,1.38,0,0,1,1.09-2.54Z"/><path class="cls-4" d="M29.52,81.88l1.17.49a48.49,48.49,0,0,0-.44,34.76l-1.14.46a1.38,1.38,0,0,0-.77,1.79l-1,.4a52.2,52.2,0,0,1,.48-40.13l.95.42A1.37,1.37,0,0,0,29.52,81.88Z"/><path class="cls-4" d="M55.6,144.53l-.5,1.17a1.37,1.37,0,0,0,.73,1.81l-.4,1a52.18,52.18,0,0,1-28.06-28.69l1-.4a1.37,1.37,0,0,0,1.79.77l1.14-.45A48.52,48.52,0,0,0,55.6,144.53Z"/><path class="cls-4" d="M29.11,117.59l1.14-.46c.15.44.32.87.49,1.3s.35.85.53,1.27l-1.14.45a1.38,1.38,0,0,1-1-2.56Z"/><path class="cls-8" d="M55.26,38.11a9,9,0,1,0-3.68,2.73A8.9,8.9,0,0,0,55.26,38.11Z"/><path class="cls-8" d="M82.33,96.26a39.63,39.63,0,0,1,4.49-17c.11-.21.07-.36-.09-.44h0c-.42-.19-1.59,0-3.25.59a48.3,48.3,0,0,0-11.71,6.49c-.75.56-1.52,1.15-2.27,1.77a49,49,0,0,0-6,5.76c-.62.72-1.24,1.45-1.82,2.22a37.09,37.09,0,0,0-5.81,10.7c-.08.21-.14.42-.22.62a29.91,29.91,0,0,0-1.21,3.46c-.17,1.51,2.75-.35,14.07.52l1.41.12c1,.1,2,.21,2.86.33,2.73.37,4.94.81,6.66,1.11a16.07,16.07,0,0,0,3.11.34c1.66-.07,2.1-1,1.47-3.59-.34-1.38-.68-2.86-1-4.47-.2-1-.37-2.09-.48-3.2-.1-.76-.16-1.55-.21-2.35C82.31,98.27,82.3,97.28,82.33,96.26Z"/><path class="cls-8" d="M65.89,120.46c-1.69-1.67-3.51-5.51-1.88-6.37a14.79,14.79,0,0,1,5.15-1.28c1-.1,2-.15,3.09-.17,2.35,0,4.88.08,7.36.26,1,.08,2.08.17,3.08.27,5.32.5,9.84,1.15,10.79.92,2.19-.54-1.17,6-5,7.15a11.53,11.53,0,0,1-2.43.43c-.87.08-1.86.12-2.92.14-4.67.09-10.79-.31-14.64-.51l-1.34-.06A2.26,2.26,0,0,1,65.89,120.46Z"/></svg>