<svg id="Camada_1" data-name="Camada 1" xmlns="http://www.w3.org/2000/svg" viewBox="0 0 732 206"><defs><style>.cls-1,.cls-9{fill:#fff;}.cls-2{fill:#f5a015;}.cls-3{fill:#f3f0f0;}.cls-4{fill:#20334a;}.cls-5,.cls-6,.cls-7{fill:none;stroke:#20334a;}.cls-5,.cls-7{stroke-miterlimit:10;}.cls-5,.cls-6{stroke-width:3px;}.cls-6{stroke-linecap:round;stroke-linejoin:round;}.cls-7{stroke-width:2.5px;}.cls-8{fill:#f1a019;}.cls-9{font-size:37.18px;font-family:RobotoMono-Regular, Roboto Mono;}</style></defs><path class="cls-1" d="M82,85.11l-1,2.41H73.41l-2.68-6.69h0V71.48H82V85.1Z"/><path class="cls-2" d="M73.41,87.51l2.88,7.18a3.34,3.34,0,0,0-2.49,1.22l-3.3-8.22a5.45,5.45,0,0,1,1.41-.18Z"/><path class="cls-3" d="M70.73,80.82l2.68,6.69h-1.5a5.45,5.45,0,0,0-1.41.18L64,71.48h3l3.75,9.35Z"/><polygon class="cls-1" points="70.73 71.48 70.73 80.82 66.98 71.47 70.73 71.48"/><path class="cls-3" d="M80.84,112.86a5.53,5.53,0,0,0,2.5-.57L90,128.89H87l-5-12.46h0l-1.43-3.56Z"/><path class="cls-2" d="M79.56,102.85l3.78,9.44a5.53,5.53,0,0,1-2.5.57h-.25l-2.9-7.25a.59.59,0,0,0,.34-.53v-2.24Z"/><path class="cls-3" d="M81,87.52l1-2.41h0l5.83-13.62h3L83.67,88.27A5.52,5.52,0,0,0,81,87.52Z"/><path class="cls-2" d="M83.67,88.27l-4,9.32A3.35,3.35,0,0,0,77.79,95L81,87.52A5.52,5.52,0,0,1,83.67,88.27Z"/><polygon class="cls-1" points="87.85 71.48 82.02 85.1 82.02 71.48 87.85 71.48"/><path class="cls-2" d="M86.51,95,79.7,97.71a.6.6,0,0,0,0-.12l4-9.32a5.64,5.64,0,0,1,2.84,4.91Z"/><path class="cls-2" d="M86.51,98l-5.87,2.35-1.39-.59A3.25,3.25,0,0,0,79.71,98c0-.1,0-.21,0-.32L86.51,95Z"/><path class="cls-2" d="M86.51,105.83l-7-3H78v-1.94a3.29,3.29,0,0,0,1.21-1.19h0l1.39.59,5.87,2.52Z"/><polygon class="cls-2" points="86.51 102.83 80.64 100.31 86.51 97.96 86.51 102.83"/><path class="cls-2" d="M83.34,112.29l-3.78-9.44,7,3v1.36A5.68,5.68,0,0,1,83.34,112.29Z"/><polygon class="cls-1" points="82.02 116.43 82.03 128.9 70.73 128.9 70.73 118.52 70.73 118.51 73.15 112.87 80.59 112.87 82.02 116.43 82.02 116.43"/><path class="cls-2" d="M66.24,103.11l7.18-2.88.29-.23a3.33,3.33,0,0,0,1,.89v1.9h-.27l-8.21,3.29Z"/><path class="cls-3" d="M63.29,128.9l7-16.29a5.1,5.1,0,0,0,1.66.25h1.24l-2.42,5.64h0L66.29,128.9Z"/><path class="cls-2" d="M74.45,102.79l-4.2,9.82a5.66,5.66,0,0,1-4-5.42v-1.11Z"/><path class="cls-2" d="M73.42,100.23l-7.18-3.08v-3l6.93,3A3,3,0,0,0,73,98a3.2,3.2,0,0,0,.68,2Z"/><polygon class="cls-2" points="66.24 97.15 73.42 100.23 66.24 103.11 66.24 97.15"/><path class="cls-2" d="M70.5,87.69l3.3,8.22a3.19,3.19,0,0,0-.63,1.21l-6.93-3v-1A5.66,5.66,0,0,1,70.5,87.69Z"/><path class="cls-2" d="M70.25,112.61l4.2-9.82h.27v2.3a.61.61,0,0,0,.6.6h.9l-3.07,7.19H71.91A5.1,5.1,0,0,1,70.25,112.61Z"/><path class="cls-2" d="M53.58,42a62.86,62.86,0,1,1-35,81.74A62.93,62.93,0,0,1,53.58,42Zm72,38.87a52.35,52.35,0,0,0-68-29.15l-.07,0a52.36,52.36,0,1,0,38.95,97.2l.08,0a52.37,52.37,0,0,0,29.05-68.05Z"/><path class="cls-4" d="M125.57,80.82a52.17,52.17,0,0,1-.44,40l-.86-.35a1.38,1.38,0,0,0-.72-1.81l-1.26-.54a48.57,48.57,0,0,0,.4-34.67L124,83a1.37,1.37,0,0,0,.77-1.79Z"/><path class="cls-4" d="M28.85,79.65A52.19,52.19,0,0,1,57.49,51.7l.07,0,.36.92a1.36,1.36,0,0,0-.76,1.79l.47,1.19A48.49,48.49,0,0,0,32.78,79.84l-1.17-.5a1.37,1.37,0,0,0-1.81.73Z"/><polygon class="cls-1" points="70.73 128.9 66.29 128.9 70.73 118.52 70.73 128.9"/><path class="cls-4" d="M97.62,52.18a52.19,52.19,0,0,1,27.95,28.64l-.85.34a1.38,1.38,0,0,0-1.79-.77l-1.27.51A48.49,48.49,0,0,0,97.43,56.11L98,54.85A1.38,1.38,0,0,0,97.24,53Z"/><path class="cls-4" d="M94.35,147.2a1.37,1.37,0,0,0,1.8.76l.37.91-.08,0a52.22,52.22,0,0,1-40-.43l.4-1a1.37,1.37,0,0,0,1.05,0,1.4,1.4,0,0,0,.76-.75l.5-1.17a48.47,48.47,0,0,0,34.73.39Z"/><path class="cls-4" d="M122.93,80.39A1.38,1.38,0,0,1,124,83l-1.26.51c-.16-.43-.32-.85-.5-1.28s-.35-.86-.53-1.28Z"/><path class="cls-3" d="M121.66,80.9c.18.42.36.85.53,1.28s.34.85.5,1.28L93.31,95.23v-3Z"/><path class="cls-1" d="M93.32,71.48H90.85l6.58-15.37A48.49,48.49,0,0,1,121.66,80.9L93.32,92.25Z"/><path class="cls-1" d="M93.31,95.23l29.38-11.77a48.57,48.57,0,0,1-.4,34.67l-29-12.39Z"/><path class="cls-4" d="M56.26,38.11a65.5,65.5,0,1,1-8.11,3.31,9,9,0,0,0,8.11-3.31Zm79.06,38.81a62.86,62.86,0,1,0-35,81.73A62.93,62.93,0,0,0,135.32,76.92Z"/><path class="cls-4" d="M97.62,52.18l-.38.86a1.39,1.39,0,0,0-1.82.73L94.89,55a48.51,48.51,0,0,0-34.69-.47l-.48-1.19a1.38,1.38,0,0,0-1.8-.77l-.36-.92A52.25,52.25,0,0,1,97.62,52.18Z"/><path class="cls-4" d="M125.13,120.83a52.19,52.19,0,0,1-28.61,28l-.37-.91a1.38,1.38,0,0,0,.77-1.79l-.48-1.2a48.55,48.55,0,0,0,24.76-24.3l1.25.54a1.35,1.35,0,0,0,1.06,0,1.38,1.38,0,0,0,.76-.74Z"/><path class="cls-4" d="M97.24,53A1.38,1.38,0,0,1,98,54.85l-.54,1.26c-.84-.4-1.68-.76-2.54-1.09l.53-1.25A1.39,1.39,0,0,1,97.24,53Z"/><path class="cls-4" d="M123.55,118.67a1.38,1.38,0,0,1,0,2.55,1.35,1.35,0,0,1-1.06,0l-1.25-.54c.39-.83.75-1.68,1.09-2.54Z"/><path class="cls-3" d="M97.43,56.11,90.85,71.48h-3l7-16.46C95.75,55.35,96.59,55.71,97.43,56.11Z"/><path class="cls-3" d="M93.31,105.74l29,12.39c-.34.86-.7,1.71-1.09,2.54L93.31,108.74Z"/><path class="cls-1" d="M94.89,55l-7,16.46H67L60.2,54.55A48.51,48.51,0,0,1,94.89,55Z"/><path class="cls-1" d="M93.31,128.89V108.74l27.89,11.93A48.55,48.55,0,0,1,96.44,145L90,128.89Z"/><path class="cls-1" d="M93.32,71.48V92.25L86.51,95v-1.8a5.64,5.64,0,0,0-2.84-4.91l7.18-16.79Z"/><polygon class="cls-3" points="93.32 92.25 93.31 95.23 86.51 97.96 86.51 94.98 93.32 92.25"/><polygon class="cls-1" points="93.31 95.23 93.31 105.73 86.51 102.83 86.51 97.96 93.31 95.23"/><polygon class="cls-3" points="93.31 105.73 93.31 108.73 86.51 105.83 86.51 102.83 93.31 105.73"/><path class="cls-1" d="M93.31,108.74v20.15H90l-6.65-16.6a5.68,5.68,0,0,0,3.17-5.1v-1.36Z"/><path class="cls-2" d="M81,87.52,77.79,95a3.35,3.35,0,0,0-1.42-.31.22.22,0,0,1-.08,0l-2.88-7.18H81Z"/><path class="cls-2" d="M45.85,24.05A9,9,0,0,1,56.26,38.11c-1.23.4-2.46.85-3.68,1.34q-2.27.91-4.43,2a9,9,0,0,1-2.3-17.37Z"/><path class="cls-4" d="M77.79,95a3.35,3.35,0,0,1,1.89,2.59l-.06.16-.77,1.8.39.17A3.29,3.29,0,0,1,78,100.91v4.18a.59.59,0,0,1-.34.53l-.7-1.74-.77,1.8h-.9a.61.61,0,0,1-.6-.6v-4.2a3.33,3.33,0,0,1-1-.89A3.2,3.2,0,0,1,73,98a3,3,0,0,1,.14-.91l1.34.57-.71-1.78a3.34,3.34,0,0,1,2.49-1.22l.79,2Z"/><path class="cls-4" d="M79.62,97.75l.06-.16a.6.6,0,0,1,0,.12Z"/><path class="cls-4" d="M79.7,97.71c0,.11,0,.22,0,.32a3.25,3.25,0,0,1-.46,1.69h0l-.39-.17.77-1.8Z"/><path class="cls-4" d="M77.79,95l-.71,1.67-.79-2a.22.22,0,0,0,.08,0A3.35,3.35,0,0,1,77.79,95Z"/><path class="cls-2" d="M52.58,39.45c1.22-.49,2.45-.94,3.68-1.34a9,9,0,0,1-8.11,3.31Q50.31,40.37,52.58,39.45Z"/><path class="cls-4" d="M96.44,145l.48,1.2a1.38,1.38,0,0,1-2.57,1l-.48-1.2,1.22-.47Z"/><path class="cls-3" d="M90,128.89,96.44,145l-1.35.56-1.22.47L87,128.89Z"/><path class="cls-3" d="M60.2,54.55,67,71.47H64L57.63,55.57l1.21-.5Z"/><path class="cls-4" d="M59.72,53.36l.48,1.19-1.36.52-1.21.5-.47-1.19a1.36,1.36,0,0,1,.76-1.79A1.38,1.38,0,0,1,59.72,53.36Z"/><path class="cls-1" d="M87,128.89,93.87,146a48.47,48.47,0,0,1-34.73-.39l7.15-16.71H87Z"/><polygon class="cls-1" points="82.02 116.43 87.02 128.89 82.03 128.9 82.02 116.43"/><path class="cls-2" d="M77.69,105.62l2.9,7.25H73.15l3.07-7.19h1.21A.55.55,0,0,0,77.69,105.62Z"/><path class="cls-4" d="M77,103.88l.7,1.74a.55.55,0,0,1-.26.06H76.22Z"/><path class="cls-4" d="M73.8,95.91l.71,1.78-1.34-.57A3.19,3.19,0,0,1,73.8,95.91Z"/><path class="cls-1" d="M64,71.48,70.5,87.69a5.66,5.66,0,0,0-4.26,5.49v1l-6.81-2.91V71.48Z"/><path class="cls-1" d="M59.43,71.48V91.24L32.78,79.84A48.49,48.49,0,0,1,57.63,55.57L64,71.48Z"/><polygon class="cls-3" points="66.24 94.15 66.24 97.15 59.43 94.24 59.43 91.24 66.24 94.15"/><polygon class="cls-1" points="66.24 97.15 66.24 103.11 59.44 105.83 59.43 94.24 66.24 97.15"/><path class="cls-1" d="M70.25,112.61l-7,16.29H59.44V108.81l6.81-2.73v1.11A5.66,5.66,0,0,0,70.25,112.61Z"/><polygon class="cls-3" points="66.24 103.11 66.24 106.08 59.44 108.81 59.44 105.83 66.24 103.11"/><path class="cls-3" d="M59.43,91.24v3L31.69,82.37c.33-.85.69-1.7,1.09-2.53Z"/><path class="cls-1" d="M59.43,94.24v11.59l-28.19,11.3a48.49,48.49,0,0,1,.44-34.76Z"/><path class="cls-3" d="M59.44,105.83v3L32.27,119.7c-.18-.42-.36-.84-.53-1.27s-.34-.86-.49-1.3Z"/><path class="cls-1" d="M59.44,128.9h3.85L56.6,144.53A48.52,48.52,0,0,1,32.27,119.7l27.16-10.89Z"/><path class="cls-3" d="M66.29,128.9l-7.15,16.71c-.86-.32-1.71-.68-2.54-1.08l6.69-15.63Z"/><path class="cls-4" d="M59.14,145.61l-.5,1.17a1.4,1.4,0,0,1-.76.75,1.39,1.39,0,0,1-1.78-1.83l.5-1.17C57.43,144.93,58.28,145.29,59.14,145.61Z"/><path class="cls-4" d="M31.61,79.34l1.17.5c-.4.83-.76,1.68-1.09,2.53l-1.17-.49a1.38,1.38,0,0,1,1.09-2.54Z"/><path class="cls-4" d="M30.52,81.88l1.17.49a48.49,48.49,0,0,0-.44,34.76l-1.14.46a1.38,1.38,0,0,0-.77,1.79l-1,.4a52.2,52.2,0,0,1,.48-40.13l.95.42A1.37,1.37,0,0,0,30.52,81.88Z"/><path class="cls-4" d="M56.6,144.53l-.5,1.17a1.37,1.37,0,0,0,.73,1.81l-.4,1a52.18,52.18,0,0,1-28.06-28.69l1-.4a1.37,1.37,0,0,0,1.79.77l1.14-.45A48.52,48.52,0,0,0,56.6,144.53Z"/><path class="cls-4" d="M30.11,117.59l1.14-.46c.15.44.32.87.49,1.3s.35.85.53,1.27l-1.14.45a1.38,1.38,0,0,1-1-2.56Z"/><path class="cls-5" d="M56.26,38.11a9,9,0,1,0-3.68,2.73A8.9,8.9,0,0,0,56.26,38.11Z"/><polyline class="cls-6" points="59.43 71.48 59.43 91.24 59.43 94.24 59.44 105.83 59.44 108.81 59.44 128.9"/><polyline class="cls-6" points="70.73 113.39 70.73 118.51 70.73 118.52 70.73 128.9"/><polyline class="cls-6" points="70.73 71.48 70.73 80.82 70.73 80.82 70.73 86.51"/><polyline class="cls-6" points="82.02 113.74 82.02 116.43 82.02 116.43 82.03 128.9"/><polyline class="cls-6" points="82.02 71.48 82.02 85.1 82.02 85.11 82.02 86.44"/><polyline class="cls-6" points="93.32 71.48 93.32 92.25 93.31 95.23 93.31 105.73 93.31 108.73 93.31 128.9"/><polyline class="cls-6" points="54.34 71.47 59.43 71.48 64.01 71.48 66.98 71.47 70.73 71.48 82.02 71.48 87.85 71.48 90.85 71.48 93.32 71.48 98.41 71.48"/><polyline class="cls-6" points="54.34 128.9 59.44 128.9 63.29 128.9 66.29 128.9 70.73 128.9 82.03 128.9 87.02 128.89 89.99 128.89 93.31 128.9 98.41 128.89"/><path class="cls-7" d="M83.34,112.29a5.53,5.53,0,0,1-2.5.57H71.91a5.1,5.1,0,0,1-1.66-.25,5.66,5.66,0,0,1-4-5.42v-14a5.66,5.66,0,0,1,4.26-5.49,5.45,5.45,0,0,1,1.41-.18H81a5.52,5.52,0,0,1,2.68.75,5.64,5.64,0,0,1,2.84,4.91v14A5.68,5.68,0,0,1,83.34,112.29Z"/><path class="cls-1" d="M246.11,103.05q0,21.27-9.08,33.17t-25.37,11.91q-14.4,0-23-11l-1.06,9.41H166.34V20.82H190V65.9q8.19-9.57,21.52-9.57,16.2,0,25.41,11.9t9.2,33.51Zm-23.65-1.72q0-13.42-4.25-19.6t-12.68-6.18q-11.29,0-15.55,9.25v34.94q4.34,9.33,15.71,9.33t15.06-11.3Q222.46,112.37,222.46,101.33Z"/><path class="cls-1" d="M309.84,137.49q-8.76,10.63-24.22,10.64-14.24,0-21.72-8.18t-7.65-24V58h23.64v57.26q0,13.85,12.6,13.85,12,0,16.53-8.36V58h23.73v88.53H310.49Z"/><path class="cls-1" d="M394.68,122q0-4.34-4.3-6.83t-13.78-4.46Q345,104.11,345,83.9q0-11.79,9.78-19.68t25.57-7.89q16.86,0,27,7.93a25,25,0,0,1,10.1,20.62H393.78a11.42,11.42,0,0,0-3.27-8.38q-3.28-3.31-10.23-3.32c-4,0-7.07.9-9.25,2.7a8.52,8.52,0,0,0-3.27,6.87,7.3,7.3,0,0,0,3.72,6.35q3.72,2.41,12.56,4.17a101.09,101.09,0,0,1,14.89,4q18.74,6.87,18.74,23.81,0,12.11-10.39,19.59t-26.84,7.49a46.76,46.76,0,0,1-19.76-4,33.11,33.11,0,0,1-13.54-10.88,25.31,25.31,0,0,1-4.91-14.93h22.42q.33,6.3,4.66,9.65t11.62,3.36q6.79,0,10.27-2.58A8,8,0,0,0,394.68,122Z"/><path class="cls-1" d="M477,122q0-4.34-4.29-6.83t-13.79-4.46q-31.59-6.63-31.58-26.84,0-11.79,9.77-19.68t25.57-7.89q16.86,0,27,7.93a25,25,0,0,1,10.11,20.62H476.08a11.42,11.42,0,0,0-3.27-8.38q-3.27-3.31-10.23-3.32-6,0-9.24,2.7a8.5,8.5,0,0,0-3.28,6.87,7.29,7.29,0,0,0,3.73,6.35q3.72,2.41,12.56,4.17a101.43,101.43,0,0,1,14.89,4Q500,104.11,500,121.05q0,12.11-10.39,19.59t-26.84,7.49a46.8,46.8,0,0,1-19.76-4,33.17,33.17,0,0,1-13.54-10.88,25.31,25.31,0,0,1-4.91-14.93H447q.33,6.3,4.67,9.65t11.62,3.36c4.52,0,7.95-.86,10.26-2.58A8,8,0,0,0,477,122Z"/><path class="cls-1" d="M507.66,101.41a52.51,52.51,0,0,1,5.07-23.48,37.21,37.21,0,0,1,14.6-16,42.68,42.68,0,0,1,22.14-5.64q17.91,0,29.25,11t12.64,29.78l.16,6.06q0,20.37-11.37,32.68t-30.52,12.32q-19.14,0-30.56-12.27t-11.41-33.39Zm23.64,1.68q0,12.61,4.75,19.3t13.58,6.68a15.71,15.71,0,0,0,13.42-6.6q4.83-6.6,4.83-21.1,0-12.37-4.83-19.18a15.71,15.71,0,0,0-13.58-6.8q-8.69,0-13.42,6.76T531.3,103.09Z"/><path class="cls-1" d="M627.19,146.49H603.46V20.82h23.73Z"/><path class="cls-1" d="M694.11,146.49a26.27,26.27,0,0,1-2.37-7.93q-8.6,9.57-22.34,9.57-13,0-21.56-7.53a24.2,24.2,0,0,1-8.55-19q0-14.07,10.43-21.6t30.15-7.61h10.88V87.34q0-6.15-3.15-9.82t-9.94-3.68q-6,0-9.37,2.86a9.74,9.74,0,0,0-3.39,7.85H641.25A23.7,23.7,0,0,1,646,70.32a31.24,31.24,0,0,1,13.42-10.27,48.91,48.91,0,0,1,19.47-3.72q16.36,0,26,8.22t9.61,23.11V126q.09,12.6,3.52,19.06v1.39Zm-19.56-16.44a20.45,20.45,0,0,0,9.66-2.33,15.42,15.42,0,0,0,6.54-6.26V106.24h-8.83q-17.76,0-18.9,12.27l-.09,1.39a9.47,9.47,0,0,0,3.11,7.28C668.12,129.09,671,130.05,674.55,130.05Z"/><polygon class="cls-8" points="279.89 57.96 279.89 14.72 314 14.72 279.89 57.96"/><text class="cls-9" transform="translate(338.72 199.15)">sistema prisional</text></svg>