<svg id="Camada_1" data-name="Camada 1" xmlns="http://www.w3.org/2000/svg" viewBox="0 0 732 206"><defs><style>.cls-1,.cls-3{fill:#fff;}.cls-2{fill:#f1a019;}.cls-3{font-size:37.18px;font-family:RobotoMono-Regular, Roboto Mono;}.cls-4{fill:#20334a;}.cls-5{fill:#f3f0f0;}.cls-6{fill:#f5a015;}.cls-7{fill:#e9521b;}.cls-8,.cls-9{fill:none;stroke:#20334a;stroke-width:3px;}.cls-8{stroke-miterlimit:10;}.cls-9{stroke-linecap:round;stroke-linejoin:round;}</style></defs><path class="cls-1" d="M244.47,103.05q0,21.27-9.08,33.17T210,148.13q-14.4,0-23-11L186,146.49H164.69V20.82h23.65V65.9q8.17-9.57,21.52-9.57,16.2,0,25.4,11.9t9.21,33.51Zm-23.65-1.72q0-13.42-4.25-19.6t-12.68-6.18q-11.29,0-15.55,9.25v34.94q4.33,9.33,15.71,9.33t15-11.3Q220.83,112.37,220.82,101.33Z"/><path class="cls-1" d="M308.2,137.49q-8.76,10.63-24.22,10.64-14.24,0-21.72-8.18t-7.65-24V58h23.64v57.26q0,13.85,12.6,13.85,12,0,16.53-8.36V58h23.73v88.53H308.85Z"/><path class="cls-1" d="M393,122q0-4.34-4.3-6.83T375,110.74q-31.59-6.63-31.59-26.84,0-11.79,9.78-19.68t25.57-7.89q16.86,0,27,7.93a25,25,0,0,1,10.1,20.62H392.14a11.39,11.39,0,0,0-3.28-8.38q-3.27-3.31-10.22-3.32-6,0-9.25,2.7a8.52,8.52,0,0,0-3.27,6.87,7.3,7.3,0,0,0,3.72,6.35q3.72,2.41,12.56,4.17a101.09,101.09,0,0,1,14.89,4Q416,104.11,416,121.05q0,12.11-10.39,19.59t-26.84,7.49a46.76,46.76,0,0,1-19.76-4,33.11,33.11,0,0,1-13.54-10.88,25.31,25.31,0,0,1-4.91-14.93H363q.33,6.3,4.66,9.65t11.62,3.36q6.79,0,10.27-2.58A8,8,0,0,0,393,122Z"/><path class="cls-1" d="M475.34,122q0-4.34-4.3-6.83t-13.78-4.46q-31.59-6.63-31.58-26.84,0-11.79,9.77-19.68T461,56.33q16.86,0,27,7.93a25,25,0,0,1,10.11,20.62H474.44a11.42,11.42,0,0,0-3.27-8.38c-2.19-2.21-5.59-3.32-10.23-3.32q-6,0-9.25,2.7a8.52,8.52,0,0,0-3.27,6.87,7.3,7.3,0,0,0,3.72,6.35q3.74,2.41,12.56,4.17a101.6,101.6,0,0,1,14.9,4q18.73,6.87,18.73,23.81,0,12.11-10.39,19.59t-26.84,7.49a46.76,46.76,0,0,1-19.76-4,33.17,33.17,0,0,1-13.54-10.88,25.31,25.31,0,0,1-4.91-14.93h22.42q.33,6.3,4.67,9.65t11.61,3.36q6.8,0,10.27-2.58A8,8,0,0,0,475.34,122Z"/><path class="cls-1" d="M506,101.41a52.52,52.52,0,0,1,5.08-23.48,37.21,37.21,0,0,1,14.6-16,42.65,42.65,0,0,1,22.13-5.64q17.92,0,29.26,11t12.64,29.78l.16,6.06q0,20.37-11.37,32.68T548,148.13q-19.15,0-30.56-12.27T506,102.47Zm23.65,1.68q0,12.61,4.75,19.3T548,129.07a15.71,15.71,0,0,0,13.42-6.6q4.83-6.6,4.82-21.1,0-12.37-4.82-19.18a15.71,15.71,0,0,0-13.59-6.8,15.43,15.43,0,0,0-13.41,6.76Q529.66,88.92,529.66,103.09Z"/><path class="cls-1" d="M625.55,146.49H601.82V20.82h23.73Z"/><path class="cls-1" d="M692.47,146.49a26.55,26.55,0,0,1-2.38-7.93q-8.58,9.57-22.33,9.57-13,0-21.56-7.53a24.2,24.2,0,0,1-8.55-19q0-14.07,10.43-21.6t30.15-7.61h10.88V87.34q0-6.15-3.15-9.82T676,73.84q-6,0-9.37,2.86a9.74,9.74,0,0,0-3.39,7.85H639.61a23.7,23.7,0,0,1,4.75-14.23,31.24,31.24,0,0,1,13.42-10.27,48.91,48.91,0,0,1,19.47-3.72q16.37,0,26,8.22t9.61,23.11V126q.07,12.6,3.52,19.06v1.39Zm-19.56-16.44a20.45,20.45,0,0,0,9.66-2.33,15.42,15.42,0,0,0,6.54-6.26V106.24h-8.83q-17.76,0-18.9,12.27l-.09,1.39a9.47,9.47,0,0,0,3.11,7.28C666.48,129.09,669.31,130.05,672.91,130.05Z"/><polygon class="cls-2" points="278.25 57.96 278.25 14.72 312.36 14.72 278.25 57.96"/><text class="cls-3" transform="translate(337.08 199.15)">gestão hospitalar</text><path class="cls-4" d="M122.57,80.82l-.85.34a1.38,1.38,0,0,0-1.79-.77l-1.27.51A48.49,48.49,0,0,0,94.43,56.11L95,54.85A1.38,1.38,0,0,0,94.24,53l.38-.86A52.22,52.22,0,0,1,122.57,80.82Z"/><path class="cls-4" d="M121.72,81.16l.85-.34a52.17,52.17,0,0,1-.44,40l-.86-.35a1.38,1.38,0,0,0-.72-1.81l-1.26-.54a48.57,48.57,0,0,0,.4-34.67L121,83A1.37,1.37,0,0,0,121.72,81.16Z"/><path class="cls-4" d="M119.93,80.39A1.38,1.38,0,0,1,121,83l-1.26.51c-.16-.43-.32-.85-.5-1.28s-.35-.86-.53-1.28Z"/><path class="cls-5" d="M118.66,80.9c.18.42.36.85.53,1.28s.34.85.5,1.28l-27.51,11v-.43H85.83Z"/><path class="cls-1" d="M118.66,80.9,85.83,94.05H81.47V86.42l13-30.31A48.49,48.49,0,0,1,118.66,80.9Z"/><path class="cls-1" d="M92.18,94.48l27.51-11a48.57,48.57,0,0,1-.4,34.67l-27.1-11.59Z"/><path class="cls-4" d="M53.26,38.11a65.5,65.5,0,1,1-8.11,3.31,9,9,0,0,0,8.11-3.31Zm79.06,38.81a62.86,62.86,0,1,0-35,81.73A62.93,62.93,0,0,0,132.32,76.92Z"/><path class="cls-6" d="M50.58,42a62.86,62.86,0,1,1-35,81.74A62.93,62.93,0,0,1,50.58,42Zm72,38.87a52.35,52.35,0,0,0-68-29.15l-.07,0a52.36,52.36,0,1,0,38.95,97.2l.08,0a52.37,52.37,0,0,0,29.05-68.05Z"/><path class="cls-4" d="M94.62,52.18l-.38.86a1.39,1.39,0,0,0-1.82.73L91.89,55a48.51,48.51,0,0,0-34.69-.47l-.48-1.19a1.38,1.38,0,0,0-1.8-.77l-.36-.92A52.25,52.25,0,0,1,94.62,52.18Z"/><path class="cls-4" d="M122.13,120.83a52.19,52.19,0,0,1-28.61,28l-.37-.91a1.38,1.38,0,0,0,.77-1.79l-.48-1.2a48.55,48.55,0,0,0,24.76-24.3l1.25.54a1.35,1.35,0,0,0,1.06,0,1.38,1.38,0,0,0,.76-.74Z"/><path class="cls-4" d="M94.24,53A1.38,1.38,0,0,1,95,54.85l-.54,1.26c-.84-.4-1.68-.76-2.54-1.09l.53-1.25A1.39,1.39,0,0,1,94.24,53Z"/><path class="cls-4" d="M120.55,118.67a1.38,1.38,0,0,1,0,2.55,1.35,1.35,0,0,1-1.06,0l-1.25-.54c.39-.83.75-1.68,1.09-2.54Z"/><path class="cls-5" d="M94.43,56.11l-13,30.31V83.33H79.78L91.89,55C92.75,55.35,93.59,55.71,94.43,56.11Z"/><path class="cls-5" d="M92.19,106.54l27.1,11.59c-.34.86-.7,1.71-1.09,2.54l-26-11.13Z"/><path class="cls-1" d="M91.89,55,79.78,83.33h-11L57.2,54.55A48.51,48.51,0,0,1,91.89,55Z"/><path class="cls-1" d="M92.19,109.54l26,11.13A48.55,48.55,0,0,1,93.44,145l-12-29.88v-5.55Z"/><polygon class="cls-7" points="92.19 94.06 92.18 94.48 77.64 100.31 75.85 99.55 76.62 97.75 85.83 94.05 92.19 94.06"/><polygon class="cls-7" points="92.18 94.48 92.19 106.54 77.64 100.31 92.18 94.48"/><polygon class="cls-7" points="92.19 106.54 92.19 109.54 76.56 102.85 81.46 115.09 81.46 120.27 80.56 120.27 73.99 103.88 66.98 120.26 65.97 120.26 65.97 115.6 71.45 102.79 55.25 109.28 55.25 106.31 70.42 100.23 55.98 94.05 63 94.05 71.51 97.69 65.97 83.86 65.97 83.33 68.73 83.33 74.08 96.67 79.78 83.33 81.46 83.33 81.46 86.42 76.62 97.75 75.85 99.55 77.64 100.31 92.19 106.54"/><polygon class="cls-7" points="76.56 102.85 92.19 109.54 81.46 109.54 81.46 115.09 76.56 102.85"/><polygon class="cls-7" points="85.83 94.05 76.62 97.75 81.46 86.42 81.47 94.05 85.83 94.05"/><polygon class="cls-7" points="79.78 83.33 74.08 96.67 68.73 83.33 79.78 83.33"/><path class="cls-6" d="M42.85,24.05A9,9,0,0,1,53.26,38.11c-1.23.4-2.46.85-3.68,1.34q-2.27.91-4.43,2a9,9,0,0,1-2.3-17.37Z"/><path class="cls-6" d="M49.58,39.45c1.22-.49,2.45-.94,3.68-1.34a9,9,0,0,1-8.11,3.31Q47.31,40.37,49.58,39.45Z"/><path class="cls-4" d="M93.44,145l.48,1.2a1.38,1.38,0,0,1-2.57,1l-.48-1.2,1.22-.47Z"/><path class="cls-5" d="M81.46,115.09l12,29.88-1.35.56-1.22.47L80.56,120.27h.9Z"/><path class="cls-5" d="M57.2,54.55,68.73,83.33H66v.53L54.63,55.57l1.21-.5Z"/><path class="cls-4" d="M56.72,53.36l.48,1.19-1.36.52-1.21.5-.47-1.19a1.36,1.36,0,0,1,.76-1.79A1.38,1.38,0,0,1,56.72,53.36Z"/><path class="cls-4" d="M54.56,51.67l.36.92a1.36,1.36,0,0,0-.76,1.79l.47,1.19A48.49,48.49,0,0,0,29.78,79.84l-1.17-.5a1.37,1.37,0,0,0-1.81.73l-.95-.42A52.22,52.22,0,0,1,54.49,51.7Z"/><path class="cls-4" d="M93.15,148l.37.91-.08,0a52.22,52.22,0,0,1-40-.43l.4-1a1.37,1.37,0,0,0,1.05,0,1.4,1.4,0,0,0,.76-.75l.5-1.17a48.47,48.47,0,0,0,34.73.39l.48,1.2A1.37,1.37,0,0,0,93.15,148Z"/><path class="cls-1" d="M80.56,120.27,90.87,146a48.47,48.47,0,0,1-34.73-.39L67,120.26Z"/><polygon class="cls-7" points="73.99 103.88 80.56 120.27 66.98 120.26 73.99 103.88"/><polygon class="cls-7" points="65.97 83.86 71.51 97.69 63 94.05 65.97 94.05 65.97 83.86"/><path class="cls-1" d="M54.63,55.57,66,83.86V94.05H63L29.78,79.84A48.49,48.49,0,0,1,54.63,55.57Z"/><polygon class="cls-7" points="71.45 102.79 65.97 115.6 65.97 109.55 55.25 109.55 55.25 109.28 71.45 102.79"/><polygon class="cls-7" points="70.42 100.23 55.25 106.31 55.24 94.05 55.98 94.05 70.42 100.23"/><path class="cls-5" d="M63,94.05H56L28.69,82.37c.33-.85.69-1.7,1.09-2.53Z"/><path class="cls-1" d="M66,109.55v6L53.6,144.53A48.52,48.52,0,0,1,29.27,119.7l26-10.41v.26Z"/><path class="cls-5" d="M66,115.6v4.66h1L56.14,145.61c-.86-.32-1.71-.68-2.54-1.08Z"/><path class="cls-1" d="M56,94.05h-.74v12.26l-27,10.82a48.49,48.49,0,0,1,.44-34.76Z"/><path class="cls-5" d="M55.25,106.31v3l-26,10.41c-.18-.42-.36-.84-.53-1.27s-.34-.86-.49-1.3Z"/><path class="cls-4" d="M56.14,145.61l-.5,1.17a1.4,1.4,0,0,1-.76.75,1.39,1.39,0,0,1-1.78-1.83l.5-1.17C54.43,144.93,55.28,145.29,56.14,145.61Z"/><path class="cls-4" d="M28.61,79.34l1.17.5c-.4.83-.76,1.68-1.09,2.53l-1.17-.49a1.38,1.38,0,0,1,1.09-2.54Z"/><path class="cls-4" d="M27.52,81.88l1.17.49a48.49,48.49,0,0,0-.44,34.76l-1.14.46a1.38,1.38,0,0,0-.77,1.79l-1,.4a52.2,52.2,0,0,1,.48-40.13l.95.42A1.37,1.37,0,0,0,27.52,81.88Z"/><path class="cls-4" d="M53.6,144.53l-.5,1.17a1.37,1.37,0,0,0,.73,1.81l-.4,1a52.18,52.18,0,0,1-28.06-28.69l1-.4a1.37,1.37,0,0,0,1.79.77l1.14-.45A48.52,48.52,0,0,0,53.6,144.53Z"/><path class="cls-4" d="M27.11,117.59l1.14-.46c.15.44.32.87.49,1.3s.35.85.53,1.27l-1.14.45a1.38,1.38,0,0,1-1-2.56Z"/><path class="cls-8" d="M53.26,38.11a9,9,0,1,0-3.68,2.73A8.9,8.9,0,0,0,53.26,38.11Z"/><polygon class="cls-9" points="85.83 94.05 92.19 94.06 92.18 94.48 92.19 106.54 92.19 109.54 81.46 109.54 81.46 115.09 81.46 120.27 80.56 120.27 66.98 120.26 65.97 120.26 65.97 115.6 65.97 109.55 55.25 109.55 55.25 109.28 55.25 106.31 55.24 94.05 55.98 94.05 63 94.05 65.97 94.05 65.97 83.86 65.97 83.33 68.73 83.33 79.78 83.33 81.46 83.33 81.46 86.42 81.47 94.05 85.83 94.05"/></svg>