<svg id="Camada_1" data-name="Camada 1" xmlns="http://www.w3.org/2000/svg" viewBox="0 0 425.89 111.43"><defs><style>.cls-1{fill:#dc4c43;}.cls-2{fill:#fff;}</style></defs><rect class="cls-1" x="15.25" y="16.45" width="65.25" height="65.25" rx="7"/><path class="cls-2" d="M50.54,25.86,33.69,53a1.13,1.13,0,0,0,1,1.73h10.4a1.13,1.13,0,0,1,1.09,1.46l-4.4,15.13a1.14,1.14,0,0,0,2,1L62,46.72a1.14,1.14,0,0,0-.93-1.79H50.21a1.14,1.14,0,0,1-1.11-1.37l3.52-16.87A1.14,1.14,0,0,0,50.54,25.86Z"/><path class="cls-2" d="M101.21,40.75H94.54V33.4h6.67V31.46c0-10.39,5.66-15.63,16.8-15.63a50.12,50.12,0,0,1,8.53.76l-1.35,7.18a28.07,28.07,0,0,0-5.32-.42c-6.16,0-9.12,2.7-9.12,8.36V33.4h13.6v7.35h-13.6v41h-9.54Z"/><path class="cls-2" d="M125.53,57.55c0-16.64,10.13-25.08,22.12-25.08,7.6,0,14.36,3.72,17.14,10.39V33.4h9.46V81.62h-9.46V72.5c-2.7,6.5-9.54,10.3-17,10.3C135.74,82.8,125.53,74.27,125.53,57.55Zm39.52,0c0-10.56-6.17-17.06-15.12-17.06s-15,6.42-15,17.06,6.08,17.14,15.12,17.14C159,74.69,165.05,68.19,165.05,57.55Z"/><path class="cls-2" d="M182.78,85.67l8.95-2.19c2.36,5,7.6,8.19,14.19,8.19,9.54,0,14.94-4.73,14.94-16.81V70.64c-2.7,7.18-9.54,10-17.05,10-12.08,0-22.21-8-22.21-24.06s10.13-24,22.12-24c7.6,0,14.44,2.79,17.14,10.05V33.4h9.46V73.34c0,18.07-8.53,25.84-24.49,25.84C194.52,99.18,186.07,94.28,182.78,85.67ZM221,56.54c0-10.39-6-16.72-15-16.72s-14.95,6.33-14.95,16.72c0,10.55,6,16.8,15,16.8S221,67,221,56.54Z"/><path class="cls-2" d="M238.34,59.66V33.4h9.46V58.9c0,10.47,3.8,15.45,12.92,15.45s12.84-6,12.84-16.63V33.4H283V81.7h-9.45V72.92c-2.12,6-7.69,9.71-15.71,9.71C244.51,82.63,238.34,74.86,238.34,59.66Z"/><path class="cls-2" d="M292.3,17.69h9.54v64H292.3Z"/><path class="cls-2" d="M310.88,17.69h9.46V42.18c1.94-5.66,7.17-9.63,15.79-9.63,12.75,0,19.5,6.93,19.5,23V81.7h-9.45V56.28c0-10.81-4.06-15.53-13-15.53s-12.83,5.74-12.83,16.63V81.7h-9.46Z"/><path class="cls-2" d="M361.8,57.55c0-16.64,10.13-25.08,22.12-25.08,7.6,0,14.36,3.72,17.14,10.39V33.4h9.46V81.62h-9.46V72.5c-2.7,6.5-9.54,10.3-17.05,10.3C372,82.8,361.8,74.27,361.8,57.55Zm39.52,0c0-10.56-6.17-17.06-15.12-17.06s-14.94,6.42-14.94,17.06,6.08,17.14,15.11,17.14C395.24,74.69,401.32,68.19,401.32,57.55Z"/></svg>