<svg id="Camada_1" data-name="Camada 1" xmlns="http://www.w3.org/2000/svg" xmlns:xlink="http://www.w3.org/1999/xlink" viewBox="0 0 1141.27 894.39"><defs><style>.cls-1,.cls-3,.cls-6{fill:none;}.cls-2{clip-path:url(#clip-path);}.cls-3,.cls-4{stroke:#f28a18;}.cls-3,.cls-4,.cls-6{stroke-miterlimit:10;}.cls-3,.cls-6{stroke-width:35px;}.cls-4{fill:#f5a746;stroke-width:5px;}.cls-5{fill:#f28a18;}.cls-6{stroke:#21344a;}.cls-7{fill:#3e4f6b;}.cls-8{fill:#21344a;}</style><clipPath id="clip-path"><rect class="cls-1" y="17.42" width="1198.21" height="876.98"/></clipPath></defs><g class="cls-2"><path class="cls-3" d="M342.59,664.2a169,169,0,0,1-169,169A87.08,87.08,0,0,1,86.54,746.1c0-48.1,39-87.09,88.11-87.09H433.57"/><path class="cls-3" d="M342.59,640.91v-53a86.19,86.19,0,0,0-86.19-86.19H138.21"/><path class="cls-3" d="M-160.71,611.3V588.8a87.09,87.09,0,0,1,87.09-87.08H138.21"/><path class="cls-3" d="M658,522.42a150.69,150.69,0,0,0-150.7-150.69,77.66,77.66,0,0,0-77.66,77.66c0,42.89,34.77,77.66,78.59,77.66h206"/><line class="cls-3" x1="646.71" y1="527.05" x2="1060.2" y2="527.05"/><circle class="cls-4" cx="1064.45" cy="527.05" r="41.42"/><path class="cls-3" d="M657.44,507.51v62.2c0,48.1-39,89.16-87.09,89.16H433.57"/><path class="cls-5" d="M433.57,388.23V509.84s-21.68-20.71-21.68-60.45S433.57,388.23,433.57,388.23Z"/><line class="cls-6" x1="433.57" y1="238.71" x2="1000.9" y2="238.71"/><path class="cls-6" d="M223.45,233.45a169,169,0,0,0-169-169,87.08,87.08,0,0,0-87.08,87.08c0,48.1,39,87.09,88.12,87.09H433.57"/><path class="cls-6" d="M42.55,483.15h59.54c67,0,122.28-53.28,122.28-120.27V287.81l-1-58.63"/><path class="cls-6" d="M-197,334.74v61.33a87.08,87.08,0,0,0,87.08,87.08H48.66"/><path class="cls-7" d="M1038.6,276.75a38.92,38.92,0,1,1,38.92-38.92A39,39,0,0,1,1038.6,276.75Z"/><path class="cls-8" d="M1038.6,201.42a36.42,36.42,0,1,1-36.41,36.41,36.46,36.46,0,0,1,36.41-36.41m0-5A41.42,41.42,0,1,0,1080,237.83a41.41,41.41,0,0,0-41.42-41.41Z"/></g></svg>