<svg id="Camada_1" data-name="Camada 1" xmlns="http://www.w3.org/2000/svg" xmlns:xlink="http://www.w3.org/1999/xlink" viewBox="0 0 1236.24 802.55"><defs><style>.cls-1,.cls-4,.cls-7{fill:none;}.cls-2{font-size:37px;font-family:RobotoMono-Bold, Roboto Mono;font-weight:700;}.cls-2,.cls-6{fill:#f28a18;}.cls-3{clip-path:url(#clip-path);}.cls-4,.cls-5{stroke:#f28a18;}.cls-4,.cls-5,.cls-7{stroke-miterlimit:10;}.cls-4,.cls-7{stroke-width:35px;}.cls-5{fill:#f5a746;stroke-width:5px;}.cls-7{stroke:#21344a;}.cls-8{fill:#3e4f6b;}.cls-9{fill:#21344a;}</style><clipPath id="clip-path"><rect class="cls-1" x="-0.39" y="5.41" width="1233.59" height="797.15"/></clipPath></defs><text class="cls-2" transform="translate(1135.48 -3.95)">TRILHA LARANJA</text><g class="cls-3"><path class="cls-4" d="M597.42,608.76A163.19,163.19,0,0,1,434.23,772a84.1,84.1,0,0,1-84.11-84.1c0-46.45,37.66-84.1,85.11-84.1H685.29"/><path class="cls-4" d="M597.42,586.26V535.08a83.24,83.24,0,0,0-83.24-83.24H400"/><path class="cls-4" d="M111.34,557.67V535.94a84.1,84.1,0,0,1,84.11-84.1H400"/><circle class="cls-5" cx="112.48" cy="595.17" r="37.5"/><path class="cls-4" d="M902,471.83A145.55,145.55,0,0,0,756.48,326.29a75,75,0,0,0-75,75c0,41.43,33.58,75,75.9,75h198.9"/><line class="cls-4" x1="891.13" y1="476.3" x2="1290.47" y2="476.3"/><path class="cls-4" d="M901.49,457.42V517.5c0,46.45-37.65,86.1-84.1,86.1H685.29"/><path class="cls-6" d="M685.29,342.23V459.68s-20.94-20-20.94-58.39S685.29,342.23,685.29,342.23Z"/><line class="cls-7" x1="685.29" y1="197.82" x2="1233.2" y2="197.82"/><path class="cls-7" d="M482.35,192.74A163.19,163.19,0,0,0,319.16,29.55a84.1,84.1,0,0,0-84.1,84.1c0,46.45,37.65,84.1,85.1,84.1H685.29"/><path class="cls-7" d="M307.65,433.91h57.5c64.71,0,118.09-51.46,118.09-116.17v-72.5l-.94-56.62"/><path class="cls-7" d="M76.26,290.57V349.8a84.1,84.1,0,0,0,84.1,84.11H313.54"/><circle class="cls-8" cx="76" cy="267.07" r="37.5"/><path class="cls-9" d="M76,232.07a35,35,0,1,1-35,35,35,35,0,0,1,35-35m0-5a40,40,0,1,0,40,40,40,40,0,0,0-40-40Z"/><circle class="cls-8" cx="1269.61" cy="196.98" r="37.5"/><path class="cls-9" d="M1269.61,162a35,35,0,1,1-35,35,35,35,0,0,1,35-35m0-5a40,40,0,1,0,40,40,40,40,0,0,0-40-40Z"/></g></svg>