<svg id="Camada_1" data-name="Camada 1" xmlns="http://www.w3.org/2000/svg" viewBox="0 0 1362.91 802.55"><defs><style>.cls-1,.cls-4{fill:none;stroke-width:35px;}.cls-1,.cls-2{stroke:#f28a18;}.cls-1,.cls-2,.cls-4{stroke-miterlimit:10;}.cls-2{fill:#f5a746;stroke-width:5px;}.cls-3,.cls-7{fill:#f28a18;}.cls-4{stroke:#21344a;}.cls-5{fill:#3e4f6b;}.cls-6{fill:#21344a;}.cls-7{font-size:37px;font-family:RobotoMono-Bold, Roboto Mono;font-weight:700;}</style></defs><path class="cls-1" d="M596.3,608.76A163.19,163.19,0,0,1,433.11,772a84.1,84.1,0,0,1-84.1-84.1c0-46.45,37.65-84.1,85.1-84.1H684.17"/><path class="cls-1" d="M596.3,586.26V535.08a83.23,83.23,0,0,0-83.24-83.24H398.91"/><path class="cls-1" d="M110.23,557.67V535.94a84.1,84.1,0,0,1,84.1-84.1H398.91"/><circle class="cls-2" cx="111.36" cy="595.17" r="37.5"/><path class="cls-1" d="M900.9,471.83A145.54,145.54,0,0,0,755.36,326.29a75,75,0,0,0-75,75c0,41.43,33.58,75,75.9,75H955.16"/><line class="cls-1" x1="890.01" y1="476.3" x2="1289.36" y2="476.3"/><circle class="cls-2" cx="1293.45" cy="476.3" r="40"/><path class="cls-1" d="M900.37,457.42V517.5c0,46.45-37.65,86.1-84.1,86.1H684.17"/><path class="cls-3" d="M684.17,342.23V459.68s-20.94-20-20.94-58.39S684.17,342.23,684.17,342.23Z"/><line class="cls-4" x1="684.17" y1="197.82" x2="1232.08" y2="197.82"/><path class="cls-4" d="M481.24,192.74A163.2,163.2,0,0,0,318,29.55a84.1,84.1,0,0,0-84.1,84.1c0,46.45,37.65,84.1,85.1,84.1H684.17"/><path class="cls-4" d="M306.53,433.91H364c64.71,0,118.09-51.46,118.09-116.17v-72.5l-.94-56.62"/><path class="cls-4" d="M75.14,290.57V349.8a84.11,84.11,0,0,0,84.11,84.11H312.42"/><circle class="cls-5" cx="74.88" cy="267.07" r="37.5"/><path class="cls-6" d="M74.88,232.07a35,35,0,1,1-35,35,35,35,0,0,1,35-35m0-5a40,40,0,1,0,40,40,40,40,0,0,0-40-40Z"/><circle class="cls-5" cx="1268.5" cy="196.98" r="37.5"/><path class="cls-6" d="M1268.5,162a35,35,0,1,1-35,35,35,35,0,0,1,35-35m0-5a40,40,0,1,0,40,40,40,40,0,0,0-40-40Z"/><text class="cls-7" transform="translate(1262.15 -3.95)">TRILHA LARANJA</text></svg>