<svg id="Camada_1" data-name="Camada 1" xmlns="http://www.w3.org/2000/svg" viewBox="0 0 211.17 199.46"><defs><style>.cls-1{fill:#e9531b;}.cls-2{fill:#fff;}.cls-3,.cls-4,.cls-5{fill:none;stroke:#fff;stroke-linejoin:round;stroke-width:4px;}.cls-3,.cls-4{stroke-linecap:round;}.cls-4{stroke-dasharray:18;}</style></defs><polygon class="cls-1" points="163.02 122.99 174.23 134.35 159.4 145.09 171.29 157.14 157.31 167.27 145.43 155.22 130.61 165.96 119.4 154.6 134.22 143.86 122.34 131.81 136.31 121.68 148.2 133.73 163.02 122.99"/><polygon class="cls-2" points="68.04 28.2 86.78 68.29 40.9 68.29 68.04 28.2"/><polygon class="cls-3" points="163.02 122.99 174.23 134.35 159.4 145.09 171.29 157.14 157.31 167.27 145.43 155.22 130.61 165.96 119.4 154.6 134.22 143.86 122.34 131.81 136.31 121.68 148.2 133.73 163.02 122.99"/><path class="cls-4" d="M115.4,144.47s-72.5,22.8-70.6-16.63c2.43-50.44,133-20.71,118.24-59.55C156,49.61,131.92,79.61,89.75,49.61"/><polygon class="cls-5" points="68.04 28.2 40.9 68.29 86.78 68.29 68.04 28.2"/></svg>