<svg id="Camada_1" data-name="Camada 1" xmlns="http://www.w3.org/2000/svg" viewBox="0 0 1019 217"><defs><style>.cls-1{fill:#fff;}.cls-2{fill:#69b6c2;}</style></defs><path class="cls-1" d="M189.84,142.69a4.28,4.28,0,0,1-4.29-4.29V54.21A4.36,4.36,0,0,1,186.81,51a4.13,4.13,0,0,1,3-1.25h14.48A4.46,4.46,0,0,1,207.45,51a4.2,4.2,0,0,1,1.34,3.22v7.33a26.86,26.86,0,0,1,10.64-8.76,35.49,35.49,0,0,1,15.1-3h7.33A4.09,4.09,0,0,1,245,51a4.34,4.34,0,0,1,1.16,3V66.9a4.32,4.32,0,0,1-1.16,3,4.05,4.05,0,0,1-3.13,1.25H227.92q-8.58,0-13.32,4.74t-4.74,13.32V138.4a4.11,4.11,0,0,1-1.25,3,4.31,4.31,0,0,1-3.21,1.25Z"/><path class="cls-1" d="M292.51,144.48q-14.31,0-24-5a34.72,34.72,0,0,1-14.84-14.13,48.86,48.86,0,0,1-5.81-21.27q-.18-3.21-.18-7.86t.18-7.87a47.16,47.16,0,0,1,6-21.36,36,36,0,0,1,15-14q9.75-5,23.69-5t23.68,5a36.07,36.07,0,0,1,15,14,47.29,47.29,0,0,1,6,21.36q.17,3.23.17,7.87t-.17,7.86a49,49,0,0,1-5.81,21.27,34.78,34.78,0,0,1-14.84,14.13Q306.8,144.48,292.51,144.48Zm0-17.7q9.47,0,14.66-6t5.72-17.61q.17-2.68.17-7t-.17-7q-.54-11.62-5.72-17.61t-14.66-6q-9.48,0-14.66,6t-5.72,17.61q-.18,2.69-.18,7t.18,7q.54,11.63,5.72,17.61T292.51,126.78Z"/><path class="cls-1" d="M398.77,144.48q-10.36,0-17.25-3.57a35.07,35.07,0,0,1-11.35-9.12v6.61a4.29,4.29,0,0,1-1.17,3,4,4,0,0,1-3.12,1.25H351.75a4.27,4.27,0,0,1-4.28-4.29V20.07a4.27,4.27,0,0,1,4.28-4.29H367A4.09,4.09,0,0,1,370.08,17a4.34,4.34,0,0,1,1.16,3V59.75a35.07,35.07,0,0,1,11.17-8.49q6.7-3.3,16.36-3.31a39,39,0,0,1,16.44,3.22,32.51,32.51,0,0,1,11.71,9,41.33,41.33,0,0,1,7.24,13.5,57,57,0,0,1,2.68,16.62c.12,2.14.18,4.08.18,5.81s-.06,3.66-.18,5.81A63.54,63.54,0,0,1,434,119a41.27,41.27,0,0,1-7.15,13.5,31.12,31.12,0,0,1-11.62,8.84A39.82,39.82,0,0,1,398.77,144.48Zm-6.62-19.13q7.69,0,12-3.3a19,19,0,0,0,6.26-8.67,41.14,41.14,0,0,0,2.32-11.8c.12-3.57.12-7.15,0-10.72a41,41,0,0,0-2.32-11.8,18.92,18.92,0,0,0-6.26-8.67q-4.29-3.31-12-3.31-7.15,0-11.62,3.22a20.8,20.8,0,0,0-6.79,8.13,25.86,25.86,0,0,0-2.5,10.28q-.18,3.23-.18,6.88t.18,6.88a36,36,0,0,0,2.41,10.82,19.46,19.46,0,0,0,6.62,8.67C383.3,124.22,387.27,125.35,392.15,125.35Z"/><path class="cls-1" d="M490.52,144.48q-14.29,0-24-5a34.7,34.7,0,0,1-14.83-14.13,48.73,48.73,0,0,1-5.81-21.27q-.18-3.21-.18-7.86t.18-7.87a47.16,47.16,0,0,1,6-21.36,36.07,36.07,0,0,1,15-14q9.74-5,23.68-5t23.69,5a36.13,36.13,0,0,1,15,14,47.28,47.28,0,0,1,6,21.36q.18,3.23.18,7.87t-.18,7.86a48.86,48.86,0,0,1-5.81,21.27,34.7,34.7,0,0,1-14.83,14.13Q504.82,144.48,490.52,144.48Zm0-17.7q9.48,0,14.66-6t5.72-17.61q.18-2.68.18-7t-.18-7q-.52-11.62-5.72-17.61t-14.66-6q-9.47,0-14.65,6t-5.72,17.61q-.18,2.69-.18,7t.18,7q.54,11.63,5.72,17.61T490.52,126.78Z"/><path class="cls-1" d="M589.08,142.69q-10.73,0-18.06-3.75a23.9,23.9,0,0,1-10.9-11.17q-3.58-7.42-3.58-18.5V68.69H542.42a4.17,4.17,0,0,1-3-1.25,4.37,4.37,0,0,1-1.25-3.22V54a4.27,4.27,0,0,1,4.29-4.29h14.12V20.07a4.3,4.3,0,0,1,1.17-3,4.05,4.05,0,0,1,3.12-1.25h14.48a4.27,4.27,0,0,1,4.29,4.29V49.74H602A4.27,4.27,0,0,1,606.24,54V64.22A4.37,4.37,0,0,1,605,67.44a4.17,4.17,0,0,1-3,1.25H579.6v38.79q0,7.33,2.6,11.44t9,4.11h12.34a4.28,4.28,0,0,1,4.29,4.29V138.4a4.28,4.28,0,0,1-4.29,4.29Z"/><path class="cls-1" d="M622.36,34.37a4.27,4.27,0,0,1-4.29-4.29V17.21a4.27,4.27,0,0,1,4.29-4.29h16.27a4.35,4.35,0,0,1,3.21,1.25,4.14,4.14,0,0,1,1.26,3V30.08a4.12,4.12,0,0,1-1.26,3,4.35,4.35,0,0,1-3.21,1.25Zm.72,108.32a4.27,4.27,0,0,1-4.29-4.29V54a4.27,4.27,0,0,1,4.29-4.29h14.83A4.09,4.09,0,0,1,641,51a4.34,4.34,0,0,1,1.16,3V138.4a4.32,4.32,0,0,1-1.16,3,4.05,4.05,0,0,1-3.13,1.25Z"/><path class="cls-1" d="M658.17,142.69a4,4,0,0,1-3.13-1.25,4.32,4.32,0,0,1-1.16-3V128.21a6.64,6.64,0,0,1,.8-3.12,15.49,15.49,0,0,1,1.7-2.59l45.76-54.17H659.6a4.28,4.28,0,0,1-3-1.16A4.06,4.06,0,0,1,655.31,64V54a4.27,4.27,0,0,1,4.29-4.29h67.75A4.09,4.09,0,0,1,730.48,51a4.34,4.34,0,0,1,1.16,3V64.94a5.65,5.65,0,0,1-.72,2.86,16.77,16.77,0,0,1-1.78,2.5l-44.69,53.8H731.1a4.29,4.29,0,0,1,3,1.17,4.05,4.05,0,0,1,1.25,3.12v10a4.27,4.27,0,0,1-4.29,4.29Z"/><path class="cls-1" d="M778,144.48a37.83,37.83,0,0,1-16.8-3.66A30.76,30.76,0,0,1,749.26,131a24.41,24.41,0,0,1,5.81-33.79q10.18-7.41,26.64-9.92l24.48-3.57V80q0-7.5-3.75-11.62t-12.87-4.11a19.11,19.11,0,0,0-10.46,2.59,15.9,15.9,0,0,0-6,6.89A4.58,4.58,0,0,1,769,76H754.89A3.79,3.79,0,0,1,752,75a4.06,4.06,0,0,1-1-2.86,17.63,17.63,0,0,1,2.41-7,28.48,28.48,0,0,1,6.8-8,39,39,0,0,1,11.88-6.52A51.66,51.66,0,0,1,789.75,48q11.26,0,19,2.78a33,33,0,0,1,12.42,7.41A28.13,28.13,0,0,1,828,69.05a40.5,40.5,0,0,1,2.15,13.23V138.4a4.27,4.27,0,0,1-4.29,4.29H811.38a4,4,0,0,1-3.13-1.25,4.32,4.32,0,0,1-1.16-3v-7a31.11,31.11,0,0,1-6.26,6.26,32,32,0,0,1-9.56,4.91A42.29,42.29,0,0,1,778,144.48Zm6.08-17a24.06,24.06,0,0,0,11.35-2.68,19,19,0,0,0,8-8.31c2-3.76,3-8.49,3-14.22V98.54L788.5,101.4Q778,103,772.77,106.59t-5.18,8.76a9.85,9.85,0,0,0,2.41,6.7,14.35,14.35,0,0,0,6.17,4.11A23.26,23.26,0,0,0,784,127.5Z"/><path class="cls-2" d="M847.12,144.48a3.89,3.89,0,0,1-3.9-3.9v-16.1a4,4,0,0,1,1.14-2.93,3.74,3.74,0,0,1,2.76-1.14h16.26a3.77,3.77,0,0,1,2.77,1.14,4,4,0,0,1,1.14,2.93v16.1a3.89,3.89,0,0,1-3.91,3.9Z"/><path class="cls-1" d="M910.54,144.48a37.86,37.86,0,0,1-16.8-3.66A30.73,30.73,0,0,1,881.86,131a24.39,24.39,0,0,1,5.8-33.79q10.2-7.41,26.64-9.92l24.49-3.57V80q0-7.5-3.76-11.62t-12.87-4.11q-6.43,0-10.45,2.59a15.86,15.86,0,0,0-6,6.89A4.58,4.58,0,0,1,901.61,76H887.49a3.8,3.8,0,0,1-3-1.07,4.06,4.06,0,0,1-1-2.86,17.63,17.63,0,0,1,2.41-7,28.48,28.48,0,0,1,6.8-8,39.07,39.07,0,0,1,11.89-6.52A51.56,51.56,0,0,1,922.34,48q11.26,0,19,2.78a33,33,0,0,1,12.42,7.41,28.27,28.27,0,0,1,6.8,10.91,40.5,40.5,0,0,1,2.14,13.23V138.4a4.27,4.27,0,0,1-4.29,4.29H944a4.05,4.05,0,0,1-3.13-1.25,4.32,4.32,0,0,1-1.16-3v-7a31.11,31.11,0,0,1-6.26,6.26,32,32,0,0,1-9.56,4.91A42.25,42.25,0,0,1,910.54,144.48Zm6.08-17A24.06,24.06,0,0,0,928,124.82a19.1,19.1,0,0,0,8-8.31c2-3.76,3-8.49,3-14.22V98.54l-17.88,2.86q-10.55,1.6-15.73,5.19t-5.18,8.76a9.85,9.85,0,0,0,2.41,6.7,14.41,14.41,0,0,0,6.17,4.11A23.26,23.26,0,0,0,916.62,127.5Z"/><path class="cls-1" d="M979.27,34.37a4.28,4.28,0,0,1-4.3-4.29V17.21a4.28,4.28,0,0,1,4.3-4.29h16.26a4.39,4.39,0,0,1,3.22,1.25,4.17,4.17,0,0,1,1.25,3V30.08a4.15,4.15,0,0,1-1.25,3,4.39,4.39,0,0,1-3.22,1.25ZM980,142.69a4.27,4.27,0,0,1-4.29-4.29V54A4.27,4.27,0,0,1,980,49.74h14.84A4.05,4.05,0,0,1,997.94,51a4.3,4.3,0,0,1,1.17,3V138.4a4.29,4.29,0,0,1-1.17,3,4,4,0,0,1-3.12,1.25Z"/><path class="cls-2" d="M20.35,107.47a3.5,3.5,0,0,1-3.45-2.92A68.34,68.34,0,0,1,84.23,25a68.23,68.23,0,0,1,22.52,3.8,3.5,3.5,0,1,1-2.31,6.61A61.31,61.31,0,0,0,23,93.23a61.67,61.67,0,0,0,.84,10.17,3.49,3.49,0,0,1-2.88,4A2.84,2.84,0,0,1,20.35,107.47Z"/><path class="cls-2" d="M84.23,161.5A67.89,67.89,0,0,1,26.06,129a3.5,3.5,0,1,1,6-3.67,61.27,61.27,0,1,0,91.85-78.79,3.5,3.5,0,0,1,4.53-5.34A68.27,68.27,0,0,1,84.23,161.5Z"/><path class="cls-1" d="M84.2,136.46a43.24,43.24,0,0,1-41.26-56,3.5,3.5,0,1,1,6.68,2.07,36.25,36.25,0,0,0,41.87,46.24,3.5,3.5,0,0,1,1.4,6.86,43.78,43.78,0,0,1-7.14.85Z"/><path class="cls-1" d="M106.21,129.84a3.5,3.5,0,0,1-1.94-6.42A36.23,36.23,0,1,0,55.8,70.78a3.5,3.5,0,0,1-5.49-4.34,43.23,43.23,0,1,1,57.84,62.81A3.47,3.47,0,0,1,106.21,129.84Z"/><path class="cls-1" d="M84.23,118.75A25.48,25.48,0,0,1,76,117.38a3.5,3.5,0,0,1,2.27-6.62,18.46,18.46,0,0,0,6,1h.11a18.51,18.51,0,0,0,18.41-18.63,17.52,17.52,0,0,0-.27-3.07,3.5,3.5,0,1,1,6.9-1.2,24.91,24.91,0,0,1,.37,4.23,25.5,25.5,0,0,1-25.36,25.67Z"/><path class="cls-2" d="M64.55,106.61a3.5,3.5,0,0,1-3.13-1.93,25.53,25.53,0,0,1,22.66-37h.15a25.52,25.52,0,0,1,16.42,6,3.5,3.5,0,1,1-4.51,5.36,18.49,18.49,0,0,0-11.91-4.34h-.11a18.53,18.53,0,0,0-16.45,26.83,3.51,3.51,0,0,1-1.55,4.7A3.54,3.54,0,0,1,64.55,106.61Z"/><path class="cls-1" d="M787.67,183a10.23,10.23,0,0,1,1.94-3.45,8.91,8.91,0,0,1,3-2.3,9.53,9.53,0,0,1,4-.83,9.69,9.69,0,0,1,4.08.83,9,9,0,0,1,3.07,2.3,10.54,10.54,0,0,1,1.92,3.45,13.49,13.49,0,0,1,.67,4.29v.44a13.38,13.38,0,0,1-.67,4.28,10.49,10.49,0,0,1-1.92,3.44,8.92,8.92,0,0,1-3.06,2.29,10.34,10.34,0,0,1-8.12,0,8.7,8.7,0,0,1-3-2.29,10.18,10.18,0,0,1-1.94-3.44,13.11,13.11,0,0,1-.67-4.28v-.44A13.21,13.21,0,0,1,787.67,183Zm3.36,7.74a7.84,7.84,0,0,0,1.14,2.52,5.56,5.56,0,0,0,1.9,1.71,5.81,5.81,0,0,0,5.3,0,5.78,5.78,0,0,0,1.91-1.71,8,8,0,0,0,1.12-2.52,11.82,11.82,0,0,0,.38-3v-.44a11.35,11.35,0,0,0-.39-3,8.11,8.11,0,0,0-1.13-2.51,5.84,5.84,0,0,0-1.91-1.73,5.29,5.29,0,0,0-2.66-.64,5.21,5.21,0,0,0-2.64.64,5.65,5.65,0,0,0-1.88,1.73,7.69,7.69,0,0,0-1.14,2.51,11.78,11.78,0,0,0-.38,3v.44A11.82,11.82,0,0,0,791,190.78Z"/><path class="cls-1" d="M826.15,195.27a7.71,7.71,0,0,1-2.66,2.46,7.51,7.51,0,0,1-3.69.88,8.67,8.67,0,0,1-3-.52,6,6,0,0,1-2.33-1.63,7.71,7.71,0,0,1-1.49-2.82,14.38,14.38,0,0,1-.52-4.09v-12.7h3.65v12.74a12.85,12.85,0,0,0,.28,2.88,4.35,4.35,0,0,0,.83,1.81,2.86,2.86,0,0,0,1.35,1,5.49,5.49,0,0,0,1.85.28,7.79,7.79,0,0,0,2.19-.29,5.68,5.68,0,0,0,1.68-.8,4.44,4.44,0,0,0,1-1,5.35,5.35,0,0,0,.74-1.27V176.85h3.68v21.36h-3.32Z"/><path class="cls-1" d="M835.06,176.85h3.75L844.93,193l.34,1.32.35-1.32,6-16.11h3.73l-8.7,21.36h-2.79Z"/><path class="cls-1" d="M872.31,176.85v18.2h7v3.16H861.4v-3.16h7.26V180H861.4v-3.18Zm-4-6.5a1.85,1.85,0,0,1,.46-.71,1.79,1.79,0,0,1,.66-.4,2.65,2.65,0,0,1,.92-.15,2.59,2.59,0,0,1,.91.15,1.84,1.84,0,0,1,.65.4,1.73,1.73,0,0,1,.47.69,2.45,2.45,0,0,1,.16.91,2.06,2.06,0,0,1-.55,1.48,2.56,2.56,0,0,1-3.29,0,2.09,2.09,0,0,1-.54-1.48A2.64,2.64,0,0,1,868.34,170.35Z"/><path class="cls-1" d="M885,183a10.3,10.3,0,0,1,1.73-3.44,7.85,7.85,0,0,1,2.68-2.26,7.65,7.65,0,0,1,3.54-.8,8.06,8.06,0,0,1,3.34.64,6.93,6.93,0,0,1,2.48,1.86V167.89h3.65v30.32h-3.35l-.16-2.25a7,7,0,0,1-2.55,2,8.39,8.39,0,0,1-3.45.67,7.45,7.45,0,0,1-3.51-.83,8.12,8.12,0,0,1-2.67-2.29A11,11,0,0,1,885,192a14.31,14.31,0,0,1-.61-4.27v-.42A15.28,15.28,0,0,1,885,183Zm3.39,7.77a7.54,7.54,0,0,0,1,2.47,4.94,4.94,0,0,0,4.39,2.31,5.29,5.29,0,0,0,3-.83,5.86,5.86,0,0,0,1.91-2.23v-9.91a6.18,6.18,0,0,0-1.91-2.15,5.15,5.15,0,0,0-3-.83,5,5,0,0,0-4.43,2.32,7.9,7.9,0,0,0-1,2.5,12.46,12.46,0,0,0-.34,3v.42A12.32,12.32,0,0,0,888.39,190.73Z"/><path class="cls-1" d="M909,183a10.38,10.38,0,0,1,1.93-3.45,9,9,0,0,1,3-2.3,9.61,9.61,0,0,1,4-.83,9.72,9.72,0,0,1,4.08.83,9.12,9.12,0,0,1,3.07,2.3,10.34,10.34,0,0,1,1.91,3.45,13.21,13.21,0,0,1,.68,4.29v.44a13.11,13.11,0,0,1-.68,4.28,10.29,10.29,0,0,1-1.91,3.44,8.92,8.92,0,0,1-3.06,2.29,9.61,9.61,0,0,1-4.05.83,9.75,9.75,0,0,1-4.08-.83,8.79,8.79,0,0,1-3.05-2.29,10.33,10.33,0,0,1-1.93-3.44,13.11,13.11,0,0,1-.67-4.28v-.44A13.21,13.21,0,0,1,909,183Zm3.36,7.74a7.84,7.84,0,0,0,1.14,2.52,5.47,5.47,0,0,0,1.9,1.71,5.81,5.81,0,0,0,5.3,0,5.75,5.75,0,0,0,1.9-1.71,8,8,0,0,0,1.13-2.52,11.82,11.82,0,0,0,.37-3v-.44a11.78,11.78,0,0,0-.38-3,8.13,8.13,0,0,0-1.14-2.51,5.81,5.81,0,0,0-1.9-1.73,5.29,5.29,0,0,0-2.66-.64,5.21,5.21,0,0,0-2.64.64,5.65,5.65,0,0,0-1.88,1.73,7.69,7.69,0,0,0-1.14,2.51,11.78,11.78,0,0,0-.38,3v.44A11.82,11.82,0,0,0,912.36,190.78Z"/><path class="cls-1" d="M949.72,176.59a6.74,6.74,0,0,1,1.65.38l-.49,3.57a18.29,18.29,0,0,0-2-.34,16.09,16.09,0,0,0-2-.11,8.67,8.67,0,0,0-2.43.32,5.75,5.75,0,0,0-3.17,2.31,8.33,8.33,0,0,0-.9,1.79v13.7h-3.67V176.85h3.48l.15,2.86,0,.54a9.75,9.75,0,0,1,3.13-2.78,8.4,8.4,0,0,1,4.16-1A17.14,17.14,0,0,1,949.72,176.59Z"/><path class="cls-1" d="M969.38,176.85v18.2h7v3.16H958.46v-3.16h7.26V180h-7.26v-3.18Zm-4-6.5a1.85,1.85,0,0,1,.46-.71,1.79,1.79,0,0,1,.66-.4,2.65,2.65,0,0,1,.92-.15,2.55,2.55,0,0,1,.91.15,1.84,1.84,0,0,1,.65.4,1.87,1.87,0,0,1,.48.69,2.67,2.67,0,0,1,.15.91,2.06,2.06,0,0,1-.55,1.48,2.56,2.56,0,0,1-3.29,0,2.09,2.09,0,0,1-.54-1.48A2.64,2.64,0,0,1,965.4,170.35Z"/><path class="cls-1" d="M995.84,197.18c-.08-.42-.14-.85-.18-1.3a9.94,9.94,0,0,1-1.24,1.05,8.69,8.69,0,0,1-1.49.87,9.1,9.1,0,0,1-1.76.59,8.26,8.26,0,0,1-2,.22,9,9,0,0,1-3.07-.5,6.77,6.77,0,0,1-2.32-1.34,5.69,5.69,0,0,1-1.49-2,6,6,0,0,1-.52-2.5,6.45,6.45,0,0,1,.7-3.08,6.15,6.15,0,0,1,2-2.21,9.23,9.23,0,0,1,3.09-1.3,17.3,17.3,0,0,1,4-.44h4v-1.68a4,4,0,0,0-.36-1.73,3.77,3.77,0,0,0-1-1.33,4.83,4.83,0,0,0-1.58-.83,7.27,7.27,0,0,0-2.11-.29,6.45,6.45,0,0,0-1.94.27,4.92,4.92,0,0,0-1.45.73,3.36,3.36,0,0,0-.92,1.08,2.75,2.75,0,0,0-.33,1.29h-3.67a5.08,5.08,0,0,1,.6-2.29,6.43,6.43,0,0,1,1.69-2,8.75,8.75,0,0,1,2.66-1.44,10.6,10.6,0,0,1,3.56-.55,12.17,12.17,0,0,1,3.38.44,7.93,7.93,0,0,1,2.7,1.33,6.66,6.66,0,0,1,1.78,2.25,7.19,7.19,0,0,1,.65,3.14v9.93a14,14,0,0,0,.2,2.26,9.74,9.74,0,0,0,.55,2.09v.31h-3.81A3.87,3.87,0,0,1,995.84,197.18Zm-4.11-2a7.21,7.21,0,0,0,1.7-.73,6.42,6.42,0,0,0,1.3-1,5.09,5.09,0,0,0,.87-1.22v-4.32h-3.4a15.41,15.41,0,0,0-3.31.32,5.53,5.53,0,0,0-2.24,1,3.27,3.27,0,0,0-.9,1.13,3.46,3.46,0,0,0-.3,1.48,4.11,4.11,0,0,0,.26,1.46,3,3,0,0,0,.8,1.14,3.7,3.7,0,0,0,1.35.77,5.62,5.62,0,0,0,1.87.28A6.81,6.81,0,0,0,991.73,195.15Z"/></svg>