<svg id="Camada_1" data-name="Camada 1" xmlns="http://www.w3.org/2000/svg" viewBox="0 0 447 112"><defs><style>.cls-1{fill:#fff;}</style></defs><circle class="cls-1" cx="61.6" cy="33.48" r="5.18"/><circle class="cls-1" cx="61.6" cy="13.81" r="4.14"/><circle class="cls-1" cx="61.6" cy="82.05" r="5.18"/><circle class="cls-1" cx="61.6" cy="101.72" r="4.14"/><circle class="cls-1" cx="61.6" cy="57.77" r="8.29"/><circle class="cls-1" cx="43.39" cy="39.56" r="5.18"/><circle class="cls-1" cx="31.13" cy="27.29" r="4.14"/><circle class="cls-1" cx="36.28" cy="57.77" r="5.18"/><circle class="cls-1" cx="17.65" cy="57.77" r="4.14"/><circle class="cls-1" cx="43.39" cy="75.97" r="5.18"/><circle class="cls-1" cx="31.13" cy="88.24" r="4.14"/><path class="cls-1" d="M112.36,88.4c-15.77,0-25.72-7-26.06-20.8a.78.78,0,0,1,.8-.8h8.46a.78.78,0,0,1,.8.8c.34,9.37,6,13.6,16.46,13.6,8.68,0,14.51-3.66,14.51-10.18,0-15.43-39.78-3-39.78-26.74C87.55,33,96.93,27,110.87,27c13.6,0,23.78,5.83,24.46,18.17a.78.78,0,0,1-.8.8h-8.11a.78.78,0,0,1-.8-.8c-.69-7.54-6.4-11.09-14.86-11.09-8.12,0-13.26,3-13.26,9.49,0,14.63,39.78,1.94,39.78,26.63C137.28,81.77,126.53,88.4,112.36,88.4Z"/><path class="cls-1" d="M142.88,23.25a1.09,1.09,0,0,1-1.14-.46l-1.6-4a.79.79,0,0,1,.34-1L165.63,5.87a.61.61,0,0,1,.91.46l2.4,6.74a.81.81,0,0,1-.57,1Zm4,63.89a.78.78,0,0,1-.8-.8l.23-29.49-.23-27.78a.78.78,0,0,1,.8-.8h9a.78.78,0,0,1,.8.8l-.23,27.67.23,29.6a.78.78,0,0,1-.8.8Z"/><path class="cls-1" d="M168.37,87.14a.78.78,0,0,1-.8-.8l.34-26.06-.23-31.21a.79.79,0,0,1,.8-.8h8.58a.79.79,0,0,1,.8.8l-.23,9.15A22.49,22.49,0,0,1,197.17,26.9c12.12,0,19.78,8,19.78,23.32V62l.23,24.35a.78.78,0,0,1-.8.8h-9a.78.78,0,0,1-.8-.8L206.78,62V50.68c0-10.63-5-15.43-12.46-15.43-7.66,0-13.95,6.17-16.23,17.83V62l.22,24.35a.78.78,0,0,1-.8.8Z"/><path class="cls-1" d="M255.82,85.65a1.1,1.1,0,0,1-.8,1,30.9,30.9,0,0,1-8.12,1.49c-8.57,0-15.89-4.46-15.89-17.26l.12-34.52h-6.86a.78.78,0,0,1-.8-.8V29.07a.78.78,0,0,1,.8-.8h6.86L231,14.33a.78.78,0,0,1,.8-.8h8.92a.78.78,0,0,1,.8.8l-.23,13.94h13.83a.78.78,0,0,1,.8.8v6.52a.78.78,0,0,1-.8.8H241.3l.11,34.29c0,7.09,2.4,9.26,7.32,9.26a24,24,0,0,0,6.29-.8.63.63,0,0,1,.8.57Z"/><path class="cls-1" d="M312.4,66.68a.64.64,0,0,1,.68.8c-1.71,12.12-10.63,21-25.83,21-18.29,0-28.12-12.69-28.12-30.63,0-18.4,10.52-31,27.55-31s27.2,11.78,27.43,31.44a.78.78,0,0,1-.8.8H269.53c.35,14.17,6.29,21.71,17.83,21.71,8.81,0,13.95-4.68,15.66-13.37a1,1,0,0,1,.92-.8ZM286.79,34.45c-9.71,0-15.43,6.28-16.91,17.37h33C302.57,42.45,297.19,34.45,286.79,34.45Z"/><path class="cls-1" d="M346.12,88.4c-15.77,0-25.72-7-26.06-20.8a.78.78,0,0,1,.8-.8h8.46a.78.78,0,0,1,.8.8c.34,9.37,6.06,13.6,16.46,13.6,8.69,0,14.52-3.66,14.52-10.18,0-15.43-39.78-3-39.78-26.74C321.32,33,330.69,27,344.64,27c13.6,0,23.77,5.83,24.46,18.17a.78.78,0,0,1-.8.8h-8.12a.78.78,0,0,1-.8-.8c-.69-7.54-6.4-11.09-14.86-11.09-8.11,0-13.26,3-13.26,9.49,0,14.63,39.78,1.94,39.78,26.63C371,81.77,360.29,88.4,346.12,88.4Z"/><path class="cls-1" d="M430.82,66.68a.65.65,0,0,1,.69.8c-1.72,12.12-10.63,21-25.83,21-18.29,0-28.12-12.69-28.12-30.63,0-18.4,10.51-31,27.55-31s27.2,11.78,27.43,31.44a.79.79,0,0,1-.8.8H388c.34,14.17,6.29,21.71,17.83,21.71,8.8,0,13.95-4.68,15.66-13.37a1,1,0,0,1,.91-.8Zm-25.6-32.23c-9.72,0-15.43,6.28-16.92,17.37h33C421,42.45,415.62,34.45,405.22,34.45Z"/></svg>