<svg id="Camada_1" data-name="Camada 1" xmlns="http://www.w3.org/2000/svg" viewBox="0 0 424.37 101.26"><defs><style>.cls-1{fill:#5e4a98;}.cls-2{fill:#fff;}</style></defs><rect class="cls-1" x="14.51" y="11.06" width="65.54" height="65.54" rx="8"/><path class="cls-2" d="M50.08,19.41,32.35,48a1.19,1.19,0,0,0,1,1.82H44.31a1.2,1.2,0,0,1,1.15,1.53L40.83,67.26a1.19,1.19,0,0,0,2.12,1L62.12,41.36a1.19,1.19,0,0,0-1-1.89H49.73A1.2,1.2,0,0,1,48.56,38l3.71-17.74A1.2,1.2,0,0,0,50.08,19.41Z"/><path class="cls-2" d="M100.85,35.47h-6.7V28.09h6.7V26.14c0-10.44,5.69-15.7,16.88-15.7a49.53,49.53,0,0,1,8.57.77l-1.36,7.21A28.29,28.29,0,0,0,119.6,18c-6.19,0-9.16,2.72-9.16,8.4v1.7H124.1v7.38H110.44V76.61h-9.59Z"/><path class="cls-2" d="M125.54,52.35c0-16.71,10.18-25.2,22.22-25.2,7.63,0,14.42,3.74,17.22,10.44v-9.5h9.5V76.52H165V67.36c-2.71,6.53-9.59,10.35-17.13,10.35C135.8,77.71,125.54,69.14,125.54,52.35Zm39.69,0c0-10.61-6.19-17.14-15.18-17.14s-15,6.45-15,17.14,6.1,17.22,15.18,17.22C159.13,69.57,165.23,63,165.23,52.35Z"/><path class="cls-2" d="M181.6,80.59l9-2.2c2.37,5,7.63,8.23,14.25,8.23,9.58,0,15-4.75,15-16.88V65.49c-2.71,7.21-9.59,10-17.13,10-12.13,0-22.31-8-22.31-24.17s10.18-24.09,22.22-24.09c7.63,0,14.51,2.8,17.22,10.09V28.09h9.5V68.21c0,18.15-8.57,26-24.6,26C193.39,94.17,184.91,89.25,181.6,80.59ZM220,51.33c0-10.43-6-16.8-15.1-16.8s-15,6.37-15,16.8c0,10.6,6,16.88,15.1,16.88S220,61.85,220,51.33Z"/><path class="cls-2" d="M237.76,54.47V28.09h9.5V53.7c0,10.52,3.81,15.53,13,15.53s12.89-6,12.89-16.71V28.09h9.5V76.61h-9.5V67.79c-2.12,6-7.72,9.75-15.78,9.75C244,77.54,237.76,69.74,237.76,54.47Z"/><path class="cls-2" d="M291.45,12.31H301v64.3h-9.59Z"/><path class="cls-2" d="M309.69,12.31h9.5v24.6c1.95-5.68,7.21-9.67,15.86-9.67,12.81,0,19.59,7,19.59,23.07v26.3h-9.5V51.07c0-10.85-4.07-15.6-13.06-15.6s-12.89,5.77-12.89,16.71V76.61h-9.5Z"/><path class="cls-2" d="M360.84,52.35c0-16.71,10.18-25.2,22.22-25.2,7.63,0,14.42,3.74,17.22,10.44v-9.5h9.5V76.52h-9.5V67.36c-2.72,6.53-9.59,10.35-17.14,10.35C371.1,77.71,360.84,69.14,360.84,52.35Zm39.69,0c0-10.61-6.19-17.14-15.18-17.14s-15,6.45-15,17.14,6.1,17.22,15.18,17.22C394.43,69.57,400.53,63,400.53,52.35Z"/></svg>