<svg id="Camada_1" data-name="Camada 1" xmlns="http://www.w3.org/2000/svg" viewBox="0 0 208.45 42.23"><defs><style>.cls-1{fill:none;}.cls-2{fill:#fff;}.cls-3{fill:#3e506c;}</style></defs><path class="cls-1" d="M25.48,9.34H13.35a.51.51,0,0,1-.5-.44A6.44,6.44,0,0,0,11,5.2a6.31,6.31,0,0,1-.45,3.87.49.49,0,0,1-.44.27H8.88a3.75,3.75,0,0,0-3.74,3.74v4.64a3.75,3.75,0,0,0,3.74,3.74h9.06a5.75,5.75,0,0,1,5.61-4.57h5.67V13.08A3.75,3.75,0,0,0,25.48,9.34Z"/><path class="cls-2" d="M30.22,13.08v3.81h-1V13.08a3.75,3.75,0,0,0-3.74-3.74H13.35a.51.51,0,0,1-.5-.44A6.44,6.44,0,0,0,11,5.2a6.31,6.31,0,0,1-.45,3.87.49.49,0,0,1-.44.27H8.88a3.75,3.75,0,0,0-3.74,3.74v4.64a3.75,3.75,0,0,0,3.74,3.74h9.06a4,4,0,0,0-.09.5,4.19,4.19,0,0,0,0,.5H8.88a4.75,4.75,0,0,1-4.74-4.74V13.08A4.75,4.75,0,0,1,8.88,8.34h.94a6.39,6.39,0,0,0-.05-4,.5.5,0,0,1,.12-.53.49.49,0,0,1,.54-.1c2.39,1,3.14,3.63,3.34,4.68H25.48A4.75,4.75,0,0,1,30.22,13.08Z"/><path class="cls-2" d="M29.19,24.87A1.24,1.24,0,1,1,28,23.64,1.23,1.23,0,0,1,29.19,24.87Z"/><path class="cls-2" d="M33.08,24.87a1.23,1.23,0,1,1-1.23-1.23A1.23,1.23,0,0,1,33.08,24.87Z"/><path class="cls-2" d="M37,24.87a1.23,1.23,0,1,1-1.23-1.23A1.23,1.23,0,0,1,37,24.87Z"/><path class="cls-3" d="M29.19,24.87A1.24,1.24,0,1,1,28,23.64,1.23,1.23,0,0,1,29.19,24.87Z"/><path class="cls-3" d="M33.08,24.87a1.23,1.23,0,1,1-1.23-1.23A1.23,1.23,0,0,1,33.08,24.87Z"/><path class="cls-3" d="M37,24.87a1.23,1.23,0,1,1-1.23-1.23A1.23,1.23,0,0,1,37,24.87Z"/><path class="cls-2" d="M40.15,17.89H23.55A4.74,4.74,0,0,0,19,21.46a2.77,2.77,0,0,0-.1.5,2.74,2.74,0,0,0,0,.5.91.91,0,0,0,0,.17v4.64A4.75,4.75,0,0,0,23.55,32H35.26c.2,1.05,1,3.66,3.34,4.68a.43.43,0,0,0,.19,0,.52.52,0,0,0,.35-.14.5.5,0,0,0,.12-.53,6.38,6.38,0,0,1,0-4.05h.94a4.75,4.75,0,0,0,4.74-4.74V22.63A4.75,4.75,0,0,0,40.15,17.89Zm3.74,9.38A3.75,3.75,0,0,1,40.15,31H38.89a.49.49,0,0,0-.44.28A6.35,6.35,0,0,0,38,35.15a6.45,6.45,0,0,1-1.82-3.69.51.51,0,0,0-.5-.45H23.55a3.75,3.75,0,0,1-3.74-3.74V22.63a1,1,0,0,1,0-.17,2.07,2.07,0,0,1,.06-.5,2.15,2.15,0,0,1,.12-.5,3.75,3.75,0,0,1,3.55-2.57h16.6a3.75,3.75,0,0,1,3.74,3.74Z"/><path class="cls-1" d="M40.15,18.89H23.55A3.75,3.75,0,0,0,20,21.46a2.15,2.15,0,0,0-.12.5,2.07,2.07,0,0,0-.06.5,1,1,0,0,0,0,.17v4.64A3.75,3.75,0,0,0,23.55,31H35.68a.51.51,0,0,1,.5.45A6.45,6.45,0,0,0,38,35.15a6.35,6.35,0,0,1,.45-3.86.49.49,0,0,1,.44-.28h1.26a3.75,3.75,0,0,0,3.74-3.74V22.63A3.75,3.75,0,0,0,40.15,18.89ZM28,26.1a1.23,1.23,0,1,1,1.23-1.23A1.24,1.24,0,0,1,28,26.1Zm3.89,0a1.23,1.23,0,1,1,1.23-1.23A1.23,1.23,0,0,1,31.85,26.1Zm3.89,0A1.23,1.23,0,1,1,37,24.87,1.23,1.23,0,0,1,35.74,26.1Z"/><rect class="cls-2" x="8.82" y="13.11" width="15.58" height="1"/><rect class="cls-2" x="8.82" y="16" width="10.49" height="1"/><path class="cls-2" d="M29.19,24.87A1.24,1.24,0,1,1,28,23.64,1.23,1.23,0,0,1,29.19,24.87Z"/><path class="cls-2" d="M33.08,24.87a1.23,1.23,0,1,1-1.23-1.23A1.23,1.23,0,0,1,33.08,24.87Z"/><path class="cls-2" d="M37,24.87a1.23,1.23,0,1,1-1.23-1.23A1.23,1.23,0,0,1,37,24.87Z"/><path class="cls-2" d="M56.47,26c.47,1.76,1.85,2.77,4.09,2.77s3.18-.9,3.18-2.29-.87-2.07-4-2.83c-6.14-1.51-7.23-3.4-7.23-6.14s2-5.81,7.68-5.81,7.7,3.15,7.9,5.83H63.55c-.21-.91-.86-2.41-3.57-2.41-2.12,0-2.78,1-2.78,2s.67,1.7,4,2.49c6.36,1.49,7.38,3.65,7.38,6.54,0,3.32-2.56,6.13-8.19,6.13s-8.15-2.77-8.6-6.27Z"/><path class="cls-2" d="M70.89,3.81h4.75V8.46H70.89Zm0,8.32h4.75V31.79H70.89Z"/><path class="cls-2" d="M79.31,17.19c0-1.69,0-3.41,0-5.06h4.55c.07.51.17,1.73.19,2.57a6.09,6.09,0,0,1,5.55-3,5.23,5.23,0,0,1,5.19,3.17,6.75,6.75,0,0,1,6.13-3.17c3.35,0,6.22,2,6.22,7.21V31.79h-4.65V19.46c0-1.95-.7-3.91-3.21-3.91s-3.68,1.81-3.68,5V31.79H90.9V19.63c0-2.2-.58-4-3.16-4S84,17.34,84,20.84v11h-4.7Z"/><path class="cls-2" d="M115.51,29.81v9.57h-4.72V16.88c0-1.59,0-3.19,0-4.75h4.61a26.36,26.36,0,0,1,.15,2.66,6.42,6.42,0,0,1,6-3.12c4.46,0,7.83,3.73,7.83,9.79,0,7-3.8,10.78-8.56,10.78C117.83,32.24,116.31,31.1,115.51,29.81Zm8.95-8.17c0-3.79-1.6-6.1-4.45-6.1-3.42,0-4.69,2.18-4.69,6.42,0,4.05,1.11,6.45,4.45,6.45C122.89,28.41,124.46,25.93,124.46,21.64Z"/><path class="cls-2" d="M131.75,31.79v-28h4.75v28Z"/><path class="cls-2" d="M139.09,3.81h4.75V8.46h-4.75Z"/><path class="cls-2" d="M149.4,31.79v-16h-3V12.13h3V10.19c0-3.91,1.8-6.76,6.08-6.76a10.49,10.49,0,0,1,2.41.24V7.49a7.58,7.58,0,0,0-1.34-.12c-1.75,0-2.4.8-2.4,3.16v1.6h3.61v3.64h-3.61v16Z"/><path class="cls-2" d="M159.34,3.81h4.75V8.46h-4.75Zm0,8.32h4.75V31.79h-4.75Z"/><path class="cls-2" d="M184.12,25.55c-.73,3.31-3,6.69-8.6,6.69-5.88,0-9.1-4.12-9.1-10.15,0-5.73,3.41-10.42,9.36-10.42,6.3,0,8.18,4.51,8.34,6.84h-4.66a3.51,3.51,0,0,0-3.77-3.06c-2.82,0-4.42,2.45-4.42,6.48,0,4.28,1.63,6.56,4.36,6.56a3.79,3.79,0,0,0,3.81-2.94Z"/><path class="cls-2" d="M202,27a38.22,38.22,0,0,0,.27,4.82h-4.55a9,9,0,0,1-.29-2.15c-.7,1.18-2.12,2.6-5.71,2.6-4.7,0-6.69-3.08-6.69-6.11,0-4.45,3.54-6.49,9.33-6.49h3V18.28c0-1.51-.52-3.14-3.43-3.14-2.63,0-3.15,1.2-3.44,2.66H186c.29-3.23,2.28-6.16,8.15-6.13,5.11,0,7.91,2.05,7.91,6.66Zm-4.64-4.35h-2.54c-3.49,0-5,1-5,3.22A2.85,2.85,0,0,0,193,28.77c3.89,0,4.38-2.67,4.38-5.59Z"/></svg>