<svg id="Camada_1" data-name="Camada 1" xmlns="http://www.w3.org/2000/svg" viewBox="0 0 365 58"><defs><style>.cls-1,.cls-3{fill:#fff;}.cls-1,.cls-2{fill-rule:evenodd;}.cls-2{fill:#3a6aad;}</style></defs><title>Prancheta 1 cópia</title><path class="cls-1" d="M20.88,55.22V2.59H14.41V7.73H9.46V55.22Zm58.37,0V2.59H67.83V38.38L44.68,2.59H34.5V55.22H45.91V25.16L69.07,55.22Zm51.23-42.45V2.59h-42V12.77h15.27V55.22h11.42V12.77ZM231,33.19V24.65H209v9.52h10.76a10.62,10.62,0,0,1-2.63,7.11,9.21,9.21,0,0,1-3.45,2.42,12.09,12.09,0,0,1-4.68.86,10.27,10.27,0,0,1-4.23-.82,8.84,8.84,0,0,1-3.08-2.21,8.59,8.59,0,0,1-1.35-2,11,11,0,0,1-.86-2.91A20.74,20.74,0,0,1,199,33c-.08-1.86-.12-4.18-.12-7s0,.72.12-1.12a35.85,35.85,0,0,1,.46-4.55,11.62,11.62,0,0,1,.86-2.92,8.05,8.05,0,0,1,1.35-2,9.51,9.51,0,0,1,3.08-2.26,10,10,0,0,1,4.23-.86,10.4,10.4,0,0,1,7,2.18,11.55,11.55,0,0,1,3.53,6.36H231a25.58,25.58,0,0,0-2.17-7.06,20.24,20.24,0,0,0-4.31-5.95,20.69,20.69,0,0,0-6.57-4.15A23.76,23.76,0,0,0,209,2.09a22.28,22.28,0,0,0-8.78,1.64,22,22,0,0,0-7,4.76,17,17,0,0,0-3.41,4.73,20.76,20.76,0,0,0-1.68,5.37,43.4,43.4,0,0,0-.58,6.16c-.05,2.19-.08-1.27-.08,1.24s0,4.88.08,7.06a30.38,30.38,0,0,0,.58,5.19,20.45,20.45,0,0,0,1.68,5.38,17,17,0,0,0,3.41,4.72,21.85,21.85,0,0,0,7,4.76A22.3,22.3,0,0,0,209,54.74a26.17,26.17,0,0,0,8.82-1.47,19.81,19.81,0,0,0,7.68-5.18A21.51,21.51,0,0,0,231,33.19Zm55.83,21.06L273.82,35.83a16.13,16.13,0,0,0,4.06-2.09,15.58,15.58,0,0,0,3.41-3.28,16,16,0,0,0,2.34-4.4,16.9,16.9,0,0,0,.86-5.58,19,19,0,0,0-1.27-6.93,16.07,16.07,0,0,0-3.74-5.67,18.34,18.34,0,0,0-6-3.86,21,21,0,0,0-8-1.43h-22.9V54.25H254V37.72h8.21l11.41,16.53ZM273.08,20.48a7.34,7.34,0,0,1-2.26,5.58,8.39,8.39,0,0,1-6,2.14H254V12.77h10.76a8.43,8.43,0,0,1,6,2.13,7.34,7.34,0,0,1,2.26,5.58Zm68.38,34.74L320.12,2.59h-8.95L289.91,55.22h11.9l3.53-10.34h20.77l3.45,10.34ZM323.07,35.27H308.54l7.39-15.44,7.14,15.44Z"/><polygon class="cls-1" points="9.49 2.59 4.54 2.59 4.54 7.73 9.49 7.73 9.49 2.59 9.49 2.59"/><path class="cls-2" d="M139.75,3.63h38.16V13.76H139.75V3.63Zm5.91,2.53a2.53,2.53,0,1,1-2.54,2.53,2.53,2.53,0,0,1,2.54-2.53Z"/><path class="cls-2" d="M139.75,24.36h38.16V34.49H139.75V24.36Zm5.91,2.53a2.54,2.54,0,1,1-2.54,2.53,2.53,2.53,0,0,1,2.54-2.53Z"/><path class="cls-2" d="M139.75,45.09h38.16V55.22H139.75V45.09Zm5.91,2.53a2.54,2.54,0,1,1-2.54,2.54,2.54,2.54,0,0,1,2.54-2.54Z"/><path class="cls-3" d="M353.92,41.85l3.8-6.55h5l-6.09,9.81,6.3,10.1H358l-4-6.81-4,6.81h-5l6.3-10.1-6.07-9.81h4.93Z"/></svg>