<svg id="Camada_1" data-name="Camada 1" xmlns="http://www.w3.org/2000/svg" viewBox="0 0 621.96 148.39"><defs><style>.cls-1{fill:#fff;}.cls-2{fill:#2aa5af;}</style></defs><title>Prancheta 1 cópia2</title><path class="cls-1" d="M114,43.46,72.18,141H48.62L6.81,43.46H30.55l30.31,72.31L92.09,43.46Z"/><path class="cls-1" d="M202.08,66.38a44.73,44.73,0,0,0-17.5-17.72,46.32,46.32,0,0,0-6.24-2.89c-.62-.24-1.23-.47-1.87-.68a53.11,53.11,0,0,0-16.22-2.69L119.17,83.48l-.88.88h13.06a7.45,7.45,0,0,1,.14-.8,26.75,26.75,0,0,1,9.08-16.45,27.57,27.57,0,0,1,18.53-6.47c.62,0,1.23,0,1.82.06.76,0,1.52.12,2.25.2a26.13,26.13,0,0,1,14.55,6.3,26.89,26.89,0,0,1,8.91,16.92c0,.09,0,.15,0,.24h21.2A49.87,49.87,0,0,0,202.08,66.38Zm-90.32,33.2a1.64,1.64,0,0,0,.2.26,12.08,12.08,0,0,0,9,4.19,11.7,11.7,0,0,0,9-4.19,1.26,1.26,0,0,0,.21-.26Z"/><path class="cls-1" d="M201.82,126.37a41.17,41.17,0,0,1-16.6,11.86,60.39,60.39,0,0,1-22.66,4c-10.72,0-20.13-2.16-28.31-6.41a46.13,46.13,0,0,1-24.72-33.79c-1.29-8.47-2-13.51,2.93-18.69a3.49,3.49,0,0,0,.12.54,8.27,8.27,0,0,0-.64.7,11.7,11.7,0,0,0-2.79,7.49v.38a11.62,11.62,0,0,0,2.61,7.09,1.64,1.64,0,0,0,.2.26,12.08,12.08,0,0,0,9,4.19,11.7,11.7,0,0,0,9-4.19,1.26,1.26,0,0,0,.21-.26h1.37a26.69,26.69,0,0,0,10.48,17c5.68,4.22,12.71,6.3,21.11,6.3q16.08,0,26.47-10.57Z"/><path class="cls-1" d="M280.87,42.37V64.1a28.66,28.66,0,0,0-5.3-.55q-13.32,0-20.81,7.76t-7.49,22.37V141H224.44V43.46h21.73V57.7Q256,42.37,280.87,42.37Z"/><path class="cls-1" d="M362.49,135.68a26.93,26.93,0,0,1-9.77,4.93,44.17,44.17,0,0,1-12.14,1.64q-16.06,0-24.84-8.4T307,109.38V62.45H290.91V44.19H307V21.91h22.83V44.19h26.11V62.45H329.81v46.38q0,7.13,3.46,10.87t10.05,3.75a20,20,0,0,0,12.78-4Z"/><path class="cls-1" d="M376.54,23.47a12.84,12.84,0,0,1-4.2-9.77,12.82,12.82,0,0,1,4.2-9.77A14.65,14.65,0,0,1,387,0a15.1,15.1,0,0,1,10.41,3.74,12.09,12.09,0,0,1,4.2,9.41,13.75,13.75,0,0,1-4.11,10.13A14.22,14.22,0,0,1,387,27.39,14.69,14.69,0,0,1,376.54,23.47Zm-1.09,20h22.82V141H375.45Z"/><path class="cls-1" d="M439.89,135.86a47,47,0,0,1-18.81-17.8,49.79,49.79,0,0,1-6.75-25.84,49.31,49.31,0,0,1,6.75-25.75A47.25,47.25,0,0,1,439.8,48.76q12-6.39,27.3-6.39,14.41,0,25.29,5.84A37.91,37.91,0,0,1,508.73,65L491.2,75.24A27.8,27.8,0,0,0,480.7,65.1a28.71,28.71,0,0,0-13.78-3.38q-12.8,0-21.19,8.31t-8.4,22.19q0,13.88,8.31,22.18t21.28,8.31a28.71,28.71,0,0,0,13.78-3.37,27.88,27.88,0,0,0,10.5-10.14l17.53,10.23a39.54,39.54,0,0,1-16.52,16.89q-10.87,5.93-25.11,5.93A57.16,57.16,0,0,1,439.89,135.86Z"/><path class="cls-1" d="M613.27,99.52H536.76a26.52,26.52,0,0,0,10.5,17.08q8.49,6.3,21.09,6.3,16.06,0,26.48-10.59l12.23,14a41.21,41.21,0,0,1-16.61,11.88,60.54,60.54,0,0,1-22.65,4q-16.06,0-28.3-6.39a46,46,0,0,1-18.9-17.8,50.22,50.22,0,0,1-6.67-25.84,51,51,0,0,1,6.49-25.66,45.93,45.93,0,0,1,18-17.8,52.48,52.48,0,0,1,25.93-6.39,51.18,51.18,0,0,1,25.48,6.3,44.65,44.65,0,0,1,17.53,17.71q6.3,11.41,6.3,26.39Q613.64,95.14,613.27,99.52ZM545.8,67.11a27.19,27.19,0,0,0-9.22,17.25h55.33A27,27,0,0,0,583,67.2q-7.49-6.57-18.63-6.57A27.53,27.53,0,0,0,545.8,67.11Z"/><path class="cls-2" d="M208.41,92.76c0,1.58-.15,3.83-.38,6.76H131.52v.06H118.87l-1.46.85-1.49.85-1.41.79A11.3,11.3,0,0,1,112,99.84a1.64,1.64,0,0,1-.2-.26,11.62,11.62,0,0,1-2.61-7.09v-.38a11.7,11.7,0,0,1,2.79-7.49,8.27,8.27,0,0,1,.64-.7,3.73,3.73,0,0,1-.12-.56h.7l2.35,0,3.72,0h.2l3.31.06,3.83,0,2.35,0,2.57,0,6.53.06,48.61.5,21.22.24A60.15,60.15,0,0,1,208.41,92.76Z"/><path class="cls-2" d="M208.91,12.59l-32.44,32.5L160.92,60.7,138,83.62l-5.65,5.65-1.2,1.23-7.67,7.67a83.49,83.49,0,0,1-6.65-6l-.32-.35a13.69,13.69,0,0,1-3-4.63,12,12,0,0,1-.56-1.66,11.24,11.24,0,0,1-.41-1.64,3.73,3.73,0,0,1-.12-.56l70.48-70.77s7.25-.5,12.95-.5S208.91,12.59,208.91,12.59Z"/><circle class="cls-1" cx="121.16" cy="92.43" r="11.03"/><path class="cls-2" d="M133.3,89.3a12.38,12.38,0,0,0-2.55-5c-.1-.1-.16-.19-.25-.28a7.15,7.15,0,0,0-.87-.87A12,12,0,0,0,123.12,80l-.65-.09c-.41,0-.84-.06-1.31-.06a12.7,12.7,0,0,0-8.7,3.49c-.2.2-.67.74-.89,1a12.47,12.47,0,0,0-2.95,8v.4a12.32,12.32,0,0,0,2.77,7.53,1.37,1.37,0,0,0,.21.28,11.78,11.78,0,0,0,2.71,2.37,12.09,12.09,0,0,0,6.85,2.08,12.45,12.45,0,0,0,9.56-4.45,1.37,1.37,0,0,0,.21-.28,12.28,12.28,0,0,0,2.77-7.81v-.09A12.14,12.14,0,0,0,133.3,89.3Zm-6.75,11a1.32,1.32,0,0,1-.38.28,9.43,9.43,0,0,1-5,1.43,9,9,0,0,1-3.77-.81,6.25,6.25,0,0,1-1.24-.62,3.27,3.27,0,0,1-.41-.28,9.48,9.48,0,0,1-4.1-7.81,9.12,9.12,0,0,1,1.65-5.32,9.22,9.22,0,0,1,2.86-2.77,9.07,9.07,0,0,1,3.11-1.22,1,1,0,0,1,.28-.06l.62-.09h0c.31,0,.62-.06,1-.06a8,8,0,0,1,1.9.21,7.4,7.4,0,0,1,2.58.94,2.22,2.22,0,0,1,.53.28A9.39,9.39,0,0,1,130.65,92a2.48,2.48,0,0,1,0,.47,8.91,8.91,0,0,1-.74,3.64v0A9.27,9.27,0,0,1,126.55,100.25Z"/></svg>