<svg id="Camada_1" data-name="Camada 1" xmlns="http://www.w3.org/2000/svg" viewBox="0 0 781.28 204.51"><defs><style>.cls-1{fill:#fff;}.cls-2{fill:none;stroke:#edd20c;stroke-linecap:square;stroke-linejoin:round;stroke-width:14px;}</style></defs><title>Prancheta 17</title><path class="cls-1" d="M70.37,73.74H89.65V156.1H70.37Z"/><path class="cls-1" d="M232.64,81.84q9.11,9,9.1,27.06v47.2H222.46V111.37q0-10.78-4.78-16.27T204,89.62q-9.7,0-15.57,6.41t-5.86,18.27v41.8H163.24V111.37q0-10.78-4.79-16.27t-13.72-5.48q-9.87,0-15.66,6.33t-5.78,18.35v41.8H104V73.74h18.35V84.23a30,30,0,0,1,11.57-8.49,39.35,39.35,0,0,1,15.42-2.93,37.32,37.32,0,0,1,16.43,3.47,26.78,26.78,0,0,1,11.34,10.26,34.2,34.2,0,0,1,13.11-10.1A42.51,42.51,0,0,1,208,72.81Q223.54,72.81,232.64,81.84Z"/><path class="cls-1" d="M323.44,78.06a37.82,37.82,0,0,1,14.88,14.8,44.11,44.11,0,0,1,5.4,22.06,44.48,44.48,0,0,1-5.4,22.13,37.72,37.72,0,0,1-14.88,14.89,43.82,43.82,0,0,1-21.52,5.24q-16.67,0-26.37-11.1V186H256.27V73.74h18.35V84.53a30,30,0,0,1,11.8-8.79,39.9,39.9,0,0,1,15.5-2.93A43.71,43.71,0,0,1,323.44,78.06Zm-6.17,55.52q6.86-7.1,6.86-18.66t-6.86-18.66q-6.87-7.1-17.51-7.1a24.85,24.85,0,0,0-12.49,3.16,22.81,22.81,0,0,0-8.79,9,27.6,27.6,0,0,0-3.24,13.57,27.57,27.57,0,0,0,3.24,13.57,22.81,22.81,0,0,0,8.79,9,24.85,24.85,0,0,0,12.49,3.16Q310.41,140.68,317.27,133.58Z"/><path class="cls-1" d="M440,73.74V156.1H421.62V145.46a29.85,29.85,0,0,1-11.8,8.79,39.93,39.93,0,0,1-15.5,2.93,43.76,43.76,0,0,1-21.52-5.24A37.35,37.35,0,0,1,358,137.13a44.89,44.89,0,0,1-5.32-22.21q0-12.65,5.32-22.13A37.41,37.41,0,0,1,372.8,78.06a43.66,43.66,0,0,1,21.52-5.25,38.23,38.23,0,0,1,14.73,2.78,32.46,32.46,0,0,1,11.64,8.17v-10Zm-25.91,59.84q6.93-7.1,6.94-18.66t-6.94-18.66a23.57,23.57,0,0,0-17.59-7.1q-10.64,0-17.5,7.1t-6.86,18.66q0,11.56,6.86,18.66t17.5,7.1A23.57,23.57,0,0,0,414.06,133.58Z"/><path class="cls-1" d="M470.48,151.78a39.62,39.62,0,0,1-15.88-15,42,42,0,0,1-5.71-21.82,41.59,41.59,0,0,1,5.71-21.75,39.91,39.91,0,0,1,15.81-15,48.14,48.14,0,0,1,23.06-5.4,44.44,44.44,0,0,1,21.36,4.94,32,32,0,0,1,13.8,14.19l-14.8,8.64A23.55,23.55,0,0,0,505,92a24.18,24.18,0,0,0-11.65-2.86q-10.8,0-17.89,7t-7.09,18.74q0,11.73,7,18.74t18,7A24.18,24.18,0,0,0,505,137.82a23.55,23.55,0,0,0,8.87-8.56l14.8,8.64a33.32,33.32,0,0,1-14,14.27,43.5,43.5,0,0,1-21.2,5A48.3,48.3,0,0,1,470.48,151.78Z"/><path class="cls-1" d="M595.88,151.63a22.59,22.59,0,0,1-8.25,4.16,37,37,0,0,1-10.26,1.39q-13.57,0-21-7.09T549,129.42V89.78H535.42V74.36H549V55.54h19.28V74.36h22.06V89.78H568.27V129q0,6,2.93,9.17t8.48,3.17a17,17,0,0,0,10.8-3.4Z"/><path class="cls-1" d="M686.89,73.74V156.1H668.53V145.46a29.71,29.71,0,0,1-11.8,8.79,39.9,39.9,0,0,1-15.5,2.93,43.75,43.75,0,0,1-21.51-5.24,37.29,37.29,0,0,1-14.81-14.81,44.89,44.89,0,0,1-5.32-22.21q0-12.65,5.32-22.13a37.34,37.34,0,0,1,14.81-14.73,43.65,43.65,0,0,1,21.51-5.25A38.15,38.15,0,0,1,656,75.59a32.41,32.41,0,0,1,11.65,8.17v-10ZM661,133.58q6.93-7.1,6.94-18.66T661,96.26a23.57,23.57,0,0,0-17.59-7.1q-10.64,0-17.5,7.1T619,114.92q0,11.56,6.87,18.66t17.5,7.1A23.57,23.57,0,0,0,661,133.58Z"/><line class="cls-2" x1="724.04" y1="80.39" x2="743.87" y2="71.73"/><line class="cls-2" x1="704.93" y1="55.54" x2="719.79" y2="38.7"/><line class="cls-2" x1="676.95" y1="39.71" x2="683.2" y2="18.49"/></svg>