<svg id="Camada_1" data-name="Camada 1" xmlns="http://www.w3.org/2000/svg" viewBox="0 0 643.74 88.85"><defs><style>.cls-1{fill:#f6a026;}.cls-2{fill:#fff;}</style></defs><title>Prancheta 3</title><path id="path29" class="cls-1" d="M631.1,7.14H570.65A4.63,4.63,0,0,0,566,11.77V25.71a4.63,4.63,0,0,0,4.63,4.63h18.63V72.22a4.63,4.63,0,0,0,4.63,4.63h13.94a4.63,4.63,0,0,0,4.63-4.63V30.34H631.1a4.63,4.63,0,0,0,4.63-4.63V11.77a4.59,4.59,0,0,0-4.63-4.63m-228.88,0H353.39a4.63,4.63,0,0,0-4.63,4.63V72.22a4.63,4.63,0,0,0,4.63,4.63h13.95A4.62,4.62,0,0,0,372,72.22V53.6h18.63A4.63,4.63,0,0,0,395.22,49V35a4.63,4.63,0,0,0-4.63-4.63h11.63a4.63,4.63,0,0,0,4.63-4.63V11.83a4.65,4.65,0,0,0-4.63-4.69m79,18.63V11.83a4.63,4.63,0,0,0-4.63-4.63H427.79a4,4,0,0,0-1.4.21,4.7,4.7,0,0,0-3.29,4.47V72.33a4.7,4.7,0,0,0,3.29,4.47,4,4,0,0,0,1.4.21h48.82a4.63,4.63,0,0,0,4.63-4.63V58.44a4.63,4.63,0,0,0-4.63-4.63H465a4.63,4.63,0,0,0,4.63-4.63V35.24A4.63,4.63,0,0,0,465,30.61h11.63a5,5,0,0,0,4.63-4.84m68.52,0V11.83a4.62,4.62,0,0,0-4.62-4.63H514.88a23.28,23.28,0,0,0-23,20,21.47,21.47,0,0,0-.21,3.23,20.81,20.81,0,0,0,.21,3.18,23.23,23.23,0,0,0,23,20H501.05a4.63,4.63,0,0,0-4.63,4.63V72.22a4.63,4.63,0,0,0,4.63,4.63h37.09a23.28,23.28,0,0,0,23-20,21.47,21.47,0,0,0,.21-3.23,20.72,20.72,0,0,0-.21-3.18,23.23,23.23,0,0,0-23-20h6.94a4.64,4.64,0,0,0,4.68-4.63"/><path id="path31" class="cls-2" d="M216.87,46.6a2.41,2.41,0,0,0,.21.54c0-.06-.05-.11-.05-.22a1.58,1.58,0,0,1-.16-.32m-.22-.86c.06.16.06.27.11.43,0-.05,0-.11,0-.16S216.65,45.85,216.65,45.74ZM231.3,31.9h0l.48.17Zm-.54-.1a.22.22,0,0,1,.16.05C230.92,31.8,230.86,31.8,230.76,31.8Zm16.52,16.25a4.68,4.68,0,0,0-6.56-.59L236,51.39l-.64.54A11.57,11.57,0,0,1,222,53l-.48-.33a10.56,10.56,0,0,1-1-.75,11.71,11.71,0,0,1-2.21-2.42L218,49c-.16-.27-.27-.54-.43-.8s-.22-.54-.32-.76a14.47,14.47,0,0,1-.65-2.21,3.77,3.77,0,0,1-.11-.75v-.16a9.4,9.4,0,0,1-.05-1.18v-.33c0-.37.05-.75.05-1.18.06-.22.06-.49.11-.7l.16-.81a1.36,1.36,0,0,0,.11-.43c0-.16.11-.32.16-.54s.05-.16.11-.27a1.88,1.88,0,0,1,.27-.59c.1-.21.21-.48.32-.7.05,0,.05-.11.11-.16s.21-.38.32-.54a3,3,0,0,0,.22-.38c.05-.1.16-.21.21-.32s.32-.43.54-.7a7.36,7.36,0,0,1,.65-.7l.16-.16a4.36,4.36,0,0,1,.54-.48c.05-.06.16-.11.21-.17a4.25,4.25,0,0,1,.54-.43c.11,0,.16-.1.27-.16s.37-.21.54-.32.1-.05.21-.11c.27-.16.59-.32.92-.48.05,0,.05-.06.1-.06.22-.1.44-.16.65-.27.05,0,.05-.05.11-.05.21,0,.43-.16.64-.22s.06,0,.11,0a11.64,11.64,0,0,1,4.31-.48h.16c.21,0,.43.05.59.05s.27,0,.43,0,.16.06.27.06l.65.16h.05c.06,0,.11,0,.11,0l.7.22h0a5.38,5.38,0,0,1,.86.38,3.25,3.25,0,0,1,.92.48l.43.27a2,2,0,0,0,.43.27l.65.48a.05.05,0,0,1,.05.06l.32.27s.06,0,.06,0,.1.05.1.11l.17.16.16.16.32.32-.48-.48,4.84,4a4.64,4.64,0,0,0,6.57-.6l8.77-10.55a4.46,4.46,0,0,0,1.08-3,4.61,4.61,0,0,0-1.67-3.5l-4.9-4.15-1.08-.91,0-.05a33.26,33.26,0,0,0-8.34-4.9,34.88,34.88,0,1,0-.06,64.43,35.4,35.4,0,0,0,9.05-5.49l5.33-4.47a4.8,4.8,0,0,0,1.66-3.5,4.74,4.74,0,0,0-1.07-3.06l-8.94-10.72ZM187.59,65.39l-25.52-54.8c0-.06,0-.06,0-.11s-.11-.16-.11-.27-.06-.11-.11-.16a.29.29,0,0,1-.11-.22.8.8,0,0,1-.16-.21c-.05,0-.11-.11-.11-.16a1.14,1.14,0,0,1-.16-.22l-.11-.11a.8.8,0,0,0-.21-.16.28.28,0,0,0-.16-.1.84.84,0,0,0-.22-.17c-.05,0-.1-.1-.16-.1s-.11-.06-.16-.11-.16-.06-.22-.11-.1-.05-.16-.11-.16,0-.27-.1-.1-.06-.16-.06a.52.52,0,0,0-.27,0S159.06,8,159,8s-.16,0-.22,0a.33.33,0,0,1-.21,0H143.39a.33.33,0,0,0-.21,0c-.06,0-.17,0-.22,0s-.11.06-.21.06-.17,0-.27,0-.11.06-.17.06-.16.05-.26.1-.11.06-.17.11-.16,0-.21.11-.11,0-.16.11-.11.05-.16.1a.84.84,0,0,1-.22.17c0,.05-.11.05-.16.1a.66.66,0,0,1-.22.16l-.1.11a.84.84,0,0,0-.17.22.28.28,0,0,0-.1.16.61.61,0,0,0-.16.21.28.28,0,0,0-.11.22c-.06,0-.06.11-.11.16s-.11.16-.11.27,0,0,0,.11l-25.57,54.8a4.69,4.69,0,0,0,2.26,6.19l12.65,5.92a4.69,4.69,0,0,0,6.19-2.26L151,41.65,166.7,75.24a4.69,4.69,0,0,0,6.19,2.26l12.65-5.92a4.74,4.74,0,0,0,2.05-6.19M332.12,54.94l-24.44-14.1,24.44-14.1a4.71,4.71,0,0,0,1.72-6.35l-7-12.06a4.72,4.72,0,0,0-6.35-1.73L287.92,25.39V12.8a4.63,4.63,0,0,0-4.63-4.63H269.35a5.07,5.07,0,0,0-.91.1,4.8,4.8,0,0,0-2.05,1l-.32.33a4.4,4.4,0,0,0-1.13,1.88,4,4,0,0,0-.22,1.4V73.3a4.7,4.7,0,0,0,3.72,4.58,5.63,5.63,0,0,0,.91.1h13.94a4.46,4.46,0,0,0,3-1.07,7.91,7.91,0,0,0,.64-.65,2.08,2.08,0,0,0,.27-.38,6.25,6.25,0,0,0,.43-.8c0-.17.11-.27.16-.43a4.11,4.11,0,0,0,.22-1.4v-17l32.56,18.79a4.64,4.64,0,0,0,6.36-1.73l7-12a4.7,4.7,0,0,0-1.77-6.36M106.73,8.17H92.79a4.63,4.63,0,0,0-4.63,4.63V31.42H64.91V12.8a4.63,4.63,0,0,0-4.63-4.63h-14a4.63,4.63,0,0,0-4.63,4.63V73.25a4.63,4.63,0,0,0,4.63,4.63H60.22a4.63,4.63,0,0,0,4.63-4.63V54.67H88.11V73.3a4.63,4.63,0,0,0,4.63,4.63h13.94a4.63,4.63,0,0,0,4.63-4.63V12.8a4.55,4.55,0,0,0-4.58-4.63"/><path id="path33" class="cls-1" d="M20.09,31.1,13.62,8.6h0Zm6.65.27H24L16.35,8.06H20L25.4,25l5.38-17h3.71Z"/></svg>