<?xml version="1.0" encoding="utf-8"?>
<!-- Generator: Adobe Illustrator 24.0.1, SVG Export Plug-In . SVG Version: 6.00 Build 0)  -->
<svg version="1.1" id="Camada_1" xmlns="http://www.w3.org/2000/svg" xmlns:xlink="http://www.w3.org/1999/xlink" x="0px" y="0px"
	 viewBox="0 0 1105 177" style="enable-background:new 0 0 1105 177;" xml:space="preserve">
<style type="text/css">
	.st0{fill:#22344A;}
	.st1{fill:#FFFFFF;}
	.st2{fill:#FDA300;}
</style>
<rect id="XMLID_38_" x="-971.5" y="-365.3" class="st0" width="437.1" height="125.4"/>
<g>
	<g>
		<g id="XMLID_85_">
			<path id="XMLID_93_" class="st1" d="M1033.1,133.1v-15.4h19.5c2.9,0,5.3-0.2,7.2-0.7c1.9-0.5,3.3-1.2,4.4-2.3
				c1.1-1.1,1.8-2.4,2.2-4.1c0.4-1.7,0.7-3.7,0.7-6V52.5h18v53c0,5.1-0.5,9.4-1.5,12.9c-1,3.5-2.7,6.3-5,8.5
				c-2.4,2.2-5.5,3.7-9.5,4.7c-4,1-9,1.5-15,1.5H1033.1z"/>
			<path id="XMLID_90_" class="st1" d="M1015.5,78c0-2.1-0.2-3.8-0.7-5.2c-0.5-1.3-1.3-2.4-2.4-3.1c-1.1-0.7-2.6-1.2-4.6-1.4
				c-2-0.2-4.4-0.4-7.3-0.4h-43.9v24.5h43.9c2.9,0,5.3-0.1,7.2-0.4c1.9-0.2,3.5-0.7,4.6-1.4c1.1-0.7,1.9-1.7,2.4-3.1
				c0.5-1.3,0.7-3.1,0.7-5.3V78z M1003.6,133.1L956.7,104v29.2h-17.8V52.9h62.8c5.6,0,10.5,0.4,14.5,1.1c4,0.7,7.3,2,9.8,3.8
				c2.5,1.8,4.4,4.3,5.6,7.4c1.2,3.1,1.8,7.1,1.8,11.9v5.5c0,4.6-0.6,8.4-1.9,11.5c-1.3,3-3.2,5.4-5.8,7.2c-2.6,1.8-5.9,3-9.9,3.7
				c-4,0.7-8.7,1.1-14.2,1.1h-14.1l47,27.2H1003.6z"/>
			<path id="XMLID_87_" class="st1" d="M917.8,79.5c0-4.3-0.9-7.3-2.8-8.8c-1.8-1.6-5.2-2.4-9.9-2.4h-45.9v27.4h46.1
				c4.7,0,8-0.7,9.8-2.2c1.8-1.5,2.7-4.3,2.7-8.5V79.5z M859.2,110.2v22.9h-17.9V52.9h64.2c5.7,0,10.5,0.5,14.3,1.4
				c3.8,0.9,6.9,2.4,9.3,4.5c2.4,2.1,4,4.8,5,8.1c1,3.3,1.5,7.3,1.5,12v6.9c0,4.8-0.5,8.7-1.4,11.9c-0.9,3.1-2.6,5.6-4.9,7.5
				c-2.3,1.9-5.4,3.2-9.2,3.9c-3.8,0.7-8.7,1.1-14.6,1.1H859.2z"/>
			<path id="XMLID_86_" class="st1" d="M818.9,133.1V80l-39.4,51.5c-1.8,2.3-4.5,3.4-7.9,3.4c-3.5,0-6.1-1.1-7.9-3.4L724.3,80v53.2
				H708V57.9c0-2.5,0.9-4.4,2.8-5.6c1.9-1.2,4.2-1.8,6.9-1.8c2.1,0,3.8,0.3,5.1,0.9c1.3,0.6,2.4,1.6,3.4,2.9l45.6,60.5l45.9-60.5
				c1-1.3,2.1-2.3,3.3-2.9c1.1-0.6,2.7-0.9,4.8-0.9c2.8,0,5.1,0.6,6.9,1.8c1.9,1.2,2.8,3,2.8,5.6v75.2H818.9z"/>
		</g>
		<rect id="XMLID_84_" x="660.6" y="21.5" class="st1" width="3.3" height="142.8"/>
		<path id="XMLID_82_" class="st1" d="M80.4,25.3h28.6l66,84.8V25.3h30.6v137h-26.3L111,74.7v87.6H80.4V25.3z"/>
		<path id="XMLID_80_" class="st1" d="M369.8,25.3h33.7l36.3,96l36.3-96h33l-56.2,136.2h-27L369.8,25.3z"/>
		<path id="XMLID_78_" class="st1" d="M620.7,161.5H587l-36.3-96l-36.3,96h-33l56.2-136.2h27L620.7,161.5z"/>
		<rect id="XMLID_77_" x="26.4" y="25.3" class="st1" width="31" height="137"/>
		<path id="XMLID_76_" class="st2" d="M312,93.1c0,7.8-6.4,14.2-14.2,14.2c-7.8,0-14.2-6.3-14.2-14.2c0-7.8,6.4-14.2,14.2-14.2
			C305.7,78.9,312,85.3,312,93.1z"/>
		<path id="XMLID_69_" class="st2" d="M297.8,17.1c-42,0-76,34-76,76c0,42,34,76,76,76c42,0,76-34,76-76
			C373.8,51.1,339.8,17.1,297.8,17.1z M297.8,140.3c-26.1,0-47.2-21.1-47.2-47.2c0-26,21.1-47.2,47.2-47.2
			c26.1,0,47.2,21.1,47.2,47.2C345,119.1,323.9,140.3,297.8,140.3z"/>
	</g>
</g>
</svg>
