<svg id="Layer_1" data-name="Layer 1" xmlns="http://www.w3.org/2000/svg" viewBox="0 0 473.89 459.28"><defs><style>.cls-1{fill:none;stroke:#fff;stroke-miterlimit:10;stroke-width:18px;}.cls-2{fill:#fff;}</style></defs><circle class="cls-1" cx="238.5" cy="227.23" r="211.06"/><path class="cls-2" d="M361.42,120.68s-23.81,12.73-33.78,12.73c0,0-26-35.43-69.76-9.41,0,0-32.75,23.25-19.7,60.35,0,0-24,1.66-62.25-17.72s-52-43.74-52-43.74-16.06,29.9-2.77,50.94,19.93,26,19.93,26-15-1.11-25.2-8.31c0,0,0,23.25,12.33,36.68,7.06,7.69,17.58,16.06,30.59,20.35,0,0-1.39,4.71-22.7,1.94,0,0,5,16.68,18,27.13,11.35,9.14,21.32,12.18,31.29,12.73,0,0-14.8,13.41-31.29,18.55a114.62,114.62,0,0,1-46.51,4.71s88.87,67.83,185.21-14.12c0,0,52.05-46,50.94-129,0,0,15.51-11.07,25.75-28,0,0-11.63,5.81-29.35,7.47C340.1,150,359.48,137,361.42,120.68Z"/></svg>