<svg id="Layer_1" data-name="Layer 1" xmlns="http://www.w3.org/2000/svg" viewBox="0 0 473.89 459.28"><defs><style>.cls-1{fill:none;stroke:#fff;stroke-miterlimit:10;stroke-width:18px;}.cls-2{fill:#fff;}</style></defs><circle class="cls-1" cx="234.46" cy="233.8" r="211.06"/><path class="cls-2" d="M361.32,194.52c-1.86-22.4-5-47.35-39.46-48.3-36.25-1-87.92-5.31-171.78,0,0,0-32-.07-38.92,25.3,0,0-2.31,10-4.29,33.61-2.08,24.69-1.73,38.39,2.87,77.67S136,321,149.9,322.07c15.54,1.25,78.2,2.3,91.47,1.77,0,0,71.3-1.41,80.85-2.65s32.55-.53,37.68-35.92S363.26,218.05,361.32,194.52ZM207.9,267.23V195.76L276,231.49Z"/></svg>