<svg id="Camada_1" data-name="Camada 1" xmlns="http://www.w3.org/2000/svg" viewBox="0 0 304 302"><defs><style>.cls-1,.cls-4,.cls-5{fill:none;}.cls-1{stroke:#e6e6e6;stroke-width:6px;}.cls-1,.cls-4{stroke-miterlimit:10;}.cls-2{fill:#d8d5d5;}.cls-3{fill:#6dcdd9;}.cls-4,.cls-5{stroke:#20334a;stroke-width:3px;}.cls-5{stroke-linecap:round;stroke-linejoin:round;}</style></defs><circle class="cls-1" cx="153.26" cy="151.8" r="139.01"/><path class="cls-2" d="M231,214.52c2.55,2.53,1.5,7.69-2.91,12.1s-9.56,5.45-12.1,2.9l-.23-.25-43.82-46.66c-1.41-1.41-1.51-3.76-.3-6.26l6.19-6.19c2.49-1.21,4.85-1.11,6.26.3l46.67,43.83Z"/><polygon class="cls-2" points="177.81 170.15 171.62 176.35 165.83 170.55 168.76 167.62 169.1 167.27 172.01 164.36 177.81 170.15"/><path class="cls-3" d="M168.91,89a55.5,55.5,0,0,1,.19,78.31l-.34.35A55.5,55.5,0,1,1,168.91,89Zm-9,69.48a42.76,42.76,0,1,0-60.47,0A42.75,42.75,0,0,0,159.91,158.44Z"/><path class="cls-4" d="M169.1,167.27a54.72,54.72,0,1,0-.34.35"/><path class="cls-5" d="M159.91,158.44a42.76,42.76,0,1,1,0-60.46A42.76,42.76,0,0,1,159.91,158.44Z"/><path class="cls-5" d="M228.07,226.62c-4.4,4.39-9.56,5.45-12.1,2.9l-.23-.25-43.82-46.66c-1.41-1.41-1.51-3.76-.3-6.26l6.19-6.19c2.49-1.21,4.85-1.11,6.26.3l46.67,43.83.24.23C233.53,217.05,232.48,222.21,228.07,226.62Z"/><line class="cls-4" x1="168.76" y1="167.62" x2="169.1" y2="167.27"/><polyline class="cls-5" points="169.1 167.27 172.01 164.36 177.81 170.15 171.62 176.35 165.83 170.55 168.76 167.62"/><path class="cls-5" d="M111.24,137.2a5.93,5.93,0,1,1-7.72-3.25A5.93,5.93,0,0,1,111.24,137.2Z"/><path class="cls-5" d="M140.84,152.71c.75,2.78-1.32,5.49-4.1,6.25-12.15,3.28-18.87-1.54-20.14-2.33a6,6,0,0,1-2.64-3.58,5.21,5.21,0,0,1,7.17-6.1l.07,0,.34.18,0,0c2.74,1.46,5.38,3.6,12.72,1.92l.65-.16A5.2,5.2,0,0,1,140.84,152.71Z"/></svg>