<svg id="Camada_1" data-name="Camada 1" xmlns="http://www.w3.org/2000/svg" viewBox="0 0 304 302"><defs><style>.cls-1,.cls-4{fill:none;}.cls-1{stroke:#e6e6e6;stroke-miterlimit:10;stroke-width:6px;}.cls-2{fill:#fff;}.cls-2,.cls-3,.cls-4,.cls-5{stroke:#20334a;stroke-linecap:round;stroke-linejoin:round;stroke-width:3px;}.cls-3{fill:#d8d5d5;}.cls-5{fill:#b64235;}</style></defs><circle class="cls-1" cx="152.68" cy="151.8" r="139.01"/><path class="cls-2" d="M82.17,131.52v86.21a10.64,10.64,0,0,0,10.64,10.64H204a10.65,10.65,0,0,0,10.62-10l5.44-86.56a10.64,10.64,0,0,0-10.65-11.31l-116.63.35A10.63,10.63,0,0,0,82.17,131.52Z"/><path class="cls-3" d="M96.77,178.6l-.46-94.52a8.86,8.86,0,0,1,8.85-8.86h93.21a8.86,8.86,0,0,1,8.86,8.86v49.5L112,135.41Z"/><line class="cls-4" x1="108.12" y1="91.23" x2="126.87" y2="91.23"/><line class="cls-4" x1="135.67" y1="91.29" x2="196.34" y2="91.29"/><line class="cls-4" x1="108.12" y1="104.4" x2="161.15" y2="104.4"/><line class="cls-4" x1="169.02" y1="104.4" x2="196.34" y2="104.4"/><line class="cls-4" x1="108.12" y1="118.04" x2="148.87" y2="118.04"/><line class="cls-4" x1="155.12" y1="118.04" x2="196.34" y2="118.04"/><path class="cls-2" d="M83.57,223.62h0l24.13-82.29a10.78,10.78,0,0,1,10.35-7.75H222.39a10.79,10.79,0,0,1,10.29,14L214.62,218.4"/><polygon class="cls-5" points="155.36 186.38 155.36 146.32 170.64 146.32 170.64 187.3 178.98 187.3 162.3 206.29 146.32 186.36 155.36 186.38"/><line class="cls-4" x1="151.47" y1="215.89" x2="173.19" y2="215.89"/></svg>