<svg id="Layer_1" data-name="Layer 1" xmlns="http://www.w3.org/2000/svg" viewBox="0 0 409.74 71.04"><defs><style>.cls-1{fill:#fff;}.cls-2{fill:#e8a326;}</style></defs><title>logo inova</title><path class="cls-1" d="M374.88,51.3V45.87h6.9a10.26,10.26,0,0,0,2.52-.25,3.28,3.28,0,0,0,1.55-.82,3.08,3.08,0,0,0,.8-1.44,8.67,8.67,0,0,0,.23-2.13V22.79h6.35V41.52a17.56,17.56,0,0,1-.52,4.58,6.28,6.28,0,0,1-1.78,3,7.59,7.59,0,0,1-3.36,1.67,22.42,22.42,0,0,1-5.29.52Z"/><path class="cls-1" d="M368.65,31.81A5.49,5.49,0,0,0,368.4,30a2,2,0,0,0-.83-1.08,3.82,3.82,0,0,0-1.62-.5,23,23,0,0,0-2.58-.12h-15.5v8.64h15.5a22.52,22.52,0,0,0,2.56-.12,4.08,4.08,0,0,0,1.62-.5,2,2,0,0,0,.85-1.08,5.67,5.67,0,0,0,.25-1.87ZM364.46,51.3,347.87,41V51.3h-6.28V23h22.2a29.79,29.79,0,0,1,5.11.38,8.43,8.43,0,0,1,3.47,1.33,5.52,5.52,0,0,1,2,2.62,12.25,12.25,0,0,1,.62,4.2v1.95a10.69,10.69,0,0,1-.66,4A5.61,5.61,0,0,1,372.25,40a9.15,9.15,0,0,1-3.51,1.31,29.39,29.39,0,0,1-5,.37h-5l16.63,9.6Z"/><path class="cls-1" d="M334.12,32.35c0-1.53-.32-2.56-1-3.12a5.56,5.56,0,0,0-3.51-.83H313.42v9.68h16.3a5.68,5.68,0,0,0,3.44-.76c.64-.52,1-1.52,1-3ZM313.42,43.2v8.1H307.1V23h22.7a22.58,22.58,0,0,1,5.07.48A7.46,7.46,0,0,1,338.15,25a6.08,6.08,0,0,1,1.77,2.85,14.88,14.88,0,0,1,.52,4.24v2.45a15,15,0,0,1-.5,4.2,5.28,5.28,0,0,1-1.72,2.66A7.23,7.23,0,0,1,335,42.8a27.15,27.15,0,0,1-5.15.4Z"/><path class="cls-1" d="M299.17,51.3V32.51l-13.93,18.2a3.83,3.83,0,0,1-5.61,0l-13.9-18.2V51.3H260V24.72a2.17,2.17,0,0,1,1-2,4.44,4.44,0,0,1,2.45-.63,4.3,4.3,0,0,1,1.8.32,3.37,3.37,0,0,1,1.21,1l16.12,21.39,16.24-21.39a3.49,3.49,0,0,1,1.15-1,3.71,3.71,0,0,1,1.69-.32,4.46,4.46,0,0,1,2.45.63,2.16,2.16,0,0,1,1,2V51.3Z"/><rect class="cls-1" x="243.19" y="11.85" width="1.17" height="50.48"/><path class="cls-1" d="M38.09,13.19h10.1l23.31,30v-30H82.31V61.63H73l-24.1-31v31H38.09Z"/><path class="cls-1" d="M140.39,13.19h11.93l12.84,33.94L178,13.19h11.65L169.79,61.35h-9.54Z"/><path class="cls-1" d="M229.1,61.35H217.17L204.33,27.41,191.48,61.35H179.84l19.85-48.16h9.55Z"/><rect class="cls-1" x="19.02" y="13.19" width="10.95" height="48.44"/><path class="cls-2" d="M120,37.14a5,5,0,1,1-5-5A5,5,0,0,1,120,37.14Z"/><path class="cls-2" d="M115,10.27a26.88,26.88,0,1,0,26.87,26.87A26.88,26.88,0,0,0,115,10.27Zm0,43.55a16.68,16.68,0,1,1,16.67-16.68A16.67,16.67,0,0,1,115,53.82Z"/></svg>