<svg id="Camada_1" data-name="Camada 1" xmlns="http://www.w3.org/2000/svg" viewBox="0 0 1216 164"><defs><style>.cls-1{fill:#333;}.cls-2{fill:#69b6c2;}.cls-3{fill:#66538d;}</style></defs><path class="cls-1" d="M180.84,134.69a4.28,4.28,0,0,1-4.29-4.29V46.21A4.36,4.36,0,0,1,177.81,43a4.13,4.13,0,0,1,3-1.25h14.48A4.46,4.46,0,0,1,198.45,43a4.2,4.2,0,0,1,1.34,3.22v7.33a26.86,26.86,0,0,1,10.64-8.76,35.49,35.49,0,0,1,15.1-3h7.33A4.09,4.09,0,0,1,236,43a4.34,4.34,0,0,1,1.16,3V58.9a4.32,4.32,0,0,1-1.16,3,4.05,4.05,0,0,1-3.13,1.25H218.92q-8.58,0-13.32,4.74t-4.74,13.32V130.4a4.11,4.11,0,0,1-1.25,3,4.31,4.31,0,0,1-3.21,1.25Z"/><path class="cls-1" d="M283.51,136.48q-14.31,0-24-5a34.72,34.72,0,0,1-14.84-14.13,48.86,48.86,0,0,1-5.81-21.27q-.18-3.21-.18-7.86t.18-7.87a47.16,47.16,0,0,1,6-21.36,36,36,0,0,1,15-14q9.75-5,23.69-5t23.68,5a36.07,36.07,0,0,1,15,14,47.29,47.29,0,0,1,6,21.36q.17,3.23.17,7.87t-.17,7.86a49,49,0,0,1-5.81,21.27,34.78,34.78,0,0,1-14.84,14.13Q297.8,136.48,283.51,136.48Zm0-17.7q9.47,0,14.66-6t5.72-17.61q.17-2.68.17-7t-.17-7q-.54-11.62-5.72-17.61t-14.66-6q-9.48,0-14.66,6t-5.72,17.61q-.18,2.69-.18,7t.18,7q.54,11.63,5.72,17.61T283.51,118.78Z"/><path class="cls-1" d="M389.77,136.48q-10.36,0-17.25-3.57a35.07,35.07,0,0,1-11.35-9.12v6.61a4.29,4.29,0,0,1-1.17,3,4,4,0,0,1-3.12,1.25H342.75a4.27,4.27,0,0,1-4.28-4.29V12.07a4.27,4.27,0,0,1,4.28-4.29H358A4.09,4.09,0,0,1,361.08,9a4.34,4.34,0,0,1,1.16,3V51.75a35.07,35.07,0,0,1,11.17-8.49q6.7-3.3,16.36-3.31a39,39,0,0,1,16.44,3.22,32.51,32.51,0,0,1,11.71,9,41.33,41.33,0,0,1,7.24,13.5,57,57,0,0,1,2.68,16.62c.12,2.14.18,4.08.18,5.81s-.06,3.66-.18,5.81A63.54,63.54,0,0,1,425,111a41.27,41.27,0,0,1-7.15,13.5,31.12,31.12,0,0,1-11.62,8.84A39.82,39.82,0,0,1,389.77,136.48Zm-6.62-19.13q7.69,0,12-3.3a19,19,0,0,0,6.26-8.67,41.14,41.14,0,0,0,2.32-11.8c.12-3.57.12-7.15,0-10.72a41,41,0,0,0-2.32-11.8,18.92,18.92,0,0,0-6.26-8.67q-4.29-3.31-12-3.31-7.15,0-11.62,3.22a20.8,20.8,0,0,0-6.79,8.13,25.86,25.86,0,0,0-2.5,10.28q-.18,3.23-.18,6.88t.18,6.88a36,36,0,0,0,2.41,10.82,19.46,19.46,0,0,0,6.62,8.67C374.3,116.22,378.27,117.35,383.15,117.35Z"/><path class="cls-1" d="M481.52,136.48q-14.29,0-24-5a34.7,34.7,0,0,1-14.83-14.13,48.73,48.73,0,0,1-5.81-21.27q-.18-3.21-.18-7.86t.18-7.87a47.16,47.16,0,0,1,6-21.36,36.07,36.07,0,0,1,15-14q9.74-5,23.68-5t23.69,5a36.13,36.13,0,0,1,15,14,47.28,47.28,0,0,1,6,21.36q.18,3.23.18,7.87t-.18,7.86a48.86,48.86,0,0,1-5.81,21.27,34.7,34.7,0,0,1-14.83,14.13Q495.82,136.48,481.52,136.48Zm0-17.7q9.48,0,14.66-6t5.72-17.61q.18-2.68.18-7t-.18-7q-.52-11.62-5.72-17.61t-14.66-6q-9.47,0-14.65,6t-5.72,17.61q-.18,2.69-.18,7t.18,7q.54,11.63,5.72,17.61T481.52,118.78Z"/><path class="cls-1" d="M580.08,134.69q-10.73,0-18.06-3.75a23.9,23.9,0,0,1-10.9-11.17q-3.58-7.42-3.58-18.5V60.69H533.42a4.17,4.17,0,0,1-3-1.25,4.37,4.37,0,0,1-1.25-3.22V46a4.27,4.27,0,0,1,4.29-4.29h14.12V12.07a4.3,4.3,0,0,1,1.17-3,4.05,4.05,0,0,1,3.12-1.25h14.48a4.27,4.27,0,0,1,4.29,4.29V41.74H593A4.27,4.27,0,0,1,597.24,46V56.22A4.37,4.37,0,0,1,596,59.44a4.17,4.17,0,0,1-3,1.25H570.6V99.48q0,7.33,2.6,11.44t9,4.11h12.34a4.28,4.28,0,0,1,4.29,4.29V130.4a4.28,4.28,0,0,1-4.29,4.29Z"/><path class="cls-1" d="M613.36,26.37a4.27,4.27,0,0,1-4.29-4.29V9.21a4.27,4.27,0,0,1,4.29-4.29h16.27a4.35,4.35,0,0,1,3.21,1.25,4.14,4.14,0,0,1,1.26,3V22.08a4.12,4.12,0,0,1-1.26,3,4.35,4.35,0,0,1-3.21,1.25Zm.72,108.32a4.27,4.27,0,0,1-4.29-4.29V46a4.27,4.27,0,0,1,4.29-4.29h14.83A4.09,4.09,0,0,1,632,43a4.34,4.34,0,0,1,1.16,3V130.4a4.32,4.32,0,0,1-1.16,3,4.05,4.05,0,0,1-3.13,1.25Z"/><path class="cls-1" d="M649.17,134.69a4,4,0,0,1-3.13-1.25,4.32,4.32,0,0,1-1.16-3V120.21a6.64,6.64,0,0,1,.8-3.12,15.49,15.49,0,0,1,1.7-2.59l45.76-54.17H650.6a4.28,4.28,0,0,1-3-1.16A4.06,4.06,0,0,1,646.31,56V46a4.27,4.27,0,0,1,4.29-4.29h67.75A4.09,4.09,0,0,1,721.48,43a4.34,4.34,0,0,1,1.16,3V56.94a5.65,5.65,0,0,1-.72,2.86,16.77,16.77,0,0,1-1.78,2.5l-44.69,53.8H722.1a4.29,4.29,0,0,1,3,1.17,4.05,4.05,0,0,1,1.25,3.12v10a4.27,4.27,0,0,1-4.29,4.29Z"/><path class="cls-1" d="M769,136.48a37.83,37.83,0,0,1-16.8-3.66A30.76,30.76,0,0,1,740.26,123a24.41,24.41,0,0,1,5.81-33.79q10.18-7.41,26.64-9.92l24.48-3.57V72q0-7.5-3.75-11.62t-12.87-4.11a19.11,19.11,0,0,0-10.46,2.59,15.9,15.9,0,0,0-6,6.89A4.58,4.58,0,0,1,760,68H745.89A3.79,3.79,0,0,1,743,67a4.06,4.06,0,0,1-1-2.86,17.63,17.63,0,0,1,2.41-7,28.48,28.48,0,0,1,6.8-8,39,39,0,0,1,11.88-6.52A51.66,51.66,0,0,1,780.75,40q11.26,0,19,2.78a33,33,0,0,1,12.42,7.41A28.13,28.13,0,0,1,819,61.05a40.5,40.5,0,0,1,2.15,13.23V130.4a4.27,4.27,0,0,1-4.29,4.29H802.38a4,4,0,0,1-3.13-1.25,4.32,4.32,0,0,1-1.16-3v-7a31.11,31.11,0,0,1-6.26,6.26,32,32,0,0,1-9.56,4.91A42.29,42.29,0,0,1,769,136.48Zm6.08-17a24.06,24.06,0,0,0,11.35-2.68,19,19,0,0,0,8-8.31c2-3.76,3-8.49,3-14.22V90.54L779.5,93.4Q769,95,763.77,98.59t-5.18,8.76a9.85,9.85,0,0,0,2.41,6.7,14.35,14.35,0,0,0,6.17,4.11A23.26,23.26,0,0,0,775,119.5Z"/><path class="cls-2" d="M838.12,136.48a3.89,3.89,0,0,1-3.9-3.9v-16.1a4,4,0,0,1,1.14-2.93,3.74,3.74,0,0,1,2.76-1.14h16.26a3.77,3.77,0,0,1,2.77,1.14,4,4,0,0,1,1.14,2.93v16.1a3.89,3.89,0,0,1-3.91,3.9Z"/><path class="cls-1" d="M901.54,136.48a37.86,37.86,0,0,1-16.8-3.66A30.73,30.73,0,0,1,872.86,123a24.39,24.39,0,0,1,5.8-33.79q10.2-7.41,26.64-9.92l24.49-3.57V72q0-7.5-3.76-11.62t-12.87-4.11q-6.43,0-10.45,2.59a15.86,15.86,0,0,0-6,6.89A4.58,4.58,0,0,1,892.61,68H878.49a3.8,3.8,0,0,1-3-1.07,4.06,4.06,0,0,1-1-2.86,17.63,17.63,0,0,1,2.41-7,28.48,28.48,0,0,1,6.8-8,39.07,39.07,0,0,1,11.89-6.52A51.56,51.56,0,0,1,913.34,40q11.26,0,19,2.78a33,33,0,0,1,12.42,7.41,28.27,28.27,0,0,1,6.8,10.91,40.5,40.5,0,0,1,2.14,13.23V130.4a4.27,4.27,0,0,1-4.29,4.29H935a4.05,4.05,0,0,1-3.13-1.25,4.32,4.32,0,0,1-1.16-3v-7a31.11,31.11,0,0,1-6.26,6.26,32,32,0,0,1-9.56,4.91A42.25,42.25,0,0,1,901.54,136.48Zm6.08-17A24.06,24.06,0,0,0,919,116.82a19.1,19.1,0,0,0,8-8.31c2-3.76,3-8.49,3-14.22V90.54L912.09,93.4q-10.55,1.6-15.73,5.19t-5.18,8.76a9.85,9.85,0,0,0,2.41,6.7,14.41,14.41,0,0,0,6.17,4.11A23.26,23.26,0,0,0,907.62,119.5Z"/><path class="cls-1" d="M970.27,26.37a4.28,4.28,0,0,1-4.3-4.29V9.21a4.28,4.28,0,0,1,4.3-4.29h16.26a4.39,4.39,0,0,1,3.22,1.25,4.17,4.17,0,0,1,1.25,3V22.08a4.15,4.15,0,0,1-1.25,3,4.39,4.39,0,0,1-3.22,1.25ZM971,134.69a4.27,4.27,0,0,1-4.29-4.29V46A4.27,4.27,0,0,1,971,41.74h14.84A4.05,4.05,0,0,1,988.94,43a4.3,4.3,0,0,1,1.17,3V130.4a4.29,4.29,0,0,1-1.17,3,4,4,0,0,1-3.12,1.25Z"/><path class="cls-2" d="M11.35,99.47A3.5,3.5,0,0,1,7.9,96.55,68.34,68.34,0,0,1,75.23,17a68.23,68.23,0,0,1,22.52,3.8,3.5,3.5,0,1,1-2.31,6.61A61.31,61.31,0,0,0,14,85.23a61.67,61.67,0,0,0,.84,10.17,3.5,3.5,0,0,1-2.88,4A2.84,2.84,0,0,1,11.35,99.47Z"/><path class="cls-2" d="M75.23,153.5A67.89,67.89,0,0,1,17.06,121a3.5,3.5,0,1,1,6-3.67,61.27,61.27,0,1,0,91.85-78.79,3.5,3.5,0,0,1,4.53-5.34A68.27,68.27,0,0,1,75.23,153.5Z"/><path class="cls-3" d="M75.2,128.46a43.24,43.24,0,0,1-41.26-56,3.5,3.5,0,1,1,6.68,2.07,36.25,36.25,0,0,0,41.87,46.24,3.5,3.5,0,0,1,1.4,6.86,43.78,43.78,0,0,1-7.14.85Z"/><path class="cls-3" d="M97.21,121.84a3.5,3.5,0,0,1-1.94-6.42A36.23,36.23,0,1,0,46.8,62.78a3.5,3.5,0,0,1-5.49-4.34,43.23,43.23,0,1,1,57.84,62.81A3.47,3.47,0,0,1,97.21,121.84Z"/><path class="cls-3" d="M75.23,110.75A25.48,25.48,0,0,1,67,109.38a3.5,3.5,0,0,1,2.27-6.62,18.46,18.46,0,0,0,6,1h.11A18.51,18.51,0,0,0,93.75,85.12a17.52,17.52,0,0,0-.27-3.07,3.5,3.5,0,1,1,6.9-1.2,24.91,24.91,0,0,1,.37,4.23,25.5,25.5,0,0,1-25.36,25.67Z"/><path class="cls-2" d="M55.55,98.61a3.5,3.5,0,0,1-3.13-1.93,25.53,25.53,0,0,1,22.66-37h.15a25.52,25.52,0,0,1,16.42,6,3.5,3.5,0,1,1-4.51,5.36,18.49,18.49,0,0,0-11.91-4.34h-.11A18.53,18.53,0,0,0,58.67,93.54a3.51,3.51,0,0,1-1.55,4.7A3.54,3.54,0,0,1,55.55,98.61Z"/><path class="cls-1" d="M1014.7,119.75a9.33,9.33,0,0,1,1.77-3.15,8.06,8.06,0,0,1,2.78-2.1,8.54,8.54,0,0,1,3.7-.77,8.69,8.69,0,0,1,3.74.77,8.23,8.23,0,0,1,2.8,2.1,9.48,9.48,0,0,1,1.76,3.15,12.17,12.17,0,0,1,.61,3.93v.4a12.07,12.07,0,0,1-.61,3.92,9.58,9.58,0,0,1-1.76,3.15,8.08,8.08,0,0,1-2.8,2.09,8.65,8.65,0,0,1-3.7.76,8.79,8.79,0,0,1-3.73-.76,8,8,0,0,1-2.79-2.09,9.43,9.43,0,0,1-1.77-3.15,12.07,12.07,0,0,1-.62-3.92v-.4A12.17,12.17,0,0,1,1014.7,119.75Zm3.07,7.09a7,7,0,0,0,1.05,2.3,4.86,4.86,0,0,0,4.17,2.15,4.8,4.8,0,0,0,2.41-.58,5.16,5.16,0,0,0,1.75-1.57,7.43,7.43,0,0,0,1-2.3,11.34,11.34,0,0,0,.34-2.76v-.4a10.64,10.64,0,0,0-.35-2.73,7.4,7.4,0,0,0-1-2.31,5.29,5.29,0,0,0-1.75-1.58,5.28,5.28,0,0,0-4.85,0,5.16,5.16,0,0,0-1.71,1.58,7,7,0,0,0-1.05,2.31,10.64,10.64,0,0,0-.34,2.73v.4A10.87,10.87,0,0,0,1017.77,126.84Z"/><path class="cls-1" d="M1049.91,131a6.7,6.7,0,0,1-5.82,3.05,7.69,7.69,0,0,1-2.78-.48,5.29,5.29,0,0,1-2.13-1.49,6.92,6.92,0,0,1-1.37-2.57,13.32,13.32,0,0,1-.47-3.75V114.09h3.34v11.65a11.47,11.47,0,0,0,.25,2.64,4.06,4.06,0,0,0,.76,1.66,2.73,2.73,0,0,0,1.24.89,5.14,5.14,0,0,0,1.69.25,7.23,7.23,0,0,0,2-.26,5.23,5.23,0,0,0,1.54-.73,4.36,4.36,0,0,0,.95-.92,5.79,5.79,0,0,0,.68-1.16v-14h3.36v19.55h-3Z"/><path class="cls-1" d="M1058.06,114.09h3.43l5.6,14.74.31,1.21.33-1.21,5.47-14.74h3.42l-8,19.55h-2.55Z"/><path class="cls-1" d="M1092.15,114.09v16.66h6.38v2.89h-16.37v-2.89h6.65V117h-6.65v-2.91Zm-3.64-6a1.76,1.76,0,0,1,.43-.65,1.7,1.7,0,0,1,.6-.37,2.47,2.47,0,0,1,.84-.13,2.43,2.43,0,0,1,.84.13,1.75,1.75,0,0,1,.59.37,1.51,1.51,0,0,1,.43.64,2.23,2.23,0,0,1,.15.83,1.89,1.89,0,0,1-.51,1.35,1.94,1.94,0,0,1-1.5.54,2,2,0,0,1-1.51-.54,1.92,1.92,0,0,1-.49-1.35A2.47,2.47,0,0,1,1088.51,108.14Z"/><path class="cls-1" d="M1103.76,119.68a9.71,9.71,0,0,1,1.58-3.15,7.26,7.26,0,0,1,2.46-2.06,6.93,6.93,0,0,1,3.24-.74,7.49,7.49,0,0,1,3.06.58,6.64,6.64,0,0,1,2.27,1.71V105.89h3.34v27.75h-3.07l-.15-2.06a6.48,6.48,0,0,1-2.33,1.81,7.58,7.58,0,0,1-3.16.61,6.73,6.73,0,0,1-3.21-.76,7.41,7.41,0,0,1-2.45-2.09,10.5,10.5,0,0,1-1.57-3.16,13.29,13.29,0,0,1-.56-3.91v-.38A14.16,14.16,0,0,1,1103.76,119.68Zm3.1,7.11a7.11,7.11,0,0,0,1,2.26,4.62,4.62,0,0,0,1.63,1.54,4.69,4.69,0,0,0,2.38.57,4.75,4.75,0,0,0,2.78-.76,5.32,5.32,0,0,0,1.76-2v-9.07a5.71,5.71,0,0,0-1.76-2,4.69,4.69,0,0,0-2.74-.77,4.54,4.54,0,0,0-4,2.14,7.32,7.32,0,0,0-1,2.28,12,12,0,0,0-.31,2.72v.38A11.84,11.84,0,0,0,1106.86,126.79Z"/><path class="cls-1" d="M1125.72,119.75a9.19,9.19,0,0,1,1.78-3.15,8,8,0,0,1,2.78-2.1,8.51,8.51,0,0,1,3.7-.77,8.61,8.61,0,0,1,3.73.77,8.27,8.27,0,0,1,2.81,2.1,9.48,9.48,0,0,1,1.76,3.15,12.45,12.45,0,0,1,.61,3.93v.4a12.34,12.34,0,0,1-.61,3.92,9.58,9.58,0,0,1-1.76,3.15,8.08,8.08,0,0,1-2.8,2.09,8.65,8.65,0,0,1-3.7.76,8.76,8.76,0,0,1-3.73-.76,7.86,7.86,0,0,1-2.79-2.09,9.28,9.28,0,0,1-1.78-3.15,12.34,12.34,0,0,1-.61-3.92v-.4A12.45,12.45,0,0,1,1125.72,119.75Zm3.08,7.09a7,7,0,0,0,1,2.3,5,5,0,0,0,1.74,1.57,4.92,4.92,0,0,0,2.44.58,4.83,4.83,0,0,0,2.41-.58,5.22,5.22,0,0,0,1.74-1.57,7.21,7.21,0,0,0,1-2.3,10.87,10.87,0,0,0,.35-2.76v-.4a10.22,10.22,0,0,0-.36-2.73,7.39,7.39,0,0,0-1-2.31,5.39,5.39,0,0,0-1.75-1.58,5.28,5.28,0,0,0-4.85,0,5.2,5.2,0,0,0-1.72,1.58,7,7,0,0,0-1,2.31,10.64,10.64,0,0,0-.35,2.73v.4A10.87,10.87,0,0,0,1128.8,126.84Z"/><path class="cls-1" d="M1163,113.85a5.92,5.92,0,0,1,1.51.35l-.45,3.27a17.56,17.56,0,0,0-1.85-.32,18.08,18.08,0,0,0-1.84-.1,7.64,7.64,0,0,0-2.22.3,5.28,5.28,0,0,0-2.9,2.11,7.19,7.19,0,0,0-.82,1.64v12.54h-3.36V114.09h3.18l.14,2.62,0,.49a8.87,8.87,0,0,1,2.86-2.54,7.71,7.71,0,0,1,3.81-.93A16.21,16.21,0,0,1,1163,113.85Z"/><path class="cls-1" d="M1181,114.09v16.66h6.37v2.89H1171v-2.89h6.64V117H1171v-2.91Zm-3.64-6a1.66,1.66,0,0,1,1-1,2.75,2.75,0,0,1,1.67,0,1.65,1.65,0,0,1,.59.37,1.53,1.53,0,0,1,.44.64,2.45,2.45,0,0,1,.14.83,1.93,1.93,0,0,1-.5,1.35,2,2,0,0,1-1.5.54,2,2,0,0,1-1.51-.54,1.93,1.93,0,0,1-.5-1.35A2.48,2.48,0,0,1,1177.34,108.14Z"/><path class="cls-1" d="M1205.2,132.69a8.82,8.82,0,0,1-.17-1.18,10.69,10.69,0,0,1-1.13,1,7.69,7.69,0,0,1-1.37.8,8.23,8.23,0,0,1-1.61.54,7.94,7.94,0,0,1-1.8.2,8.24,8.24,0,0,1-2.81-.45,6.34,6.34,0,0,1-2.13-1.23,5.18,5.18,0,0,1-1.36-1.82,5.42,5.42,0,0,1-.48-2.28,6,6,0,0,1,.64-2.82,5.67,5.67,0,0,1,1.82-2,8.6,8.6,0,0,1,2.83-1.2,16.07,16.07,0,0,1,3.69-.39H1205v-1.54a3.86,3.86,0,0,0-.32-1.59,3.54,3.54,0,0,0-.93-1.21,4.16,4.16,0,0,0-1.45-.76,6.36,6.36,0,0,0-1.92-.27,5.71,5.71,0,0,0-1.78.25,4.25,4.25,0,0,0-1.33.67,3,3,0,0,0-.84,1,2.49,2.49,0,0,0-.3,1.18h-3.36a4.63,4.63,0,0,1,.55-2.1,6.22,6.22,0,0,1,1.54-1.86,8.28,8.28,0,0,1,2.43-1.32,10,10,0,0,1,3.27-.5,11.37,11.37,0,0,1,3.09.4,7.42,7.42,0,0,1,2.47,1.22,6,6,0,0,1,1.63,2.06,6.64,6.64,0,0,1,.59,2.88v9.08a12.69,12.69,0,0,0,.18,2.07,8.94,8.94,0,0,0,.51,1.91v.29h-3.49A3.42,3.42,0,0,1,1205.2,132.69Zm-3.77-1.85a6.78,6.78,0,0,0,1.55-.67,5.71,5.71,0,0,0,1.2-.95,4.53,4.53,0,0,0,.79-1.11v-4h-3.11a13.47,13.47,0,0,0-3,.3,5,5,0,0,0-2,.91,2.91,2.91,0,0,0-.83,1,3.27,3.27,0,0,0-.28,1.36,3.67,3.67,0,0,0,.25,1.34,2.7,2.7,0,0,0,.73,1,3.35,3.35,0,0,0,1.23.71,5.22,5.22,0,0,0,1.71.25A6.33,6.33,0,0,0,1201.43,130.84Z"/></svg>