<svg id="Camada_1" data-name="Camada 1" xmlns="http://www.w3.org/2000/svg" viewBox="0 0 205.57 43.25"><defs><style>.cls-1{fill:#fff;}.cls-2{fill:#3a3938;}.cls-3{fill:#577e8d;}.cls-4{fill:#1d1d1b;}</style></defs><path class="cls-1" d="M24.39,10.66H12.26S11.87,7.1,9.14,5.94A6.58,6.58,0,0,1,9,10.66H7.79A4.24,4.24,0,0,0,3.55,14.9v4.64a4.24,4.24,0,0,0,4.24,4.24h16.6a4.23,4.23,0,0,0,4.23-4.24V14.9A4.23,4.23,0,0,0,24.39,10.66Z"/><path class="cls-2" d="M24.39,24.28H7.79a4.74,4.74,0,0,1-4.74-4.74V14.9a4.75,4.75,0,0,1,4.74-4.74h.93a6.27,6.27,0,0,0-.05-4,.52.52,0,0,1,.13-.54.49.49,0,0,1,.54-.1c2.39,1,3.13,3.63,3.34,4.68H24.39a4.74,4.74,0,0,1,4.73,4.74v4.64A4.74,4.74,0,0,1,24.39,24.28ZM7.79,11.16A3.75,3.75,0,0,0,4.05,14.9v4.64a3.75,3.75,0,0,0,3.74,3.74h16.6a3.74,3.74,0,0,0,3.73-3.74V14.9a3.74,3.74,0,0,0-3.73-3.74H12.26a.5.5,0,0,1-.5-.44A6.41,6.41,0,0,0,9.93,7a6.3,6.3,0,0,1-.44,3.87.49.49,0,0,1-.45.27Z"/><path class="cls-1" d="M22.46,33.33H34.59s.39,3.56,3.11,4.72a6.64,6.64,0,0,1,.1-4.72h1.25a4.24,4.24,0,0,0,4.24-4.24V24.45a4.24,4.24,0,0,0-4.24-4.24H22.46a4.24,4.24,0,0,0-4.24,4.24v4.64A4.24,4.24,0,0,0,22.46,33.33Z"/><path class="cls-1" d="M37.7,39.55a1.52,1.52,0,0,1-.59-.12,7,7,0,0,1-3.73-4.6H22.46a5.74,5.74,0,0,1-5.74-5.74V24.45a5.75,5.75,0,0,1,5.74-5.74H39.05a5.75,5.75,0,0,1,5.74,5.74v4.64a5.74,5.74,0,0,1-5.74,5.74h-.18a6.08,6.08,0,0,0,.23,2.7,1.49,1.49,0,0,1-.36,1.61A1.52,1.52,0,0,1,37.7,39.55ZM22.46,21.71a2.74,2.74,0,0,0-2.74,2.74v4.64a2.74,2.74,0,0,0,2.74,2.74H34.59a1.51,1.51,0,0,1,1.49,1.34,2.55,2.55,0,0,0,.05.29,6.13,6.13,0,0,1,.33-.8,1.5,1.5,0,0,1,1.34-.83h1.25a2.74,2.74,0,0,0,2.74-2.74V24.45a2.74,2.74,0,0,0-2.74-2.74Z"/><path class="cls-1" d="M22.46,33.33H34.59s.39,3.56,3.11,4.72a6.64,6.64,0,0,1,.1-4.72h1.25a4.24,4.24,0,0,0,4.24-4.24V24.45a4.24,4.24,0,0,0-4.24-4.24H22.46a4.24,4.24,0,0,0-4.24,4.24v4.64A4.24,4.24,0,0,0,22.46,33.33Z"/><path class="cls-2" d="M37.7,38.55a.48.48,0,0,1-.2,0c-2.38-1-3.13-3.63-3.34-4.68H22.46a4.74,4.74,0,0,1-4.74-4.74V24.45a4.74,4.74,0,0,1,4.74-4.74H39.05a4.74,4.74,0,0,1,4.74,4.74v4.64a4.74,4.74,0,0,1-4.74,4.74h-.93a6.29,6.29,0,0,0,.05,4.05.51.51,0,0,1-.12.54A.51.51,0,0,1,37.7,38.55ZM22.46,20.71a3.75,3.75,0,0,0-3.74,3.74v4.64a3.75,3.75,0,0,0,3.74,3.74H34.59a.49.49,0,0,1,.49.45A6.57,6.57,0,0,0,36.91,37a6.34,6.34,0,0,1,.44-3.86.51.51,0,0,1,.45-.28h1.25a3.74,3.74,0,0,0,3.74-3.74V24.45a3.74,3.74,0,0,0-3.74-3.74Z"/><rect class="cls-3" x="7.73" y="14.93" width="15.58" height="1"/><rect class="cls-3" x="7.73" y="17.82" width="10.49" height="1"/><circle class="cls-3" cx="26.86" cy="26.69" r="1.23"/><circle class="cls-3" cx="30.76" cy="26.69" r="1.23"/><circle class="cls-3" cx="34.65" cy="26.69" r="1.23"/><path class="cls-4" d="M55.39,27.79c.46,1.76,1.84,2.77,4.09,2.77s3.17-.9,3.17-2.29-.87-2.07-4-2.83c-6.14-1.51-7.23-3.4-7.23-6.14s2-5.81,7.68-5.81,7.7,3.15,7.9,5.83H62.46c-.21-.91-.86-2.41-3.57-2.41-2.12,0-2.78,1-2.78,2s.67,1.7,4,2.49c6.35,1.49,7.37,3.65,7.37,6.54,0,3.32-2.56,6.13-8.19,6.13s-8.15-2.77-8.6-6.27Z"/><path class="cls-4" d="M69.8,5.63h4.76v4.65H69.8Zm0,8.32h4.76V33.6H69.8Z"/><path class="cls-4" d="M78.22,19c0-1.69,0-3.41,0-5.06h4.55c.07.51.17,1.73.19,2.57a6.07,6.07,0,0,1,5.55-3,5.23,5.23,0,0,1,5.19,3.17,6.75,6.75,0,0,1,6.13-3.17c3.35,0,6.22,2,6.22,7.21V33.6h-4.65V21.28c0-2-.7-3.91-3.21-3.91s-3.68,1.81-3.68,5V33.6H89.81V21.45c0-2.2-.57-4.05-3.15-4.05s-3.74,1.76-3.74,5.26V33.6h-4.7Z"/><path class="cls-4" d="M114.42,31.63V41.2H109.7V18.7c0-1.59,0-3.19,0-4.75h4.61a26.36,26.36,0,0,1,.15,2.66,6.42,6.42,0,0,1,6-3.12c4.46,0,7.83,3.73,7.83,9.79,0,7-3.8,10.78-8.56,10.78C116.74,34.06,115.22,32.92,114.42,31.63Zm9-8.17c0-3.79-1.6-6.1-4.45-6.1-3.42,0-4.69,2.18-4.69,6.42,0,4,1.11,6.45,4.45,6.45C121.8,30.23,123.37,27.75,123.37,23.46Z"/><path class="cls-4" d="M130.66,33.6v-28h4.75v28Z"/><path class="cls-3" d="M138,5.63h4.75v4.65H138Z"/><path class="cls-4" d="M148.31,33.6v-16h-3V14h3V12c0-3.91,1.8-6.76,6.08-6.76a10.43,10.43,0,0,1,2.41.24V9.31a7.49,7.49,0,0,0-1.34-.12c-1.74,0-2.4.8-2.4,3.16V14h3.61v3.64h-3.61v16Z"/><path class="cls-4" d="M158.25,5.63H163v4.65h-4.76Zm0,8.32H163V33.6h-4.76Z"/><path class="cls-4" d="M183,27.37c-.73,3.31-3,6.69-8.6,6.69-5.88,0-9.09-4.12-9.09-10.15,0-5.73,3.41-10.42,9.35-10.42,6.3,0,8.19,4.51,8.34,6.84h-4.66a3.5,3.5,0,0,0-3.77-3.06c-2.82,0-4.42,2.45-4.42,6.48,0,4.28,1.63,6.56,4.36,6.56a3.79,3.79,0,0,0,3.81-2.94Z"/><path class="cls-4" d="M200.93,28.79a37.89,37.89,0,0,0,.27,4.81h-4.55a9.36,9.36,0,0,1-.29-2.14c-.7,1.18-2.12,2.6-5.71,2.6C186,34.06,184,31,184,28c0-4.45,3.54-6.49,9.33-6.49h3V20.1c0-1.51-.52-3.14-3.43-3.14-2.63,0-3.15,1.2-3.44,2.66h-4.53c.28-3.23,2.28-6.16,8.14-6.13,5.11,0,7.91,2,7.91,6.66Zm-4.64-4.35h-2.54c-3.49,0-5,1-5,3.22a2.84,2.84,0,0,0,3.16,2.93c3.89,0,4.38-2.67,4.38-5.59Z"/></svg>