<svg id="Camada_1" data-name="Camada 1" xmlns="http://www.w3.org/2000/svg" viewBox="0 0 304 302"><defs><style>.cls-1,.cls-2{fill:none;}.cls-1{stroke:#e6e6e6;stroke-miterlimit:10;stroke-width:6px;}.cls-2{stroke:#20334a;stroke-linecap:round;stroke-linejoin:round;stroke-width:3px;}</style></defs><circle class="cls-1" cx="153" cy="151.8" r="139.01"/><circle class="cls-2" cx="151.9" cy="152.9" r="86.9"/><ellipse class="cls-2" cx="152.32" cy="152.9" rx="39.66" ry="86.9"/><path class="cls-2" d="M221.57,204.84c-11.18-14.43-31.06-23.67-69.1-23.67S92.76,192.08,83.07,206c0,0,24,33.85,69.25,33.85S221.57,204.84,221.57,204.84Z"/><path class="cls-2" d="M82.16,101c11.19,14.43,31.06,23.67,69.11,23.67s59.7-10.91,69.4-24.78c0,0-24-33.85-69.25-33.85S82.16,101,82.16,101Z"/><line class="cls-2" x1="152.14" y1="66" x2="152.14" y2="239.8"/><line class="cls-2" x1="65" y1="152.9" x2="238.8" y2="152.9"/></svg>