<svg id="Layer_1" data-name="Layer 1" xmlns="http://www.w3.org/2000/svg" viewBox="0 0 390.4 382.99"><defs><style>.cls-1{fill:#fff;}.cls-2{fill:#fdb93f;}.cls-3{fill:#21344a;}.cls-4{fill:none;stroke:#21344a;stroke-linecap:round;stroke-linejoin:round;stroke-width:3px;}</style></defs><circle class="cls-1" cx="193.32" cy="194.55" r="163.33"/><path class="cls-2" d="M233.5,172.66a27.55,27.55,0,0,1,27.41,27.54L260.72,279a27.57,27.57,0,0,1-27.55,27.41l-80-.2a27.59,27.59,0,0,1-27.41-27.55l.2-78.75a27.51,27.51,0,0,1,10.34-21.38l6.61-3.91a26.85,26.85,0,0,1,8.16-2c.8-.08,1.62-.11,2.45-.11h4.8Zm-26.87,56.6A13.27,13.27,0,1,0,190,242.07l-5.74,18.52,18.07.05-5.65-18.55A13.3,13.3,0,0,0,206.63,229.26Z"/><path class="cls-3" d="M193.4,216a13.27,13.27,0,0,1,3.26,26.13l-3.31-10.85L190,242.07A13.27,13.27,0,0,1,193.4,216Z"/><path class="cls-3" d="M193.35,231.24l3.31,10.85a13.18,13.18,0,0,1-3.34.42,13.65,13.65,0,0,1-3.34-.44Z"/><path class="cls-3" d="M196.66,242.09l5.65,18.55-18.07-.05L190,242.07a13.65,13.65,0,0,0,3.34.44A13.18,13.18,0,0,0,196.66,242.09Z"/><path class="cls-4" d="M139.27,176.43a30.23,30.23,0,0,0-3,2.06A27.51,27.51,0,0,0,126,199.87l-.2,78.75a27.59,27.59,0,0,0,27.41,27.55l80,.2A27.57,27.57,0,0,0,260.72,279l.19-78.76a27.55,27.55,0,0,0-27.41-27.54l-75.18-.19"/><path class="cls-4" d="M142.91,174.58a27.45,27.45,0,0,0-3.63,1.84"/><path class="cls-4" d="M158.32,172.47l.06-30.14a35.2,35.2,0,0,1,70.39.18v4.32a11.33,11.33,0,1,0,22.66.08l0-4.34a57.86,57.86,0,1,0-115.72-.29l-.08,33.92a3.53,3.53,0,0,0,.66,2.29l6.61-3.91a26.85,26.85,0,0,1,8.16-2"/><path class="cls-4" d="M151.07,172.56c.8-.08,1.62-.11,2.45-.11h4.8"/><polygon class="cls-4" points="196.66 242.09 193.35 231.24 189.98 242.07 184.24 260.59 202.31 260.64 196.66 242.09"/></svg>