<svg id="Layer_1" data-name="Layer 1" xmlns="http://www.w3.org/2000/svg" viewBox="0 0 342.8 344.18"><defs><style>.cls-1,.cls-3{fill:none;}.cls-1{stroke:#333;stroke-miterlimit:10;}.cls-2{fill:#fff;}.cls-3{stroke:#21344a;stroke-linecap:round;stroke-linejoin:round;stroke-width:2px;}.cls-4{fill:#20354b;}</style></defs><circle class="cls-1" cx="171.4" cy="172.09" r="163.28"/><polygon class="cls-2" points="249.03 123.96 249.03 222.75 171.4 249.87 171.4 150.62 249.03 123.96"/><polygon class="cls-2" points="249.03 123.96 171.4 150.62 93.77 122.55 171.4 94.32 249.03 123.96"/><polygon class="cls-2" points="171.4 150.62 171.4 249.87 93.76 222.31 93.76 122.55 171.4 150.62"/><path class="cls-3" d="M171.4,150.62v99.25M93.77,122.55l77.63,28.07L249,124m0,0L171.4,94.32,93.77,122.55v99.76l77.63,27.56L249,222.75Z"/><path class="cls-4" d="M129,175.46c5.1,0,9.22,4.81,9.22,10.75S134.11,197,129,197s-9.21-4.81-9.21-10.76,4.13-10.75,9.21-10.75"/><path class="cls-4" d="M171.4,117c6.49,0,11.74,2.49,11.74,5.56s-5.25,5.57-11.74,5.57-11.75-2.49-11.75-5.57S164.9,117,171.4,117"/><path class="cls-4" d="M211.24,117c6.5,0,11.75,2.49,11.75,5.56s-5.25,5.57-11.75,5.57-11.75-2.49-11.75-5.57,5.26-5.56,11.75-5.56"/><path class="cls-4" d="M191.72,158.33c5.1,0,9.22,4.81,9.22,10.76s-4.12,10.75-9.22,10.75-9.21-4.81-9.21-10.75,4.12-10.76,9.21-10.76"/><path class="cls-4" d="M230.09,197c5.08,0,9.22,4.82,9.22,10.75s-4.14,10.77-9.22,10.77-9.21-4.82-9.21-10.77S225,197,230.09,197"/><path class="cls-4" d="M131.56,117c6.49,0,11.74,2.49,11.74,5.56s-5.25,5.57-11.74,5.57-11.76-2.49-11.76-5.57,5.26-5.56,11.76-5.56"/></svg>