<svg id="Camada_1" data-name="Camada 1" xmlns="http://www.w3.org/2000/svg" viewBox="0 0 270.89 29.87"><defs><style>.cls-1{fill:#a8a8a7;}.cls-2{fill:#fff;}.cls-3{fill:#f4981c;}</style></defs><title>desenhado por2</title><path class="cls-1" d="M3.71,17.25a6.5,6.5,0,0,1,1.21-4.11,3.84,3.84,0,0,1,3.17-1.56,3.86,3.86,0,0,1,3.09,1.34V7.13h1.9V22.9H11.34l-.09-1.19A3.88,3.88,0,0,1,8.07,23.1a3.77,3.77,0,0,1-3.14-1.58,6.58,6.58,0,0,1-1.22-4.13Zm1.9.22a4.9,4.9,0,0,0,.78,3,2.53,2.53,0,0,0,2.16,1.07,2.76,2.76,0,0,0,2.63-1.62v-5.1A2.77,2.77,0,0,0,8.57,13.2a2.54,2.54,0,0,0-2.18,1.07A5.45,5.45,0,0,0,5.61,17.47Z"/><path class="cls-1" d="M20.64,23.1A4.86,4.86,0,0,1,17,21.62a5.52,5.52,0,0,1-1.41-4V17.3a6.69,6.69,0,0,1,.63-3,5,5,0,0,1,1.76-2,4.46,4.46,0,0,1,2.46-.74A4.16,4.16,0,0,1,23.77,13,6.18,6.18,0,0,1,25,17.1v.79H17.45a3.91,3.91,0,0,0,.95,2.65,3,3,0,0,0,2.34,1,3.22,3.22,0,0,0,1.7-.41,4.2,4.2,0,0,0,1.23-1.08l1.16.9A4.66,4.66,0,0,1,20.64,23.1Zm-.24-10a2.51,2.51,0,0,0-1.93.83,4.05,4.05,0,0,0-1,2.35h5.56v-.15a3.56,3.56,0,0,0-.78-2.24A2.37,2.37,0,0,0,20.4,13.15Z"/><path class="cls-1" d="M33.63,20a1.38,1.38,0,0,0-.58-1.19A5.49,5.49,0,0,0,31,18a9.32,9.32,0,0,1-2.29-.74,3.26,3.26,0,0,1-1.25-1,2.47,2.47,0,0,1-.41-1.42,2.89,2.89,0,0,1,1.16-2.31,4.5,4.5,0,0,1,3-.95,4.67,4.67,0,0,1,3.07,1,3.1,3.1,0,0,1,1.17,2.49H33.52a1.73,1.73,0,0,0-.66-1.34,2.46,2.46,0,0,0-1.67-.56,2.6,2.6,0,0,0-1.62.45A1.42,1.42,0,0,0,29,14.78a1.15,1.15,0,0,0,.55,1,6.41,6.41,0,0,0,2,.67,10.39,10.39,0,0,1,2.31.76,3.49,3.49,0,0,1,1.31,1.06,2.66,2.66,0,0,1,.42,1.52,2.84,2.84,0,0,1-1.19,2.39,5,5,0,0,1-3.09.89,5.53,5.53,0,0,1-2.36-.47,3.82,3.82,0,0,1-1.61-1.32,3.2,3.2,0,0,1-.58-1.83h1.9A2,2,0,0,0,29.37,21a2.9,2.9,0,0,0,1.88.56A3.06,3.06,0,0,0,33,21.12,1.33,1.33,0,0,0,33.63,20Z"/><path class="cls-1" d="M42.62,23.1a4.86,4.86,0,0,1-3.68-1.48,5.53,5.53,0,0,1-1.42-4V17.3a6.56,6.56,0,0,1,.64-3,5,5,0,0,1,1.76-2,4.46,4.46,0,0,1,2.46-.74A4.18,4.18,0,0,1,45.75,13,6.18,6.18,0,0,1,47,17.1v.79H39.42a4,4,0,0,0,1,2.65,3,3,0,0,0,2.34,1,3.22,3.22,0,0,0,1.7-.41,4,4,0,0,0,1.22-1.08l1.16.9A4.65,4.65,0,0,1,42.62,23.1Zm-.24-10a2.51,2.51,0,0,0-1.93.83,4.05,4.05,0,0,0-1,2.35h5.56v-.15a3.68,3.68,0,0,0-.78-2.24A2.4,2.4,0,0,0,42.38,13.15Z"/><path class="cls-1" d="M50.94,11.79l.06,1.4a4.06,4.06,0,0,1,3.33-1.61q3.53,0,3.55,4V22.9H56V15.55a2.58,2.58,0,0,0-.55-1.78,2.22,2.22,0,0,0-1.68-.57,2.75,2.75,0,0,0-1.62.49A3.43,3.43,0,0,0,51,15V22.9H49.15V11.79Z"/><path class="cls-1" d="M62.64,13.14a4,4,0,0,1,3.29-1.56q3.52,0,3.55,4V22.9h-1.9V15.55A2.58,2.58,0,0,0,67,13.77a2.22,2.22,0,0,0-1.68-.57,2.75,2.75,0,0,0-1.62.49A3.43,3.43,0,0,0,62.64,15V22.9H60.75V7.13h1.89Z"/><path class="cls-1" d="M79.18,22.9a4,4,0,0,1-.27-1.17,4.24,4.24,0,0,1-3.16,1.37,3.91,3.91,0,0,1-2.69-.93A3,3,0,0,1,72,19.82a3.14,3.14,0,0,1,1.32-2.7,6.23,6.23,0,0,1,3.71-1h1.85v-.87a2.1,2.1,0,0,0-.59-1.58,2.39,2.39,0,0,0-1.76-.59,2.79,2.79,0,0,0-1.7.51,1.51,1.51,0,0,0-.69,1.24H72.23a2.67,2.67,0,0,1,.59-1.61A4.14,4.14,0,0,1,74.42,12a5.44,5.44,0,0,1,2.22-.46,4.37,4.37,0,0,1,3,1,3.49,3.49,0,0,1,1.13,2.65V20.3a6.23,6.23,0,0,0,.39,2.43v.17ZM76,21.45A3.31,3.31,0,0,0,77.72,21a2.79,2.79,0,0,0,1.16-1.2V17.51H77.4c-2.33,0-3.49.68-3.49,2A1.72,1.72,0,0,0,74.5,21,2.33,2.33,0,0,0,76,21.45Z"/><path class="cls-1" d="M83.3,17.25a6.5,6.5,0,0,1,1.21-4.11,4.11,4.11,0,0,1,6.26-.22V7.13h1.9V22.9H90.93l-.1-1.19a3.86,3.86,0,0,1-3.17,1.39,3.79,3.79,0,0,1-3.15-1.58,6.58,6.58,0,0,1-1.21-4.13Zm1.9.22a4.9,4.9,0,0,0,.78,3,2.53,2.53,0,0,0,2.15,1.07,2.76,2.76,0,0,0,2.64-1.62v-5.1a2.79,2.79,0,0,0-2.62-1.57A2.54,2.54,0,0,0,86,14.27,5.45,5.45,0,0,0,85.2,17.47Z"/><path class="cls-1" d="M95.11,17.24a6.61,6.61,0,0,1,.64-2.93,4.72,4.72,0,0,1,4.4-2.73,4.67,4.67,0,0,1,3.67,1.58,6,6,0,0,1,1.4,4.17v.14a6.54,6.54,0,0,1-.62,2.91,4.6,4.6,0,0,1-1.77,2,4.93,4.93,0,0,1-2.66.72,4.68,4.68,0,0,1-3.66-1.57,6,6,0,0,1-1.4-4.16Zm1.91.23a4.73,4.73,0,0,0,.86,3,2.73,2.73,0,0,0,2.29,1.12,2.7,2.7,0,0,0,2.3-1.13,5.2,5.2,0,0,0,.86-3.18,4.73,4.73,0,0,0-.87-3,2.75,2.75,0,0,0-2.31-1.13,2.71,2.71,0,0,0-2.26,1.12A5.1,5.1,0,0,0,97,17.47Z"/><path class="cls-1" d="M122.19,17.47A6.58,6.58,0,0,1,121,21.55a3.7,3.7,0,0,1-3.14,1.55,4.08,4.08,0,0,1-3.18-1.28v5.35h-1.9V11.79h1.73l.1,1.23a3.93,3.93,0,0,1,3.22-1.44A3.79,3.79,0,0,1,121,13.1a6.73,6.73,0,0,1,1.16,4.19Zm-1.9-.22a4.84,4.84,0,0,0-.8-3,2.55,2.55,0,0,0-2.19-1.09,2.79,2.79,0,0,0-2.59,1.53V20a2.79,2.79,0,0,0,2.61,1.52,2.57,2.57,0,0,0,2.17-1.08A5.33,5.33,0,0,0,120.29,17.25Z"/><path class="cls-1" d="M124.1,17.24a6.61,6.61,0,0,1,.64-2.93,4.72,4.72,0,0,1,4.4-2.73,4.67,4.67,0,0,1,3.67,1.58,6,6,0,0,1,1.4,4.17v.14a6.54,6.54,0,0,1-.62,2.91,4.6,4.6,0,0,1-1.77,2,4.93,4.93,0,0,1-2.66.72,4.68,4.68,0,0,1-3.66-1.57,6,6,0,0,1-1.4-4.16Zm1.91.23a4.73,4.73,0,0,0,.86,3,2.73,2.73,0,0,0,2.29,1.12,2.7,2.7,0,0,0,2.3-1.13,5.2,5.2,0,0,0,.86-3.18,4.73,4.73,0,0,0-.87-3,2.89,2.89,0,0,0-4.58,0A5.17,5.17,0,0,0,126,17.47Z"/><path class="cls-1" d="M142,13.49a6.79,6.79,0,0,0-.94-.07A2.5,2.5,0,0,0,138.5,15V22.9h-1.91V11.79h1.85l0,1.28a3,3,0,0,1,2.65-1.49,1.93,1.93,0,0,1,.85.15Z"/><path class="cls-2" d="M260.91,20.61V18.9h2.17a3,3,0,0,0,.8-.08,1.14,1.14,0,0,0,.49-.25,1.07,1.07,0,0,0,.25-.46,3.13,3.13,0,0,0,.07-.67v-5.8h2v5.89a5.36,5.36,0,0,1-.17,1.44,1.93,1.93,0,0,1-.56,1,2.37,2.37,0,0,1-1,.53,7.15,7.15,0,0,1-1.67.16Z"/><path class="cls-2" d="M259,14.48a1.59,1.59,0,0,0-.08-.58.64.64,0,0,0-.26-.34,1.23,1.23,0,0,0-.51-.16c-.22,0-.49,0-.81,0h-4.88v2.73h4.88c.32,0,.59,0,.8,0a1.33,1.33,0,0,0,.52-.16.64.64,0,0,0,.26-.34A1.65,1.65,0,0,0,259,15Zm-1.32,6.13-5.22-3.24v3.24h-2V11.69h7a9.2,9.2,0,0,1,1.61.12,2.51,2.51,0,0,1,1.09.41,1.73,1.73,0,0,1,.62.83,3.6,3.6,0,0,1,.2,1.32V15a3.3,3.3,0,0,1-.21,1.27,1.71,1.71,0,0,1-.65.8,2.81,2.81,0,0,1-1.1.41,9.08,9.08,0,0,1-1.58.12h-1.58l5.24,3Z"/><path class="cls-2" d="M248.08,14.65a1.26,1.26,0,0,0-.31-1,1.75,1.75,0,0,0-1.1-.26h-5.1v3h5.13a1.79,1.79,0,0,0,1.08-.24,1.18,1.18,0,0,0,.3-1Zm-6.51,3.41v2.55h-2V11.69h7.14a7.18,7.18,0,0,1,1.6.15,2.37,2.37,0,0,1,1,.5,1.91,1.91,0,0,1,.56.89,4.73,4.73,0,0,1,.16,1.34v.77a4.49,4.49,0,0,1-.16,1.32,1.62,1.62,0,0,1-.54.84,2.38,2.38,0,0,1-1,.44,8.93,8.93,0,0,1-1.62.12Z"/><path class="cls-2" d="M237.08,20.61V14.69l-4.39,5.74a1.21,1.21,0,0,1-1.76,0l-4.38-5.74v5.92h-1.81V12.24a.69.69,0,0,1,.31-.62,1.4,1.4,0,0,1,.77-.19,1.28,1.28,0,0,1,.56.1,1,1,0,0,1,.39.32l5.07,6.73L237,11.85a1,1,0,0,1,.36-.32,1.16,1.16,0,0,1,.54-.1,1.44,1.44,0,0,1,.77.19.71.71,0,0,1,.31.62v8.37Z"/><rect class="cls-2" x="219.26" y="8.19" width="0.74" height="15.89"/><path class="cls-2" d="M154.9,8.61h3.18l7.34,9.44V8.61h3.4V23.86h-2.93l-7.59-9.75v9.75h-3.4Z"/><path class="cls-2" d="M187.1,8.61h3.75L194.9,19.3l4-10.69h3.67l-6.26,15.16h-3Z"/><path class="cls-2" d="M215,23.77h-3.75l-4-10.68-4,10.68h-3.66l6.25-15.16h3Z"/><rect class="cls-2" x="148.89" y="8.61" width="3.45" height="15.25"/><path class="cls-3" d="M180.67,16.15a1.58,1.58,0,1,1-1.58-1.57A1.57,1.57,0,0,1,180.67,16.15Z"/><path class="cls-3" d="M179.09,7.7a8.46,8.46,0,1,0,8.46,8.45A8.45,8.45,0,0,0,179.09,7.7Zm0,13.71a5.25,5.25,0,1,1,5.25-5.26A5.26,5.26,0,0,1,179.09,21.41Z"/></svg>