<svg id="Layer_1" data-name="Layer 1" xmlns="http://www.w3.org/2000/svg" viewBox="0 0 342.8 344.18"><defs><style>.cls-1{fill:none;stroke:#033333;}.cls-1,.cls-2,.cls-3{stroke-miterlimit:10;}.cls-2{fill:#11283a;}.cls-2,.cls-3{stroke:#22354c;stroke-width:2px;}.cls-3{fill:#fff;}</style></defs><circle class="cls-1" cx="171.4" cy="172.09" r="163.33"/><path class="cls-2" d="M94,212.58c-9.87-12-14.17-25-14.17-40.49,0-41.44,41-75,91.55-75s91.54,33.6,91.54,75-41,75-91.54,75c-23.86,0-47.39-9.29-63.68-21.55"/><polyline class="cls-2" points="94.23 212.36 79.85 239.23 107.72 225.59"/><path class="cls-3" d="M149.79,156.69h29.64v39.08h16.48v8.75H149.79v-8.75h17.26V165.49H149.79ZM166,144.31a5.19,5.19,0,0,1,1.85-4.09,7.61,7.61,0,0,1,5.19-1.61,7.79,7.79,0,0,1,5.26,1.61,5.39,5.39,0,0,1,0,8.18,7.84,7.84,0,0,1-5.26,1.61,7.66,7.66,0,0,1-5.19-1.61A5.21,5.21,0,0,1,166,144.31Z"/></svg>