<svg id="Layer_1" data-name="Layer 1" xmlns="http://www.w3.org/2000/svg" viewBox="0 0 642.66 667.59"><defs><style>.cls-1{fill:#fff;}.cls-2{fill:#fdb93f;}.cls-3{fill:#21344a;}.cls-10,.cls-11,.cls-4,.cls-9{fill:none;}.cls-4{stroke:#21344a;}.cls-11,.cls-4,.cls-9{stroke-linecap:round;stroke-linejoin:round;}.cls-10,.cls-11,.cls-4{stroke-width:5px;}.cls-5{fill:#f3f0f0;}.cls-6{fill:#2866ae;}.cls-7{fill:#23354b;}.cls-8{fill:#aab5c7;}.cls-10,.cls-11,.cls-9{stroke:#23354b;}.cls-9{stroke-width:4px;}.cls-10{stroke-miterlimit:10;}</style></defs><path class="cls-1" d="M480.34,92.79A71.49,71.49,0,0,0,408.79,164l-.13,61.11-7.36,0-2.38,0a45.27,45.27,0,0,0-5,.23,53.83,53.83,0,0,0-16.54,4.09L364,237.31a7.1,7.1,0,0,1-1.34-4.65l.15-68.79a117.33,117.33,0,1,1,234.66.59l0,8.8a23,23,0,1,1-46-.15l0-8.77a71.46,71.46,0,0,0-71.19-71.55Z"/><path class="cls-2" d="M401.3,225.08l7.36,0,152.46.38a55.86,55.86,0,0,1,55.57,55.85L616.31,441a55.9,55.9,0,0,1-55.87,55.59l-162.21-.4a56,56,0,0,1-55.6-55.87l.42-159.7a55.69,55.69,0,0,1,21-43.34l13.4-7.93A53.83,53.83,0,0,1,394,225.29a45.27,45.27,0,0,1,5-.23Zm105.34,115.2a26.91,26.91,0,1,0-33.75,26l-11.66,37.56,36.66.09-11.46-37.62A26.93,26.93,0,0,0,506.64,340.28Z"/><path class="cls-3" d="M479.81,313.31a26.91,26.91,0,0,1,6.62,53l-6.72-22-6.82,22a26.91,26.91,0,0,1,6.92-52.94Z"/><path class="cls-3" d="M479.66,367.13a26.23,26.23,0,0,0,6.77-.85l11.46,37.62-36.66-.09,11.66-37.56A26.19,26.19,0,0,0,479.66,367.13Z"/><path class="cls-3" d="M479.71,344.29l6.72,22a26.93,26.93,0,0,1-13.54,0Z"/><path class="cls-4" d="M370,233.13a58.19,58.19,0,0,0-6,4.18,55.69,55.69,0,0,0-21,43.34l-.42,159.7a56,56,0,0,0,55.6,55.87l162.21.4A55.9,55.9,0,0,0,616.31,441l.38-159.7a55.86,55.86,0,0,0-55.57-55.85l-152.46-.38"/><path class="cls-4" d="M377.42,229.38a54.14,54.14,0,0,0-7.37,3.73"/><path class="cls-4" d="M408.66,225.1l.13-61.11a71.37,71.37,0,0,1,142.74.35l0,8.77a23,23,0,1,0,46,.15l0-8.8a117.33,117.33,0,1,0-234.66-.59l-.15,68.79a7.1,7.1,0,0,0,1.34,4.65l13.4-7.93A53.83,53.83,0,0,1,394,225.29"/><path class="cls-4" d="M394,225.29a45.27,45.27,0,0,1,5-.23l2.38,0,7.36,0"/><polygon class="cls-4" points="486.43 366.28 479.71 344.29 472.89 366.25 461.24 403.81 497.89 403.9 486.43 366.28"/><path class="cls-1" d="M336.35,555.81l8.15,33.66h0c41.78-11,67.24,2.1,67.26,2.12.56.12,9,4,21.71,8.32C481,616,560.93,607,540.13,512.87c-36.12-163.39-183-162.22-183-162.22a99.58,99.58,0,0,1-165.67,16.19c-1.65.1-75.37,5.27-131.08,92.44C-6.32,563.63,45.29,609.5,131.91,598.54l-27.06-103.6H321.61Z"/><path class="cls-5" d="M104.85,494.94l27.06,103.6,11.23,43h214L344.5,589.47l-8.15-33.66-14.74-60.87Zm102.31,77.37a19.65,19.65,0,0,1,19.89-21.83,24.36,24.36,0,0,1,23.79,21.83A19.65,19.65,0,0,1,231,594.16,24.38,24.38,0,0,1,207.16,572.31Z"/><path class="cls-1" d="M191.47,366.84a99.56,99.56,0,1,0-22.05-62.49A99.36,99.36,0,0,0,191.47,366.84ZM219.07,356a9.91,9.91,0,1,1,12.42,6.48A9.88,9.88,0,0,1,219.07,356Zm80.91-4.7a9.91,9.91,0,1,1,12.42,6.48A9.89,9.89,0,0,1,300,351.26Z"/><path class="cls-6" d="M227.05,550.48a19.65,19.65,0,0,0-19.89,21.83A24.38,24.38,0,0,0,231,594.16a19.65,19.65,0,0,0,19.89-21.85A24.36,24.36,0,0,0,227.05,550.48Zm-11.59,21.83a12.19,12.19,0,0,1,12.34-13.55,15.14,15.14,0,0,1,14.76,13.55,12.2,12.2,0,0,1-12.34,13.57A15.11,15.11,0,0,1,215.46,572.31Z"/><path class="cls-5" d="M227.8,558.76a12.19,12.19,0,0,0-12.34,13.55,15.11,15.11,0,0,0,14.76,13.57,12.2,12.2,0,0,0,12.34-13.57A15.14,15.14,0,0,0,227.8,558.76Zm-2.87,13.55a3.66,3.66,0,0,1,3.7-4.06,4.54,4.54,0,0,1,4.44,4.06,3.64,3.64,0,0,1-3.7,4.08A4.55,4.55,0,0,1,224.93,572.31Z"/><path class="cls-7" d="M225.54,343.54A9.91,9.91,0,1,0,238,350,9.88,9.88,0,0,0,225.54,343.54Z"/><path class="cls-6" d="M228.63,568.25a3.66,3.66,0,0,0-3.7,4.06,4.55,4.55,0,0,0,4.44,4.08,3.64,3.64,0,0,0,3.7-4.08A4.54,4.54,0,0,0,228.63,568.25Z"/><path class="cls-7" d="M306.46,338.84a9.91,9.91,0,1,0,12.42,6.48A9.89,9.89,0,0,0,306.46,338.84Z"/><path class="cls-8" d="M344.52,589.47l12.62,52.08,76.35-41.64c-12.73-4.3-21.15-8.2-21.71-8.32C411.76,591.57,386.3,578.49,344.52,589.47Z"/><path class="cls-9" d="M357.14,641.55l76.35-41.64c-12.73-4.3-21.15-8.2-21.71-8.32,0,0-25.48-13.1-67.26-2.12"/><line class="cls-9" x1="344.52" y1="589.47" x2="357.14" y2="641.55"/><path class="cls-10" d="M357.14,350.65A99.58,99.58,0,1,0,269,403.91,99.21,99.21,0,0,0,357.14,350.65Z"/><polygon class="cls-9" points="336.36 555.81 321.61 494.94 104.85 494.94 131.91 598.54 143.15 641.55 357.12 641.55 344.5 589.47 336.36 555.81"/><path class="cls-11" d="M433.49,599.91C481,616,560.93,607,540.13,512.87c-36.12-163.39-183-162.22-183-162.22"/><path class="cls-11" d="M478.05,508s-61.75-13.06-141.7,47.81"/><path class="cls-11" d="M191.49,366.84h0c-1.65.1-75.37,5.27-131.08,92.44C-6.32,563.63,45.29,609.5,131.91,598.54"/></svg>