<svg id="Layer_1" data-name="Layer 1" xmlns="http://www.w3.org/2000/svg" viewBox="0 0 784.26 219.82"><defs><style>.cls-1{fill:#383838;}.cls-2{fill:none;stroke:#edd20c;stroke-linecap:square;stroke-linejoin:round;stroke-width:14px;}</style></defs><path class="cls-1" d="M6.52,83.58h21.8v93.14H6.52Z"/><path class="cls-1" d="M190,92.74q10.29,10.2,10.29,30.61v53.37h-21.8V126.14q0-12.21-5.4-18.4t-15.52-6.19q-11,0-17.62,7.24t-6.63,20.66v47.27h-21.8V126.14q0-12.21-5.4-18.4T90.6,101.55q-11.17,0-17.71,7.15t-6.54,20.75v47.27H44.55V83.58H65.31V95.44a33.84,33.84,0,0,1,13.08-9.59,44.37,44.37,0,0,1,17.44-3.31,42.23,42.23,0,0,1,18.57,3.92,30.14,30.14,0,0,1,12.82,11.6A38.87,38.87,0,0,1,142,86.64a48.19,48.19,0,0,1,20.06-4.1Q179.71,82.54,190,92.74Z"/><path class="cls-1" d="M292.67,88.47a42.8,42.8,0,0,1,16.83,16.74,50,50,0,0,1,6.1,24.94,50.46,50.46,0,0,1-6.1,25A42.77,42.77,0,0,1,292.67,172a49.5,49.5,0,0,1-24.33,5.93q-18.84,0-29.83-12.56v45.17h-21.8v-127h20.76V95.79a33.78,33.78,0,0,1,13.34-9.94,45,45,0,0,1,17.53-3.31A49.5,49.5,0,0,1,292.67,88.47Zm-7,62.78q7.76-8,7.76-21.1t-7.76-21.1q-7.77-8-19.8-8a28,28,0,0,0-14.12,3.58,25.82,25.82,0,0,0-9.94,10.2,33.94,33.94,0,0,0,0,30.7,25.76,25.76,0,0,0,9.94,10.2,28,28,0,0,0,14.12,3.58Q277.94,159.28,285.69,151.25Z"/><path class="cls-1" d="M424.43,83.58v93.14H403.68v-12a33.66,33.66,0,0,1-13.34,9.94,45.07,45.07,0,0,1-17.53,3.32A49.47,49.47,0,0,1,348.48,172a42.22,42.22,0,0,1-16.74-16.75q-6-10.8-6-25.11t6-25a42.29,42.29,0,0,1,16.74-16.65,49.47,49.47,0,0,1,24.33-5.93,43.07,43.07,0,0,1,16.66,3.14,36.59,36.59,0,0,1,13.16,9.24V83.58Zm-29.3,67.67q7.86-8,7.85-21.1t-7.85-21.1q-7.85-8-19.88-8t-19.79,8q-7.77,8-7.76,21.1t7.76,21.1q7.76,8,19.79,8T395.13,151.25Z"/><path class="cls-1" d="M458.94,171.83a44.76,44.76,0,0,1-18-17,47.54,47.54,0,0,1-6.45-24.68A47.08,47.08,0,0,1,441,105.56a45.12,45.12,0,0,1,17.88-16.92,54.44,54.44,0,0,1,26.07-6.1q13.79,0,24.16,5.58a36.28,36.28,0,0,1,15.61,16l-16.75,9.77a26.56,26.56,0,0,0-10-9.68A27.49,27.49,0,0,0,484.75,101q-12.21,0-20.23,7.94t-8,21.19q0,13.26,7.93,21.19t20.32,7.94a27.49,27.49,0,0,0,13.17-3.23,26.56,26.56,0,0,0,10-9.68l16.75,9.77a37.81,37.81,0,0,1-15.79,16.13q-10.38,5.67-24,5.67A54.56,54.56,0,0,1,458.94,171.83Z"/><path class="cls-1" d="M600.72,171.66a25.8,25.8,0,0,1-9.33,4.71,42.27,42.27,0,0,1-11.6,1.57q-15.35,0-23.71-8t-8.38-23.37V101.72H532.36V84.28H547.7V63h21.81V84.28h24.93v17.44H569.51V146c0,4.53,1.1,8,3.31,10.38s5.41,3.57,9.59,3.57a19.22,19.22,0,0,0,12.21-3.83Z"/><path class="cls-1" d="M703.63,83.58v93.14H682.88v-12a33.69,33.69,0,0,1-13.35,9.94A45,45,0,0,1,652,177.94,49.47,49.47,0,0,1,627.68,172a42.22,42.22,0,0,1-16.74-16.75q-6-10.8-6-25.11t6-25a42.29,42.29,0,0,1,16.74-16.65A49.47,49.47,0,0,1,652,82.54a43,43,0,0,1,16.65,3.14,36.54,36.54,0,0,1,13.17,9.24V83.58Zm-29.3,67.67q7.84-8,7.85-21.1t-7.85-21.1q-7.85-8-19.88-8t-19.8,8q-7.75,8-7.76,21.1t7.76,21.1q7.77,8,19.8,8T674.33,151.25Z"/><line class="cls-2" x1="745.64" y1="91.1" x2="768.06" y2="81.32"/><line class="cls-2" x1="724.03" y1="63.01" x2="740.83" y2="43.96"/><line class="cls-2" x1="692.39" y1="45.11" x2="699.46" y2="21.11"/></svg>