<svg id="Layer_1" data-name="Layer 1" xmlns="http://www.w3.org/2000/svg" viewBox="0 0 342.8 344.18"><defs><style>.cls-1,.cls-6,.cls-7,.cls-8{fill:none;}.cls-1{stroke:#333;}.cls-1,.cls-7{stroke-miterlimit:10;}.cls-2{fill:#2967af;}.cls-3{fill:#fff;}.cls-4{fill:#21344a;}.cls-5{fill:#d8d5d5;}.cls-6,.cls-8{stroke:#21344a;stroke-linecap:round;stroke-linejoin:round;}.cls-6,.cls-7{stroke-width:2px;}.cls-7{stroke:#23354b;}.cls-8{stroke-width:3px;}</style></defs><circle class="cls-1" cx="170.4" cy="173.09" r="163.33"/><path class="cls-2" d="M221.44,142.86l.07.08h0A.24.24,0,0,0,221.44,142.86Z"/><rect class="cls-2" x="148.05" y="163.79" width="22.35" height="10.83"/><path class="cls-2" d="M204.94,155.4V134.67s7.8-2.9,16.5,8.19a.24.24,0,0,1,.06.09Z"/><path class="cls-3" d="M203.94,133.23a20.66,20.66,0,0,1,17.5,9.63c-8.7-11.09-16.5-8.19-16.5-8.19V155.4L221.5,143a20.73,20.73,0,1,1-17.56-9.72Z"/><path class="cls-4" d="M237.4,106.53v15.18h-134V106.53Zm-7.63,7.68a3,3,0,1,0-3,3A3,3,0,0,0,229.77,114.21Zm-10.41,0a3,3,0,1,0-3,3A3,3,0,0,0,219.36,114.21Zm-10.42,0a3,3,0,1,0-3,3A3,3,0,0,0,208.94,114.21Z"/><path class="cls-3" d="M221.44,142.86a19.09,19.09,0,1,0,.06.09h0Zm16-21.15v63.82h-134V121.71Zm-67,52.91V163.79H148.05v10.83Zm0-19.66V144.12H148.05V155Zm-33.49,19.66V163.79H114.57v10.83Zm0-19.66V144.12H114.57V155Z"/><circle class="cls-2" cx="226.77" cy="114.21" r="3"/><rect class="cls-2" x="148.05" y="144.12" width="22.35" height="10.84"/><polygon class="cls-5" points="247.07 198.03 272.4 242.15 68.4 242.15 93.73 198.03 97.9 198.03 242.9 198.03 247.07 198.03"/><rect class="cls-2" x="114.57" y="163.79" width="22.34" height="10.83"/><circle class="cls-2" cx="216.36" cy="114.21" r="3"/><circle class="cls-2" cx="205.94" cy="114.21" r="3"/><rect class="cls-2" x="114.57" y="144.12" width="22.34" height="10.84"/><path class="cls-5" d="M249.07,100.2v91.66A6.17,6.17,0,0,1,242.9,198H97.9a6.17,6.17,0,0,1-6.17-6.17V100.2A6.17,6.17,0,0,1,97.9,94h145A6.17,6.17,0,0,1,249.07,100.2ZM237.4,185.53v-79h-134v79Z"/><path class="cls-6" d="M242.9,198a6.17,6.17,0,0,0,6.17-6.17V100.2A6.17,6.17,0,0,0,242.9,94H97.9a6.17,6.17,0,0,0-6.17,6.17v91.66A6.17,6.17,0,0,0,97.9,198"/><polygon class="cls-6" points="272.4 242.15 247.07 198.03 242.9 198.03 97.9 198.03 93.73 198.03 68.4 242.15 272.4 242.15"/><polygon class="cls-6" points="237.4 121.71 237.4 106.53 103.4 106.53 103.4 121.71 103.4 185.53 237.4 185.53 237.4 121.71"/><polyline class="cls-6" points="68.4 242.15 70.4 252.15 270.4 252.15 272.4 242.15"/><line class="cls-7" x1="103.4" y1="121.71" x2="237.4" y2="121.71"/><circle class="cls-8" cx="205.94" cy="114.21" r="3"/><circle class="cls-8" cx="216.36" cy="114.21" r="3"/><circle class="cls-8" cx="226.77" cy="114.21" r="3"/><rect class="cls-8" x="114.57" y="144.12" width="22.34" height="10.84"/><rect class="cls-8" x="148.05" y="144.12" width="22.35" height="10.84"/><rect class="cls-8" x="114.57" y="163.79" width="22.34" height="10.83"/><rect class="cls-8" x="148.05" y="163.79" width="22.35" height="10.83"/><line class="cls-6" x1="114.57" y1="133.21" x2="170.4" y2="133.21"/><path class="cls-6" d="M221.44,142.86a19.09,19.09,0,1,0,.06.09"/><path class="cls-8" d="M221.44,142.86l.07.08h0L204.94,155.4V134.67S212.74,131.77,221.44,142.86Z"/></svg>