<svg id="Layer_1" data-name="Layer 1" xmlns="http://www.w3.org/2000/svg" viewBox="0 0 342.8 344.18"><defs><style>.cls-1,.cls-6,.cls-7{fill:none;}.cls-1{stroke:#033333;}.cls-1,.cls-7{stroke-miterlimit:10;}.cls-2{fill:#25568d;}.cls-3{fill:#fff;}.cls-4{fill:#d8d5d5;}.cls-5{fill:#e8a02e;}.cls-6,.cls-7{stroke:#21344a;stroke-width:2px;}.cls-6{stroke-linecap:round;stroke-linejoin:round;}</style></defs><circle class="cls-1" cx="171.4" cy="172.09" r="163.33"/><rect class="cls-2" x="124.66" y="225.32" width="14.74" height="14.74"/><rect class="cls-2" x="124.66" y="191.08" width="14.74" height="14.74"/><path class="cls-3" d="M234.36,129.15V260.24H108.44V83.94h80.71v45.2h45.21Zm-95,110.91V225.32H124.66v14.74Zm0-34.24V191.08H124.66v14.74Zm0-34.24V156.85H124.66v14.73Z"/><polygon class="cls-4" points="234.34 129.14 189.15 129.14 189.15 83.94 234.34 129.14"/><rect class="cls-5" x="124.66" y="156.85" width="14.74" height="14.74"/><polygon class="cls-6" points="234.34 129.14 234.36 129.15 234.36 260.24 108.44 260.24 108.44 83.94 189.15 83.94 234.34 129.14"/><polyline class="cls-6" points="189.15 83.94 189.15 129.14 234.34 129.14 234.36 129.14"/><rect class="cls-6" x="124.66" y="156.85" width="14.74" height="14.74"/><rect class="cls-7" x="124.66" y="191.08" width="14.74" height="14.74"/><rect class="cls-7" x="124.66" y="225.32" width="14.74" height="14.74"/><line class="cls-6" x1="150.31" y1="159.38" x2="205.2" y2="159.38"/><line class="cls-6" x1="150.31" y1="169.13" x2="213.29" y2="169.13"/><line class="cls-6" x1="150.31" y1="193.58" x2="205.2" y2="193.58"/><line class="cls-6" x1="150.31" y1="203.33" x2="213.29" y2="203.33"/><line class="cls-6" x1="150.31" y1="227.82" x2="205.2" y2="227.82"/><line class="cls-6" x1="150.31" y1="237.57" x2="213.29" y2="237.57"/></svg>