<svg id="Layer_1" data-name="Layer 1" xmlns="http://www.w3.org/2000/svg" viewBox="0 0 342.8 344.18"><defs><style>.cls-1,.cls-2{fill:none;}.cls-1{stroke:#333;stroke-miterlimit:10;}.cls-2{stroke:#21344a;stroke-linecap:round;stroke-linejoin:round;stroke-width:2px;}</style></defs><circle class="cls-1" cx="170.4" cy="172.84" r="163.33"/><path class="cls-2" d="M261.67,161.31v26.62l19.19,37.23H266.21l-17.42-33.59-17.42,33.59H216.73l19.18-37.23V161.31l-26.32,20.25-26.32-20.25v26.62l19.2,37.23H187.81L170.4,191.57,153,225.16H138.33l19.18-37.23V161.31L131.2,181.56l-26.31-20.25v26.62l19.18,37.23H109.43L92,191.57,74.58,225.16H59.93l19.19-37.23V161.31L52.81,181.56V166.77l29.63-23.62c-2.06-2.28-3.32-6.42-3.32-9.74a12.89,12.89,0,0,1,25.77,0c0,3.32-1.25,7.46-3.32,9.74l29.63,22.5,29.63-22.5c-2.06-2.28-3.32-6.42-3.32-9.74a12.88,12.88,0,1,1,25.76,0c0,3.32-1.24,7.46-3.31,9.74l29.63,22.5,29.64-22.5c-2.07-2.28-3.32-6.42-3.32-9.74a12.88,12.88,0,0,1,25.76,0c0,3.32-1.25,7.46-3.31,9.74L288,166.77v14.79Z"/></svg>