<svg xmlns="http://www.w3.org/2000/svg" viewBox="0 0 185.47 247.29"><defs><style>.cls-1{fill:#fda300;}.cls-2,.cls-3{fill:none;stroke:#fff;stroke-linejoin:round;stroke-width:2px;}.cls-3{stroke-linecap:round;}</style></defs><g id="Camada_1" data-name="Camada 1"><path class="cls-1" d="M65.63,47.94l.05-.77c18.5-14,31.17,5,31.17,5A25.21,25.21,0,0,0,101.53,63S95,62.39,86.65,68,68,85.7,61.1,111.06h0c-.56,2-1.09,4.12-1.6,6.31-.46.21-13.29,5.63-21.15-7.77-8-13.65,7.33-32.68,10.33-39.36S46.21,63.07,50,54.94C52.87,48.84,59.28,47.5,65.63,47.94Z"/><path class="cls-2" d="M96.85,52.16a24.69,24.69,0,0,1-.39-4.41,25.31,25.31,0,1,1,30,24.87,25,25,0,0,1-4.69.44,25.29,25.29,0,0,1-24.92-20.9Z"/><polyline class="cls-3" points="136.18 111.04 146.3 82.94 150.21 84 139.43 111.58"/><polyline class="cls-3" points="112.83 179.68 127.44 142.27 132.57 129.15"/><polyline class="cls-3" points="126.15 138.89 111.81 178.68 95.17 224.87 112.83 179.69"/><line class="cls-3" x1="129.82" y1="128.69" x2="126.15" y2="138.88"/><path class="cls-3" d="M104.15,98.89a53.61,53.61,0,0,0-2.56,5s6.84-1.11,23.74,9.94c.55.35,1.11.73,1.68,1.11,0,0,4.68-3.59,9.17-3.85a7.06,7.06,0,0,1,3.25.54,6.46,6.46,0,0,1,2.92,2.69c2.33,3.89.15,6.77-1.5,10.67-2.41,5.67-4.69,4.95-8.28,4.21-.63-.13-1.31-.26-2-.36l-.72-.1c-1.29-.21-3-.55-5.12-1-9.49-2-25.89-6.38-36.81-10.73-1.13-.45-2.21-.9-3.21-1.35-15.92-7.13,0-35.67,10.5-41.67"/><path class="cls-3" d="M109.29,89a82.84,82.84,0,0,1-5.07,9.83"/><path class="cls-2" d="M61.1,111.06C68,85.7,78.23,73.68,86.65,68s14.88-5,14.88-5"/><path class="cls-2" d="M124.18,126.19a14.1,14.1,0,0,1,.52,1.5c1,3.56.19,6.78,1.45,11.19,0,0,0,0,0,0a20.38,20.38,0,0,0,1.29,3.38,29.6,29.6,0,0,0,2.49,4.17c8.92,12.67,22.57,56.29,27.58,54.33,4.06-1.58,27.17-12.83,13.5,6-9.67,13.34-16.13,22.07-20.8,16.26s-11.11-21.72-30-36.84a98.08,98.08,0,0,1-7.35-6.5h0c-.35-.33-.69-.67-1-1-12.71-12.77-17.73-24.77-17.73-24.77-.52,6-12.08,30.83-28.48,41.28-9.36,6-36,9.94-34,13.63,6.12,11.37,12.29,17.29,5.45,19.45-5.71,1.81-13.08-1.22-21.83-14.83-6.75-10.5-5.12-12.62,3.5-17,10.2-5.17,16.5-16.25,30.49-22.29,6.12-2.64,3.68-16.29,7.22-40.16.89-6,1.94-11.55,3.11-16.6.51-2.19,1-4.3,1.6-6.31"/><path class="cls-3" d="M126.46,72.62s6,15.82-1.13,41.15"/><path class="cls-3" d="M96.85,52.16s-12.67-19-31.17-5"/><path class="cls-3" d="M82.18,52.16a56.9,56.9,0,0,0-16.55-4.22c-6.35-.44-12.76.9-15.62,7-3.8,8.13,1.67,8.65-1.33,15.32S30.35,96,38.35,109.62c7.86,13.4,20.69,8,21.15,7.77h0"/><path class="cls-2" d="M61.1,111.06h0c1.44,11.13,12.47,16.59,26.79,5.88"/><path class="cls-2" d="M104.15,98.89a.35.35,0,0,0,0-.08l0,0c21-31.35-9.59-34.87-17.57-30.78"/></g></svg>