<svg id="Camada_1" data-name="Camada 1" xmlns="http://www.w3.org/2000/svg" viewBox="0 0 43.4 116.94"><defs><style>.cls-1{fill:#fff;}.cls-2{fill:#677080;}.cls-3{fill:#20334a;}.cls-4{fill:#2866ad;}</style></defs><title>relatorio-artboard</title><rect class="cls-1" width="43.4" height="116.94"/><path class="cls-2" d="M21.74,110a2.53,2.53,0,0,1-1.61-.48,1.48,1.48,0,0,1-.61-1.24,1.54,1.54,0,0,1,.52-1.21H17.77v-.74H24V107l-.47,0a1.52,1.52,0,0,1,.55,1.24,1.5,1.5,0,0,1-.62,1.23,2.6,2.6,0,0,1-1.62.48Zm.09-.74A2,2,0,0,0,23,109a1,1,0,0,0,.42-.85,1.09,1.09,0,0,0-.64-1h-2a1.09,1.09,0,0,0-.62,1,1,1,0,0,0,.43.85A2.13,2.13,0,0,0,21.83,109.28Z"/><path class="cls-2" d="M24,103.38a1.9,1.9,0,0,1-.59,1.44,2.13,2.13,0,0,1-1.55.56h-.14a2.52,2.52,0,0,1-1.15-.25,1.86,1.86,0,0,1-.8-.69,1.77,1.77,0,0,1-.29-1,1.63,1.63,0,0,1,.56-1.32,2.39,2.39,0,0,1,1.6-.48H22v2.95a1.53,1.53,0,0,0,1-.37,1.18,1.18,0,0,0,.4-.92,1.3,1.3,0,0,0-.16-.67,1.6,1.6,0,0,0-.43-.47l.36-.46A1.83,1.83,0,0,1,24,103.38Zm-3.91.1a1,1,0,0,0,.33.75,1.58,1.58,0,0,0,.92.38v-2.18h-.06a1.39,1.39,0,0,0-.88.31A.94.94,0,0,0,20.13,103.48Z"/><path class="cls-2" d="M22.8,98.29a.53.53,0,0,0-.47.23,2.34,2.34,0,0,0-.29.79,4.19,4.19,0,0,1-.28.9,1.36,1.36,0,0,1-.41.49,1,1,0,0,1-.55.16,1.15,1.15,0,0,1-.91-.46,1.73,1.73,0,0,1-.37-1.15A1.86,1.86,0,0,1,19.9,98a1.24,1.24,0,0,1,1-.46v.75a.7.7,0,0,0-.53.26,1,1,0,0,0-.22.66,1,1,0,0,0,.18.63.56.56,0,0,0,.46.23.46.46,0,0,0,.41-.21,2.56,2.56,0,0,0,.26-.77,3.72,3.72,0,0,1,.3-.91,1.21,1.21,0,0,1,.42-.51,1,1,0,0,1,.59-.17,1.1,1.1,0,0,1,.93.47A1.93,1.93,0,0,1,24,99.22a2.12,2.12,0,0,1-.19.93,1.41,1.41,0,0,1-.52.63,1.24,1.24,0,0,1-.71.22v-.74a.75.75,0,0,0,.59-.3,1.14,1.14,0,0,0,.22-.74,1.24,1.24,0,0,0-.17-.68A.53.53,0,0,0,22.8,98.29Z"/><path class="cls-2" d="M24,94.77a1.9,1.9,0,0,1-.59,1.44,2.13,2.13,0,0,1-1.55.55h-.14a2.52,2.52,0,0,1-1.15-.25,1.86,1.86,0,0,1-.8-.69,1.74,1.74,0,0,1-.29-1,1.63,1.63,0,0,1,.56-1.32,2.39,2.39,0,0,1,1.6-.47H22v3a1.54,1.54,0,0,0,1-.38,1.16,1.16,0,0,0,.4-.91,1.26,1.26,0,0,0-.16-.67,1.77,1.77,0,0,0-.43-.48l.36-.46A1.85,1.85,0,0,1,24,94.77Zm-3.91.09a1,1,0,0,0,.33.76,1.58,1.58,0,0,0,.92.37V93.81h-.06a1.45,1.45,0,0,0-.88.31A1,1,0,0,0,20.13,94.86Z"/><path class="cls-2" d="M19.6,91.5l.55,0a1.59,1.59,0,0,1-.63-1.31c0-.92.52-1.38,1.56-1.39H24v.75H21.07a1,1,0,0,0-.69.21.87.87,0,0,0-.23.66,1.1,1.1,0,0,0,.2.64,1.28,1.28,0,0,0,.5.42H24v.75H19.6Z"/><path class="cls-2" d="M20.13,86.91a1.57,1.57,0,0,1-.61-1.28c0-.92.52-1.39,1.56-1.4H24V85H21.07a1,1,0,0,0-.69.21.87.87,0,0,0-.23.66,1.08,1.08,0,0,0,.2.64,1.28,1.28,0,0,0,.5.42H24v.75H17.77v-.75Z"/><path class="cls-2" d="M24,80.43a1.52,1.52,0,0,1-.46.1A1.68,1.68,0,0,1,24,81.77a1.51,1.51,0,0,1-.37,1.06,1.15,1.15,0,0,1-.92.41,1.25,1.25,0,0,1-1.06-.51,2.46,2.46,0,0,1-.37-1.46v-.72H21a.82.82,0,0,0-.62.23,1,1,0,0,0-.23.69,1.13,1.13,0,0,0,.2.67.61.61,0,0,0,.49.27v.75a1,1,0,0,1-.63-.24,1.59,1.59,0,0,1-.48-.62,2.12,2.12,0,0,1-.18-.87,1.71,1.71,0,0,1,.38-1.18,1.33,1.33,0,0,1,1-.45h2a2.45,2.45,0,0,0,.95-.15H24Zm-.57,1.24a1.32,1.32,0,0,0-.18-.67,1.07,1.07,0,0,0-.47-.45h-.9v.58c0,.91.27,1.37.8,1.37a.69.69,0,0,0,.55-.23A.92.92,0,0,0,23.39,81.67Z"/><path class="cls-2" d="M21.74,78.82a2.53,2.53,0,0,1-1.61-.48,1.49,1.49,0,0,1-.61-1.24A1.52,1.52,0,0,1,20,75.89H17.77v-.75H24v.69l-.47,0A1.54,1.54,0,0,1,24,77.11a1.5,1.5,0,0,1-.62,1.23,2.6,2.6,0,0,1-1.62.48Zm.09-.75a2,2,0,0,0,1.16-.3,1,1,0,0,0,.42-.85,1.08,1.08,0,0,0-.64-1h-2a1.09,1.09,0,0,0-.62,1,1,1,0,0,0,.43.86A2.13,2.13,0,0,0,21.83,78.07Z"/><path class="cls-2" d="M21.74,74.18a2.52,2.52,0,0,1-1.15-.25,1.8,1.8,0,0,1-.79-.7,2,2,0,0,1,.34-2.46,2.33,2.33,0,0,1,1.63-.55h.06a2.64,2.64,0,0,1,1.14.24,1.84,1.84,0,0,1,.78.7,1.91,1.91,0,0,1,.29,1,1.85,1.85,0,0,1-.62,1.44,2.38,2.38,0,0,1-1.63.54Zm.09-.74A1.88,1.88,0,0,0,23,73.1a1.07,1.07,0,0,0,.44-.9,1.06,1.06,0,0,0-.45-.9A2,2,0,0,0,21.74,71a1.88,1.88,0,0,0-1.16.34,1.13,1.13,0,0,0,0,1.8A2.06,2.06,0,0,0,21.83,73.44Z"/><path class="cls-2" d="M21.83,63.57a2.64,2.64,0,0,1,1.6.45A1.48,1.48,0,0,1,24,65.25a1.58,1.58,0,0,1-.51,1.25h2.1v.75h-6v-.68l.48,0a1.55,1.55,0,0,1-.56-1.26A1.51,1.51,0,0,1,20.11,64a2.69,2.69,0,0,1,1.65-.45Zm-.09.74a1.9,1.9,0,0,0-1.16.32,1,1,0,0,0-.43.86,1.08,1.08,0,0,0,.6,1h2.08a1.09,1.09,0,0,0,.6-1,1,1,0,0,0-.43-.85A2.09,2.09,0,0,0,21.74,64.31Z"/><path class="cls-2" d="M21.74,62.82a2.66,2.66,0,0,1-1.15-.25,2,2,0,0,1-.45-3.17,2.38,2.38,0,0,1,1.63-.55h.06A2.65,2.65,0,0,1,23,59.1a1.75,1.75,0,0,1,.78.69,1.94,1.94,0,0,1,.29,1,1.85,1.85,0,0,1-.62,1.44,2.33,2.33,0,0,1-1.63.55Zm.09-.75A1.82,1.82,0,0,0,23,61.73a1.13,1.13,0,0,0,0-1.8,2,2,0,0,0-1.24-.33,1.82,1.82,0,0,0-1.16.34,1.08,1.08,0,0,0-.45.9,1.07,1.07,0,0,0,.44.89A2,2,0,0,0,21.83,62.07Z"/><path class="cls-2" d="M20.27,55.82a2,2,0,0,0,0,.36,1,1,0,0,0,.62,1H24v.74H19.6V57.2l.5,0a1.17,1.17,0,0,1-.58-1,.69.69,0,0,1,.06-.33Z"/><path class="cls-3" d="M23.06,9.18h-.67V8.33a1.3,1.3,0,0,0,0-.31.43.43,0,0,0-.1-.19.4.4,0,0,0-.18-.1,1,1,0,0,0-.26,0H19.54V6.92h2.31a2.32,2.32,0,0,1,.57.06.81.81,0,0,1,.37.22,1,1,0,0,1,.21.42,2.93,2.93,0,0,1,.06.65Z"/><path class="cls-3" d="M20.65,10a.69.69,0,0,0-.22,0,.22.22,0,0,0-.13.1.4.4,0,0,0-.07.2,3,3,0,0,0,0,.32v1.91h1.07V10.6a2.41,2.41,0,0,0,0-.31.43.43,0,0,0-.06-.2.26.26,0,0,0-.14-.11.67.67,0,0,0-.23,0Zm2.41.52-1.27,2h1.27v.78h-3.5V10.55a3.65,3.65,0,0,1,.05-.63,1,1,0,0,1,.16-.43.68.68,0,0,1,.33-.24,1.43,1.43,0,0,1,.51-.08h.24a1.37,1.37,0,0,1,.5.08.69.69,0,0,1,.32.26,1.14,1.14,0,0,1,.16.43,3.61,3.61,0,0,1,.05.62v.62l1.18-2.06Z"/><path class="cls-3" d="M20.72,14.21a.47.47,0,0,0-.38.12.69.69,0,0,0-.11.44v2h1.2v-2a.65.65,0,0,0-.1-.42.44.44,0,0,0-.37-.12Zm1.34,2.56h1v.78h-3.5V14.74a2.71,2.71,0,0,1,.06-.62.88.88,0,0,1,.2-.41.69.69,0,0,1,.35-.21,1.56,1.56,0,0,1,.52-.07H21a1.9,1.9,0,0,1,.52.06.59.59,0,0,1,.33.22.87.87,0,0,1,.17.4,3.65,3.65,0,0,1,0,.63Z"/><path class="cls-3" d="M23.06,18.52H20.74L23,20.24a.48.48,0,0,1,0,.7l-2.25,1.71h2.32v.71H19.78a.26.26,0,0,1-.24-.12.48.48,0,0,1-.08-.3.46.46,0,0,1,0-.22.35.35,0,0,1,.12-.15l2.64-2-2.64-2a.53.53,0,0,1-.12-.15.41.41,0,0,1,0-.21.48.48,0,0,1,.08-.3.26.26,0,0,1,.24-.12h3.28Z"/><rect class="cls-3" x="21.16" y="22.25" width="0.29" height="6.23" transform="translate(-4.06 46.67) rotate(-90)"/><path class="cls-3" d="M18.36,50.74V49.5l3.7-2.88h-3.7V45.29h6v1.15l-3.82,3h3.82v1.33Z"/><path class="cls-3" d="M18.36,38.12V36.65l4.18-1.59-4.18-1.58V32l5.94,2.45v1.18Z"/><path class="cls-3" d="M24.3,27.17v1.47l-4.19,1.59,4.19,1.58v1.44L18.36,30.8V29.62Z"/><rect class="cls-3" x="18.36" y="51.75" width="5.98" height="1.35"/><path class="cls-4" d="M21.31,40.64a.62.62,0,1,1-.62.62A.62.62,0,0,1,21.31,40.64Z"/><path class="cls-4" d="M18,41.26a3.32,3.32,0,1,0,3.31-3.32A3.31,3.31,0,0,0,18,41.26Zm5.37,0a2.06,2.06,0,1,1-2.06-2.06A2.06,2.06,0,0,1,23.37,41.26Z"/></svg>