<svg id="Layer_1" data-name="Layer 1" xmlns="http://www.w3.org/2000/svg" viewBox="0 0 342.8 344.18"><defs><style>.cls-1,.cls-4,.cls-5{fill:none;stroke-miterlimit:10;}.cls-1{stroke:#333;}.cls-2{fill:#25568d;}.cls-3{fill:#abb7c8;}.cls-4{stroke:#23354b;stroke-width:3px;}.cls-5{stroke:#21344a;stroke-width:2px;}</style></defs><circle class="cls-1" cx="171.4" cy="172.09" r="163.33"/><path class="cls-2" d="M231.36,217.91A75.55,75.55,0,0,1,95.74,172.09H84.05a4.17,4.17,0,0,1-3.7-7.05L101,144.43l.38-.38a4.23,4.23,0,0,1,3-1.22,4.17,4.17,0,0,1,2.95,1.22l7.64,7.64L128.16,165a4.18,4.18,0,0,1-3,7.13H111.32a60,60,0,0,0,107.74,36.23,5.07,5.07,0,0,0,.35-.46l0,0a7.81,7.81,0,0,1,12.46,9.37l-.07.09Z"/><path class="cls-3" d="M262.44,179.21l-21,21s0,0,0,0v0a4.18,4.18,0,0,1-5.86,0l-7.82-7.83-13.09-13.09a4.17,4.17,0,0,1,2.93-7.12h13.67v-.06a60,60,0,0,0-107.95-36c-.12.16-.22.31-.34.46A7.8,7.8,0,0,1,109,131.76a7.7,7.7,0,0,1,1.23-4.21v0c.2-.28.4-.56.61-.83a75.55,75.55,0,0,1,136,45.39v.07h11.93a4.1,4.1,0,0,1,3.68,1.15A4.15,4.15,0,0,1,262.44,179.21Z"/><path class="cls-4" d="M262.44,179.21l-21,21s0,0,0,0v0a4.18,4.18,0,0,1-5.86,0l-7.82-7.83-13.09-13.09a4.17,4.17,0,0,1,2.93-7.12h13.67v-.06a60,60,0,0,0-107.95-36c-.12.16-.22.31-.34.46A7.8,7.8,0,0,1,109,131.76a7.7,7.7,0,0,1,1.23-4.21v0c.2-.28.4-.56.61-.83a75.55,75.55,0,0,1,136,45.39v.07h11.93a4.1,4.1,0,0,1,3.68,1.15A4.15,4.15,0,0,1,262.44,179.21Z"/><path class="cls-5" d="M219.44,207.83a7.81,7.81,0,0,1,12.46,9.37l-.07.09-.47.62A75.55,75.55,0,0,1,95.74,172.09H84.05a4.17,4.17,0,0,1-3.7-7.05L101,144.43l.38-.38a4.23,4.23,0,0,1,3-1.22,4.17,4.17,0,0,1,2.95,1.22l7.64,7.64L128.16,165a4.18,4.18,0,0,1-3,7.13H111.32a60,60,0,0,0,107.74,36.23,5.07,5.07,0,0,0,.35-.46Z"/></svg>