<svg id="Layer_1" data-name="Layer 1" xmlns="http://www.w3.org/2000/svg" viewBox="0 0 342.8 344.18"><defs><style>.cls-1{fill:none;stroke:#033333;}.cls-1,.cls-2,.cls-3{stroke-miterlimit:10;}.cls-2{fill:#f7a416;stroke:#21344a;stroke-width:3px;}.cls-3{fill:#11283a;stroke:#22354c;stroke-width:2px;}</style></defs><circle class="cls-1" cx="171.08" cy="171.45" r="162.87"/><path class="cls-2" d="M72.91,156.15s26.25-.18,53.31-.18,28.83,15.85,42.88,46S206.75,230,206.75,230h33.63v14.87l28.86-26.16-30.19-26.32.31,14.77H212.44s-12.42-1-19.05-11.75-14.28-63.15-53.21-63.15H72.94Z"/><path class="cls-3" d="M102.74,210.6h37.44c38.93,0,46.59-52.38,53.21-63.14s19.05-11.75,19.05-11.75h26.92l-.31,14.77,30.19-26.33L240.38,98v14.86H206.75s-23.59-2-37.65,28.11-15.82,46.19-42.88,46l-13.82-.11-9.68,0Z"/></svg>