<svg id="Camada_1" data-name="Camada 1" xmlns="http://www.w3.org/2000/svg" viewBox="0 0 789.7 213.7"><defs><style>.cls-1{fill:#fff;}.cls-2{fill:none;stroke:#edd20c;stroke-linecap:square;stroke-linejoin:round;stroke-width:14px;}</style></defs><title>svg</title><path class="cls-1" d="M10.66,78.26h21.8v93.13H10.66Z"/><path class="cls-1" d="M194.14,87.41Q204.43,97.63,204.43,118v53.37h-21.8V120.81q0-12.19-5.4-18.4T161.7,96.22q-11,0-17.61,7.24t-6.63,20.67v47.26h-21.8V120.81q0-12.19-5.41-18.4T94.73,96.22q-11.16,0-17.7,7.15t-6.54,20.76v47.26H48.69V78.26H69.44V90.12a33.88,33.88,0,0,1,13.08-9.59A44.44,44.44,0,0,1,100,77.21a42.1,42.1,0,0,1,18.58,3.93,30.12,30.12,0,0,1,12.82,11.59,38.72,38.72,0,0,1,14.82-11.42,48.19,48.19,0,0,1,20.06-4.1Q183.85,77.21,194.14,87.41Z"/><path class="cls-1" d="M296.8,83.14a42.86,42.86,0,0,1,16.83,16.74,49.91,49.91,0,0,1,6.11,24.94,50.33,50.33,0,0,1-6.11,25,42.57,42.57,0,0,1-16.83,16.83,49.47,49.47,0,0,1-24.33,5.93q-18.83,0-29.82-12.56v45.17h-21.8v-127H241.6V90.47A33.72,33.72,0,0,1,255,80.53a45,45,0,0,1,17.52-3.32A49.47,49.47,0,0,1,296.8,83.14Zm-7,62.79q7.76-8,7.76-21.11t-7.76-21.1q-7.77-8-19.8-8a28,28,0,0,0-14.12,3.57A25.94,25.94,0,0,0,246,109.48a31.21,31.21,0,0,0-3.66,15.34A31.23,31.23,0,0,0,246,140.17a25.84,25.84,0,0,0,9.95,10.2A27.94,27.94,0,0,0,270,154Q282.06,154,289.83,145.93Z"/><path class="cls-1" d="M428.57,78.26v93.13H407.82v-12a33.75,33.75,0,0,1-13.34,10A45.28,45.28,0,0,1,377,172.61a49.47,49.47,0,0,1-24.33-5.93,42.13,42.13,0,0,1-16.74-16.74q-6-10.81-6-25.12t6-25a42.38,42.38,0,0,1,16.74-16.66A49.47,49.47,0,0,1,377,77.21a43.16,43.16,0,0,1,16.65,3.14,36.66,36.66,0,0,1,13.17,9.24V78.26Zm-29.3,67.67q7.85-8,7.85-21.11t-7.85-21.1q-7.84-8-19.88-8t-19.8,8q-7.75,8-7.76,21.1t7.76,21.11q7.77,8,19.8,8T399.27,145.93Z"/><path class="cls-1" d="M463.07,166.51a44.82,44.82,0,0,1-18-17,47.51,47.51,0,0,1-6.45-24.68,47.08,47.08,0,0,1,6.45-24.59A45.17,45.17,0,0,1,463,83.32a54.42,54.42,0,0,1,26.07-6.11q13.77,0,24.16,5.58a36.23,36.23,0,0,1,15.6,16l-16.74,9.76a26.66,26.66,0,0,0-10-9.68,27.41,27.41,0,0,0-13.16-3.22q-12.21,0-20.23,7.93t-8,21.19q0,13.26,7.94,21.19T488.89,154a27.31,27.31,0,0,0,13.16-3.23,26.51,26.51,0,0,0,10-9.68l16.74,9.77A37.62,37.62,0,0,1,513,166.94q-10.38,5.67-24,5.67A54.63,54.63,0,0,1,463.07,166.51Z"/><path class="cls-1" d="M604.86,166.33a25.8,25.8,0,0,1-9.33,4.71,41.89,41.89,0,0,1-11.6,1.57q-15.34,0-23.72-8t-8.37-23.37V96.4H536.5V79h15.34V57.68h21.8V79h24.94V96.4H573.64v44.29q0,6.81,3.32,10.38t9.59,3.58a19.16,19.16,0,0,0,12.21-3.84Z"/><path class="cls-1" d="M707.77,78.26v93.13H687v-12a33.61,33.61,0,0,1-13.34,10,45.21,45.21,0,0,1-17.53,3.31,49.46,49.46,0,0,1-24.32-5.93,42.15,42.15,0,0,1-16.75-16.74q-6-10.81-6-25.12t6-25a42.4,42.4,0,0,1,16.75-16.66,49.46,49.46,0,0,1,24.32-5.93,43.21,43.21,0,0,1,16.66,3.14A36.66,36.66,0,0,1,686,89.59V78.26Zm-29.3,67.67q7.85-8,7.85-21.11t-7.85-21.1q-7.85-8-19.88-8t-19.8,8q-7.75,8-7.76,21.1t7.76,21.11q7.76,8,19.8,8T678.47,145.93Z"/><line class="cls-2" x1="749.78" y1="85.78" x2="772.19" y2="75.99"/><line class="cls-2" x1="728.17" y1="57.68" x2="744.97" y2="38.64"/><line class="cls-2" x1="696.52" y1="39.78" x2="703.59" y2="15.78"/></svg>