<svg id="Layer_1" data-name="Layer 1" xmlns="http://www.w3.org/2000/svg" viewBox="0 0 342.8 344.18"><defs><style>.cls-1,.cls-6,.cls-7{fill:none;}.cls-1{stroke:#033333;}.cls-1,.cls-7{stroke-miterlimit:10;}.cls-2{fill:#11283a;}.cls-3{fill:#abb7c8;}.cls-4{fill:#e8a02e;}.cls-5{fill:#f6a115;}.cls-6,.cls-7{stroke:#21344a;stroke-width:2px;}.cls-6{stroke-linecap:round;stroke-linejoin:round;}</style></defs><ellipse class="cls-1" cx="171.4" cy="172.09" rx="163.33" ry="164.41"/><path class="cls-2" d="M234.4,172.09a12,12,0,1,1,12,12.08A12,12,0,0,1,234.4,172.09Z"/><path class="cls-3" d="M216,127.24a12.13,12.13,0,0,1,0-17.07,11.94,11.94,0,0,1,17,0,12.13,12.13,0,0,1,0,17.07A11.94,11.94,0,0,1,216,127.24Z"/><path class="cls-3" d="M216,216.94a11.94,11.94,0,0,1,17,0,12.13,12.13,0,0,1,0,17.07,11.92,11.92,0,0,1-17,0A12.13,12.13,0,0,1,216,216.94Z"/><path class="cls-4" d="M192.69,172.09H171.4l15-15.15A21.4,21.4,0,0,1,192.69,172.09Z"/><path class="cls-4" d="M171.4,172.09h21.29a21.39,21.39,0,0,1-6.25,15.15l-15-15.14Z"/><path class="cls-4" d="M186.45,156.94l-15,15.15V150.66A21.09,21.09,0,0,1,186.45,156.94Z"/><path class="cls-4" d="M171.4,172.1l15,15.14a21.11,21.11,0,0,1-15,6.28Z"/><path class="cls-2" d="M171.4,108.67a12.08,12.08,0,1,1,12-12.08A12,12,0,0,1,171.4,108.67Z"/><path class="cls-2" d="M171.4,235.51a12.08,12.08,0,1,1-12,12.08A12,12,0,0,1,171.4,235.51Z"/><path class="cls-4" d="M171.4,172.1v21.42a21.13,21.13,0,0,1-15.05-6.28Z"/><polygon class="cls-5" points="171.4 172.09 171.4 172.1 171.39 172.09 171.4 172.09"/><path class="cls-4" d="M171.4,150.66v21.43h0l-15-15.14A21.08,21.08,0,0,1,171.4,150.66Z"/><path class="cls-4" d="M171.4,172.1l-15.05,15.14a21.4,21.4,0,0,1-6.24-15.15H171.4Z"/><path class="cls-4" d="M171.39,172.09H150.11A21.37,21.37,0,0,1,156.35,157Z"/><path class="cls-3" d="M126.84,127.24a11.93,11.93,0,0,1-17,0,12.13,12.13,0,0,1,0-17.07,11.94,11.94,0,0,1,17,0,12.13,12.13,0,0,1,0,17.07Z"/><path class="cls-3" d="M126.84,216.94h0a12.13,12.13,0,0,1,0,17.07,11.92,11.92,0,0,1-17,0,12.13,12.13,0,0,1,0-17.07A11.93,11.93,0,0,1,126.84,216.94Z"/><path class="cls-2" d="M108.39,172.09A12,12,0,1,1,96.4,160,12,12,0,0,1,108.39,172.09Z"/><line class="cls-6" x1="192.69" y1="172.09" x2="234.4" y2="172.09"/><line class="cls-6" x1="108.39" y1="172.09" x2="150.11" y2="172.09"/><line class="cls-6" x1="186.44" y1="187.24" x2="215.95" y2="216.94"/><line class="cls-6" x1="126.84" y1="127.24" x2="156.35" y2="156.95"/><path class="cls-7" d="M232.92,234a12.13,12.13,0,0,0,0-17.07,11.94,11.94,0,0,0-17,0A12.13,12.13,0,0,0,216,234,11.92,11.92,0,0,0,232.92,234Z"/><path class="cls-7" d="M126.85,127.24a12.13,12.13,0,0,0,0-17.07,11.94,11.94,0,0,0-17,0,12.13,12.13,0,0,0,0,17.07,11.93,11.93,0,0,0,17,0Z"/><line class="cls-6" x1="171.4" y1="193.52" x2="171.4" y2="235.51"/><line class="cls-6" x1="171.4" y1="108.67" x2="171.4" y2="150.66"/><line class="cls-6" x1="156.35" y1="187.24" x2="126.85" y2="216.94"/><line class="cls-6" x1="215.95" y1="127.24" x2="186.45" y2="156.94"/><path class="cls-7" d="M126.84,216.94a11.93,11.93,0,0,0-17,0,12.13,12.13,0,0,0,0,17.07,11.92,11.92,0,0,0,17,0,12.13,12.13,0,0,0,0-17.07Z"/><path class="cls-7" d="M216,127.24a11.94,11.94,0,0,0,17,0,12.13,12.13,0,0,0,0-17.07,11.94,11.94,0,0,0-17,0A12.13,12.13,0,0,0,216,127.24Z"/><path class="cls-6" d="M192.69,172.09a21.4,21.4,0,0,0-6.24-15.15,21.16,21.16,0,0,0-30.1,0,21.5,21.5,0,0,0,0,30.29,21.16,21.16,0,0,0,30.09,0A21.39,21.39,0,0,0,192.69,172.09Z"/></svg>