<?xml version="1.0" encoding="utf-8"?>
<!-- Generator: Adobe Illustrator 24.1.1, SVG Export Plug-In . SVG Version: 6.00 Build 0)  -->
<svg version="1.1" id="Camada_1" xmlns="http://www.w3.org/2000/svg" xmlns:xlink="http://www.w3.org/1999/xlink" x="0px" y="0px"
	 viewBox="0 0 220 220" style="enable-background:new 0 0 220 220;" xml:space="preserve">
<style type="text/css">
	.st0{fill:#FFFFFF;stroke:#DEDEDE;stroke-width:7;stroke-linecap:round;stroke-linejoin:round;stroke-miterlimit:10;}
	.st1{fill:#FFFFFF;}
	.st2{fill:#282826;}
	.st3{fill:#AAB5C7;}
	.st4{fill:none;stroke:#20334A;stroke-width:3;stroke-linecap:round;stroke-linejoin:round;stroke-miterlimit:10;}
	.st5{fill:none;stroke:#20334A;stroke-width:3;stroke-linecap:round;stroke-linejoin:round;}
	.st6{fill:#D8D5D5;}
	.st7{fill:#2866AD;}
	.st8{fill:#FDA300;}
	.st9{fill:#6DCDD9;}
	.st10{fill:#F95000;}
	.st11{fill:#D8D5D5;stroke:#20334A;stroke-width:3;stroke-linecap:round;stroke-linejoin:round;stroke-miterlimit:10;}
	.st12{fill:#FFFFFF;stroke:#20334A;stroke-width:3;stroke-linecap:round;stroke-linejoin:round;stroke-miterlimit:10;}
	.st13{fill:#FDA300;stroke:#20334A;stroke-width:3;stroke-linecap:round;stroke-linejoin:round;stroke-miterlimit:10;}
	.st14{fill:#2866AD;stroke:#20334A;stroke-width:3;stroke-linecap:round;stroke-linejoin:round;}
	.st15{fill:#F1A019;}
	.st16{fill:#20334A;}
	.st17{fill:#F3F0F0;}
	.st18{fill:#F5A015;}
	.st19{fill:#72C6D3;}
	.st20{fill:#E8521A;stroke:#20334A;stroke-width:3;stroke-miterlimit:10;}
	.st21{fill:#04A239;stroke:#20334A;stroke-width:3;stroke-linecap:round;stroke-linejoin:round;stroke-miterlimit:10;}
	.st22{fill:none;stroke:#20334A;stroke-width:3;stroke-linecap:round;stroke-miterlimit:10;}
	.st23{fill:none;stroke:#20334A;stroke-width:3;stroke-miterlimit:10;}
	.st24{fill:#FDB128;}
	.st25{fill:none;stroke:#1F344B;stroke-width:3;stroke-miterlimit:10;}
	.st26{fill:#6DCDD9;stroke:#20334A;stroke-width:3;stroke-linecap:round;stroke-linejoin:round;stroke-miterlimit:10;}
	.st27{fill:#F95000;stroke:#20334A;stroke-width:3;stroke-linecap:round;stroke-linejoin:round;stroke-miterlimit:10;}
	.st28{fill:#A7CCC3;}
	.st29{fill:#AAB5C7;stroke:#20334A;stroke-width:3;stroke-linecap:round;stroke-miterlimit:10;}
	.st30{fill:#22B573;stroke:#20334A;stroke-width:3;stroke-linecap:round;stroke-linejoin:round;stroke-miterlimit:10;}
	.st31{fill:#F2F2F2;stroke:#20334A;stroke-width:3;stroke-miterlimit:10;}
</style>
<circle class="st0" cx="110" cy="110" r="100"/>
<g id="XMLID_2_">
	<g>
		<path class="st6" d="M156.33,148.75c0.99,0.99,0.58,2.98-1.13,4.68c-1.7,1.71-3.7,2.11-4.68,1.13l-0.09-0.09l-16.96-18.07
			c-0.55-0.54-0.59-1.45-0.12-2.42l2.4-2.4c0.97-0.47,1.88-0.43,2.42,0.11l18.06,16.97L156.33,148.75z"/>
		<polygon class="st6" points="135.75,131.58 133.35,133.98 131.12,131.73 132.31,130.53 133.51,129.34 		"/>
		<path class="st7" d="M132.31,100.15c8.39,8.39,8.39,21.99,0,30.38c-1.59,1.59-3.37,2.89-5.27,3.87v-5.81
			c0.62-0.47,1.22-0.98,1.78-1.54c6.46-6.46,6.46-16.94,0-23.4c-0.56-0.56-1.16-1.08-1.78-1.54v-5.81
			C128.94,97.27,130.71,98.56,132.31,100.15z"/>
		<path class="st1" d="M128.82,103.64c6.46,6.47,6.47,16.94,0,23.4c-0.56,0.56-1.16,1.08-1.78,1.54V102.1
			C127.66,102.56,128.26,103.08,128.82,103.64z"/>
		<path class="st1" d="M127.04,134.4v19.98h-63.9V64.91h40.96v22.94h22.94l0,0v8.43c-8.09-4.22-18.32-2.93-25.11,3.87
			c-8.39,8.39-8.39,21.99,0,30.38C108.73,137.33,118.95,138.62,127.04,134.4z"/>
		<path class="st7" d="M127.04,128.59v5.81c-8.09,4.22-18.32,2.93-25.11-3.87c-8.39-8.39-8.39-21.99,0-30.38
			c6.8-6.8,17.02-8.08,25.11-3.87v5.81c-6.48-4.87-15.72-4.36-21.62,1.54c-6.46,6.47-6.46,16.94,0,23.4
			C111.32,132.94,120.56,133.46,127.04,128.59z"/>
		<path class="st1" d="M127.04,102.1v26.49c-6.48,4.87-15.72,4.35-21.62-1.55c-6.46-6.46-6.46-16.93,0-23.4
			C111.32,97.74,120.56,97.23,127.04,102.1z"/>
		<polygon class="st6" points="127.04,87.85 104.1,87.85 104.1,64.91 		"/>
	</g>
	<g>
		<polyline class="st4" points="127.04,134.4 127.04,154.38 63.14,154.38 63.14,64.91 104.1,64.91 127.04,87.85 127.04,87.86 
			127.04,96.28 		"/>
		<polyline class="st4" points="104.1,64.91 104.1,87.85 127.04,87.85 127.04,87.85 		"/>
		<line class="st4" x1="70.02" y1="83.69" x2="89.67" y2="83.69"/>
		<line class="st4" x1="70.02" y1="89.8" x2="92.36" y2="89.8"/>
		<line class="st4" x1="70.02" y1="95.92" x2="92.36" y2="95.92"/>
		<path class="st4" d="M127.04,96.28c-8.09-4.22-18.32-2.93-25.11,3.87c-8.39,8.39-8.39,21.99,0,30.38
			c6.8,6.8,17.02,8.09,25.11,3.87c1.9-0.99,3.68-2.28,5.27-3.87c8.39-8.39,8.38-21.99,0-30.38
			C130.71,98.56,128.94,97.27,127.04,96.28z"/>
		<path class="st4" d="M127.04,102.1c0.62,0.46,1.21,0.98,1.78,1.54c6.46,6.47,6.47,16.94,0,23.4c-0.56,0.56-1.16,1.08-1.78,1.54
			c-6.48,4.87-15.72,4.35-21.62-1.55c-6.46-6.46-6.46-16.93,0-23.4C111.32,97.74,120.56,97.23,127.04,102.1z"/>
		<path class="st4" d="M135.75,131.58c0.97-0.47,1.88-0.43,2.42,0.11l18.06,16.97l0.09,0.09c0.99,0.99,0.58,2.98-1.13,4.68
			c-1.7,1.71-3.7,2.11-4.68,1.13l-0.09-0.09l-16.96-18.07c-0.55-0.54-0.59-1.45-0.12-2.42"/>
		<polygon class="st4" points="135.75,131.58 133.35,133.98 131.12,131.73 132.31,130.53 133.51,129.34 		"/>
	</g>
</g>
</svg>
