<?xml version="1.0" encoding="utf-8"?>
<!-- Generator: Adobe Illustrator 24.1.1, SVG Export Plug-In . SVG Version: 6.00 Build 0)  -->
<svg version="1.1" id="Camada_1" xmlns="http://www.w3.org/2000/svg" xmlns:xlink="http://www.w3.org/1999/xlink" x="0px" y="0px"
	 viewBox="0 0 220 220" style="enable-background:new 0 0 220 220;" xml:space="preserve">
<style type="text/css">
	.st0{fill:#FFFFFF;stroke:#DEDEDE;stroke-width:7;stroke-linecap:round;stroke-linejoin:round;stroke-miterlimit:10;}
	.st1{fill:#FFFFFF;}
	.st2{fill:#282826;}
	.st3{fill:#AAB5C7;}
	.st4{fill:none;stroke:#20334A;stroke-width:3;stroke-linecap:round;stroke-linejoin:round;stroke-miterlimit:10;}
	.st5{fill:none;stroke:#20334A;stroke-width:3;stroke-linecap:round;stroke-linejoin:round;}
	.st6{fill:#D8D5D5;}
	.st7{fill:#2866AD;}
	.st8{fill:#FDA300;}
	.st9{fill:#6DCDD9;}
	.st10{fill:#F95000;}
	.st11{fill:#D8D5D5;stroke:#20334A;stroke-width:3;stroke-linecap:round;stroke-linejoin:round;stroke-miterlimit:10;}
	.st12{fill:#FFFFFF;stroke:#20334A;stroke-width:3;stroke-linecap:round;stroke-linejoin:round;stroke-miterlimit:10;}
	.st13{fill:#FDA300;stroke:#20334A;stroke-width:3;stroke-linecap:round;stroke-linejoin:round;stroke-miterlimit:10;}
	.st14{fill:#2866AD;stroke:#20334A;stroke-width:3;stroke-linecap:round;stroke-linejoin:round;}
	.st15{fill:#F1A019;}
	.st16{fill:#20334A;}
	.st17{fill:#F3F0F0;}
	.st18{fill:#F5A015;}
	.st19{fill:#72C6D3;}
	.st20{fill:#E8521A;stroke:#20334A;stroke-width:3;stroke-miterlimit:10;}
	.st21{fill:#04A239;stroke:#20334A;stroke-width:3;stroke-linecap:round;stroke-linejoin:round;stroke-miterlimit:10;}
	.st22{fill:none;stroke:#20334A;stroke-width:3;stroke-linecap:round;stroke-miterlimit:10;}
	.st23{fill:none;stroke:#20334A;stroke-width:3;stroke-miterlimit:10;}
	.st24{fill:#FDB128;}
	.st25{fill:none;stroke:#1F344B;stroke-width:3;stroke-miterlimit:10;}
	.st26{fill:#6DCDD9;stroke:#20334A;stroke-width:3;stroke-linecap:round;stroke-linejoin:round;stroke-miterlimit:10;}
	.st27{fill:#F95000;stroke:#20334A;stroke-width:3;stroke-linecap:round;stroke-linejoin:round;stroke-miterlimit:10;}
	.st28{fill:#A7CCC3;}
	.st29{fill:#AAB5C7;stroke:#20334A;stroke-width:3;stroke-linecap:round;stroke-miterlimit:10;}
	.st30{fill:#22B573;stroke:#20334A;stroke-width:3;stroke-linecap:round;stroke-linejoin:round;stroke-miterlimit:10;}
	.st31{fill:#F2F2F2;stroke:#20334A;stroke-width:3;stroke-miterlimit:10;}
</style>
<circle class="st0" cx="110" cy="110" r="100"/>
<g id="XMLID_3_">
	<g>
		<rect x="128.95" y="117.14" class="st8" width="20.04" height="38.09"/>
		<rect x="98.84" y="99.96" class="st9" width="20.04" height="55.27"/>
		<rect x="68.73" y="79.05" class="st10" width="20.04" height="76.19"/>
	</g>
	<g>
		<polyline class="st4" points="166.08,155.23 166.06,155.23 160.03,155.23 148.98,155.23 128.95,155.23 118.88,155.23 
			98.84,155.23 88.77,155.23 68.73,155.23 58.39,155.23 58.39,66.32 58.39,60.26 53.92,66.32 58.39,66.32 62.91,66.32 58.39,60.26 
					"/>
		<polyline class="st4" points="166.08,155.21 160.03,150.74 160.03,155.23 160.03,159.74 166.06,155.23 166.08,155.21 		"/>
		<polyline class="st4" points="68.73,155.23 68.73,79.05 88.77,79.05 88.77,155.23 		"/>
		<polyline class="st4" points="98.84,155.23 98.84,99.96 118.88,99.96 118.88,155.23 		"/>
		<polyline class="st4" points="128.95,155.23 128.95,117.14 148.98,117.14 148.98,155.23 		"/>
	</g>
</g>
</svg>
