<?xml version="1.0" encoding="utf-8"?>
<!-- Generator: Adobe Illustrator 24.1.1, SVG Export Plug-In . SVG Version: 6.00 Build 0)  -->
<svg version="1.1" id="Camada_1" xmlns="http://www.w3.org/2000/svg" xmlns:xlink="http://www.w3.org/1999/xlink" x="0px" y="0px"
	 viewBox="0 0 220 220" style="enable-background:new 0 0 220 220;" xml:space="preserve">
<style type="text/css">
	.st0{fill:#FFFFFF;stroke:#DEDEDE;stroke-width:7;stroke-linecap:round;stroke-linejoin:round;stroke-miterlimit:10;}
	.st1{fill:#FFFFFF;}
	.st2{fill:#282826;}
	.st3{fill:#AAB5C7;}
	.st4{fill:none;stroke:#20334A;stroke-width:3;stroke-linecap:round;stroke-linejoin:round;stroke-miterlimit:10;}
	.st5{fill:none;stroke:#20334A;stroke-width:3;stroke-linecap:round;stroke-linejoin:round;}
	.st6{fill:#D8D5D5;}
	.st7{fill:#2866AD;}
	.st8{fill:#FDA300;}
	.st9{fill:#6DCDD9;}
	.st10{fill:#F95000;}
	.st11{fill:#D8D5D5;stroke:#20334A;stroke-width:3;stroke-linecap:round;stroke-linejoin:round;stroke-miterlimit:10;}
	.st12{fill:#FFFFFF;stroke:#20334A;stroke-width:3;stroke-linecap:round;stroke-linejoin:round;stroke-miterlimit:10;}
	.st13{fill:#FDA300;stroke:#20334A;stroke-width:3;stroke-linecap:round;stroke-linejoin:round;stroke-miterlimit:10;}
	.st14{fill:#2866AD;stroke:#20334A;stroke-width:3;stroke-linecap:round;stroke-linejoin:round;}
	.st15{fill:#F1A019;}
	.st16{fill:#20334A;}
	.st17{fill:#F3F0F0;}
	.st18{fill:#F5A015;}
	.st19{fill:#72C6D3;}
	.st20{fill:#E8521A;stroke:#20334A;stroke-width:3;stroke-miterlimit:10;}
	.st21{fill:#04A239;stroke:#20334A;stroke-width:3;stroke-linecap:round;stroke-linejoin:round;stroke-miterlimit:10;}
	.st22{fill:none;stroke:#20334A;stroke-width:3;stroke-linecap:round;stroke-miterlimit:10;}
	.st23{fill:none;stroke:#20334A;stroke-width:3;stroke-miterlimit:10;}
	.st24{fill:#FDB128;}
	.st25{fill:none;stroke:#1F344B;stroke-width:3;stroke-miterlimit:10;}
	.st26{fill:#6DCDD9;stroke:#20334A;stroke-width:3;stroke-linecap:round;stroke-linejoin:round;stroke-miterlimit:10;}
	.st27{fill:#F95000;stroke:#20334A;stroke-width:3;stroke-linecap:round;stroke-linejoin:round;stroke-miterlimit:10;}
	.st28{fill:#A7CCC3;}
	.st29{fill:#AAB5C7;stroke:#20334A;stroke-width:3;stroke-linecap:round;stroke-miterlimit:10;}
	.st30{fill:#22B573;stroke:#20334A;stroke-width:3;stroke-linecap:round;stroke-linejoin:round;stroke-miterlimit:10;}
	.st31{fill:#F2F2F2;stroke:#20334A;stroke-width:3;stroke-miterlimit:10;}
</style>
<circle class="st0" cx="110" cy="110" r="100"/>
<g>
	<g id="XMLID_4_">
		<g>
			<path class="st3" d="M164.37,70.01c0.94,2.59,1.42,5.34,1.42,8.11c0,13.19-10.73,23.91-23.91,23.91c-2.84,0-5.63-0.5-8.28-1.47
				c-0.3-0.11-0.61-0.17-0.92-0.17c-0.69,0-1.37,0.27-1.88,0.78l-29.63,29.64c-0.73,0.73-0.97,1.82-0.62,2.8
				c0.98,2.65,1.48,5.43,1.48,8.27c0,13.19-10.73,23.91-23.91,23.91c-2.77,0-5.52-0.48-8.11-1.41l12.69-12.69
				c1.04-1.04,1.04-2.72,0-3.75L72.07,137.3c-0.52-0.52-1.19-0.78-1.88-0.78c-0.68,0-1.36,0.26-1.88,0.78l-12.69,12.69
				c-0.93-2.59-1.41-5.33-1.41-8.11c0-13.18,10.72-23.91,23.91-23.91c2.84,0,5.63,0.5,8.27,1.48c0.3,0.11,0.61,0.17,0.92,0.17
				c0.69,0,1.37-0.28,1.88-0.78l29.63-29.63c0.73-0.73,0.97-1.83,0.61-2.8c-0.97-2.65-1.47-5.43-1.47-8.28
				c0-13.18,10.72-23.91,23.91-23.91c2.77,0,5.52,0.48,8.11,1.42l-12.6,12.6c-1.04,1.04-1.04,2.72,0,3.76l10.63,10.63
				c0.52,0.52,1.2,0.78,1.88,0.78c0.68,0,1.36-0.26,1.88-0.78L164.37,70.01z"/>
		</g>
		<g>
			<path class="st4" d="M78.12,165.79c-2.77,0-5.52-0.48-8.11-1.41l12.69-12.69c1.04-1.04,1.04-2.72,0-3.75L72.07,137.3
				c-0.52-0.52-1.19-0.78-1.88-0.78c-0.68,0-1.36,0.26-1.88,0.78l-12.69,12.69c-0.93-2.59-1.41-5.33-1.41-8.11
				c0-13.18,10.72-23.91,23.91-23.91c2.84,0,5.63,0.5,8.27,1.48c0.3,0.11,0.61,0.17,0.92,0.17c0.69,0,1.37-0.28,1.88-0.78
				l29.63-29.63c0.73-0.73,0.97-1.83,0.61-2.8c-0.97-2.65-1.47-5.43-1.47-8.28c0-13.18,10.72-23.91,23.91-23.91
				c2.77,0,5.52,0.48,8.11,1.42l-12.6,12.6c-1.04,1.04-1.04,2.72,0,3.76l10.63,10.63c0.52,0.52,1.2,0.78,1.88,0.78
				c0.68,0,1.36-0.26,1.88-0.78l12.6-12.6c0.94,2.59,1.42,5.34,1.42,8.11c0,13.19-10.73,23.91-23.91,23.91
				c-2.84,0-5.63-0.5-8.28-1.47c-0.3-0.11-0.61-0.17-0.92-0.17c-0.69,0-1.37,0.27-1.88,0.78l-29.63,29.64
				c-0.73,0.73-0.97,1.82-0.62,2.8c0.98,2.65,1.48,5.43,1.48,8.27C102.03,155.06,91.3,165.79,78.12,165.79z"/>
			<line class="st5" x1="102.16" y1="73.97" x2="100.33" y2="66.22"/>
			<line class="st5" x1="84.96" y1="83.24" x2="79.5" y2="77.45"/>
			<line class="st5" x1="74.7" y1="99.88" x2="67.07" y2="97.59"/>
			<line class="st5" x1="117.83" y1="145.61" x2="119.67" y2="153.35"/>
			<line class="st5" x1="135.04" y1="136.33" x2="140.5" y2="142.13"/>
			<line class="st5" x1="145.3" y1="119.7" x2="152.93" y2="121.98"/>
		</g>
	</g>
</g>
</svg>
