<?xml version="1.0" encoding="utf-8"?>
<!-- Generator: Adobe Illustrator 24.1.1, SVG Export Plug-In . SVG Version: 6.00 Build 0)  -->
<svg version="1.1" id="Camada_1" xmlns="http://www.w3.org/2000/svg" xmlns:xlink="http://www.w3.org/1999/xlink" x="0px" y="0px"
	 viewBox="0 0 220 220" style="enable-background:new 0 0 220 220;" xml:space="preserve">
<style type="text/css">
	.st0{fill:#FFFFFF;stroke:#DEDEDE;stroke-width:7;stroke-linecap:round;stroke-linejoin:round;stroke-miterlimit:10;}
	.st1{fill:#FFFFFF;}
	.st2{fill:#282826;}
	.st3{fill:#AAB5C7;}
	.st4{fill:none;stroke:#20334A;stroke-width:3;stroke-linecap:round;stroke-linejoin:round;stroke-miterlimit:10;}
	.st5{fill:none;stroke:#20334A;stroke-width:3;stroke-linecap:round;stroke-linejoin:round;}
	.st6{fill:#D8D5D5;}
	.st7{fill:#2866AD;}
	.st8{fill:#FDA300;}
	.st9{fill:#6DCDD9;}
	.st10{fill:#F95000;}
	.st11{fill:#D8D5D5;stroke:#20334A;stroke-width:3;stroke-linecap:round;stroke-linejoin:round;stroke-miterlimit:10;}
	.st12{fill:#FFFFFF;stroke:#20334A;stroke-width:3;stroke-linecap:round;stroke-linejoin:round;stroke-miterlimit:10;}
	.st13{fill:#FDA300;stroke:#20334A;stroke-width:3;stroke-linecap:round;stroke-linejoin:round;stroke-miterlimit:10;}
	.st14{fill:#2866AD;stroke:#20334A;stroke-width:3;stroke-linecap:round;stroke-linejoin:round;}
	.st15{fill:#F1A019;}
	.st16{fill:#20334A;}
	.st17{fill:#F3F0F0;}
	.st18{fill:#F5A015;}
	.st19{fill:#72C6D3;}
	.st20{fill:#E8521A;stroke:#20334A;stroke-width:3;stroke-miterlimit:10;}
	.st21{fill:#04A239;stroke:#20334A;stroke-width:3;stroke-linecap:round;stroke-linejoin:round;stroke-miterlimit:10;}
	.st22{fill:none;stroke:#20334A;stroke-width:3;stroke-linecap:round;stroke-miterlimit:10;}
	.st23{fill:none;stroke:#20334A;stroke-width:3;stroke-miterlimit:10;}
	.st24{fill:#FDB128;}
	.st25{fill:none;stroke:#1F344B;stroke-width:3;stroke-miterlimit:10;}
	.st26{fill:#6DCDD9;stroke:#20334A;stroke-width:3;stroke-linecap:round;stroke-linejoin:round;stroke-miterlimit:10;}
	.st27{fill:#F95000;stroke:#20334A;stroke-width:3;stroke-linecap:round;stroke-linejoin:round;stroke-miterlimit:10;}
	.st28{fill:#A7CCC3;}
	.st29{fill:#AAB5C7;stroke:#20334A;stroke-width:3;stroke-linecap:round;stroke-miterlimit:10;}
	.st30{fill:#22B573;stroke:#20334A;stroke-width:3;stroke-linecap:round;stroke-linejoin:round;stroke-miterlimit:10;}
	.st31{fill:#F2F2F2;stroke:#20334A;stroke-width:3;stroke-miterlimit:10;}
</style>
<circle class="st0" cx="110" cy="110" r="100"/>
<g>
	<path class="st11" d="M152.57,101.42H67.43c-5.52,0-10-4.48-10-10V73.35c0-5.52,4.48-10,10-10h85.15c5.52,0,10,4.48,10,10v18.07
		C162.57,96.94,158.1,101.42,152.57,101.42z"/>
	<path class="st12" d="M156.55,86.57h-6.96H70.4h-6.96h-6.02v6.02v6.61v62.7c0,3.33,2.7,6.02,6.02,6.02h93.11
		c3.33,0,6.02-2.7,6.02-6.02V99.2v-6.61v-6.02H156.55z"/>
	<g>
		<g>
			<path class="st13" d="M85.63,120.67H73.14c-1.1,0-2-0.9-2-2v-12.49c0-1.1,0.9-2,2-2h12.49c1.1,0,2,0.9,2,2v12.49
				C87.63,119.78,86.74,120.67,85.63,120.67z"/>
			<path class="st13" d="M116.24,120.67h-12.49c-1.1,0-2-0.9-2-2v-12.49c0-1.1,0.9-2,2-2h12.49c1.1,0,2,0.9,2,2v12.49
				C118.24,119.78,117.35,120.67,116.24,120.67z"/>
			<path class="st13" d="M146.86,120.67h-12.49c-1.1,0-2-0.9-2-2v-12.49c0-1.1,0.9-2,2-2h12.49c1.1,0,2,0.9,2,2v12.49
				C148.86,119.78,147.96,120.67,146.86,120.67z"/>
		</g>
		<g>
			<path class="st13" d="M85.63,150.3H73.14c-1.1,0-2-0.9-2-2v-12.49c0-1.1,0.9-2,2-2h12.49c1.1,0,2,0.9,2,2v12.49
				C87.63,149.41,86.74,150.3,85.63,150.3z"/>
			<path class="st13" d="M116.24,150.3h-12.49c-1.1,0-2-0.9-2-2v-12.49c0-1.1,0.9-2,2-2h12.49c1.1,0,2,0.9,2,2v12.49
				C118.24,149.41,117.35,150.3,116.24,150.3z"/>
			<path class="st13" d="M146.86,150.3h-12.49c-1.1,0-2-0.9-2-2v-12.49c0-1.1,0.9-2,2-2h12.49c1.1,0,2,0.9,2,2v12.49
				C148.86,149.41,147.96,150.3,146.86,150.3z"/>
		</g>
	</g>
	<g>
		<path class="st14" d="M83.33,72.99h-9.42c-1.1,0-2-0.9-2-2V54.08c0-1.1,0.9-2,2-2h9.42c1.1,0,2,0.9,2,2v16.91
			C85.33,72.09,84.43,72.99,83.33,72.99z"/>
		<path class="st14" d="M146.09,72.99h-9.42c-1.1,0-2-0.9-2-2V54.08c0-1.1,0.9-2,2-2h9.42c1.1,0,2,0.9,2,2v16.91
			C148.09,72.09,147.19,72.99,146.09,72.99z"/>
	</g>
</g>
</svg>
