<?xml version="1.0" encoding="utf-8"?>
<!-- Generator: Adobe Illustrator 24.1.2, SVG Export Plug-In . SVG Version: 6.00 Build 0)  -->
<svg version="1.1" id="Camada_1" xmlns="http://www.w3.org/2000/svg" xmlns:xlink="http://www.w3.org/1999/xlink" x="0px" y="0px"
	 viewBox="0 0 279 244" style="enable-background:new 0 0 279 244;" xml:space="preserve">
<style type="text/css">
	.st0{fill:#21344A;}
	.st1{fill:#FFFFFF;}
	.st2{fill:#FDA300;stroke:#20334A;stroke-width:10;stroke-miterlimit:10;}
	.st3{fill:#20334A;}
	.st4{fill:#73CBE0;}
	.st5{fill:#FFFFFF;stroke:#DEDEDE;stroke-width:7;stroke-linecap:round;stroke-linejoin:round;stroke-miterlimit:10;}
	.st6{fill:#282826;}
	.st7{fill:#AAB5C7;}
	.st8{fill:none;stroke:#20334A;stroke-width:3;stroke-linecap:round;stroke-linejoin:round;stroke-miterlimit:10;}
	.st9{fill:none;stroke:#20334A;stroke-width:3;stroke-linecap:round;stroke-linejoin:round;}
	.st10{fill:#D8D5D5;}
	.st11{fill:#2866AD;}
	.st12{fill:#FDA300;}
	.st13{fill:#6DCDD9;}
	.st14{fill:#F95000;}
	.st15{fill:#D8D5D5;stroke:#20334A;stroke-width:3;stroke-linecap:round;stroke-linejoin:round;stroke-miterlimit:10;}
	.st16{fill:#FFFFFF;stroke:#20334A;stroke-width:3;stroke-linecap:round;stroke-linejoin:round;stroke-miterlimit:10;}
	.st17{fill:#FDA300;stroke:#20334A;stroke-width:3;stroke-linecap:round;stroke-linejoin:round;stroke-miterlimit:10;}
	.st18{fill:#2866AD;stroke:#20334A;stroke-width:3;stroke-linecap:round;stroke-linejoin:round;}
	.st19{fill:#FFA727;}
	.st20{fill:#F3F0F0;}
	.st21{fill:#F5A015;}
	.st22{fill:#72C6D3;}
	.st23{fill:#41AA7D;}
	.st24{fill:#FFFFFF;stroke:#20334A;stroke-width:3;stroke-miterlimit:10;}
	.st25{fill:#41AA7D;stroke:#20334A;stroke-width:3;stroke-linecap:round;stroke-linejoin:round;stroke-miterlimit:10;}
	.st26{fill:none;stroke:#20334A;stroke-width:3;stroke-linecap:round;stroke-miterlimit:10;}
	.st27{fill:none;stroke:#20334A;stroke-width:3;stroke-miterlimit:10;}
	.st28{fill:none;stroke:#1F344B;stroke-width:3;stroke-miterlimit:10;}
	.st29{fill:#A7CCC3;}
	.st30{fill:#41AA7D;stroke:#20334A;stroke-width:3;stroke-linecap:round;stroke-miterlimit:10;}
	.st31{fill:#AAB5C7;stroke:#20334A;stroke-width:3;stroke-linecap:round;stroke-miterlimit:10;}
	.st32{fill:#E8521A;stroke:#20334A;stroke-width:3;stroke-miterlimit:10;}
	.st33{fill:#04A239;stroke:#20334A;stroke-width:3;stroke-linecap:round;stroke-linejoin:round;stroke-miterlimit:10;}
	.st34{fill:#FDB128;}
	.st35{fill:#6DCDD9;stroke:#20334A;stroke-width:3;stroke-linecap:round;stroke-linejoin:round;stroke-miterlimit:10;}
	.st36{fill:#F95000;stroke:#20334A;stroke-width:3;stroke-linecap:round;stroke-linejoin:round;stroke-miterlimit:10;}
	.st37{fill:#336CAF;stroke:#20334A;stroke-width:3;stroke-linecap:round;stroke-linejoin:round;stroke-miterlimit:10;}
	.st38{fill:#336CAF;}
	.st39{fill:#22B573;stroke:#20334A;stroke-width:3;stroke-linecap:round;stroke-linejoin:round;stroke-miterlimit:10;}
	.st40{fill:#F2F2F2;stroke:#20334A;stroke-width:3;stroke-miterlimit:10;}
	.st41{fill:#C9C9C9;}
	.st42{fill:#22344A;}
	.st43{fill:#2A66AE;}
	.st44{fill:#138897;}
	.st45{fill:none;stroke:#22344A;stroke-width:5;stroke-miterlimit:10;}
	.st46{fill:none;stroke:#22344A;stroke-width:4;stroke-miterlimit:10;}
	.st47{fill:none;stroke:#22344A;stroke-width:5;stroke-linecap:round;stroke-linejoin:round;stroke-miterlimit:10;}
	.st48{fill:#F6A217;}
	.st49{fill:#F2BF59;}
	.st50{fill:#BBBA57;}
	.st51{fill:#42A873;}
	.st52{fill:#FA6450;}
	.st53{fill:#EB615C;}
	.st54{fill:#9751CE;}
	.st55{fill:#A88FCC;}
	.st56{fill:#6786E8;}
	.st57{fill:#95D861;}
	.st58{fill:#1E1E4D;}
	.st59{fill:#78CECA;}
	.st60{fill:#E73C1F;}
	.st61{fill:#61B5BC;}
	.st62{fill:#6ECCD9;}
	.st63{clip-path:url(#SVGID_2_);fill:#6ECCD9;}
	.st64{clip-path:url(#SVGID_4_);fill:#F59E26;}
	.st65{clip-path:url(#SVGID_6_);fill:#40AB91;}
	.st66{clip-path:url(#SVGID_8_);fill:#F57333;}
	.st67{clip-path:url(#SVGID_10_);fill:#12293B;}
	.st68{fill:#A5CBC1;}
	.st69{fill:#8481A3;}
	.st70{fill:#FFFFFF;stroke:#20334A;stroke-width:10;stroke-miterlimit:10;}
	.st71{fill:none;stroke:#F3F0F0;stroke-width:4;stroke-linecap:square;stroke-linejoin:round;stroke-miterlimit:10;}
	.st72{fill:#FFFFFF;stroke:#000000;stroke-width:6;stroke-linecap:round;stroke-linejoin:round;}
	.st73{fill:#E73C1F;stroke:#000000;stroke-width:6;stroke-miterlimit:10;}
	.st74{fill:#40AB91;}
	.st75{fill:#FFFFFF;stroke:#FFFFFF;stroke-miterlimit:10;}
	.st76{fill:#FFFFFF;stroke:#20334A;stroke-width:6;stroke-linecap:round;stroke-linejoin:round;}
	.st77{fill:#E73C1F;stroke:#20334A;stroke-width:6;stroke-miterlimit:10;}
	.st78{fill:none;stroke:#20334A;stroke-width:10;stroke-miterlimit:10;}
	.st79{fill:#677080;}
	.st80{fill:#11293B;}
	.st81{fill:#5D89C4;}
	.st82{fill:#FDA400;}
	.st83{fill:#3E4F6B;}
	.st84{fill:#FFA21A;}
	.st85{fill:#BDBD54;}
	.st86{fill:none;stroke:#FFFFFF;stroke-width:3;stroke-linecap:round;stroke-linejoin:round;}
	.st87{fill:none;stroke:#FFFFFF;stroke-width:3;stroke-miterlimit:10;}
	.st88{fill:none;stroke:#FFFFFF;stroke-width:2;stroke-linecap:round;stroke-linejoin:round;stroke-miterlimit:10;}
</style>
<rect x="-15" y="-36" class="st0" width="336" height="314"/>
<path class="st86" d="M181.07,194.38c0,0,4.83-37.76,19.33-43.15c14.5-5.39-79.95-6.78-79.95-6.78
	c-18.45,13.11-20.1,49.96-20.1,49.96"/>
<rect x="177.73" y="179.72" class="st0" width="12.6" height="9.96"/>
<rect x="93.07" y="180.83" class="st0" width="10.93" height="7.17"/>
<g>
	<path class="st1" d="M162.8,74.27c2.63,0.83,4.09,3.63,3.26,6.27c-0.82,2.63-3.63,4.1-6.27,3.27c-2.63-0.83-4.09-3.64-3.26-6.27
		C157.36,74.9,160.16,73.44,162.8,74.27z"/>
	<path class="st1" d="M121.96,71.9c2.63,0.83,4.09,3.63,3.27,6.27c-0.83,2.63-3.64,4.1-6.27,3.27c-2.64-0.83-4.1-3.64-3.27-6.27
		C116.52,72.53,119.32,71.07,121.96,71.9z"/>
</g>
<path class="st87" d="M191.12,56.86c0,11.95-4.16,22.92-11.14,31.54c-9.2,11.41-23.3,18.71-39.11,18.71
	c-27.76,0-50.25-22.49-50.25-50.25c0-27.75,22.49-50.25,50.25-50.25C168.62,6.61,191.12,29.11,191.12,56.86z"/>
<circle class="st88" cx="126.1" cy="91.41" r="7.38"/>
<circle class="st88" cx="153.17" cy="92.58" r="7.38"/>
<path class="st88" d="M133.48,91.41c0,0,6.97-3.98,12.32,1.16"/>
<path class="st86" d="M48.67,152.25c16.15,10.46,23.27,37.84,31.96,34.28c8.69-3.56,19.04-10.14,23.76-4.76s-11.81,9.68-7.34,11.91
	c0,0,7.89,3.47,20.36-3.98c0,0,3.73-2.06,6.13,0.67c2.24,2.55,0.71,4.6-0.81,5.93c-1.52,1.32-6.46,6.34-15.92,7.52"/>
<path class="st86" d="M114.32,201.85c4.54-1.27,10.56-4.18,12.88-2.04c1.66,1.53,1.73,4.78-1.95,7.06c-4.85,3-8.43,4.76-17.35,6.01"
	/>
<path class="st86" d="M118.1,210.53c2.03-0.65,10.16-5.13,10.44,0.61c0.3,6.01-23.72,9.13-32.07,9.8
	c-35.73,2.88-103.86-19.46-86.49-69.45C31.9,88.4,95.58,81.4,95.58,81.4"/>
<path class="st86" d="M232.52,152.25c-16.15,10.46-23.27,37.84-31.96,34.28c-8.69-3.56-19.04-10.14-23.76-4.76
	c-4.72,5.38,11.81,9.68,7.34,11.91c0,0-7.89,3.47-20.36-3.98c0,0-3.73-2.06-6.13,0.67c-2.24,2.55-0.71,4.6,0.81,5.93
	c1.52,1.32,6.46,6.34,15.92,7.52"/>
<path class="st86" d="M166.88,201.85c-4.54-1.27-10.56-4.18-12.88-2.04c-1.66,1.53-1.73,4.78,1.95,7.06c4.85,3,8.43,4.76,17.35,6.01
	"/>
<path class="st86" d="M163.09,210.53c-2.03-0.65-10.16-5.13-10.44,0.61c-0.3,6.01,23.72,9.13,32.07,9.8
	c35.73,2.88,103.86-19.46,86.49-69.45c-21.91-63.09-85.6-70.08-85.6-70.08"/>
<path class="st86" d="M96.47,220.93c0,0-1.2,9.66-0.7,14.34s68.88-1.03,79.05,1.64c1.67,0.39,2.61-10.47,2.91-16.73"/>
</svg>
