<?xml version="1.0" encoding="utf-8"?>
<!-- Generator: Adobe Illustrator 24.1.1, SVG Export Plug-In . SVG Version: 6.00 Build 0)  -->
<svg version="1.1" id="Camada_1" xmlns="http://www.w3.org/2000/svg" xmlns:xlink="http://www.w3.org/1999/xlink" x="0px" y="0px"
	 viewBox="0 0 261.06 261.06" style="enable-background:new 0 0 261.06 261.06;" xml:space="preserve">
<style type="text/css">
	.st0{fill:#FFFFFF;}
	.st1{fill:#282826;}
	.st2{fill:none;stroke:#20334A;stroke-width:3;stroke-linecap:round;stroke-linejoin:round;stroke-miterlimit:10;}
	.st3{fill:#AAB5C7;}
	.st4{fill:none;stroke:#20334A;stroke-width:3;stroke-linecap:round;stroke-linejoin:round;}
	.st5{fill:#FFFFFF;stroke:#DEDEDE;stroke-width:7;stroke-linecap:round;stroke-linejoin:round;stroke-miterlimit:10;}
	.st6{fill:#D8D5D5;}
	.st7{fill:#2866AD;}
	.st8{fill:#FDA300;}
	.st9{fill:#6DCDD9;}
	.st10{fill:#F95000;}
	.st11{fill:#D8D5D5;stroke:#20334A;stroke-width:3;stroke-linecap:round;stroke-linejoin:round;stroke-miterlimit:10;}
	.st12{fill:#FFFFFF;stroke:#20334A;stroke-width:3;stroke-linecap:round;stroke-linejoin:round;stroke-miterlimit:10;}
	.st13{fill:#FDA300;stroke:#20334A;stroke-width:3;stroke-linecap:round;stroke-linejoin:round;stroke-miterlimit:10;}
	.st14{fill:#2866AD;stroke:#20334A;stroke-width:3;stroke-linecap:round;stroke-linejoin:round;}
	.st15{fill:#F1A019;}
	.st16{fill:#20334A;}
	.st17{fill:#F3F0F0;}
	.st18{fill:#F5A015;}
	.st19{fill:#72C6D3;}
	.st20{fill:#E8521A;stroke:#20334A;stroke-width:3;stroke-miterlimit:10;}
	.st21{fill:#04A239;stroke:#20334A;stroke-width:3;stroke-linecap:round;stroke-linejoin:round;stroke-miterlimit:10;}
	.st22{fill:none;stroke:#20334A;stroke-width:3;stroke-linecap:round;stroke-miterlimit:10;}
	.st23{fill:none;stroke:#20334A;stroke-width:3;stroke-miterlimit:10;}
	.st24{fill:#FDB128;}
	.st25{fill:none;stroke:#1F344B;stroke-width:3;stroke-miterlimit:10;}
	.st26{fill:#6DCDD9;stroke:#20334A;stroke-width:3;stroke-linecap:round;stroke-linejoin:round;stroke-miterlimit:10;}
	.st27{fill:#F95000;stroke:#20334A;stroke-width:3;stroke-linecap:round;stroke-linejoin:round;stroke-miterlimit:10;}
	.st28{fill:#A7CCC3;}
	.st29{fill:#AAB5C7;stroke:#20334A;stroke-width:3;stroke-linecap:round;stroke-miterlimit:10;}
	.st30{fill:#22B573;stroke:#1D9660;stroke-width:3;stroke-miterlimit:10;}
</style>
<circle class="st0" cx="130.12" cy="132.12" r="125.5"/>
<circle class="st5" cx="130.12" cy="132.12" r="100"/>
<g>
	<path class="st11" d="M182.69,95.47v13.22H77.55V95.47c0-5.52,4.47-10,10-10h85.14C178.22,85.47,182.69,89.95,182.69,95.47z"/>
	<path class="st2" d="M182.69,108.69v75.33c0,3.32-2.69,6.02-6.02,6.02h-93.1c-3.33,0-6.02-2.7-6.02-6.02v-75.33H182.69z"/>
	<g>
		<g>
			<path class="st13" d="M105.75,142.79H93.26c-1.1,0-2-0.9-2-2V128.3c0-1.1,0.9-2,2-2h12.49c1.1,0,2,0.9,2,2v12.49
				C107.75,141.89,106.85,142.79,105.75,142.79z"/>
			<path class="st13" d="M136.36,142.79h-12.49c-1.1,0-2-0.9-2-2V128.3c0-1.1,0.9-2,2-2h12.49c1.1,0,2,0.9,2,2v12.49
				C138.36,141.89,137.47,142.79,136.36,142.79z"/>
			<path class="st13" d="M166.97,142.79h-12.49c-1.1,0-2-0.9-2-2V128.3c0-1.1,0.9-2,2-2h12.49c1.1,0,2,0.9,2,2v12.49
				C168.97,141.89,168.08,142.79,166.97,142.79z"/>
		</g>
		<g>
			<path class="st13" d="M105.75,172.42H93.26c-1.1,0-2-0.9-2-2v-12.49c0-1.1,0.9-2,2-2h12.49c1.1,0,2,0.9,2,2v12.49
				C107.75,171.52,106.85,172.42,105.75,172.42z"/>
			<path class="st13" d="M136.36,172.42h-12.49c-1.1,0-2-0.9-2-2v-12.49c0-1.1,0.9-2,2-2h12.49c1.1,0,2,0.9,2,2v12.49
				C138.36,171.52,137.47,172.42,136.36,172.42z"/>
			<path class="st13" d="M166.97,172.42h-12.49c-1.1,0-2-0.9-2-2v-12.49c0-1.1,0.9-2,2-2h12.49c1.1,0,2,0.9,2,2v12.49
				C168.97,171.52,168.08,172.42,166.97,172.42z"/>
		</g>
	</g>
	<g>
		<path class="st14" d="M103.44,95.11h-9.42c-1.1,0-2-0.9-2-2V76.2c0-1.1,0.9-2,2-2h9.42c1.1,0,2,0.9,2,2v16.91
			C105.44,94.21,104.55,95.11,103.44,95.11z"/>
		<path class="st14" d="M166.2,95.11h-9.42c-1.1,0-2-0.9-2-2V76.2c0-1.1,0.9-2,2-2h9.42c1.1,0,2,0.9,2,2v16.91
			C168.2,94.21,167.31,95.11,166.2,95.11z"/>
	</g>
</g>
</svg>
