<?xml version="1.0" encoding="utf-8"?>
<!-- Generator: Adobe Illustrator 24.1.1, SVG Export Plug-In . SVG Version: 6.00 Build 0)  -->
<svg version="1.1" id="Camada_1" xmlns="http://www.w3.org/2000/svg" xmlns:xlink="http://www.w3.org/1999/xlink" x="0px" y="0px"
	 viewBox="0 0 254.72 254.72" style="enable-background:new 0 0 254.72 254.72;" xml:space="preserve">
<style type="text/css">
	.st0{fill:#FFFFFF;}
	.st1{fill:#282826;}
	.st2{fill:none;stroke:#20334A;stroke-width:3;stroke-linecap:round;stroke-linejoin:round;stroke-miterlimit:10;}
	.st3{fill:#AAB5C7;}
	.st4{fill:none;stroke:#20334A;stroke-width:3;stroke-linecap:round;stroke-linejoin:round;}
	.st5{fill:#FFFFFF;stroke:#DEDEDE;stroke-width:7;stroke-linecap:round;stroke-linejoin:round;stroke-miterlimit:10;}
	.st6{fill:#D8D5D5;}
	.st7{fill:#2866AD;}
	.st8{fill:#FDA300;}
	.st9{fill:#6DCDD9;}
	.st10{fill:#F95000;}
	.st11{fill:#D8D5D5;stroke:#20334A;stroke-width:3;stroke-linecap:round;stroke-linejoin:round;stroke-miterlimit:10;}
	.st12{fill:#FFFFFF;stroke:#20334A;stroke-width:3;stroke-linecap:round;stroke-linejoin:round;stroke-miterlimit:10;}
	.st13{fill:#FDA300;stroke:#20334A;stroke-width:3;stroke-linecap:round;stroke-linejoin:round;stroke-miterlimit:10;}
	.st14{fill:#2866AD;stroke:#20334A;stroke-width:3;stroke-linecap:round;stroke-linejoin:round;}
	.st15{fill:#F1A019;}
	.st16{fill:#20334A;}
	.st17{fill:#F3F0F0;}
	.st18{fill:#F5A015;}
	.st19{fill:#72C6D3;}
	.st20{fill:#E8521A;stroke:#20334A;stroke-width:3;stroke-miterlimit:10;}
	.st21{fill:#04A239;stroke:#20334A;stroke-width:3;stroke-linecap:round;stroke-linejoin:round;stroke-miterlimit:10;}
	.st22{fill:none;stroke:#20334A;stroke-width:3;stroke-linecap:round;stroke-miterlimit:10;}
	.st23{fill:none;stroke:#20334A;stroke-width:3;stroke-miterlimit:10;}
	.st24{fill:#FDB128;}
	.st25{fill:none;stroke:#1F344B;stroke-width:3;stroke-miterlimit:10;}
	.st26{fill:#6DCDD9;stroke:#20334A;stroke-width:3;stroke-linecap:round;stroke-linejoin:round;stroke-miterlimit:10;}
	.st27{fill:#F95000;stroke:#20334A;stroke-width:3;stroke-linecap:round;stroke-linejoin:round;stroke-miterlimit:10;}
	.st28{fill:#A7CCC3;}
	.st29{fill:#AAB5C7;stroke:#20334A;stroke-width:3;stroke-linecap:round;stroke-miterlimit:10;}
	.st30{fill:#22B573;stroke:#1D9660;stroke-width:3;stroke-miterlimit:10;}
</style>
<circle class="st0" cx="126.95" cy="128.95" r="125.5"/>
<circle class="st5" cx="126.95" cy="128.95" r="100"/>
<g>
	<path class="st30" d="M135.08,149.39c0-3.21-0.66-5.75-1.98-7.61c-1.32-1.86-3.48-3.6-6.51-5.23c-5.92-2.63-10.31-5.16-13.16-7.58
		c-2.85-2.42-4.97-5.19-6.36-8.31c-1.39-3.12-2.09-6.83-2.09-11.12c0-6.43,1.78-11.74,5.34-15.94c3.56-4.2,8.27-6.69,14.11-7.46
		V73.71h8.77v12.66c5.81,1.12,10.33,4.07,13.56,8.83c3.23,4.76,4.85,10.8,4.85,18.12h-16.44c0-4.65-0.67-8.11-2-10.4
		c-1.34-2.28-3.07-3.43-5.2-3.43c-2.05,0-3.66,0.89-4.82,2.67c-1.16,1.78-1.74,4.26-1.74,7.43c0,2.75,0.6,5.03,1.8,6.85
		c1.2,1.82,3.48,3.72,6.85,5.69c6.19,2.94,10.66,5.63,13.39,8.04c2.73,2.42,4.75,5.16,6.07,8.22c1.32,3.06,1.97,6.68,1.97,10.86
		c0,6.54-1.73,11.87-5.2,15.97c-3.47,4.1-8.26,6.56-14.38,7.38v11.56h-8.71v-11.56c-6.7-0.97-11.87-3.82-15.51-8.57
		c-3.64-4.74-5.46-11.07-5.46-18.96h16.44c0,4.57,0.74,8.08,2.21,10.54c1.47,2.46,3.68,3.69,6.62,3.69c2.36,0,4.21-0.88,5.55-2.64
		C134.41,154.92,135.08,152.49,135.08,149.39z"/>
</g>
</svg>
