<?xml version="1.0" encoding="utf-8"?>
<!-- Generator: Adobe Illustrator 24.1.1, SVG Export Plug-In . SVG Version: 6.00 Build 0)  -->
<svg version="1.1" id="Camada_1" xmlns="http://www.w3.org/2000/svg" xmlns:xlink="http://www.w3.org/1999/xlink" x="0px" y="0px"
	 viewBox="0 0 262.89 262.89" style="enable-background:new 0 0 262.89 262.89;" xml:space="preserve">
<style type="text/css">
	.st0{fill:#FFFFFF;}
	.st1{fill:#282826;}
	.st2{fill:none;stroke:#20334A;stroke-width:3;stroke-linecap:round;stroke-linejoin:round;stroke-miterlimit:10;}
	.st3{fill:#AAB5C7;}
	.st4{fill:none;stroke:#20334A;stroke-width:3;stroke-linecap:round;stroke-linejoin:round;}
	.st5{fill:#FFFFFF;stroke:#DEDEDE;stroke-width:7;stroke-linecap:round;stroke-linejoin:round;stroke-miterlimit:10;}
	.st6{fill:#D8D5D5;}
	.st7{fill:#2866AD;}
	.st8{fill:#FDA300;}
	.st9{fill:#6DCDD9;}
	.st10{fill:#F95000;}
	.st11{fill:#D8D5D5;stroke:#20334A;stroke-width:3;stroke-linecap:round;stroke-linejoin:round;stroke-miterlimit:10;}
	.st12{fill:#FFFFFF;stroke:#20334A;stroke-width:3;stroke-linecap:round;stroke-linejoin:round;stroke-miterlimit:10;}
	.st13{fill:#FDA300;stroke:#20334A;stroke-width:3;stroke-linecap:round;stroke-linejoin:round;stroke-miterlimit:10;}
	.st14{fill:#2866AD;stroke:#20334A;stroke-width:3;stroke-linecap:round;stroke-linejoin:round;}
	.st15{fill:#F1A019;}
	.st16{fill:#20334A;}
	.st17{fill:#F3F0F0;}
	.st18{fill:#F5A015;}
	.st19{fill:#72C6D3;}
	.st20{fill:#E8521A;stroke:#20334A;stroke-width:3;stroke-miterlimit:10;}
	.st21{fill:#04A239;stroke:#20334A;stroke-width:3;stroke-linecap:round;stroke-linejoin:round;stroke-miterlimit:10;}
	.st22{fill:none;stroke:#20334A;stroke-width:3;stroke-linecap:round;stroke-miterlimit:10;}
	.st23{fill:none;stroke:#20334A;stroke-width:3;stroke-miterlimit:10;}
	.st24{fill:#FDB128;}
	.st25{fill:none;stroke:#1F344B;stroke-width:3;stroke-miterlimit:10;}
	.st26{fill:#6DCDD9;stroke:#20334A;stroke-width:3;stroke-linecap:round;stroke-linejoin:round;stroke-miterlimit:10;}
	.st27{fill:#F95000;stroke:#20334A;stroke-width:3;stroke-linecap:round;stroke-linejoin:round;stroke-miterlimit:10;}
	.st28{fill:#A7CCC3;}
	.st29{fill:#AAB5C7;stroke:#20334A;stroke-width:3;stroke-linecap:round;stroke-miterlimit:10;}
	.st30{fill:#22B573;stroke:#1D9660;stroke-width:3;stroke-miterlimit:10;}
</style>
<circle class="st0" cx="131.03" cy="133.03" r="125.5"/>
<circle class="st5" cx="131.03" cy="133.03" r="100"/>
<g id="XMLID_67_">
	<g>
		<path class="st3" d="M131.03,117.88c-8.37,0-15.16,6.79-15.16,15.16c0,8.37,6.79,15.16,15.16,15.16c8.37,0,15.16-6.78,15.16-15.16
			C146.18,124.66,139.4,117.88,131.03,117.88z M86.33,103.2l12.3,5.1c2.21-2.88,4.79-5.47,7.67-7.67l-5.1-12.3
			c2.86-1.91,5.96-3.57,9.27-4.94c3.3-1.37,6.67-2.38,10.04-3.06l5.1,12.3c1.77-0.24,3.58-0.36,5.42-0.36
			c1.84,0,3.65,0.12,5.42,0.36l5.1-12.3c6.89,1.38,13.46,4.1,19.31,8l-5.1,12.3c2.88,2.21,5.47,4.79,7.67,7.67l12.3-5.1
			c1.91,2.86,3.57,5.96,4.94,9.27c1.37,3.3,2.38,6.67,3.06,10.04l-12.3,5.1c0.24,1.77,0.36,3.58,0.36,5.42
			c0,1.84-0.12,3.65-0.36,5.42l12.3,5.1c-1.38,6.89-4.1,13.46-8,19.31l-12.3-5.1c-2.21,2.88-4.79,5.47-7.67,7.67l5.1,12.3
			c-2.86,1.91-5.96,3.57-9.27,4.94s-6.67,2.38-10.04,3.06l-5.1-12.3c-1.77,0.24-3.58,0.36-5.42,0.36c-1.84,0-3.65-0.12-5.42-0.36
			l-5.1,12.3c-6.89-1.38-13.46-4.1-19.31-8l5.1-12.3c-2.88-2.2-5.47-4.78-7.67-7.67l-12.3,5.1c-1.91-2.87-3.57-5.96-4.94-9.27
			c-1.37-3.3-2.38-6.67-3.06-10.04l12.3-5.1c-0.24-1.77-0.36-3.58-0.36-5.42c0-1.84,0.12-3.65,0.36-5.42l-12.3-5.1
			C79.71,115.62,82.43,109.05,86.33,103.2z"/>
	</g>
	<g>
		<circle class="st2" cx="131.03" cy="133.03" r="15.16"/>
		<path class="st2" d="M171.44,138.46l12.3,5.1c-1.38,6.89-4.1,13.46-8,19.31l-12.3-5.1c-2.21,2.88-4.79,5.47-7.67,7.67l5.1,12.3
			c-2.86,1.91-5.96,3.57-9.27,4.94s-6.67,2.38-10.04,3.06l-5.1-12.3c-1.77,0.24-3.58,0.36-5.42,0.36c-1.84,0-3.65-0.12-5.42-0.36
			l-5.1,12.3c-6.89-1.38-13.46-4.1-19.31-8l5.1-12.3c-2.88-2.2-5.47-4.78-7.67-7.67l-12.3,5.1c-1.91-2.87-3.57-5.96-4.94-9.27
			c-1.37-3.3-2.38-6.67-3.06-10.04l12.3-5.1c-0.24-1.77-0.36-3.58-0.36-5.42c0-1.84,0.12-3.65,0.36-5.42l-12.3-5.1
			c1.38-6.89,4.1-13.46,8-19.32l12.3,5.1c2.21-2.88,4.79-5.47,7.67-7.67l-5.1-12.3c2.86-1.91,5.96-3.57,9.27-4.94
			c3.3-1.37,6.67-2.38,10.04-3.06l5.1,12.3c1.77-0.24,3.58-0.36,5.42-0.36c1.84,0,3.65,0.12,5.42,0.36l5.1-12.3
			c6.89,1.38,13.46,4.1,19.31,8l-5.1,12.3c2.88,2.21,5.47,4.79,7.67,7.67l12.3-5.1c1.91,2.86,3.57,5.96,4.94,9.27
			c1.37,3.3,2.38,6.67,3.06,10.04l-12.3,5.1c0.24,1.77,0.36,3.58,0.36,5.42C171.8,134.87,171.68,136.68,171.44,138.46z"/>
	</g>
</g>
</svg>
