<?xml version="1.0" encoding="utf-8"?>
<!-- Generator: Adobe Illustrator 24.1.1, SVG Export Plug-In . SVG Version: 6.00 Build 0)  -->
<svg version="1.1" id="Camada_1" xmlns="http://www.w3.org/2000/svg" xmlns:xlink="http://www.w3.org/1999/xlink" x="0px" y="0px"
	 viewBox="0 0 220 220" style="enable-background:new 0 0 220 220;" xml:space="preserve">
<style type="text/css">
	.st0{fill:#FFFFFF;stroke:#DEDEDE;stroke-width:7;stroke-linecap:round;stroke-linejoin:round;stroke-miterlimit:10;}
	.st1{fill:#FFFFFF;}
	.st2{fill:#282826;}
	.st3{fill:#AAB5C7;}
	.st4{fill:none;stroke:#20334A;stroke-width:3;stroke-linecap:round;stroke-linejoin:round;stroke-miterlimit:10;}
	.st5{fill:none;stroke:#20334A;stroke-width:3;stroke-linecap:round;stroke-linejoin:round;}
	.st6{fill:#D8D5D5;}
	.st7{fill:#2866AD;}
	.st8{fill:#FDA300;}
	.st9{fill:#6DCDD9;}
	.st10{fill:#F95000;}
	.st11{fill:#D8D5D5;stroke:#20334A;stroke-width:3;stroke-linecap:round;stroke-linejoin:round;stroke-miterlimit:10;}
	.st12{fill:#FFFFFF;stroke:#20334A;stroke-width:3;stroke-linecap:round;stroke-linejoin:round;stroke-miterlimit:10;}
	.st13{fill:#FDA300;stroke:#20334A;stroke-width:3;stroke-linecap:round;stroke-linejoin:round;stroke-miterlimit:10;}
	.st14{fill:#2866AD;stroke:#20334A;stroke-width:3;stroke-linecap:round;stroke-linejoin:round;}
	.st15{fill:#F1A019;}
	.st16{fill:#20334A;}
	.st17{fill:#F3F0F0;}
	.st18{fill:#F5A015;}
	.st19{fill:#72C6D3;}
	.st20{fill:#E8521A;stroke:#20334A;stroke-width:3;stroke-miterlimit:10;}
	.st21{fill:#04A239;stroke:#20334A;stroke-width:3;stroke-linecap:round;stroke-linejoin:round;stroke-miterlimit:10;}
	.st22{fill:none;stroke:#20334A;stroke-width:3;stroke-linecap:round;stroke-miterlimit:10;}
	.st23{fill:none;stroke:#20334A;stroke-width:3;stroke-miterlimit:10;}
	.st24{fill:#FDB128;}
	.st25{fill:none;stroke:#1F344B;stroke-width:3;stroke-miterlimit:10;}
	.st26{fill:#6DCDD9;stroke:#20334A;stroke-width:3;stroke-linecap:round;stroke-linejoin:round;stroke-miterlimit:10;}
	.st27{fill:#F95000;stroke:#20334A;stroke-width:3;stroke-linecap:round;stroke-linejoin:round;stroke-miterlimit:10;}
	.st28{fill:#A7CCC3;}
	.st29{fill:#AAB5C7;stroke:#20334A;stroke-width:3;stroke-linecap:round;stroke-miterlimit:10;}
	.st30{fill:#22B573;stroke:#20334A;stroke-width:3;stroke-linecap:round;stroke-linejoin:round;stroke-miterlimit:10;}
	.st31{fill:#F2F2F2;stroke:#20334A;stroke-width:3;stroke-miterlimit:10;}
</style>
<circle class="st0" cx="109.59" cy="111.59" r="100"/>
<g id="XMLID_6_">
	<g>
		<path class="st7" d="M164.08,123.25v17.77c0,11.64-24.4,21.07-54.5,21.07s-54.5-9.43-54.5-21.07v-17.77
			c0,3.18,1.82,6.18,5.07,8.88c8.67,7.2,27.54,12.19,49.43,12.19s40.76-4.99,49.43-12.19C162.27,129.43,164.08,126.43,164.08,123.25
			z"/>
		<path class="st7" d="M154.63,89.25c0,0,7.9,5.14,7.39,15.18c-0.18,3.6-0.72,7.7-1.34,11.47c-5.03-5.23-15.29-9.48-28.32-11.8
			l0.02-0.12c1.02-6.37,2.61-12.85,8.31-15.48c1.85,1.95,4.47,3.16,7.38,3.16C150.56,91.65,152.86,90.75,154.63,89.25z"/>
		<path class="st7" d="M125.25,102.86l-0.03,0.2c-4.96-0.58-10.21-0.88-15.64-0.88c-5.48,0-10.77,0.31-15.76,0.9l-0.03-0.2
			c0.22-3.33,0.41-6.93,0.46-10.19c0.17-9.53,9.61-12.97,9.61-12.97c1.63,1.11,3.59,1.75,5.71,1.75s4.08-0.64,5.71-1.75
			c0,0,0,0,0.01,0c0.26,0.05,9.6,1.89,9.6,12.8C124.9,96.08,125.05,99.66,125.25,102.86z"/>
		<path class="st7" d="M86.98,103.94l0.02,0.13c-12.99,2.29-23.24,6.49-28.35,11.68c-0.6-3.73-1.13-7.77-1.31-11.31
			c-0.51-10.04,7.39-15.18,7.39-15.18c1.77,1.5,4.06,2.4,6.57,2.4c2.9,0,5.52-1.22,7.38-3.16C84.36,91.12,85.95,97.58,86.98,103.94z
			"/>
	</g>
	<g>
		<path class="st4" d="M55.08,123.25c0-2.64,1.26-5.17,3.56-7.5c5.11-5.19,15.36-9.39,28.35-11.68c2.2-0.39,4.48-0.72,6.83-0.99
			c4.99-0.59,10.28-0.9,15.76-0.9c5.44,0,10.69,0.31,15.64,0.88c2.45,0.28,4.83,0.63,7.13,1.04c13.03,2.32,23.29,6.57,28.32,11.8
			c2.2,2.29,3.41,4.76,3.41,7.35"/>
		<path class="st4" d="M64.73,89.25c-2.22-1.87-3.62-4.66-3.62-7.79c0-5.63,4.56-10.19,10.19-10.19s10.19,4.56,10.19,10.19
			c0,2.73-1.07,5.2-2.81,7.03c-1.85,1.95-4.48,3.16-7.38,3.16C68.79,91.65,66.5,90.75,64.73,89.25z"/>
		<path class="st4" d="M115.29,79.72c-1.63,1.11-3.59,1.75-5.71,1.75s-4.08-0.64-5.71-1.75c-2.71-1.83-4.48-4.93-4.48-8.44
			c0-5.63,4.56-10.19,10.19-10.19s10.19,4.56,10.19,10.19C119.77,74.78,118,77.88,115.29,79.72"/>
		<path class="st4" d="M78.67,88.49c5.69,2.63,7.29,9.09,8.31,15.45"/>
		<path class="st4" d="M64.73,89.25c0,0-7.9,5.14-7.39,15.18c0.18,3.55,0.71,7.59,1.31,11.31"/>
		<path class="st4" d="M154.63,89.25c2.22-1.87,3.62-4.66,3.62-7.79c0-5.63-4.56-10.19-10.19-10.19c-5.63,0-10.19,4.56-10.19,10.19
			c0,2.73,1.07,5.2,2.81,7.03c1.85,1.95,4.47,3.16,7.38,3.16C150.56,91.65,152.86,90.75,154.63,89.25z"/>
		<path class="st4" d="M132.37,103.98c1.02-6.37,2.61-12.85,8.31-15.48"/>
		<path class="st4" d="M154.63,89.25c0,0,7.9,5.14,7.39,15.18c-0.18,3.6-0.72,7.7-1.34,11.47"/>
		<path class="st4" d="M93.8,102.87c0.22-3.33,0.41-6.93,0.46-10.19c0.17-9.53,9.61-12.97,9.61-12.97"/>
		<path class="st4" d="M115.29,79.72C115.29,79.72,115.29,79.72,115.29,79.72c0.27,0.05,9.61,1.89,9.61,12.8
			c0,3.56,0.15,7.14,0.35,10.34"/>
		<path class="st4" d="M164.08,123.25v17.77c0,11.64-24.4,21.07-54.5,21.07s-54.5-9.43-54.5-21.07v-17.77
			c0,3.18,1.82,6.18,5.07,8.88c8.67,7.2,27.54,12.19,49.43,12.19s40.76-4.99,49.43-12.19C162.27,129.43,164.08,126.43,164.08,123.25
			z"/>
	</g>
</g>
</svg>
