<?xml version="1.0" encoding="utf-8"?>
<!-- Generator: Adobe Illustrator 24.1.1, SVG Export Plug-In . SVG Version: 6.00 Build 0)  -->
<svg version="1.1" id="Camada_1" xmlns="http://www.w3.org/2000/svg" xmlns:xlink="http://www.w3.org/1999/xlink" x="0px" y="0px"
	 viewBox="0 0 220 220" style="enable-background:new 0 0 220 220;" xml:space="preserve">
<style type="text/css">
	.st0{fill:#FFFFFF;stroke:#DEDEDE;stroke-width:7;stroke-linecap:round;stroke-linejoin:round;stroke-miterlimit:10;}
	.st1{fill:#FFFFFF;}
	.st2{fill:#282826;}
	.st3{fill:#AAB5C7;}
	.st4{fill:none;stroke:#20334A;stroke-width:3;stroke-linecap:round;stroke-linejoin:round;stroke-miterlimit:10;}
	.st5{fill:none;stroke:#20334A;stroke-width:3;stroke-linecap:round;stroke-linejoin:round;}
	.st6{fill:#D8D5D5;}
	.st7{fill:#2866AD;}
	.st8{fill:#FDA300;}
	.st9{fill:#6DCDD9;}
	.st10{fill:#F95000;}
	.st11{fill:#D8D5D5;stroke:#20334A;stroke-width:3;stroke-linecap:round;stroke-linejoin:round;stroke-miterlimit:10;}
	.st12{fill:#FFFFFF;stroke:#20334A;stroke-width:3;stroke-linecap:round;stroke-linejoin:round;stroke-miterlimit:10;}
	.st13{fill:#FDA300;stroke:#20334A;stroke-width:3;stroke-linecap:round;stroke-linejoin:round;stroke-miterlimit:10;}
	.st14{fill:#2866AD;stroke:#20334A;stroke-width:3;stroke-linecap:round;stroke-linejoin:round;}
	.st15{fill:#F1A019;}
	.st16{fill:#20334A;}
	.st17{fill:#F3F0F0;}
	.st18{fill:#F5A015;}
	.st19{fill:#72C6D3;}
	.st20{fill:#E8521A;stroke:#20334A;stroke-width:3;stroke-miterlimit:10;}
	.st21{fill:#04A239;stroke:#20334A;stroke-width:3;stroke-linecap:round;stroke-linejoin:round;stroke-miterlimit:10;}
	.st22{fill:none;stroke:#20334A;stroke-width:3;stroke-linecap:round;stroke-miterlimit:10;}
	.st23{fill:none;stroke:#20334A;stroke-width:3;stroke-miterlimit:10;}
	.st24{fill:#FDB128;}
	.st25{fill:none;stroke:#1F344B;stroke-width:3;stroke-miterlimit:10;}
	.st26{fill:#6DCDD9;stroke:#20334A;stroke-width:3;stroke-linecap:round;stroke-linejoin:round;stroke-miterlimit:10;}
	.st27{fill:#F95000;stroke:#20334A;stroke-width:3;stroke-linecap:round;stroke-linejoin:round;stroke-miterlimit:10;}
	.st28{fill:#A7CCC3;}
	.st29{fill:#AAB5C7;stroke:#20334A;stroke-width:3;stroke-linecap:round;stroke-miterlimit:10;}
	.st30{fill:#22B573;stroke:#20334A;stroke-width:3;stroke-linecap:round;stroke-linejoin:round;stroke-miterlimit:10;}
	.st31{fill:#F2F2F2;stroke:#20334A;stroke-width:3;stroke-miterlimit:10;}
</style>
<circle class="st0" cx="109.59" cy="111.59" r="100"/>
<g id="XMLID_109_">
	<g>
		<path class="st1" d="M94.93,99.59c0,3.31-2.68,5.98-5.99,5.98c-3.31,0-5.97-2.68-5.97-5.98s2.66-5.97,5.97-5.97
			C92.25,93.62,94.93,96.28,94.93,99.59z"/>
		<path class="st1" d="M114.62,99.59c0,3.31-2.68,5.98-5.99,5.98s-5.97-2.68-5.97-5.98s2.66-5.97,5.97-5.97
			S114.62,96.28,114.62,99.59z"/>
		<path class="st1" d="M158.98,109.23c-5.19,4.28,1.34,14.81-4.35,37.91c-1.55,6.3-5.4,10.64-8.22,12.34
			c-6.98,4.2-11.58,3.48-14.54,1.37c-3.71-2.64-4.82-7.46-4.82-7.46c0.15,3.22,0.14,6.43-0.18,9.14h-0.01
			c-7.98,2.31-17.74,3.53-28.27,3.53c-10.67,0-20.54-1.24-28.56-3.61c-0.01,0-0.01-0.01-0.02-0.01
			c-12.25-3.61-16.92-9.82-16.92-18.18c0-13.11,15.72-32.15,29.48-33.88h0.01c4.23,4.41,10.05,6.81,16.02,6.83
			c3.77,0.01,7.6-0.96,11.1-2.98c1.86-1.07,3.5-2.37,4.92-3.85l0.01,0.01c7.98,1,17.74,7.83,24.52,15.96l0.03,0.01
			c1.87-4.99,4.51-11.26,8.22-18.96c0,0-1.33-1.59-2.15-4.02c-1.63-4.83,1.6-7.31,2.88-9.41c1.67-2.74,3.14-11.21,5.48-11.35
			c4.44-0.27,4.2,3.86,2.19,11.35C155.78,93.96,167.5,102.21,158.98,109.23z"/>
		<path class="st1" d="M108.63,105.57c3.31,0,5.99-2.68,5.99-5.98s-2.68-5.97-5.99-5.97s-5.97,2.66-5.97,5.97
			S105.33,105.57,108.63,105.57z M82.57,110.37c-1.21-1.26-2.29-2.69-3.21-4.27c-4.11-7.12-3.83-15.56,0-22.2
			c1.88-3.27,4.63-6.11,8.13-8.12c3.5-2.02,7.32-2.98,11.1-2.98c7.66,0.01,15.12,3.99,19.23,11.1c4.11,7.12,3.83,15.56,0,22.2
			c-0.88,1.54-1.96,2.97-3.21,4.27c-1.41,1.48-3.06,2.78-4.92,3.85c-3.5,2.02-7.32,2.98-11.1,2.98
			C92.63,117.19,86.8,114.79,82.57,110.37L82.57,110.37L82.57,110.37z M94.93,99.59c0-3.31-2.68-5.97-5.99-5.97
			c-3.31,0-5.97,2.66-5.97,5.97s2.66,5.98,5.97,5.98C92.25,105.57,94.93,102.89,94.93,99.59z"/>
	</g>
	<g>
		<path class="st4" d="M108.63,93.62c3.31,0,5.99,2.66,5.99,5.97s-2.68,5.98-5.99,5.98s-5.97-2.68-5.97-5.98
			S105.33,93.62,108.63,93.62z"/>
		<path class="st4" d="M88.94,93.62c3.31,0,5.99,2.66,5.99,5.97s-2.68,5.98-5.99,5.98c-3.31,0-5.97-2.68-5.97-5.98
			S85.64,93.62,88.94,93.62z"/>
		<line class="st4" x1="79.79" y1="64.08" x2="75.82" y2="57.22"/>
		<polyline class="st4" points="98.59,59.04 98.59,59.04 98.59,51.11 		"/>
		<line class="st4" x1="117.38" y1="64.08" x2="121.35" y2="57.22"/>
		<line class="st4" x1="131.15" y1="77.84" x2="138.01" y2="73.88"/>
		<line class="st4" x1="66.02" y1="77.84" x2="59.16" y2="73.88"/>
		<path class="st4" d="M82.57,110.38L82.57,110.38c-1.21-1.27-2.29-2.69-3.21-4.28c-4.11-7.12-3.83-15.56,0-22.2
			c1.88-3.27,4.63-6.11,8.13-8.12c3.5-2.02,7.32-2.98,11.1-2.98c7.66,0.01,15.12,3.99,19.23,11.1c4.11,7.12,3.83,15.56,0,22.2
			c-0.88,1.54-1.96,2.97-3.21,4.27c-1.41,1.48-3.06,2.78-4.92,3.85c-3.5,2.02-7.32,2.98-11.1,2.98
			C92.63,117.19,86.8,114.79,82.57,110.38"/>
		<path class="st4" d="M114.61,110.38c7.98,1,17.74,7.83,24.52,15.96"/>
		<path class="st4" d="M131.97,160.81c-0.03,0.01-0.07,0.03-0.1,0.04c-1.57,0.61-3.25,1.18-5.01,1.68h-0.01
			c-7.98,2.31-17.74,3.53-28.27,3.53c-10.67,0-20.54-1.24-28.56-3.61c-0.01,0-0.01-0.01-0.02-0.01
			c-12.25-3.61-16.92-9.82-16.92-18.18c0-13.11,15.72-32.15,29.48-33.88h0.01"/>
		<line class="st4" x1="94.93" y1="99.59" x2="102.66" y2="99.59"/>
		<path class="st4" d="M124.94,135.31c0,0,1.68,9.16,2.11,18.08c0.15,3.22,0.14,6.43-0.18,9.14c0,0.03-0.01,0.07-0.01,0.1"/>
		<path class="st4" d="M71.95,135.31c0,0-3.11,16.89-1.94,27.13c0.01,0.07,0.02,0.13,0.02,0.19"/>
		<path class="st4" d="M127.05,153.39c0,0,1.12,4.82,4.82,7.46c2.95,2.11,7.55,2.83,14.54-1.37c2.82-1.69,6.67-6.03,8.22-12.34
			c5.69-23.1-0.84-33.63,4.35-37.91c8.51-7.02-3.2-15.27-3.2-15.27c2.01-7.49,2.25-11.63-2.19-11.35
			c-2.34,0.15-3.81,8.61-5.48,11.35c-1.28,2.1-4.51,4.58-2.88,9.41c0.82,2.43,2.15,4.02,2.15,4.02c-3.71,7.7-6.34,13.97-8.22,18.96
			c-4.12,10.93-4.58,15.67-4.58,15.67"/>
	</g>
</g>
</svg>
