<?xml version="1.0" encoding="utf-8"?>
<!-- Generator: Adobe Illustrator 24.1.1, SVG Export Plug-In . SVG Version: 6.00 Build 0)  -->
<svg version="1.1" id="Camada_1" xmlns="http://www.w3.org/2000/svg" xmlns:xlink="http://www.w3.org/1999/xlink" x="0px" y="0px"
	 viewBox="0 0 220 220" style="enable-background:new 0 0 220 220;" xml:space="preserve">
<style type="text/css">
	.st0{fill:#FFFFFF;stroke:#DEDEDE;stroke-width:7;stroke-linecap:round;stroke-linejoin:round;stroke-miterlimit:10;}
	.st1{fill:#FFFFFF;}
	.st2{fill:#282826;}
	.st3{fill:#AAB5C7;}
	.st4{fill:none;stroke:#20334A;stroke-width:3;stroke-linecap:round;stroke-linejoin:round;stroke-miterlimit:10;}
	.st5{fill:none;stroke:#20334A;stroke-width:3;stroke-linecap:round;stroke-linejoin:round;}
	.st6{fill:#D8D5D5;}
	.st7{fill:#2866AD;}
	.st8{fill:#FDA300;}
	.st9{fill:#6DCDD9;}
	.st10{fill:#F95000;}
	.st11{fill:#D8D5D5;stroke:#20334A;stroke-width:3;stroke-linecap:round;stroke-linejoin:round;stroke-miterlimit:10;}
	.st12{fill:#FFFFFF;stroke:#20334A;stroke-width:3;stroke-linecap:round;stroke-linejoin:round;stroke-miterlimit:10;}
	.st13{fill:#FDA300;stroke:#20334A;stroke-width:3;stroke-linecap:round;stroke-linejoin:round;stroke-miterlimit:10;}
	.st14{fill:#2866AD;stroke:#20334A;stroke-width:3;stroke-linecap:round;stroke-linejoin:round;}
	.st15{fill:#F1A019;}
	.st16{fill:#20334A;}
	.st17{fill:#F3F0F0;}
	.st18{fill:#F5A015;}
	.st19{fill:#72C6D3;}
	.st20{fill:#E8521A;stroke:#20334A;stroke-width:3;stroke-miterlimit:10;}
	.st21{fill:#04A239;stroke:#20334A;stroke-width:3;stroke-linecap:round;stroke-linejoin:round;stroke-miterlimit:10;}
	.st22{fill:none;stroke:#20334A;stroke-width:3;stroke-linecap:round;stroke-miterlimit:10;}
	.st23{fill:none;stroke:#20334A;stroke-width:3;stroke-miterlimit:10;}
	.st24{fill:#FDB128;}
	.st25{fill:none;stroke:#1F344B;stroke-width:3;stroke-miterlimit:10;}
	.st26{fill:#6DCDD9;stroke:#20334A;stroke-width:3;stroke-linecap:round;stroke-linejoin:round;stroke-miterlimit:10;}
	.st27{fill:#F95000;stroke:#20334A;stroke-width:3;stroke-linecap:round;stroke-linejoin:round;stroke-miterlimit:10;}
	.st28{fill:#A7CCC3;}
	.st29{fill:#AAB5C7;stroke:#20334A;stroke-width:3;stroke-linecap:round;stroke-miterlimit:10;}
	.st30{fill:#22B573;stroke:#20334A;stroke-width:3;stroke-linecap:round;stroke-linejoin:round;stroke-miterlimit:10;}
	.st31{fill:#F2F2F2;stroke:#20334A;stroke-width:3;stroke-miterlimit:10;}
</style>
<circle class="st0" cx="109.59" cy="111.59" r="100"/>
<g id="XMLID_1_">
	<g>
		<path class="st24" d="M95.39,144.65c-13.46-5.55-22.93-18.8-22.93-34.26c0-20.47,16.59-37.05,37.05-37.05
			c20.47,0,37.06,16.59,37.06,37.05c0,15.46-9.47,28.72-22.94,34.27c-2.56,1.06-5.25,1.84-8.07,2.29l-0.02-0.11l3.54-17.23
			c0.15-0.59,0.02-1.21-0.35-1.69c-0.37-0.48-0.94-0.76-1.55-0.76h-15.22c-0.61,0-1.18,0.28-1.55,0.76c-0.37,0.48-0.5,1.1-0.35,1.69
			l3.54,17.21l-0.03,0.15C100.73,146.51,97.98,145.73,95.39,144.65z"/>
		<path class="st3" d="M123.65,145.79v11.47c-0.02,4.52-2.17,8.53-5.5,11.11c-2.38,1.86-5.38,2.39-8.63,2.39
			c-3.24,0-6.24-0.54-8.63-2.39c-3.32-2.57-5.47-6.59-5.5-11.11v-11.47c0.02,4.52,2.17,8.53,5.5,11.11
			c2.39,1.86,5.38,2.39,8.63,2.39c3.25,0,6.25-0.54,8.63-2.39C121.47,154.32,123.63,150.31,123.65,145.79z"/>
		<path class="st3" d="M123.65,144.69v1.1c-0.02,4.52-2.17,8.53-5.5,11.11c-2.38,1.86-5.38,2.39-8.63,2.39
			c-3.24,0-6.24-0.54-8.63-2.39c-3.32-2.57-5.47-6.59-5.5-11.11v-1.14c2.59,1.08,5.34,1.86,8.19,2.31c1.93,0.32,3.91,0.48,5.94,0.48
			c2.06,0,4.08-0.17,6.05-0.5c2.81-0.46,5.51-1.23,8.07-2.29L123.65,144.69z"/>
		<path class="st24" d="M118.74,127.92c0.38,0.48,0.51,1.1,0.35,1.69l-3.54,17.23l0.02,0.11c-1.97,0.33-3.99,0.5-6.05,0.5
			c-2.02,0-4-0.16-5.94-0.48l0.03-0.15l-3.54-17.21c-0.15-0.59-0.02-1.21,0.35-1.69c0.37-0.48,0.95-0.76,1.55-0.76h15.22
			C117.8,127.16,118.37,127.44,118.74,127.92z"/>
	</g>
	<g>
		<line class="st4" x1="87.11" y1="67.9" x2="82.38" y2="59.7"/>
		<line class="st4" x1="109.59" y1="61.88" x2="109.59" y2="52.4"/>
		<line class="st4" x1="132.06" y1="67.9" x2="136.79" y2="59.7"/>
		<line class="st4" x1="148.51" y1="84.35" x2="156.72" y2="79.61"/>
		<line class="st4" x1="70.65" y1="84.35" x2="62.45" y2="79.62"/>
		<path class="st4" d="M123.65,144.69v1.1v11.47c-0.02,4.52-2.17,8.53-5.5,11.11c-2.38,1.86-5.38,2.39-8.63,2.39
			c-3.24,0-6.24-0.54-8.63-2.39c-3.32-2.57-5.47-6.59-5.5-11.11v-11.47v-1.14v-0.03"/>
		<path class="st4" d="M95.39,145.79c0.02,4.52,2.17,8.53,5.5,11.11c2.39,1.86,5.38,2.39,8.63,2.39c3.25,0,6.25-0.54,8.63-2.39
			c3.32-2.57,5.47-6.59,5.5-11.11"/>
		<path class="st25" d="M95.39,144.65c-13.46-5.55-22.93-18.8-22.93-34.26c0-20.47,16.59-37.05,37.05-37.05
			c20.47,0,37.06,16.59,37.06,37.05c0,15.46-9.47,28.72-22.94,34.27c-2.56,1.06-5.25,1.84-8.07,2.29c-1.97,0.33-3.99,0.5-6.05,0.5
			c-2.02,0-4-0.16-5.94-0.48C100.73,146.51,97.98,145.73,95.39,144.65z"/>
		<path class="st4" d="M103.61,146.82l-3.54-17.21c-0.15-0.59-0.02-1.21,0.35-1.69c0.37-0.48,0.95-0.76,1.55-0.76h15.22
			c0.61,0,1.18,0.28,1.55,0.76c0.38,0.48,0.51,1.1,0.35,1.69l-3.54,17.23"/>
	</g>
</g>
</svg>
