<?xml version="1.0" encoding="utf-8"?>
<!-- Generator: Adobe Illustrator 24.1.1, SVG Export Plug-In . SVG Version: 6.00 Build 0)  -->
<svg version="1.1" id="Camada_1" xmlns="http://www.w3.org/2000/svg" xmlns:xlink="http://www.w3.org/1999/xlink" x="0px" y="0px"
	 viewBox="0 0 220 220" style="enable-background:new 0 0 220 220;" xml:space="preserve">
<style type="text/css">
	.st0{fill:#FFFFFF;stroke:#DEDEDE;stroke-width:7;stroke-linecap:round;stroke-linejoin:round;stroke-miterlimit:10;}
	.st1{fill:#FFFFFF;}
	.st2{fill:#282826;}
	.st3{fill:#AAB5C7;}
	.st4{fill:none;stroke:#20334A;stroke-width:3;stroke-linecap:round;stroke-linejoin:round;stroke-miterlimit:10;}
	.st5{fill:none;stroke:#20334A;stroke-width:3;stroke-linecap:round;stroke-linejoin:round;}
	.st6{fill:#D8D5D5;}
	.st7{fill:#2866AD;}
	.st8{fill:#FDA300;}
	.st9{fill:#6DCDD9;}
	.st10{fill:#F95000;}
	.st11{fill:#D8D5D5;stroke:#20334A;stroke-width:3;stroke-linecap:round;stroke-linejoin:round;stroke-miterlimit:10;}
	.st12{fill:#FFFFFF;stroke:#20334A;stroke-width:3;stroke-linecap:round;stroke-linejoin:round;stroke-miterlimit:10;}
	.st13{fill:#FDA300;stroke:#20334A;stroke-width:3;stroke-linecap:round;stroke-linejoin:round;stroke-miterlimit:10;}
	.st14{fill:#2866AD;stroke:#20334A;stroke-width:3;stroke-linecap:round;stroke-linejoin:round;}
	.st15{fill:#F1A019;}
	.st16{fill:#20334A;}
	.st17{fill:#F3F0F0;}
	.st18{fill:#F5A015;}
	.st19{fill:#72C6D3;}
	.st20{fill:#E8521A;stroke:#20334A;stroke-width:3;stroke-miterlimit:10;}
	.st21{fill:#04A239;stroke:#20334A;stroke-width:3;stroke-linecap:round;stroke-linejoin:round;stroke-miterlimit:10;}
	.st22{fill:none;stroke:#20334A;stroke-width:3;stroke-linecap:round;stroke-miterlimit:10;}
	.st23{fill:none;stroke:#20334A;stroke-width:3;stroke-miterlimit:10;}
	.st24{fill:#FDB128;}
	.st25{fill:none;stroke:#1F344B;stroke-width:3;stroke-miterlimit:10;}
	.st26{fill:#6DCDD9;stroke:#20334A;stroke-width:3;stroke-linecap:round;stroke-linejoin:round;stroke-miterlimit:10;}
	.st27{fill:#F95000;stroke:#20334A;stroke-width:3;stroke-linecap:round;stroke-linejoin:round;stroke-miterlimit:10;}
	.st28{fill:#A7CCC3;}
	.st29{fill:#AAB5C7;stroke:#20334A;stroke-width:3;stroke-linecap:round;stroke-miterlimit:10;}
	.st30{fill:#22B573;stroke:#20334A;stroke-width:3;stroke-linecap:round;stroke-linejoin:round;stroke-miterlimit:10;}
	.st31{fill:#F2F2F2;stroke:#20334A;stroke-width:3;stroke-miterlimit:10;}
</style>
<circle class="st0" cx="109.59" cy="111.59" r="100"/>
<g id="XMLID_41_">
	<g>
		<path class="st6" d="M162.29,154.11c1.73,1.72,1.01,5.22-1.97,8.21c-2.99,2.99-6.49,3.7-8.21,1.97l-0.16-0.17l-29.72-31.65
			c-0.95-0.95-1.02-2.55-0.21-4.24l4.2-4.2c1.69-0.82,3.29-0.75,4.24,0.2l31.65,29.72L162.29,154.11z"/>
		<polygon class="st6" points="126.23,124.04 122.04,128.24 118.11,124.3 120.12,122.28 120.29,122.11 122.3,120.1 		"/>
		<path class="st7" d="M120.2,68.97c14.67,14.67,14.71,38.44,0.1,53.14l-0.18,0.17c-14.7,14.62-38.48,14.58-53.15-0.09
			c-14.69-14.7-14.7-38.53,0-53.23C81.67,54.27,105.51,54.28,120.2,68.97z M110.1,112.1c9.12-9.12,9.12-23.91-0.01-33.03
			c-9.12-9.12-23.91-9.12-33.03,0c-9.12,9.12-9.11,23.91,0.01,33.03C86.19,121.22,100.98,121.23,110.1,112.1z"/>
		<path class="st7" d="M98.55,90.62c2.75,2.74,2.74,7.19,0,9.93c-2.74,2.74-7.18,2.74-9.93,0c-2.74-2.74-2.73-7.18,0.01-9.92
			C91.37,87.89,95.81,87.88,98.55,90.62z"/>
	</g>
	<g>
		<path class="st4" d="M98.55,90.62c2.75,2.74,2.74,7.19,0,9.93c-2.74,2.74-7.18,2.74-9.93,0c-2.74-2.74-2.73-7.18,0.01-9.92
			C91.37,87.89,95.81,87.88,98.55,90.62z"/>
		<path class="st4" d="M120.29,122.11c14.61-14.71,14.57-38.47-0.1-53.14c-14.69-14.69-38.53-14.7-53.23,0
			c-14.7,14.7-14.69,38.53,0,53.23c14.67,14.67,38.45,14.71,53.15,0.09"/>
		<path class="st4" d="M110.1,112.1c-9.12,9.12-23.91,9.12-33.03-0.01c-9.12-9.12-9.12-23.91-0.01-33.03
			c9.12-9.12,23.91-9.12,33.03,0C119.22,88.19,119.23,102.98,110.1,112.1z"/>
		<path class="st4" d="M126.23,124.04c1.69-0.82,3.29-0.75,4.24,0.2l31.65,29.72l0.17,0.16c1.73,1.72,1.01,5.22-1.97,8.21
			c-2.99,2.99-6.49,3.7-8.21,1.97l-0.16-0.17l-29.72-31.65c-0.95-0.95-1.02-2.55-0.21-4.24"/>
		<polyline class="st4" points="120.29,122.11 122.3,120.1 126.23,124.04 122.04,128.24 118.11,124.3 120.12,122.28 		"/>
	</g>
</g>
</svg>
