<?xml version="1.0" encoding="utf-8"?>
<!-- Generator: Adobe Illustrator 24.1.1, SVG Export Plug-In . SVG Version: 6.00 Build 0)  -->
<svg version="1.1" id="Camada_1" xmlns="http://www.w3.org/2000/svg" xmlns:xlink="http://www.w3.org/1999/xlink" x="0px" y="0px"
	 viewBox="0 0 220 220" style="enable-background:new 0 0 220 220;" xml:space="preserve">
<style type="text/css">
	.st0{fill:#FFFFFF;stroke:#DEDEDE;stroke-width:7;stroke-linecap:round;stroke-linejoin:round;stroke-miterlimit:10;}
	.st1{fill:#FFFFFF;}
	.st2{fill:#282826;}
	.st3{fill:#AAB5C7;}
	.st4{fill:none;stroke:#20334A;stroke-width:3;stroke-linecap:round;stroke-linejoin:round;stroke-miterlimit:10;}
	.st5{fill:none;stroke:#20334A;stroke-width:3;stroke-linecap:round;stroke-linejoin:round;}
	.st6{fill:#D8D5D5;}
	.st7{fill:#2866AD;}
	.st8{fill:#FDA300;}
	.st9{fill:#6DCDD9;}
	.st10{fill:#F95000;}
	.st11{fill:#D8D5D5;stroke:#20334A;stroke-width:3;stroke-linecap:round;stroke-linejoin:round;stroke-miterlimit:10;}
	.st12{fill:#FFFFFF;stroke:#20334A;stroke-width:3;stroke-linecap:round;stroke-linejoin:round;stroke-miterlimit:10;}
	.st13{fill:#FDA300;stroke:#20334A;stroke-width:3;stroke-linecap:round;stroke-linejoin:round;stroke-miterlimit:10;}
	.st14{fill:#2866AD;stroke:#20334A;stroke-width:3;stroke-linecap:round;stroke-linejoin:round;}
	.st15{fill:#F1A019;}
	.st16{fill:#20334A;}
	.st17{fill:#F3F0F0;}
	.st18{fill:#F5A015;}
	.st19{fill:#72C6D3;}
	.st20{fill:#E8521A;stroke:#20334A;stroke-width:3;stroke-miterlimit:10;}
	.st21{fill:#04A239;stroke:#20334A;stroke-width:3;stroke-linecap:round;stroke-linejoin:round;stroke-miterlimit:10;}
	.st22{fill:none;stroke:#20334A;stroke-width:3;stroke-linecap:round;stroke-miterlimit:10;}
	.st23{fill:none;stroke:#20334A;stroke-width:3;stroke-miterlimit:10;}
	.st24{fill:#FDB128;}
	.st25{fill:none;stroke:#1F344B;stroke-width:3;stroke-miterlimit:10;}
	.st26{fill:#6DCDD9;stroke:#20334A;stroke-width:3;stroke-linecap:round;stroke-linejoin:round;stroke-miterlimit:10;}
	.st27{fill:#F95000;stroke:#20334A;stroke-width:3;stroke-linecap:round;stroke-linejoin:round;stroke-miterlimit:10;}
	.st28{fill:#A7CCC3;}
	.st29{fill:#AAB5C7;stroke:#20334A;stroke-width:3;stroke-linecap:round;stroke-miterlimit:10;}
	.st30{fill:#22B573;stroke:#20334A;stroke-width:3;stroke-linecap:round;stroke-linejoin:round;stroke-miterlimit:10;}
	.st31{fill:#F2F2F2;stroke:#20334A;stroke-width:3;stroke-miterlimit:10;}
</style>
<circle class="st0" cx="109.59" cy="111.59" r="100"/>
<g>
	<path class="st28" d="M120.15,157.85c-1.87-0.46-3.49-1.47-4.72-2.86c-0.74-1.19-1.42-2.42-2.21-3.62c-4.72-7.92-15.86-26-15.86-26
		l61.56-65.97l-61.56,65.97c0,0-18.64-9.67-26.84-13.87c-1.28-0.68-2.55-1.29-3.79-1.92c-1.47-1.17-2.6-2.7-3.19-4.56
		c-1.52-4.5,0.35-9.31,4.35-11.64l2.81-1.13l20.18-8c21.48-8.47,42.89-16.97,64.3-25.5c1.11-0.46,2.18-0.4,3.09,0.15
		c0.23,0.12,0.48,0.33,0.65,0.51c0.21,0.2,0.41,0.46,0.56,0.66c0.61,0.86,0.76,1.92,0.38,3.06c-7.03,22.01-13.96,43.92-20.91,65.96
		l-6.56,20.73l-0.9,2.88C129.46,156.84,124.78,159.03,120.15,157.85"/>
	<path class="st29" d="M120.15,157.86c-1.88-0.46-3.49-1.47-4.72-2.86c-0.75-1.19-1.42-2.43-2.21-3.62
		c-4.72-7.92-15.86-26.01-15.86-26.01l61.58-65.99l-61.58,65.99c0,0-18.64-9.67-26.84-13.88c-1.29-0.68-2.55-1.29-3.8-1.92
		c-1.47-1.16-2.6-2.7-3.19-4.55c-1.52-4.51,0.36-9.31,4.35-11.65l2.81-1.13l20.18-8c21.49-8.48,42.9-16.98,64.32-25.51
		c1.11-0.46,2.18-0.4,3.09,0.15c0.23,0.12,0.48,0.32,0.65,0.5c0.21,0.2,0.41,0.46,0.56,0.67c0.61,0.86,0.76,1.92,0.39,3.06
		c-7.03,22.03-13.98,43.94-20.93,65.99l-6.55,20.74l-0.91,2.87C129.47,156.85,124.78,159.05,120.15,157.86z"/>
	<path class="st29" d="M83.7,139.79l-9.75,10.49 M92.73,154.26l-9.76,10.49 M68.85,132.14l-9.76,10.5"/>
</g>
</svg>
