<?xml version="1.0" encoding="utf-8"?>
<!-- Generator: Adobe Illustrator 24.1.1, SVG Export Plug-In . SVG Version: 6.00 Build 0)  -->
<svg version="1.1" id="Camada_1" xmlns="http://www.w3.org/2000/svg" xmlns:xlink="http://www.w3.org/1999/xlink" x="0px" y="0px"
	 viewBox="0 0 220 220" style="enable-background:new 0 0 220 220;" xml:space="preserve">
<style type="text/css">
	.st0{fill:#FFFFFF;stroke:#DEDEDE;stroke-width:7;stroke-linecap:round;stroke-linejoin:round;stroke-miterlimit:10;}
	.st1{fill:#FFFFFF;}
	.st2{fill:#282826;}
	.st3{fill:#AAB5C7;}
	.st4{fill:none;stroke:#20334A;stroke-width:3;stroke-linecap:round;stroke-linejoin:round;stroke-miterlimit:10;}
	.st5{fill:none;stroke:#20334A;stroke-width:3;stroke-linecap:round;stroke-linejoin:round;}
	.st6{fill:#D8D5D5;}
	.st7{fill:#2866AD;}
	.st8{fill:#FDA300;}
	.st9{fill:#6DCDD9;}
	.st10{fill:#F95000;}
	.st11{fill:#D8D5D5;stroke:#20334A;stroke-width:3;stroke-linecap:round;stroke-linejoin:round;stroke-miterlimit:10;}
	.st12{fill:#FFFFFF;stroke:#20334A;stroke-width:3;stroke-linecap:round;stroke-linejoin:round;stroke-miterlimit:10;}
	.st13{fill:#FDA300;stroke:#20334A;stroke-width:3;stroke-linecap:round;stroke-linejoin:round;stroke-miterlimit:10;}
	.st14{fill:#2866AD;stroke:#20334A;stroke-width:3;stroke-linecap:round;stroke-linejoin:round;}
	.st15{fill:#F1A019;}
	.st16{fill:#20334A;}
	.st17{fill:#F3F0F0;}
	.st18{fill:#F5A015;}
	.st19{fill:#72C6D3;}
	.st20{fill:#E8521A;stroke:#20334A;stroke-width:3;stroke-miterlimit:10;}
	.st21{fill:#04A239;stroke:#20334A;stroke-width:3;stroke-linecap:round;stroke-linejoin:round;stroke-miterlimit:10;}
	.st22{fill:none;stroke:#20334A;stroke-width:3;stroke-linecap:round;stroke-miterlimit:10;}
	.st23{fill:none;stroke:#20334A;stroke-width:3;stroke-miterlimit:10;}
	.st24{fill:#FDB128;}
	.st25{fill:none;stroke:#1F344B;stroke-width:3;stroke-miterlimit:10;}
	.st26{fill:#6DCDD9;stroke:#20334A;stroke-width:3;stroke-linecap:round;stroke-linejoin:round;stroke-miterlimit:10;}
	.st27{fill:#F95000;stroke:#20334A;stroke-width:3;stroke-linecap:round;stroke-linejoin:round;stroke-miterlimit:10;}
	.st28{fill:#A7CCC3;}
	.st29{fill:#AAB5C7;stroke:#20334A;stroke-width:3;stroke-linecap:round;stroke-miterlimit:10;}
	.st30{fill:#22B573;stroke:#20334A;stroke-width:3;stroke-linecap:round;stroke-linejoin:round;stroke-miterlimit:10;}
	.st31{fill:#F2F2F2;stroke:#20334A;stroke-width:3;stroke-miterlimit:10;}
</style>
<circle class="st0" cx="109.59" cy="111.59" r="100"/>
<g id="XMLID_7_">
	<g>
		<path class="st8" d="M56.09,111.59c0-29.55,23.95-53.5,53.5-53.5s53.5,23.95,53.5,53.5s-23.95,53.5-53.5,53.5
			S56.09,141.13,56.09,111.59z M109.58,69.25c-7.67,0-14.88,2.04-21.08,5.61c-6.41,3.69-11.77,9.01-15.5,15.4
			c-3.63,6.21-5.72,13.42-5.76,21.12c0,0.07,0,0.13,0,0.2c0,7.65,2.03,14.83,5.58,21.03c3.7,6.46,9.06,11.85,15.5,15.6
			c6.25,3.64,13.51,5.72,21.26,5.72s15.01-2.08,21.26-5.72c6.44-3.74,11.8-9.14,15.5-15.6c3.55-6.19,5.58-13.37,5.58-21.02
			c0-0.07,0-0.13,0-0.2c-0.03-7.7-2.13-14.92-5.75-21.12c-3.73-6.39-9.09-11.71-15.5-15.4C124.46,71.29,117.26,69.25,109.58,69.25z"
			/>
	</g>
	<g>
		<line class="st22" x1="92.75" y1="82.22" x2="88.5" y2="74.86"/>
		<circle class="st23" cx="109.58" cy="111.59" r="53.5"/>
		<path class="st23" d="M151.92,111.38c0,0.07,0,0.13,0,0.2c0,7.65-2.03,14.83-5.58,21.02c-3.7,6.47-9.07,11.86-15.5,15.6
			c-6.25,3.64-13.51,5.72-21.26,5.72s-15.01-2.08-21.26-5.72c-6.44-3.74-11.79-9.14-15.5-15.6c-3.55-6.2-5.58-13.37-5.58-21.03
			c0-0.07,0-0.13,0-0.2c0.03-7.7,2.13-14.92,5.76-21.12c3.73-6.39,9.08-11.71,15.5-15.4c6.21-3.57,13.41-5.61,21.08-5.61
			c7.68,0,14.88,2.04,21.09,5.61c6.41,3.69,11.76,9.01,15.5,15.4C149.8,96.47,151.89,103.68,151.92,111.38z"/>
		<polyline class="st22" points="109.58,82.22 109.58,69.25 109.58,69.24 		"/>
		<line class="st22" x1="109.58" y1="153.93" x2="109.58" y2="141.29"/>
		<line class="st22" x1="130.84" y1="148.21" x2="126.42" y2="140.54"/>
		<line class="st22" x1="80.42" y1="94.54" x2="73" y2="90.26"/>
		<line class="st22" x1="146.34" y1="132.61" x2="138.75" y2="128.22"/>
		<line class="st22" x1="80.1" y1="111.38" x2="67.25" y2="111.38"/>
		<line class="st22" x1="151.92" y1="111.38" x2="139.21" y2="111.38"/>
		<line class="st22" x1="80.42" y1="128.22" x2="72.83" y2="132.61"/>
		<line class="st22" x1="146.17" y1="90.26" x2="138.75" y2="94.54"/>
		<polyline class="st22" points="92.75,140.54 88.32,148.21 88.32,148.21 		"/>
		<line class="st22" x1="130.67" y1="74.86" x2="126.42" y2="82.22"/>
		<polyline class="st4" points="118.37,91.21 109.58,111.59 74.61,100.59 		"/>
	</g>
</g>
</svg>
