<?xml version="1.0" encoding="utf-8"?>
<!-- Generator: Adobe Illustrator 24.1.1, SVG Export Plug-In . SVG Version: 6.00 Build 0)  -->
<svg version="1.1" id="Camada_1" xmlns="http://www.w3.org/2000/svg" xmlns:xlink="http://www.w3.org/1999/xlink" x="0px" y="0px"
	 viewBox="0 0 139.91 273.63" style="enable-background:new 0 0 139.91 273.63;" xml:space="preserve">
<style type="text/css">
	.st0{fill:#D3D3D3;}
	.st1{fill:#9F9F9F;}
	.st2{fill:none;stroke:#9F9F9F;stroke-width:0.5;stroke-miterlimit:10;}
	.st3{fill:#727272;}
	.st4{fill:none;stroke:#727272;stroke-width:0.5;stroke-miterlimit:10;}
	.st5{fill:none;stroke:#D3D3D3;stroke-width:0.5;stroke-miterlimit:10;}
	.st6{opacity:0.3;fill:#BDBDBD;}
	.st7{fill:#18B4BF;}
	.st8{fill:#199EA8;}
	.st9{fill:#188892;}
	.st10{fill:#13737C;}
	.st11{fill:#0D5E65;}
	.st12{fill:#05484E;}
	.st13{fill:#003137;}
	.st14{fill:none;stroke:#0D5E65;stroke-width:0.5;stroke-miterlimit:10;}
	.st15{fill:#1997A1;}
	.st16{fill:none;stroke:#5C5C5C;stroke-width:0.25;stroke-miterlimit:10;}
	.st17{fill:#157A83;}
	.st18{fill:none;stroke:#13737C;stroke-width:0.5;stroke-miterlimit:10;}
	.st19{fill:#929191;}
	.st20{fill:none;stroke:#929191;stroke-width:0.5;stroke-miterlimit:10;}
	.st21{fill:#5C5C5C;}
	.st22{fill:none;stroke:#5C5C5C;stroke-width:0.5;stroke-miterlimit:10;}
	.st23{fill:none;stroke:#5C5C5C;stroke-width:0.75;stroke-miterlimit:10;}
	.st24{fill:none;stroke:#18B4BF;stroke-width:0.75;stroke-miterlimit:10;}
	.st25{fill:none;stroke:#18B4BF;stroke-width:0.25;stroke-miterlimit:10;}
	.st26{opacity:0.3;fill:#1E9BA3;}
	.st27{opacity:0.3;fill:#147D85;}
	.st28{opacity:0.3;fill:#0A5E65;}
	.st29{opacity:0.3;fill:#8A8A8A;}
	.st30{opacity:0.3;fill:#616262;}
	.st31{opacity:0.3;fill:#034146;}
	.st32{fill:#2B2B2B;}
</style>
<rect x="34.21" y="84.16" class="st15" width="20" height="15.92"/>
<rect x="85.71" y="39.6" class="st15" width="20" height="76.39"/>
<g>
	<path class="st8" d="M10.21,93.87H9.5v-3.43L8.45,90.8v-0.6l1.66-0.61h0.09V93.87z"/>
	<path class="st8" d="M14.47,92.08c0,0.61-0.12,1.08-0.34,1.39c-0.23,0.31-0.58,0.47-1.05,0.47c-0.46,0-0.81-0.15-1.04-0.46
		c-0.23-0.3-0.35-0.75-0.36-1.35v-0.74c0-0.61,0.12-1.07,0.35-1.38c0.23-0.31,0.58-0.46,1.05-0.46c0.47,0,0.81,0.15,1.04,0.45
		c0.23,0.3,0.35,0.75,0.35,1.34V92.08z M13.76,91.28c0-0.4-0.05-0.69-0.16-0.88s-0.28-0.28-0.52-0.28c-0.23,0-0.4,0.09-0.51,0.26
		s-0.17,0.45-0.17,0.83v0.97c0,0.4,0.06,0.7,0.17,0.89s0.29,0.29,0.52,0.29c0.23,0,0.4-0.09,0.51-0.27s0.17-0.46,0.17-0.85V91.28z"
		/>
	<path class="st8" d="M15.07,90.43c0-0.26,0.08-0.47,0.25-0.63c0.17-0.17,0.38-0.25,0.65-0.25c0.27,0,0.49,0.08,0.66,0.25
		c0.16,0.17,0.25,0.38,0.25,0.65v0.21c0,0.26-0.08,0.47-0.25,0.63c-0.17,0.16-0.38,0.25-0.65,0.25c-0.26,0-0.48-0.08-0.65-0.24
		c-0.17-0.16-0.26-0.38-0.26-0.65V90.43z M15.57,90.65c0,0.13,0.04,0.24,0.11,0.33c0.07,0.08,0.17,0.13,0.3,0.13
		c0.12,0,0.22-0.04,0.29-0.13s0.11-0.2,0.11-0.34v-0.21c0-0.13-0.04-0.25-0.11-0.33c-0.08-0.08-0.18-0.13-0.3-0.13
		c-0.12,0-0.22,0.04-0.29,0.13c-0.07,0.08-0.11,0.2-0.11,0.34V90.65z M16.12,93.55l-0.37-0.21l2.08-3.33l0.37,0.21L16.12,93.55z
		 M17.12,92.83c0-0.26,0.09-0.47,0.26-0.64s0.39-0.24,0.65-0.24c0.27,0,0.48,0.08,0.65,0.24c0.17,0.16,0.25,0.38,0.25,0.66v0.21
		c0,0.25-0.08,0.46-0.24,0.63c-0.16,0.17-0.38,0.25-0.65,0.25s-0.49-0.08-0.66-0.25c-0.17-0.16-0.25-0.38-0.25-0.65V92.83z
		 M17.62,93.05c0,0.13,0.04,0.24,0.12,0.33c0.08,0.08,0.18,0.13,0.3,0.13c0.13,0,0.22-0.04,0.29-0.12c0.07-0.08,0.11-0.19,0.11-0.34
		v-0.22c0-0.14-0.04-0.25-0.11-0.33s-0.17-0.12-0.29-0.12c-0.12,0-0.22,0.04-0.29,0.12c-0.08,0.08-0.11,0.2-0.11,0.34V93.05z"/>
</g>
<g>
	<path class="st8" d="M123.46,78.03h0.53v0.57h-0.53v0.95h-0.71V78.6h-1.84l-0.02-0.43l1.84-2.88h0.74V78.03z M121.63,78.03h1.12
		v-1.78l-0.05,0.09L121.63,78.03z"/>
	<path class="st8" d="M127.15,76.41c0,0.21-0.05,0.4-0.16,0.56s-0.25,0.29-0.44,0.38c0.22,0.1,0.39,0.25,0.51,0.42
		c0.12,0.18,0.18,0.38,0.18,0.61c0,0.38-0.13,0.67-0.38,0.89s-0.59,0.33-1.01,0.33c-0.42,0-0.76-0.11-1.02-0.33
		c-0.26-0.22-0.38-0.52-0.38-0.89c0-0.23,0.06-0.43,0.18-0.62s0.29-0.32,0.51-0.42c-0.18-0.09-0.33-0.22-0.44-0.38
		s-0.16-0.35-0.16-0.56c0-0.36,0.12-0.65,0.35-0.86s0.55-0.32,0.95-0.32c0.4,0,0.72,0.11,0.95,0.32
		C127.03,75.76,127.15,76.04,127.15,76.41z M126.53,78.35c0-0.21-0.06-0.38-0.19-0.51c-0.13-0.13-0.29-0.2-0.5-0.2
		s-0.37,0.06-0.5,0.19c-0.13,0.13-0.19,0.3-0.19,0.51c0,0.21,0.06,0.38,0.18,0.5s0.29,0.19,0.51,0.19s0.38-0.06,0.5-0.18
		C126.47,78.74,126.53,78.57,126.53,78.35z M126.44,76.43c0-0.19-0.05-0.34-0.16-0.46s-0.25-0.18-0.43-0.18s-0.33,0.06-0.43,0.17
		s-0.16,0.27-0.16,0.47c0,0.2,0.05,0.35,0.16,0.47c0.11,0.12,0.25,0.17,0.43,0.17s0.33-0.06,0.43-0.17S126.44,76.63,126.44,76.43z"
		/>
	<path class="st8" d="M127.84,76.1c0-0.26,0.08-0.47,0.25-0.63s0.38-0.25,0.65-0.25c0.27,0,0.49,0.08,0.66,0.25s0.25,0.38,0.25,0.65
		v0.21c0,0.26-0.08,0.47-0.25,0.63s-0.38,0.25-0.65,0.25c-0.26,0-0.48-0.08-0.65-0.24c-0.17-0.16-0.26-0.38-0.26-0.65V76.1z
		 M128.34,76.33c0,0.13,0.04,0.24,0.11,0.33c0.08,0.08,0.17,0.13,0.3,0.13c0.12,0,0.22-0.04,0.29-0.13c0.07-0.08,0.11-0.2,0.11-0.34
		V76.1c0-0.13-0.04-0.24-0.11-0.33c-0.08-0.08-0.17-0.13-0.3-0.13s-0.22,0.04-0.29,0.13c-0.07,0.08-0.11,0.2-0.11,0.34V76.33z
		 M128.89,79.23l-0.37-0.21l2.08-3.33l0.37,0.21L128.89,79.23z M129.89,78.5c0-0.26,0.08-0.47,0.25-0.64s0.39-0.24,0.65-0.24
		c0.27,0,0.48,0.08,0.65,0.24c0.17,0.16,0.25,0.38,0.25,0.66v0.21c0,0.25-0.08,0.46-0.25,0.63s-0.38,0.25-0.65,0.25
		c-0.27,0-0.49-0.08-0.66-0.24c-0.17-0.16-0.25-0.38-0.25-0.65V78.5z M130.39,78.73c0,0.13,0.04,0.24,0.12,0.33
		c0.08,0.08,0.18,0.13,0.3,0.13c0.13,0,0.22-0.04,0.29-0.12c0.07-0.08,0.11-0.2,0.11-0.34V78.5c0-0.14-0.04-0.25-0.11-0.33
		s-0.17-0.12-0.29-0.12c-0.12,0-0.22,0.04-0.29,0.12s-0.11,0.2-0.11,0.34V78.73z"/>
</g>
<polygon class="st27" points="54.21,84.16 85.71,39.6 85.71,115.99 54.21,100.08 "/>
<g>
	<path class="st32" d="M24.63,219.94v-3.06h-0.56v-0.47h0.56v-0.36c0-0.38,0.1-0.67,0.3-0.88c0.2-0.21,0.49-0.31,0.86-0.31
		c0.14,0,0.28,0.02,0.41,0.05l-0.03,0.49c-0.1-0.02-0.21-0.03-0.33-0.03c-0.2,0-0.35,0.06-0.45,0.17c-0.11,0.11-0.16,0.28-0.16,0.49
		v0.37h0.75v0.47h-0.75v3.06H24.63z"/>
	<path class="st32" d="M26.65,215.48c0-0.1,0.03-0.18,0.09-0.25c0.06-0.07,0.15-0.1,0.27-0.1c0.12,0,0.21,0.03,0.27,0.1
		c0.06,0.07,0.09,0.15,0.09,0.25c0,0.1-0.03,0.18-0.09,0.24c-0.06,0.07-0.15,0.1-0.27,0.1c-0.12,0-0.21-0.03-0.27-0.1
		C26.68,215.66,26.65,215.57,26.65,215.48z M27.3,219.94h-0.6v-3.53h0.6V219.94z"/>
	<path class="st32" d="M28.84,216.41l0.02,0.44c0.27-0.34,0.62-0.51,1.06-0.51c0.74,0,1.12,0.42,1.13,1.26v2.33h-0.6v-2.33
		c0-0.25-0.06-0.44-0.17-0.56c-0.11-0.12-0.29-0.18-0.53-0.18c-0.2,0-0.37,0.05-0.51,0.16c-0.15,0.1-0.26,0.24-0.35,0.41v2.51h-0.6
		v-3.53H28.84z"/>
	<path class="st32" d="M34.12,219.94c-0.04-0.07-0.06-0.19-0.09-0.37c-0.28,0.29-0.61,0.44-1,0.44c-0.35,0-0.63-0.1-0.86-0.3
		c-0.22-0.2-0.33-0.45-0.33-0.75c0-0.37,0.14-0.65,0.42-0.86c0.28-0.2,0.67-0.3,1.18-0.3h0.59v-0.28c0-0.21-0.06-0.38-0.19-0.5
		c-0.13-0.13-0.31-0.19-0.56-0.19c-0.22,0-0.4,0.05-0.54,0.16c-0.14,0.11-0.22,0.24-0.22,0.39h-0.61c0-0.18,0.06-0.35,0.19-0.51
		c0.12-0.16,0.29-0.29,0.51-0.39c0.21-0.1,0.45-0.14,0.71-0.14c0.41,0,0.72,0.1,0.95,0.3c0.23,0.2,0.35,0.48,0.36,0.84v1.62
		c0,0.32,0.04,0.58,0.12,0.77v0.05H34.12z M33.12,219.48c0.19,0,0.37-0.05,0.54-0.15c0.17-0.1,0.29-0.22,0.37-0.38v-0.72h-0.47
		c-0.74,0-1.11,0.22-1.11,0.65c0,0.19,0.06,0.34,0.19,0.44C32.77,219.42,32.93,219.48,33.12,219.48z"/>
	<path class="st32" d="M36.15,216.41l0.02,0.44c0.27-0.34,0.62-0.51,1.06-0.51c0.74,0,1.12,0.42,1.13,1.26v2.33h-0.6v-2.33
		c0-0.25-0.06-0.44-0.17-0.56c-0.11-0.12-0.29-0.18-0.53-0.18c-0.2,0-0.37,0.05-0.51,0.16c-0.15,0.1-0.26,0.24-0.35,0.41v2.51h-0.6
		v-3.53H36.15z"/>
	<path class="st32" d="M40.67,219.51c0.22,0,0.4-0.07,0.56-0.2c0.16-0.13,0.25-0.29,0.27-0.49h0.57c-0.01,0.2-0.08,0.39-0.21,0.58
		c-0.13,0.18-0.3,0.33-0.51,0.44c-0.21,0.11-0.44,0.16-0.68,0.16c-0.48,0-0.86-0.16-1.14-0.48c-0.28-0.32-0.42-0.76-0.42-1.32v-0.1
		c0-0.34,0.06-0.65,0.19-0.91c0.13-0.27,0.31-0.47,0.54-0.62c0.24-0.15,0.51-0.22,0.84-0.22c0.4,0,0.72,0.12,0.99,0.36
		c0.26,0.24,0.4,0.55,0.42,0.92H41.5c-0.02-0.23-0.1-0.42-0.26-0.56c-0.15-0.15-0.35-0.22-0.58-0.22c-0.31,0-0.54,0.11-0.71,0.33
		c-0.17,0.22-0.25,0.54-0.25,0.96v0.11c0,0.41,0.08,0.72,0.25,0.94C40.12,219.4,40.36,219.51,40.67,219.51z"/>
	<path class="st32" d="M44.21,220c-0.48,0-0.87-0.16-1.17-0.47c-0.3-0.31-0.45-0.73-0.45-1.26v-0.11c0-0.35,0.07-0.66,0.2-0.94
		c0.13-0.28,0.32-0.49,0.56-0.64c0.24-0.16,0.5-0.23,0.78-0.23c0.46,0,0.81,0.15,1.07,0.45c0.25,0.3,0.38,0.73,0.38,1.3v0.25H43.2
		c0.01,0.35,0.11,0.63,0.3,0.84c0.19,0.21,0.44,0.32,0.74,0.32c0.21,0,0.39-0.04,0.54-0.13c0.15-0.09,0.28-0.2,0.39-0.35l0.37,0.29
		C45.25,219.77,44.8,220,44.21,220z M44.14,216.84c-0.24,0-0.45,0.09-0.61,0.26c-0.16,0.18-0.27,0.43-0.31,0.74h1.77v-0.05
		c-0.02-0.31-0.1-0.54-0.25-0.71C44.59,216.93,44.39,216.84,44.14,216.84z"/>
	<path class="st32" d="M46.29,215.48c0-0.1,0.03-0.18,0.09-0.25c0.06-0.07,0.15-0.1,0.27-0.1c0.12,0,0.21,0.03,0.27,0.1
		c0.06,0.07,0.09,0.15,0.09,0.25c0,0.1-0.03,0.18-0.09,0.24c-0.06,0.07-0.15,0.1-0.27,0.1c-0.12,0-0.21-0.03-0.27-0.1
		C46.32,215.66,46.29,215.57,46.29,215.48z M46.94,219.94h-0.6v-3.53h0.6V219.94z"/>
	<path class="st32" d="M49.61,216.95c-0.09-0.01-0.19-0.02-0.3-0.02c-0.39,0-0.66,0.17-0.8,0.51v2.5h-0.6v-3.53h0.59l0.01,0.41
		c0.2-0.32,0.48-0.47,0.84-0.47c0.12,0,0.21,0.02,0.27,0.05V216.95z"/>
	<path class="st32" d="M49.94,218.14c0-0.34,0.07-0.66,0.2-0.93c0.14-0.28,0.32-0.49,0.57-0.64c0.24-0.15,0.52-0.22,0.83-0.22
		c0.48,0,0.87,0.17,1.16,0.5c0.3,0.33,0.44,0.77,0.44,1.33v0.04c0,0.34-0.07,0.65-0.2,0.92c-0.13,0.27-0.32,0.48-0.56,0.64
		c-0.24,0.15-0.53,0.23-0.84,0.23c-0.48,0-0.87-0.17-1.16-0.5c-0.3-0.33-0.44-0.77-0.44-1.32V218.14z M50.54,218.21
		c0,0.39,0.09,0.7,0.27,0.94s0.42,0.36,0.73,0.36c0.31,0,0.55-0.12,0.73-0.36c0.18-0.24,0.27-0.58,0.27-1.01
		c0-0.39-0.09-0.7-0.28-0.94c-0.18-0.24-0.43-0.36-0.73-0.36c-0.3,0-0.54,0.12-0.72,0.36C50.63,217.43,50.54,217.77,50.54,218.21z"
		/>
</g>
<rect x="10.6" y="213.49" class="st8" width="9" height="9"/>
</svg>
