<?xml version="1.0" encoding="utf-8"?>
<!-- Generator: Adobe Illustrator 24.1.1, SVG Export Plug-In . SVG Version: 6.00 Build 0)  -->
<svg version="1.1" id="Camada_1" xmlns="http://www.w3.org/2000/svg" xmlns:xlink="http://www.w3.org/1999/xlink" x="0px" y="0px"
	 viewBox="0 0 139.91 273.63" style="enable-background:new 0 0 139.91 273.63;" xml:space="preserve">
<style type="text/css">
	.st0{fill:#D3D3D3;}
	.st1{fill:#9F9F9F;}
	.st2{fill:none;stroke:#9F9F9F;stroke-width:0.5;stroke-miterlimit:10;}
	.st3{fill:#727272;}
	.st4{fill:none;stroke:#727272;stroke-width:0.5;stroke-miterlimit:10;}
	.st5{fill:none;stroke:#D3D3D3;stroke-width:0.5;stroke-miterlimit:10;}
	.st6{opacity:0.3;fill:#BDBDBD;}
	.st7{fill:#18B4BF;}
	.st8{fill:#199EA8;}
	.st9{fill:#188892;}
	.st10{fill:#13737C;}
	.st11{fill:#0D5E65;}
	.st12{fill:#05484E;}
	.st13{fill:#003137;}
	.st14{fill:none;stroke:#0D5E65;stroke-width:0.5;stroke-miterlimit:10;}
	.st15{fill:#1997A1;}
	.st16{fill:none;stroke:#5C5C5C;stroke-width:0.25;stroke-miterlimit:10;}
	.st17{fill:#157A83;}
	.st18{fill:none;stroke:#13737C;stroke-width:0.5;stroke-miterlimit:10;}
	.st19{fill:#929191;}
	.st20{fill:none;stroke:#929191;stroke-width:0.5;stroke-miterlimit:10;}
	.st21{fill:#5C5C5C;}
	.st22{fill:none;stroke:#5C5C5C;stroke-width:0.5;stroke-miterlimit:10;}
	.st23{fill:none;stroke:#5C5C5C;stroke-width:0.75;stroke-miterlimit:10;}
	.st24{fill:none;stroke:#18B4BF;stroke-width:0.75;stroke-miterlimit:10;}
	.st25{fill:none;stroke:#18B4BF;stroke-width:0.25;stroke-miterlimit:10;}
	.st26{opacity:0.3;fill:#1E9BA3;}
	.st27{opacity:0.3;fill:#147D85;}
	.st28{opacity:0.3;fill:#0A5E65;}
	.st29{opacity:0.3;fill:#8A8A8A;}
	.st30{opacity:0.3;fill:#616262;}
	.st31{opacity:0.3;fill:#034146;}
	.st32{fill:#2B2B2B;}
</style>
<rect x="34.21" y="100.08" class="st17" width="20" height="36.6"/>
<rect x="85.71" y="115.99" class="st17" width="20" height="6.37"/>
<g>
	<path class="st17" d="M11.15,120.13H8.28v-0.49l1.42-1.55c0.21-0.23,0.35-0.42,0.44-0.57c0.09-0.15,0.13-0.31,0.13-0.46
		c0-0.2-0.06-0.37-0.17-0.49c-0.11-0.13-0.27-0.19-0.46-0.19c-0.23,0-0.41,0.07-0.54,0.21s-0.19,0.33-0.19,0.58H8.2
		c0-0.26,0.06-0.49,0.18-0.7s0.29-0.37,0.51-0.49c0.22-0.12,0.47-0.17,0.76-0.17c0.41,0,0.74,0.1,0.98,0.31
		c0.24,0.21,0.36,0.5,0.36,0.86c0,0.21-0.06,0.44-0.18,0.67c-0.12,0.23-0.32,0.5-0.59,0.79l-1.04,1.12h1.98V120.13z"/>
	<path class="st17" d="M12.51,117.67h0.43c0.22,0,0.39-0.06,0.52-0.17s0.19-0.27,0.19-0.48c0-0.2-0.05-0.36-0.16-0.47
		c-0.11-0.11-0.27-0.17-0.49-0.17c-0.19,0-0.35,0.06-0.47,0.17s-0.18,0.25-0.18,0.43h-0.71c0-0.22,0.06-0.42,0.17-0.6
		c0.12-0.18,0.28-0.32,0.49-0.42c0.21-0.1,0.44-0.15,0.7-0.15c0.43,0,0.76,0.11,1,0.32c0.24,0.21,0.37,0.51,0.37,0.89
		c0,0.19-0.06,0.37-0.18,0.54s-0.28,0.3-0.47,0.38c0.23,0.08,0.41,0.21,0.54,0.38c0.12,0.17,0.18,0.38,0.18,0.62
		c0,0.38-0.13,0.69-0.39,0.91c-0.26,0.23-0.61,0.34-1.04,0.34c-0.41,0-0.75-0.11-1.01-0.33s-0.39-0.51-0.39-0.87h0.71
		c0,0.19,0.06,0.34,0.19,0.46c0.13,0.12,0.29,0.18,0.51,0.18c0.22,0,0.39-0.06,0.52-0.18s0.19-0.29,0.19-0.51
		c0-0.22-0.07-0.4-0.2-0.52s-0.33-0.18-0.59-0.18h-0.42V117.67z"/>
	<path class="st17" d="M15.07,116.69c0-0.26,0.08-0.47,0.25-0.63s0.38-0.25,0.65-0.25c0.27,0,0.49,0.08,0.66,0.25
		s0.25,0.38,0.25,0.65v0.21c0,0.26-0.08,0.47-0.25,0.63s-0.38,0.25-0.65,0.25c-0.26,0-0.48-0.08-0.65-0.24
		c-0.17-0.16-0.26-0.38-0.26-0.65V116.69z M15.57,116.91c0,0.13,0.04,0.24,0.11,0.33c0.08,0.08,0.17,0.13,0.3,0.13
		c0.12,0,0.22-0.04,0.29-0.13c0.07-0.08,0.11-0.2,0.11-0.34v-0.21c0-0.13-0.04-0.24-0.11-0.33c-0.08-0.08-0.17-0.13-0.3-0.13
		c-0.12,0-0.22,0.04-0.29,0.13c-0.07,0.08-0.11,0.2-0.11,0.34V116.91z M16.12,119.81l-0.37-0.21l2.08-3.33l0.37,0.21L16.12,119.81z
		 M17.12,119.09c0-0.26,0.08-0.47,0.25-0.64s0.39-0.24,0.65-0.24c0.27,0,0.48,0.08,0.65,0.24c0.17,0.16,0.25,0.38,0.25,0.66v0.21
		c0,0.25-0.08,0.46-0.25,0.63s-0.38,0.25-0.65,0.25s-0.49-0.08-0.66-0.24c-0.17-0.16-0.25-0.38-0.25-0.65V119.09z M17.62,119.31
		c0,0.13,0.04,0.24,0.12,0.33c0.08,0.08,0.18,0.13,0.3,0.13c0.13,0,0.22-0.04,0.29-0.12c0.07-0.08,0.11-0.2,0.11-0.34v-0.22
		c0-0.14-0.04-0.25-0.11-0.33s-0.17-0.12-0.29-0.12c-0.12,0-0.22,0.04-0.29,0.12s-0.11,0.2-0.11,0.34V119.31z"/>
</g>
<g>
	<path class="st17" d="M123.46,119.41h0.53v0.57h-0.53v0.95h-0.71v-0.95h-1.84l-0.02-0.43l1.84-2.88h0.74V119.41z M121.63,119.41
		h1.12v-1.78l-0.05,0.09L121.63,119.41z"/>
	<path class="st17" d="M124.43,117.48c0-0.26,0.08-0.47,0.25-0.63s0.38-0.25,0.65-0.25c0.27,0,0.49,0.08,0.66,0.25
		s0.25,0.38,0.25,0.65v0.21c0,0.26-0.08,0.47-0.25,0.63s-0.38,0.25-0.65,0.25c-0.26,0-0.48-0.08-0.65-0.24
		c-0.17-0.16-0.26-0.38-0.26-0.65V117.48z M124.93,117.71c0,0.13,0.04,0.24,0.11,0.33c0.08,0.08,0.17,0.13,0.3,0.13
		c0.12,0,0.22-0.04,0.29-0.13c0.07-0.08,0.11-0.2,0.11-0.34v-0.21c0-0.13-0.04-0.24-0.11-0.33c-0.08-0.08-0.17-0.13-0.3-0.13
		s-0.22,0.04-0.29,0.13c-0.07,0.08-0.11,0.2-0.11,0.34V117.71z M125.48,120.61l-0.37-0.21l2.08-3.33l0.37,0.21L125.48,120.61z
		 M126.48,119.88c0-0.26,0.08-0.47,0.25-0.64s0.39-0.24,0.65-0.24c0.27,0,0.48,0.08,0.65,0.24c0.17,0.16,0.25,0.38,0.25,0.66v0.21
		c0,0.25-0.08,0.46-0.25,0.63c-0.16,0.17-0.38,0.25-0.65,0.25s-0.49-0.08-0.66-0.24c-0.17-0.16-0.25-0.38-0.25-0.65V119.88z
		 M126.98,120.11c0,0.13,0.04,0.24,0.12,0.33c0.08,0.08,0.18,0.13,0.3,0.13c0.13,0,0.22-0.04,0.29-0.12
		c0.07-0.08,0.11-0.2,0.11-0.34v-0.22c0-0.14-0.04-0.25-0.11-0.33s-0.17-0.12-0.29-0.12c-0.12,0-0.22,0.04-0.29,0.12
		s-0.11,0.2-0.11,0.34V120.11z"/>
</g>
<polygon class="st28" points="54.21,100.08 85.71,115.99 85.71,122.36 54.21,136.68 "/>
<g>
	<path class="st32" d="M26.51,233.24c-0.04-0.07-0.06-0.19-0.09-0.37c-0.28,0.29-0.61,0.44-1,0.44c-0.35,0-0.63-0.1-0.86-0.3
		c-0.22-0.2-0.33-0.45-0.33-0.75c0-0.37,0.14-0.65,0.42-0.86c0.28-0.2,0.67-0.3,1.18-0.3h0.59v-0.28c0-0.21-0.06-0.38-0.19-0.5
		c-0.13-0.13-0.31-0.19-0.56-0.19c-0.22,0-0.4,0.05-0.54,0.16c-0.14,0.11-0.22,0.24-0.22,0.39H24.3c0-0.18,0.06-0.35,0.19-0.51
		c0.12-0.16,0.29-0.29,0.51-0.39c0.21-0.1,0.45-0.14,0.71-0.14c0.41,0,0.72,0.1,0.95,0.3c0.23,0.2,0.35,0.48,0.36,0.84v1.62
		c0,0.32,0.04,0.58,0.12,0.77v0.05H26.51z M25.51,232.78c0.19,0,0.37-0.05,0.54-0.15c0.17-0.1,0.29-0.22,0.37-0.38v-0.72h-0.47
		c-0.74,0-1.11,0.22-1.11,0.65c0,0.19,0.06,0.34,0.19,0.44C25.15,232.73,25.31,232.78,25.51,232.78z"/>
	<path class="st32" d="M30.95,231.51c0,0.54-0.12,0.97-0.37,1.3c-0.25,0.33-0.58,0.49-1,0.49c-0.45,0-0.79-0.16-1.03-0.47
		l-0.03,0.41h-0.55v-5h0.6v1.87c0.24-0.3,0.58-0.45,1.01-0.45c0.43,0,0.76,0.16,1.01,0.49c0.24,0.32,0.37,0.77,0.37,1.33V231.51z
		 M30.34,231.45c0-0.41-0.08-0.73-0.24-0.95c-0.16-0.22-0.39-0.34-0.68-0.34c-0.4,0-0.68,0.18-0.86,0.55v1.53
		c0.18,0.37,0.47,0.55,0.86,0.55c0.29,0,0.51-0.11,0.67-0.34C30.26,232.23,30.34,231.9,30.34,231.45z"/>
	<path class="st32" d="M33.88,233.24c-0.04-0.07-0.06-0.19-0.09-0.37c-0.28,0.29-0.61,0.44-1,0.44c-0.35,0-0.63-0.1-0.86-0.3
		c-0.22-0.2-0.33-0.45-0.33-0.75c0-0.37,0.14-0.65,0.42-0.86c0.28-0.2,0.67-0.3,1.18-0.3h0.59v-0.28c0-0.21-0.06-0.38-0.19-0.5
		c-0.13-0.13-0.31-0.19-0.56-0.19c-0.22,0-0.4,0.05-0.54,0.16c-0.14,0.11-0.22,0.24-0.22,0.39h-0.61c0-0.18,0.06-0.35,0.19-0.51
		c0.12-0.16,0.29-0.29,0.51-0.39c0.21-0.1,0.45-0.14,0.71-0.14c0.41,0,0.72,0.1,0.95,0.3c0.23,0.2,0.35,0.48,0.36,0.84v1.62
		c0,0.32,0.04,0.58,0.12,0.77v0.05H33.88z M32.88,232.78c0.19,0,0.37-0.05,0.54-0.15c0.17-0.1,0.29-0.22,0.37-0.38v-0.72h-0.47
		c-0.74,0-1.11,0.22-1.11,0.65c0,0.19,0.06,0.34,0.19,0.44C32.52,232.73,32.68,232.78,32.88,232.78z"/>
	<path class="st32" d="M35.9,229.71l0.02,0.44c0.27-0.34,0.62-0.51,1.06-0.51c0.74,0,1.12,0.42,1.13,1.26v2.33h-0.6v-2.33
		c0-0.25-0.06-0.44-0.17-0.56c-0.11-0.12-0.29-0.18-0.53-0.18c-0.2,0-0.37,0.05-0.51,0.16c-0.15,0.1-0.26,0.24-0.35,0.41v2.51h-0.6
		v-3.53H35.9z"/>
	<path class="st32" d="M38.87,231.45c0-0.54,0.13-0.98,0.38-1.3c0.26-0.33,0.59-0.49,1.01-0.49c0.41,0,0.74,0.14,0.98,0.42v-1.84
		h0.6v5h-0.55l-0.03-0.38c-0.24,0.3-0.58,0.44-1.01,0.44c-0.41,0-0.74-0.17-1-0.5c-0.26-0.34-0.39-0.77-0.39-1.31V231.45z
		 M39.47,231.51c0,0.4,0.08,0.71,0.25,0.94c0.16,0.22,0.39,0.34,0.68,0.34c0.38,0,0.66-0.17,0.84-0.51v-1.62
		c-0.18-0.33-0.46-0.5-0.83-0.5c-0.3,0-0.53,0.11-0.69,0.34C39.55,230.73,39.47,231.07,39.47,231.51z"/>
	<path class="st32" d="M42.62,231.44c0-0.34,0.07-0.66,0.2-0.93c0.14-0.28,0.32-0.49,0.57-0.64c0.24-0.15,0.52-0.22,0.83-0.22
		c0.48,0,0.87,0.17,1.16,0.5c0.3,0.33,0.44,0.77,0.44,1.33v0.04c0,0.34-0.07,0.65-0.2,0.92c-0.13,0.27-0.32,0.48-0.56,0.64
		c-0.24,0.15-0.53,0.23-0.84,0.23c-0.48,0-0.87-0.17-1.16-0.5c-0.3-0.33-0.44-0.77-0.44-1.32V231.44z M43.22,231.51
		c0,0.39,0.09,0.7,0.27,0.94s0.42,0.36,0.73,0.36c0.31,0,0.55-0.12,0.73-0.36c0.18-0.24,0.27-0.58,0.27-1.01
		c0-0.39-0.09-0.7-0.28-0.94c-0.18-0.24-0.43-0.36-0.73-0.36c-0.3,0-0.54,0.12-0.72,0.36C43.31,230.74,43.22,231.07,43.22,231.51z"
		/>
	<path class="st32" d="M47.15,229.71l0.02,0.44c0.27-0.34,0.62-0.51,1.06-0.51c0.74,0,1.12,0.42,1.13,1.26v2.33h-0.6v-2.33
		c0-0.25-0.06-0.44-0.17-0.56c-0.11-0.12-0.29-0.18-0.53-0.18c-0.2,0-0.37,0.05-0.51,0.16c-0.15,0.1-0.26,0.24-0.35,0.41v2.51h-0.6
		v-3.53H47.15z"/>
	<path class="st32" d="M50.1,231.44c0-0.34,0.07-0.66,0.2-0.93c0.14-0.28,0.32-0.49,0.57-0.64c0.24-0.15,0.52-0.22,0.83-0.22
		c0.48,0,0.87,0.17,1.16,0.5c0.3,0.33,0.44,0.77,0.44,1.33v0.04c0,0.34-0.07,0.65-0.2,0.92c-0.13,0.27-0.32,0.48-0.56,0.64
		c-0.24,0.15-0.53,0.23-0.84,0.23c-0.48,0-0.87-0.17-1.16-0.5c-0.3-0.33-0.44-0.77-0.44-1.32V231.44z M50.71,231.51
		c0,0.39,0.09,0.7,0.27,0.94s0.42,0.36,0.73,0.36c0.31,0,0.55-0.12,0.73-0.36c0.18-0.24,0.27-0.58,0.27-1.01
		c0-0.39-0.09-0.7-0.28-0.94c-0.18-0.24-0.43-0.36-0.73-0.36c-0.3,0-0.54,0.12-0.72,0.36C50.8,230.74,50.71,231.07,50.71,231.51z"/>
</g>
<rect x="10.6" y="226.79" class="st9" width="9" height="9"/>
</svg>
