<?xml version="1.0" encoding="utf-8"?>
<!-- Generator: Adobe Illustrator 24.1.1, SVG Export Plug-In . SVG Version: 6.00 Build 0)  -->
<svg version="1.1" id="Camada_1" xmlns="http://www.w3.org/2000/svg" xmlns:xlink="http://www.w3.org/1999/xlink" x="0px" y="0px"
	 viewBox="0 0 220 220" style="enable-background:new 0 0 220 220;" xml:space="preserve">
<style type="text/css">
	.st0{fill:#FFFFFF;stroke:#DEDEDE;stroke-width:7;stroke-linecap:round;stroke-linejoin:round;stroke-miterlimit:10;}
	.st1{fill:#FFFFFF;}
	.st2{fill:#282826;}
	.st3{fill:#AAB5C7;}
	.st4{fill:none;stroke:#20334A;stroke-width:3;stroke-linecap:round;stroke-linejoin:round;stroke-miterlimit:10;}
	.st5{fill:none;stroke:#20334A;stroke-width:3;stroke-linecap:round;stroke-linejoin:round;}
	.st6{fill:#D8D5D5;}
	.st7{fill:#2866AD;}
	.st8{fill:#FDA300;}
	.st9{fill:#6DCDD9;}
	.st10{fill:#F95000;}
	.st11{fill:#D8D5D5;stroke:#20334A;stroke-width:3;stroke-linecap:round;stroke-linejoin:round;stroke-miterlimit:10;}
	.st12{fill:#FFFFFF;stroke:#20334A;stroke-width:3;stroke-linecap:round;stroke-linejoin:round;stroke-miterlimit:10;}
	.st13{fill:#FDA300;stroke:#20334A;stroke-width:3;stroke-linecap:round;stroke-linejoin:round;stroke-miterlimit:10;}
	.st14{fill:#2866AD;stroke:#20334A;stroke-width:3;stroke-linecap:round;stroke-linejoin:round;}
	.st15{fill:#F1A019;}
	.st16{fill:#20334A;}
	.st17{fill:#F3F0F0;}
	.st18{fill:#F5A015;}
	.st19{fill:#72C6D3;}
	.st20{fill:#41AA7D;}
	.st21{fill:#E8521A;stroke:#20334A;stroke-width:3;stroke-miterlimit:10;}
	.st22{fill:#41AA7D;stroke:#20334A;stroke-width:3;stroke-linecap:round;stroke-linejoin:round;stroke-miterlimit:10;}
	.st23{fill:none;stroke:#20334A;stroke-width:3;stroke-linecap:round;stroke-miterlimit:10;}
	.st24{fill:none;stroke:#20334A;stroke-width:3;stroke-miterlimit:10;}
	.st25{fill:none;stroke:#1F344B;stroke-width:3;stroke-miterlimit:10;}
	.st26{fill:#6DCDD9;stroke:#20334A;stroke-width:3;stroke-linecap:round;stroke-linejoin:round;stroke-miterlimit:10;}
	.st27{fill:#A7CCC3;}
	.st28{fill:#41AA7D;stroke:#20334A;stroke-width:3;stroke-linecap:round;stroke-miterlimit:10;}
	.st29{fill:#AAB5C7;stroke:#20334A;stroke-width:3;stroke-linecap:round;stroke-miterlimit:10;}
	.st30{fill:#04A239;stroke:#20334A;stroke-width:3;stroke-linecap:round;stroke-linejoin:round;stroke-miterlimit:10;}
	.st31{fill:#FDB128;}
	.st32{fill:#F95000;stroke:#20334A;stroke-width:3;stroke-linecap:round;stroke-linejoin:round;stroke-miterlimit:10;}
	.st33{fill:#22B573;stroke:#20334A;stroke-width:3;stroke-linecap:round;stroke-linejoin:round;stroke-miterlimit:10;}
	.st34{fill:#F2F2F2;stroke:#20334A;stroke-width:3;stroke-miterlimit:10;}
	.st35{fill:#22344A;}
	.st36{fill:#2A66AE;}
	.st37{fill:none;stroke:#22344A;stroke-width:5;stroke-miterlimit:10;}
	.st38{fill:none;stroke:#22344A;stroke-width:4;stroke-miterlimit:10;}
	.st39{fill:none;stroke:#22344A;stroke-width:5;stroke-linecap:round;stroke-linejoin:round;stroke-miterlimit:10;}
	.st40{fill:#F6A217;}
	.st41{fill:#73CBE0;}
	.st42{fill:#FA6450;}
	.st43{fill:#9751CE;}
	.st44{fill:#6786E8;}
	.st45{fill:#95D861;}
	.st46{fill:#E73C1F;}
	.st47{fill:#61B5BC;}
	.st48{fill:#6ECCD9;}
	.st49{clip-path:url(#SVGID_2_);fill:#6ECCD9;}
	.st50{clip-path:url(#SVGID_4_);fill:#F59E26;}
	.st51{clip-path:url(#SVGID_6_);fill:#40AB91;}
	.st52{clip-path:url(#SVGID_8_);fill:#F57333;}
	.st53{clip-path:url(#SVGID_10_);fill:#12293B;}
	.st54{fill:#41AA7D;stroke:#20334A;stroke-width:3;stroke-miterlimit:10;}
</style>
<circle class="st0" cx="109.59" cy="111.59" r="100"/>
<g>
	<g id="XMLID_5_">
		<g>
			<path class="st1" d="M127.28,113.56c15.18,1.91,36.17,22.93,36.17,37.4c0,15.3-24.12,24.07-53.86,24.07
				c-29.75,0-53.86-8.77-53.86-24.07c0-14.47,20.99-35.49,36.17-37.4c4.67,4.88,11.11,7.53,17.69,7.54
				c4.17,0.01,8.39-1.05,12.25-3.29C123.89,116.63,125.71,115.19,127.28,113.56z"/>
			<path class="st1" d="M127.28,113.56c-1.56,1.63-3.38,3.07-5.43,4.25c-3.86,2.23-8.08,3.29-12.25,3.29
				c-6.58-0.01-13.02-2.66-17.69-7.54c-1.34-1.39-2.53-2.97-3.53-4.71c-4.53-7.85-4.23-17.18,0-24.51c2.08-3.61,5.11-6.74,8.97-8.97
				c3.87-2.23,8.09-3.29,12.25-3.29c8.46,0.01,16.69,4.4,21.22,12.25c4.53,7.85,4.22,17.18,0,24.51
				C129.84,110.54,128.66,112.12,127.28,113.56z M124.03,103.35c0-1.62-1.31-2.93-2.93-2.93c-1.62,0-2.93,1.31-2.93,2.93
				c0,1.62,1.31,2.93,2.93,2.93C122.71,106.29,124.03,104.98,124.03,103.35z M101.47,103.35c0-1.62-1.31-2.93-2.93-2.93
				c-1.62,0-2.93,1.31-2.93,2.93c0,1.62,1.31,2.93,2.93,2.93C100.15,106.29,101.47,104.98,101.47,103.35z"/>
			<path class="st16" d="M121.1,100.43c1.62,0,2.93,1.31,2.93,2.93c0,1.62-1.31,2.93-2.93,2.93c-1.62,0-2.93-1.31-2.93-2.93
				C118.16,101.74,119.48,100.43,121.1,100.43z"/>
			<path class="st16" d="M98.54,100.43c1.62,0,2.93,1.31,2.93,2.93c0,1.62-1.31,2.93-2.93,2.93c-1.62,0-2.93-1.31-2.93-2.93
				C95.6,101.74,96.92,100.43,98.54,100.43z"/>
		</g>
		<g>
			<line class="st4" x1="88.84" y1="62.46" x2="84.46" y2="54.88"/>
			<polyline class="st4" points="109.59,56.9 109.59,56.89 109.59,48.15 109.59,48.15 			"/>
			<line class="st4" x1="130.34" y1="62.46" x2="134.71" y2="54.88"/>
			<line class="st4" x1="145.53" y1="77.65" x2="153.11" y2="73.28"/>
			<line class="st4" x1="73.64" y1="77.65" x2="66.06" y2="73.28"/>
			<path class="st4" d="M91.9,113.56c-1.34-1.39-2.53-2.97-3.53-4.71c-4.53-7.85-4.23-17.18,0-24.51c2.08-3.61,5.11-6.74,8.97-8.97
				c3.87-2.23,8.09-3.29,12.25-3.29c8.46,0.01,16.69,4.4,21.22,12.25c4.53,7.85,4.22,17.18,0,24.51c-0.97,1.69-2.15,3.28-3.53,4.71
				c-1.56,1.63-3.38,3.07-5.43,4.25c-3.86,2.23-8.08,3.29-12.25,3.29C103.01,121.09,96.57,118.43,91.9,113.56z"/>
			<path class="st4" d="M91.9,113.56L91.9,113.56c-15.19,1.91-36.18,22.93-36.18,37.4c0,15.3,24.11,24.07,53.86,24.07
				c29.74,0,53.86-8.77,53.86-24.07c0-14.47-20.99-35.49-36.17-37.4h-0.01"/>
		</g>
	</g>
</g>
</svg>
