<?xml version="1.0" encoding="utf-8"?>
<!-- Generator: Adobe Illustrator 24.1.2, SVG Export Plug-In . SVG Version: 6.00 Build 0)  -->
<svg version="1.1" id="Camada_1" xmlns="http://www.w3.org/2000/svg" xmlns:xlink="http://www.w3.org/1999/xlink" x="0px" y="0px"
	 viewBox="0 0 454.22 81.41" style="enable-background:new 0 0 454.22 81.41;" xml:space="preserve">
<style type="text/css">
	.st0{fill:#2B2B2B;}
	.st1{fill:#969696;}
	.st2{fill:#E8A325;}
	.st3{fill:none;stroke:#969696;stroke-miterlimit:10;}
	.st4{fill:#FFFFFF;}
	.st5{fill:none;stroke:#E8A325;stroke-width:0.75;stroke-linecap:round;stroke-miterlimit:10;stroke-dasharray:5.0257,12.0616;}
	.st6{fill:#474747;}
	.st7{fill:none;stroke:#E8A325;stroke-width:5;stroke-linecap:round;stroke-miterlimit:10;}
	.st8{fill:none;stroke:#969696;stroke-width:2;stroke-linecap:round;stroke-miterlimit:10;stroke-dasharray:5,13;}
	.st9{opacity:0.17;fill:none;stroke:#B2B2B2;stroke-width:3;enable-background:new    ;}
	.st10{opacity:0.17;}
	.st11{fill:none;stroke:#B2B2B2;stroke-width:3;}
	.st12{fill:#B2B2B2;}
	.st13{fill:none;stroke:#FFFFFF;stroke-width:5;stroke-miterlimit:10;}
	.st14{fill:none;stroke:#E8A325;stroke-linecap:round;stroke-miterlimit:10;}
	.st15{fill:none;stroke:#E8A325;stroke-width:0.5;stroke-miterlimit:10;}
	.st16{fill:#E49412;stroke:#E8A325;stroke-width:0.5;stroke-miterlimit:10;}
	.st17{fill:none;stroke:#FFFFFF;stroke-width:3;stroke-miterlimit:10;}
	.st18{fill:#F7A416;}
	.st19{fill:#454545;}
	.st20{fill:#343434;}
	.st21{fill:#F4F4F4;}
</style>
<g>
	<g>
		<path class="st2" d="M18.82,33.88c-0.06,0.01-0.13,0.03-0.19,0.04c-4.08,0.85-7.61,3.62-9.9,7.1c-2.29,3.48-3.43,7.62-3.85,11.77
			c-0.16,1.59-0.22,3.19-0.28,4.79c-0.07,1.82-0.13,3.65-0.2,5.48c-0.03,0.97-0.07,1.95,0.1,2.9c0.5,2.81,2.73,5.07,5.31,6.28
			c2.58,1.22,5.47,1.55,8.31,1.75c6.05,0.44,12.14,0.38,18.18-0.17c2.33-0.21,4.7-0.51,6.83-1.47c2.14-0.96,4.04-2.68,4.7-4.93
			c0.45-1.56,0.28-3.21,0.07-4.82c-0.75-5.67-1.97-11.28-3.63-16.75c-0.64-2.11-1.37-4.22-2.56-6.08c-1.98-3.06-5.26-5.26-8.85-5.92
			"/>
		<g>
			<path class="st4" d="M18.82,32.58c-8.4,0.26-13.78,9.65-15.24,16.87C2.61,54.27,2.33,59.61,2.49,64.5
				c0.13,3.89,2.29,7.11,5.66,9.02c4.08,2.3,9.15,2.42,13.71,2.59c5.47,0.22,11.01,0.12,16.44-0.57c3.99-0.51,8.12-1.84,10.4-5.4
				c2.5-3.89,1.05-9.16,0.28-13.38c-1.79-9.92-4.1-22.42-15.58-24.93c-2.62-0.57-3.73,3.45-1.11,4.02c5.01,1.09,7.96,4.44,9.56,9.18
				c1.64,4.84,2.81,9.87,3.65,14.91c0.41,2.43,1.31,5.61,0.02,7.9c-1.17,2.08-3.55,3.03-5.76,3.53c-4.88,1.11-10.25,1.03-15.23,0.97
				c-4.63-0.06-10.3,0.23-14.47-2.11c-4.89-2.74-3.74-7.87-3.62-12.66c0.13-4.83,0.49-9.67,2.74-14.05c2.2-4.28,5.57-6.68,9.96-8.38
				C20.44,34.64,20.39,32.53,18.82,32.58L18.82,32.58z"/>
		</g>
	</g>
	<g>
		<path class="st2" d="M30.15,7.9c-6.52-1.81-13.92,1.47-17.48,7.22c-0.7,1.13-1.27,2.35-1.52,3.65c-0.3,1.5-0.18,3.06,0.13,4.56
			c0.92,4.5,3.75,8.78,7.98,10.59c3.05,1.31,6.53,1.23,9.79,0.62c2.3-0.43,4.61-1.14,6.43-2.61c2.96-2.38,4.18-6.47,3.83-10.26
			c-0.35-3.79-2.04-7.32-4.03-10.57c-0.44-0.71-0.9-1.42-1.52-1.99c-1.84-1.67-4.61-1.69-7.1-1.61"/>
		<g>
			<path class="st4" d="M30.58,7.16c-4.9-3.63-13.18,0.43-16.85,4.11c-5.17,5.19-5.5,12.45-1.61,18.53
				c4.2,6.56,11.91,8.14,19.15,6.24c7.07-1.86,10.85-8.15,9.94-15.31c-0.54-4.2-2.54-8.69-5.17-12.01
				c-2.37-2.98-6.29-3.54-9.88-2.98c-2.2,0.34-1.39,3.41,0.49,3.6c1.71,0.18,3.54-0.06,5.08,0.84c1.55,0.91,2.42,2.86,3.22,4.42
				c1.5,2.89,2.68,6.21,2.35,9.52c-0.79,7.85-10.66,10.81-17.27,8.2c-6.65-2.62-9.52-11.82-5.21-17.52c1.84-2.44,4.45-4.25,7.35-5.2
				c2.76-0.91,5.44-0.45,8.21-0.88C31.2,8.61,31.1,7.55,30.58,7.16L30.58,7.16z"/>
		</g>
	</g>
</g>
<g>
	<g>
		<path class="st2" d="M79.94,33.88c-0.06,0.01-0.13,0.03-0.19,0.04c-4.08,0.85-7.61,3.62-9.9,7.1c-2.29,3.48-3.43,7.62-3.85,11.77
			c-0.16,1.59-0.22,3.19-0.28,4.79c-0.07,1.82-0.13,3.65-0.2,5.48c-0.03,0.97-0.07,1.95,0.1,2.9c0.5,2.81,2.73,5.07,5.31,6.28
			c2.58,1.22,5.47,1.55,8.31,1.75c6.05,0.44,12.14,0.38,18.19-0.17c2.33-0.21,4.7-0.51,6.83-1.47c2.14-0.96,4.04-2.68,4.7-4.93
			c0.45-1.56,0.28-3.21,0.07-4.82c-0.75-5.67-1.97-11.28-3.63-16.75c-0.64-2.11-1.37-4.22-2.56-6.08c-1.98-3.06-5.26-5.26-8.85-5.92
			"/>
		<g>
			<path class="st4" d="M79.94,32.58c-8.4,0.26-13.78,9.65-15.24,16.87c-0.97,4.81-1.25,10.15-1.09,15.05
				c0.13,3.89,2.29,7.11,5.66,9.02c4.08,2.3,9.15,2.42,13.71,2.59c5.47,0.22,11.01,0.12,16.44-0.57c3.99-0.51,8.12-1.84,10.4-5.4
				c2.5-3.89,1.05-9.16,0.28-13.38c-1.79-9.92-4.1-22.42-15.58-24.93c-2.62-0.57-3.73,3.45-1.11,4.02c5.01,1.09,7.95,4.44,9.56,9.18
				c1.64,4.84,2.81,9.87,3.65,14.91c0.41,2.43,1.31,5.61,0.02,7.9c-1.17,2.08-3.55,3.03-5.76,3.53c-4.88,1.11-10.25,1.03-15.23,0.97
				c-4.63-0.06-10.3,0.23-14.47-2.11c-4.89-2.74-3.74-7.87-3.62-12.66c0.13-4.83,0.49-9.67,2.74-14.05c2.2-4.28,5.57-6.68,9.96-8.38
				C81.57,34.64,81.51,32.53,79.94,32.58L79.94,32.58z"/>
		</g>
	</g>
	<g>
		<path class="st2" d="M91.27,7.9c-6.52-1.81-13.92,1.47-17.48,7.22c-0.7,1.13-1.27,2.35-1.52,3.65c-0.3,1.5-0.18,3.06,0.13,4.56
			c0.92,4.5,3.75,8.78,7.98,10.59c3.05,1.31,6.53,1.23,9.79,0.62c2.3-0.43,4.61-1.14,6.43-2.61c2.96-2.38,4.18-6.47,3.83-10.26
			c-0.34-3.79-2.04-7.32-4.03-10.57c-0.44-0.71-0.9-1.42-1.52-1.99c-1.84-1.67-4.61-1.69-7.1-1.61"/>
		<g>
			<path class="st4" d="M91.71,7.16c-4.9-3.63-13.18,0.43-16.85,4.11c-5.17,5.19-5.5,12.45-1.61,18.53
				c4.2,6.56,11.91,8.14,19.15,6.24c7.07-1.86,10.85-8.15,9.94-15.31c-0.54-4.2-2.54-8.69-5.17-12.01
				c-2.37-2.98-6.29-3.54-9.88-2.98c-2.2,0.34-1.39,3.41,0.49,3.6c1.71,0.18,3.54-0.06,5.08,0.84c1.55,0.91,2.42,2.86,3.22,4.42
				c1.5,2.89,2.68,6.21,2.35,9.52c-0.79,7.85-10.66,10.81-17.27,8.2c-6.65-2.62-9.52-11.82-5.21-17.52c1.85-2.44,4.46-4.25,7.35-5.2
				c2.76-0.91,5.44-0.45,8.21-0.88C92.32,8.61,92.23,7.55,91.71,7.16L91.71,7.16z"/>
		</g>
	</g>
</g>
<g>
	<g>
		<path class="st2" d="M141.06,33.88c-0.06,0.01-0.13,0.03-0.19,0.04c-4.08,0.85-7.61,3.62-9.9,7.1c-2.29,3.48-3.43,7.62-3.85,11.77
			c-0.16,1.59-0.22,3.19-0.28,4.79c-0.07,1.82-0.13,3.65-0.2,5.48c-0.03,0.97-0.07,1.95,0.1,2.9c0.5,2.81,2.73,5.07,5.31,6.28
			c2.58,1.22,5.47,1.55,8.31,1.75c6.05,0.44,12.14,0.38,18.19-0.17c2.33-0.21,4.7-0.51,6.83-1.47c2.14-0.96,4.04-2.68,4.7-4.93
			c0.45-1.56,0.28-3.21,0.07-4.82c-0.75-5.67-1.97-11.28-3.63-16.75c-0.64-2.11-1.37-4.22-2.56-6.08c-1.98-3.06-5.26-5.26-8.85-5.92
			"/>
		<g>
			<path class="st4" d="M141.06,32.58c-8.4,0.26-13.78,9.65-15.24,16.87c-0.97,4.81-1.25,10.15-1.09,15.05
				c0.13,3.89,2.29,7.11,5.66,9.02c4.08,2.3,9.15,2.42,13.71,2.59c5.47,0.22,11.01,0.12,16.44-0.57c3.99-0.51,8.12-1.84,10.4-5.4
				c2.5-3.89,1.05-9.16,0.28-13.38c-1.79-9.92-4.1-22.42-15.58-24.93c-2.62-0.57-3.73,3.45-1.11,4.02c5.01,1.09,7.95,4.44,9.56,9.18
				c1.64,4.84,2.81,9.87,3.65,14.91c0.41,2.43,1.31,5.61,0.02,7.9c-1.17,2.08-3.55,3.03-5.76,3.53c-4.88,1.11-10.25,1.03-15.23,0.97
				c-4.63-0.06-10.3,0.23-14.47-2.11c-4.89-2.74-3.74-7.87-3.62-12.66c0.13-4.83,0.49-9.67,2.74-14.05c2.2-4.28,5.57-6.68,9.96-8.38
				C142.69,34.64,142.64,32.53,141.06,32.58L141.06,32.58z"/>
		</g>
	</g>
	<g>
		<path class="st2" d="M152.4,7.9c-6.52-1.81-13.92,1.47-17.48,7.22c-0.7,1.13-1.27,2.35-1.52,3.65c-0.3,1.5-0.18,3.06,0.13,4.56
			c0.92,4.5,3.75,8.78,7.98,10.59c3.05,1.31,6.53,1.23,9.79,0.62c2.3-0.43,4.61-1.14,6.43-2.61c2.96-2.38,4.18-6.47,3.83-10.26
			c-0.34-3.79-2.04-7.32-4.03-10.57c-0.44-0.71-0.9-1.42-1.52-1.99c-1.84-1.67-4.61-1.69-7.1-1.61"/>
		<g>
			<path class="st4" d="M152.83,7.16c-4.9-3.63-13.18,0.43-16.85,4.11c-5.17,5.19-5.5,12.45-1.61,18.53
				c4.2,6.56,11.91,8.14,19.15,6.24c7.07-1.86,10.85-8.15,9.94-15.31c-0.54-4.2-2.54-8.69-5.17-12.01
				c-2.37-2.98-6.29-3.54-9.88-2.98c-2.2,0.34-1.39,3.41,0.49,3.6c1.71,0.18,3.54-0.06,5.08,0.84c1.55,0.91,2.42,2.86,3.22,4.42
				c1.5,2.89,2.68,6.21,2.35,9.52c-0.79,7.85-10.66,10.81-17.27,8.2c-6.65-2.62-9.52-11.82-5.21-17.52c1.85-2.44,4.46-4.25,7.35-5.2
				c2.76-0.91,5.44-0.45,8.21-0.88C153.44,8.61,153.35,7.55,152.83,7.16L152.83,7.16z"/>
		</g>
	</g>
</g>
<g>
	<g>
		<path class="st2" d="M202.19,33.88c-0.06,0.01-0.13,0.03-0.19,0.04c-4.08,0.85-7.61,3.62-9.9,7.1s-3.43,7.62-3.85,11.77
			c-0.16,1.59-0.22,3.19-0.28,4.79c-0.07,1.82-0.13,3.65-0.2,5.48c-0.03,0.97-0.07,1.95,0.1,2.9c0.5,2.81,2.73,5.07,5.31,6.28
			c2.58,1.22,5.47,1.55,8.31,1.75c6.05,0.44,12.14,0.38,18.18-0.17c2.33-0.21,4.7-0.51,6.83-1.47c2.14-0.96,4.04-2.68,4.7-4.93
			c0.45-1.56,0.28-3.21,0.07-4.82c-0.75-5.67-1.97-11.28-3.63-16.75c-0.64-2.11-1.37-4.22-2.56-6.08c-1.98-3.06-5.26-5.26-8.85-5.92
			"/>
		<g>
			<path class="st4" d="M202.19,32.58c-8.4,0.26-13.78,9.65-15.24,16.87c-0.97,4.81-1.25,10.15-1.09,15.05
				c0.13,3.89,2.29,7.11,5.66,9.02c4.08,2.3,9.15,2.42,13.71,2.59c5.47,0.22,11.01,0.12,16.44-0.57c3.99-0.51,8.12-1.84,10.4-5.4
				c2.5-3.89,1.05-9.16,0.28-13.38c-1.79-9.92-4.1-22.42-15.58-24.93c-2.62-0.57-3.73,3.45-1.11,4.02c5.01,1.09,7.96,4.44,9.56,9.18
				c1.64,4.84,2.81,9.87,3.65,14.91c0.41,2.43,1.31,5.61,0.02,7.9c-1.17,2.08-3.55,3.03-5.76,3.53c-4.88,1.11-10.25,1.03-15.23,0.97
				c-4.63-0.06-10.3,0.23-14.47-2.11c-4.89-2.74-3.74-7.87-3.62-12.66c0.13-4.83,0.49-9.67,2.74-14.05c2.2-4.28,5.57-6.68,9.96-8.38
				C203.81,34.64,203.76,32.53,202.19,32.58L202.19,32.58z"/>
		</g>
	</g>
	<g>
		<path class="st2" d="M213.52,7.9c-6.52-1.81-13.92,1.47-17.48,7.22c-0.7,1.13-1.27,2.35-1.52,3.65c-0.3,1.5-0.18,3.06,0.13,4.56
			c0.92,4.5,3.75,8.78,7.98,10.59c3.05,1.31,6.53,1.23,9.79,0.62c2.3-0.43,4.61-1.14,6.43-2.61c2.96-2.38,4.18-6.47,3.83-10.26
			c-0.35-3.79-2.04-7.32-4.03-10.57c-0.44-0.71-0.9-1.42-1.52-1.99c-1.84-1.67-4.61-1.69-7.1-1.61"/>
		<g>
			<path class="st4" d="M213.96,7.16c-4.9-3.63-13.18,0.43-16.85,4.11c-5.17,5.19-5.5,12.45-1.61,18.53
				c4.2,6.56,11.91,8.14,19.15,6.24c7.07-1.86,10.85-8.15,9.94-15.31c-0.54-4.2-2.54-8.69-5.17-12.01
				c-2.37-2.98-6.29-3.54-9.88-2.98c-2.2,0.34-1.39,3.41,0.49,3.6c1.71,0.18,3.54-0.06,5.08,0.84c1.55,0.91,2.42,2.86,3.22,4.42
				c1.5,2.89,2.68,6.21,2.35,9.52c-0.79,7.85-10.66,10.81-17.27,8.2c-6.65-2.62-9.52-11.82-5.21-17.52c1.84-2.44,4.45-4.25,7.35-5.2
				c2.76-0.91,5.44-0.45,8.21-0.88C214.57,8.61,214.47,7.55,213.96,7.16L213.96,7.16z"/>
		</g>
	</g>
</g>
<g>
	<g>
		<path class="st2" d="M263.32,33.88c-0.06,0.01-0.13,0.03-0.19,0.04c-4.08,0.85-7.61,3.62-9.9,7.1c-2.29,3.48-3.43,7.62-3.85,11.77
			c-0.16,1.59-0.22,3.19-0.28,4.79c-0.07,1.82-0.13,3.65-0.2,5.48c-0.03,0.97-0.07,1.95,0.1,2.9c0.5,2.81,2.73,5.07,5.31,6.28
			c2.58,1.22,5.47,1.55,8.31,1.75c6.05,0.44,12.14,0.38,18.18-0.17c2.33-0.21,4.7-0.51,6.83-1.47c2.14-0.96,4.04-2.68,4.7-4.93
			c0.45-1.56,0.28-3.21,0.07-4.82c-0.75-5.67-1.97-11.28-3.63-16.75c-0.64-2.11-1.37-4.22-2.56-6.08c-1.98-3.06-5.26-5.26-8.85-5.92
			"/>
		<g>
			<path class="st4" d="M263.32,32.58c-8.4,0.26-13.78,9.65-15.24,16.87c-0.97,4.81-1.25,10.15-1.09,15.05
				c0.13,3.89,2.29,7.11,5.66,9.02c4.08,2.3,9.15,2.42,13.71,2.59c5.47,0.22,11.01,0.12,16.44-0.57c3.99-0.51,8.12-1.84,10.4-5.4
				c2.5-3.89,1.05-9.16,0.28-13.38c-1.79-9.92-4.1-22.42-15.58-24.93c-2.62-0.57-3.73,3.45-1.11,4.02c5.01,1.09,7.96,4.44,9.56,9.18
				c1.64,4.84,2.81,9.87,3.65,14.91c0.41,2.43,1.31,5.61,0.02,7.9c-1.17,2.08-3.55,3.03-5.76,3.53c-4.88,1.11-10.25,1.03-15.23,0.97
				c-4.63-0.06-10.3,0.23-14.47-2.11c-4.89-2.74-3.74-7.87-3.62-12.66c0.13-4.83,0.49-9.67,2.74-14.05c2.2-4.28,5.57-6.68,9.96-8.38
				C264.94,34.64,264.88,32.53,263.32,32.58L263.32,32.58z"/>
		</g>
	</g>
	<g>
		<path class="st2" d="M274.65,7.9c-6.52-1.81-13.92,1.47-17.48,7.22c-0.7,1.13-1.27,2.35-1.52,3.65c-0.3,1.5-0.18,3.06,0.13,4.56
			c0.92,4.5,3.75,8.78,7.98,10.59c3.05,1.31,6.53,1.23,9.79,0.62c2.3-0.43,4.61-1.14,6.43-2.61c2.96-2.38,4.18-6.47,3.83-10.26
			c-0.35-3.79-2.04-7.32-4.03-10.57c-0.44-0.71-0.9-1.42-1.52-1.99c-1.84-1.67-4.61-1.69-7.1-1.61"/>
		<g>
			<path class="st4" d="M275.08,7.16c-4.9-3.63-13.18,0.43-16.85,4.11c-5.17,5.19-5.5,12.45-1.61,18.53
				c4.2,6.56,11.91,8.14,19.15,6.24c7.07-1.86,10.85-8.15,9.94-15.31c-0.54-4.2-2.54-8.69-5.17-12.01
				c-2.37-2.98-6.29-3.54-9.88-2.98c-2.2,0.34-1.39,3.41,0.49,3.6c1.71,0.18,3.54-0.06,5.08,0.84c1.55,0.91,2.42,2.86,3.22,4.42
				c1.5,2.89,2.68,6.21,2.35,9.52c-0.79,7.85-10.66,10.81-17.27,8.2c-6.65-2.62-9.52-11.82-5.21-17.52c1.84-2.44,4.46-4.25,7.35-5.2
				c2.76-0.91,5.44-0.45,8.21-0.88C275.69,8.61,275.6,7.55,275.08,7.16L275.08,7.16z"/>
		</g>
	</g>
</g>
<g>
	<g>
		<path class="st2" d="M324.44,33.88c-0.06,0.01-0.13,0.03-0.19,0.04c-4.08,0.85-7.61,3.62-9.9,7.1c-2.29,3.48-3.43,7.62-3.85,11.77
			c-0.16,1.59-0.22,3.19-0.28,4.79c-0.07,1.82-0.13,3.65-0.2,5.48c-0.03,0.97-0.07,1.95,0.1,2.9c0.5,2.81,2.73,5.07,5.31,6.28
			c2.58,1.22,5.47,1.55,8.31,1.75c6.05,0.44,12.14,0.38,18.19-0.17c2.33-0.21,4.7-0.51,6.83-1.47c2.14-0.96,4.04-2.68,4.7-4.93
			c0.45-1.56,0.28-3.21,0.07-4.82c-0.75-5.67-1.97-11.28-3.63-16.75c-0.64-2.11-1.37-4.22-2.56-6.08c-1.98-3.06-5.26-5.26-8.85-5.92
			"/>
		<g>
			<path class="st4" d="M324.44,32.58c-8.4,0.26-13.78,9.65-15.24,16.87c-0.97,4.81-1.25,10.15-1.09,15.05
				c0.13,3.89,2.29,7.11,5.66,9.02c4.08,2.3,9.15,2.42,13.71,2.59c5.47,0.22,11.01,0.12,16.44-0.57c3.99-0.51,8.12-1.84,10.4-5.4
				c2.5-3.89,1.05-9.16,0.28-13.38c-1.79-9.92-4.1-22.42-15.58-24.93c-2.62-0.57-3.73,3.45-1.11,4.02c5.01,1.09,7.95,4.44,9.56,9.18
				c1.64,4.84,2.81,9.87,3.65,14.91c0.41,2.43,1.31,5.61,0.02,7.9c-1.17,2.08-3.55,3.03-5.76,3.53c-4.88,1.11-10.25,1.03-15.23,0.97
				c-4.63-0.06-10.3,0.23-14.47-2.11c-4.89-2.74-3.74-7.87-3.62-12.66c0.13-4.83,0.49-9.67,2.74-14.05c2.2-4.28,5.57-6.68,9.96-8.38
				C326.06,34.64,326.01,32.53,324.44,32.58L324.44,32.58z"/>
		</g>
	</g>
	<g>
		<path class="st2" d="M335.77,7.9c-6.52-1.81-13.92,1.47-17.48,7.22c-0.7,1.13-1.27,2.35-1.52,3.65c-0.3,1.5-0.18,3.06,0.13,4.56
			c0.92,4.5,3.75,8.78,7.98,10.59c3.05,1.31,6.53,1.23,9.79,0.62c2.3-0.43,4.61-1.14,6.43-2.61c2.96-2.38,4.18-6.47,3.83-10.26
			c-0.34-3.79-2.04-7.32-4.03-10.57c-0.44-0.71-0.9-1.42-1.52-1.99c-1.84-1.67-4.61-1.69-7.1-1.61"/>
		<g>
			<path class="st4" d="M336.2,7.16c-4.9-3.63-13.18,0.43-16.85,4.11c-5.17,5.19-5.5,12.45-1.61,18.53
				c4.2,6.56,11.91,8.14,19.15,6.24c7.07-1.86,10.85-8.15,9.94-15.31c-0.54-4.2-2.54-8.69-5.17-12.01
				c-2.37-2.98-6.29-3.54-9.88-2.98c-2.2,0.34-1.39,3.41,0.49,3.6c1.71,0.18,3.54-0.06,5.08,0.84c1.55,0.91,2.42,2.86,3.22,4.42
				c1.5,2.89,2.68,6.21,2.35,9.52c-0.79,7.85-10.66,10.81-17.27,8.2c-6.65-2.62-9.52-11.82-5.21-17.52c1.85-2.44,4.46-4.25,7.35-5.2
				c2.76-0.91,5.44-0.45,8.21-0.88C336.82,8.61,336.72,7.55,336.2,7.16L336.2,7.16z"/>
		</g>
	</g>
</g>
<g>
	<g>
		<g>
			<path class="st12" d="M385.56,32.58c-8.4,0.26-13.78,9.65-15.24,16.87c-0.97,4.81-1.25,10.15-1.09,15.05
				c0.13,3.89,2.29,7.11,5.66,9.02c4.08,2.3,9.15,2.42,13.71,2.59c5.47,0.22,11.01,0.12,16.44-0.57c3.99-0.51,8.12-1.84,10.4-5.4
				c2.5-3.89,1.05-9.16,0.28-13.38c-1.79-9.92-4.1-22.42-15.58-24.93c-2.62-0.57-3.73,3.45-1.11,4.02c5.01,1.09,7.95,4.44,9.56,9.18
				c1.64,4.84,2.81,9.87,3.65,14.91c0.41,2.43,1.31,5.61,0.02,7.9c-1.17,2.08-3.55,3.03-5.76,3.53c-4.88,1.11-10.25,1.03-15.23,0.97
				c-4.63-0.06-10.3,0.23-14.47-2.11c-4.89-2.74-3.74-7.87-3.62-12.66c0.13-4.83,0.49-9.67,2.74-14.05c2.2-4.28,5.57-6.68,9.96-8.38
				C387.19,34.64,387.14,32.53,385.56,32.58L385.56,32.58z"/>
		</g>
	</g>
	<g>
		<g>
			<path class="st12" d="M397.33,7.16c-4.9-3.63-13.18,0.43-16.85,4.11c-5.17,5.19-5.5,12.45-1.61,18.53
				c4.2,6.56,11.91,8.14,19.15,6.24c7.07-1.86,10.85-8.15,9.94-15.31c-0.54-4.2-2.54-8.69-5.17-12.01
				c-2.37-2.98-6.29-3.54-9.88-2.98c-2.2,0.34-1.39,3.41,0.49,3.6c1.71,0.18,3.54-0.06,5.08,0.84c1.55,0.91,2.42,2.86,3.22,4.42
				c1.5,2.89,2.68,6.21,2.35,9.52c-0.79,7.85-10.66,10.81-17.27,8.2c-6.65-2.62-9.52-11.82-5.21-17.52c1.85-2.44,4.46-4.25,7.35-5.2
				c2.76-0.91,5.44-0.45,8.21-0.88C397.94,8.61,397.85,7.55,397.33,7.16L397.33,7.16z"/>
		</g>
	</g>
</g>
</svg>
