<?xml version="1.0" encoding="utf-8"?>
<!-- Generator: Adobe Illustrator 24.1.2, SVG Export Plug-In . SVG Version: 6.00 Build 0)  -->
<svg version="1.1" id="Camada_1" xmlns="http://www.w3.org/2000/svg" xmlns:xlink="http://www.w3.org/1999/xlink" x="0px" y="0px"
	 viewBox="0 0 134.79 96.24" style="enable-background:new 0 0 134.79 96.24;" xml:space="preserve">
<style type="text/css">
	.st0{fill:#2B2B2B;}
	.st1{fill:#969696;}
	.st2{fill:#E8A325;}
	.st3{fill:none;stroke:#969696;stroke-miterlimit:10;}
	.st4{fill:#FFFFFF;}
	.st5{fill:none;stroke:#E8A325;stroke-width:0.75;stroke-linecap:round;stroke-miterlimit:10;stroke-dasharray:5.0257,12.0616;}
	.st6{fill:#474747;}
	.st7{fill:none;stroke:#E8A325;stroke-width:5;stroke-linecap:round;stroke-miterlimit:10;}
	.st8{fill:none;stroke:#969696;stroke-width:2;stroke-linecap:round;stroke-miterlimit:10;stroke-dasharray:5,13;}
	.st9{opacity:0.17;fill:none;stroke:#B2B2B2;stroke-width:3;enable-background:new    ;}
	.st10{opacity:0.17;}
	.st11{fill:none;stroke:#B2B2B2;stroke-width:3;}
	.st12{fill:#B2B2B2;}
	.st13{fill:none;stroke:#FFFFFF;stroke-width:5;stroke-miterlimit:10;}
	.st14{fill:none;stroke:#E8A325;stroke-linecap:round;stroke-miterlimit:10;}
	.st15{fill:none;stroke:#E8A325;stroke-width:0.5;stroke-miterlimit:10;}
	.st16{fill:#E49412;stroke:#E8A325;stroke-width:0.5;stroke-miterlimit:10;}
	.st17{fill:none;stroke:#FFFFFF;stroke-width:3;stroke-miterlimit:10;}
	.st18{fill:#F7A416;}
	.st19{fill:#454545;}
	.st20{fill:#343434;}
	.st21{fill:#F4F4F4;}
	.st22{fill:none;stroke:#E8A325;stroke-width:3.5;stroke-linecap:round;stroke-linejoin:round;stroke-miterlimit:10;}
</style>
<g>
	<g>
		<path class="st0" d="M3.86,28.14c0.1-1.7,0.19-3.41,0.29-5.12c-0.09,0-0.18,0-0.28,0c0.23-1.92,0.57-3.83,1.01-5.72
			c0.35-1.46,0.77-2.92,1.58-4.19c1.03-1.61,2.63-2.8,4.36-3.63c2.36-1.13,4.93-1.64,7.56-1.86c2.12-0.18,4.29-0.16,6.41-0.13
			c18.79,0.24,37.59,0.85,56.36,1.82c1.33,0.07,2.69,0.15,4.02,0.29c2.9,0.33,5.73,0.98,8.11,2.6c3.64,2.46,5.46,6.64,6.44,11h0
			c0.3,1.36,0.53,2.74,0.7,4.09c0.03,0.28,0.07,0.57,0.1,0.85L3.86,28.14L3.86,28.14z"/>
		<path class="st2" d="M100.07,61.28c-0.41,5.16-1.04,10.82-4.82,14.38c-3.67,3.46-9.2,3.89-14.26,4.12
			c-17.74,0.81-35.48,1.49-53.23,2.05c-5.37,0.17-10.78,0.33-16.08-0.53c-2.33-0.37-4.76-1.01-6.39-2.7
			c-1.73-1.78-2.25-4.37-2.54-6.83c-0.92-7.61-0.49-15.31-0.06-22.96c0.39-6.89,0.78-13.78,1.17-20.67c0.1-1.7,0.19-3.41,0.29-5.12
			c0-0.01,0-0.03,0-0.04h95.52c0.02,0.07,0.03,0.14,0.05,0.22h0c0.3,1.36,0.53,2.74,0.7,4.09c0.03,0.28,0.07,0.57,0.1,0.85
			C101.81,39.13,100.94,50.25,100.07,61.28z"/>
		<g>
			<g>
				<path class="st4" d="M17.97,33.09c-0.02-0.01-0.03-0.02-0.05-0.03c0.2,0.15,0.39,0.3,0.58,0.45c-0.03-0.03-0.07-0.06-0.1-0.1
					c0.15,0.2,0.3,0.39,0.45,0.58c-0.03-0.04-0.06-0.09-0.08-0.13c0.1,0.23,0.19,0.46,0.29,0.69c-0.02-0.05-0.03-0.1-0.04-0.15
					c0.03,0.25,0.07,0.51,0.1,0.76c-0.01-0.05-0.01-0.1,0-0.16c-0.03,0.25-0.07,0.51-0.1,0.76c0.01-0.05,0.02-0.09,0.03-0.13
					c-0.1,0.23-0.19,0.46-0.29,0.69c0-0.01,0.01-0.02,0.02-0.03c0.21-0.33,0.32-0.69,0.34-1.07c0.08-0.38,0.07-0.76-0.05-1.15
					c-0.09-0.38-0.26-0.7-0.52-0.98c-0.2-0.32-0.47-0.56-0.81-0.74c-0.23-0.1-0.46-0.19-0.69-0.29c-0.51-0.14-1.02-0.14-1.53,0
					c-0.23,0.1-0.46,0.19-0.69,0.29c-0.43,0.26-0.78,0.6-1.03,1.03c0,0.01-0.01,0.02-0.01,0.03c-0.05,0.12-0.1,0.23-0.15,0.35
					c-0.05,0.12-0.1,0.23-0.15,0.35c-0.01,0.02-0.01,0.03-0.02,0.05c0,0.02-0.01,0.03-0.01,0.05c0,0.01,0,0.01,0,0.02
					c-0.03,0.25-0.07,0.51-0.1,0.76c0,0.01,0,0.02,0,0.03c0,0.04,0,0.07,0,0.11c0,0,0,0.01,0,0.02c0.03,0.25,0.07,0.51,0.1,0.76
					c0,0.01,0,0.02,0,0.03c0,0.02,0.01,0.04,0.02,0.06c0.08,0.27,0.2,0.53,0.33,0.78c0.02,0.03,0.04,0.07,0.06,0.1
					c0.15,0.21,0.31,0.42,0.48,0.62c0.01,0.01,0.02,0.03,0.04,0.04c0.21,0.19,0.43,0.37,0.67,0.52c0.33,0.21,0.69,0.32,1.07,0.34
					c0.38,0.08,0.76,0.07,1.15-0.05c0.38-0.09,0.7-0.26,0.98-0.52c0.32-0.2,0.56-0.47,0.74-0.81c0.1-0.23,0.19-0.46,0.29-0.69
					c0.14-0.51,0.14-1.02,0-1.53c-0.1-0.23-0.19-0.46-0.29-0.69C18.75,33.69,18.41,33.34,17.97,33.09L17.97,33.09z"/>
			</g>
			<g>
				<path class="st4" d="M35.5,34.83c0-0.08,0-0.16,0-0.24c0.02-0.4-0.07-0.77-0.25-1.11c-0.12-0.36-0.32-0.67-0.6-0.93
					c-0.26-0.28-0.57-0.48-0.93-0.6c-0.34-0.18-0.72-0.26-1.11-0.25c-0.25,0.03-0.51,0.07-0.76,0.1c-0.49,0.14-0.91,0.38-1.27,0.74
					c-0.15,0.2-0.3,0.39-0.45,0.58c-0.26,0.45-0.39,0.93-0.39,1.46c0,0.08,0,0.16,0,0.24c-0.02,0.4,0.07,0.77,0.25,1.11
					c0.12,0.36,0.32,0.67,0.6,0.93c0.26,0.28,0.57,0.48,0.93,0.6c0.34,0.18,0.72,0.26,1.11,0.25c0.25-0.03,0.51-0.07,0.76-0.1
					c0.49-0.14,0.91-0.38,1.27-0.74c0.15-0.2,0.3-0.39,0.45-0.58C35.36,35.84,35.49,35.35,35.5,34.83L35.5,34.83z"/>
			</g>
			<g>
				<path class="st4" d="M50.97,37.11c0.08-0.08,0.16-0.16,0.24-0.24c0.28-0.26,0.48-0.57,0.6-0.93c0.18-0.34,0.26-0.72,0.25-1.11
					c0.02-0.4-0.07-0.77-0.25-1.11c-0.12-0.36-0.32-0.67-0.6-0.93c-0.2-0.15-0.39-0.3-0.58-0.45c-0.45-0.26-0.93-0.39-1.46-0.39
					c-0.25,0.03-0.51,0.07-0.76,0.1c-0.49,0.14-0.91,0.38-1.27,0.74c-0.08,0.08-0.16,0.16-0.24,0.24c-0.28,0.26-0.48,0.57-0.6,0.93
					c-0.18,0.34-0.26,0.72-0.25,1.11c-0.02,0.4,0.07,0.77,0.25,1.11c0.12,0.36,0.32,0.67,0.6,0.93c0.2,0.15,0.39,0.3,0.58,0.45
					c0.45,0.26,0.93,0.39,1.46,0.39c0.25-0.03,0.51-0.07,0.76-0.1C50.19,37.72,50.62,37.47,50.97,37.11L50.97,37.11z"/>
			</g>
			<g>
				<path class="st4" d="M66.64,33.85c-0.08-0.16-0.17-0.32-0.25-0.48c-0.18-0.33-0.43-0.61-0.74-0.81
					c-0.28-0.25-0.6-0.43-0.98-0.52c-0.38-0.12-0.76-0.14-1.15-0.05c-0.38,0.02-0.74,0.13-1.07,0.34c-0.2,0.15-0.39,0.3-0.58,0.45
					c-0.36,0.36-0.6,0.78-0.74,1.27c-0.03,0.25-0.07,0.51-0.1,0.76c0,0.52,0.13,1.01,0.39,1.46c0.08,0.16,0.17,0.32,0.25,0.48
					c0.18,0.33,0.43,0.61,0.74,0.81c0.28,0.25,0.6,0.43,0.98,0.52c0.38,0.12,0.76,0.14,1.15,0.05c0.38-0.02,0.74-0.13,1.07-0.34
					c0.2-0.15,0.39-0.3,0.58-0.45c0.36-0.36,0.6-0.78,0.74-1.27c0.03-0.25,0.07-0.51,0.1-0.76C67.03,34.78,66.9,34.3,66.64,33.85
					L66.64,33.85z"/>
			</g>
			<g>
				<path class="st4" d="M81.02,38.45c0.08,0,0.16,0,0.24,0c0.4,0.02,0.77-0.07,1.11-0.25c0.36-0.12,0.67-0.32,0.93-0.6
					c0.28-0.26,0.48-0.57,0.6-0.93c0.18-0.34,0.26-0.72,0.25-1.11c-0.03-0.25-0.07-0.51-0.1-0.76c-0.14-0.49-0.38-0.91-0.74-1.27
					c-0.2-0.15-0.39-0.3-0.58-0.45c-0.45-0.26-0.93-0.39-1.46-0.39c-0.08,0-0.16,0-0.24,0c-0.4-0.02-0.77,0.07-1.11,0.25
					c-0.36,0.12-0.67,0.32-0.93,0.6c-0.28,0.26-0.48,0.57-0.6,0.93c-0.18,0.34-0.26,0.72-0.25,1.11c0.03,0.25,0.07,0.51,0.1,0.76
					c0.14,0.49,0.38,0.91,0.74,1.27c0.2,0.15,0.39,0.3,0.58,0.45C80.01,38.31,80.5,38.44,81.02,38.45L81.02,38.45z"/>
			</g>
			<g>
				<path class="st4" d="M19.54,48.87c-0.08-0.08-0.16-0.16-0.24-0.24c-0.26-0.28-0.57-0.48-0.93-0.6
					c-0.34-0.18-0.72-0.26-1.11-0.25c-0.4-0.02-0.77,0.07-1.11,0.25c-0.36,0.12-0.67,0.32-0.93,0.6c-0.15,0.2-0.3,0.39-0.45,0.58
					c-0.26,0.45-0.39,0.93-0.39,1.46c0.03,0.25,0.07,0.51,0.1,0.76c0.14,0.49,0.38,0.91,0.74,1.27c0.08,0.08,0.16,0.16,0.24,0.24
					c0.26,0.28,0.57,0.48,0.93,0.6c0.34,0.18,0.72,0.26,1.11,0.25c0.4,0.02,0.77-0.07,1.11-0.25c0.36-0.12,0.67-0.32,0.93-0.6
					c0.15-0.2,0.3-0.39,0.45-0.58c0.26-0.45,0.39-0.93,0.39-1.46c-0.03-0.25-0.07-0.51-0.1-0.76C20.15,49.66,19.9,49.23,19.54,48.87
					L19.54,48.87z"/>
			</g>
			<g>
				<path class="st4" d="M32.61,47.78c-0.08,0-0.16,0-0.24,0c-0.4-0.02-0.77,0.07-1.11,0.25c-0.36,0.12-0.67,0.32-0.93,0.6
					c-0.28,0.26-0.48,0.57-0.6,0.93c-0.18,0.34-0.26,0.72-0.25,1.11c0.03,0.25,0.07,0.51,0.1,0.76c0.14,0.49,0.38,0.91,0.74,1.27
					c0.2,0.15,0.39,0.3,0.58,0.45c0.45,0.26,0.93,0.39,1.46,0.39c0.08,0,0.16,0,0.24,0c0.4,0.02,0.77-0.07,1.11-0.25
					c0.36-0.12,0.67-0.32,0.93-0.6c0.28-0.26,0.48-0.57,0.6-0.93c0.18-0.34,0.26-0.72,0.25-1.11c-0.03-0.25-0.07-0.51-0.1-0.76
					c-0.14-0.49-0.38-0.91-0.74-1.27c-0.2-0.15-0.39-0.3-0.58-0.45C33.62,47.92,33.13,47.79,32.61,47.78L32.61,47.78z"/>
			</g>
			<g>
				<path class="st4" d="M48.45,54.28c0.33,0,0.65,0,0.98,0c0.4,0.02,0.77-0.07,1.11-0.25c0.36-0.12,0.67-0.32,0.93-0.6
					c0.28-0.26,0.48-0.57,0.6-0.93c0.18-0.34,0.26-0.72,0.25-1.11c-0.03-0.25-0.07-0.51-0.1-0.76c-0.14-0.49-0.38-0.91-0.74-1.27
					c-0.2-0.15-0.39-0.3-0.58-0.45c-0.45-0.26-0.93-0.39-1.46-0.39c-0.33,0-0.65,0-0.98,0c-0.4-0.02-0.77,0.07-1.11,0.25
					c-0.36,0.12-0.67,0.32-0.93,0.6c-0.28,0.26-0.48,0.57-0.6,0.93c-0.18,0.34-0.26,0.72-0.25,1.11c0.03,0.25,0.07,0.51,0.1,0.76
					c0.14,0.49,0.38,0.91,0.74,1.27c0.2,0.15,0.39,0.3,0.58,0.45C47.44,54.15,47.93,54.28,48.45,54.28L48.45,54.28z"/>
			</g>
			<g>
				<path class="st4" d="M67.69,47.78c-0.08,0-0.16,0-0.24,0c-0.4-0.02-0.77,0.07-1.11,0.25c-0.36,0.12-0.67,0.32-0.93,0.6
					c-0.28,0.26-0.48,0.57-0.6,0.93c-0.18,0.34-0.26,0.72-0.25,1.11c0.03,0.25,0.07,0.51,0.1,0.76c0.14,0.49,0.38,0.91,0.74,1.27
					c0.2,0.15,0.39,0.3,0.58,0.45c0.45,0.26,0.93,0.39,1.46,0.39c0.08,0,0.16,0,0.24,0c0.4,0.02,0.77-0.07,1.11-0.25
					c0.36-0.12,0.67-0.32,0.93-0.6c0.28-0.26,0.48-0.57,0.6-0.93c0.18-0.34,0.26-0.72,0.25-1.11c-0.03-0.25-0.07-0.51-0.1-0.76
					c-0.14-0.49-0.38-0.91-0.74-1.27c-0.2-0.15-0.39-0.3-0.58-0.45C68.7,47.92,68.22,47.79,67.69,47.78L67.69,47.78z"/>
			</g>
			<g>
				<path class="st4" d="M80.37,49.18c-0.08,0.24-0.17,0.48-0.26,0.73c-0.12,0.38-0.14,0.76-0.05,1.15
					c0.02,0.38,0.13,0.74,0.34,1.07c0.18,0.33,0.43,0.61,0.74,0.81c0.28,0.25,0.6,0.43,0.98,0.52c0.25,0.03,0.51,0.07,0.76,0.1
					c0.52,0,1.01-0.13,1.46-0.39c0.2-0.15,0.39-0.3,0.58-0.45c0.36-0.36,0.6-0.78,0.74-1.27c0.08-0.24,0.17-0.48,0.26-0.73
					c0.12-0.38,0.14-0.76,0.05-1.15c-0.02-0.38-0.13-0.74-0.34-1.07c-0.18-0.33-0.43-0.61-0.74-0.81c-0.28-0.25-0.6-0.43-0.98-0.52
					c-0.25-0.03-0.51-0.07-0.76-0.1c-0.52,0-1.01,0.13-1.46,0.39c-0.2,0.15-0.39,0.3-0.58,0.45C80.75,48.27,80.5,48.69,80.37,49.18
					L80.37,49.18z"/>
			</g>
			<g>
				<path class="st4" d="M15.95,68.79c0.08,0.08,0.16,0.16,0.24,0.24c0.26,0.28,0.57,0.48,0.93,0.6c0.34,0.18,0.72,0.26,1.11,0.25
					c0.4,0.02,0.77-0.07,1.11-0.25c0.36-0.12,0.67-0.32,0.93-0.6c0.15-0.2,0.3-0.39,0.45-0.58c0.26-0.45,0.39-0.93,0.39-1.46
					c-0.03-0.25-0.07-0.51-0.1-0.76c-0.14-0.49-0.38-0.91-0.74-1.27c-0.08-0.08-0.16-0.16-0.24-0.24c-0.26-0.28-0.57-0.48-0.93-0.6
					c-0.34-0.18-0.72-0.26-1.11-0.25c-0.4-0.02-0.77,0.07-1.11,0.25c-0.36,0.12-0.67,0.32-0.93,0.6c-0.15,0.2-0.3,0.39-0.45,0.58
					c-0.26,0.45-0.39,0.93-0.39,1.46c0.03,0.25,0.07,0.51,0.1,0.76C15.35,68,15.6,68.43,15.95,68.79L15.95,68.79z"/>
			</g>
			<g>
				<path class="st4" d="M33.34,64.11c-0.08,0-0.16,0-0.24,0c-0.4-0.02-0.77,0.07-1.11,0.25c-0.36,0.12-0.67,0.32-0.93,0.6
					c-0.28,0.26-0.48,0.57-0.6,0.93c-0.18,0.34-0.26,0.72-0.25,1.11c0.03,0.25,0.07,0.51,0.1,0.76c0.14,0.49,0.38,0.91,0.74,1.27
					c0.2,0.15,0.39,0.3,0.58,0.45c0.45,0.26,0.93,0.39,1.46,0.39c0.08,0,0.16,0,0.24,0c0.4,0.02,0.77-0.07,1.11-0.25
					c0.36-0.12,0.67-0.32,0.93-0.6c0.28-0.26,0.48-0.57,0.6-0.93c0.18-0.34,0.26-0.72,0.25-1.11c-0.03-0.25-0.07-0.51-0.1-0.76
					c-0.14-0.49-0.38-0.91-0.74-1.27c-0.2-0.15-0.39-0.3-0.58-0.45C34.35,64.24,33.86,64.11,33.34,64.11L33.34,64.11z"/>
			</g>
			<g>
				<path class="st4" d="M47.57,65.07C47.57,65.08,47.57,65.08,47.57,65.07c0,0.01,0,0.01,0,0.01s-0.29,0.68-0.29,0.69c0,0,0,0,0,0
					c0,0,0,0,0,0.01c-0.05,0.25-0.09,0.52-0.1,0.77c0,0,0,0,0,0.01c0,0,0.1,0.76,0.1,0.77v0c0.07,0.24,0.16,0.49,0.3,0.7
					c0,0,0,0,0,0l0.45,0.58l0,0l0,0c0,0,0,0,0,0c0.02,0.01,0.57,0.44,0.58,0.45c0,0,0,0,0.01,0c0.22,0.13,0.47,0.21,0.7,0.3
					c0,0,0.01,0,0.02,0c0.26,0.06,0.53,0.08,0.78,0.11c0.01,0,0.01,0,0.02,0c0.01,0,0.01,0,0.02,0c0,0,0.01,0,0.01,0
					c0.05,0,0.72-0.1,0.77-0.1c0,0,0,0,0,0h0c0.01,0,0.01,0,0.02,0c0,0,0,0,0.01,0c0,0,0,0,0,0c0.01,0,0.68-0.28,0.69-0.29h0
					c0,0,0.01,0,0.02-0.01c0.01-0.01,0.58-0.45,0.58-0.45c0,0,0,0,0,0l0,0c0.01-0.01,0.45-0.58,0.45-0.58c0,0,0,0,0,0
					c0.13-0.22,0.22-0.48,0.29-0.7c0.08-0.25,0.1-0.52,0.11-0.78c0-0.26-0.03-0.53-0.1-0.78c-0.08-0.24-0.19-0.47-0.3-0.7
					c0,0,0-0.01-0.01-0.01c-0.18-0.33-0.43-0.61-0.74-0.81c-0.28-0.25-0.6-0.43-0.98-0.52c-0.38-0.12-0.76-0.14-1.15-0.05
					c-0.38,0.02-0.74,0.13-1.07,0.34c-0.2,0.15-0.39,0.3-0.58,0.45c-0.36,0.36-0.6,0.78-0.74,1.27c-0.03,0.25-0.07,0.51-0.1,0.76
					c0,0.52,0.13,1.01,0.39,1.46c0,0,0,0.01,0.01,0.02c-0.1-0.23-0.19-0.46-0.29-0.69c0,0,0,0.01,0,0.02
					c-0.03-0.25-0.07-0.51-0.1-0.76c0,0,0,0.01,0,0.01c0.03-0.25,0.07-0.51,0.1-0.76c0,0,0,0.01,0,0.01
					c0.1-0.23,0.19-0.46,0.29-0.69c0,0,0,0.01-0.01,0.01c0.15-0.2,0.3-0.39,0.45-0.58c0,0-0.01,0.01-0.01,0.01
					c0.2-0.15,0.39-0.3,0.58-0.45c-0.01,0-0.01,0.01-0.02,0.01c0.23-0.1,0.46-0.19,0.69-0.29c-0.01,0-0.02,0.01-0.04,0.01
					c0.25-0.03,0.51-0.07,0.76-0.1c-0.02,0-0.03,0-0.05,0c0.25,0.03,0.51,0.07,0.76,0.1c-0.01,0-0.02,0-0.04-0.01
					c0.23,0.1,0.46,0.19,0.69,0.29c-0.01,0-0.01-0.01-0.02-0.01c0.2,0.15,0.39,0.3,0.58,0.45c0,0-0.01-0.01-0.01-0.01
					c0.15,0.2,0.3,0.39,0.45,0.58c0,0,0-0.01-0.01-0.01c0.1,0.23,0.19,0.46,0.29,0.69c0,0,0-0.01,0-0.01
					c0.03,0.25,0.07,0.51,0.1,0.76c0,0,0-0.01,0-0.01c-0.03,0.25-0.07,0.51-0.1,0.76c0-0.01,0-0.01,0-0.02
					c-0.1,0.23-0.19,0.46-0.29,0.69c0,0,0-0.01,0.01-0.01c0.21-0.33,0.32-0.69,0.34-1.07c0.08-0.38,0.07-0.76-0.05-1.15
					c-0.09-0.38-0.26-0.7-0.52-0.98c-0.2-0.32-0.47-0.56-0.81-0.74c-0.23-0.1-0.46-0.19-0.69-0.29c-0.51-0.14-1.02-0.14-1.53,0
					c-0.23,0.1-0.46,0.19-0.69,0.29C48.18,64.29,47.83,64.64,47.57,65.07L47.57,65.07z"/>
			</g>
			<g>
				<path class="st4" d="M63.84,66.51c0,0.08,0,0.16,0,0.24c-0.02,0.4,0.07,0.77,0.25,1.11c0.12,0.36,0.32,0.67,0.6,0.93
					c0.26,0.28,0.57,0.48,0.93,0.6c0.34,0.18,0.72,0.26,1.11,0.25c0.25-0.03,0.51-0.07,0.76-0.1c0.49-0.14,0.91-0.38,1.27-0.74
					c0.15-0.2,0.3-0.39,0.45-0.58c0.26-0.45,0.39-0.93,0.39-1.46c0-0.08,0-0.16,0-0.24c0.02-0.4-0.07-0.77-0.25-1.11
					c-0.12-0.36-0.32-0.67-0.6-0.93c-0.26-0.28-0.57-0.48-0.93-0.6c-0.34-0.18-0.72-0.26-1.11-0.25c-0.25,0.03-0.51,0.07-0.76,0.1
					c-0.49,0.14-0.91,0.38-1.27,0.74c-0.15,0.2-0.3,0.39-0.45,0.58C63.97,65.5,63.84,65.99,63.84,66.51L63.84,66.51z"/>
			</g>
			<g>
				<path class="st4" d="M80.58,64.57c-0.12,0.24-0.22,0.48-0.31,0.73c-0.01,0.02-0.01,0.03-0.02,0.05
					c-0.07,0.28-0.1,0.58-0.12,0.86c0,0.04,0,0.07,0,0.11c0.03,0.27,0.06,0.54,0.11,0.81c0,0.02,0.01,0.04,0.02,0.06
					c0.08,0.27,0.2,0.53,0.33,0.78c0.02,0.03,0.04,0.07,0.06,0.1c0.15,0.2,0.3,0.39,0.45,0.58c0,0,0.01,0.01,0.01,0.01
					c0.01,0.01,0.01,0.02,0.02,0.02c0.01,0.01,0.02,0.03,0.04,0.04c0.01,0.01,0.02,0.01,0.02,0.02c0.1,0.08,0.2,0.16,0.3,0.23
					c0.1,0.08,0.2,0.15,0.3,0.23c0.02,0.01,0.03,0.02,0.05,0.03c0.33,0.21,0.69,0.32,1.07,0.34c0.38,0.08,0.76,0.07,1.15-0.05
					c0.38-0.09,0.7-0.26,0.98-0.52c0.32-0.2,0.56-0.47,0.74-0.81c0.1-0.23,0.19-0.46,0.29-0.69c0.14-0.51,0.14-1.02,0-1.53
					c-0.1-0.23-0.19-0.46-0.29-0.69c-0.26-0.43-0.6-0.78-1.03-1.03c-0.02-0.01-0.04-0.02-0.05-0.04c0.2,0.15,0.39,0.3,0.58,0.45
					c-0.03-0.03-0.07-0.06-0.09-0.1c0.15,0.2,0.3,0.39,0.45,0.58c-0.03-0.04-0.05-0.08-0.07-0.12c0.1,0.23,0.19,0.46,0.29,0.69
					c-0.02-0.05-0.03-0.1-0.04-0.16c0.03,0.25,0.07,0.51,0.1,0.76c-0.01-0.05-0.01-0.1,0-0.15c-0.03,0.25-0.07,0.51-0.1,0.76
					c0.01-0.05,0.02-0.09,0.03-0.13c-0.1,0.23-0.19,0.46-0.29,0.69c0-0.01,0.01-0.02,0.01-0.03c0.21-0.33,0.32-0.69,0.34-1.07
					c0.08-0.38,0.07-0.76-0.05-1.15c-0.09-0.38-0.26-0.7-0.52-0.98c-0.2-0.32-0.47-0.56-0.81-0.74c-0.23-0.1-0.46-0.19-0.69-0.29
					c-0.51-0.14-1.02-0.14-1.53,0c-0.23,0.1-0.46,0.19-0.69,0.29C81.18,63.79,80.83,64.14,80.58,64.57L80.58,64.57z"/>
			</g>
		</g>
		<g>
			<path class="st4" d="M4.93,23.02c0.32-3.19,0.82-7.53,2.96-10.08c2.06-2.46,5.42-3.54,8.49-4.03c3.65-0.58,7.4-0.39,11.08-0.33
				c3.68,0.05,7.37,0.12,11.05,0.2c14.98,0.33,30.05,0.6,44.99,1.72c3.89,0.29,7.96,1.05,10.83,3.92c2.43,2.43,3.63,5.77,4.39,9.06
				c0.1,0.45,0.57,0.77,1.01,0.77h0c-0.34-0.26-0.68-0.52-1.01-0.77c1.37,6.43,1.51,13.16,1.37,19.71
				c-0.13,6.61-0.59,13.25-1.22,19.83c-0.53,5.55-1.9,11.44-7.48,13.93c-5.4,2.42-12.23,1.87-18.01,2.12
				c-13.69,0.6-27.37,1.12-41.06,1.56c-6.75,0.22-13.67,0.75-20.37-0.35c-3-0.49-5.94-1.44-7.21-4.46
				c-1.19-2.82-1.23-6.21-1.38-9.22C2.99,59.15,3.58,51.67,4,44.22c0.42-7.46,0.83-14.92,1.27-22.38c0.08-1.35-2.02-1.35-2.1,0
				c-0.42,7.08-0.8,14.16-1.2,21.24c-0.42,7.34-1,14.7-0.76,22.06c0.17,5.17-0.02,12.66,5.17,15.6c2.56,1.46,5.69,1.76,8.57,2.03
				c3.53,0.32,7.08,0.29,10.62,0.19c14.93-0.41,29.86-1.01,44.79-1.65c3.74-0.16,7.49-0.31,11.23-0.5c2.84-0.14,5.73-0.35,8.47-1.15
				c5.36-1.56,8.71-5.52,10.03-10.87c0.78-3.19,0.96-6.5,1.22-9.77c0.32-4.14,0.62-8.29,0.79-12.44c0.32-7.85,0.31-15.94-1.34-23.66
				c-0.1-0.45-0.57-0.77-1.01-0.77h0c0.34,0.26,0.68,0.52,1.01,0.77c-1.46-6.3-4.81-11.79-11.36-13.61
				C85.74,8.3,81.86,8.29,78.11,8.1C73.8,7.89,69.48,7.7,65.17,7.52C56.54,7.17,47.9,6.9,39.27,6.7c-4.19-0.1-8.38-0.17-12.57-0.23
				C22.86,6.41,18.97,6.28,15.18,7c-3.43,0.65-7.06,2.13-9.21,5.01C3.74,15,3.19,19.42,2.82,23.02C2.69,24.37,4.8,24.36,4.93,23.02
				L4.93,23.02z"/>
		</g>
		<g>
			<path class="st4" d="M99.74,22.24c-6.25,0-12.49-0.05-18.73-0.11c-6.28-0.06-12.56-0.12-18.83-0.12c-4.92,0-9.84-0.09-14.76-0.12
				c-6.7-0.05-13.41,0.03-20.12,0.09c-7.2,0.07-14.4,0.13-21.61,0.09c-0.81,0-1.63-0.01-2.44-0.02c-1.24,0-1.24,1.92,0,1.92
				c7.12,0.03,14.25,0.01,21.37-0.05c6.97-0.06,13.95-0.15,20.92-0.12c5.02,0.02,10.03,0.11,15.05,0.13
				c6.08,0.03,12.17,0.04,18.25,0.1c6.15,0.06,12.29,0.12,18.44,0.13c0.82,0,1.64,0,2.45,0C100.97,24.16,100.97,22.24,99.74,22.24
				L99.74,22.24z"/>
		</g>
		<g>
			<g>
				<path class="st4" d="M17,2.47c0.55,3.73,0.57,7.52,0.13,11.26c-0.06,0.52,0.48,0.96,0.96,0.96c0.57,0,0.9-0.44,0.96-0.96
					c0.46-3.92,0.38-7.87-0.2-11.77c-0.08-0.52-0.73-0.8-1.18-0.67C17.12,1.44,16.92,1.96,17,2.47L17,2.47z"/>
			</g>
			<g>
				<path class="st4" d="M84.5,3.39c-0.07,3.59-0.3,7.18-0.7,10.76c-0.06,0.52,0.48,0.96,0.96,0.96c0.57,0,0.9-0.44,0.96-0.96
					c0.4-3.57,0.63-7.16,0.7-10.76C86.44,2.16,84.52,2.16,84.5,3.39L84.5,3.39z"/>
			</g>
		</g>
	</g>
	<g>
		<path class="st0" d="M34.94,40.55c0.05-1.71,0.1-3.41,0.15-5.12c-0.09,0.01-0.18,0-0.28,0.01c0.18-1.93,0.46-3.85,0.86-5.74
			c0.31-1.46,0.69-2.94,1.46-4.23c0.98-1.64,2.55-2.87,4.26-3.75c2.33-1.2,4.88-1.77,7.5-2.06c2.12-0.23,4.28-0.28,6.4-0.31
			c18.79-0.26,37.6-0.16,56.39,0.31c1.33,0.03,2.69,0.07,4.03,0.18c2.91,0.25,5.75,0.83,8.18,2.38c3.7,2.36,5.64,6.49,6.74,10.82h0
			c0.34,1.35,0.6,2.72,0.8,4.07c0.04,0.28,0.08,0.57,0.12,0.85L34.94,40.55z"/>
		<path class="st2" d="M132,71.11c-0.27,5.17-0.75,10.84-4.44,14.5c-3.58,3.56-9.09,4.14-14.14,4.5C95.72,91.4,78,92.56,60.27,93.59
			c-5.36,0.32-10.77,0.62-16.09-0.1c-2.33-0.31-4.78-0.89-6.46-2.53c-1.78-1.73-2.36-4.31-2.72-6.76
			c-1.13-7.58-0.9-15.29-0.67-22.95c0.2-6.9,0.41-13.8,0.62-20.7c0.05-1.71,0.1-3.41,0.15-5.12c0-0.01,0-0.03,0-0.04l95.49-2.55
			c0.02,0.07,0.04,0.14,0.05,0.22h0c0.34,1.35,0.6,2.72,0.8,4.07c0.04,0.28,0.08,0.57,0.12,0.85
			C133.14,48.92,132.58,60.06,132,71.11z"/>
		<g>
			<g>
				<path class="st4" d="M49.25,45.17c-0.02-0.01-0.04-0.03-0.07-0.04c0.2,0.15,0.39,0.3,0.58,0.45c-0.03-0.03-0.07-0.06-0.1-0.1
					c0.15,0.2,0.3,0.39,0.45,0.58c-0.03-0.04-0.06-0.08-0.08-0.13c0.1,0.23,0.19,0.46,0.29,0.69c-0.02-0.05-0.03-0.1-0.04-0.15
					c0.03,0.25,0.07,0.51,0.1,0.76c-0.01-0.05-0.01-0.1,0-0.15c-0.03,0.25-0.07,0.51-0.1,0.76c0.01-0.05,0.02-0.09,0.03-0.13
					c-0.1,0.23-0.19,0.46-0.29,0.69c0-0.01,0.01-0.02,0.01-0.03c0.21-0.33,0.32-0.69,0.34-1.07c0.08-0.38,0.07-0.76-0.05-1.15
					c-0.09-0.38-0.26-0.7-0.52-0.98c-0.2-0.32-0.47-0.56-0.81-0.74c-0.23-0.1-0.46-0.19-0.69-0.29c-0.51-0.14-1.02-0.14-1.53,0
					c-0.23,0.1-0.46,0.19-0.69,0.29c-0.43,0.26-0.78,0.6-1.03,1.03c-0.12,0.24-0.22,0.48-0.31,0.73c-0.01,0.02-0.01,0.04-0.02,0.05
					c-0.07,0.28-0.1,0.57-0.12,0.86c0,0.04,0,0.08,0,0.12c0.03,0.25,0.07,0.51,0.1,0.76c0,0.01,0,0.01,0,0.02c0,0.01,0,0.02,0,0.02
					c0,0.02,0.01,0.04,0.02,0.06c0.08,0.27,0.2,0.53,0.33,0.78c0.07,0.13,0.21,0.28,0.28,0.38c0.07,0.09,0.18,0.27,0.3,0.37
					c0.01,0.01,0.02,0.01,0.02,0.02c0.2,0.15,0.39,0.3,0.58,0.45c0,0,0.01,0.01,0.02,0.01c0.02,0.01,0.03,0.02,0.05,0.03
					c0.33,0.21,0.69,0.32,1.07,0.34c0.38,0.08,0.76,0.07,1.15-0.05c0.38-0.09,0.7-0.26,0.98-0.52c0.32-0.2,0.56-0.47,0.74-0.81
					c0.1-0.23,0.19-0.46,0.29-0.69c0.14-0.51,0.14-1.02,0-1.53c-0.1-0.23-0.19-0.46-0.29-0.69C50.03,45.77,49.68,45.42,49.25,45.17
					L49.25,45.17z"/>
			</g>
			<g>
				<path class="st4" d="M66.74,46.48c0-0.08,0-0.16-0.01-0.24c0.02-0.4-0.07-0.77-0.25-1.11c-0.12-0.36-0.32-0.67-0.6-0.93
					c-0.26-0.28-0.57-0.48-0.93-0.6c-0.34-0.18-0.72-0.26-1.11-0.25c-0.25,0.03-0.51,0.07-0.76,0.1c-0.49,0.14-0.91,0.38-1.27,0.74
					c-0.15,0.2-0.3,0.39-0.45,0.58c-0.26,0.45-0.39,0.93-0.39,1.46c0,0.08,0,0.16,0.01,0.24c-0.02,0.4,0.07,0.77,0.25,1.11
					c0.12,0.36,0.32,0.67,0.6,0.93c0.26,0.28,0.57,0.48,0.93,0.6c0.34,0.18,0.72,0.26,1.11,0.25c0.25-0.03,0.51-0.07,0.76-0.1
					c0.49-0.14,0.91-0.38,1.27-0.74c0.15-0.2,0.3-0.39,0.45-0.58C66.61,47.48,66.74,47,66.74,46.48L66.74,46.48z"/>
			</g>
			<g>
				<path class="st4" d="M82.22,48.32c0.08-0.08,0.16-0.17,0.24-0.25c0.28-0.26,0.48-0.57,0.6-0.93c0.18-0.34,0.26-0.72,0.25-1.11
					c0.02-0.4-0.07-0.77-0.25-1.11c-0.12-0.36-0.32-0.67-0.6-0.93c-0.2-0.15-0.39-0.3-0.58-0.45c-0.45-0.26-0.93-0.39-1.46-0.39
					c-0.25,0.03-0.51,0.07-0.76,0.1c-0.49,0.14-0.91,0.38-1.27,0.74c-0.08,0.08-0.16,0.17-0.24,0.25c-0.28,0.26-0.48,0.57-0.6,0.93
					c-0.18,0.34-0.26,0.72-0.25,1.11c-0.02,0.4,0.07,0.77,0.25,1.11c0.12,0.36,0.32,0.67,0.6,0.93c0.2,0.15,0.39,0.3,0.58,0.45
					c0.45,0.26,0.93,0.39,1.46,0.39c0.25-0.03,0.51-0.07,0.76-0.1C81.44,48.93,81.86,48.68,82.22,48.32L82.22,48.32z"/>
			</g>
			<g>
				<path class="st4" d="M97.89,44.65c-0.09-0.16-0.17-0.32-0.26-0.48c-0.18-0.33-0.43-0.61-0.74-0.81
					c-0.28-0.25-0.6-0.43-0.98-0.52c-0.38-0.12-0.76-0.14-1.15-0.05c-0.38,0.02-0.74,0.13-1.07,0.34c-0.2,0.15-0.39,0.3-0.58,0.45
					c-0.36,0.36-0.6,0.78-0.74,1.27c-0.03,0.25-0.07,0.51-0.1,0.76c0,0.52,0.13,1.01,0.39,1.46c0.09,0.16,0.17,0.32,0.26,0.48
					c0.18,0.33,0.43,0.61,0.74,0.81c0.28,0.25,0.6,0.43,0.98,0.52c0.38,0.12,0.76,0.14,1.15,0.05c0.38-0.02,0.74-0.13,1.07-0.34
					c0.2-0.15,0.39-0.3,0.58-0.45c0.36-0.36,0.6-0.78,0.74-1.27c0.03-0.25,0.07-0.51,0.1-0.76C98.28,45.58,98.15,45.1,97.89,44.65
					L97.89,44.65z"/>
			</g>
			<g>
				<path class="st4" d="M112.26,48.79c0.08,0,0.16,0,0.24-0.01c0.4,0.02,0.77-0.07,1.11-0.25c0.36-0.12,0.67-0.32,0.93-0.6
					c0.28-0.26,0.48-0.57,0.6-0.93c0.18-0.34,0.26-0.72,0.25-1.11c-0.03-0.25-0.07-0.51-0.1-0.76c-0.14-0.49-0.38-0.91-0.74-1.27
					c-0.2-0.15-0.39-0.3-0.58-0.45c-0.45-0.26-0.93-0.39-1.46-0.39c-0.08,0-0.16,0-0.24,0.01c-0.4-0.02-0.77,0.07-1.11,0.25
					c-0.36,0.12-0.67,0.32-0.93,0.6c-0.28,0.26-0.48,0.57-0.6,0.93c-0.18,0.34-0.26,0.72-0.25,1.11c0.03,0.25,0.07,0.51,0.1,0.76
					c0.14,0.49,0.38,0.91,0.74,1.27c0.2,0.15,0.39,0.3,0.58,0.45C111.26,48.66,111.75,48.79,112.26,48.79L112.26,48.79z"/>
			</g>
			<g>
				<path class="st4" d="M51.23,60.92c-0.08-0.08-0.17-0.16-0.25-0.24c-0.26-0.28-0.57-0.48-0.93-0.6
					c-0.34-0.18-0.72-0.26-1.11-0.25c-0.4-0.02-0.77,0.07-1.11,0.25c-0.36,0.12-0.67,0.32-0.93,0.6c-0.15,0.2-0.3,0.39-0.45,0.58
					c-0.26,0.45-0.39,0.93-0.39,1.46c0.03,0.25,0.07,0.51,0.1,0.76c0.14,0.49,0.38,0.91,0.74,1.27c0.08,0.08,0.17,0.16,0.25,0.24
					c0.26,0.28,0.57,0.48,0.93,0.6c0.34,0.18,0.72,0.26,1.11,0.25c0.4,0.02,0.77-0.07,1.11-0.25c0.36-0.12,0.67-0.32,0.93-0.6
					c0.15-0.2,0.3-0.39,0.45-0.58c0.26-0.45,0.39-0.93,0.39-1.46c-0.03-0.25-0.07-0.51-0.1-0.76C51.83,61.7,51.58,61.28,51.23,60.92
					L51.23,60.92z"/>
			</g>
			<g>
				<path class="st4" d="M64.28,59.42c-0.08,0-0.16,0-0.24,0.01c-0.4-0.02-0.77,0.07-1.11,0.25C62.57,59.8,62.26,60,62,60.28
					c-0.28,0.26-0.48,0.57-0.6,0.93c-0.18,0.34-0.26,0.72-0.25,1.11c0.03,0.25,0.07,0.51,0.1,0.76c0.14,0.49,0.38,0.91,0.74,1.27
					c0.2,0.15,0.39,0.3,0.58,0.45c0.45,0.26,0.93,0.39,1.46,0.39c0.08,0,0.16,0,0.24-0.01c0.4,0.02,0.77-0.07,1.11-0.25
					c0.36-0.12,0.67-0.32,0.93-0.6c0.28-0.26,0.48-0.57,0.6-0.93c0.18-0.34,0.26-0.72,0.25-1.11c-0.03-0.25-0.07-0.51-0.1-0.76
					c-0.14-0.49-0.38-0.91-0.74-1.27c-0.2-0.15-0.39-0.3-0.58-0.45C65.28,59.56,64.8,59.42,64.28,59.42L64.28,59.42z"/>
			</g>
			<g>
				<path class="st4" d="M80.13,65.5c0.32-0.01,0.65-0.02,0.97-0.03c0.4,0.02,0.77-0.07,1.11-0.25c0.36-0.12,0.67-0.32,0.93-0.6
					c0.28-0.26,0.48-0.57,0.6-0.93c0.18-0.34,0.26-0.72,0.25-1.11c-0.03-0.25-0.07-0.51-0.1-0.76c-0.14-0.49-0.38-0.91-0.74-1.27
					c-0.2-0.15-0.39-0.3-0.58-0.45c-0.45-0.26-0.93-0.39-1.46-0.39c-0.32,0.01-0.65,0.02-0.97,0.03c-0.4-0.02-0.77,0.07-1.11,0.25
					c-0.36,0.12-0.67,0.32-0.93,0.6c-0.28,0.26-0.48,0.57-0.6,0.93c-0.18,0.34-0.26,0.72-0.25,1.11c0.03,0.25,0.07,0.51,0.1,0.76
					c0.14,0.49,0.38,0.91,0.74,1.27c0.2,0.15,0.39,0.3,0.58,0.45C79.13,65.36,79.61,65.5,80.13,65.5L80.13,65.5z"/>
			</g>
			<g>
				<path class="st4" d="M99.35,58.49c-0.08,0-0.16,0-0.24,0.01c-0.4-0.02-0.77,0.07-1.11,0.25c-0.36,0.12-0.67,0.32-0.93,0.6
					c-0.28,0.26-0.48,0.57-0.6,0.93c-0.18,0.34-0.26,0.72-0.25,1.11c0.03,0.25,0.07,0.51,0.1,0.76c0.14,0.49,0.38,0.91,0.74,1.27
					c0.2,0.15,0.39,0.3,0.58,0.45c0.45,0.26,0.93,0.39,1.46,0.39c0.08,0,0.16,0,0.24-0.01c0.4,0.02,0.77-0.07,1.11-0.25
					c0.36-0.12,0.67-0.32,0.93-0.6c0.28-0.26,0.48-0.57,0.6-0.93c0.18-0.34,0.26-0.72,0.25-1.11c-0.03-0.25-0.07-0.51-0.1-0.76
					c-0.14-0.49-0.38-0.91-0.74-1.27c-0.2-0.15-0.39-0.3-0.58-0.45C100.36,58.62,99.87,58.49,99.35,58.49L99.35,58.49z"/>
			</g>
			<g>
				<path class="st4" d="M112,59.47c-0.08,0.25-0.16,0.49-0.24,0.73c-0.12,0.38-0.14,0.76-0.05,1.15c0.02,0.38,0.13,0.74,0.34,1.07
					c0.18,0.33,0.43,0.61,0.74,0.81c0.28,0.25,0.6,0.43,0.98,0.52c0.25,0.03,0.51,0.07,0.76,0.1c0.52,0,1.01-0.13,1.46-0.39
					c0.2-0.15,0.39-0.3,0.58-0.45c0.36-0.36,0.6-0.78,0.74-1.27c0.08-0.25,0.16-0.49,0.24-0.73c0.12-0.38,0.14-0.76,0.05-1.15
					c-0.02-0.38-0.13-0.74-0.34-1.07c-0.18-0.33-0.43-0.61-0.74-0.81c-0.28-0.25-0.6-0.43-0.98-0.52c-0.25-0.03-0.51-0.07-0.76-0.1
					c-0.52,0-1.01,0.13-1.46,0.39c-0.2,0.15-0.39,0.3-0.58,0.45C112.38,58.56,112.13,58.99,112,59.47L112,59.47z"/>
			</g>
			<g>
				<path class="st4" d="M48.06,80.81c0.08,0.08,0.17,0.16,0.25,0.24c0.26,0.28,0.57,0.48,0.93,0.6c0.34,0.18,0.72,0.26,1.11,0.25
					c0.4,0.02,0.77-0.07,1.11-0.25c0.36-0.12,0.67-0.32,0.93-0.6c0.15-0.2,0.3-0.39,0.45-0.58c0.26-0.45,0.39-0.93,0.39-1.46
					c-0.03-0.25-0.07-0.51-0.1-0.76c-0.14-0.49-0.38-0.91-0.74-1.27c-0.08-0.08-0.17-0.16-0.25-0.24c-0.26-0.28-0.57-0.48-0.93-0.6
					c-0.34-0.18-0.72-0.26-1.11-0.25c-0.4-0.02-0.77,0.07-1.11,0.25c-0.36,0.12-0.67,0.32-0.93,0.6c-0.15,0.2-0.3,0.39-0.45,0.58
					c-0.26,0.45-0.39,0.93-0.39,1.46c0.03,0.25,0.07,0.51,0.1,0.76C47.46,80.03,47.7,80.45,48.06,80.81L48.06,80.81z"/>
			</g>
			<g>
				<path class="st4" d="M65.45,75.72c-0.08,0-0.16,0-0.24,0.01c-0.4-0.02-0.77,0.07-1.11,0.25c-0.36,0.12-0.67,0.32-0.93,0.6
					c-0.28,0.26-0.48,0.57-0.6,0.93c-0.18,0.34-0.26,0.72-0.25,1.11c0.03,0.25,0.07,0.51,0.1,0.76c0.14,0.49,0.38,0.91,0.74,1.27
					c0.2,0.15,0.39,0.3,0.58,0.45c0.45,0.26,0.93,0.39,1.46,0.39c0.08,0,0.16,0,0.24-0.01c0.4,0.02,0.77-0.07,1.11-0.25
					c0.36-0.12,0.67-0.32,0.93-0.6c0.28-0.26,0.48-0.57,0.6-0.93c0.18-0.34,0.26-0.72,0.25-1.11c-0.03-0.25-0.07-0.51-0.1-0.76
					c-0.14-0.49-0.38-0.91-0.74-1.27c-0.2-0.15-0.39-0.3-0.58-0.45C66.45,75.85,65.97,75.72,65.45,75.72L65.45,75.72z"/>
			</g>
			<g>
				<path class="st4" d="M79.66,76.24c-0.12,0.22-0.22,0.46-0.3,0.71c0,0,0,0,0,0.01c0,0.01-0.1,0.76-0.1,0.77v0v0c0,0,0,0,0,0l0,0
					c0.02,0.13,0.03,0.26,0.05,0.38c0.02,0.13,0.03,0.25,0.05,0.38l0,0l0,0v0v0c0,0.01,0.29,0.68,0.29,0.69c0,0,0,0,0,0.01
					c0.14,0.21,0.27,0.43,0.46,0.59c0.18,0.17,0.38,0.32,0.59,0.45c0,0,0,0,0.01,0c0.22,0.12,0.46,0.21,0.7,0.3c0,0,0.01,0,0.02,0
					c0,0,0.01,0,0.01,0c0.13,0.02,0.41,0.05,0.38,0.05c-0.08-0.01,0.26,0.04,0.38,0.05h0c0.01,0,0.01,0,0.02,0c0.01,0,0.01,0,0.02,0
					c0.26-0.03,0.53-0.05,0.78-0.11c0.01,0,0.01,0,0.02,0h0c0,0,0,0,0,0c0.02,0,0.68-0.28,0.69-0.29c0,0,0,0,0.01,0s0,0,0.01,0
					c0,0,0,0,0,0c0.1-0.07,0.38-0.3,0.3-0.23c-0.28,0.22,0.2-0.15,0.3-0.23c0,0,0,0,0,0l0,0c0,0,0.45-0.58,0.45-0.58l0,0
					c0,0,0,0,0,0v0c0.01-0.01,0.29-0.68,0.29-0.69c0,0,0,0,0-0.01c0-0.01,0.1-0.76,0.1-0.77v0v0c0-0.02-0.1-0.75-0.1-0.77
					c0,0,0-0.01,0-0.01c-0.04-0.12-0.2-0.49-0.15-0.35c0.03,0.08-0.09-0.24-0.15-0.35c0,0,0-0.01-0.01-0.01
					c-0.18-0.33-0.43-0.61-0.74-0.81c-0.28-0.25-0.6-0.43-0.98-0.52c-0.38-0.12-0.76-0.14-1.15-0.05c-0.38,0.02-0.74,0.13-1.07,0.34
					c-0.2,0.15-0.39,0.3-0.58,0.45c-0.36,0.36-0.6,0.78-0.74,1.27c-0.03,0.25-0.07,0.51-0.1,0.76c0,0.52,0.13,1.01,0.39,1.46
					c0,0,0.01,0.01,0.01,0.02c-0.1-0.23-0.19-0.46-0.29-0.69c0,0,0,0.01,0,0.02c-0.03-0.25-0.07-0.51-0.1-0.76c0,0,0,0.01,0,0.01
					c0.03-0.25,0.07-0.51,0.1-0.76c0,0,0,0.01,0,0.01c0.1-0.23,0.19-0.46,0.29-0.69c0,0,0,0.01,0,0.01c0.15-0.2,0.3-0.39,0.45-0.58
					c0,0-0.01,0.01-0.01,0.01c0.2-0.15,0.39-0.3,0.58-0.45c-0.01,0-0.02,0.01-0.02,0.01c0.23-0.1,0.46-0.19,0.69-0.29
					C81.51,75,81.5,75,81.48,75c0.25-0.03,0.51-0.07,0.76-0.1c-0.02,0-0.03,0-0.05,0c0.25,0.03,0.51,0.07,0.76,0.1
					c-0.01,0-0.02,0-0.03-0.01c0.23,0.1,0.46,0.19,0.69,0.29c-0.01,0-0.01-0.01-0.02-0.01c0.2,0.15,0.39,0.3,0.58,0.45
					c0,0-0.01-0.01-0.01-0.01c0.15,0.2,0.3,0.39,0.45,0.58c0,0,0-0.01-0.01-0.01c0.1,0.23,0.19,0.46,0.29,0.69c0,0,0-0.01,0-0.01
					c0.03,0.25,0.07,0.51,0.1,0.76c0,0,0-0.01,0-0.01c-0.03,0.25-0.07,0.51-0.1,0.76c0-0.01,0-0.01,0-0.02
					c-0.1,0.23-0.19,0.46-0.29,0.69c0,0,0-0.01,0-0.01c0.21-0.33,0.32-0.69,0.34-1.07c0.08-0.38,0.07-0.76-0.05-1.15
					c-0.09-0.38-0.26-0.7-0.52-0.98c-0.2-0.32-0.47-0.56-0.81-0.74c-0.23-0.1-0.46-0.19-0.69-0.29c-0.51-0.14-1.02-0.14-1.53,0
					c-0.23,0.1-0.46,0.19-0.69,0.29C80.26,75.46,79.92,75.8,79.66,76.24L79.66,76.24z"/>
			</g>
			<g>
				<path class="st4" d="M95.92,77.23c0,0.08,0,0.16,0.01,0.24c-0.02,0.4,0.07,0.77,0.25,1.11c0.12,0.36,0.32,0.67,0.6,0.93
					c0.26,0.28,0.57,0.48,0.93,0.6c0.34,0.18,0.72,0.26,1.11,0.25c0.25-0.03,0.51-0.07,0.76-0.1c0.49-0.14,0.91-0.38,1.27-0.74
					c0.15-0.2,0.3-0.39,0.45-0.58c0.26-0.45,0.39-0.93,0.39-1.46c0-0.08,0-0.16-0.01-0.24c0.02-0.4-0.07-0.77-0.25-1.11
					c-0.12-0.36-0.32-0.67-0.6-0.93c-0.26-0.28-0.57-0.48-0.93-0.6c-0.34-0.18-0.72-0.26-1.11-0.25c-0.25,0.03-0.51,0.07-0.76,0.1
					c-0.49,0.14-0.91,0.38-1.27,0.74c-0.15,0.2-0.3,0.39-0.45,0.58C96.05,76.22,95.92,76.71,95.92,77.23L95.92,77.23z"/>
			</g>
			<g>
				<path class="st4" d="M112.64,74.86c-0.1,0.22-0.21,0.48-0.3,0.71c0,0.01-0.01,0.02-0.01,0.03c0,0.02-0.01,0.03-0.02,0.05
					c-0.07,0.28-0.1,0.58-0.12,0.86c0,0.02,0,0.04,0,0.06c0.02,0.27,0.07,0.54,0.11,0.81c0,0.04,0.02,0.07,0.03,0.11
					c0.04,0.13,0.12,0.29,0.16,0.39c0.05,0.11,0.1,0.27,0.17,0.39c0.01,0.02,0.02,0.03,0.03,0.05c0.14,0.21,0.43,0.56,0.48,0.62
					c0.02,0.03,0.05,0.05,0.07,0.08c0.2,0.17,0.41,0.33,0.62,0.48c0.02,0.01,0.03,0.02,0.05,0.03c0.33,0.21,0.69,0.32,1.07,0.34
					c0.38,0.08,0.76,0.07,1.15-0.05c0.38-0.09,0.7-0.26,0.98-0.52c0.32-0.2,0.56-0.47,0.74-0.81c0.1-0.23,0.19-0.46,0.29-0.69
					c0.14-0.51,0.14-1.02,0-1.53c-0.1-0.23-0.19-0.46-0.29-0.69c-0.26-0.43-0.6-0.78-1.03-1.03c-0.02-0.01-0.04-0.03-0.07-0.04
					c0.2,0.15,0.39,0.3,0.58,0.45c-0.03-0.03-0.07-0.06-0.1-0.1c0.15,0.2,0.3,0.39,0.45,0.58c-0.03-0.04-0.06-0.08-0.08-0.13
					c0.1,0.23,0.19,0.46,0.29,0.69c-0.02-0.05-0.03-0.1-0.04-0.16c0.03,0.25,0.07,0.51,0.1,0.76c-0.01-0.05-0.01-0.1,0-0.14
					c-0.03,0.25-0.07,0.51-0.1,0.76c0.01-0.05,0.02-0.09,0.04-0.14c-0.1,0.23-0.19,0.46-0.29,0.69c0,0,0-0.01,0-0.01
					c0.21-0.33,0.32-0.69,0.34-1.07c0.08-0.38,0.07-0.76-0.05-1.15c-0.09-0.38-0.26-0.7-0.52-0.98c-0.2-0.32-0.47-0.56-0.81-0.74
					c-0.23-0.1-0.46-0.19-0.69-0.29c-0.51-0.14-1.02-0.14-1.53,0c-0.23,0.1-0.46,0.19-0.69,0.29
					C113.24,74.08,112.9,74.42,112.64,74.86L112.64,74.86z"/>
			</g>
		</g>
		<g>
			<path class="st4" d="M35.87,35.44c0.23-3.13,0.61-7.28,2.49-9.92c1.93-2.69,5.44-3.92,8.55-4.51c3.63-0.69,7.38-0.6,11.07-0.64
				c3.68-0.05,7.37-0.07,11.05-0.09c14.98-0.07,30.05-0.2,45.02,0.52c3.9,0.19,7.98,0.82,10.94,3.61c2.5,2.36,3.79,5.67,4.64,8.93
				c0.12,0.43,0.56,0.78,1.01,0.77h0c-0.34-0.26-0.68-0.52-1.01-0.77c1.55,6.39,1.86,13.1,1.91,19.66
				c0.04,6.62-0.24,13.26-0.69,19.86c-0.38,5.57-1.57,11.47-7.08,14.14c-5.33,2.58-12.17,2.21-17.94,2.61
				c-13.67,0.96-27.33,1.85-41.01,2.66c-6.61,0.39-13.32,1.04-19.92,0.26c-3.14-0.37-6.35-1.17-7.78-4.3
				c-1.27-2.78-1.41-6.18-1.64-9.18c-0.57-7.45-0.18-14.94,0.03-22.4c0.22-7.47,0.43-14.94,0.67-22.41c0.04-1.35-2.06-1.35-2.1,0
				c-0.23,7.08-0.42,14.17-0.63,21.26c-0.22,7.35-0.61,14.72-0.17,22.07c0.31,5.16,0.3,12.67,5.56,15.47
				c2.59,1.38,5.74,1.63,8.62,1.81c3.54,0.23,7.08,0.1,10.62-0.09c14.92-0.81,29.82-1.81,44.73-2.84c3.74-0.26,7.48-0.51,11.21-0.8
				c2.83-0.22,5.72-0.5,8.44-1.37c5.31-1.71,8.58-5.72,9.76-11.11c0.7-3.21,0.8-6.52,0.96-9.8c0.21-4.15,0.4-8.3,0.46-12.46
				c0.1-7.85-0.12-15.95-1.97-23.62c-0.1-0.44-0.57-0.78-1.01-0.77h0c0.34,0.26,0.68,0.52,1.01,0.77
				c-1.63-6.25-5.1-11.67-11.7-13.32c-3.68-0.91-7.55-0.83-11.31-0.91c-4.32-0.1-8.63-0.18-12.95-0.24
				c-8.64-0.12-17.27-0.16-25.91-0.13c-4.19,0.02-8.38,0.05-12.57,0.1c-3.84,0.05-7.73,0.02-11.5,0.83c-3.39,0.73-6.88,2.26-9,5.12
				c-2.24,3.03-2.68,7.55-2.95,11.21C33.67,36.79,35.77,36.78,35.87,35.44L35.87,35.44z"/>
		</g>
		<g>
			<path class="st4" d="M130.65,34.01c0.18,0,0.37-0.01,0.55-0.02c0-0.64,0-1.28,0-1.92c-6.38,0.17-12.77,0.29-19.15,0.4
				c-6.35,0.11-12.7,0.23-19.05,0.39c-4.9,0.13-9.8,0.17-14.7,0.27c-6.69,0.13-13.37,0.39-20.05,0.63c-7.2,0.26-14.4,0.52-21.6,0.67
				c-0.81,0.02-1.63,0.03-2.44,0.05c-1.23,0.03-1.24,1.95,0,1.92c7.12-0.16,14.24-0.37,21.37-0.63c6.95-0.25,13.9-0.52,20.86-0.68
				c5.01-0.12,10.03-0.16,15.05-0.27c6.12-0.13,12.24-0.29,18.37-0.39c6.24-0.11,12.48-0.22,18.72-0.37
				c0.88-0.02,1.77-0.05,2.65-0.07c1.23-0.03,1.24-1.96,0-1.92c-0.18,0-0.37,0.01-0.55,0.02C129.41,32.13,129.41,34.05,130.65,34.01
				L130.65,34.01z"/>
		</g>
		<g>
			<g>
				<path class="st4" d="M47.38,14.52c0.65,3.71,0.78,7.5,0.43,11.25c-0.05,0.52,0.48,0.96,0.96,0.96c0.56,0,0.91-0.44,0.96-0.96
					c0.36-3.93,0.17-7.88-0.5-11.76c-0.09-0.51-0.72-0.8-1.18-0.67C47.51,13.49,47.29,14.01,47.38,14.52L47.38,14.52z"/>
			</g>
			<g>
				<path class="st4" d="M114.88,13.64c0.03,3.59-0.1,7.19-0.41,10.77c-0.04,0.52,0.47,0.96,0.96,0.96c0.56,0,0.92-0.44,0.96-0.96
					c0.3-3.58,0.44-7.18,0.41-10.77C116.79,12.4,114.87,12.4,114.88,13.64L114.88,13.64z"/>
			</g>
		</g>
	</g>
</g>
</svg>
