<?xml version="1.0" encoding="utf-8"?>
<!-- Generator: Adobe Illustrator 24.1.2, SVG Export Plug-In . SVG Version: 6.00 Build 0)  -->
<svg version="1.1" id="Camada_1" xmlns="http://www.w3.org/2000/svg" xmlns:xlink="http://www.w3.org/1999/xlink" x="0px" y="0px"
	 viewBox="0 0 137.34 110.96" style="enable-background:new 0 0 137.34 110.96;" xml:space="preserve">
<style type="text/css">
	.st0{fill:#2B2B2B;}
	.st1{fill:#969696;}
	.st2{fill:#E8A325;}
	.st3{fill:none;stroke:#969696;stroke-miterlimit:10;}
	.st4{fill:#FFFFFF;}
	.st5{fill:none;stroke:#E8A325;stroke-width:0.75;stroke-linecap:round;stroke-miterlimit:10;stroke-dasharray:5.0257,12.0616;}
	.st6{fill:#474747;}
	.st7{fill:none;stroke:#E8A325;stroke-width:5;stroke-linecap:round;stroke-miterlimit:10;}
	.st8{fill:none;stroke:#969696;stroke-width:2;stroke-linecap:round;stroke-miterlimit:10;stroke-dasharray:5,13;}
	.st9{opacity:0.17;fill:none;stroke:#B2B2B2;stroke-width:3;enable-background:new    ;}
	.st10{opacity:0.17;}
	.st11{fill:none;stroke:#B2B2B2;stroke-width:3;}
	.st12{fill:#B2B2B2;}
	.st13{fill:none;stroke:#FFFFFF;stroke-width:5;stroke-miterlimit:10;}
	.st14{fill:none;stroke:#E8A325;stroke-linecap:round;stroke-miterlimit:10;}
	.st15{fill:none;stroke:#E8A325;stroke-width:0.5;stroke-miterlimit:10;}
	.st16{fill:#E49412;stroke:#E8A325;stroke-width:0.5;stroke-miterlimit:10;}
	.st17{fill:none;stroke:#FFFFFF;stroke-width:3;stroke-miterlimit:10;}
	.st18{fill:#F7A416;}
	.st19{fill:#454545;}
	.st20{fill:#343434;}
	.st21{fill:#F4F4F4;}
	.st22{fill:none;stroke:#E8A325;stroke-width:3.5;stroke-linecap:round;stroke-linejoin:round;stroke-miterlimit:10;}
</style>
<g>
	<g>
		<path class="st2" d="M42.64,82.53c-22.5,0-39.16-18.39-40.13-40.13C1.54,20.73,21.65,2.27,42.64,2.27
			c22.5,0,39.16,18.39,40.13,40.13C83.74,64.07,63.63,82.53,42.64,82.53z"/>
	</g>
	<g>
		<g>
			<path class="st4" d="M42.64,83.44c-10.94,0-21.16-4.33-28.79-12.19C6.44,63.62,2.09,53.39,1.6,42.44
				C1.15,32.42,5.05,22.56,12.59,14.68C20.68,6.21,31.64,1.36,42.64,1.36c10.94,0,21.16,4.33,28.79,12.19
				c7.41,7.63,11.76,17.87,12.25,28.81c0.45,10.02-3.45,19.88-10.99,27.76C64.6,78.58,53.64,83.44,42.64,83.44z M42.64,3.18
				c-10.36,0-21.1,4.77-28.74,12.76C6.72,23.46,2.99,32.84,3.42,42.36C4.4,64.38,21.63,81.62,42.64,81.62
				c10.35,0,21.09-4.77,28.73-12.76c7.19-7.52,10.91-16.9,10.49-26.42C80.88,20.42,63.65,3.18,42.64,3.18z"/>
		</g>
	</g>
	<g>
		<g>
			<path class="st4" d="M42.92,44.85c0.99,0,1.76-0.55,2.2-1.32h22.31c0.66,0,1.1-0.44,1.1-1.1s-0.44-1.1-1.1-1.1H45.11
				c-0.22-0.44-0.55-0.88-1.1-1.1V20.34c0-0.66-0.44-1.1-1.1-1.1s-1.1,0.44-1.1,1.1v19.89c-0.77,0.44-1.32,1.21-1.32,2.2
				C40.5,43.75,41.6,44.85,42.92,44.85z"/>
		</g>
		<g>
			<path class="st4" d="M42.92,13.54c0.66,0,1.1-0.44,1.1-1.1V9.25c0-0.66-0.44-1.1-1.1-1.1c-0.66,0-1.1,0.44-1.1,1.1v3.19
				C41.82,13.09,42.37,13.54,42.92,13.54z"/>
		</g>
		<g>
			<path class="st4" d="M71.37,42.65c0,0.55,0.55,1.1,1.1,1.1l0,0h3.19c0.66,0,1.1-0.55,1.1-1.1c0-0.55-0.55-1.1-1.1-1.1l0,0h-3.19
				C71.82,41.56,71.37,41.99,71.37,42.65z"/>
		</g>
		<g>
			<path class="st4" d="M42.59,71.34c-0.66,0-1.1,0.55-1.1,1.1l0.11,3.19c0,0.55,0.55,1.1,1.1,1.1l0,0c0.66,0,1.1-0.55,1.1-1.1
				v-3.19C43.79,71.77,43.25,71.34,42.59,71.34z"/>
		</g>
		<g>
			<path class="st4" d="M13.58,42.99c0-0.66-0.44-1.1-1.1-1.1l-3.19,0.11c-0.66,0-1.1,0.55-1.1,1.1s0.55,1.1,1.1,1.1l0,0l3.19-0.11
				C13.14,44.08,13.58,43.53,13.58,42.99z"/>
		</g>
		<g>
			<path class="st4" d="M56.76,17.38c0.22,0.11,0.33,0.11,0.55,0.11c0.44,0,0.77-0.22,0.99-0.55l1.54-2.86
				c0.33-0.55,0.11-1.21-0.44-1.54c-0.55-0.33-1.21-0.11-1.54,0.44l-1.54,2.86C56.1,16.5,56.32,17.16,56.76,17.38z"/>
		</g>
		<g>
			<path class="st4" d="M71.92,57.71l-2.86-1.54c-0.55-0.33-1.21-0.11-1.54,0.44c-0.33,0.55-0.11,1.21,0.44,1.54l2.86,1.54
				c0.22,0.11,0.33,0.11,0.55,0.11c0.44,0,0.77-0.22,0.99-0.55C72.69,58.59,72.48,57.93,71.92,57.71z"/>
		</g>
		<g>
			<path class="st4" d="M27.09,68.26l-1.54,2.86c-0.33,0.55-0.11,1.21,0.44,1.54c0.11,0.11,0.33,0.11,0.55,0.11
				c0.44,0,0.77-0.22,0.99-0.55l1.54-2.86c0.33-0.55,0.11-1.21-0.44-1.54C27.97,67.49,27.31,67.71,27.09,68.26z"/>
		</g>
		<g>
			<path class="st4" d="M12.59,27.93l2.86,1.43c0.11,0.11,0.33,0.11,0.55,0.11c0.44,0,0.77-0.22,0.99-0.55
				c0.33-0.55,0.11-1.21-0.44-1.43l-2.97-1.54c-0.55-0.22-1.21-0.11-1.43,0.44C11.82,26.94,12.04,27.6,12.59,27.93z"/>
		</g>
		<g>
			<path class="st4" d="M68.41,28.92c0.22,0,0.44,0,0.55-0.11l2.75-1.65c0.55-0.33,0.66-0.99,0.33-1.54
				c-0.33-0.55-0.99-0.66-1.54-0.33l-2.75,1.65c-0.55,0.33-0.66,0.99-0.33,1.54C67.64,28.7,67.97,28.92,68.41,28.92z"/>
		</g>
		<g>
			<path class="st4" d="M58.74,68.04c-0.33-0.55-0.99-0.66-1.54-0.33c-0.55,0.33-0.66,0.99-0.33,1.54L58.52,72
				c0.22,0.33,0.55,0.55,0.99,0.55c0.22,0,0.44,0,0.55-0.11c0.55-0.33,0.66-0.99,0.33-1.54L58.74,68.04z"/>
		</g>
		<g>
			<path class="st4" d="M17.86,57.93c-0.33-0.55-0.99-0.66-1.54-0.33l-2.75,1.76c-0.55,0.33-0.66,0.99-0.33,1.54
				c0.22,0.33,0.55,0.55,0.88,0.55c0.22,0,0.44,0,0.55-0.22l2.75-1.76C17.97,59.14,18.19,58.48,17.86,57.93z"/>
		</g>
		<g>
			<path class="st4" d="M25.55,18.15c0.22,0.33,0.55,0.55,0.88,0.55c0.22,0,0.44-0.11,0.55-0.22c0.55-0.33,0.66-0.99,0.33-1.54
				l-1.76-2.75c-0.33-0.55-0.99-0.66-1.54-0.33c-0.55,0.33-0.66,0.99-0.33,1.54L25.55,18.15z"/>
		</g>
	</g>
	<g>
		<path class="st0" d="M100.2,28.81v43.43H67.6V39.25c7.4-6.67,17.15-10.82,27.1-10.82C96.58,28.43,98.41,28.56,100.2,28.81z"/>
	</g>
	<g>
		<path class="st2" d="M94.71,108.69c-22.5,0-39.16-18.39-40.13-40.13c-0.61-13.63,7.11-25.98,18.15-33.28
			c4.62,7.32,17.02,26.75,22.25,33.28c0,0,0.1-30.88-0.27-40.13c22.5,0,39.16,18.39,40.13,40.13
			C135.81,90.23,115.7,108.69,94.71,108.69z"/>
	</g>
	<g>
		<g>
			<path class="st4" d="M94.98,71.02c0.99,0,1.76-0.55,2.2-1.32h22.31c0.66,0,1.1-0.44,1.1-1.1c0-0.66-0.44-1.1-1.1-1.1H97.18
				c-0.22-0.44-0.55-0.88-1.1-1.1V46.51c0-0.66-0.44-1.1-1.1-1.1c-0.66,0-1.1,0.44-1.1,1.1V66.4c-0.77,0.44-1.32,1.21-1.32,2.2
				C92.56,69.92,93.66,71.02,94.98,71.02z"/>
		</g>
		<g>
			<path class="st4" d="M94.98,39.7c0.66,0,1.1-0.44,1.1-1.1v-3.19c0-0.66-0.44-1.1-1.1-1.1c-0.66,0-1.1,0.44-1.1,1.1v3.19
				C93.88,39.26,94.43,39.7,94.98,39.7z"/>
		</g>
		<g>
			<path class="st4" d="M123.44,68.82c0,0.55,0.55,1.1,1.1,1.1l0,0h3.19c0.66,0,1.1-0.55,1.1-1.1c0-0.55-0.55-1.1-1.1-1.1l0,0h-3.19
				C123.88,67.72,123.44,68.16,123.44,68.82z"/>
		</g>
		<g>
			<path class="st4" d="M94.65,97.5c-0.66,0-1.1,0.55-1.1,1.1l0.11,3.19c0,0.55,0.55,1.1,1.1,1.1l0,0c0.66,0,1.1-0.55,1.1-1.1V98.6
				C95.86,97.94,95.31,97.5,94.65,97.5z"/>
		</g>
		<g>
			<path class="st4" d="M65.64,69.15c0-0.66-0.44-1.1-1.1-1.1l-3.19,0.11c-0.66,0-1.1,0.55-1.1,1.1c0,0.55,0.55,1.1,1.1,1.1l0,0
				l3.19-0.11C65.21,70.25,65.64,69.7,65.64,69.15z"/>
		</g>
		<g>
			<path class="st4" d="M108.83,43.55c0.22,0.11,0.33,0.11,0.55,0.11c0.44,0,0.77-0.22,0.99-0.55l1.54-2.86
				c0.33-0.55,0.11-1.21-0.44-1.54c-0.55-0.33-1.21-0.11-1.54,0.44l-1.54,2.86C108.17,42.67,108.39,43.33,108.83,43.55z"/>
		</g>
		<g>
			<path class="st4" d="M123.99,83.87l-2.86-1.54c-0.55-0.33-1.21-0.11-1.54,0.44c-0.33,0.55-0.11,1.21,0.44,1.54l2.86,1.54
				c0.22,0.11,0.33,0.11,0.55,0.11c0.44,0,0.77-0.22,0.99-0.55C124.76,84.76,124.54,84.1,123.99,83.87z"/>
		</g>
		<g>
			<path class="st4" d="M79.16,94.42l-1.54,2.86c-0.33,0.55-0.11,1.21,0.44,1.54c0.11,0.11,0.33,0.11,0.55,0.11
				c0.44,0,0.77-0.22,0.99-0.55l1.54-2.86c0.33-0.55,0.11-1.21-0.44-1.54C80.04,93.65,79.38,93.88,79.16,94.42z"/>
		</g>
		<g>
			<path class="st4" d="M64.66,54.1l2.86,1.43c0.11,0.11,0.33,0.11,0.55,0.11c0.44,0,0.77-0.22,0.99-0.55
				c0.33-0.55,0.11-1.21-0.44-1.43l-2.97-1.54c-0.55-0.22-1.21-0.11-1.43,0.44C63.89,53.11,64.11,53.77,64.66,54.1z"/>
		</g>
		<g>
			<path class="st4" d="M120.48,55.09c0.22,0,0.44,0,0.55-0.11l2.75-1.65c0.55-0.33,0.66-0.99,0.33-1.54
				c-0.33-0.55-0.99-0.66-1.54-0.33l-2.75,1.65c-0.55,0.33-0.66,0.99-0.33,1.54C119.71,54.87,120.04,55.09,120.48,55.09z"/>
		</g>
		<g>
			<path class="st4" d="M110.81,94.2c-0.33-0.55-0.99-0.66-1.54-0.33c-0.55,0.33-0.66,0.99-0.33,1.54l1.65,2.75
				c0.22,0.33,0.55,0.55,0.99,0.55c0.22,0,0.44,0,0.55-0.11c0.55-0.33,0.66-0.99,0.33-1.54L110.81,94.2z"/>
		</g>
		<g>
			<path class="st4" d="M69.93,84.1c-0.33-0.55-0.99-0.66-1.54-0.33l-2.75,1.76c-0.55,0.33-0.66,0.99-0.33,1.54
				c0.22,0.33,0.55,0.55,0.88,0.55c0.22,0,0.44,0,0.55-0.22l2.75-1.76C70.04,85.3,70.26,84.64,69.93,84.1z"/>
		</g>
		<g>
			<path class="st4" d="M77.62,44.32c0.22,0.33,0.55,0.55,0.88,0.55c0.22,0,0.44-0.11,0.55-0.22c0.55-0.33,0.66-0.99,0.33-1.54
				l-1.76-2.75c-0.33-0.55-0.99-0.66-1.54-0.33c-0.55,0.33-0.66,0.99-0.33,1.54L77.62,44.32z"/>
		</g>
	</g>
	<g>
		<g>
			<path class="st4" d="M94.71,109.6c-10.94,0-21.16-4.33-28.79-12.19c-7.41-7.63-11.76-17.87-12.25-28.81
				c-0.49-11.02,4.37-21.96,13.33-30.03c7.8-7.02,17.9-11.05,27.71-11.05c1.89,0,3.78,0.13,5.62,0.38
				c19.59,2.7,34.49,19.78,35.42,40.62c0.45,10.02-3.45,19.88-10.99,27.76C116.66,104.75,105.71,109.6,94.71,109.6z M94.71,29.34
				c-9.37,0-19.03,3.86-26.49,10.58c-8.56,7.71-13.19,18.13-12.73,28.6c0.98,22.02,18.21,39.26,39.22,39.26
				c10.35,0,21.09-4.77,28.73-12.76c7.19-7.52,10.91-16.9,10.49-26.42c-0.89-19.96-15.13-36.32-33.85-38.9
				C98.32,29.47,96.51,29.34,94.71,29.34z"/>
		</g>
	</g>
</g>
</svg>
