<?xml version="1.0" encoding="utf-8"?>
<!-- Generator: Adobe Illustrator 24.1.2, SVG Export Plug-In . SVG Version: 6.00 Build 0)  -->
<svg version="1.1" id="Camada_1" xmlns="http://www.w3.org/2000/svg" xmlns:xlink="http://www.w3.org/1999/xlink" x="0px" y="0px"
	 viewBox="0 0 744.93 43.51" style="enable-background:new 0 0 744.93 43.51;" xml:space="preserve">
<style type="text/css">
	.st0{fill:#2B2B2B;}
	.st1{fill:#969696;}
	.st2{fill:#E8A325;}
	.st3{fill:none;stroke:#969696;stroke-miterlimit:10;}
	.st4{fill:#FFFFFF;}
	.st5{fill:none;stroke:#E8A325;stroke-width:0.75;stroke-linecap:round;stroke-miterlimit:10;stroke-dasharray:5.0257,12.0616;}
	.st6{fill:#474747;}
	.st7{fill:none;stroke:#E8A325;stroke-width:5;stroke-linecap:round;stroke-miterlimit:10;}
	.st8{fill:none;stroke:#969696;stroke-width:2;stroke-linecap:round;stroke-miterlimit:10;stroke-dasharray:5,13;}
	.st9{opacity:0.17;fill:none;stroke:#B2B2B2;stroke-width:3;}
	.st10{opacity:0.17;}
	.st11{fill:none;stroke:#B2B2B2;stroke-width:3;}
	.st12{fill:#B2B2B2;}
	.st13{fill:none;stroke:#FFFFFF;stroke-width:5;stroke-miterlimit:10;}
	.st14{fill:none;stroke:#E8A325;stroke-linecap:round;stroke-miterlimit:10;}
	.st15{fill:none;stroke:#E8A325;stroke-width:0.5;stroke-miterlimit:10;}
	.st16{fill:#E49412;stroke:#E8A325;stroke-width:0.5;stroke-miterlimit:10;}
	.st17{fill:none;stroke:#FFFFFF;stroke-width:3;stroke-miterlimit:10;}
	.st18{fill:#F7A416;}
	.st19{fill:#454545;}
</style>
<g>
	<path class="st19" d="M10.1,23.56c93.88,9.09,188.73,10.21,282.99,8.98c47.41-0.62,94.79-2.56,142.13-5.06
		c46.82-2.47,93.65-5.32,140.55-5.44c26.25-0.07,52.47,0.83,78.64,2.81c13.2,1,26.39,2.11,39.61,2.7
		c13.14,0.58,26.53,1.16,39.46-1.54c5.58-1.17,3.95-9.24-1.29-9.53c-11.76-0.65-23.55-0.06-35.34-0.49
		c-11.81-0.43-23.59-1.32-35.37-2.21c-23.29-1.75-46.58-2.94-69.95-3.15c-46.89-0.43-93.74,2.15-140.54,4.79
		c-93.77,5.29-187.57,8.47-281.5,7.48c-53.15-0.56-106.26-2.46-159.4-3.74C7.21,19.07,7.32,23.29,10.1,23.56L10.1,23.56z"/>
</g>
</svg>
