<?xml version="1.0" encoding="utf-8"?>
<!-- Generator: Adobe Illustrator 24.1.2, SVG Export Plug-In . SVG Version: 6.00 Build 0)  -->
<svg version="1.1" id="Camada_1" xmlns="http://www.w3.org/2000/svg" xmlns:xlink="http://www.w3.org/1999/xlink" x="0px" y="0px"
	 viewBox="0 0 145.72 145.6" style="enable-background:new 0 0 145.72 145.6;" xml:space="preserve">
<style type="text/css">
	.st0{fill:#2B2B2B;}
	.st1{fill:#969696;}
	.st2{fill:#E8A325;}
	.st3{fill:none;stroke:#969696;stroke-miterlimit:10;}
	.st4{fill:#FFFFFF;}
	.st5{fill:none;stroke:#E8A325;stroke-width:0.75;stroke-linecap:round;stroke-miterlimit:10;stroke-dasharray:5.0257,12.0616;}
	.st6{fill:#474747;}
	.st7{fill:none;stroke:#E8A325;stroke-width:5;stroke-linecap:round;stroke-miterlimit:10;}
	.st8{fill:none;stroke:#969696;stroke-width:2;stroke-linecap:round;stroke-miterlimit:10;stroke-dasharray:5,13;}
	.st9{opacity:0.17;fill:none;stroke:#B2B2B2;stroke-width:3;enable-background:new    ;}
	.st10{opacity:0.17;}
	.st11{fill:none;stroke:#B2B2B2;stroke-width:3;}
	.st12{fill:#B2B2B2;}
	.st13{fill:none;stroke:#FFFFFF;stroke-width:5;stroke-miterlimit:10;}
	.st14{fill:none;stroke:#E8A325;stroke-linecap:round;stroke-miterlimit:10;}
	.st15{fill:none;stroke:#E8A325;stroke-width:0.5;stroke-miterlimit:10;}
	.st16{fill:#E49412;stroke:#E8A325;stroke-width:0.5;stroke-miterlimit:10;}
	.st17{fill:none;stroke:#FFFFFF;stroke-width:3;stroke-miterlimit:10;}
	.st18{fill:#F7A416;}
	.st19{fill:#454545;}
	.st20{fill:#343434;}
	.st21{fill:#F4F4F4;}
	.st22{fill:none;stroke:#E8A325;stroke-width:3.5;stroke-linecap:round;stroke-linejoin:round;stroke-miterlimit:10;}
</style>
<g>
	<g>
		<g>
			<g>
				<path class="st4" d="M72.86,145.6c-19.41,0-37.55-7.68-51.08-21.63C8.64,110.44,0.93,92.31,0.06,72.91
					c-0.8-17.8,6.13-35.31,19.5-49.3C33.91,8.61,53.34,0,72.86,0c19.41,0,37.55,7.68,51.08,21.63
					c13.13,13.53,20.85,31.67,21.72,51.06c0.8,17.8-6.13,35.31-19.5,49.3C111.8,136.99,92.38,145.6,72.86,145.6z M72.86,5
					c-17.89,0-36.47,8.25-49.68,22.07C10.76,40.06,4.32,56.26,5.06,72.69c1.71,38.08,31.49,67.91,67.8,67.91
					c17.89,0,36.47-8.25,49.68-22.07c12.42-12.99,18.86-29.19,18.12-45.62C138.95,34.83,109.17,5,72.86,5z"/>
			</g>
		</g>
	</g>
	<g id="XMLID_92_">
		<g>
			<polygon class="st22" points="54.01,37.9 54.01,102.18 70.56,90.07 79.33,107.7 93.16,100.65 85.12,83.29 105.1,77.86 			"/>
		</g>
	</g>
</g>
</svg>
