<?xml version="1.0" encoding="utf-8"?>
<!-- Generator: Adobe Illustrator 24.1.2, SVG Export Plug-In . SVG Version: 6.00 Build 0)  -->
<svg version="1.1" id="Camada_1" xmlns="http://www.w3.org/2000/svg" xmlns:xlink="http://www.w3.org/1999/xlink" x="0px" y="0px"
	 viewBox="0 0 179.11 173.51" style="enable-background:new 0 0 179.11 173.51;" xml:space="preserve">
<style type="text/css">
	.st0{fill:#2B2B2B;}
	.st1{fill:#969696;}
	.st2{fill:#E8A325;}
	.st3{fill:none;stroke:#969696;stroke-miterlimit:10;}
	.st4{fill:#FFFFFF;}
	.st5{fill:none;stroke:#E8A325;stroke-width:0.75;stroke-linecap:round;stroke-miterlimit:10;stroke-dasharray:5.0257,12.0616;}
	.st6{fill:#474747;}
	.st7{fill:none;stroke:#E8A325;stroke-width:5;stroke-linecap:round;stroke-miterlimit:10;}
	.st8{fill:none;stroke:#969696;stroke-width:2;stroke-linecap:round;stroke-miterlimit:10;stroke-dasharray:5,13;}
	.st9{opacity:0.17;fill:none;stroke:#B2B2B2;stroke-width:3;}
	.st10{opacity:0.17;}
	.st11{fill:none;stroke:#B2B2B2;stroke-width:3;}
	.st12{fill:#B2B2B2;}
	.st13{fill:none;stroke:#FFFFFF;stroke-width:5;stroke-miterlimit:10;}
	.st14{fill:none;stroke:#E8A325;stroke-linecap:round;stroke-miterlimit:10;}
	.st15{fill:none;stroke:#E8A325;stroke-width:0.5;stroke-miterlimit:10;}
	.st16{fill:#E49412;stroke:#E8A325;stroke-width:0.5;stroke-miterlimit:10;}
	.st17{fill:none;stroke:#FFFFFF;stroke-width:3;stroke-miterlimit:10;}
	.st18{fill:#F7A416;}
	.st19{fill:#454545;}
</style>
<g>
	<g>
		<path class="st13" d="M89.55,157.06c36.77,0,72-32.34,70.3-70.3c-1.71-38.09-30.89-70.3-70.3-70.3c-36.77,0-72,32.34-70.3,70.3
			C20.96,124.85,50.14,157.06,89.55,157.06L89.55,157.06z"/>
	</g>
</g>
<g>
	<g>
		<path class="st2" d="M85.98,52.31c2.87,17.83,0.62,35.96,1.96,53.89c0.38,5.15,1.07,10.29,2.17,15.35
			c1.22-0.94,2.45-1.88,3.67-2.82c-9.94-7.01-18.6-15.51-26.14-25.04c-1.18,1.18-2.36,2.36-3.54,3.54
			c7.14,7.9,14.29,15.81,21.43,23.71c1.55,1.72,3.18,3.53,5.7,3.43c2.39-0.09,4.11-1.87,5.6-3.55c2.94-3.3,5.72-6.75,8.5-10.18
			c3.16-3.9,6.31-7.82,9.67-11.55c0.9-1,0.99-2.55,0-3.54c-1.05-1.05-2.46-0.83-3.54,0c-8.95,6.93-16.18,16.05-22.99,25.01
			c-0.82,1.08-0.17,2.8,0.9,3.42c1.28,0.75,2.6,0.18,3.42-0.9c6.55-8.63,13.6-17.33,22.2-24c-1.18-1.18-2.36-2.36-3.54-3.54
			c-5.54,6.14-10.51,12.76-15.87,19.06c-1.22,1.44-2.42,3.11-3.88,4.32c-0.23,0.19-0.49,0.46-0.78,0.4
			c-0.25-0.06-0.63-0.57-0.81-0.76c-0.48-0.51-0.94-1.03-1.4-1.55c-3.27-3.61-6.54-7.23-9.8-10.84c-3.77-4.17-7.53-8.33-11.3-12.5
			c-0.91-1-2.61-0.92-3.54,0c-1.05,1.05-0.84,2.47,0,3.54c7.81,9.88,16.85,18.56,27.15,25.82c1.91,1.35,4.1-0.87,3.67-2.82
			c-3.85-17.68-1.83-35.85-2.59-53.77c-0.22-5.18-0.7-10.35-1.53-15.47c-0.21-1.33-1.88-2.08-3.08-1.75
			C86.31,49.62,85.76,50.97,85.98,52.31L85.98,52.31z"/>
	</g>
</g>
</svg>
