<?xml version="1.0" encoding="utf-8"?>
<!-- Generator: Adobe Illustrator 24.1.2, SVG Export Plug-In . SVG Version: 6.00 Build 0)  -->
<svg version="1.1" id="Camada_1" xmlns="http://www.w3.org/2000/svg" xmlns:xlink="http://www.w3.org/1999/xlink" x="0px" y="0px"
	 viewBox="0 0 667.46 127.04" style="enable-background:new 0 0 667.46 127.04;" xml:space="preserve">
<style type="text/css">
	.st0{fill:#2B2B2B;}
	.st1{fill:#969696;}
	.st2{fill:#E8A325;}
	.st3{fill:none;stroke:#969696;stroke-miterlimit:10;}
	.st4{fill:#FFFFFF;}
	.st5{fill:none;stroke:#E8A325;stroke-width:0.75;stroke-linecap:round;stroke-miterlimit:10;stroke-dasharray:5.0257,12.0616;}
	.st6{fill:#474747;}
	.st7{fill:none;stroke:#E8A325;stroke-width:5;stroke-linecap:round;stroke-miterlimit:10;}
	.st8{fill:none;stroke:#969696;stroke-width:2;stroke-linecap:round;stroke-miterlimit:10;stroke-dasharray:5,13;}
	.st9{opacity:0.17;fill:none;stroke:#B2B2B2;stroke-width:3;enable-background:new    ;}
	.st10{opacity:0.17;}
	.st11{fill:none;stroke:#B2B2B2;stroke-width:3;}
	.st12{fill:#B2B2B2;}
	.st13{fill:none;stroke:#FFFFFF;stroke-width:5;stroke-miterlimit:10;}
	.st14{fill:none;stroke:#E8A325;stroke-linecap:round;stroke-miterlimit:10;}
	.st15{fill:none;stroke:#E8A325;stroke-width:0.5;stroke-miterlimit:10;}
	.st16{fill:#E49412;stroke:#E8A325;stroke-width:0.5;stroke-miterlimit:10;}
	.st17{fill:none;stroke:#FFFFFF;stroke-width:3;stroke-miterlimit:10;}
	.st18{fill:#F7A416;}
	.st19{fill:#454545;}
	.st20{fill:#343434;}
	.st21{fill:#F4F4F4;}
</style>
<g>
	<g>
		<g>
			<path class="st2" d="M179.32,2.02c-1.51,4.27-3.02,8.55-4.62,12.78c-1.61,4.24-3.58,8.34-5.18,12.58
				c-0.86,2.27,2.62,3.56,3.81,1.61c2.41-3.92,4.04-8.39,5.71-12.66c1.68-4.33,3.19-8.7,4.62-13.12
				C184.54,0.44,180.27-0.68,179.32,2.02L179.32,2.02z"/>
		</g>
	</g>
	<g>
		<g>
			<path class="st2" d="M189.27,2.02c-1.51,4.27-3.02,8.55-4.62,12.78c-1.61,4.24-3.58,8.34-5.18,12.58
				c-0.86,2.27,2.62,3.56,3.81,1.61c2.41-3.92,4.04-8.39,5.71-12.66c1.68-4.33,3.19-8.7,4.62-13.12
				C194.49,0.44,190.23-0.68,189.27,2.02L189.27,2.02z"/>
		</g>
	</g>
	<g>
		<g>
			<path class="st2" d="M199.23,2.02c-1.51,4.27-3.02,8.55-4.62,12.78c-1.61,4.24-3.58,8.34-5.18,12.58
				c-0.86,2.27,2.62,3.56,3.81,1.61c2.41-3.92,4.04-8.39,5.71-12.66c1.68-4.33,3.19-8.7,4.62-13.12
				C204.45,0.44,200.19-0.68,199.23,2.02L199.23,2.02z"/>
		</g>
	</g>
	<g>
		<g>
			<path class="st2" d="M209.19,2.02c-1.51,4.27-3.02,8.55-4.62,12.78c-1.61,4.24-3.58,8.34-5.18,12.58
				c-0.86,2.27,2.62,3.56,3.81,1.61c2.41-3.92,4.04-8.39,5.71-12.66c1.68-4.33,3.19-8.7,4.62-13.12
				C214.41,0.44,210.14-0.68,209.19,2.02L209.19,2.02z"/>
		</g>
	</g>
	<g>
		<g>
			<path class="st2" d="M219.15,2.02c-1.51,4.27-3.02,8.55-4.62,12.78c-1.61,4.24-3.58,8.34-5.18,12.58
				c-0.86,2.27,2.62,3.56,3.81,1.61c2.41-3.92,4.04-8.39,5.71-12.66c1.68-4.33,3.19-8.7,4.62-13.12
				C224.37,0.44,220.1-0.68,219.15,2.02L219.15,2.02z"/>
		</g>
	</g>
	<g>
		<g>
			<path class="st2" d="M229.1,2.02c-1.51,4.27-3.02,8.55-4.62,12.78c-1.61,4.24-3.58,8.34-5.18,12.58
				c-0.86,2.27,2.62,3.56,3.81,1.61c2.41-3.92,4.04-8.39,5.71-12.66c1.68-4.33,3.19-8.7,4.62-13.12
				C234.33,0.44,230.06-0.68,229.1,2.02L229.1,2.02z"/>
		</g>
	</g>
	<g>
		<g>
			<path class="st2" d="M239.06,2.02c-1.51,4.27-3.02,8.55-4.62,12.78c-1.61,4.24-3.58,8.34-5.18,12.58
				c-0.86,2.27,2.62,3.56,3.81,1.61c2.41-3.92,4.04-8.39,5.71-12.66c1.68-4.33,3.19-8.7,4.62-13.12
				C244.28,0.44,240.02-0.68,239.06,2.02L239.06,2.02z"/>
		</g>
	</g>
	<g>
		<g>
			<path class="st2" d="M249.02,2.02c-1.51,4.27-3.02,8.55-4.62,12.78c-1.61,4.24-3.58,8.34-5.18,12.58
				c-0.86,2.27,2.62,3.56,3.81,1.61c2.41-3.92,4.04-8.39,5.71-12.66c1.68-4.33,3.19-8.7,4.62-13.12
				C254.24,0.44,249.98-0.68,249.02,2.02L249.02,2.02z"/>
		</g>
	</g>
	<g>
		<g>
			<path class="st2" d="M258.98,2.02c-1.51,4.27-3.02,8.55-4.62,12.78c-1.61,4.24-3.58,8.34-5.18,12.58
				c-0.86,2.27,2.62,3.56,3.81,1.61c2.41-3.92,4.04-8.39,5.71-12.66c1.68-4.33,3.19-8.7,4.62-13.12
				C264.2,0.44,259.93-0.68,258.98,2.02L258.98,2.02z"/>
		</g>
	</g>
	<g>
		<g>
			<path class="st2" d="M268.94,2.02c-1.51,4.27-3.02,8.55-4.62,12.78c-1.61,4.24-3.58,8.34-5.18,12.58
				c-0.86,2.27,2.62,3.56,3.81,1.61c2.41-3.92,4.04-8.39,5.71-12.66c1.68-4.33,3.19-8.7,4.62-13.12
				C274.16,0.44,269.89-0.68,268.94,2.02L268.94,2.02z"/>
		</g>
	</g>
	<g>
		<g>
			<path class="st2" d="M278.89,2.02c-1.51,4.27-3.02,8.55-4.62,12.78c-1.61,4.24-3.58,8.34-5.18,12.58
				c-0.86,2.27,2.62,3.56,3.81,1.61c2.41-3.92,4.04-8.39,5.71-12.66c1.68-4.33,3.19-8.7,4.62-13.12
				C284.12,0.44,279.85-0.68,278.89,2.02L278.89,2.02z"/>
		</g>
	</g>
	<g>
		<g>
			<path class="st2" d="M288.85,2.02c-1.51,4.27-3.02,8.55-4.62,12.78c-1.61,4.24-3.58,8.34-5.18,12.58
				c-0.86,2.27,2.62,3.56,3.81,1.61c2.41-3.92,4.04-8.39,5.71-12.66c1.68-4.33,3.19-8.7,4.62-13.12
				C294.07,0.44,289.81-0.68,288.85,2.02L288.85,2.02z"/>
		</g>
	</g>
	<g>
		<g>
			<path class="st2" d="M298.81,2.02c-1.51,4.27-3.02,8.55-4.62,12.78c-1.61,4.24-3.58,8.34-5.18,12.58
				c-0.86,2.27,2.62,3.56,3.81,1.61c2.41-3.92,4.04-8.39,5.71-12.66c1.68-4.33,3.19-8.7,4.62-13.12
				C304.03,0.44,299.76-0.68,298.81,2.02L298.81,2.02z"/>
		</g>
	</g>
	<g>
		<g>
			<path class="st2" d="M308.77,2.02c-1.51,4.27-3.02,8.55-4.62,12.78c-1.61,4.24-3.58,8.34-5.18,12.58
				c-0.86,2.27,2.62,3.56,3.81,1.61c2.41-3.92,4.04-8.39,5.71-12.66c1.68-4.33,3.19-8.7,4.62-13.12
				C313.99,0.44,309.73-0.68,308.77,2.02L308.77,2.02z"/>
		</g>
	</g>
	<g>
		<g>
			<path class="st2" d="M318.73,2.02c-1.51,4.27-3.02,8.55-4.62,12.78c-1.61,4.24-3.58,8.34-5.18,12.58
				c-0.86,2.27,2.62,3.56,3.81,1.61c2.41-3.92,4.04-8.39,5.71-12.66c1.68-4.33,3.19-8.7,4.62-13.12
				C323.95,0.44,319.68-0.68,318.73,2.02L318.73,2.02z"/>
		</g>
	</g>
	<g>
		<g>
			<path class="st2" d="M328.69,2.02c-1.51,4.27-3.02,8.55-4.62,12.78c-1.61,4.24-3.58,8.34-5.18,12.58
				c-0.86,2.27,2.62,3.56,3.81,1.61c2.41-3.92,4.04-8.39,5.71-12.66c1.68-4.33,3.19-8.7,4.62-13.12
				C333.91,0.44,329.64-0.68,328.69,2.02L328.69,2.02z"/>
		</g>
	</g>
	<g>
		<g>
			<path class="st2" d="M338.64,2.02c-1.51,4.27-3.02,8.55-4.62,12.78c-1.61,4.24-3.58,8.34-5.18,12.58
				c-0.86,2.27,2.62,3.56,3.81,1.61c2.41-3.92,4.04-8.39,5.71-12.66c1.68-4.33,3.19-8.7,4.62-13.12
				C343.87,0.44,339.6-0.68,338.64,2.02L338.64,2.02z"/>
		</g>
	</g>
	<g>
		<g>
			<path class="st2" d="M348.6,2.02c-1.51,4.27-3.02,8.55-4.62,12.78c-1.61,4.24-3.58,8.34-5.18,12.58
				c-0.86,2.27,2.62,3.56,3.81,1.61c2.41-3.92,4.04-8.39,5.71-12.66c1.68-4.33,3.19-8.7,4.62-13.12
				C353.82,0.44,349.56-0.68,348.6,2.02L348.6,2.02z"/>
		</g>
	</g>
	<g>
		<g>
			<path class="st2" d="M358.56,2.02c-1.51,4.27-3.02,8.55-4.62,12.78c-1.61,4.24-3.58,8.34-5.18,12.58
				c-0.86,2.27,2.62,3.56,3.81,1.61c2.41-3.92,4.04-8.39,5.71-12.66c1.68-4.33,3.19-8.7,4.62-13.12
				C363.78,0.44,359.51-0.68,358.56,2.02L358.56,2.02z"/>
		</g>
	</g>
	<g>
		<g>
			<path class="st2" d="M368.52,2.02c-1.51,4.27-3.02,8.55-4.62,12.78c-1.61,4.24-3.58,8.34-5.18,12.58
				c-0.86,2.27,2.62,3.56,3.81,1.61c2.41-3.92,4.04-8.39,5.71-12.66c1.68-4.33,3.19-8.7,4.62-13.12
				C373.74,0.44,369.47-0.68,368.52,2.02L368.52,2.02z"/>
		</g>
	</g>
	<g>
		<g>
			<path class="st2" d="M378.48,2.02c-1.51,4.27-3.02,8.55-4.62,12.78c-1.61,4.24-3.58,8.34-5.18,12.58
				c-0.86,2.27,2.62,3.56,3.81,1.61c2.41-3.92,4.04-8.39,5.71-12.66c1.68-4.33,3.19-8.7,4.62-13.12
				C383.7,0.44,379.43-0.68,378.48,2.02L378.48,2.02z"/>
		</g>
	</g>
	<g>
		<g>
			<path class="st2" d="M388.43,2.02c-1.51,4.27-3.02,8.55-4.62,12.78c-1.61,4.24-3.58,8.34-5.18,12.58
				c-0.86,2.27,2.62,3.56,3.81,1.61c2.41-3.92,4.04-8.39,5.71-12.66c1.68-4.33,3.19-8.7,4.62-13.12
				C393.65,0.44,389.39-0.68,388.43,2.02L388.43,2.02z"/>
		</g>
	</g>
	<g>
		<g>
			<path class="st2" d="M398.39,2.02c-1.51,4.27-3.02,8.55-4.62,12.78c-1.61,4.24-3.58,8.34-5.18,12.58
				c-0.86,2.27,2.62,3.56,3.81,1.61c2.41-3.92,4.04-8.39,5.71-12.66c1.68-4.33,3.19-8.7,4.62-13.12
				C403.61,0.44,399.35-0.68,398.39,2.02L398.39,2.02z"/>
		</g>
	</g>
	<g>
		<g>
			<path class="st2" d="M408.35,2.02c-1.51,4.27-3.02,8.55-4.62,12.78c-1.61,4.24-3.58,8.34-5.18,12.58
				c-0.86,2.27,2.62,3.56,3.81,1.61c2.41-3.92,4.04-8.39,5.71-12.66c1.68-4.33,3.19-8.7,4.62-13.12
				C413.57,0.44,409.3-0.68,408.35,2.02L408.35,2.02z"/>
		</g>
	</g>
	<g>
		<g>
			<path class="st2" d="M418.31,2.02c-1.51,4.27-3.02,8.55-4.62,12.78c-1.61,4.24-3.58,8.34-5.18,12.58
				c-0.86,2.27,2.62,3.56,3.81,1.61c2.41-3.92,4.04-8.39,5.71-12.66c1.68-4.33,3.19-8.7,4.62-13.12
				C423.53,0.44,419.26-0.68,418.31,2.02L418.31,2.02z"/>
		</g>
	</g>
	<g>
		<g>
			<path class="st2" d="M428.26,2.02c-1.51,4.27-3.02,8.55-4.62,12.78c-1.61,4.24-3.58,8.34-5.18,12.58
				c-0.86,2.27,2.62,3.56,3.81,1.61c2.41-3.92,4.04-8.39,5.71-12.66c1.68-4.33,3.19-8.7,4.62-13.12
				C433.49,0.44,429.22-0.68,428.26,2.02L428.26,2.02z"/>
		</g>
	</g>
	<g>
		<g>
			<path class="st2" d="M438.23,2.02c-1.51,4.27-3.02,8.55-4.62,12.78c-1.61,4.24-3.58,8.34-5.18,12.58
				c-0.86,2.27,2.62,3.56,3.81,1.61c2.41-3.92,4.04-8.39,5.71-12.66c1.68-4.33,3.19-8.7,4.62-13.12
				C443.44,0.44,439.18-0.68,438.23,2.02L438.23,2.02z"/>
		</g>
	</g>
	<g>
		<g>
			<path class="st2" d="M448.18,2.02c-1.51,4.27-3.02,8.55-4.62,12.78c-1.61,4.24-3.58,8.34-5.18,12.58
				c-0.86,2.27,2.62,3.56,3.81,1.61c2.41-3.92,4.04-8.39,5.71-12.66c1.68-4.33,3.19-8.7,4.62-13.12
				C453.4,0.44,449.14-0.68,448.18,2.02L448.18,2.02z"/>
		</g>
	</g>
	<g>
		<g>
			<path class="st2" d="M458.14,2.02c-1.51,4.27-3.02,8.55-4.62,12.78c-1.61,4.24-3.58,8.34-5.18,12.58
				c-0.86,2.27,2.62,3.56,3.81,1.61c2.41-3.92,4.04-8.39,5.71-12.66c1.68-4.33,3.19-8.7,4.62-13.12
				C463.36,0.44,459.09-0.68,458.14,2.02L458.14,2.02z"/>
		</g>
	</g>
	<g>
		<g>
			<path class="st2" d="M468.1,2.02c-1.51,4.27-3.02,8.55-4.62,12.78c-1.61,4.24-3.58,8.34-5.18,12.58
				c-0.86,2.27,2.62,3.56,3.81,1.61c2.41-3.92,4.04-8.39,5.71-12.66c1.68-4.33,3.19-8.7,4.62-13.12
				C473.32,0.44,469.05-0.68,468.1,2.02L468.1,2.02z"/>
		</g>
	</g>
	<g>
		<g>
			<path class="st2" d="M478.06,2.02c-1.51,4.27-3.02,8.55-4.62,12.78c-1.61,4.24-3.58,8.34-5.18,12.58
				c-0.86,2.27,2.62,3.56,3.81,1.61c2.41-3.92,4.04-8.39,5.71-12.66c1.68-4.33,3.19-8.7,4.62-13.12
				C483.28,0.44,479.01-0.68,478.06,2.02L478.06,2.02z"/>
		</g>
	</g>
	<g>
		<g>
			<path class="st2" d="M488.01,2.02c-1.51,4.27-3.02,8.55-4.62,12.78c-1.61,4.24-3.58,8.34-5.18,12.58
				c-0.86,2.27,2.62,3.56,3.81,1.61c2.41-3.92,4.04-8.39,5.71-12.66c1.68-4.33,3.19-8.7,4.62-13.12
				C493.24,0.44,488.97-0.68,488.01,2.02L488.01,2.02z"/>
		</g>
	</g>
	<g>
		<g>
			<path class="st2" d="M497.97,2.02c-1.51,4.27-3.02,8.55-4.62,12.78c-1.61,4.24-3.58,8.34-5.18,12.58
				c-0.86,2.27,2.62,3.56,3.81,1.61c2.41-3.92,4.04-8.39,5.71-12.66c1.68-4.33,3.19-8.7,4.62-13.12
				C503.19,0.44,498.92-0.68,497.97,2.02L497.97,2.02z"/>
		</g>
	</g>
	<g>
		<g>
			<path class="st2" d="M507.93,2.02c-1.51,4.27-3.02,8.55-4.62,12.78c-1.61,4.24-3.58,8.34-5.18,12.58
				c-0.86,2.27,2.62,3.56,3.81,1.61c2.41-3.92,4.04-8.39,5.71-12.66c1.68-4.33,3.19-8.7,4.62-13.12
				C513.15,0.44,508.89-0.68,507.93,2.02L507.93,2.02z"/>
		</g>
	</g>
	<g>
		<g>
			<path class="st2" d="M517.89,2.02c-1.51,4.27-3.02,8.55-4.62,12.78c-1.61,4.24-3.58,8.34-5.18,12.58
				c-0.86,2.27,2.62,3.56,3.81,1.61c2.41-3.92,4.04-8.39,5.71-12.66c1.68-4.33,3.19-8.7,4.62-13.12
				C523.11,0.44,518.84-0.68,517.89,2.02L517.89,2.02z"/>
		</g>
	</g>
	<g>
		<g>
			<path class="st2" d="M527.85,2.02c-1.51,4.27-3.02,8.55-4.62,12.78c-1.61,4.24-3.58,8.34-5.18,12.58
				c-0.86,2.27,2.62,3.56,3.81,1.61c2.41-3.92,4.04-8.39,5.71-12.66c1.68-4.33,3.19-8.7,4.62-13.12
				C533.07,0.44,528.8-0.68,527.85,2.02L527.85,2.02z"/>
		</g>
	</g>
	<g>
		<g>
			<path class="st2" d="M537.8,2.02c-1.51,4.27-3.02,8.55-4.62,12.78c-1.61,4.24-3.58,8.34-5.18,12.58
				c-0.86,2.27,2.62,3.56,3.81,1.61c2.41-3.92,4.04-8.39,5.71-12.66c1.68-4.33,3.19-8.7,4.62-13.12
				C543.03,0.44,538.76-0.68,537.8,2.02L537.8,2.02z"/>
		</g>
	</g>
	<g>
		<g>
			<path class="st2" d="M547.76,2.02c-1.51,4.27-3.02,8.55-4.62,12.78c-1.61,4.24-3.58,8.34-5.18,12.58
				c-0.86,2.27,2.62,3.56,3.81,1.61c2.41-3.92,4.04-8.39,5.71-12.66c1.68-4.33,3.19-8.7,4.62-13.12
				C552.98,0.44,548.72-0.68,547.76,2.02L547.76,2.02z"/>
		</g>
	</g>
	<g>
		<g>
			<path class="st2" d="M557.72,2.02c-1.51,4.27-3.02,8.55-4.62,12.78c-1.61,4.24-3.58,8.34-5.18,12.58
				c-0.86,2.27,2.62,3.56,3.81,1.61c2.41-3.92,4.04-8.39,5.71-12.66c1.68-4.33,3.19-8.7,4.62-13.12
				C562.94,0.44,558.67-0.68,557.72,2.02L557.72,2.02z"/>
		</g>
	</g>
	<g>
		<g>
			<path class="st2" d="M567.68,2.02c-1.51,4.27-3.02,8.55-4.62,12.78c-1.61,4.24-3.58,8.34-5.18,12.58
				c-0.86,2.27,2.62,3.56,3.81,1.61c2.41-3.92,4.04-8.39,5.71-12.66c1.68-4.33,3.19-8.7,4.62-13.12
				C572.9,0.44,568.63-0.68,567.68,2.02L567.68,2.02z"/>
		</g>
	</g>
</g>
<g>
	<g>
		<g>
			<path class="st2" d="M179.32,53.7c-1.51,4.27-3.02,8.55-4.62,12.78c-1.61,4.24-3.58,8.34-5.18,12.58
				c-0.86,2.27,2.62,3.56,3.81,1.61c2.41-3.92,4.04-8.39,5.71-12.66c1.68-4.33,3.19-8.7,4.62-13.12
				C184.54,52.13,180.27,51,179.32,53.7L179.32,53.7z"/>
		</g>
	</g>
	<g>
		<g>
			<path class="st2" d="M189.27,53.7c-1.51,4.27-3.02,8.55-4.62,12.78c-1.61,4.24-3.58,8.34-5.18,12.58
				c-0.86,2.27,2.62,3.56,3.81,1.61c2.41-3.92,4.04-8.39,5.71-12.66c1.68-4.33,3.19-8.7,4.62-13.12
				C194.49,52.13,190.23,51,189.27,53.7L189.27,53.7z"/>
		</g>
	</g>
	<g>
		<g>
			<path class="st2" d="M199.23,53.7c-1.51,4.27-3.02,8.55-4.62,12.78c-1.61,4.24-3.58,8.34-5.18,12.58
				c-0.86,2.27,2.62,3.56,3.81,1.61c2.41-3.92,4.04-8.39,5.71-12.66c1.68-4.33,3.19-8.7,4.62-13.12
				C204.45,52.13,200.19,51,199.23,53.7L199.23,53.7z"/>
		</g>
	</g>
	<g>
		<g>
			<path class="st2" d="M209.19,53.7c-1.51,4.27-3.02,8.55-4.62,12.78c-1.61,4.24-3.58,8.34-5.18,12.58
				c-0.86,2.27,2.62,3.56,3.81,1.61c2.41-3.92,4.04-8.39,5.71-12.66c1.68-4.33,3.19-8.7,4.62-13.12
				C214.41,52.13,210.14,51,209.19,53.7L209.19,53.7z"/>
		</g>
	</g>
	<g>
		<g>
			<path class="st2" d="M219.15,53.7c-1.51,4.27-3.02,8.55-4.62,12.78c-1.61,4.24-3.58,8.34-5.18,12.58
				c-0.86,2.27,2.62,3.56,3.81,1.61c2.41-3.92,4.04-8.39,5.71-12.66c1.68-4.33,3.19-8.7,4.62-13.12
				C224.37,52.13,220.1,51,219.15,53.7L219.15,53.7z"/>
		</g>
	</g>
	<g>
		<g>
			<path class="st2" d="M229.1,53.7c-1.51,4.27-3.02,8.55-4.62,12.78c-1.61,4.24-3.58,8.34-5.18,12.58
				c-0.86,2.27,2.62,3.56,3.81,1.61c2.41-3.92,4.04-8.39,5.71-12.66c1.68-4.33,3.19-8.7,4.62-13.12
				C234.33,52.13,230.06,51,229.1,53.7L229.1,53.7z"/>
		</g>
	</g>
	<g>
		<g>
			<path class="st2" d="M239.06,53.7c-1.51,4.27-3.02,8.55-4.62,12.78c-1.61,4.24-3.58,8.34-5.18,12.58
				c-0.86,2.27,2.62,3.56,3.81,1.61c2.41-3.92,4.04-8.39,5.71-12.66c1.68-4.33,3.19-8.7,4.62-13.12
				C244.28,52.13,240.02,51,239.06,53.7L239.06,53.7z"/>
		</g>
	</g>
</g>
<g>
	<g>
		<g>
			<path class="st2" d="M179.32,97.9c-1.51,4.27-3.02,8.55-4.62,12.78c-1.61,4.24-3.58,8.34-5.18,12.58
				c-0.86,2.27,2.62,3.56,3.81,1.61c2.41-3.92,4.04-8.39,5.71-12.66c1.68-4.33,3.19-8.7,4.62-13.12
				C184.54,96.32,180.27,95.2,179.32,97.9L179.32,97.9z"/>
		</g>
	</g>
	<g>
		<g>
			<path class="st2" d="M189.27,97.9c-1.51,4.27-3.02,8.55-4.62,12.78c-1.61,4.24-3.58,8.34-5.18,12.58
				c-0.86,2.27,2.62,3.56,3.81,1.61c2.41-3.92,4.04-8.39,5.71-12.66c1.68-4.33,3.19-8.7,4.62-13.12
				C194.49,96.32,190.23,95.2,189.27,97.9L189.27,97.9z"/>
		</g>
	</g>
	<g>
		<g>
			<path class="st2" d="M199.23,97.9c-1.51,4.27-3.02,8.55-4.62,12.78c-1.61,4.24-3.58,8.34-5.18,12.58
				c-0.86,2.27,2.62,3.56,3.81,1.61c2.41-3.92,4.04-8.39,5.71-12.66c1.68-4.33,3.19-8.7,4.62-13.12
				C204.45,96.32,200.19,95.2,199.23,97.9L199.23,97.9z"/>
		</g>
	</g>
	<g>
		<g>
			<path class="st2" d="M209.19,97.9c-1.51,4.27-3.02,8.55-4.62,12.78c-1.61,4.24-3.58,8.34-5.18,12.58
				c-0.86,2.27,2.62,3.56,3.81,1.61c2.41-3.92,4.04-8.39,5.71-12.66c1.68-4.33,3.19-8.7,4.62-13.12
				C214.41,96.32,210.14,95.2,209.19,97.9L209.19,97.9z"/>
		</g>
	</g>
	<g>
		<g>
			<path class="st2" d="M219.15,97.9c-1.51,4.27-3.02,8.55-4.62,12.78c-1.61,4.24-3.58,8.34-5.18,12.58
				c-0.86,2.27,2.62,3.56,3.81,1.61c2.41-3.92,4.04-8.39,5.71-12.66c1.68-4.33,3.19-8.7,4.62-13.12
				C224.37,96.32,220.1,95.2,219.15,97.9L219.15,97.9z"/>
		</g>
	</g>
	<g>
		<g>
			<path class="st2" d="M229.1,97.9c-1.51,4.27-3.02,8.55-4.62,12.78c-1.61,4.24-3.58,8.34-5.18,12.58
				c-0.86,2.27,2.62,3.56,3.81,1.61c2.41-3.92,4.04-8.39,5.71-12.66c1.68-4.33,3.19-8.7,4.62-13.12
				C234.33,96.32,230.06,95.2,229.1,97.9L229.1,97.9z"/>
		</g>
	</g>
</g>
<g>
	<path class="st21" d="M8.26,16.13H2.99v4.02h6.16v1.72H0.87V9.08h8.22v1.74h-6.1v3.61h5.26V16.13z"/>
	<path class="st21" d="M17.81,19.3c0-0.16-0.03-0.3-0.1-0.44s-0.18-0.25-0.35-0.36s-0.4-0.21-0.69-0.3s-0.66-0.18-1.11-0.27
		c-0.56-0.12-1.07-0.26-1.53-0.42s-0.84-0.36-1.17-0.59s-0.58-0.49-0.75-0.8c-0.18-0.3-0.26-0.65-0.26-1.05
		c0-0.39,0.09-0.75,0.27-1.1s0.44-0.65,0.78-0.92s0.75-0.47,1.23-0.63s1.02-0.23,1.62-0.23c0.63,0,1.2,0.08,1.7,0.24
		s0.92,0.37,1.27,0.65s0.61,0.59,0.79,0.96s0.28,0.76,0.28,1.19h-2.1c0-0.19-0.04-0.37-0.12-0.54s-0.21-0.33-0.37-0.46
		s-0.37-0.24-0.61-0.32s-0.52-0.12-0.84-0.12s-0.59,0.03-0.82,0.1s-0.42,0.16-0.58,0.26s-0.27,0.24-0.34,0.38s-0.11,0.3-0.11,0.46
		s0.03,0.3,0.08,0.43s0.16,0.25,0.31,0.35s0.36,0.2,0.63,0.29c0.27,0.08,0.62,0.17,1.05,0.24c0.6,0.11,1.13,0.24,1.61,0.4
		s0.88,0.35,1.22,0.58s0.6,0.5,0.78,0.81s0.27,0.68,0.27,1.1s-0.1,0.81-0.29,1.16s-0.47,0.65-0.83,0.91s-0.79,0.45-1.29,0.59
		s-1.06,0.21-1.68,0.21c-0.69,0-1.3-0.09-1.83-0.28s-0.97-0.43-1.33-0.73s-0.63-0.64-0.81-1.02s-0.28-0.77-0.28-1.16h2.04
		c0.02,0.29,0.09,0.54,0.23,0.75s0.31,0.37,0.52,0.5s0.45,0.22,0.7,0.27s0.52,0.08,0.78,0.08c0.65,0,1.15-0.11,1.49-0.33
		S17.81,19.64,17.81,19.3z"/>
	<path class="st21" d="M26.63,10.06v2.3h3.59v1.56h-3.59v4.56c0,0.36,0.04,0.65,0.13,0.89s0.2,0.42,0.36,0.56s0.33,0.24,0.54,0.29
		s0.43,0.08,0.68,0.08c0.18,0,0.37-0.01,0.57-0.03s0.39-0.04,0.57-0.07s0.35-0.06,0.51-0.09s0.29-0.06,0.39-0.09l0.24,1.45
		c-0.15,0.09-0.34,0.17-0.55,0.24s-0.45,0.13-0.7,0.18s-0.51,0.08-0.79,0.11s-0.54,0.04-0.8,0.04c-0.47,0-0.91-0.07-1.31-0.2
		s-0.74-0.34-1.02-0.62s-0.51-0.64-0.67-1.07s-0.24-0.96-0.24-1.57v-4.68h-2.32v-1.56h2.32v-2.3H26.63z"/>
	<path class="st21" d="M39.28,21.87c-0.06-0.12-0.11-0.25-0.15-0.41s-0.07-0.33-0.1-0.51c-0.15,0.15-0.31,0.29-0.5,0.43
		s-0.39,0.25-0.62,0.35s-0.47,0.18-0.73,0.24s-0.54,0.09-0.84,0.09c-0.5,0-0.96-0.07-1.37-0.22s-0.76-0.34-1.05-0.6
		s-0.51-0.56-0.67-0.9s-0.24-0.72-0.24-1.13c0-1.02,0.38-1.8,1.14-2.34s1.85-0.81,3.27-0.81h1.54v-0.62c0-0.5-0.17-0.9-0.51-1.2
		s-0.82-0.44-1.44-0.44c-0.28,0-0.53,0.03-0.74,0.1s-0.39,0.16-0.53,0.28s-0.25,0.25-0.32,0.41s-0.11,0.33-0.11,0.51h-2.1
		c0-0.37,0.09-0.73,0.26-1.08s0.43-0.66,0.76-0.93s0.74-0.49,1.23-0.65s1.04-0.25,1.66-0.25c0.56,0,1.08,0.07,1.56,0.21
		s0.9,0.34,1.25,0.62s0.63,0.61,0.83,1.02s0.3,0.88,0.3,1.43v4.24c0,0.42,0.03,0.8,0.09,1.14s0.15,0.64,0.27,0.89v0.15H39.28z
		 M36.75,20.35c0.27,0,0.52-0.03,0.76-0.1s0.45-0.16,0.64-0.26s0.35-0.23,0.49-0.37s0.25-0.28,0.33-0.43V17.4h-1.34
		c-0.86,0-1.49,0.14-1.89,0.41s-0.61,0.67-0.61,1.18c0,0.19,0.03,0.37,0.1,0.54s0.16,0.31,0.29,0.43s0.3,0.22,0.5,0.29
		S36.47,20.35,36.75,20.35z"/>
	<path class="st21" d="M43.74,17.05c0-0.72,0.09-1.38,0.26-1.98s0.43-1.11,0.76-1.54s0.72-0.76,1.19-0.99s0.99-0.35,1.57-0.35
		c0.52,0,0.98,0.09,1.38,0.27s0.75,0.44,1.05,0.77V8.37h2.11v13.5h-1.91l-0.11-0.97c-0.3,0.37-0.66,0.65-1.08,0.85
		s-0.91,0.29-1.46,0.29c-0.57,0-1.09-0.12-1.56-0.36s-0.86-0.58-1.18-1.01s-0.58-0.94-0.76-1.52s-0.27-1.23-0.27-1.92V17.05z
		 M45.84,17.23c0,0.43,0.04,0.83,0.12,1.2s0.21,0.7,0.39,0.98s0.41,0.5,0.69,0.66s0.61,0.24,1,0.24c0.48,0,0.87-0.1,1.18-0.31
		s0.55-0.49,0.73-0.84v-4.13c-0.18-0.35-0.43-0.62-0.73-0.83s-0.69-0.31-1.16-0.31c-0.39,0-0.73,0.08-1.01,0.25
		s-0.51,0.39-0.69,0.68s-0.31,0.62-0.4,1c-0.08,0.38-0.13,0.79-0.13,1.21V17.23z"/>
	<path class="st21" d="M54.44,17.03c0-0.69,0.1-1.32,0.3-1.92s0.49-1.1,0.87-1.54s0.84-0.77,1.38-1.02s1.16-0.37,1.85-0.37
		c0.7,0,1.32,0.12,1.87,0.37s1.01,0.59,1.39,1.02s0.67,0.95,0.87,1.54s0.3,1.23,0.3,1.92v0.18c0,0.69-0.1,1.33-0.3,1.92
		s-0.49,1.1-0.87,1.53s-0.84,0.77-1.38,1.02s-1.16,0.37-1.85,0.37c-0.7,0-1.32-0.12-1.87-0.37s-1.01-0.58-1.39-1.02
		s-0.67-0.94-0.87-1.53s-0.3-1.23-0.3-1.92V17.03z M56.54,17.21c0,0.43,0.04,0.84,0.14,1.22s0.23,0.72,0.42,1.01
		s0.43,0.52,0.73,0.69s0.64,0.25,1.05,0.25c0.39,0,0.73-0.08,1.02-0.25s0.53-0.4,0.72-0.69s0.33-0.63,0.42-1.01s0.14-0.79,0.14-1.22
		v-0.18c0-0.42-0.05-0.82-0.14-1.2c-0.09-0.38-0.23-0.71-0.42-1s-0.43-0.52-0.72-0.69s-0.64-0.25-1.04-0.25
		c-0.4,0-0.74,0.08-1.04,0.25s-0.53,0.4-0.72,0.69s-0.33,0.62-0.42,1c-0.09,0.38-0.14,0.78-0.14,1.2V17.21z"/>
	<path class="st21" d="M71.82,19.3c0-0.16-0.03-0.3-0.1-0.44s-0.18-0.25-0.35-0.36s-0.4-0.21-0.69-0.3s-0.66-0.18-1.11-0.27
		c-0.56-0.12-1.07-0.26-1.53-0.42s-0.84-0.36-1.17-0.59s-0.58-0.49-0.75-0.8c-0.18-0.3-0.26-0.65-0.26-1.05
		c0-0.39,0.09-0.75,0.27-1.1s0.44-0.65,0.78-0.92s0.75-0.47,1.23-0.63s1.02-0.23,1.62-0.23c0.63,0,1.2,0.08,1.7,0.24
		s0.92,0.37,1.27,0.65s0.61,0.59,0.79,0.96s0.28,0.76,0.28,1.19h-2.1c0-0.19-0.04-0.37-0.12-0.54s-0.21-0.33-0.37-0.46
		s-0.37-0.24-0.61-0.32s-0.52-0.12-0.84-0.12s-0.59,0.03-0.82,0.1s-0.42,0.16-0.58,0.26s-0.27,0.24-0.34,0.38s-0.11,0.3-0.11,0.46
		s0.03,0.3,0.08,0.43s0.16,0.25,0.31,0.35s0.36,0.2,0.63,0.29c0.27,0.08,0.62,0.17,1.05,0.24c0.6,0.11,1.13,0.24,1.61,0.4
		s0.88,0.35,1.22,0.58s0.6,0.5,0.78,0.81s0.27,0.68,0.27,1.1s-0.1,0.81-0.29,1.16s-0.47,0.65-0.83,0.91s-0.79,0.45-1.29,0.59
		s-1.06,0.21-1.68,0.21c-0.69,0-1.3-0.09-1.83-0.28s-0.97-0.43-1.33-0.73s-0.63-0.64-0.81-1.02s-0.28-0.77-0.28-1.16h2.04
		c0.02,0.29,0.09,0.54,0.23,0.75s0.31,0.37,0.52,0.5s0.45,0.22,0.7,0.27s0.52,0.08,0.78,0.08c0.65,0,1.15-0.11,1.49-0.33
		S71.82,19.64,71.82,19.3z"/>
	<path class="st21" d="M95.5,9.08l0.02,8.57c-0.01,0.66-0.11,1.26-0.32,1.8s-0.49,1.01-0.86,1.39s-0.82,0.69-1.34,0.9
		s-1.11,0.32-1.76,0.32c-0.63,0-1.21-0.11-1.72-0.32s-0.96-0.51-1.33-0.89s-0.66-0.85-0.86-1.39s-0.31-1.14-0.32-1.81l0.02-8.57
		h2.07l0.02,8.57c0.01,0.39,0.06,0.75,0.15,1.08s0.23,0.61,0.4,0.85s0.39,0.42,0.65,0.55s0.56,0.2,0.91,0.2
		c0.35,0,0.66-0.07,0.93-0.2s0.5-0.32,0.68-0.55s0.32-0.52,0.41-0.85s0.14-0.69,0.15-1.08l0.02-8.57H95.5z"/>
	<path class="st21" d="M99.93,12.36l0.13,1.32c0.35-0.47,0.76-0.84,1.25-1.1s1.03-0.39,1.63-0.39c0.49,0,0.93,0.07,1.33,0.21
		s0.75,0.36,1.04,0.66s0.52,0.69,0.68,1.16s0.24,1.05,0.24,1.71v5.94h-2.1v-5.91c0-0.39-0.05-0.72-0.14-0.98s-0.22-0.47-0.39-0.63
		s-0.37-0.27-0.61-0.34s-0.51-0.1-0.82-0.1c-0.46,0-0.87,0.1-1.21,0.31s-0.62,0.48-0.83,0.83v6.82h-2.11v-9.51H99.93z"/>
	<path class="st21" d="M109.29,12.36h5.07v7.77h2.82v1.74h-7.89v-1.74h2.95v-6.02h-2.95V12.36z M112.07,9.9
		c0-0.33,0.11-0.6,0.32-0.81s0.51-0.32,0.89-0.32c0.39,0,0.69,0.11,0.9,0.32s0.32,0.48,0.32,0.81s-0.11,0.6-0.32,0.81
		s-0.51,0.32-0.9,0.32c-0.38,0-0.68-0.11-0.89-0.32S112.07,10.23,112.07,9.9z"/>
	<path class="st21" d="M119.35,17.05c0-0.72,0.09-1.38,0.26-1.98s0.43-1.11,0.76-1.54s0.72-0.76,1.19-0.99s0.99-0.35,1.57-0.35
		c0.52,0,0.98,0.09,1.38,0.27s0.75,0.44,1.05,0.77V8.37h2.11v13.5h-1.91l-0.11-0.97c-0.3,0.37-0.66,0.65-1.08,0.85
		s-0.91,0.29-1.46,0.29c-0.57,0-1.09-0.12-1.56-0.36s-0.86-0.58-1.18-1.01s-0.58-0.94-0.76-1.52s-0.27-1.23-0.27-1.92V17.05z
		 M121.45,17.23c0,0.43,0.04,0.83,0.12,1.2s0.21,0.7,0.39,0.98s0.41,0.5,0.69,0.66s0.61,0.24,1,0.24c0.48,0,0.87-0.1,1.18-0.31
		s0.55-0.49,0.73-0.84v-4.13c-0.18-0.35-0.43-0.62-0.73-0.83s-0.69-0.31-1.16-0.31c-0.39,0-0.73,0.08-1.01,0.25
		s-0.51,0.39-0.69,0.68s-0.31,0.62-0.4,1c-0.08,0.38-0.13,0.79-0.13,1.21V17.23z"/>
	<path class="st21" d="M130.05,17.03c0-0.69,0.1-1.32,0.3-1.92s0.49-1.1,0.87-1.54s0.84-0.77,1.38-1.02s1.16-0.37,1.85-0.37
		c0.7,0,1.32,0.12,1.87,0.37s1.01,0.59,1.39,1.02s0.67,0.95,0.87,1.54s0.3,1.23,0.3,1.92v0.18c0,0.69-0.1,1.33-0.3,1.92
		s-0.49,1.1-0.87,1.53s-0.84,0.77-1.38,1.02s-1.16,0.37-1.85,0.37c-0.7,0-1.32-0.12-1.87-0.37s-1.01-0.58-1.39-1.02
		s-0.67-0.94-0.87-1.53s-0.3-1.23-0.3-1.92V17.03z M132.15,17.21c0,0.43,0.04,0.84,0.14,1.22s0.23,0.72,0.42,1.01
		s0.43,0.52,0.73,0.69s0.64,0.25,1.05,0.25c0.39,0,0.73-0.08,1.02-0.25s0.53-0.4,0.72-0.69s0.33-0.63,0.42-1.01s0.14-0.79,0.14-1.22
		v-0.18c0-0.42-0.05-0.82-0.14-1.2c-0.09-0.38-0.23-0.71-0.42-1s-0.43-0.52-0.72-0.69s-0.64-0.25-1.04-0.25
		c-0.4,0-0.74,0.08-1.04,0.25s-0.53,0.4-0.72,0.69s-0.33,0.62-0.42,1c-0.09,0.38-0.14,0.78-0.14,1.2V17.21z"/>
	<path class="st21" d="M147.43,19.3c0-0.16-0.03-0.3-0.1-0.44s-0.18-0.25-0.35-0.36s-0.4-0.21-0.69-0.3s-0.66-0.18-1.11-0.27
		c-0.56-0.12-1.07-0.26-1.53-0.42s-0.84-0.36-1.17-0.59s-0.58-0.49-0.75-0.8c-0.18-0.3-0.26-0.65-0.26-1.05
		c0-0.39,0.09-0.75,0.27-1.1s0.44-0.65,0.78-0.92s0.75-0.47,1.23-0.63s1.02-0.23,1.62-0.23c0.63,0,1.2,0.08,1.7,0.24
		s0.92,0.37,1.27,0.65s0.61,0.59,0.79,0.96s0.28,0.76,0.28,1.19h-2.1c0-0.19-0.04-0.37-0.12-0.54s-0.21-0.33-0.37-0.46
		s-0.37-0.24-0.61-0.32s-0.52-0.12-0.84-0.12s-0.59,0.03-0.82,0.1s-0.42,0.16-0.58,0.26s-0.27,0.24-0.34,0.38s-0.11,0.3-0.11,0.46
		s0.03,0.3,0.08,0.43s0.16,0.25,0.31,0.35s0.36,0.2,0.63,0.29c0.27,0.08,0.62,0.17,1.05,0.24c0.6,0.11,1.13,0.24,1.61,0.4
		s0.88,0.35,1.22,0.58s0.6,0.5,0.78,0.81s0.27,0.68,0.27,1.1s-0.1,0.81-0.29,1.16s-0.47,0.65-0.83,0.91s-0.79,0.45-1.29,0.59
		s-1.06,0.21-1.68,0.21c-0.69,0-1.3-0.09-1.83-0.28s-0.97-0.43-1.33-0.73s-0.63-0.64-0.81-1.02s-0.28-0.77-0.28-1.16h2.04
		c0.02,0.29,0.09,0.54,0.23,0.75s0.31,0.37,0.52,0.5s0.45,0.22,0.7,0.27s0.52,0.08,0.78,0.08c0.65,0,1.15-0.11,1.49-0.33
		S147.43,19.64,147.43,19.3z"/>
</g>
<g>
	<path class="st21" d="M71.78,70.59h-4l-0.88,2.97h-2.18l4.16-12.8h1.85l4.08,12.8h-2.17L71.78,70.59z M68.31,68.79h2.94l-1.45-5.02
		L68.31,68.79z"/>
	<path class="st21" d="M76.81,60.06h5.14v11.76h2.9v1.74h-8.04v-1.74h3.02V61.81h-3.02V60.06z"/>
	<path class="st21" d="M91.66,73.74c-0.7,0-1.34-0.12-1.92-0.35s-1.08-0.56-1.49-0.97s-0.73-0.9-0.96-1.45s-0.34-1.16-0.34-1.81
		v-0.36c0-0.76,0.12-1.44,0.36-2.04s0.57-1.12,0.98-1.55s0.88-0.76,1.42-0.98c0.54-0.23,1.11-0.34,1.71-0.34
		c0.69,0,1.3,0.12,1.83,0.35c0.53,0.23,0.97,0.56,1.32,0.98s0.62,0.92,0.8,1.49s0.27,1.2,0.27,1.89v0.89h-6.59
		c0.04,0.37,0.13,0.71,0.27,1.03s0.34,0.59,0.58,0.82s0.52,0.41,0.83,0.54s0.67,0.2,1.05,0.2c0.53,0,1.02-0.11,1.47-0.32
		s0.81-0.5,1.09-0.87l1.14,1.07c-0.15,0.23-0.35,0.45-0.59,0.66s-0.52,0.4-0.84,0.57s-0.68,0.3-1.09,0.4S92.13,73.74,91.66,73.74z
		 M91.4,65.57c-0.29,0-0.57,0.05-0.82,0.16s-0.48,0.26-0.68,0.46s-0.37,0.45-0.51,0.74s-0.24,0.62-0.29,0.99h4.46v-0.16
		c-0.02-0.28-0.07-0.55-0.16-0.81s-0.22-0.49-0.4-0.7s-0.4-0.37-0.66-0.49S91.76,65.57,91.4,65.57z"/>
	<path class="st21" d="M99.24,64.05l0.05,1c0.19-0.37,0.44-0.66,0.76-0.87c0.32-0.21,0.7-0.31,1.14-0.31c0.4,0,0.74,0.08,1.01,0.24
		c0.27,0.16,0.47,0.41,0.6,0.75c0.19-0.3,0.43-0.55,0.72-0.73c0.29-0.18,0.65-0.27,1.06-0.27c0.31,0,0.6,0.05,0.86,0.15
		c0.26,0.1,0.48,0.27,0.67,0.49s0.33,0.51,0.43,0.85s0.15,0.76,0.15,1.25v6.94h-1.95V66.6c0-0.38-0.08-0.64-0.24-0.79
		s-0.37-0.22-0.62-0.22c-0.24,0-0.43,0.06-0.57,0.17s-0.24,0.27-0.31,0.45v7.34h-1.91V66.6c0-0.37-0.08-0.63-0.22-0.78
		s-0.35-0.22-0.61-0.22c-0.25,0-0.44,0.05-0.58,0.16s-0.25,0.25-0.33,0.43v7.37h-1.95v-9.51H99.24z"/>
	<path class="st21" d="M114.9,73.56c-0.06-0.12-0.11-0.25-0.15-0.41s-0.07-0.33-0.1-0.51c-0.15,0.15-0.31,0.29-0.5,0.43
		s-0.39,0.25-0.62,0.35s-0.47,0.18-0.73,0.24s-0.54,0.09-0.84,0.09c-0.5,0-0.96-0.07-1.37-0.22s-0.76-0.34-1.05-0.6
		s-0.51-0.56-0.67-0.9s-0.24-0.72-0.24-1.13c0-1.02,0.38-1.8,1.14-2.34s1.85-0.81,3.27-0.81h1.54v-0.62c0-0.5-0.17-0.9-0.51-1.2
		s-0.82-0.44-1.44-0.44c-0.28,0-0.53,0.03-0.74,0.1s-0.39,0.16-0.53,0.28s-0.25,0.25-0.32,0.41s-0.11,0.33-0.11,0.51h-2.1
		c0-0.37,0.09-0.73,0.26-1.08s0.43-0.66,0.76-0.93s0.74-0.49,1.23-0.65c0.48-0.16,1.04-0.25,1.66-0.25c0.56,0,1.08,0.07,1.56,0.21
		c0.48,0.14,0.9,0.34,1.25,0.62s0.63,0.61,0.83,1.02s0.3,0.88,0.3,1.43v4.24c0,0.42,0.03,0.8,0.09,1.14s0.15,0.64,0.27,0.89v0.15
		H114.9z M112.36,72.04c0.27,0,0.52-0.03,0.76-0.1s0.45-0.16,0.64-0.26s0.35-0.23,0.49-0.37s0.25-0.28,0.33-0.43v-1.78h-1.34
		c-0.86,0-1.49,0.14-1.89,0.41s-0.61,0.67-0.61,1.18c0,0.19,0.03,0.37,0.1,0.54s0.16,0.31,0.29,0.43s0.3,0.22,0.5,0.29
		S112.08,72.04,112.36,72.04z"/>
	<path class="st21" d="M121.53,64.05l0.13,1.32c0.35-0.47,0.76-0.84,1.25-1.1s1.03-0.39,1.63-0.39c0.49,0,0.93,0.07,1.33,0.21
		c0.4,0.14,0.75,0.36,1.04,0.66s0.52,0.69,0.68,1.16s0.24,1.05,0.24,1.71v5.94h-2.1v-5.91c0-0.39-0.05-0.72-0.14-0.98
		s-0.22-0.47-0.39-0.63s-0.37-0.27-0.61-0.34s-0.51-0.1-0.82-0.1c-0.46,0-0.87,0.1-1.21,0.31s-0.62,0.48-0.83,0.83v6.82h-2.11v-9.51
		H121.53z"/>
	<path class="st21" d="M132.54,65.37c0.33-0.47,0.73-0.83,1.2-1.1s1-0.4,1.58-0.4c0.49,0,0.94,0.07,1.36,0.22
		c0.41,0.15,0.77,0.37,1.06,0.68s0.52,0.7,0.69,1.19s0.25,1.06,0.25,1.74v5.86h-2.1v-5.88c0-0.36-0.05-0.68-0.14-0.94
		s-0.22-0.48-0.39-0.65s-0.37-0.3-0.61-0.38s-0.51-0.12-0.82-0.12c-0.46,0-0.86,0.1-1.21,0.29s-0.64,0.45-0.86,0.77v6.91h-2.1v-13.5
		h2.1V65.37z"/>
	<path class="st21" d="M147.3,73.56c-0.06-0.12-0.11-0.25-0.15-0.41s-0.07-0.33-0.1-0.51c-0.15,0.15-0.31,0.29-0.5,0.43
		s-0.39,0.25-0.62,0.35s-0.47,0.18-0.73,0.24s-0.54,0.09-0.84,0.09c-0.5,0-0.96-0.07-1.37-0.22s-0.76-0.34-1.05-0.6
		s-0.51-0.56-0.67-0.9s-0.24-0.72-0.24-1.13c0-1.02,0.38-1.8,1.14-2.34s1.85-0.81,3.27-0.81h1.54v-0.62c0-0.5-0.17-0.9-0.51-1.2
		s-0.82-0.44-1.44-0.44c-0.28,0-0.53,0.03-0.74,0.1s-0.39,0.16-0.53,0.28s-0.25,0.25-0.32,0.41s-0.11,0.33-0.11,0.51h-2.1
		c0-0.37,0.09-0.73,0.26-1.08s0.43-0.66,0.76-0.93s0.74-0.49,1.23-0.65c0.48-0.16,1.04-0.25,1.66-0.25c0.56,0,1.08,0.07,1.56,0.21
		c0.48,0.14,0.9,0.34,1.25,0.62s0.63,0.61,0.83,1.02s0.3,0.88,0.3,1.43v4.24c0,0.42,0.03,0.8,0.09,1.14s0.15,0.64,0.27,0.89v0.15
		H147.3z M144.77,72.04c0.27,0,0.52-0.03,0.76-0.1s0.45-0.16,0.64-0.26s0.35-0.23,0.49-0.37s0.25-0.28,0.33-0.43v-1.78h-1.34
		c-0.86,0-1.49,0.14-1.89,0.41s-0.61,0.67-0.61,1.18c0,0.19,0.03,0.37,0.1,0.54s0.16,0.31,0.29,0.43s0.3,0.22,0.5,0.29
		S144.49,72.04,144.77,72.04z"/>
</g>
<g>
	<path class="st21" d="M37.45,112.76h-2.14v4.99H33.2v-12.8h4.04c0.66,0.01,1.26,0.09,1.81,0.25s1.03,0.4,1.44,0.72
		s0.72,0.72,0.94,1.2s0.33,1.04,0.33,1.69c0,0.43-0.06,0.83-0.17,1.18s-0.27,0.68-0.48,0.96s-0.45,0.54-0.74,0.76
		s-0.6,0.4-0.95,0.55l2.71,5.38v0.11h-2.25L37.45,112.76z M35.31,111.05h1.94c0.35,0,0.67-0.05,0.97-0.15s0.55-0.24,0.76-0.43
		s0.38-0.41,0.5-0.68s0.18-0.57,0.18-0.92c0-0.36-0.06-0.67-0.17-0.95s-0.27-0.51-0.48-0.69s-0.46-0.33-0.76-0.43s-0.63-0.15-1-0.15
		h-1.93V111.05z"/>
	<path class="st21" d="M48.45,117.93c-0.7,0-1.34-0.12-1.92-0.35s-1.08-0.56-1.49-0.97s-0.73-0.9-0.96-1.45s-0.34-1.16-0.34-1.81
		v-0.36c0-0.76,0.12-1.44,0.36-2.04s0.57-1.12,0.98-1.55s0.88-0.76,1.42-0.98s1.11-0.34,1.71-0.34c0.69,0,1.3,0.12,1.83,0.35
		s0.97,0.56,1.32,0.98s0.62,0.92,0.8,1.49s0.27,1.2,0.27,1.89v0.89h-6.59c0.04,0.37,0.13,0.71,0.27,1.03s0.34,0.59,0.58,0.82
		s0.52,0.41,0.83,0.54s0.67,0.2,1.05,0.2c0.53,0,1.02-0.11,1.47-0.32s0.81-0.5,1.09-0.87l1.14,1.07c-0.15,0.23-0.35,0.45-0.59,0.66
		s-0.52,0.4-0.84,0.57s-0.68,0.3-1.09,0.4S48.92,117.93,48.45,117.93z M48.2,109.76c-0.29,0-0.57,0.05-0.82,0.16
		s-0.48,0.26-0.68,0.46s-0.37,0.45-0.51,0.74s-0.24,0.62-0.29,0.99h4.46v-0.16c-0.02-0.28-0.07-0.55-0.16-0.81s-0.22-0.49-0.4-0.7
		s-0.4-0.37-0.66-0.49S48.55,109.76,48.2,109.76z"/>
	<path class="st21" d="M55.28,108.24h5.07v7.77h2.82v1.74h-7.89v-1.74h2.95v-6.02h-2.95V108.24z M58.06,105.78
		c0-0.33,0.11-0.6,0.32-0.81s0.51-0.32,0.89-0.32c0.39,0,0.69,0.11,0.9,0.32s0.32,0.48,0.32,0.81s-0.11,0.6-0.32,0.81
		s-0.51,0.32-0.9,0.32c-0.38,0-0.68-0.11-0.89-0.32S58.06,106.11,58.06,105.78z"/>
	<path class="st21" d="M67.52,108.24l0.13,1.32c0.35-0.47,0.76-0.84,1.25-1.1s1.03-0.39,1.63-0.39c0.49,0,0.93,0.07,1.33,0.21
		s0.75,0.36,1.04,0.66s0.52,0.69,0.68,1.16s0.24,1.05,0.24,1.71v5.94h-2.1v-5.91c0-0.39-0.05-0.72-0.14-0.98s-0.22-0.47-0.39-0.63
		s-0.37-0.27-0.61-0.34s-0.51-0.1-0.82-0.1c-0.46,0-0.87,0.1-1.21,0.31s-0.62,0.48-0.83,0.83v6.82h-2.11v-9.51H67.52z"/>
	<path class="st21" d="M76.04,112.91c0-0.69,0.1-1.32,0.3-1.92s0.49-1.1,0.87-1.54s0.84-0.77,1.38-1.02s1.16-0.37,1.85-0.37
		c0.7,0,1.32,0.12,1.87,0.37s1.01,0.59,1.39,1.02s0.67,0.95,0.87,1.54s0.3,1.23,0.3,1.92v0.18c0,0.69-0.1,1.33-0.3,1.92
		s-0.49,1.1-0.87,1.53s-0.84,0.77-1.38,1.02s-1.16,0.37-1.85,0.37c-0.7,0-1.32-0.12-1.87-0.37s-1.01-0.58-1.39-1.02
		s-0.67-0.94-0.87-1.53s-0.3-1.23-0.3-1.92V112.91z M78.14,113.09c0,0.43,0.04,0.84,0.14,1.22s0.23,0.72,0.42,1.01
		s0.43,0.52,0.73,0.69s0.64,0.25,1.05,0.25c0.39,0,0.73-0.08,1.02-0.25s0.53-0.4,0.72-0.69s0.33-0.63,0.42-1.01s0.14-0.79,0.14-1.22
		v-0.18c0-0.42-0.05-0.82-0.14-1.2s-0.23-0.71-0.42-1s-0.43-0.52-0.72-0.69s-0.64-0.25-1.04-0.25c-0.4,0-0.74,0.08-1.04,0.25
		s-0.53,0.4-0.72,0.69s-0.33,0.62-0.42,1s-0.14,0.78-0.14,1.2V113.09z"/>
	<path class="st21" d="M106.3,104.95l0.02,8.57c-0.01,0.66-0.11,1.26-0.32,1.8s-0.49,1.01-0.86,1.39s-0.82,0.69-1.34,0.9
		s-1.11,0.32-1.76,0.32c-0.63,0-1.21-0.11-1.72-0.32s-0.96-0.51-1.33-0.89s-0.66-0.85-0.86-1.39s-0.31-1.14-0.32-1.81l0.02-8.57
		h2.07l0.02,8.57c0.01,0.39,0.06,0.75,0.15,1.08s0.23,0.61,0.4,0.85s0.39,0.42,0.65,0.55s0.56,0.2,0.91,0.2
		c0.35,0,0.66-0.07,0.93-0.2s0.5-0.32,0.68-0.55s0.32-0.52,0.41-0.85s0.14-0.69,0.15-1.08l0.02-8.57H106.3z"/>
	<path class="st21" d="M110.73,108.24l0.13,1.32c0.35-0.47,0.76-0.84,1.25-1.1s1.03-0.39,1.63-0.39c0.49,0,0.93,0.07,1.33,0.21
		s0.75,0.36,1.04,0.66s0.52,0.69,0.68,1.16s0.24,1.05,0.24,1.71v5.94h-2.1v-5.91c0-0.39-0.05-0.72-0.14-0.98s-0.22-0.47-0.39-0.63
		s-0.37-0.27-0.61-0.34s-0.51-0.1-0.82-0.1c-0.46,0-0.87,0.1-1.21,0.31s-0.62,0.48-0.83,0.83v6.82h-2.11v-9.51H110.73z"/>
	<path class="st21" d="M120.09,108.24h5.07v7.77h2.82v1.74h-7.89v-1.74h2.95v-6.02h-2.95V108.24z M122.87,105.78
		c0-0.33,0.11-0.6,0.32-0.81s0.51-0.32,0.89-0.32c0.39,0,0.69,0.11,0.9,0.32s0.32,0.48,0.32,0.81s-0.11,0.6-0.32,0.81
		s-0.51,0.32-0.9,0.32c-0.38,0-0.68-0.11-0.89-0.32S122.87,106.11,122.87,105.78z"/>
	<path class="st21" d="M130.15,112.93c0-0.72,0.09-1.38,0.26-1.98s0.43-1.11,0.76-1.54s0.72-0.76,1.19-0.99s0.99-0.35,1.57-0.35
		c0.52,0,0.98,0.09,1.38,0.27s0.75,0.44,1.05,0.77v-4.85h2.11v13.5h-1.91l-0.11-0.97c-0.3,0.37-0.66,0.65-1.08,0.85
		s-0.91,0.29-1.46,0.29c-0.57,0-1.09-0.12-1.56-0.36s-0.86-0.58-1.18-1.01s-0.58-0.94-0.76-1.52s-0.27-1.23-0.27-1.92V112.93z
		 M132.25,113.11c0,0.43,0.04,0.83,0.12,1.2s0.21,0.7,0.39,0.98s0.41,0.5,0.69,0.66s0.61,0.24,1,0.24c0.48,0,0.87-0.1,1.18-0.31
		s0.55-0.49,0.73-0.84v-4.13c-0.18-0.35-0.43-0.62-0.73-0.83s-0.69-0.31-1.16-0.31c-0.39,0-0.73,0.08-1.01,0.25
		s-0.51,0.39-0.69,0.68s-0.31,0.62-0.4,1s-0.13,0.79-0.13,1.21V113.11z"/>
	<path class="st21" d="M140.85,112.91c0-0.69,0.1-1.32,0.3-1.92s0.49-1.1,0.87-1.54s0.84-0.77,1.38-1.02s1.16-0.37,1.85-0.37
		c0.7,0,1.32,0.12,1.87,0.37s1.01,0.59,1.39,1.02s0.67,0.95,0.87,1.54s0.3,1.23,0.3,1.92v0.18c0,0.69-0.1,1.33-0.3,1.92
		s-0.49,1.1-0.87,1.53s-0.84,0.77-1.38,1.02s-1.16,0.37-1.85,0.37c-0.7,0-1.32-0.12-1.87-0.37s-1.01-0.58-1.39-1.02
		s-0.67-0.94-0.87-1.53s-0.3-1.23-0.3-1.92V112.91z M142.95,113.09c0,0.43,0.04,0.84,0.14,1.22s0.23,0.72,0.42,1.01
		s0.43,0.52,0.73,0.69s0.64,0.25,1.05,0.25c0.39,0,0.73-0.08,1.02-0.25s0.53-0.4,0.72-0.69s0.33-0.63,0.42-1.01s0.14-0.79,0.14-1.22
		v-0.18c0-0.42-0.05-0.82-0.14-1.2s-0.23-0.71-0.42-1s-0.43-0.52-0.72-0.69s-0.64-0.25-1.04-0.25c-0.4,0-0.74,0.08-1.04,0.25
		s-0.53,0.4-0.72,0.69s-0.33,0.62-0.42,1s-0.14,0.78-0.14,1.2V113.09z"/>
</g>
<g>
	<path class="st2" d="M600.04,8.93l0.02,8.57c-0.01,0.66-0.11,1.26-0.32,1.8s-0.49,1.01-0.86,1.39s-0.82,0.69-1.34,0.9
		s-1.11,0.32-1.76,0.32c-0.63,0-1.21-0.11-1.72-0.32s-0.96-0.51-1.33-0.89s-0.66-0.85-0.86-1.39s-0.31-1.14-0.32-1.81l0.02-8.57
		h2.07l0.02,8.57c0.01,0.39,0.06,0.75,0.15,1.08s0.23,0.61,0.4,0.85s0.39,0.42,0.65,0.55s0.56,0.2,0.91,0.2
		c0.35,0,0.66-0.07,0.93-0.2s0.49-0.32,0.68-0.55s0.32-0.52,0.41-0.85s0.14-0.69,0.15-1.08l0.02-8.57H600.04z"/>
	<path class="st2" d="M608.93,18.38c0-0.25-0.04-0.47-0.12-0.68s-0.21-0.39-0.38-0.57s-0.4-0.33-0.69-0.48s-0.63-0.29-1.03-0.43
		c-0.57-0.19-1.09-0.4-1.55-0.63s-0.86-0.5-1.19-0.81s-0.58-0.67-0.76-1.07s-0.26-0.88-0.26-1.43c0-0.49,0.08-0.94,0.24-1.35
		s0.38-0.76,0.67-1.06s0.64-0.55,1.05-0.73s0.88-0.31,1.38-0.37V6.86h1.41v1.93c0.51,0.07,0.96,0.21,1.37,0.43s0.74,0.49,1.02,0.84
		s0.5,0.76,0.65,1.23s0.22,1.01,0.22,1.6h-2.1c0-0.37-0.04-0.7-0.13-1s-0.21-0.55-0.38-0.76s-0.37-0.37-0.6-0.48
		s-0.51-0.17-0.81-0.17c-0.33,0-0.61,0.04-0.85,0.13s-0.43,0.21-0.58,0.36s-0.27,0.34-0.34,0.56s-0.11,0.46-0.11,0.73
		c0,0.25,0.04,0.48,0.11,0.68s0.2,0.38,0.37,0.55s0.41,0.33,0.7,0.48s0.64,0.3,1.07,0.44c0.58,0.2,1.1,0.41,1.56,0.65
		s0.85,0.5,1.17,0.81c0.32,0.31,0.57,0.66,0.74,1.07s0.26,0.88,0.26,1.42c0,0.52-0.08,0.98-0.25,1.38s-0.4,0.76-0.7,1.05
		s-0.67,0.53-1.11,0.71s-0.92,0.29-1.45,0.35v1.71h-1.4v-1.7c-0.47-0.05-0.93-0.16-1.37-0.33s-0.83-0.41-1.17-0.73
		s-0.61-0.72-0.82-1.21s-0.31-1.08-0.31-1.76h2.1c0,0.46,0.07,0.83,0.2,1.13s0.3,0.54,0.51,0.72s0.45,0.3,0.71,0.38
		s0.53,0.11,0.8,0.11c0.69,0,1.22-0.16,1.59-0.49S608.93,18.93,608.93,18.38z"/>
	<path class="st2" d="M615.56,14.38h1.26c0.37,0,0.69-0.05,0.97-0.15s0.5-0.23,0.69-0.41s0.32-0.39,0.41-0.63s0.14-0.51,0.14-0.8
		c0-0.62-0.16-1.1-0.49-1.44s-0.82-0.51-1.47-0.51c-0.29,0-0.55,0.04-0.79,0.13s-0.45,0.21-0.63,0.36s-0.32,0.35-0.42,0.57
		s-0.15,0.47-0.15,0.76h-2.1c0-0.5,0.1-0.97,0.3-1.4s0.48-0.8,0.84-1.11s0.79-0.56,1.29-0.74s1.04-0.27,1.63-0.27
		c0.6,0,1.16,0.08,1.66,0.23s0.94,0.39,1.29,0.69s0.63,0.68,0.83,1.14s0.3,0.98,0.3,1.58c0,0.25-0.04,0.51-0.11,0.77
		s-0.19,0.52-0.35,0.76s-0.35,0.48-0.59,0.69s-0.52,0.39-0.84,0.54c0.39,0.13,0.71,0.31,0.97,0.52s0.48,0.45,0.64,0.71
		s0.28,0.54,0.35,0.84s0.11,0.6,0.11,0.91c0,0.6-0.11,1.13-0.33,1.6s-0.52,0.86-0.9,1.18s-0.84,0.56-1.36,0.73s-1.08,0.25-1.69,0.25
		c-0.56,0-1.09-0.08-1.59-0.23s-0.95-0.38-1.33-0.68s-0.69-0.68-0.92-1.13s-0.34-0.97-0.34-1.56h2.1c0,0.28,0.05,0.54,0.15,0.78
		s0.24,0.44,0.43,0.61s0.41,0.3,0.66,0.39s0.55,0.14,0.87,0.14c0.67,0,1.19-0.18,1.58-0.53s0.58-0.87,0.58-1.54
		c0-0.37-0.06-0.69-0.17-0.95s-0.27-0.49-0.48-0.66s-0.46-0.3-0.75-0.38s-0.62-0.12-0.99-0.12h-1.26V14.38z"/>
	<path class="st2" d="M625.89,19.98c0.76,0,1.4-0.09,1.92-0.27s0.94-0.43,1.26-0.74s0.56-0.69,0.72-1.12s0.25-0.9,0.29-1.4
		c-0.13,0.15-0.28,0.28-0.44,0.41s-0.35,0.24-0.56,0.33s-0.44,0.17-0.69,0.23s-0.52,0.08-0.82,0.08c-0.63,0-1.17-0.12-1.63-0.36
		s-0.85-0.55-1.15-0.95c-0.3-0.4-0.53-0.85-0.68-1.37s-0.22-1.05-0.22-1.62c0-0.62,0.09-1.19,0.27-1.74s0.45-1.02,0.8-1.42
		s0.78-0.72,1.3-0.96s1.1-0.35,1.75-0.35c0.71,0,1.33,0.14,1.85,0.42s0.96,0.66,1.31,1.13s0.61,1.03,0.78,1.66s0.26,1.29,0.26,1.99
		v0.69c0,0.61-0.04,1.21-0.12,1.8c-0.08,0.59-0.21,1.15-0.4,1.68s-0.44,1.02-0.76,1.46s-0.7,0.83-1.17,1.16s-1.02,0.58-1.65,0.76
		s-1.37,0.28-2.2,0.28h-0.17v-1.79H625.89z M628,15.84c0.24,0,0.47-0.04,0.69-0.11s0.42-0.18,0.6-0.32s0.34-0.3,0.48-0.48
		s0.25-0.39,0.33-0.62v-0.69c0-0.52-0.06-0.97-0.17-1.37s-0.27-0.73-0.46-0.99s-0.42-0.47-0.67-0.6s-0.52-0.2-0.8-0.2
		c-0.33,0-0.62,0.07-0.87,0.21s-0.46,0.33-0.64,0.58s-0.3,0.53-0.4,0.86s-0.14,0.68-0.14,1.05c0,0.35,0.04,0.69,0.12,1.01
		s0.21,0.61,0.37,0.86s0.38,0.45,0.64,0.6S627.66,15.84,628,15.84z"/>
	<path class="st2" d="M636.7,19.98c0.76,0,1.4-0.09,1.92-0.27s0.94-0.43,1.26-0.74s0.56-0.69,0.72-1.12s0.25-0.9,0.29-1.4
		c-0.13,0.15-0.28,0.28-0.44,0.41s-0.35,0.24-0.56,0.33s-0.44,0.17-0.69,0.23s-0.52,0.08-0.82,0.08c-0.63,0-1.17-0.12-1.63-0.36
		s-0.85-0.55-1.15-0.95c-0.3-0.4-0.53-0.85-0.68-1.37s-0.22-1.05-0.22-1.62c0-0.62,0.09-1.19,0.27-1.74s0.45-1.02,0.8-1.42
		s0.78-0.72,1.3-0.96s1.1-0.35,1.75-0.35c0.71,0,1.33,0.14,1.85,0.42s0.96,0.66,1.31,1.13s0.61,1.03,0.78,1.66s0.26,1.29,0.26,1.99
		v0.69c0,0.61-0.04,1.21-0.12,1.8c-0.08,0.59-0.21,1.15-0.4,1.68s-0.44,1.02-0.76,1.46s-0.7,0.83-1.17,1.16s-1.02,0.58-1.65,0.76
		s-1.37,0.28-2.2,0.28h-0.17v-1.79H636.7z M638.81,15.84c0.24,0,0.47-0.04,0.69-0.11s0.42-0.18,0.6-0.32s0.34-0.3,0.48-0.48
		s0.25-0.39,0.33-0.62v-0.69c0-0.52-0.06-0.97-0.17-1.37s-0.27-0.73-0.46-0.99s-0.42-0.47-0.67-0.6s-0.52-0.2-0.8-0.2
		c-0.33,0-0.62,0.07-0.87,0.21s-0.46,0.33-0.64,0.58s-0.3,0.53-0.4,0.86s-0.14,0.68-0.14,1.05c0,0.35,0.04,0.69,0.12,1.01
		s0.21,0.61,0.37,0.86s0.38,0.45,0.64,0.6S638.46,15.84,638.81,15.84z"/>
	<path class="st2" d="M654.13,17.07c0,0.7-0.08,1.35-0.24,1.94s-0.4,1.1-0.72,1.52s-0.71,0.76-1.17,1s-1,0.36-1.6,0.36
		c-0.58,0-1.08-0.1-1.51-0.31s-0.79-0.5-1.09-0.89l-0.1,1.02h-1.91V8.22h2.1v4.9c0.3-0.35,0.65-0.61,1.05-0.8s0.88-0.28,1.43-0.28
		c0.61,0,1.15,0.12,1.61,0.36s0.86,0.57,1.17,1s0.56,0.94,0.72,1.53s0.24,1.25,0.24,1.96V17.07z M652.03,16.89
		c0-0.42-0.04-0.82-0.11-1.2c-0.07-0.38-0.19-0.71-0.36-1s-0.39-0.51-0.67-0.68s-0.63-0.25-1.04-0.25c-0.5,0-0.9,0.11-1.22,0.34
		s-0.56,0.53-0.73,0.9v3.93c0.17,0.37,0.42,0.67,0.73,0.91s0.73,0.35,1.23,0.35c0.4,0,0.74-0.08,1.01-0.24s0.5-0.38,0.67-0.66
		s0.29-0.61,0.37-0.99s0.11-0.78,0.11-1.22V16.89z"/>
	<path class="st2" d="M657.03,12.21h5.07v7.77h2.82v1.74h-7.89v-1.74h2.95v-6.02h-2.95V12.21z M659.81,9.75
		c0-0.33,0.11-0.6,0.32-0.81s0.51-0.32,0.89-0.32c0.39,0,0.69,0.11,0.9,0.32s0.32,0.48,0.32,0.81s-0.11,0.6-0.32,0.81
		s-0.51,0.32-0.9,0.32c-0.38,0-0.68-0.11-0.89-0.32S659.81,10.08,659.81,9.75z"/>
</g>
<g>
	<path class="st2" d="M271.29,60.61l0.02,8.57c-0.01,0.66-0.11,1.26-0.32,1.8s-0.49,1.01-0.86,1.39s-0.82,0.69-1.34,0.9
		s-1.11,0.32-1.76,0.32c-0.63,0-1.21-0.11-1.72-0.32s-0.96-0.51-1.33-0.89s-0.66-0.85-0.86-1.39s-0.31-1.14-0.32-1.81l0.02-8.57
		h2.07l0.02,8.57c0.01,0.39,0.06,0.75,0.15,1.08s0.23,0.61,0.4,0.85s0.39,0.42,0.65,0.55s0.56,0.2,0.91,0.2
		c0.35,0,0.66-0.07,0.93-0.2s0.49-0.32,0.68-0.55s0.32-0.52,0.41-0.85s0.14-0.69,0.15-1.08l0.02-8.57H271.29z"/>
	<path class="st2" d="M280.19,70.07c0-0.25-0.04-0.47-0.12-0.68s-0.21-0.39-0.38-0.57s-0.4-0.33-0.69-0.48s-0.63-0.29-1.03-0.43
		c-0.57-0.19-1.09-0.4-1.55-0.63s-0.86-0.5-1.19-0.81s-0.58-0.67-0.76-1.07s-0.26-0.88-0.26-1.43c0-0.49,0.08-0.94,0.24-1.35
		s0.38-0.76,0.67-1.06s0.64-0.55,1.05-0.73s0.88-0.31,1.38-0.37v-1.92h1.41v1.93c0.51,0.07,0.96,0.21,1.37,0.43s0.74,0.49,1.02,0.84
		s0.5,0.76,0.65,1.23s0.22,1.01,0.22,1.6h-2.1c0-0.37-0.04-0.7-0.13-1s-0.21-0.55-0.38-0.76s-0.37-0.37-0.6-0.48
		s-0.51-0.17-0.81-0.17c-0.33,0-0.61,0.04-0.85,0.13s-0.43,0.21-0.58,0.36s-0.27,0.34-0.34,0.56s-0.11,0.46-0.11,0.73
		c0,0.25,0.04,0.48,0.11,0.68s0.2,0.38,0.37,0.55s0.41,0.33,0.7,0.48s0.64,0.3,1.07,0.44c0.58,0.2,1.1,0.41,1.56,0.65
		s0.85,0.5,1.17,0.81s0.57,0.66,0.74,1.07s0.26,0.88,0.26,1.42c0,0.52-0.08,0.98-0.25,1.38s-0.4,0.76-0.7,1.05s-0.67,0.53-1.11,0.71
		s-0.92,0.29-1.45,0.35v1.71h-1.4v-1.7c-0.47-0.05-0.93-0.16-1.37-0.33s-0.83-0.41-1.17-0.73s-0.61-0.72-0.82-1.21
		s-0.31-1.08-0.31-1.76h2.1c0,0.46,0.07,0.83,0.2,1.13s0.3,0.54,0.51,0.72s0.45,0.3,0.71,0.38s0.53,0.11,0.8,0.11
		c0.69,0,1.22-0.16,1.59-0.49S280.19,70.61,280.19,70.07z"/>
	<path class="st2" d="M292.9,61.78l-5.12,11.63h-2.21l5.12-11.05h-6.63v-1.75h8.85V61.78z"/>
	<path class="st2" d="M297.62,66.06h1.26c0.37,0,0.69-0.05,0.97-0.15s0.5-0.23,0.69-0.41s0.32-0.39,0.41-0.63s0.14-0.51,0.14-0.8
		c0-0.62-0.16-1.1-0.49-1.44s-0.82-0.51-1.47-0.51c-0.29,0-0.55,0.04-0.8,0.13s-0.45,0.21-0.63,0.36s-0.32,0.35-0.42,0.57
		s-0.15,0.47-0.15,0.76h-2.1c0-0.5,0.1-0.97,0.3-1.4s0.48-0.8,0.84-1.11s0.79-0.56,1.29-0.74s1.04-0.27,1.63-0.27
		c0.6,0,1.16,0.08,1.66,0.23s0.93,0.39,1.29,0.69s0.64,0.68,0.84,1.14s0.3,0.98,0.3,1.58c0,0.25-0.04,0.51-0.12,0.77
		s-0.19,0.52-0.35,0.76s-0.35,0.48-0.59,0.69s-0.52,0.39-0.84,0.54c0.39,0.13,0.71,0.31,0.98,0.52s0.48,0.45,0.64,0.71
		s0.28,0.54,0.35,0.84s0.11,0.6,0.11,0.91c0,0.6-0.11,1.13-0.32,1.6s-0.52,0.86-0.9,1.18s-0.84,0.56-1.36,0.73s-1.08,0.25-1.69,0.25
		c-0.56,0-1.09-0.08-1.59-0.23s-0.95-0.38-1.33-0.68s-0.69-0.68-0.92-1.13s-0.34-0.97-0.34-1.56h2.1c0,0.28,0.05,0.54,0.15,0.78
		s0.24,0.44,0.43,0.61s0.41,0.3,0.66,0.39s0.55,0.14,0.87,0.14c0.67,0,1.19-0.18,1.58-0.53s0.58-0.87,0.58-1.54
		c0-0.37-0.05-0.69-0.17-0.95s-0.27-0.49-0.48-0.66s-0.46-0.3-0.75-0.38s-0.63-0.12-0.99-0.12h-1.26V66.06z"/>
	<path class="st2" d="M314.59,68.76c0,0.7-0.08,1.35-0.24,1.94s-0.4,1.1-0.72,1.52s-0.71,0.76-1.17,1s-1,0.36-1.6,0.36
		c-0.58,0-1.08-0.1-1.51-0.31s-0.79-0.5-1.09-0.89l-0.1,1.02h-1.91v-13.5h2.1v4.9c0.3-0.35,0.65-0.61,1.05-0.8
		c0.4-0.19,0.88-0.28,1.43-0.28c0.61,0,1.15,0.12,1.61,0.36c0.47,0.24,0.86,0.57,1.17,1s0.55,0.94,0.72,1.53s0.24,1.25,0.24,1.96
		V68.76z M312.49,68.57c0-0.42-0.04-0.82-0.11-1.2s-0.19-0.71-0.36-1s-0.39-0.51-0.67-0.68s-0.63-0.25-1.04-0.25
		c-0.5,0-0.91,0.11-1.22,0.34s-0.56,0.53-0.73,0.9v3.93c0.17,0.37,0.41,0.67,0.73,0.91s0.73,0.35,1.24,0.35
		c0.4,0,0.73-0.08,1.01-0.24s0.5-0.38,0.67-0.66s0.29-0.61,0.37-0.99s0.12-0.78,0.12-1.22V68.57z"/>
	<path class="st2" d="M317.49,63.9h5.07v7.77h2.82v1.74h-7.89v-1.74h2.95v-6.02h-2.95V63.9z M320.27,61.44
		c0-0.33,0.11-0.6,0.32-0.81s0.51-0.32,0.89-0.32c0.39,0,0.69,0.11,0.9,0.32s0.32,0.48,0.32,0.81s-0.11,0.6-0.32,0.81
		s-0.51,0.32-0.9,0.32c-0.38,0-0.68-0.11-0.89-0.32S320.27,61.76,320.27,61.44z"/>
</g>
<g>
	<path class="st2" d="M261.4,104.8l0.02,8.57c-0.01,0.66-0.11,1.26-0.32,1.8s-0.49,1.01-0.86,1.39s-0.82,0.69-1.34,0.9
		s-1.11,0.32-1.76,0.32c-0.63,0-1.21-0.11-1.72-0.32s-0.96-0.51-1.33-0.89s-0.66-0.85-0.86-1.39s-0.31-1.14-0.32-1.81l0.02-8.57H255
		l0.02,8.57c0.01,0.39,0.06,0.75,0.15,1.08s0.23,0.61,0.4,0.85s0.39,0.42,0.66,0.55s0.56,0.2,0.91,0.2c0.35,0,0.66-0.07,0.93-0.2
		s0.5-0.32,0.68-0.55s0.32-0.52,0.41-0.85s0.14-0.69,0.15-1.08l0.02-8.57H261.4z"/>
	<path class="st2" d="M270.29,114.26c0-0.25-0.04-0.47-0.12-0.68s-0.21-0.39-0.38-0.57s-0.4-0.33-0.69-0.48s-0.62-0.29-1.03-0.43
		c-0.57-0.19-1.09-0.4-1.56-0.63s-0.86-0.5-1.19-0.81s-0.58-0.67-0.76-1.07s-0.26-0.88-0.26-1.43c0-0.49,0.08-0.94,0.24-1.35
		s0.38-0.76,0.67-1.06s0.64-0.55,1.05-0.73s0.87-0.31,1.38-0.37v-1.92h1.41v1.93c0.51,0.07,0.97,0.21,1.37,0.43s0.74,0.49,1.02,0.84
		s0.5,0.76,0.65,1.23s0.22,1.01,0.22,1.6h-2.1c0-0.37-0.04-0.7-0.13-1s-0.21-0.55-0.38-0.76s-0.36-0.37-0.6-0.48
		s-0.51-0.17-0.81-0.17c-0.33,0-0.61,0.04-0.85,0.13s-0.43,0.21-0.58,0.36s-0.27,0.34-0.34,0.56s-0.11,0.46-0.11,0.73
		c0,0.25,0.04,0.48,0.11,0.68s0.2,0.38,0.37,0.55s0.41,0.33,0.69,0.48s0.64,0.3,1.07,0.44c0.58,0.2,1.1,0.41,1.56,0.65
		s0.85,0.5,1.17,0.81s0.57,0.66,0.74,1.07s0.25,0.88,0.25,1.42c0,0.52-0.08,0.98-0.25,1.38s-0.4,0.76-0.7,1.05s-0.67,0.53-1.11,0.71
		s-0.92,0.29-1.45,0.35v1.71h-1.4v-1.7c-0.47-0.05-0.93-0.16-1.37-0.33s-0.83-0.41-1.17-0.73s-0.61-0.72-0.82-1.21
		s-0.31-1.08-0.31-1.76h2.1c0,0.46,0.07,0.83,0.2,1.13s0.3,0.54,0.51,0.72s0.45,0.3,0.71,0.38s0.53,0.11,0.8,0.11
		c0.69,0,1.22-0.16,1.59-0.49S270.29,114.81,270.29,114.26z"/>
	<path class="st2" d="M275.08,111.26l0.69-6.45h6.85v1.88h-5.11l-0.33,3.03c0.21-0.12,0.48-0.23,0.82-0.34s0.73-0.17,1.18-0.17
		c0.6,0,1.14,0.1,1.62,0.3s0.88,0.48,1.21,0.86s0.58,0.82,0.76,1.35s0.26,1.13,0.26,1.8c0,0.59-0.08,1.15-0.25,1.67
		s-0.42,0.97-0.76,1.35s-0.78,0.69-1.3,0.91s-1.14,0.33-1.85,0.33c-0.53,0-1.04-0.08-1.53-0.23s-0.92-0.38-1.31-0.69
		s-0.69-0.68-0.94-1.13s-0.38-0.98-0.42-1.57h2.03c0.08,0.63,0.31,1.11,0.69,1.45s0.87,0.5,1.47,0.5c0.35,0,0.65-0.06,0.91-0.19
		s0.47-0.31,0.64-0.54s0.3-0.51,0.38-0.83s0.13-0.68,0.13-1.07c0-0.37-0.05-0.71-0.14-1.02s-0.24-0.58-0.44-0.8s-0.43-0.4-0.72-0.53
		s-0.62-0.19-0.99-0.19c-0.25,0-0.47,0.02-0.65,0.06s-0.34,0.09-0.49,0.16s-0.27,0.15-0.39,0.24s-0.23,0.19-0.35,0.3L275.08,111.26z
		"/>
	<path class="st2" d="M293.51,108.18c0,0.63-0.16,1.19-0.48,1.67s-0.76,0.87-1.32,1.16c0.32,0.15,0.6,0.33,0.86,0.54
		s0.47,0.45,0.65,0.71s0.32,0.55,0.42,0.87s0.14,0.65,0.14,1c0,0.59-0.11,1.12-0.33,1.57s-0.51,0.84-0.89,1.15s-0.82,0.54-1.32,0.7
		s-1.05,0.24-1.63,0.24c-0.59,0-1.14-0.08-1.66-0.24s-0.96-0.39-1.33-0.7s-0.67-0.69-0.88-1.15s-0.32-0.98-0.32-1.57
		c0-0.35,0.05-0.69,0.15-1s0.23-0.61,0.41-0.87s0.4-0.5,0.65-0.71s0.54-0.39,0.86-0.53c-0.55-0.28-0.98-0.67-1.3-1.16
		s-0.47-1.05-0.47-1.67c0-0.57,0.1-1.07,0.29-1.52s0.46-0.81,0.8-1.12s0.75-0.53,1.23-0.69s0.99-0.23,1.56-0.23s1.08,0.08,1.56,0.23
		s0.89,0.38,1.24,0.69s0.63,0.67,0.82,1.12S293.51,107.61,293.51,108.18z M291.68,114.02c0-0.32-0.05-0.62-0.15-0.88
		s-0.24-0.49-0.42-0.68s-0.4-0.33-0.65-0.44s-0.54-0.15-0.86-0.15s-0.6,0.05-0.86,0.15s-0.47,0.25-0.65,0.44s-0.32,0.41-0.41,0.68
		s-0.15,0.56-0.15,0.88c0,0.66,0.18,1.17,0.55,1.53s0.88,0.55,1.53,0.55c0.3,0,0.58-0.05,0.84-0.14s0.47-0.23,0.65-0.41
		s0.32-0.4,0.42-0.65S291.68,114.34,291.68,114.02z M291.41,108.25c0-0.28-0.04-0.54-0.13-0.78s-0.21-0.44-0.37-0.61
		s-0.35-0.3-0.58-0.4s-0.47-0.14-0.74-0.14c-0.28,0-0.52,0.04-0.74,0.13s-0.41,0.22-0.56,0.38s-0.27,0.37-0.35,0.61
		s-0.12,0.51-0.12,0.8c0,0.29,0.04,0.56,0.13,0.8s0.21,0.44,0.36,0.61s0.34,0.3,0.57,0.39s0.47,0.14,0.75,0.14
		c0.27,0,0.52-0.05,0.74-0.14s0.41-0.22,0.57-0.39s0.28-0.37,0.36-0.61S291.41,108.54,291.41,108.25z"/>
	<path class="st2" d="M304.69,112.95c0,0.7-0.08,1.35-0.24,1.94s-0.4,1.1-0.72,1.52s-0.71,0.76-1.17,1s-1,0.36-1.6,0.36
		c-0.58,0-1.08-0.1-1.51-0.31s-0.79-0.5-1.09-0.89l-0.1,1.02h-1.91v-13.5h2.1v4.9c0.3-0.35,0.65-0.61,1.05-0.8s0.88-0.28,1.43-0.28
		c0.61,0,1.15,0.12,1.61,0.36s0.86,0.57,1.17,1s0.56,0.94,0.72,1.53s0.24,1.25,0.24,1.96V112.95z M302.59,112.77
		c0-0.42-0.04-0.82-0.11-1.2s-0.19-0.71-0.36-1s-0.39-0.51-0.67-0.68s-0.63-0.25-1.04-0.25c-0.5,0-0.91,0.11-1.22,0.34
		s-0.56,0.53-0.73,0.9v3.93c0.17,0.37,0.42,0.67,0.73,0.91s0.73,0.35,1.23,0.35c0.4,0,0.74-0.08,1.01-0.24s0.5-0.38,0.67-0.66
		s0.29-0.61,0.37-0.99s0.11-0.78,0.11-1.22V112.77z"/>
	<path class="st2" d="M307.59,108.09h5.07v7.77h2.82v1.74h-7.89v-1.74h2.95v-6.02h-2.95V108.09z M310.37,105.63
		c0-0.33,0.11-0.6,0.32-0.81s0.51-0.32,0.89-0.32c0.39,0,0.69,0.11,0.9,0.32s0.32,0.48,0.32,0.81s-0.11,0.6-0.32,0.81
		s-0.51,0.32-0.9,0.32c-0.38,0-0.68-0.11-0.89-0.32S310.37,105.96,310.37,105.63z"/>
</g>
</svg>
