<?xml version="1.0" encoding="utf-8"?>
<!-- Generator: Adobe Illustrator 24.1.2, SVG Export Plug-In . SVG Version: 6.00 Build 0)  -->
<svg version="1.1" id="Camada_1" xmlns="http://www.w3.org/2000/svg" xmlns:xlink="http://www.w3.org/1999/xlink" x="0px" y="0px"
	 viewBox="0 0 821.26 119.92" style="enable-background:new 0 0 821.26 119.92;" xml:space="preserve">
<style type="text/css">
	.st0{fill:#2B2B2B;}
	.st1{fill:#969696;}
	.st2{fill:#E8A325;}
	.st3{fill:none;stroke:#969696;stroke-miterlimit:10;}
	.st4{fill:#FFFFFF;}
	.st5{fill:none;stroke:#E8A325;stroke-width:0.75;stroke-linecap:round;stroke-miterlimit:10;stroke-dasharray:5.0257,12.0616;}
	.st6{fill:#474747;}
	.st7{fill:none;stroke:#E8A325;stroke-width:5;stroke-linecap:round;stroke-miterlimit:10;}
	.st8{fill:none;stroke:#969696;stroke-width:2;stroke-linecap:round;stroke-miterlimit:10;stroke-dasharray:5,13;}
	.st9{opacity:0.17;fill:none;stroke:#B2B2B2;stroke-width:3;}
	.st10{opacity:0.17;}
	.st11{fill:none;stroke:#B2B2B2;stroke-width:3;}
	.st12{fill:#B2B2B2;}
	.st13{fill:none;stroke:#FFFFFF;stroke-width:5;stroke-miterlimit:10;}
	.st14{fill:none;stroke:#E8A325;stroke-linecap:round;stroke-miterlimit:10;}
	.st15{fill:none;stroke:#E8A325;stroke-width:0.5;stroke-miterlimit:10;}
	.st16{fill:#E49412;stroke:#E8A325;stroke-width:0.5;stroke-miterlimit:10;}
	.st17{fill:none;stroke:#FFFFFF;stroke-width:3;stroke-miterlimit:10;}
	.st18{fill:#F7A416;}
</style>
<g>
	<g>
		<g id="XMLID_119_">
			<path id="XMLID_142_" class="st4" d="M780.98,90.76V78.83h15.14c2.26,0,4.11-0.18,5.55-0.55c1.44-0.37,2.57-0.96,3.39-1.79
				c0.82-0.83,1.41-1.88,1.74-3.16c0.34-1.28,0.51-2.85,0.51-4.68V28.19h13.94v41.1c0,3.98-0.38,7.32-1.15,10.05
				c-0.76,2.72-2.06,4.92-3.9,6.6c-1.84,1.68-4.3,2.91-7.38,3.67c-3.09,0.76-6.96,1.15-11.6,1.15H780.98z"/>
			<path id="XMLID_133_" class="st4" d="M767.32,47.97c0-1.64-0.18-2.98-0.55-4.01c-0.36-1.03-0.97-1.82-1.82-2.37
				c-0.85-0.55-2.04-0.91-3.56-1.09c-1.52-0.18-3.41-0.27-5.66-0.27h-34.03v18.97h34.03c2.25,0,4.12-0.09,5.61-0.27
				c1.49-0.18,2.68-0.55,3.56-1.1c0.88-0.55,1.51-1.34,1.87-2.37c0.37-1.04,0.55-2.4,0.55-4.11V47.97z M758.11,90.76l-36.4-22.62
				v22.62h-13.77V28.54h48.71c4.38,0,8.12,0.27,11.22,0.82c3.1,0.55,5.64,1.52,7.62,2.92c1.98,1.4,3.42,3.32,4.33,5.75
				c0.91,2.43,1.37,5.5,1.37,9.21v4.29c0,3.59-0.49,6.55-1.46,8.89c-0.97,2.34-2.48,4.2-4.52,5.56c-2.04,1.37-4.61,2.33-7.71,2.87
				c-3.1,0.55-6.78,0.82-11.04,0.82h-10.95l36.49,21.07H758.11z"/>
			<path id="XMLID_125_" class="st4" d="M691.54,49.16c0-3.34-0.71-5.62-2.14-6.84c-1.43-1.22-4-1.82-7.71-1.82h-35.58v21.25h35.76
				c3.65,0,6.17-0.56,7.57-1.69c1.4-1.12,2.1-3.33,2.1-6.61V49.16z M646.11,72.97v17.79h-13.87V28.54h49.81
				c4.44,0,8.15,0.35,11.13,1.05c2.98,0.7,5.38,1.86,7.21,3.47c1.82,1.61,3.12,3.7,3.88,6.25c0.76,2.55,1.14,5.66,1.14,9.31v5.38
				c0,3.71-0.37,6.78-1.1,9.21c-0.73,2.43-1.99,4.38-3.79,5.84c-1.79,1.46-4.18,2.48-7.16,3.06c-2.98,0.58-6.75,0.87-11.31,0.87
				H646.11z"/>
			<path id="XMLID_123_" class="st4" d="M614.84,90.75V49.5l-30.59,39.96c-1.41,1.78-3.46,2.66-6.15,2.66
				c-2.69,0-4.75-0.89-6.15-2.66l-30.5-39.96v41.24h-12.68V32.41c0-1.96,0.72-3.4,2.16-4.32c1.44-0.92,3.23-1.38,5.37-1.38
				c1.65,0,2.97,0.23,3.95,0.69c0.98,0.46,1.87,1.21,2.66,2.25l35.37,46.94l35.64-46.94c0.8-1.04,1.64-1.79,2.53-2.25
				c0.89-0.46,2.13-0.69,3.72-0.69c2.14,0,3.94,0.46,5.37,1.38c1.44,0.92,2.16,2.36,2.16,4.32v58.33H614.84z"/>
		</g>
		<rect id="XMLID_118_" x="491.98" y="4.18" class="st4" width="2.57" height="110.8"/>
		<path id="XMLID_116_" class="st4" d="M41.86,7.11h22.15l51.17,65.79V7.11h23.71v106.32h-20.44L65.57,45.45v67.98H41.86V7.11z"/>
		<path id="XMLID_114_" class="st4" d="M266.36,7.11h26.18l28.18,74.48l28.18-74.48h25.56l-43.58,105.68h-20.95L266.36,7.11z"/>
		<path id="XMLID_112_" class="st4" d="M461.05,112.79h-26.18l-28.18-74.48l-28.18,74.48h-25.56L396.52,7.11h20.95L461.05,112.79z"
			/>
		<rect id="XMLID_111_" y="7.11" class="st4" width="24.02" height="106.32"/>
		<path id="XMLID_110_" class="st18" d="M221.56,59.68c0,6.09-4.93,11-11,11c-6.07,0-11-4.92-11-11c0-6.07,4.93-10.99,11-10.99
			C216.63,48.69,221.56,53.61,221.56,59.68z"/>
		<path id="XMLID_107_" class="st18" d="M210.56,0.71c-32.57,0-58.97,26.41-58.97,58.97c0,32.57,26.4,58.99,58.97,58.99
			c32.57,0,58.97-26.41,58.97-58.99C269.53,27.12,243.13,0.71,210.56,0.71z M210.56,96.29c-20.21,0-36.59-16.4-36.59-36.61
			c0-20.2,16.38-36.59,36.59-36.59s36.59,16.4,36.59,36.59C247.15,79.89,230.77,96.29,210.56,96.29z"/>
	</g>
</g>
</svg>
