<?xml version="1.0" encoding="utf-8"?>
<!-- Generator: Adobe Illustrator 24.1.2, SVG Export Plug-In . SVG Version: 6.00 Build 0)  -->
<svg version="1.1" id="Camada_1" xmlns="http://www.w3.org/2000/svg" xmlns:xlink="http://www.w3.org/1999/xlink" x="0px" y="0px"
	 viewBox="0 0 435.57 297.41" style="enable-background:new 0 0 435.57 297.41;" xml:space="preserve">
<style type="text/css">
	.st0{fill:#2B2B2B;}
	.st1{fill:#969696;}
	.st2{fill:#E8A325;}
	.st3{fill:none;stroke:#969696;stroke-miterlimit:10;}
	.st4{fill:#FFFFFF;}
	.st5{fill:none;stroke:#E8A325;stroke-width:0.75;stroke-linecap:round;stroke-miterlimit:10;stroke-dasharray:5.0257,12.0616;}
	.st6{fill:#474747;}
	.st7{fill:none;stroke:#E8A325;stroke-width:5;stroke-linecap:round;stroke-miterlimit:10;}
	.st8{fill:none;stroke:#969696;stroke-width:2;stroke-linecap:round;stroke-miterlimit:10;stroke-dasharray:5,13;}
	.st9{opacity:0.17;fill:none;stroke:#B2B2B2;stroke-width:3;enable-background:new    ;}
	.st10{opacity:0.17;}
	.st11{fill:none;stroke:#B2B2B2;stroke-width:3;}
	.st12{fill:#B2B2B2;}
	.st13{fill:none;stroke:#FFFFFF;stroke-width:5;stroke-miterlimit:10;}
	.st14{fill:none;stroke:#E8A325;stroke-linecap:round;stroke-miterlimit:10;}
	.st15{fill:none;stroke:#E8A325;stroke-width:0.5;stroke-miterlimit:10;}
	.st16{fill:#E49412;stroke:#E8A325;stroke-width:0.5;stroke-miterlimit:10;}
	.st17{fill:none;stroke:#FFFFFF;stroke-width:3;stroke-miterlimit:10;}
	.st18{fill:#F7A416;}
	.st19{fill:#454545;}
	.st20{fill:#343434;}
	.st21{fill:#F4F4F4;}
	.st22{fill:#DDDDDD;}
	.st23{fill:none;stroke:#E8A325;stroke-width:3.5;stroke-linecap:round;stroke-linejoin:round;stroke-miterlimit:10;}
</style>
<g>
	<g>
		<path class="st2" d="M14.45,104.23c-0.04,0.01-0.09,0.02-0.14,0.03c-2.98,0.62-5.56,2.65-7.23,5.18c-1.68,2.54-2.51,5.57-2.81,8.6
			c-0.12,1.16-0.16,2.33-0.2,3.5c-0.05,1.33-0.1,2.67-0.15,4c-0.02,0.71-0.05,1.42,0.07,2.12c0.36,2.05,2,3.7,3.88,4.59
			c1.88,0.89,4,1.13,6.07,1.28c4.42,0.32,8.87,0.28,13.28-0.13c1.7-0.15,3.43-0.37,4.99-1.08c1.56-0.7,2.95-1.96,3.43-3.6
			c0.33-1.14,0.2-2.35,0.05-3.52c-0.55-4.14-1.44-8.24-2.65-12.24c-0.47-1.54-1-3.09-1.87-4.44c-1.45-2.24-3.84-3.84-6.47-4.32"/>
		<g>
			<path class="st4" d="M14.45,103.52c-6.02,0.45-9.77,6.88-10.82,12.17c-0.69,3.49-0.88,7.36-0.76,10.91
				c0.09,2.72,1.61,4.95,3.97,6.28c2.93,1.65,6.57,1.72,9.84,1.85c3.99,0.16,8.05,0.09,12.01-0.42c2.79-0.36,5.69-1.29,7.29-3.77
				c1.77-2.74,0.71-6.53,0.17-9.5c-1.29-7.1-2.9-16.14-11.13-17.94c-1.43-0.31-2.05,1.89-0.61,2.2c3.79,0.82,6.03,3.39,7.24,6.97
				c1.19,3.53,2.04,7.22,2.66,10.89c0.31,1.88,0.98,4.27-0.03,6.05c-0.9,1.6-2.72,2.36-4.42,2.74c-3.59,0.82-7.55,0.76-11.22,0.71
				c-3.45-0.04-7.65,0.15-10.74-1.59c-3.7-2.09-2.91-5.91-2.8-9.55c0.21-7.19,2.09-14.09,9.56-16.62
				C15.36,104.68,15.29,103.46,14.45,103.52L14.45,103.52z"/>
		</g>
	</g>
	<g>
		<path class="st2" d="M58.42,104.23c-0.04,0.01-0.09,0.02-0.14,0.03c-2.98,0.62-5.56,2.65-7.23,5.18c-1.68,2.54-2.51,5.57-2.81,8.6
			c-0.12,1.16-0.16,2.33-0.2,3.5c-0.05,1.33-0.1,2.67-0.15,4c-0.02,0.71-0.05,1.42,0.07,2.12c0.36,2.05,2,3.7,3.88,4.59
			c1.88,0.89,4,1.13,6.07,1.28c4.42,0.32,8.87,0.28,13.28-0.13c1.7-0.15,3.43-0.37,4.99-1.08c1.56-0.7,2.95-1.96,3.43-3.6
			c0.33-1.14,0.2-2.35,0.05-3.52c-0.55-4.14-1.44-8.24-2.65-12.24c-0.47-1.54-1-3.09-1.87-4.44c-1.45-2.24-3.84-3.84-6.47-4.32"/>
		<g>
			<path class="st4" d="M58.42,103.52c-6.02,0.44-9.77,6.88-10.82,12.17c-0.69,3.49-0.88,7.36-0.76,10.91
				c0.09,2.72,1.61,4.95,3.97,6.28c2.93,1.65,6.57,1.72,9.84,1.85c3.99,0.16,8.05,0.09,12.01-0.42c2.79-0.36,5.69-1.29,7.29-3.77
				c1.77-2.74,0.71-6.53,0.17-9.5c-1.29-7.1-2.9-16.14-11.13-17.94c-1.43-0.31-2.05,1.89-0.61,2.2c3.79,0.82,6.03,3.39,7.24,6.97
				c1.19,3.53,2.04,7.22,2.66,10.89c0.31,1.88,0.98,4.27-0.03,6.05c-0.9,1.6-2.72,2.36-4.42,2.74c-3.59,0.82-7.55,0.76-11.22,0.71
				c-3.45-0.04-7.65,0.15-10.74-1.59c-3.7-2.09-2.91-5.91-2.8-9.55c0.21-7.19,2.09-14.09,9.56-16.62
				C59.33,104.68,59.27,103.46,58.42,103.52L58.42,103.52z"/>
		</g>
	</g>
	<g>
		<path class="st2" d="M102.4,104.23c-0.04,0.01-0.09,0.02-0.14,0.03c-2.98,0.62-5.56,2.65-7.23,5.18c-1.68,2.54-2.51,5.57-2.81,8.6
			c-0.12,1.16-0.16,2.33-0.2,3.5c-0.05,1.33-0.1,2.67-0.15,4c-0.02,0.71-0.05,1.42,0.07,2.12c0.36,2.05,2,3.7,3.88,4.59
			c1.88,0.89,4,1.13,6.07,1.28c4.42,0.32,8.87,0.28,13.28-0.13c1.7-0.15,3.43-0.37,4.99-1.08c1.56-0.7,2.95-1.96,3.43-3.6
			c0.33-1.14,0.2-2.35,0.05-3.52c-0.55-4.14-1.44-8.24-2.65-12.24c-0.47-1.54-1-3.09-1.87-4.44c-1.45-2.24-3.84-3.84-6.47-4.32"/>
		<g>
			<path class="st4" d="M102.4,103.52c-6.02,0.44-9.77,6.88-10.82,12.17c-0.69,3.49-0.88,7.36-0.76,10.91
				c0.09,2.72,1.61,4.95,3.97,6.28c2.93,1.65,6.57,1.72,9.84,1.85c3.99,0.16,8.05,0.09,12.01-0.42c2.79-0.36,5.69-1.29,7.29-3.77
				c1.77-2.74,0.71-6.53,0.17-9.5c-1.29-7.1-2.9-16.14-11.13-17.94c-1.43-0.31-2.05,1.89-0.61,2.2c3.79,0.82,6.03,3.39,7.24,6.97
				c1.19,3.53,2.04,7.22,2.66,10.89c0.31,1.88,0.98,4.27-0.03,6.05c-0.9,1.6-2.72,2.36-4.42,2.74c-3.59,0.82-7.55,0.76-11.22,0.71
				c-3.45-0.04-7.65,0.15-10.74-1.59c-3.7-2.09-2.91-5.91-2.8-9.55c0.21-7.19,2.09-14.09,9.56-16.62
				C103.3,104.68,103.24,103.46,102.4,103.52L102.4,103.52z"/>
		</g>
	</g>
	<g>
		<path class="st2" d="M146.37,104.23c-0.04,0.01-0.09,0.02-0.14,0.03c-2.98,0.62-5.56,2.65-7.23,5.18
			c-1.68,2.54-2.51,5.57-2.81,8.6c-0.12,1.16-0.16,2.33-0.2,3.5c-0.05,1.33-0.1,2.67-0.15,4c-0.02,0.71-0.05,1.42,0.07,2.12
			c0.36,2.05,2,3.7,3.88,4.59c1.88,0.89,4,1.13,6.07,1.28c4.42,0.32,8.87,0.28,13.28-0.13c1.7-0.15,3.43-0.37,4.99-1.08
			c1.56-0.7,2.95-1.96,3.43-3.6c0.33-1.14,0.2-2.35,0.05-3.52c-0.55-4.14-1.44-8.24-2.65-12.24c-0.47-1.54-1-3.09-1.87-4.44
			c-1.45-2.24-3.84-3.84-6.47-4.32"/>
		<g>
			<path class="st4" d="M146.37,103.52c-6.02,0.44-9.77,6.88-10.82,12.17c-0.69,3.49-0.88,7.36-0.76,10.91
				c0.09,2.72,1.61,4.95,3.97,6.28c2.93,1.65,6.57,1.72,9.84,1.85c3.99,0.16,8.05,0.09,12.01-0.42c2.79-0.36,5.69-1.29,7.29-3.77
				c1.77-2.74,0.71-6.53,0.17-9.5c-1.29-7.1-2.9-16.14-11.13-17.94c-1.43-0.31-2.05,1.89-0.61,2.2c3.79,0.82,6.03,3.39,7.24,6.97
				c1.19,3.53,2.04,7.22,2.66,10.89c0.31,1.88,0.98,4.27-0.03,6.05c-0.9,1.6-2.72,2.36-4.42,2.74c-3.59,0.82-7.55,0.76-11.22,0.71
				c-3.45-0.04-7.65,0.15-10.74-1.59c-3.7-2.09-2.91-5.91-2.8-9.55c0.21-7.19,2.09-14.09,9.56-16.62
				C147.28,104.68,147.22,103.46,146.37,103.52L146.37,103.52z"/>
		</g>
	</g>
	<g>
		<path class="st12" d="M190.35,103.52c-6.02,0.44-9.77,6.88-10.82,12.17c-0.69,3.49-0.88,7.36-0.76,10.91
			c0.09,2.72,1.61,4.95,3.97,6.28c2.93,1.65,6.57,1.72,9.84,1.85c3.99,0.16,8.05,0.09,12.01-0.42c2.79-0.36,5.69-1.29,7.29-3.77
			c1.77-2.74,0.71-6.53,0.17-9.5c-1.29-7.1-2.9-16.14-11.13-17.94c-1.43-0.31-2.05,1.89-0.61,2.2c3.79,0.82,6.03,3.39,7.24,6.97
			c1.19,3.53,2.04,7.22,2.66,10.89c0.31,1.88,0.98,4.27-0.03,6.05c-0.9,1.6-2.72,2.36-4.42,2.74c-3.59,0.82-7.55,0.76-11.22,0.71
			c-3.45-0.04-7.65,0.15-10.74-1.59c-3.7-2.09-2.91-5.91-2.8-9.55c0.21-7.19,2.09-14.09,9.56-16.62
			C191.25,104.68,191.19,103.46,190.35,103.52L190.35,103.52z"/>
	</g>
	<g>
		<path class="st12" d="M234.33,103.52c-6.02,0.44-9.77,6.88-10.82,12.17c-0.69,3.49-0.88,7.36-0.76,10.91
			c0.09,2.72,1.61,4.95,3.97,6.28c2.93,1.65,6.57,1.72,9.84,1.85c3.99,0.16,8.05,0.09,12.01-0.42c2.79-0.36,5.69-1.29,7.29-3.77
			c1.77-2.74,0.71-6.53,0.17-9.5c-1.29-7.1-2.9-16.14-11.13-17.94c-1.43-0.31-2.05,1.89-0.61,2.2c3.79,0.82,6.03,3.39,7.24,6.97
			c1.19,3.53,2.04,7.22,2.66,10.89c0.31,1.88,0.98,4.27-0.03,6.05c-0.9,1.6-2.72,2.36-4.42,2.74c-3.59,0.82-7.55,0.76-11.22,0.71
			c-3.45-0.04-7.65,0.15-10.74-1.59c-3.7-2.09-2.91-5.91-2.8-9.55c0.21-7.19,2.09-14.09,9.56-16.62
			C235.23,104.68,235.17,103.46,234.33,103.52L234.33,103.52z"/>
	</g>
	<g>
		<path class="st12" d="M278.3,103.52c-6.02,0.44-9.77,6.88-10.82,12.17c-0.69,3.49-0.88,7.36-0.76,10.91
			c0.09,2.72,1.61,4.95,3.97,6.28c2.93,1.65,6.57,1.72,9.84,1.85c3.99,0.16,8.05,0.09,12.01-0.42c2.79-0.36,5.69-1.29,7.29-3.77
			c1.77-2.74,0.71-6.53,0.17-9.5c-1.29-7.1-2.9-16.14-11.13-17.94c-1.43-0.31-2.05,1.89-0.61,2.2c3.79,0.82,6.03,3.39,7.24,6.97
			c1.19,3.53,2.04,7.22,2.66,10.89c0.31,1.88,0.98,4.27-0.03,6.05c-0.9,1.6-2.72,2.36-4.42,2.74c-3.59,0.82-7.55,0.76-11.22,0.71
			c-3.45-0.04-7.65,0.15-10.74-1.59c-3.7-2.09-2.91-5.91-2.8-9.55c0.21-7.19,2.09-14.09,9.56-16.62
			C279.21,104.68,279.14,103.46,278.3,103.52L278.3,103.52z"/>
	</g>
	<g>
		<path class="st12" d="M322.28,103.52c-6.02,0.44-9.77,6.88-10.82,12.17c-0.69,3.49-0.88,7.36-0.76,10.91
			c0.09,2.72,1.61,4.95,3.97,6.28c2.93,1.65,6.57,1.72,9.84,1.85c3.99,0.16,8.05,0.09,12.01-0.42c2.79-0.36,5.69-1.29,7.29-3.77
			c1.77-2.74,0.71-6.53,0.17-9.5c-1.29-7.1-2.9-16.14-11.13-17.94c-1.43-0.31-2.05,1.89-0.61,2.2c3.79,0.82,6.03,3.39,7.24,6.97
			c1.19,3.53,2.04,7.22,2.66,10.89c0.31,1.88,0.98,4.27-0.03,6.05c-0.9,1.6-2.72,2.36-4.42,2.74c-3.59,0.82-7.55,0.76-11.22,0.71
			c-3.45-0.04-7.65,0.15-10.74-1.59c-3.7-2.09-2.91-5.91-2.8-9.55c0.21-7.19,2.09-14.09,9.56-16.62
			C323.18,104.68,323.12,103.46,322.28,103.52L322.28,103.52z"/>
	</g>
	<g>
		<path class="st12" d="M366.25,103.52c-6.02,0.44-9.77,6.88-10.82,12.17c-0.69,3.49-0.88,7.36-0.76,10.91
			c0.09,2.72,1.61,4.95,3.97,6.28c2.93,1.65,6.57,1.72,9.84,1.85c3.99,0.16,8.05,0.09,12.01-0.42c2.79-0.36,5.69-1.29,7.29-3.77
			c1.77-2.74,0.71-6.53,0.17-9.5c-1.29-7.1-2.9-16.14-11.13-17.94c-1.43-0.31-2.05,1.89-0.61,2.2c3.79,0.82,6.03,3.39,7.24,6.97
			c1.19,3.53,2.04,7.22,2.66,10.89c0.31,1.88,0.98,4.27-0.03,6.05c-0.9,1.6-2.72,2.36-4.42,2.74c-3.59,0.82-7.55,0.76-11.22,0.71
			c-3.45-0.04-7.65,0.15-10.74-1.59c-3.7-2.09-2.91-5.91-2.8-9.55c0.21-7.19,2.09-14.09,9.56-16.62
			C367.16,104.68,367.1,103.46,366.25,103.52L366.25,103.52z"/>
	</g>
	<g>
		<path class="st12" d="M410.23,103.52c-6.02,0.44-9.77,6.88-10.82,12.17c-0.69,3.49-0.88,7.36-0.76,10.91
			c0.09,2.72,1.61,4.95,3.97,6.28c2.93,1.65,6.57,1.72,9.84,1.85c3.99,0.16,8.05,0.09,12.01-0.42c2.79-0.36,5.69-1.29,7.29-3.77
			c1.77-2.74,0.71-6.53,0.17-9.5c-1.29-7.1-2.9-16.14-11.13-17.94c-1.43-0.31-2.05,1.89-0.61,2.2c3.79,0.82,6.03,3.39,7.24,6.97
			c1.19,3.53,2.04,7.22,2.66,10.89c0.31,1.88,0.98,4.27-0.03,6.05c-0.9,1.6-2.72,2.36-4.42,2.74c-3.59,0.82-7.55,0.76-11.22,0.71
			c-3.45-0.04-7.65,0.15-10.74-1.59c-3.7-2.09-2.91-5.91-2.8-9.55c0.21-7.19,2.09-14.09,9.56-16.62
			C411.13,104.68,411.07,103.46,410.23,103.52L410.23,103.52z"/>
	</g>
	<g>
		<path class="st2" d="M22.73,85.26c-4.76-1.32-10.17,1.07-12.77,5.27c-0.51,0.82-0.93,1.72-1.11,2.67
			c-0.22,1.1-0.13,2.24,0.09,3.33c0.67,3.29,2.74,6.41,5.83,7.74c2.23,0.95,4.77,0.9,7.15,0.46c1.68-0.31,3.37-0.84,4.7-1.9
			c2.16-1.74,3.05-4.73,2.8-7.5c-0.25-2.77-1.49-5.35-2.95-7.72c-0.32-0.52-0.66-1.04-1.11-1.45c-1.34-1.22-3.37-1.23-5.18-1.18"/>
		<g>
			<path class="st4" d="M22.97,84.85c-3.67-2.18-9.07,0.22-11.82,2.87c-3.77,3.62-4.15,8.72-1.47,13.14
				c2.84,4.68,8.05,5.87,13.16,4.77c5.15-1.11,8.23-5.39,7.65-10.65c-0.33-3.01-1.68-5.97-3.4-8.44c-1.59-2.29-4.24-2.89-6.91-2.57
				c-1.27,0.15-1.32,1.92,0,2.01c1.32,0.09,2.71-0.05,3.88,0.65c1.13,0.67,1.72,1.91,2.33,3.04c1.21,2.26,2.17,4.84,1.93,7.45
				c-0.55,5.89-7.57,8.07-12.61,6.48c-4.99-1.58-7.71-8.46-4.84-12.85c1.28-1.96,3.23-3.49,5.42-4.31c2.17-0.82,4.2-0.57,6.44-0.69
				C23.18,85.7,23.38,85.09,22.97,84.85L22.97,84.85z"/>
		</g>
	</g>
	<g>
		<path class="st2" d="M66.7,85.26c-4.76-1.32-10.17,1.07-12.77,5.27c-0.51,0.82-0.93,1.72-1.11,2.67c-0.22,1.1-0.13,2.24,0.09,3.33
			c0.67,3.29,2.74,6.41,5.83,7.74c2.23,0.95,4.77,0.9,7.15,0.46c1.68-0.31,3.37-0.84,4.7-1.9c2.16-1.74,3.05-4.73,2.8-7.5
			c-0.25-2.77-1.49-5.35-2.95-7.72c-0.32-0.52-0.66-1.04-1.11-1.45c-1.34-1.22-3.37-1.23-5.18-1.18"/>
		<g>
			<path class="st4" d="M66.94,84.85c-3.67-2.18-9.07,0.22-11.82,2.87c-3.77,3.62-4.15,8.72-1.47,13.14
				c2.84,4.68,8.05,5.87,13.16,4.77c5.15-1.11,8.23-5.39,7.65-10.65c-0.33-3.01-1.68-5.97-3.4-8.44c-1.59-2.29-4.24-2.89-6.91-2.57
				c-1.27,0.15-1.32,1.92,0,2.01c1.32,0.09,2.71-0.05,3.88,0.65c1.13,0.67,1.72,1.91,2.33,3.04c1.21,2.26,2.17,4.84,1.93,7.45
				c-0.55,5.89-7.57,8.07-12.61,6.48c-4.99-1.58-7.71-8.46-4.84-12.85c1.28-1.96,3.23-3.49,5.42-4.31c2.17-0.82,4.2-0.57,6.44-0.69
				C67.16,85.7,67.36,85.09,66.94,84.85L66.94,84.85z"/>
		</g>
	</g>
	<g>
		<path class="st2" d="M110.68,85.26c-4.76-1.32-10.17,1.07-12.77,5.27c-0.51,0.82-0.93,1.72-1.11,2.67
			c-0.22,1.1-0.13,2.24,0.09,3.33c0.67,3.29,2.74,6.41,5.83,7.74c2.23,0.95,4.77,0.9,7.15,0.46c1.68-0.31,3.37-0.84,4.7-1.9
			c2.16-1.74,3.05-4.73,2.8-7.5c-0.25-2.77-1.49-5.35-2.95-7.72c-0.32-0.52-0.66-1.04-1.11-1.45c-1.34-1.22-3.37-1.23-5.18-1.18"/>
		<g>
			<path class="st4" d="M110.92,84.85c-3.67-2.18-9.07,0.22-11.82,2.87c-3.77,3.62-4.15,8.72-1.47,13.14
				c2.84,4.68,8.05,5.87,13.16,4.77c5.15-1.11,8.23-5.39,7.65-10.65c-0.33-3.01-1.68-5.97-3.4-8.44c-1.59-2.29-4.24-2.89-6.91-2.57
				c-1.27,0.15-1.32,1.92,0,2.01c1.32,0.09,2.71-0.05,3.88,0.65c1.13,0.67,1.72,1.91,2.33,3.04c1.21,2.26,2.17,4.84,1.93,7.45
				c-0.55,5.89-7.57,8.07-12.61,6.48c-4.99-1.58-7.71-8.46-4.84-12.85c1.28-1.96,3.23-3.49,5.42-4.31c2.17-0.82,4.2-0.57,6.44-0.69
				C111.13,85.7,111.33,85.09,110.92,84.85L110.92,84.85z"/>
		</g>
	</g>
	<g>
		<path class="st2" d="M154.66,85.26c-4.76-1.32-10.17,1.07-12.77,5.27c-0.51,0.82-0.93,1.72-1.11,2.67
			c-0.22,1.1-0.13,2.24,0.09,3.33c0.67,3.29,2.74,6.41,5.83,7.74c2.23,0.95,4.77,0.9,7.15,0.46c1.68-0.31,3.37-0.84,4.7-1.9
			c2.16-1.74,3.05-4.73,2.8-7.5s-1.49-5.35-2.95-7.72c-0.32-0.52-0.66-1.04-1.11-1.45c-1.34-1.22-3.37-1.23-5.18-1.18"/>
		<g>
			<path class="st4" d="M154.89,84.85c-3.67-2.18-9.07,0.22-11.82,2.87c-3.77,3.62-4.15,8.72-1.47,13.14
				c2.84,4.68,8.05,5.87,13.16,4.77c5.15-1.11,8.23-5.39,7.65-10.65c-0.33-3.01-1.68-5.97-3.4-8.44c-1.59-2.29-4.24-2.89-6.91-2.57
				c-1.27,0.15-1.32,1.92,0,2.01c1.32,0.09,2.71-0.05,3.88,0.65c1.13,0.67,1.72,1.91,2.33,3.04c1.21,2.26,2.17,4.84,1.93,7.45
				c-0.55,5.89-7.57,8.07-12.61,6.48c-4.99-1.58-7.71-8.46-4.84-12.85c1.28-1.96,3.23-3.49,5.42-4.31c2.17-0.82,4.2-0.57,6.44-0.69
				C155.11,85.7,155.31,85.09,154.89,84.85L154.89,84.85z"/>
		</g>
	</g>
	<g>
		<path class="st12" d="M198.87,84.85c-3.67-2.18-9.07,0.22-11.82,2.87c-3.77,3.62-4.15,8.72-1.47,13.14
			c2.84,4.68,8.05,5.87,13.16,4.77c5.15-1.11,8.23-5.39,7.65-10.65c-0.33-3.01-1.68-5.97-3.4-8.44c-1.59-2.29-4.24-2.89-6.91-2.57
			c-1.27,0.15-1.32,1.92,0,2.01c1.32,0.09,2.71-0.05,3.88,0.65c1.13,0.67,1.72,1.91,2.33,3.04c1.21,2.26,2.17,4.84,1.93,7.45
			c-0.55,5.89-7.57,8.07-12.61,6.48c-4.99-1.58-7.71-8.46-4.84-12.85c1.28-1.96,3.23-3.49,5.42-4.31c2.17-0.82,4.2-0.57,6.44-0.69
			C199.08,85.7,199.28,85.09,198.87,84.85L198.87,84.85z"/>
	</g>
	<g>
		<path class="st12" d="M242.84,84.85c-3.67-2.18-9.07,0.22-11.82,2.87c-3.77,3.62-4.15,8.72-1.47,13.14
			c2.84,4.68,8.05,5.87,13.16,4.77c5.15-1.11,8.23-5.39,7.65-10.65c-0.33-3.01-1.68-5.97-3.4-8.44c-1.59-2.29-4.24-2.89-6.91-2.57
			c-1.27,0.15-1.32,1.92,0,2.01c1.32,0.09,2.71-0.05,3.88,0.65c1.13,0.67,1.72,1.91,2.33,3.04c1.21,2.26,2.17,4.84,1.93,7.45
			c-0.55,5.89-7.57,8.07-12.61,6.48c-4.99-1.58-7.71-8.46-4.84-12.85c1.28-1.96,3.23-3.49,5.42-4.31c2.17-0.82,4.2-0.57,6.44-0.69
			C243.06,85.7,243.26,85.09,242.84,84.85L242.84,84.85z"/>
	</g>
	<g>
		<path class="st12" d="M286.82,84.85c-3.67-2.18-9.07,0.22-11.82,2.87c-3.77,3.62-4.15,8.72-1.47,13.14
			c2.84,4.68,8.05,5.87,13.16,4.77c5.15-1.11,8.23-5.39,7.65-10.65c-0.33-3.01-1.68-5.97-3.4-8.44c-1.59-2.29-4.24-2.89-6.91-2.57
			c-1.27,0.15-1.32,1.92,0,2.01c1.32,0.09,2.71-0.05,3.88,0.65c1.13,0.67,1.72,1.91,2.33,3.04c1.21,2.26,2.17,4.84,1.93,7.45
			c-0.55,5.89-7.57,8.07-12.61,6.48c-4.99-1.58-7.71-8.46-4.84-12.85c1.28-1.96,3.23-3.49,5.42-4.31c2.17-0.82,4.2-0.57,6.44-0.69
			C287.03,85.7,287.23,85.09,286.82,84.85L286.82,84.85z"/>
	</g>
	<g>
		<path class="st12" d="M330.79,84.85c-3.67-2.18-9.07,0.22-11.82,2.87c-3.77,3.62-4.15,8.72-1.47,13.14
			c2.84,4.68,8.05,5.87,13.16,4.77c5.15-1.11,8.23-5.39,7.65-10.65c-0.33-3.01-1.68-5.97-3.4-8.44c-1.59-2.29-4.24-2.89-6.91-2.57
			c-1.27,0.15-1.32,1.92,0,2.01c1.32,0.09,2.71-0.05,3.88,0.65c1.13,0.67,1.72,1.91,2.33,3.04c1.21,2.26,2.17,4.84,1.93,7.45
			c-0.55,5.89-7.57,8.07-12.61,6.48c-4.99-1.58-7.71-8.46-4.84-12.85c1.28-1.96,3.23-3.49,5.42-4.31c2.17-0.82,4.2-0.57,6.44-0.69
			C331.01,85.7,331.21,85.09,330.79,84.85L330.79,84.85z"/>
	</g>
	<g>
		<path class="st12" d="M374.77,84.85c-3.67-2.18-9.07,0.22-11.82,2.87c-3.77,3.62-4.15,8.72-1.47,13.14
			c2.84,4.68,8.05,5.87,13.16,4.77c5.15-1.11,8.23-5.39,7.65-10.65c-0.33-3.01-1.68-5.97-3.4-8.44c-1.59-2.29-4.24-2.89-6.91-2.57
			c-1.27,0.15-1.32,1.92,0,2.01c1.32,0.09,2.71-0.05,3.88,0.65c1.13,0.67,1.72,1.91,2.33,3.04c1.21,2.26,2.17,4.84,1.93,7.45
			c-0.55,5.89-7.57,8.07-12.61,6.48c-4.99-1.58-7.71-8.46-4.84-12.85c1.28-1.96,3.23-3.49,5.42-4.31c2.17-0.82,4.2-0.57,6.44-0.69
			C374.99,85.7,375.18,85.09,374.77,84.85L374.77,84.85z"/>
	</g>
	<g>
		<path class="st12" d="M418.75,84.85c-3.67-2.18-9.07,0.22-11.82,2.87c-3.77,3.62-4.15,8.72-1.47,13.14
			c2.84,4.68,8.05,5.87,13.16,4.77c5.15-1.11,8.23-5.39,7.65-10.65c-0.33-3.01-1.68-5.97-3.4-8.44c-1.59-2.29-4.24-2.89-6.91-2.57
			c-1.27,0.15-1.32,1.92,0,2.01c1.32,0.09,2.71-0.05,3.88,0.65c1.13,0.67,1.72,1.91,2.33,3.04c1.21,2.26,2.17,4.84,1.93,7.45
			c-0.55,5.89-7.57,8.07-12.61,6.48c-4.99-1.58-7.71-8.46-4.84-12.85c1.28-1.96,3.23-3.49,5.42-4.31c2.17-0.82,4.2-0.57,6.44-0.69
			C418.96,85.7,419.16,85.09,418.75,84.85L418.75,84.85z"/>
	</g>
	<g>
		<path class="st2" d="M14.45,177.25c-0.04,0.01-0.09,0.02-0.14,0.03c-2.98,0.62-5.56,2.65-7.23,5.18c-1.68,2.54-2.51,5.57-2.81,8.6
			c-0.12,1.16-0.16,2.33-0.2,3.5c-0.05,1.33-0.1,2.67-0.15,4c-0.02,0.71-0.05,1.42,0.07,2.12c0.36,2.05,2,3.7,3.88,4.59
			c1.88,0.89,4,1.13,6.07,1.28c4.42,0.32,8.87,0.28,13.28-0.13c1.7-0.15,3.43-0.37,4.99-1.08c1.56-0.7,2.95-1.96,3.43-3.6
			c0.33-1.14,0.2-2.35,0.05-3.52c-0.55-4.14-1.44-8.24-2.65-12.24c-0.47-1.54-1-3.09-1.87-4.44c-1.45-2.24-3.84-3.84-6.47-4.32"/>
		<g>
			<path class="st4" d="M14.45,176.54c-6.02,0.44-9.77,6.88-10.82,12.17c-0.69,3.49-0.88,7.36-0.76,10.91
				c0.09,2.72,1.61,4.95,3.97,6.28c2.93,1.65,6.57,1.72,9.84,1.85c3.99,0.16,8.05,0.09,12.01-0.42c2.79-0.36,5.69-1.29,7.29-3.77
				c1.77-2.74,0.71-6.53,0.17-9.5c-1.29-7.1-2.9-16.14-11.13-17.94c-1.43-0.31-2.05,1.89-0.61,2.2c3.79,0.82,6.03,3.39,7.24,6.97
				c1.19,3.53,2.04,7.22,2.66,10.89c0.31,1.88,0.98,4.27-0.03,6.05c-0.9,1.6-2.72,2.36-4.42,2.74c-3.59,0.82-7.55,0.76-11.22,0.71
				c-3.45-0.04-7.65,0.15-10.74-1.59c-3.7-2.09-2.91-5.91-2.8-9.55c0.21-7.19,2.09-14.09,9.56-16.62
				C15.36,177.69,15.29,176.47,14.45,176.54L14.45,176.54z"/>
		</g>
	</g>
	<g>
		<path class="st2" d="M58.42,177.25c-0.04,0.01-0.09,0.02-0.14,0.03c-2.98,0.62-5.56,2.65-7.23,5.18c-1.68,2.54-2.51,5.57-2.81,8.6
			c-0.12,1.16-0.16,2.33-0.2,3.5c-0.05,1.33-0.1,2.67-0.15,4c-0.02,0.71-0.05,1.42,0.07,2.12c0.36,2.05,2,3.7,3.88,4.59
			c1.88,0.89,4,1.13,6.07,1.28c4.42,0.32,8.87,0.28,13.28-0.13c1.7-0.15,3.43-0.37,4.99-1.08c1.56-0.7,2.95-1.96,3.43-3.6
			c0.33-1.14,0.2-2.35,0.05-3.52c-0.55-4.14-1.44-8.24-2.65-12.24c-0.47-1.54-1-3.09-1.87-4.44c-1.45-2.24-3.84-3.84-6.47-4.32"/>
		<g>
			<path class="st4" d="M58.42,176.54c-6.02,0.44-9.77,6.88-10.82,12.17c-0.69,3.49-0.88,7.36-0.76,10.91
				c0.09,2.72,1.61,4.95,3.97,6.28c2.93,1.65,6.57,1.72,9.84,1.85c3.99,0.16,8.05,0.09,12.01-0.42c2.79-0.36,5.69-1.29,7.29-3.77
				c1.77-2.74,0.71-6.53,0.17-9.5c-1.29-7.1-2.9-16.14-11.13-17.94c-1.43-0.31-2.05,1.89-0.61,2.2c3.79,0.82,6.03,3.39,7.24,6.97
				c1.19,3.53,2.04,7.22,2.66,10.89c0.31,1.88,0.98,4.27-0.03,6.05c-0.9,1.6-2.72,2.36-4.42,2.74c-3.59,0.82-7.55,0.76-11.22,0.71
				c-3.45-0.04-7.65,0.15-10.74-1.59c-3.7-2.09-2.91-5.91-2.8-9.55c0.21-7.19,2.09-14.09,9.56-16.62
				C59.33,177.69,59.27,176.47,58.42,176.54L58.42,176.54z"/>
		</g>
	</g>
	<g>
		<path class="st2" d="M102.4,177.25c-0.04,0.01-0.09,0.02-0.14,0.03c-2.98,0.62-5.56,2.65-7.23,5.18c-1.68,2.54-2.51,5.57-2.81,8.6
			c-0.12,1.16-0.16,2.33-0.2,3.5c-0.05,1.33-0.1,2.67-0.15,4c-0.02,0.71-0.05,1.42,0.07,2.12c0.36,2.05,2,3.7,3.88,4.59
			c1.88,0.89,4,1.13,6.07,1.28c4.42,0.32,8.87,0.28,13.28-0.13c1.7-0.15,3.43-0.37,4.99-1.08c1.56-0.7,2.95-1.96,3.43-3.6
			c0.33-1.14,0.2-2.35,0.05-3.52c-0.55-4.14-1.44-8.24-2.65-12.24c-0.47-1.54-1-3.09-1.87-4.44c-1.45-2.24-3.84-3.84-6.47-4.32"/>
		<g>
			<path class="st4" d="M102.4,176.54c-6.02,0.44-9.77,6.88-10.82,12.17c-0.69,3.49-0.88,7.36-0.76,10.91
				c0.09,2.72,1.61,4.95,3.97,6.28c2.93,1.65,6.57,1.72,9.84,1.85c3.99,0.16,8.05,0.09,12.01-0.42c2.79-0.36,5.69-1.29,7.29-3.77
				c1.77-2.74,0.71-6.53,0.17-9.5c-1.29-7.1-2.9-16.14-11.13-17.94c-1.43-0.31-2.05,1.89-0.61,2.2c3.79,0.82,6.03,3.39,7.24,6.97
				c1.19,3.53,2.04,7.22,2.66,10.89c0.31,1.88,0.98,4.27-0.03,6.05c-0.9,1.6-2.72,2.36-4.42,2.74c-3.59,0.82-7.55,0.76-11.22,0.71
				c-3.45-0.04-7.65,0.15-10.74-1.59c-3.7-2.09-2.91-5.91-2.8-9.55c0.21-7.19,2.09-14.09,9.56-16.62
				C103.3,177.69,103.24,176.47,102.4,176.54L102.4,176.54z"/>
		</g>
	</g>
	<g>
		<path class="st2" d="M146.37,177.25c-0.04,0.01-0.09,0.02-0.14,0.03c-2.98,0.62-5.56,2.65-7.23,5.18
			c-1.68,2.54-2.51,5.57-2.81,8.6c-0.12,1.16-0.16,2.33-0.2,3.5c-0.05,1.33-0.1,2.67-0.15,4c-0.02,0.71-0.05,1.42,0.07,2.12
			c0.36,2.05,2,3.7,3.88,4.59c1.88,0.89,4,1.13,6.07,1.28c4.42,0.32,8.87,0.28,13.28-0.13c1.7-0.15,3.43-0.37,4.99-1.08
			c1.56-0.7,2.95-1.96,3.43-3.6c0.33-1.14,0.2-2.35,0.05-3.52c-0.55-4.14-1.44-8.24-2.65-12.24c-0.47-1.54-1-3.09-1.87-4.44
			c-1.45-2.24-3.84-3.84-6.47-4.32"/>
		<g>
			<path class="st4" d="M146.37,176.54c-6.02,0.44-9.77,6.88-10.82,12.17c-0.69,3.49-0.88,7.36-0.76,10.91
				c0.09,2.72,1.61,4.95,3.97,6.28c2.93,1.65,6.57,1.72,9.84,1.85c3.99,0.16,8.05,0.09,12.01-0.42c2.79-0.36,5.69-1.29,7.29-3.77
				c1.77-2.74,0.71-6.53,0.17-9.5c-1.29-7.1-2.9-16.14-11.13-17.94c-1.43-0.31-2.05,1.89-0.61,2.2c3.79,0.82,6.03,3.39,7.24,6.97
				c1.19,3.53,2.04,7.22,2.66,10.89c0.31,1.88,0.98,4.27-0.03,6.05c-0.9,1.6-2.72,2.36-4.42,2.74c-3.59,0.82-7.55,0.76-11.22,0.71
				c-3.45-0.04-7.65,0.15-10.74-1.59c-3.7-2.09-2.91-5.91-2.8-9.55c0.21-7.19,2.09-14.09,9.56-16.62
				C147.28,177.69,147.22,176.47,146.37,176.54L146.37,176.54z"/>
		</g>
	</g>
	<g>
		<path class="st2" d="M190.35,177.25c-0.04,0.01-0.09,0.02-0.14,0.03c-2.98,0.62-5.56,2.65-7.23,5.18
			c-1.68,2.54-2.51,5.57-2.81,8.6c-0.12,1.16-0.16,2.33-0.2,3.5c-0.05,1.33-0.1,2.67-0.15,4c-0.02,0.71-0.05,1.42,0.07,2.12
			c0.36,2.05,2,3.7,3.88,4.59c1.88,0.89,4,1.13,6.07,1.28c4.42,0.32,8.87,0.28,13.28-0.13c1.7-0.15,3.43-0.37,4.99-1.08
			c1.56-0.7,2.95-1.96,3.43-3.6c0.33-1.14,0.2-2.35,0.05-3.52c-0.55-4.14-1.44-8.24-2.65-12.24c-0.47-1.54-1-3.09-1.87-4.44
			c-1.45-2.24-3.84-3.84-6.47-4.32"/>
		<g>
			<path class="st4" d="M190.35,176.54c-6.02,0.44-9.77,6.88-10.82,12.17c-0.69,3.49-0.88,7.36-0.76,10.91
				c0.09,2.72,1.61,4.95,3.97,6.28c2.93,1.65,6.57,1.72,9.84,1.85c3.99,0.16,8.05,0.09,12.01-0.42c2.79-0.36,5.69-1.29,7.29-3.77
				c1.77-2.74,0.71-6.53,0.17-9.5c-1.29-7.1-2.9-16.14-11.13-17.94c-1.43-0.31-2.05,1.89-0.61,2.2c3.79,0.82,6.03,3.39,7.24,6.97
				c1.19,3.53,2.04,7.22,2.66,10.89c0.31,1.88,0.98,4.27-0.03,6.05c-0.9,1.6-2.72,2.36-4.42,2.74c-3.59,0.82-7.55,0.76-11.22,0.71
				c-3.45-0.04-7.65,0.15-10.74-1.59c-3.7-2.09-2.91-5.91-2.8-9.55c0.21-7.19,2.09-14.09,9.56-16.62
				C191.25,177.69,191.19,176.47,190.35,176.54L190.35,176.54z"/>
		</g>
	</g>
	<g>
		<path class="st2" d="M234.33,177.25c-0.04,0.01-0.09,0.02-0.14,0.03c-2.98,0.62-5.56,2.65-7.23,5.18
			c-1.68,2.54-2.51,5.57-2.81,8.6c-0.12,1.16-0.16,2.33-0.2,3.5c-0.05,1.33-0.1,2.67-0.15,4c-0.02,0.71-0.05,1.42,0.07,2.12
			c0.36,2.05,2,3.7,3.88,4.59c1.88,0.89,4,1.13,6.07,1.28c4.42,0.32,8.87,0.28,13.28-0.13c1.7-0.15,3.43-0.37,4.99-1.08
			c1.56-0.7,2.95-1.96,3.43-3.6c0.33-1.14,0.2-2.35,0.05-3.52c-0.55-4.14-1.44-8.24-2.65-12.24c-0.47-1.54-1-3.09-1.87-4.44
			c-1.45-2.24-3.84-3.84-6.47-4.32"/>
		<g>
			<path class="st4" d="M234.33,176.54c-6.02,0.44-9.77,6.88-10.82,12.17c-0.69,3.49-0.88,7.36-0.76,10.91
				c0.09,2.72,1.61,4.95,3.97,6.28c2.93,1.65,6.57,1.72,9.84,1.85c3.99,0.16,8.05,0.09,12.01-0.42c2.79-0.36,5.69-1.29,7.29-3.77
				c1.77-2.74,0.71-6.53,0.17-9.5c-1.29-7.1-2.9-16.14-11.13-17.94c-1.43-0.31-2.05,1.89-0.61,2.2c3.79,0.82,6.03,3.39,7.24,6.97
				c1.19,3.53,2.04,7.22,2.66,10.89c0.31,1.88,0.98,4.27-0.03,6.05c-0.9,1.6-2.72,2.36-4.42,2.74c-3.59,0.82-7.55,0.76-11.22,0.71
				c-3.45-0.04-7.65,0.15-10.74-1.59c-3.7-2.09-2.91-5.91-2.8-9.55c0.21-7.19,2.09-14.09,9.56-16.62
				C235.23,177.69,235.17,176.47,234.33,176.54L234.33,176.54z"/>
		</g>
	</g>
	<g>
		<path class="st2" d="M278.3,177.25c-0.04,0.01-0.09,0.02-0.14,0.03c-2.98,0.62-5.56,2.65-7.23,5.18c-1.68,2.54-2.51,5.57-2.81,8.6
			c-0.12,1.16-0.16,2.33-0.2,3.5c-0.05,1.33-0.1,2.67-0.15,4c-0.02,0.71-0.05,1.42,0.07,2.12c0.36,2.05,2,3.7,3.88,4.59
			c1.88,0.89,4,1.13,6.07,1.28c4.42,0.32,8.87,0.28,13.28-0.13c1.7-0.15,3.43-0.37,4.99-1.08c1.56-0.7,2.95-1.96,3.43-3.6
			c0.33-1.14,0.2-2.35,0.05-3.52c-0.55-4.14-1.44-8.24-2.65-12.24c-0.47-1.54-1-3.09-1.87-4.44c-1.45-2.24-3.84-3.84-6.47-4.32"/>
		<g>
			<path class="st4" d="M278.3,176.54c-6.02,0.44-9.77,6.88-10.82,12.17c-0.69,3.49-0.88,7.36-0.76,10.91
				c0.09,2.72,1.61,4.95,3.97,6.28c2.93,1.65,6.57,1.72,9.84,1.85c3.99,0.16,8.05,0.09,12.01-0.42c2.79-0.36,5.69-1.29,7.29-3.77
				c1.77-2.74,0.71-6.53,0.17-9.5c-1.29-7.1-2.9-16.14-11.13-17.94c-1.43-0.31-2.05,1.89-0.61,2.2c3.79,0.82,6.03,3.39,7.24,6.97
				c1.19,3.53,2.04,7.22,2.66,10.89c0.31,1.88,0.98,4.27-0.03,6.05c-0.9,1.6-2.72,2.36-4.42,2.74c-3.59,0.82-7.55,0.76-11.22,0.71
				c-3.45-0.04-7.65,0.15-10.74-1.59c-3.7-2.09-2.91-5.91-2.8-9.55c0.21-7.19,2.09-14.09,9.56-16.62
				C279.21,177.69,279.14,176.47,278.3,176.54L278.3,176.54z"/>
		</g>
	</g>
	<g>
		<path class="st2" d="M322.28,177.25c-0.04,0.01-0.09,0.02-0.14,0.03c-2.98,0.62-5.56,2.65-7.23,5.18
			c-1.68,2.54-2.51,5.57-2.81,8.6c-0.12,1.16-0.16,2.33-0.2,3.5c-0.05,1.33-0.1,2.67-0.15,4c-0.02,0.71-0.05,1.42,0.07,2.12
			c0.36,2.05,2,3.7,3.88,4.59c1.88,0.89,4,1.13,6.07,1.28c4.42,0.32,8.87,0.28,13.28-0.13c1.7-0.15,3.43-0.37,4.99-1.08
			c1.56-0.7,2.95-1.96,3.43-3.6c0.33-1.14,0.2-2.35,0.05-3.52c-0.55-4.14-1.44-8.24-2.65-12.24c-0.47-1.54-1-3.09-1.87-4.44
			c-1.45-2.24-3.84-3.84-6.47-4.32"/>
		<g>
			<path class="st4" d="M322.28,176.54c-6.02,0.44-9.77,6.88-10.82,12.17c-0.69,3.49-0.88,7.36-0.76,10.91
				c0.09,2.72,1.61,4.95,3.97,6.28c2.93,1.65,6.57,1.72,9.84,1.85c3.99,0.16,8.05,0.09,12.01-0.42c2.79-0.36,5.69-1.29,7.29-3.77
				c1.77-2.74,0.71-6.53,0.17-9.5c-1.29-7.1-2.9-16.14-11.13-17.94c-1.43-0.31-2.05,1.89-0.61,2.2c3.79,0.82,6.03,3.39,7.24,6.97
				c1.19,3.53,2.04,7.22,2.66,10.89c0.31,1.88,0.98,4.27-0.03,6.05c-0.9,1.6-2.72,2.36-4.42,2.74c-3.59,0.82-7.55,0.76-11.22,0.71
				c-3.45-0.04-7.65,0.15-10.74-1.59c-3.7-2.09-2.91-5.91-2.8-9.55c0.21-7.19,2.09-14.09,9.56-16.62
				C323.18,177.69,323.12,176.47,322.28,176.54L322.28,176.54z"/>
		</g>
	</g>
	<g>
		<path class="st12" d="M366.25,176.54c-6.02,0.44-9.77,6.88-10.82,12.17c-0.69,3.49-0.88,7.36-0.76,10.91
			c0.09,2.72,1.61,4.95,3.97,6.28c2.93,1.65,6.57,1.72,9.84,1.85c3.99,0.16,8.05,0.09,12.01-0.42c2.79-0.36,5.69-1.29,7.29-3.77
			c1.77-2.74,0.71-6.53,0.17-9.5c-1.29-7.1-2.9-16.14-11.13-17.94c-1.43-0.31-2.05,1.89-0.61,2.2c3.79,0.82,6.03,3.39,7.24,6.97
			c1.19,3.53,2.04,7.22,2.66,10.89c0.31,1.88,0.98,4.27-0.03,6.05c-0.9,1.6-2.72,2.36-4.42,2.74c-3.59,0.82-7.55,0.76-11.22,0.71
			c-3.45-0.04-7.65,0.15-10.74-1.59c-3.7-2.09-2.91-5.91-2.8-9.55c0.21-7.19,2.09-14.09,9.56-16.62
			C367.16,177.69,367.1,176.47,366.25,176.54L366.25,176.54z"/>
	</g>
	<g>
		<path class="st12" d="M410.23,176.54c-6.02,0.44-9.77,6.88-10.82,12.17c-0.69,3.49-0.88,7.36-0.76,10.91
			c0.09,2.72,1.61,4.95,3.97,6.28c2.93,1.65,6.57,1.72,9.84,1.85c3.99,0.16,8.05,0.09,12.01-0.42c2.79-0.36,5.69-1.29,7.29-3.77
			c1.77-2.74,0.71-6.53,0.17-9.5c-1.29-7.1-2.9-16.14-11.13-17.94c-1.43-0.31-2.05,1.89-0.61,2.2c3.79,0.82,6.03,3.39,7.24,6.97
			c1.19,3.53,2.04,7.22,2.66,10.89c0.31,1.88,0.98,4.27-0.03,6.05c-0.9,1.6-2.72,2.36-4.42,2.74c-3.59,0.82-7.55,0.76-11.22,0.71
			c-3.45-0.04-7.65,0.15-10.74-1.59c-3.7-2.09-2.91-5.91-2.8-9.55c0.21-7.19,2.09-14.09,9.56-16.62
			C411.13,177.69,411.07,176.47,410.23,176.54L410.23,176.54z"/>
	</g>
	<g>
		<path class="st2" d="M22.73,158.27c-4.76-1.32-10.17,1.07-12.77,5.27c-0.51,0.82-0.93,1.72-1.11,2.67
			c-0.22,1.1-0.13,2.24,0.09,3.33c0.67,3.29,2.74,6.41,5.83,7.74c2.23,0.95,4.77,0.9,7.15,0.46c1.68-0.31,3.37-0.84,4.7-1.9
			c2.16-1.74,3.05-4.73,2.8-7.5c-0.25-2.77-1.49-5.35-2.95-7.72c-0.32-0.52-0.66-1.04-1.11-1.45c-1.34-1.22-3.37-1.23-5.18-1.18"/>
		<g>
			<path class="st4" d="M22.97,157.86c-3.67-2.18-9.07,0.22-11.82,2.87c-3.77,3.62-4.15,8.72-1.47,13.14
				c2.84,4.68,8.05,5.87,13.16,4.77c5.15-1.11,8.23-5.39,7.65-10.65c-0.33-3.01-1.68-5.97-3.4-8.44c-1.59-2.29-4.24-2.89-6.91-2.57
				c-1.27,0.15-1.32,1.92,0,2.01c1.32,0.09,2.71-0.05,3.88,0.65c1.13,0.67,1.72,1.91,2.33,3.04c1.21,2.26,2.17,4.84,1.93,7.45
				c-0.55,5.89-7.57,8.07-12.61,6.48c-4.99-1.58-7.71-8.46-4.84-12.85c1.28-1.96,3.23-3.49,5.42-4.31c2.17-0.82,4.2-0.57,6.44-0.69
				C23.18,158.71,23.38,158.11,22.97,157.86L22.97,157.86z"/>
		</g>
	</g>
	<g>
		<path class="st2" d="M66.7,158.27c-4.76-1.32-10.17,1.07-12.77,5.27c-0.51,0.82-0.93,1.72-1.11,2.67
			c-0.22,1.1-0.13,2.24,0.09,3.33c0.67,3.29,2.74,6.41,5.83,7.74c2.23,0.95,4.77,0.9,7.15,0.46c1.68-0.31,3.37-0.84,4.7-1.9
			c2.16-1.74,3.05-4.73,2.8-7.5c-0.25-2.77-1.49-5.35-2.95-7.72c-0.32-0.52-0.66-1.04-1.11-1.45c-1.34-1.22-3.37-1.23-5.18-1.18"/>
		<g>
			<path class="st4" d="M66.94,157.86c-3.67-2.18-9.07,0.22-11.82,2.87c-3.77,3.62-4.15,8.72-1.47,13.14
				c2.84,4.68,8.05,5.87,13.16,4.77c5.15-1.11,8.23-5.39,7.65-10.65c-0.33-3.01-1.68-5.97-3.4-8.44c-1.59-2.29-4.24-2.89-6.91-2.57
				c-1.27,0.15-1.32,1.92,0,2.01c1.32,0.09,2.71-0.05,3.88,0.65c1.13,0.67,1.72,1.91,2.33,3.04c1.21,2.26,2.17,4.84,1.93,7.45
				c-0.55,5.89-7.57,8.07-12.61,6.48c-4.99-1.58-7.71-8.46-4.84-12.85c1.28-1.96,3.23-3.49,5.42-4.31c2.17-0.82,4.2-0.57,6.44-0.69
				C67.16,158.71,67.36,158.11,66.94,157.86L66.94,157.86z"/>
		</g>
	</g>
	<g>
		<path class="st2" d="M110.68,158.27c-4.76-1.32-10.17,1.07-12.77,5.27c-0.51,0.82-0.93,1.72-1.11,2.67
			c-0.22,1.1-0.13,2.24,0.09,3.33c0.67,3.29,2.74,6.41,5.83,7.74c2.23,0.95,4.77,0.9,7.15,0.46c1.68-0.31,3.37-0.84,4.7-1.9
			c2.16-1.74,3.05-4.73,2.8-7.5c-0.25-2.77-1.49-5.35-2.95-7.72c-0.32-0.52-0.66-1.04-1.11-1.45c-1.34-1.22-3.37-1.23-5.18-1.18"/>
		<g>
			<path class="st4" d="M110.92,157.86c-3.67-2.18-9.07,0.22-11.82,2.87c-3.77,3.62-4.15,8.72-1.47,13.14
				c2.84,4.68,8.05,5.87,13.16,4.77c5.15-1.11,8.23-5.39,7.65-10.65c-0.33-3.01-1.68-5.97-3.4-8.44c-1.59-2.29-4.24-2.89-6.91-2.57
				c-1.27,0.15-1.32,1.92,0,2.01c1.32,0.09,2.71-0.05,3.88,0.65c1.13,0.67,1.72,1.91,2.33,3.04c1.21,2.26,2.17,4.84,1.93,7.45
				c-0.55,5.89-7.57,8.07-12.61,6.48c-4.99-1.58-7.71-8.46-4.84-12.85c1.28-1.96,3.23-3.49,5.42-4.31c2.17-0.82,4.2-0.57,6.44-0.69
				C111.13,158.71,111.33,158.11,110.92,157.86L110.92,157.86z"/>
		</g>
	</g>
	<g>
		<path class="st2" d="M154.66,158.27c-4.76-1.32-10.17,1.07-12.77,5.27c-0.51,0.82-0.93,1.72-1.11,2.67
			c-0.22,1.1-0.13,2.24,0.09,3.33c0.67,3.29,2.74,6.41,5.83,7.74c2.23,0.95,4.77,0.9,7.15,0.46c1.68-0.31,3.37-0.84,4.7-1.9
			c2.16-1.74,3.05-4.73,2.8-7.5s-1.49-5.35-2.95-7.72c-0.32-0.52-0.66-1.04-1.11-1.45c-1.34-1.22-3.37-1.23-5.18-1.18"/>
		<g>
			<path class="st4" d="M154.89,157.86c-3.67-2.18-9.07,0.22-11.82,2.87c-3.77,3.62-4.15,8.72-1.47,13.14
				c2.84,4.68,8.05,5.87,13.16,4.77c5.15-1.11,8.23-5.39,7.65-10.65c-0.33-3.01-1.68-5.97-3.4-8.44c-1.59-2.29-4.24-2.89-6.91-2.57
				c-1.27,0.15-1.32,1.92,0,2.01c1.32,0.09,2.71-0.05,3.88,0.65c1.13,0.67,1.72,1.91,2.33,3.04c1.21,2.26,2.17,4.84,1.93,7.45
				c-0.55,5.89-7.57,8.07-12.61,6.48c-4.99-1.58-7.71-8.46-4.84-12.85c1.28-1.96,3.23-3.49,5.42-4.31c2.17-0.82,4.2-0.57,6.44-0.69
				C155.11,158.71,155.31,158.11,154.89,157.86L154.89,157.86z"/>
		</g>
	</g>
	<g>
		<path class="st2" d="M198.63,158.27c-4.76-1.32-10.17,1.07-12.77,5.27c-0.51,0.82-0.93,1.72-1.11,2.67
			c-0.22,1.1-0.13,2.24,0.09,3.33c0.67,3.29,2.74,6.41,5.83,7.74c2.23,0.95,4.77,0.9,7.15,0.46c1.68-0.31,3.37-0.84,4.7-1.9
			c2.16-1.74,3.05-4.73,2.8-7.5s-1.49-5.35-2.95-7.72c-0.32-0.52-0.66-1.04-1.11-1.45c-1.34-1.22-3.37-1.23-5.18-1.18"/>
		<g>
			<path class="st4" d="M198.87,157.86c-3.67-2.18-9.07,0.22-11.82,2.87c-3.77,3.62-4.15,8.72-1.47,13.14
				c2.84,4.68,8.05,5.87,13.16,4.77c5.15-1.11,8.23-5.39,7.65-10.65c-0.33-3.01-1.68-5.97-3.4-8.44c-1.59-2.29-4.24-2.89-6.91-2.57
				c-1.27,0.15-1.32,1.92,0,2.01c1.32,0.09,2.71-0.05,3.88,0.65c1.13,0.67,1.72,1.91,2.33,3.04c1.21,2.26,2.17,4.84,1.93,7.45
				c-0.55,5.89-7.57,8.07-12.61,6.48c-4.99-1.58-7.71-8.46-4.84-12.85c1.28-1.96,3.23-3.49,5.42-4.31c2.17-0.82,4.2-0.57,6.44-0.69
				C199.08,158.71,199.28,158.11,198.87,157.86L198.87,157.86z"/>
		</g>
	</g>
	<g>
		<path class="st2" d="M242.6,158.27c-4.76-1.32-10.17,1.07-12.77,5.27c-0.51,0.82-0.93,1.72-1.11,2.67
			c-0.22,1.1-0.13,2.24,0.09,3.33c0.67,3.29,2.74,6.41,5.83,7.74c2.23,0.95,4.77,0.9,7.15,0.46c1.68-0.31,3.37-0.84,4.7-1.9
			c2.16-1.74,3.05-4.73,2.8-7.5c-0.25-2.77-1.49-5.35-2.95-7.72c-0.32-0.52-0.66-1.04-1.11-1.45c-1.34-1.22-3.37-1.23-5.18-1.18"/>
		<g>
			<path class="st4" d="M242.84,157.86c-3.67-2.18-9.07,0.22-11.82,2.87c-3.77,3.62-4.15,8.72-1.47,13.14
				c2.84,4.68,8.05,5.87,13.16,4.77c5.15-1.11,8.23-5.39,7.65-10.65c-0.33-3.01-1.68-5.97-3.4-8.44c-1.59-2.29-4.24-2.89-6.91-2.57
				c-1.27,0.15-1.32,1.92,0,2.01c1.32,0.09,2.71-0.05,3.88,0.65c1.13,0.67,1.72,1.91,2.33,3.04c1.21,2.26,2.17,4.84,1.93,7.45
				c-0.55,5.89-7.57,8.07-12.61,6.48c-4.99-1.58-7.71-8.46-4.84-12.85c1.28-1.96,3.23-3.49,5.42-4.31c2.17-0.82,4.2-0.57,6.44-0.69
				C243.06,158.71,243.26,158.11,242.84,157.86L242.84,157.86z"/>
		</g>
	</g>
	<g>
		<path class="st2" d="M286.58,158.27c-4.76-1.32-10.17,1.07-12.77,5.27c-0.51,0.82-0.93,1.72-1.11,2.67
			c-0.22,1.1-0.13,2.24,0.09,3.33c0.67,3.29,2.74,6.41,5.83,7.74c2.23,0.95,4.77,0.9,7.15,0.46c1.68-0.31,3.37-0.84,4.7-1.9
			c2.16-1.74,3.05-4.73,2.8-7.5c-0.25-2.77-1.49-5.35-2.95-7.72c-0.32-0.52-0.66-1.04-1.11-1.45c-1.34-1.22-3.37-1.23-5.18-1.18"/>
		<g>
			<path class="st4" d="M286.82,157.86c-3.67-2.18-9.07,0.22-11.82,2.87c-3.77,3.62-4.15,8.72-1.47,13.14
				c2.84,4.68,8.05,5.87,13.16,4.77c5.15-1.11,8.23-5.39,7.65-10.65c-0.33-3.01-1.68-5.97-3.4-8.44c-1.59-2.29-4.24-2.89-6.91-2.57
				c-1.27,0.15-1.32,1.92,0,2.01c1.32,0.09,2.71-0.05,3.88,0.65c1.13,0.67,1.72,1.91,2.33,3.04c1.21,2.26,2.17,4.84,1.93,7.45
				c-0.55,5.89-7.57,8.07-12.61,6.48c-4.99-1.58-7.71-8.46-4.84-12.85c1.28-1.96,3.23-3.49,5.42-4.31c2.17-0.82,4.2-0.57,6.44-0.69
				C287.03,158.71,287.23,158.11,286.82,157.86L286.82,157.86z"/>
		</g>
	</g>
	<g>
		<path class="st2" d="M330.55,158.27c-4.76-1.32-10.17,1.07-12.77,5.27c-0.51,0.82-0.93,1.72-1.11,2.67
			c-0.22,1.1-0.13,2.24,0.09,3.33c0.67,3.29,2.74,6.41,5.83,7.74c2.23,0.95,4.77,0.9,7.15,0.46c1.68-0.31,3.37-0.84,4.7-1.9
			c2.16-1.74,3.05-4.73,2.8-7.5c-0.25-2.77-1.49-5.35-2.95-7.72c-0.32-0.52-0.66-1.04-1.11-1.45c-1.34-1.22-3.37-1.23-5.18-1.18"/>
		<g>
			<path class="st4" d="M330.79,157.86c-3.67-2.18-9.07,0.22-11.82,2.87c-3.77,3.62-4.15,8.72-1.47,13.14
				c2.84,4.68,8.05,5.87,13.16,4.77c5.15-1.11,8.23-5.39,7.65-10.65c-0.33-3.01-1.68-5.97-3.4-8.44c-1.59-2.29-4.24-2.89-6.91-2.57
				c-1.27,0.15-1.32,1.92,0,2.01c1.32,0.09,2.71-0.05,3.88,0.65c1.13,0.67,1.72,1.91,2.33,3.04c1.21,2.26,2.17,4.84,1.93,7.45
				c-0.55,5.89-7.57,8.07-12.61,6.48c-4.99-1.58-7.71-8.46-4.84-12.85c1.28-1.96,3.23-3.49,5.42-4.31c2.17-0.82,4.2-0.57,6.44-0.69
				C331.01,158.71,331.21,158.11,330.79,157.86L330.79,157.86z"/>
		</g>
	</g>
	<g>
		<path class="st12" d="M374.77,157.86c-3.67-2.18-9.07,0.22-11.82,2.87c-3.77,3.62-4.15,8.72-1.47,13.14
			c2.84,4.68,8.05,5.87,13.16,4.77c5.15-1.11,8.23-5.39,7.65-10.65c-0.33-3.01-1.68-5.97-3.4-8.44c-1.59-2.29-4.24-2.89-6.91-2.57
			c-1.27,0.15-1.32,1.92,0,2.01c1.32,0.09,2.71-0.05,3.88,0.65c1.13,0.67,1.72,1.91,2.33,3.04c1.21,2.26,2.17,4.84,1.93,7.45
			c-0.55,5.89-7.57,8.07-12.61,6.48c-4.99-1.58-7.71-8.46-4.84-12.85c1.28-1.96,3.23-3.49,5.42-4.31c2.17-0.82,4.2-0.57,6.44-0.69
			C374.99,158.71,375.18,158.11,374.77,157.86L374.77,157.86z"/>
	</g>
	<g>
		<path class="st12" d="M418.75,157.86c-3.67-2.18-9.07,0.22-11.82,2.87c-3.77,3.62-4.15,8.72-1.47,13.14
			c2.84,4.68,8.05,5.87,13.16,4.77c5.15-1.11,8.23-5.39,7.65-10.65c-0.33-3.01-1.68-5.97-3.4-8.44c-1.59-2.29-4.24-2.89-6.91-2.57
			c-1.27,0.15-1.32,1.92,0,2.01c1.32,0.09,2.71-0.05,3.88,0.65c1.13,0.67,1.72,1.91,2.33,3.04c1.21,2.26,2.17,4.84,1.93,7.45
			c-0.55,5.89-7.57,8.07-12.61,6.48c-4.99-1.58-7.71-8.46-4.84-12.85c1.28-1.96,3.23-3.49,5.42-4.31c2.17-0.82,4.2-0.57,6.44-0.69
			C418.96,158.71,419.16,158.11,418.75,157.86L418.75,157.86z"/>
	</g>
</g>
<g>
	<path class="st2" d="M207.4,257.07c0,0.73-0.19,1.38-0.56,1.95c-0.38,0.57-0.89,1.02-1.54,1.35c0.78,0.36,1.38,0.86,1.8,1.49
		c0.42,0.63,0.63,1.34,0.63,2.13c0,1.31-0.44,2.35-1.33,3.12c-0.89,0.77-2.07,1.15-3.55,1.15c-1.48,0-2.67-0.39-3.56-1.16
		c-0.89-0.77-1.34-1.81-1.34-3.12c0-0.8,0.21-1.52,0.64-2.15s1.02-1.12,1.78-1.47c-0.64-0.33-1.15-0.78-1.52-1.35
		c-0.37-0.57-0.56-1.22-0.56-1.95c0-1.27,0.41-2.28,1.23-3.02s1.93-1.12,3.32-1.12c1.4,0,2.51,0.37,3.33,1.12
		S207.4,255.8,207.4,257.07z M205.24,263.87c0-0.74-0.22-1.33-0.66-1.79c-0.44-0.45-1.02-0.68-1.75-0.68s-1.3,0.23-1.74,0.68
		c-0.43,0.45-0.65,1.05-0.65,1.79c0,0.73,0.21,1.32,0.64,1.75c0.43,0.44,1.02,0.66,1.77,0.66s1.34-0.21,1.76-0.64
		C205.03,265.22,205.24,264.62,205.24,263.87z M204.92,257.16c0-0.65-0.19-1.18-0.56-1.6c-0.38-0.42-0.88-0.63-1.52-0.63
		c-0.63,0-1.14,0.2-1.51,0.6c-0.37,0.4-0.55,0.94-0.55,1.64c0,0.68,0.19,1.23,0.56,1.63c0.37,0.4,0.88,0.6,1.51,0.6
		s1.14-0.2,1.51-0.6C204.74,258.39,204.92,257.84,204.92,257.16z"/>
	<path class="st2" d="M219.79,268.26c-1.58,0-2.86-0.5-3.84-1.49c-0.98-0.99-1.47-2.32-1.47-3.97v-0.31c0-1.11,0.21-2.1,0.64-2.97
		c0.43-0.87,1.03-1.55,1.8-2.04s1.63-0.73,2.58-0.73c1.51,0,2.68,0.48,3.5,1.45c0.82,0.96,1.24,2.33,1.24,4.09v1h-7.25
		c0.08,0.92,0.38,1.64,0.92,2.17c0.54,0.53,1.21,0.8,2.03,0.8c1.14,0,2.07-0.46,2.79-1.38l1.34,1.28c-0.44,0.66-1.04,1.18-1.78,1.54
		C221.55,268.08,220.71,268.26,219.79,268.26z M219.49,258.76c-0.68,0-1.24,0.24-1.66,0.72c-0.42,0.48-0.69,1.15-0.8,2h4.75v-0.18
		c-0.06-0.83-0.28-1.46-0.67-1.89S220.18,258.76,219.49,258.76z"/>
	<path class="st2" d="M228.31,256.96l0.07,1.16c0.78-0.91,1.85-1.36,3.2-1.36c1.48,0,2.5,0.57,3.04,1.7c0.81-1.13,1.94-1.7,3.4-1.7
		c1.22,0,2.13,0.34,2.73,1.02c0.6,0.68,0.9,1.67,0.92,2.99v7.29h-2.49v-7.22c0-0.7-0.15-1.22-0.46-1.55
		c-0.31-0.33-0.82-0.49-1.53-0.49c-0.57,0-1.03,0.15-1.39,0.46c-0.36,0.3-0.61,0.7-0.75,1.19l0.01,7.61h-2.49v-7.3
		c-0.03-1.31-0.7-1.96-2-1.96c-1,0-1.71,0.41-2.12,1.22v8.04h-2.49v-11.09H228.31z"/>
	<path class="st2" d="M253.6,266.27c0.62,0,1.14-0.18,1.55-0.54s0.63-0.81,0.66-1.34h2.35c-0.03,0.69-0.24,1.33-0.65,1.93
		c-0.4,0.6-0.95,1.07-1.64,1.42c-0.69,0.35-1.44,0.52-2.24,0.52c-1.55,0-2.78-0.5-3.69-1.51s-1.36-2.39-1.36-4.16v-0.26
		c0-1.69,0.45-3.04,1.35-4.06c0.9-1.01,2.13-1.52,3.69-1.52c1.32,0,2.39,0.38,3.22,1.15c0.83,0.77,1.27,1.78,1.31,3.03h-2.35
		c-0.03-0.64-0.24-1.16-0.65-1.57c-0.41-0.41-0.92-0.62-1.55-0.62c-0.81,0-1.43,0.29-1.87,0.88c-0.44,0.58-0.66,1.47-0.67,2.66v0.4
		c0,1.2,0.22,2.1,0.65,2.69C252.16,265.98,252.78,266.27,253.6,266.27z"/>
	<path class="st2" d="M266.46,268.06c-0.11-0.21-0.21-0.56-0.29-1.04c-0.79,0.83-1.76,1.24-2.91,1.24c-1.12,0-2.02-0.32-2.73-0.95
		s-1.06-1.42-1.06-2.36c0-1.18,0.44-2.09,1.32-2.72c0.88-0.63,2.13-0.95,3.77-0.95h1.53v-0.73c0-0.57-0.16-1.03-0.48-1.38
		s-0.81-0.52-1.47-0.52c-0.57,0-1.03,0.14-1.39,0.43c-0.36,0.28-0.54,0.64-0.54,1.08h-2.49c0-0.61,0.2-1.18,0.61-1.71
		s0.95-0.95,1.65-1.25c0.69-0.3,1.47-0.45,2.32-0.45c1.3,0,2.33,0.33,3.11,0.98s1.17,1.57,1.19,2.75v5c0,1,0.14,1.79,0.42,2.39v0.17
		H266.46z M263.72,266.26c0.49,0,0.96-0.12,1.39-0.36c0.43-0.24,0.76-0.56,0.98-0.96v-2.09h-1.34c-0.92,0-1.62,0.16-2.08,0.48
		s-0.7,0.78-0.7,1.36c0,0.48,0.16,0.86,0.48,1.14C262.76,266.12,263.19,266.26,263.72,266.26z"/>
	<path class="st2" d="M270.51,262.43c0-1.71,0.4-3.08,1.19-4.12c0.79-1.04,1.86-1.55,3.19-1.55c1.18,0,2.13,0.41,2.85,1.23v-5.68
		h2.49v15.75h-2.26l-0.12-1.15c-0.75,0.9-1.74,1.35-2.98,1.35c-1.3,0-2.35-0.52-3.15-1.57
		C270.91,265.65,270.51,264.23,270.51,262.43z M273,262.64c0,1.13,0.22,2.01,0.65,2.64c0.43,0.63,1.05,0.95,1.85,0.95
		c1.02,0,1.76-0.45,2.24-1.36v-4.74c-0.46-0.89-1.2-1.33-2.21-1.33c-0.81,0-1.43,0.32-1.87,0.96C273.22,260.4,273,261.36,273,262.64
		z"/>
	<path class="st2" d="M289.25,268.06c-0.11-0.21-0.21-0.56-0.29-1.04c-0.79,0.83-1.76,1.24-2.91,1.24c-1.12,0-2.02-0.32-2.73-0.95
		s-1.06-1.42-1.06-2.36c0-1.18,0.44-2.09,1.32-2.72c0.88-0.63,2.13-0.95,3.77-0.95h1.53v-0.73c0-0.57-0.16-1.03-0.48-1.38
		s-0.81-0.52-1.47-0.52c-0.57,0-1.03,0.14-1.39,0.43c-0.36,0.28-0.54,0.64-0.54,1.08h-2.49c0-0.61,0.2-1.18,0.61-1.71
		s0.95-0.95,1.65-1.25c0.69-0.3,1.47-0.45,2.32-0.45c1.3,0,2.33,0.33,3.11,0.98s1.17,1.57,1.19,2.75v5c0,1,0.14,1.79,0.42,2.39v0.17
		H289.25z M286.51,266.26c0.49,0,0.96-0.12,1.39-0.36c0.43-0.24,0.76-0.56,0.98-0.96v-2.09h-1.34c-0.92,0-1.62,0.16-2.08,0.48
		s-0.7,0.78-0.7,1.36c0,0.48,0.16,0.86,0.48,1.14C285.56,266.12,285.98,266.26,286.51,266.26z"/>
	<path class="st2" d="M305.38,268.06h-2.48v-11.99l-3.66,1.25v-2.09l5.82-2.14h0.32V268.06z"/>
	<path class="st2" d="M320.09,261.77c0,2.15-0.4,3.77-1.21,4.85c-0.8,1.09-2.02,1.64-3.67,1.64c-1.61,0-2.83-0.53-3.65-1.59
		c-0.82-1.06-1.24-2.64-1.26-4.72v-2.58c0-2.15,0.4-3.76,1.21-4.83c0.8-1.07,2.03-1.61,3.68-1.61c1.63,0,2.85,0.52,3.66,1.57
		c0.8,1.05,1.21,2.61,1.24,4.7V261.77z M317.6,258.98c0-1.4-0.19-2.43-0.57-3.08c-0.38-0.65-0.99-0.98-1.83-0.98
		c-0.81,0-1.41,0.31-1.79,0.93c-0.38,0.62-0.58,1.58-0.6,2.9v3.38c0,1.39,0.19,2.43,0.58,3.12s1,1.03,1.84,1.03
		c0.8,0,1.39-0.32,1.77-0.95s0.58-1.62,0.61-2.97V258.98z"/>
	<path class="st22" d="M326.82,268.06v-6.73h-1.22v-0.67h1.22v-0.9c0-0.76,0.19-1.34,0.58-1.74c0.38-0.41,0.92-0.61,1.61-0.61
		c0.31,0,0.6,0.04,0.87,0.12l-0.06,0.68c-0.23-0.05-0.48-0.08-0.75-0.08c-0.45,0-0.8,0.14-1.05,0.42c-0.25,0.28-0.38,0.68-0.38,1.2
		v0.92h1.76v0.67h-1.76v6.73H326.82z"/>
	<path class="st22" d="M335.4,268.06c-0.08-0.23-0.13-0.58-0.16-1.03c-0.29,0.37-0.65,0.66-1.1,0.86c-0.44,0.2-0.91,0.3-1.41,0.3
		c-0.71,0-1.29-0.2-1.73-0.59c-0.44-0.4-0.66-0.9-0.66-1.5c0-0.72,0.3-1.29,0.9-1.71c0.6-0.42,1.43-0.63,2.51-0.63h1.48v-0.84
		c0-0.53-0.16-0.94-0.49-1.25c-0.33-0.3-0.8-0.45-1.42-0.45c-0.57,0-1.04,0.15-1.42,0.44s-0.56,0.64-0.56,1.05l-0.82-0.01
		c0-0.59,0.27-1.1,0.82-1.53s1.22-0.65,2.02-0.65c0.83,0,1.48,0.21,1.95,0.62c0.48,0.41,0.72,0.99,0.73,1.73v3.5
		c0,0.72,0.08,1.25,0.23,1.61v0.08H335.4z M332.83,267.47c0.55,0,1.04-0.13,1.47-0.4c0.43-0.26,0.74-0.62,0.94-1.06v-1.63h-1.46
		c-0.82,0.01-1.45,0.16-1.91,0.45s-0.69,0.69-0.69,1.19c0,0.41,0.15,0.76,0.46,1.03C331.93,267.33,332.33,267.47,332.83,267.47z"/>
	<path class="st22" d="M338.63,267.37h4.81v0.69h-5.82v-0.6l4.48-6.08h-4.35v-0.71h5.38v0.61L338.63,267.37z"/>
	<path class="st22" d="M347.62,268.2c-0.63,0-1.2-0.15-1.71-0.46c-0.51-0.31-0.9-0.74-1.19-1.3s-0.42-1.17-0.42-1.86v-0.29
		c0-0.71,0.14-1.35,0.41-1.92c0.28-0.57,0.66-1.02,1.15-1.34s1.03-0.49,1.6-0.49c0.9,0,1.61,0.31,2.14,0.92
		c0.53,0.61,0.79,1.45,0.79,2.51v0.46h-5.28v0.16c0,0.84,0.24,1.54,0.72,2.1c0.48,0.56,1.08,0.84,1.81,0.84
		c0.44,0,0.82-0.08,1.16-0.24c0.34-0.16,0.64-0.41,0.91-0.77l0.51,0.39C349.64,267.76,348.76,268.2,347.62,268.2z M347.47,261.22
		c-0.62,0-1.13,0.23-1.56,0.68c-0.42,0.45-0.68,1.06-0.77,1.82h4.44v-0.09c-0.02-0.71-0.23-1.29-0.61-1.74
		S348.09,261.22,347.47,261.22z"/>
	<path class="st22" d="M352.59,260.66l0.03,1.2c0.27-0.45,0.62-0.78,1.03-1s0.87-0.33,1.37-0.33c1.17,0,1.91,0.48,2.22,1.44
		c0.26-0.46,0.62-0.81,1.06-1.06s0.93-0.37,1.46-0.37c1.59,0,2.39,0.87,2.43,2.6v4.94h-0.82v-4.87c0-0.66-0.15-1.15-0.43-1.47
		c-0.28-0.32-0.74-0.48-1.37-0.48c-0.59,0.01-1.08,0.2-1.49,0.57s-0.63,0.82-0.68,1.36v4.89h-0.82v-4.94c0-0.63-0.15-1.11-0.45-1.42
		c-0.29-0.31-0.75-0.47-1.36-0.47c-0.51,0-0.96,0.15-1.33,0.44s-0.64,0.73-0.82,1.31v5.07h-0.82v-7.4H352.59z"/>
	<path class="st22" d="M370.8,261.36c-0.17-0.03-0.36-0.05-0.55-0.05c-0.51,0-0.94,0.14-1.3,0.43c-0.35,0.28-0.6,0.7-0.75,1.24v5.08
		h-0.81v-7.4h0.8l0.01,1.18c0.43-0.88,1.13-1.31,2.08-1.31c0.23,0,0.41,0.03,0.54,0.09L370.8,261.36z"/>
	<path class="st22" d="M374.81,268.2c-0.63,0-1.2-0.15-1.71-0.46c-0.51-0.31-0.9-0.74-1.19-1.3s-0.42-1.17-0.42-1.86v-0.29
		c0-0.71,0.14-1.35,0.41-1.92c0.28-0.57,0.66-1.02,1.15-1.34s1.03-0.49,1.6-0.49c0.9,0,1.61,0.31,2.14,0.92
		c0.53,0.61,0.79,1.45,0.79,2.51v0.46h-5.28v0.16c0,0.84,0.24,1.54,0.72,2.1c0.48,0.56,1.08,0.84,1.81,0.84
		c0.44,0,0.82-0.08,1.16-0.24c0.34-0.16,0.64-0.41,0.91-0.77l0.51,0.39C376.83,267.76,375.96,268.2,374.81,268.2z M374.66,261.22
		c-0.62,0-1.13,0.23-1.56,0.68c-0.42,0.45-0.68,1.06-0.77,1.82h4.44v-0.09c-0.02-0.71-0.23-1.29-0.61-1.74
		S375.28,261.22,374.66,261.22z"/>
	<path class="st22" d="M383.8,267.12c-0.49,0.72-1.28,1.07-2.36,1.07c-0.79,0-1.39-0.23-1.8-0.69s-0.62-1.14-0.63-2.03v-4.81h0.81
		v4.71c0,1.41,0.57,2.11,1.71,2.11c1.18,0,1.93-0.49,2.25-1.47v-5.35h0.82v7.4h-0.79L383.8,267.12z"/>
	<path class="st22" d="M387.37,260.66l0.03,1.26c0.28-0.46,0.62-0.8,1.04-1.04s0.87-0.36,1.37-0.36c0.79,0,1.38,0.22,1.77,0.67
		s0.58,1.12,0.59,2.01v4.85h-0.81v-4.86c0-0.66-0.14-1.15-0.42-1.48c-0.28-0.32-0.72-0.49-1.32-0.49c-0.51,0-0.95,0.16-1.34,0.48
		c-0.39,0.32-0.68,0.74-0.86,1.28v5.07h-0.81v-7.4H387.37z"/>
	<path class="st22" d="M394.09,258.53c0-0.15,0.05-0.28,0.15-0.39s0.24-0.16,0.41-0.16s0.31,0.05,0.41,0.16
		c0.1,0.11,0.15,0.24,0.15,0.39s-0.05,0.28-0.15,0.39c-0.1,0.1-0.24,0.16-0.41,0.16s-0.31-0.05-0.41-0.16
		S394.09,258.68,394.09,258.53z M395.06,268.06h-0.82v-7.4h0.82V268.06z"/>
	<path class="st22" d="M396.69,264.25c0-0.71,0.14-1.35,0.41-1.92c0.28-0.57,0.67-1.01,1.17-1.33c0.5-0.32,1.08-0.48,1.71-0.48
		c0.98,0,1.78,0.35,2.39,1.04s0.92,1.61,0.92,2.74v0.17c0,0.72-0.14,1.36-0.41,1.93c-0.28,0.57-0.66,1.01-1.17,1.32
		s-1.07,0.46-1.72,0.46c-0.98,0-1.78-0.35-2.39-1.04c-0.61-0.69-0.92-1.61-0.92-2.74V264.25z M397.51,264.48
		c0,0.88,0.23,1.61,0.69,2.18c0.46,0.57,1.06,0.85,1.8,0.85c0.74,0,1.34-0.28,1.79-0.85c0.46-0.57,0.69-1.32,0.69-2.25v-0.16
		c0-0.56-0.1-1.08-0.31-1.55s-0.5-0.83-0.88-1.09s-0.81-0.39-1.3-0.39c-0.73,0-1.32,0.29-1.78,0.86s-0.69,1.32-0.69,2.25V264.48z
		 M402.31,257.86c0,0.44-0.13,0.79-0.39,1.05c-0.26,0.27-0.57,0.4-0.95,0.4c-0.35,0-0.68-0.13-1.01-0.38
		c-0.33-0.25-0.63-0.38-0.89-0.38c-0.21,0-0.39,0.07-0.54,0.21c-0.14,0.14-0.22,0.34-0.22,0.59l-0.62-0.02
		c0-0.42,0.12-0.76,0.37-1.03c0.25-0.27,0.57-0.41,0.96-0.41c0.22,0,0.41,0.04,0.56,0.12s0.3,0.16,0.44,0.26s0.27,0.18,0.41,0.26
		c0.14,0.08,0.3,0.12,0.49,0.12c0.21,0,0.39-0.08,0.54-0.23c0.15-0.15,0.22-0.35,0.22-0.61L402.31,257.86z"/>
	<path class="st22" d="M407.7,268.2c-0.63,0-1.2-0.15-1.71-0.46c-0.51-0.31-0.9-0.74-1.19-1.3s-0.42-1.17-0.42-1.86v-0.29
		c0-0.71,0.14-1.35,0.41-1.92c0.28-0.57,0.66-1.02,1.15-1.34s1.03-0.49,1.6-0.49c0.9,0,1.61,0.31,2.14,0.92
		c0.53,0.61,0.79,1.45,0.79,2.51v0.46h-5.28v0.16c0,0.84,0.24,1.54,0.72,2.1c0.48,0.56,1.08,0.84,1.81,0.84
		c0.44,0,0.82-0.08,1.16-0.24c0.34-0.16,0.64-0.41,0.91-0.77l0.51,0.39C409.72,267.76,408.85,268.2,407.7,268.2z M407.55,261.22
		c-0.62,0-1.13,0.23-1.56,0.68c-0.42,0.45-0.68,1.06-0.77,1.82h4.44v-0.09c-0.02-0.71-0.23-1.29-0.61-1.74
		S408.17,261.22,407.55,261.22z"/>
	<path class="st22" d="M416.36,266.18c0-0.41-0.16-0.73-0.49-0.98c-0.33-0.25-0.82-0.44-1.47-0.58s-1.17-0.3-1.53-0.48
		c-0.36-0.18-0.63-0.4-0.81-0.66c-0.17-0.26-0.26-0.57-0.26-0.94c0-0.58,0.24-1.07,0.73-1.45s1.11-0.57,1.87-0.57
		c0.83,0,1.49,0.2,1.99,0.61c0.5,0.41,0.75,0.94,0.75,1.6h-0.82c0-0.43-0.18-0.79-0.54-1.08c-0.36-0.29-0.82-0.43-1.37-0.43
		c-0.54,0-0.97,0.12-1.29,0.36c-0.33,0.24-0.49,0.55-0.49,0.93c0,0.37,0.14,0.66,0.41,0.86c0.27,0.2,0.77,0.39,1.48,0.56
		c0.72,0.17,1.26,0.35,1.61,0.54c0.36,0.19,0.62,0.42,0.8,0.69s0.26,0.59,0.26,0.98c0,0.62-0.25,1.12-0.76,1.5
		c-0.5,0.37-1.16,0.56-1.97,0.56c-0.86,0-1.56-0.21-2.09-0.63c-0.54-0.42-0.8-0.94-0.8-1.58h0.82c0.03,0.48,0.23,0.85,0.6,1.12
		c0.37,0.27,0.86,0.4,1.47,0.4c0.57,0,1.03-0.13,1.38-0.38S416.36,266.56,416.36,266.18z"/>
	<path class="st22" d="M203.9,288.44c0,1.15-0.25,2.07-0.77,2.74s-1.19,1.02-2.05,1.02c-1.01,0-1.79-0.36-2.32-1.07v3.77h-0.81
		v-10.24h0.76l0.04,1.05c0.53-0.79,1.31-1.18,2.32-1.18c0.88,0,1.58,0.33,2.08,1c0.5,0.67,0.76,1.6,0.76,2.79V288.44z
		 M203.08,288.29c0-0.94-0.19-1.69-0.58-2.24s-0.93-0.82-1.62-0.82c-0.5,0-0.93,0.12-1.29,0.36s-0.64,0.59-0.83,1.05v3.55
		c0.2,0.42,0.48,0.75,0.84,0.97s0.79,0.33,1.29,0.33c0.69,0,1.22-0.27,1.61-0.82C202.88,290.13,203.08,289.34,203.08,288.29z"/>
	<path class="st22" d="M210.24,292.06c-0.08-0.23-0.13-0.58-0.16-1.03c-0.29,0.37-0.65,0.66-1.1,0.86c-0.44,0.2-0.91,0.3-1.41,0.3
		c-0.71,0-1.29-0.2-1.73-0.59c-0.44-0.4-0.66-0.9-0.66-1.5c0-0.72,0.3-1.29,0.9-1.71c0.6-0.42,1.43-0.63,2.51-0.63h1.48v-0.84
		c0-0.53-0.16-0.94-0.49-1.25c-0.33-0.3-0.8-0.45-1.42-0.45c-0.57,0-1.04,0.15-1.42,0.44s-0.56,0.64-0.56,1.05l-0.82-0.01
		c0-0.59,0.27-1.1,0.82-1.53s1.22-0.65,2.02-0.65c0.83,0,1.48,0.21,1.95,0.62c0.48,0.41,0.72,0.99,0.73,1.73v3.5
		c0,0.72,0.08,1.25,0.23,1.61v0.08H210.24z M207.67,291.47c0.55,0,1.04-0.13,1.47-0.4c0.43-0.26,0.74-0.62,0.94-1.06v-1.63h-1.46
		c-0.82,0.01-1.45,0.16-1.91,0.45s-0.69,0.69-0.69,1.19c0,0.41,0.15,0.76,0.46,1.03C206.78,291.33,207.18,291.47,207.67,291.47z"/>
	<path class="st22" d="M216.35,285.36c-0.17-0.03-0.36-0.05-0.55-0.05c-0.51,0-0.94,0.14-1.3,0.43c-0.35,0.28-0.6,0.7-0.75,1.24
		v5.08h-0.81v-7.4h0.8l0.01,1.18c0.43-0.88,1.13-1.31,2.08-1.31c0.23,0,0.41,0.03,0.54,0.09L216.35,285.36z"/>
	<path class="st22" d="M221.89,292.06c-0.08-0.23-0.13-0.58-0.16-1.03c-0.29,0.37-0.65,0.66-1.1,0.86c-0.44,0.2-0.91,0.3-1.41,0.3
		c-0.71,0-1.29-0.2-1.73-0.59c-0.44-0.4-0.66-0.9-0.66-1.5c0-0.72,0.3-1.29,0.9-1.71c0.6-0.42,1.43-0.63,2.51-0.63h1.48v-0.84
		c0-0.53-0.16-0.94-0.49-1.25c-0.33-0.3-0.8-0.45-1.42-0.45c-0.57,0-1.04,0.15-1.42,0.44s-0.56,0.64-0.56,1.05l-0.82-0.01
		c0-0.59,0.27-1.1,0.82-1.53s1.22-0.65,2.02-0.65c0.83,0,1.48,0.21,1.95,0.62c0.48,0.41,0.72,0.99,0.73,1.73v3.5
		c0,0.72,0.08,1.25,0.23,1.61v0.08H221.89z M219.32,291.47c0.55,0,1.04-0.13,1.47-0.4c0.43-0.26,0.74-0.62,0.94-1.06v-1.63h-1.46
		c-0.82,0.01-1.45,0.16-1.91,0.45s-0.69,0.69-0.69,1.19c0,0.41,0.15,0.76,0.46,1.03C218.43,291.33,218.83,291.47,219.32,291.47z"/>
	<path class="st22" d="M230.67,290.87c0.42,0,0.76-0.12,1.03-0.36s0.42-0.54,0.44-0.9h1.57c-0.02,0.46-0.16,0.89-0.43,1.29
		s-0.63,0.71-1.09,0.95s-0.96,0.35-1.49,0.35c-1.03,0-1.85-0.33-2.46-1s-0.91-1.6-0.91-2.78v-0.17c0-1.13,0.3-2.03,0.9-2.7
		s1.42-1.02,2.46-1.02c0.88,0,1.6,0.26,2.15,0.77c0.55,0.51,0.84,1.19,0.87,2.02h-1.57c-0.02-0.42-0.16-0.77-0.43-1.05
		c-0.27-0.27-0.62-0.41-1.04-0.41c-0.54,0-0.95,0.19-1.24,0.58s-0.44,0.98-0.44,1.77v0.27c0,0.8,0.14,1.4,0.43,1.79
		C229.71,290.67,230.12,290.87,230.67,290.87z"/>
	<path class="st22" d="M234.51,288.29c0-0.72,0.14-1.38,0.43-1.96s0.69-1.03,1.21-1.34s1.12-0.47,1.79-0.47c1,0,1.81,0.32,2.43,0.96
		c0.62,0.64,0.96,1.49,1.01,2.56l0.01,0.39c0,0.73-0.14,1.38-0.42,1.96c-0.28,0.57-0.68,1.02-1.2,1.33
		c-0.52,0.31-1.12,0.47-1.81,0.47c-1.04,0-1.88-0.35-2.5-1.04c-0.63-0.69-0.94-1.62-0.94-2.78V288.29z M236.17,288.44
		c0,0.76,0.16,1.36,0.47,1.79s0.75,0.65,1.31,0.65s1-0.22,1.31-0.66c0.31-0.44,0.47-1.08,0.47-1.92c0-0.75-0.16-1.34-0.48-1.78
		c-0.32-0.44-0.76-0.66-1.31-0.66c-0.54,0-0.97,0.22-1.29,0.65S236.17,287.58,236.17,288.44z"/>
	<path class="st22" d="M244.21,284.66l0.05,0.77c0.52-0.61,1.23-0.91,2.13-0.91c0.99,0,1.67,0.38,2.03,1.13
		c0.54-0.76,1.29-1.13,2.27-1.13c0.82,0,1.42,0.23,1.82,0.68c0.4,0.45,0.6,1.12,0.61,2v4.86h-1.66v-4.81c0-0.47-0.1-0.81-0.31-1.03
		s-0.54-0.33-1.02-0.33c-0.38,0-0.69,0.1-0.93,0.3c-0.24,0.2-0.41,0.47-0.5,0.8l0.01,5.07h-1.66v-4.87
		c-0.02-0.87-0.47-1.31-1.33-1.31c-0.67,0-1.14,0.27-1.42,0.81v5.36h-1.66v-7.4H244.21z"/>
	<path class="st22" d="M261.17,288.44c0,1.14-0.26,2.06-0.78,2.74s-1.22,1.02-2.09,1.02c-0.81,0-1.46-0.27-1.95-0.8v3.51h-1.66
		v-10.24h1.53l0.07,0.75c0.49-0.59,1.15-0.89,1.99-0.89c0.9,0,1.61,0.34,2.12,1.01c0.51,0.67,0.77,1.61,0.77,2.8V288.44z
		 M259.52,288.29c0-0.74-0.15-1.32-0.44-1.76c-0.29-0.43-0.71-0.65-1.26-0.65c-0.68,0-1.17,0.28-1.46,0.84v3.28
		c0.3,0.57,0.79,0.86,1.48,0.86c0.53,0,0.94-0.21,1.24-0.64C259.37,289.8,259.52,289.16,259.52,288.29z"/>
	<path class="st22" d="M266.85,292.06c-0.07-0.14-0.14-0.37-0.19-0.69c-0.53,0.55-1.18,0.83-1.94,0.83c-0.74,0-1.35-0.21-1.82-0.64
		s-0.7-0.95-0.7-1.57c0-0.79,0.29-1.39,0.88-1.81c0.58-0.42,1.42-0.63,2.51-0.63h1.02v-0.49c0-0.38-0.11-0.69-0.32-0.92
		s-0.54-0.35-0.98-0.35c-0.38,0-0.69,0.09-0.93,0.28s-0.36,0.43-0.36,0.72h-1.66c0-0.41,0.13-0.79,0.4-1.14s0.63-0.63,1.1-0.83
		c0.46-0.2,0.98-0.3,1.55-0.3c0.87,0,1.56,0.22,2.07,0.65s0.78,1.05,0.79,1.84v3.34c0,0.67,0.09,1.2,0.28,1.59v0.12H266.85z
		 M265.03,290.86c0.33,0,0.64-0.08,0.93-0.24c0.29-0.16,0.51-0.37,0.65-0.64v-1.39h-0.9c-0.62,0-1.08,0.11-1.39,0.32
		s-0.46,0.52-0.46,0.91c0,0.32,0.11,0.57,0.32,0.76C264.39,290.77,264.67,290.86,265.03,290.86z"/>
	<path class="st22" d="M273.74,286.18c-0.22-0.04-0.44-0.05-0.68-0.05c-0.76,0-1.27,0.29-1.54,0.88v5.06h-1.66v-7.4h1.59l0.04,0.83
		c0.4-0.64,0.96-0.96,1.67-0.96c0.24,0,0.43,0.03,0.59,0.1L273.74,286.18z"/>
	<path class="st22" d="M277.07,282.86v1.8h1.31v1.23h-1.31v4.13c0,0.28,0.06,0.49,0.17,0.61c0.11,0.13,0.31,0.19,0.6,0.19
		c0.19,0,0.38-0.02,0.58-0.07v1.29c-0.38,0.1-0.74,0.16-1.09,0.16c-1.28,0-1.91-0.7-1.91-2.11v-4.19h-1.22v-1.23h1.22v-1.8H277.07z"
		/>
	<path class="st22" d="M279.51,282.74c0-0.26,0.08-0.47,0.24-0.64c0.16-0.17,0.39-0.25,0.69-0.25s0.53,0.08,0.7,0.25
		s0.25,0.38,0.25,0.64c0,0.25-0.08,0.46-0.25,0.63s-0.4,0.25-0.7,0.25s-0.53-0.08-0.69-0.25
		C279.59,283.2,279.51,282.99,279.51,282.74z M281.27,292.06h-1.66v-7.4h1.66V292.06z"/>
	<path class="st22" d="M284.71,292.06h-1.66v-10.5h1.66V292.06z"/>
	<path class="st22" d="M288.02,285.47c0.54-0.63,1.23-0.94,2.06-0.94c1.58,0,2.38,0.9,2.4,2.7v4.83h-1.66v-4.77
		c0-0.51-0.11-0.87-0.33-1.08c-0.22-0.21-0.55-0.32-0.97-0.32c-0.67,0-1.16,0.3-1.49,0.89v5.28h-1.66v-10.5h1.66V285.47z"/>
	<path class="st22" d="M298.43,292.06c-0.07-0.14-0.14-0.37-0.19-0.69c-0.53,0.55-1.18,0.83-1.94,0.83c-0.74,0-1.35-0.21-1.82-0.64
		s-0.7-0.95-0.7-1.57c0-0.79,0.29-1.39,0.88-1.81c0.58-0.42,1.42-0.63,2.51-0.63h1.02v-0.49c0-0.38-0.11-0.69-0.32-0.92
		s-0.54-0.35-0.98-0.35c-0.38,0-0.69,0.09-0.93,0.28s-0.36,0.43-0.36,0.72h-1.66c0-0.41,0.13-0.79,0.4-1.14s0.63-0.63,1.1-0.83
		c0.46-0.2,0.98-0.3,1.55-0.3c0.87,0,1.56,0.22,2.07,0.65s0.78,1.05,0.79,1.84v3.34c0,0.67,0.09,1.2,0.28,1.59v0.12H298.43z
		 M296.6,290.86c0.33,0,0.64-0.08,0.93-0.24c0.29-0.16,0.51-0.37,0.65-0.64v-1.39h-0.9c-0.62,0-1.08,0.11-1.39,0.32
		s-0.46,0.52-0.46,0.91c0,0.32,0.11,0.57,0.32,0.76C295.97,290.77,296.25,290.86,296.6,290.86z"/>
	<path class="st22" d="M305.32,286.18c-0.22-0.04-0.44-0.05-0.68-0.05c-0.76,0-1.27,0.29-1.54,0.88v5.06h-1.66v-7.4h1.59l0.04,0.83
		c0.4-0.64,0.96-0.96,1.67-0.96c0.24,0,0.43,0.03,0.59,0.1L305.32,286.18z"/>
	<path class="st22" d="M309.58,282.74c0-0.26,0.08-0.47,0.24-0.64c0.16-0.17,0.39-0.25,0.69-0.25s0.53,0.08,0.7,0.25
		s0.25,0.38,0.25,0.64c0,0.25-0.08,0.46-0.25,0.63s-0.4,0.25-0.7,0.25s-0.53-0.08-0.69-0.25
		C309.66,283.2,309.58,282.99,309.58,282.74z M311.34,292.06h-1.66v-7.4h1.66V292.06z"/>
	<path class="st22" d="M314.55,284.66l0.05,0.85c0.55-0.66,1.26-0.99,2.15-0.99c1.54,0,2.32,0.88,2.35,2.65v4.89h-1.66v-4.79
		c0-0.47-0.1-0.82-0.3-1.04c-0.2-0.23-0.54-0.34-1-0.34c-0.67,0-1.17,0.3-1.5,0.91v5.26h-1.66v-7.4H314.55z"/>
	<path class="st22" d="M321.24,292.06v-6.17h-1.13v-1.23h1.13v-0.68c0-0.82,0.23-1.45,0.68-1.9s1.09-0.67,1.91-0.67
		c0.29,0,0.6,0.04,0.93,0.12l-0.04,1.3c-0.18-0.04-0.39-0.05-0.64-0.05c-0.79,0-1.19,0.41-1.19,1.22v0.66h1.5v1.23h-1.5v6.17H321.24
		z"/>
	<path class="st22" d="M325.17,288.29c0-0.72,0.14-1.38,0.43-1.96s0.69-1.03,1.21-1.34s1.12-0.47,1.79-0.47c1,0,1.81,0.32,2.43,0.96
		c0.62,0.64,0.96,1.49,1.01,2.56l0.01,0.39c0,0.73-0.14,1.38-0.42,1.96c-0.28,0.57-0.68,1.02-1.2,1.33
		c-0.52,0.31-1.12,0.47-1.81,0.47c-1.04,0-1.88-0.35-2.5-1.04c-0.63-0.69-0.94-1.62-0.94-2.78V288.29z M326.83,288.44
		c0,0.76,0.16,1.36,0.47,1.79s0.75,0.65,1.31,0.65s1-0.22,1.31-0.66c0.31-0.44,0.47-1.08,0.47-1.92c0-0.75-0.16-1.34-0.48-1.78
		c-0.32-0.44-0.76-0.66-1.31-0.66c-0.54,0-0.97,0.22-1.29,0.65S326.83,287.58,326.83,288.44z"/>
	<path class="st22" d="M337.18,286.18c-0.22-0.04-0.44-0.05-0.68-0.05c-0.76,0-1.27,0.29-1.54,0.88v5.06h-1.66v-7.4h1.59l0.04,0.83
		c0.4-0.64,0.96-0.96,1.67-0.96c0.24,0,0.43,0.03,0.59,0.1L337.18,286.18z"/>
	<path class="st22" d="M339.65,284.66l0.05,0.77c0.52-0.61,1.23-0.91,2.13-0.91c0.99,0,1.67,0.38,2.03,1.13
		c0.54-0.76,1.29-1.13,2.27-1.13c0.82,0,1.42,0.23,1.82,0.68c0.4,0.45,0.6,1.12,0.61,2v4.86h-1.66v-4.81c0-0.47-0.1-0.81-0.31-1.03
		s-0.54-0.33-1.02-0.33c-0.38,0-0.69,0.1-0.93,0.3c-0.24,0.2-0.41,0.47-0.5,0.8l0.01,5.07h-1.66v-4.87
		c-0.02-0.87-0.47-1.31-1.33-1.31c-0.67,0-1.14,0.27-1.42,0.81v5.36h-1.66v-7.4H339.65z"/>
	<path class="st22" d="M354.55,292.06c-0.07-0.14-0.14-0.37-0.19-0.69c-0.53,0.55-1.18,0.83-1.94,0.83c-0.74,0-1.35-0.21-1.82-0.64
		s-0.7-0.95-0.7-1.57c0-0.79,0.29-1.39,0.88-1.81c0.58-0.42,1.42-0.63,2.51-0.63h1.02v-0.49c0-0.38-0.11-0.69-0.32-0.92
		s-0.54-0.35-0.98-0.35c-0.38,0-0.69,0.09-0.93,0.28s-0.36,0.43-0.36,0.72h-1.66c0-0.41,0.13-0.79,0.4-1.14s0.63-0.63,1.1-0.83
		c0.46-0.2,0.98-0.3,1.55-0.3c0.87,0,1.56,0.22,2.07,0.65s0.78,1.05,0.79,1.84v3.34c0,0.67,0.09,1.2,0.28,1.59v0.12H354.55z
		 M352.73,290.86c0.33,0,0.64-0.08,0.93-0.24c0.29-0.16,0.51-0.37,0.65-0.64v-1.39h-0.9c-0.62,0-1.08,0.11-1.39,0.32
		s-0.46,0.52-0.46,0.91c0,0.32,0.11,0.57,0.32,0.76C352.09,290.77,352.37,290.86,352.73,290.86z"/>
	<path class="st22" d="M360.6,290.87c0.42,0,0.76-0.12,1.03-0.36s0.42-0.54,0.44-0.9h1.57c-0.02,0.46-0.16,0.89-0.43,1.29
		s-0.63,0.71-1.09,0.95s-0.96,0.35-1.49,0.35c-1.03,0-1.85-0.33-2.46-1s-0.91-1.6-0.91-2.78v-0.17c0-1.13,0.3-2.03,0.9-2.7
		s1.42-1.02,2.46-1.02c0.88,0,1.6,0.26,2.15,0.77c0.55,0.51,0.84,1.19,0.87,2.02h-1.57c-0.02-0.42-0.16-0.77-0.43-1.05
		c-0.27-0.27-0.62-0.41-1.04-0.41c-0.54,0-0.95,0.19-1.24,0.58s-0.44,0.98-0.44,1.77v0.27c0,0.8,0.14,1.4,0.43,1.79
		C359.64,290.67,360.06,290.87,360.6,290.87z M361.06,292.07l-0.08,0.37c0.68,0.12,1.03,0.52,1.03,1.18c0,0.48-0.2,0.85-0.59,1.12
		s-0.94,0.4-1.65,0.4l-0.05-0.94c0.3,0,0.53-0.05,0.69-0.16c0.16-0.11,0.24-0.26,0.24-0.45c0-0.21-0.08-0.35-0.24-0.43
		c-0.16-0.08-0.42-0.13-0.79-0.15l0.22-0.95H361.06z"/>
	<path class="st22" d="M364.44,288.29c0-0.72,0.14-1.38,0.43-1.96s0.69-1.03,1.21-1.34s1.12-0.47,1.79-0.47c1,0,1.81,0.32,2.43,0.96
		c0.62,0.64,0.96,1.49,1.01,2.56l0.01,0.39c0,0.73-0.14,1.38-0.42,1.96c-0.28,0.57-0.68,1.02-1.2,1.33
		c-0.52,0.31-1.12,0.47-1.81,0.47c-1.04,0-1.88-0.35-2.5-1.04c-0.63-0.69-0.94-1.62-0.94-2.78V288.29z M370.35,281.71
		c0,0.5-0.14,0.92-0.43,1.25c-0.29,0.33-0.65,0.5-1.09,0.5c-0.18,0-0.33-0.02-0.46-0.06c-0.13-0.04-0.31-0.13-0.55-0.26
		c-0.24-0.14-0.41-0.22-0.51-0.25c-0.1-0.03-0.21-0.04-0.32-0.04c-0.17,0-0.32,0.06-0.44,0.19c-0.12,0.13-0.18,0.3-0.18,0.51
		l-1.02-0.05c0-0.5,0.14-0.92,0.43-1.26c0.29-0.34,0.65-0.51,1.08-0.51c0.26,0,0.57,0.1,0.94,0.31c0.37,0.21,0.67,0.31,0.91,0.31
		c0.17,0,0.32-0.06,0.44-0.19s0.18-0.3,0.18-0.52L370.35,281.71z M366.1,288.44c0,0.76,0.16,1.36,0.47,1.79s0.75,0.65,1.31,0.65
		s1-0.22,1.31-0.66c0.31-0.44,0.47-1.08,0.47-1.92c0-0.75-0.16-1.34-0.48-1.78c-0.32-0.44-0.76-0.66-1.31-0.66
		c-0.54,0-0.97,0.22-1.29,0.65S366.1,287.58,366.1,288.44z"/>
	<path class="st22" d="M375.84,292.2c-1.05,0-1.91-0.33-2.56-0.99c-0.65-0.66-0.98-1.55-0.98-2.65v-0.21c0-0.74,0.14-1.4,0.43-1.98
		c0.29-0.58,0.69-1.03,1.2-1.36s1.09-0.49,1.72-0.49c1.01,0,1.79,0.32,2.33,0.96c0.55,0.64,0.82,1.55,0.82,2.73v0.67h-4.83
		c0.05,0.61,0.25,1.09,0.61,1.45c0.36,0.36,0.81,0.53,1.35,0.53c0.76,0,1.38-0.31,1.86-0.92l0.9,0.85c-0.3,0.44-0.69,0.79-1.19,1.03
		C377.01,292.07,376.46,292.2,375.84,292.2z M375.64,285.86c-0.46,0-0.82,0.16-1.1,0.48c-0.28,0.32-0.46,0.76-0.54,1.33h3.17v-0.12
		c-0.04-0.56-0.18-0.98-0.44-1.26S376.1,285.86,375.64,285.86z"/>
	<path class="st22" d="M384.1,290.05c0-0.3-0.12-0.52-0.37-0.68c-0.24-0.15-0.65-0.29-1.21-0.41s-1.04-0.27-1.42-0.45
		c-0.83-0.4-1.24-0.98-1.24-1.74c0-0.64,0.27-1.17,0.81-1.6s1.22-0.64,2.05-0.64c0.88,0,1.6,0.22,2.14,0.66
		c0.54,0.44,0.82,1,0.82,1.7h-1.66c0-0.32-0.12-0.58-0.36-0.8s-0.55-0.32-0.94-0.32c-0.36,0-0.66,0.08-0.89,0.25
		c-0.23,0.17-0.35,0.39-0.35,0.68c0,0.26,0.11,0.45,0.32,0.59s0.65,0.28,1.3,0.43s1.16,0.31,1.53,0.51c0.37,0.2,0.65,0.44,0.83,0.71
		c0.18,0.28,0.27,0.62,0.27,1.01c0,0.67-0.28,1.2-0.83,1.62s-1.27,0.62-2.17,0.62c-0.61,0-1.15-0.11-1.62-0.33s-0.84-0.52-1.11-0.9
		s-0.4-0.8-0.4-1.24h1.61c0.02,0.39,0.17,0.69,0.44,0.91s0.64,0.32,1.09,0.32c0.44,0,0.77-0.08,1-0.25S384.1,290.32,384.1,290.05z"
		/>
</g>
<g>
	<g>
		<path class="st2" d="M122.66,231.6c9.86,20.43,32.77,27.59,53.66,30.77c-0.4-1.49-0.79-2.99-1.18-4.48
			c-2.67,2.76-5.96,4.35-9.75,4.88c0.48,1.72,0.95,3.45,1.43,5.16c2.59-0.59,5.13-1.3,7.64-2.19c2.1-0.75,4.91-1.43,5.96-3.62
			c1.13-2.37-0.44-4.53-1.76-6.4c-1.48-2.1-3.03-4.11-4.92-5.86c-1.87-1.75-5.42,0.6-3.73,2.89c1.1,1.49,2.27,2.95,3.35,4.45
			c0.41,0.57,0.81,1.14,1.21,1.73c0.25,0.38,0.51,0.78,0.76,1.18c0.33,0.76,0.44,0.62,0.35-0.43c-0.13-0.14-4.15,1.48-4.67,1.64
			c-1.84,0.57-3.7,1.05-5.59,1.48c-2.89,0.64-2.32,5.65,0.71,5.26c4.96-0.65,9.36-2.7,12.82-6.34c1.24-1.3,0.92-4.16-1.18-4.48
			c-10.71-1.54-21.56-3.83-31.28-8.74c-8.28-4.19-16.33-10.42-21.43-18.25C124.07,228.71,121.89,230.02,122.66,231.6L122.66,231.6z"
			/>
	</g>
</g>
<g>
	<path class="st2" d="M136.98,11.78h1.86v2h-1.86v3.32h-2.49v-3.32h-6.45l-0.07-1.52l6.44-10.09h2.57V11.78z M130.58,11.78h3.91
		V5.54l-0.18,0.33L130.58,11.78z"/>
	<path class="st2" d="M151.39,17.3c-1.58,0-2.86-0.5-3.84-1.49c-0.98-0.99-1.47-2.32-1.47-3.97v-0.31c0-1.11,0.21-2.1,0.64-2.97
		c0.43-0.87,1.03-1.55,1.8-2.04s1.63-0.73,2.58-0.73c1.51,0,2.68,0.48,3.5,1.45c0.82,0.96,1.24,2.33,1.24,4.09v1h-7.25
		c0.08,0.92,0.38,1.64,0.92,2.17c0.54,0.53,1.21,0.8,2.03,0.8c1.14,0,2.07-0.46,2.79-1.38l1.34,1.28c-0.44,0.66-1.04,1.18-1.78,1.54
		C153.15,17.12,152.31,17.3,151.39,17.3z M151.09,7.8c-0.68,0-1.24,0.24-1.66,0.72c-0.42,0.48-0.69,1.15-0.8,2h4.75v-0.18
		c-0.06-0.83-0.28-1.46-0.67-1.89S151.78,7.8,151.09,7.8z"/>
	<path class="st2" d="M160.43,6l0.07,1.16c0.78-0.91,1.85-1.36,3.2-1.36c1.48,0,2.5,0.57,3.04,1.7c0.81-1.13,1.94-1.7,3.4-1.7
		c1.22,0,2.13,0.34,2.73,1.02c0.6,0.68,0.9,1.67,0.92,2.99v7.29h-2.49V9.88c0-0.7-0.15-1.22-0.46-1.55
		c-0.31-0.33-0.82-0.49-1.53-0.49c-0.57,0-1.03,0.15-1.39,0.46c-0.36,0.3-0.61,0.7-0.75,1.19l0.01,7.61h-2.49V9.8
		c-0.03-1.31-0.7-1.96-2-1.96c-1,0-1.71,0.41-2.12,1.22v8.04h-2.49V6H160.43z"/>
	<path class="st2" d="M186.78,15.31c0.62,0,1.14-0.18,1.55-0.54s0.63-0.81,0.66-1.34h2.35c-0.03,0.69-0.24,1.33-0.65,1.93
		c-0.4,0.6-0.95,1.07-1.64,1.42s-1.44,0.52-2.24,0.52c-1.55,0-2.78-0.5-3.69-1.51s-1.36-2.39-1.36-4.16v-0.26
		c0-1.69,0.45-3.04,1.35-4.06c0.9-1.01,2.13-1.52,3.69-1.52c1.32,0,2.39,0.38,3.22,1.15c0.83,0.77,1.27,1.78,1.31,3.03h-2.35
		c-0.03-0.64-0.24-1.16-0.65-1.57c-0.41-0.41-0.92-0.62-1.55-0.62c-0.81,0-1.43,0.29-1.87,0.88c-0.44,0.58-0.66,1.47-0.67,2.66v0.4
		c0,1.2,0.22,2.1,0.65,2.69C185.33,15.02,185.96,15.31,186.78,15.31z"/>
	<path class="st2" d="M200.16,17.1c-0.11-0.21-0.21-0.56-0.29-1.04c-0.79,0.83-1.76,1.24-2.91,1.24c-1.12,0-2.02-0.32-2.73-0.95
		c-0.7-0.64-1.06-1.42-1.06-2.36c0-1.18,0.44-2.09,1.32-2.72c0.88-0.63,2.13-0.95,3.77-0.95h1.53V9.59c0-0.57-0.16-1.03-0.48-1.38
		c-0.32-0.35-0.81-0.52-1.47-0.52c-0.57,0-1.03,0.14-1.39,0.43c-0.36,0.28-0.54,0.64-0.54,1.08h-2.49c0-0.61,0.2-1.18,0.61-1.71
		s0.95-0.95,1.65-1.25c0.69-0.3,1.47-0.45,2.32-0.45c1.3,0,2.33,0.33,3.11,0.98s1.17,1.57,1.19,2.75v5c0,1,0.14,1.79,0.42,2.39v0.17
		H200.16z M197.42,15.3c0.49,0,0.96-0.12,1.39-0.36c0.43-0.24,0.76-0.56,0.98-0.96v-2.09h-1.34c-0.92,0-1.62,0.16-2.08,0.48
		s-0.7,0.78-0.7,1.36c0,0.48,0.16,0.86,0.48,1.14C196.46,15.16,196.89,15.3,197.42,15.3z"/>
	<path class="st2" d="M204.74,11.47c0-1.71,0.4-3.08,1.19-4.12c0.79-1.04,1.86-1.55,3.19-1.55c1.18,0,2.13,0.41,2.85,1.23V1.35h2.49
		V17.1h-2.26l-0.12-1.15c-0.75,0.9-1.74,1.35-2.98,1.35c-1.3,0-2.35-0.52-3.15-1.57C205.14,14.69,204.74,13.27,204.74,11.47z
		 M207.23,11.68c0,1.13,0.22,2.01,0.65,2.64c0.43,0.63,1.05,0.95,1.85,0.95c1.02,0,1.76-0.45,2.24-1.36V9.17
		c-0.46-0.89-1.2-1.33-2.21-1.33c-0.81,0-1.43,0.32-1.87,0.96C207.45,9.44,207.23,10.4,207.23,11.68z"/>
	<path class="st2" d="M224,17.1c-0.11-0.21-0.21-0.56-0.29-1.04c-0.79,0.83-1.76,1.24-2.91,1.24c-1.12,0-2.02-0.32-2.73-0.95
		c-0.7-0.64-1.06-1.42-1.06-2.36c0-1.18,0.44-2.09,1.32-2.72c0.88-0.63,2.13-0.95,3.77-0.95h1.53V9.59c0-0.57-0.16-1.03-0.48-1.38
		c-0.32-0.35-0.81-0.52-1.47-0.52c-0.57,0-1.03,0.14-1.39,0.43c-0.36,0.28-0.54,0.64-0.54,1.08h-2.49c0-0.61,0.2-1.18,0.61-1.71
		s0.95-0.95,1.65-1.25c0.69-0.3,1.47-0.45,2.32-0.45c1.3,0,2.33,0.33,3.11,0.98s1.17,1.57,1.19,2.75v5c0,1,0.14,1.79,0.42,2.39v0.17
		H224z M221.26,15.3c0.49,0,0.96-0.12,1.39-0.36c0.43-0.24,0.76-0.56,0.98-0.96v-2.09h-1.34c-0.92,0-1.62,0.16-2.08,0.48
		s-0.7,0.78-0.7,1.36c0,0.48,0.16,0.86,0.48,1.14C220.3,15.16,220.73,15.3,221.26,15.3z"/>
	<path class="st2" d="M241.18,17.1h-2.48V5.1l-3.66,1.25V4.26l5.82-2.14h0.32V17.1z"/>
	<path class="st2" d="M256.42,10.81c0,2.15-0.4,3.77-1.21,4.85c-0.8,1.09-2.02,1.64-3.67,1.64c-1.61,0-2.83-0.53-3.65-1.59
		c-0.82-1.06-1.24-2.64-1.26-4.72V8.4c0-2.15,0.4-3.76,1.21-4.83c0.8-1.07,2.03-1.61,3.68-1.61c1.63,0,2.85,0.52,3.66,1.57
		c0.8,1.05,1.21,2.61,1.24,4.7V10.81z M253.92,8.02c0-1.4-0.19-2.43-0.57-3.08c-0.38-0.65-0.99-0.98-1.83-0.98
		c-0.81,0-1.41,0.31-1.79,0.93s-0.58,1.58-0.6,2.9v3.38c0,1.39,0.19,2.43,0.58,3.12s1,1.03,1.84,1.03c0.8,0,1.39-0.32,1.77-0.95
		s0.58-1.62,0.61-2.97V8.02z"/>
	<path class="st22" d="M264.12,17.1v-6.73h-1.22V9.7h1.22v-0.9c0-0.76,0.19-1.34,0.58-1.74c0.38-0.41,0.92-0.61,1.61-0.61
		c0.31,0,0.6,0.04,0.87,0.12l-0.06,0.68c-0.23-0.05-0.48-0.08-0.75-0.08c-0.45,0-0.8,0.14-1.05,0.42c-0.25,0.28-0.38,0.68-0.38,1.2
		V9.7h1.76v0.67h-1.76v6.73H264.12z"/>
	<path class="st22" d="M273.04,17.1c-0.08-0.23-0.13-0.58-0.16-1.03c-0.29,0.37-0.65,0.66-1.1,0.86c-0.44,0.2-0.91,0.3-1.41,0.3
		c-0.71,0-1.29-0.2-1.73-0.59c-0.44-0.4-0.66-0.9-0.66-1.5c0-0.72,0.3-1.29,0.9-1.71c0.6-0.42,1.43-0.63,2.51-0.63h1.48v-0.84
		c0-0.53-0.16-0.94-0.49-1.25c-0.33-0.3-0.8-0.45-1.42-0.45c-0.57,0-1.04,0.15-1.42,0.44s-0.56,0.64-0.56,1.05l-0.82-0.01
		c0-0.59,0.27-1.1,0.82-1.53s1.22-0.65,2.02-0.65c0.83,0,1.48,0.21,1.95,0.62c0.48,0.41,0.72,0.99,0.73,1.73v3.5
		c0,0.72,0.08,1.25,0.23,1.61v0.08H273.04z M270.47,16.51c0.55,0,1.04-0.13,1.47-0.4c0.43-0.26,0.74-0.62,0.94-1.06v-1.63h-1.46
		c-0.82,0.01-1.45,0.16-1.91,0.45s-0.69,0.69-0.69,1.19c0,0.41,0.15,0.76,0.46,1.03C269.58,16.37,269.98,16.51,270.47,16.51z"/>
	<path class="st22" d="M276.62,16.41h4.81v0.69h-5.82v-0.6l4.48-6.08h-4.35V9.7h5.38v0.61L276.62,16.41z"/>
	<path class="st22" d="M285.97,17.24c-0.63,0-1.2-0.15-1.71-0.46c-0.51-0.31-0.9-0.74-1.19-1.3c-0.28-0.55-0.42-1.17-0.42-1.86
		v-0.29c0-0.71,0.14-1.35,0.41-1.92c0.28-0.57,0.66-1.02,1.15-1.34s1.03-0.49,1.6-0.49c0.9,0,1.61,0.31,2.14,0.92
		c0.53,0.61,0.79,1.45,0.79,2.51v0.46h-5.28v0.16c0,0.84,0.24,1.54,0.72,2.1c0.48,0.56,1.08,0.84,1.81,0.84
		c0.44,0,0.82-0.08,1.16-0.24c0.34-0.16,0.64-0.41,0.91-0.77l0.51,0.39C287.98,16.8,287.11,17.24,285.97,17.24z M285.82,10.26
		c-0.62,0-1.13,0.23-1.56,0.68c-0.42,0.45-0.68,1.06-0.77,1.82h4.44v-0.09c-0.02-0.71-0.23-1.29-0.61-1.74
		S286.44,10.26,285.82,10.26z"/>
	<path class="st22" d="M291.29,9.7l0.03,1.2c0.27-0.45,0.62-0.78,1.03-1s0.87-0.33,1.37-0.33c1.17,0,1.91,0.48,2.22,1.44
		c0.26-0.46,0.62-0.81,1.06-1.06s0.93-0.37,1.46-0.37c1.59,0,2.39,0.87,2.43,2.6v4.94h-0.82v-4.87c0-0.66-0.15-1.15-0.43-1.47
		c-0.28-0.32-0.74-0.48-1.37-0.48c-0.59,0.01-1.08,0.2-1.49,0.57s-0.63,0.82-0.68,1.36v4.89h-0.82v-4.94c0-0.63-0.15-1.11-0.45-1.42
		c-0.29-0.31-0.75-0.47-1.36-0.47c-0.51,0-0.96,0.15-1.33,0.44s-0.64,0.73-0.82,1.31v5.07h-0.82V9.7H291.29z"/>
	<path class="st22" d="M310.19,10.4c-0.17-0.03-0.36-0.05-0.55-0.05c-0.51,0-0.94,0.14-1.3,0.43c-0.35,0.28-0.6,0.7-0.75,1.24v5.08
		h-0.81V9.7h0.8l0.01,1.18c0.43-0.88,1.13-1.31,2.08-1.31c0.23,0,0.41,0.03,0.54,0.09L310.19,10.4z"/>
	<path class="st22" d="M314.56,17.24c-0.63,0-1.2-0.15-1.71-0.46c-0.51-0.31-0.9-0.74-1.19-1.3c-0.28-0.55-0.42-1.17-0.42-1.86
		v-0.29c0-0.71,0.14-1.35,0.41-1.92c0.28-0.57,0.66-1.02,1.15-1.34s1.03-0.49,1.6-0.49c0.9,0,1.61,0.31,2.14,0.92
		c0.53,0.61,0.79,1.45,0.79,2.51v0.46h-5.28v0.16c0,0.84,0.24,1.54,0.72,2.1c0.48,0.56,1.08,0.84,1.81,0.84
		c0.44,0,0.82-0.08,1.16-0.24c0.34-0.16,0.64-0.41,0.91-0.77l0.51,0.39C316.58,16.8,315.7,17.24,314.56,17.24z M314.41,10.26
		c-0.62,0-1.13,0.23-1.56,0.68c-0.42,0.45-0.68,1.06-0.77,1.82h4.44v-0.09c-0.02-0.71-0.23-1.29-0.61-1.74
		S315.03,10.26,314.41,10.26z"/>
	<path class="st22" d="M323.9,16.16c-0.49,0.72-1.28,1.07-2.36,1.07c-0.79,0-1.39-0.23-1.8-0.69s-0.62-1.14-0.63-2.03V9.7h0.81v4.71
		c0,1.41,0.57,2.11,1.71,2.11c1.18,0,1.93-0.49,2.25-1.47V9.7h0.82v7.4h-0.79L323.9,16.16z"/>
	<path class="st22" d="M327.82,9.7l0.03,1.26c0.28-0.46,0.62-0.8,1.04-1.04s0.87-0.36,1.37-0.36c0.79,0,1.38,0.22,1.77,0.67
		s0.58,1.12,0.59,2.01v4.85h-0.81v-4.86c0-0.66-0.14-1.15-0.42-1.48c-0.28-0.32-0.72-0.49-1.32-0.49c-0.51,0-0.95,0.16-1.34,0.48
		c-0.39,0.32-0.68,0.74-0.86,1.28v5.07h-0.81V9.7H327.82z"/>
	<path class="st22" d="M334.89,7.57c0-0.15,0.05-0.28,0.15-0.39s0.24-0.16,0.41-0.16s0.31,0.05,0.41,0.16
		c0.1,0.11,0.15,0.24,0.15,0.39s-0.05,0.28-0.15,0.39c-0.1,0.1-0.24,0.16-0.41,0.16s-0.31-0.05-0.41-0.16
		C334.94,7.85,334.89,7.72,334.89,7.57z M335.86,17.1h-0.82V9.7h0.82V17.1z"/>
	<path class="st22" d="M337.84,13.29c0-0.71,0.14-1.35,0.41-1.92c0.28-0.57,0.67-1.01,1.17-1.33c0.5-0.32,1.08-0.48,1.71-0.48
		c0.98,0,1.78,0.35,2.39,1.04s0.92,1.61,0.92,2.74v0.17c0,0.72-0.14,1.36-0.41,1.93c-0.28,0.57-0.66,1.01-1.17,1.32
		s-1.07,0.46-1.72,0.46c-0.98,0-1.78-0.35-2.39-1.04c-0.61-0.69-0.92-1.61-0.92-2.74V13.29z M338.66,13.52
		c0,0.88,0.23,1.61,0.69,2.18c0.46,0.57,1.06,0.85,1.8,0.85c0.74,0,1.34-0.28,1.79-0.85c0.46-0.57,0.69-1.32,0.69-2.25v-0.16
		c0-0.56-0.1-1.08-0.31-1.55s-0.5-0.83-0.88-1.09s-0.81-0.39-1.3-0.39c-0.73,0-1.32,0.29-1.78,0.86s-0.69,1.32-0.69,2.25V13.52z
		 M343.46,6.9c0,0.44-0.13,0.79-0.39,1.05c-0.26,0.27-0.57,0.4-0.95,0.4c-0.35,0-0.68-0.13-1.01-0.38
		c-0.33-0.25-0.63-0.38-0.89-0.38c-0.21,0-0.39,0.07-0.54,0.21c-0.14,0.14-0.22,0.34-0.22,0.59l-0.62-0.02
		c0-0.42,0.12-0.76,0.37-1.03c0.25-0.27,0.57-0.41,0.96-0.41c0.22,0,0.41,0.04,0.56,0.12s0.3,0.16,0.44,0.26s0.27,0.18,0.41,0.26
		c0.14,0.08,0.3,0.12,0.49,0.12c0.21,0,0.39-0.08,0.54-0.23c0.15-0.15,0.22-0.35,0.22-0.61L343.46,6.9z"/>
	<path class="st22" d="M349.2,17.24c-0.63,0-1.2-0.15-1.71-0.46c-0.51-0.31-0.9-0.74-1.19-1.3c-0.28-0.55-0.42-1.17-0.42-1.86v-0.29
		c0-0.71,0.14-1.35,0.41-1.92c0.28-0.57,0.66-1.02,1.15-1.34s1.03-0.49,1.6-0.49c0.9,0,1.61,0.31,2.14,0.92
		c0.53,0.61,0.79,1.45,0.79,2.51v0.46h-5.28v0.16c0,0.84,0.24,1.54,0.72,2.1c0.48,0.56,1.08,0.84,1.81,0.84
		c0.44,0,0.82-0.08,1.16-0.24c0.34-0.16,0.64-0.41,0.91-0.77l0.51,0.39C351.22,16.8,350.35,17.24,349.2,17.24z M349.05,10.26
		c-0.62,0-1.13,0.23-1.56,0.68c-0.42,0.45-0.68,1.06-0.77,1.82h4.44v-0.09c-0.02-0.71-0.23-1.29-0.61-1.74
		S349.67,10.26,349.05,10.26z"/>
	<path class="st22" d="M358.21,15.22c0-0.41-0.16-0.73-0.49-0.98c-0.33-0.25-0.82-0.44-1.47-0.58s-1.17-0.3-1.53-0.48
		c-0.36-0.18-0.63-0.4-0.81-0.66c-0.17-0.26-0.26-0.57-0.26-0.94c0-0.58,0.24-1.07,0.73-1.45s1.11-0.57,1.87-0.57
		c0.83,0,1.49,0.2,1.99,0.61c0.5,0.41,0.75,0.94,0.75,1.6h-0.82c0-0.43-0.18-0.79-0.54-1.08c-0.36-0.29-0.82-0.43-1.37-0.43
		c-0.54,0-0.97,0.12-1.29,0.36c-0.33,0.24-0.49,0.55-0.49,0.93c0,0.37,0.14,0.66,0.41,0.86c0.27,0.2,0.77,0.39,1.48,0.56
		c0.72,0.17,1.26,0.35,1.61,0.54c0.36,0.19,0.62,0.42,0.8,0.69s0.26,0.59,0.26,0.98c0,0.62-0.25,1.12-0.76,1.5
		c-0.5,0.37-1.16,0.56-1.97,0.56c-0.86,0-1.56-0.21-2.09-0.63c-0.54-0.42-0.8-0.94-0.8-1.58h0.82c0.03,0.48,0.23,0.85,0.6,1.12
		c0.37,0.27,0.86,0.4,1.47,0.4c0.57,0,1.03-0.13,1.38-0.38C358.04,15.92,358.21,15.6,358.21,15.22z"/>
	<path class="st22" d="M134.45,33.48c0,1.15-0.25,2.07-0.77,2.74s-1.19,1.02-2.05,1.02c-1.01,0-1.79-0.36-2.32-1.07v3.77h-0.81V29.7
		h0.76l0.04,1.05c0.53-0.79,1.31-1.18,2.32-1.18c0.88,0,1.58,0.33,2.08,1c0.5,0.67,0.76,1.6,0.76,2.79V33.48z M133.63,33.33
		c0-0.94-0.19-1.69-0.58-2.24s-0.93-0.82-1.62-0.82c-0.5,0-0.93,0.12-1.29,0.36s-0.64,0.59-0.83,1.05v3.55
		c0.2,0.42,0.48,0.75,0.84,0.97s0.79,0.33,1.29,0.33c0.69,0,1.22-0.27,1.61-0.82C133.43,35.17,133.63,34.38,133.63,33.33z"/>
	<path class="st22" d="M141.14,37.1c-0.08-0.23-0.13-0.58-0.16-1.03c-0.29,0.37-0.65,0.66-1.1,0.86c-0.44,0.2-0.91,0.3-1.41,0.3
		c-0.71,0-1.29-0.2-1.73-0.59c-0.44-0.4-0.66-0.9-0.66-1.5c0-0.72,0.3-1.29,0.9-1.71c0.6-0.42,1.43-0.63,2.51-0.63h1.48v-0.84
		c0-0.53-0.16-0.94-0.49-1.25c-0.33-0.3-0.8-0.45-1.42-0.45c-0.57,0-1.04,0.15-1.42,0.44s-0.56,0.64-0.56,1.05l-0.82-0.01
		c0-0.59,0.27-1.1,0.82-1.53s1.22-0.65,2.02-0.65c0.83,0,1.48,0.21,1.95,0.62c0.48,0.41,0.72,0.99,0.73,1.73v3.5
		c0,0.72,0.08,1.25,0.23,1.61v0.08H141.14z M138.57,36.51c0.55,0,1.04-0.13,1.47-0.4c0.43-0.26,0.74-0.62,0.94-1.06v-1.63h-1.46
		c-0.82,0.01-1.45,0.16-1.91,0.45s-0.69,0.69-0.69,1.19c0,0.41,0.15,0.76,0.46,1.03C137.68,36.37,138.07,36.51,138.57,36.51z"/>
	<path class="st22" d="M147.6,30.4c-0.17-0.03-0.36-0.05-0.55-0.05c-0.51,0-0.94,0.14-1.3,0.43c-0.35,0.28-0.6,0.7-0.75,1.24v5.08
		h-0.81v-7.4h0.8l0.01,1.18c0.43-0.88,1.13-1.31,2.08-1.31c0.23,0,0.41,0.03,0.54,0.09L147.6,30.4z"/>
	<path class="st22" d="M153.49,37.1c-0.08-0.23-0.13-0.58-0.16-1.03c-0.29,0.37-0.65,0.66-1.1,0.86c-0.44,0.2-0.91,0.3-1.41,0.3
		c-0.71,0-1.29-0.2-1.73-0.59c-0.44-0.4-0.66-0.9-0.66-1.5c0-0.72,0.3-1.29,0.9-1.71c0.6-0.42,1.43-0.63,2.51-0.63h1.48v-0.84
		c0-0.53-0.16-0.94-0.49-1.25c-0.33-0.3-0.8-0.45-1.42-0.45c-0.57,0-1.04,0.15-1.42,0.44s-0.56,0.64-0.56,1.05l-0.82-0.01
		c0-0.59,0.27-1.1,0.82-1.53s1.22-0.65,2.02-0.65c0.83,0,1.48,0.21,1.95,0.62c0.48,0.41,0.72,0.99,0.73,1.73v3.5
		c0,0.72,0.08,1.25,0.23,1.61v0.08H153.49z M150.92,36.51c0.55,0,1.04-0.13,1.47-0.4c0.43-0.26,0.74-0.62,0.94-1.06v-1.63h-1.46
		c-0.82,0.01-1.45,0.16-1.91,0.45s-0.69,0.69-0.69,1.19c0,0.41,0.15,0.76,0.46,1.03C150.03,36.37,150.43,36.51,150.92,36.51z"/>
	<path class="st22" d="M164.35,37.1c-0.07-0.14-0.14-0.37-0.19-0.69c-0.53,0.55-1.18,0.83-1.94,0.83c-0.74,0-1.35-0.21-1.82-0.64
		s-0.7-0.95-0.7-1.57c0-0.79,0.29-1.39,0.88-1.81c0.58-0.42,1.42-0.63,2.51-0.63h1.02v-0.49c0-0.38-0.11-0.69-0.32-0.92
		s-0.54-0.35-0.98-0.35c-0.38,0-0.69,0.09-0.93,0.28s-0.36,0.43-0.36,0.72h-1.66c0-0.41,0.13-0.79,0.4-1.14s0.63-0.63,1.1-0.83
		c0.46-0.2,0.98-0.3,1.55-0.3c0.87,0,1.56,0.22,2.07,0.65s0.78,1.05,0.79,1.84v3.34c0,0.67,0.09,1.2,0.28,1.59v0.12H164.35z
		 M162.53,35.9c0.33,0,0.64-0.08,0.93-0.24c0.29-0.16,0.51-0.37,0.65-0.64v-1.39h-0.9c-0.62,0-1.08,0.11-1.39,0.32
		s-0.46,0.52-0.46,0.91c0,0.32,0.11,0.57,0.32,0.76C161.89,35.81,162.17,35.9,162.53,35.9z"/>
	<path class="st22" d="M170.75,35.91c0.42,0,0.76-0.12,1.03-0.36s0.42-0.54,0.44-0.9h1.57c-0.02,0.46-0.16,0.89-0.43,1.29
		s-0.63,0.71-1.09,0.95s-0.96,0.35-1.49,0.35c-1.03,0-1.85-0.33-2.46-1s-0.91-1.6-0.91-2.78v-0.17c0-1.13,0.3-2.03,0.9-2.7
		s1.42-1.02,2.46-1.02c0.88,0,1.6,0.26,2.15,0.77c0.55,0.51,0.84,1.19,0.87,2.02h-1.57c-0.02-0.42-0.16-0.77-0.43-1.05
		c-0.27-0.27-0.62-0.41-1.04-0.41c-0.54,0-0.95,0.19-1.24,0.58s-0.44,0.98-0.44,1.77v0.27c0,0.8,0.14,1.4,0.43,1.79
		C169.79,35.71,170.21,35.91,170.75,35.91z"/>
	<path class="st22" d="M174.94,33.33c0-0.72,0.14-1.38,0.43-1.96s0.69-1.03,1.21-1.34s1.12-0.47,1.79-0.47c1,0,1.81,0.32,2.43,0.96
		c0.62,0.64,0.96,1.49,1.01,2.56l0.01,0.39c0,0.73-0.14,1.38-0.42,1.96c-0.28,0.57-0.68,1.02-1.2,1.33
		c-0.52,0.31-1.12,0.47-1.81,0.47c-1.04,0-1.88-0.35-2.5-1.04c-0.63-0.69-0.94-1.62-0.94-2.78V33.33z M176.6,33.48
		c0,0.76,0.16,1.36,0.47,1.79s0.75,0.65,1.31,0.65s1-0.22,1.31-0.66c0.31-0.44,0.47-1.08,0.47-1.92c0-0.75-0.16-1.34-0.48-1.78
		c-0.32-0.44-0.76-0.66-1.31-0.66c-0.54,0-0.97,0.22-1.29,0.65S176.6,32.62,176.6,33.48z"/>
	<path class="st22" d="M185,29.7l0.05,0.77c0.52-0.61,1.23-0.91,2.13-0.91c0.99,0,1.67,0.38,2.03,1.13
		c0.54-0.76,1.29-1.13,2.27-1.13c0.82,0,1.42,0.23,1.82,0.68c0.4,0.45,0.6,1.12,0.61,2v4.86h-1.66v-4.81c0-0.47-0.1-0.81-0.31-1.03
		s-0.54-0.33-1.02-0.33c-0.38,0-0.69,0.1-0.93,0.3c-0.24,0.2-0.41,0.47-0.5,0.8l0.01,5.07h-1.66v-4.87
		c-0.02-0.87-0.47-1.31-1.33-1.31c-0.67,0-1.14,0.27-1.42,0.81v5.36h-1.66v-7.4H185z"/>
	<path class="st22" d="M202.3,33.48c0,1.14-0.26,2.06-0.78,2.74s-1.22,1.02-2.09,1.02c-0.81,0-1.46-0.27-1.95-0.8v3.51h-1.66V29.7
		h1.53l0.07,0.75c0.49-0.59,1.15-0.89,1.99-0.89c0.9,0,1.61,0.34,2.12,1.01c0.51,0.67,0.77,1.61,0.77,2.8V33.48z M200.65,33.33
		c0-0.74-0.15-1.32-0.44-1.76c-0.29-0.43-0.71-0.65-1.26-0.65c-0.68,0-1.17,0.28-1.46,0.84v3.28c0.3,0.57,0.79,0.86,1.48,0.86
		c0.53,0,0.94-0.21,1.24-0.64C200.5,34.84,200.65,34.2,200.65,33.33z"/>
	<path class="st22" d="M208.34,37.1c-0.07-0.14-0.14-0.37-0.19-0.69c-0.53,0.55-1.18,0.83-1.94,0.83c-0.74,0-1.35-0.21-1.82-0.64
		s-0.7-0.95-0.7-1.57c0-0.79,0.29-1.39,0.88-1.81c0.58-0.42,1.42-0.63,2.51-0.63h1.02v-0.49c0-0.38-0.11-0.69-0.32-0.92
		s-0.54-0.35-0.98-0.35c-0.38,0-0.69,0.09-0.93,0.28s-0.36,0.43-0.36,0.72h-1.66c0-0.41,0.13-0.79,0.4-1.14s0.63-0.63,1.1-0.83
		c0.46-0.2,0.98-0.3,1.55-0.3c0.87,0,1.56,0.22,2.07,0.65s0.78,1.05,0.79,1.84v3.34c0,0.67,0.09,1.2,0.28,1.59v0.12H208.34z
		 M206.51,35.9c0.33,0,0.64-0.08,0.93-0.24c0.29-0.16,0.51-0.37,0.65-0.64v-1.39h-0.9c-0.62,0-1.08,0.11-1.39,0.32
		s-0.46,0.52-0.46,0.91c0,0.32,0.11,0.57,0.32,0.76C205.87,35.81,206.16,35.9,206.51,35.9z"/>
	<path class="st22" d="M213.24,29.7l0.05,0.85c0.55-0.66,1.26-0.99,2.15-0.99c1.54,0,2.32,0.88,2.35,2.65v4.89h-1.66v-4.79
		c0-0.47-0.1-0.82-0.3-1.04c-0.2-0.23-0.54-0.34-1-0.34c-0.67,0-1.17,0.3-1.5,0.91v5.26h-1.66v-7.4H213.24z"/>
	<path class="st22" d="M221.34,30.51c0.54-0.63,1.23-0.94,2.06-0.94c1.58,0,2.38,0.9,2.4,2.7v4.83h-1.66v-4.77
		c0-0.51-0.11-0.87-0.33-1.08c-0.22-0.21-0.55-0.32-0.97-0.32c-0.67,0-1.16,0.3-1.49,0.89v5.28h-1.66V26.6h1.66V30.51z"/>
	<path class="st22" d="M232.1,37.1c-0.07-0.14-0.14-0.37-0.19-0.69c-0.53,0.55-1.18,0.83-1.94,0.83c-0.74,0-1.35-0.21-1.82-0.64
		s-0.7-0.95-0.7-1.57c0-0.79,0.29-1.39,0.88-1.81c0.58-0.42,1.42-0.63,2.51-0.63h1.02v-0.49c0-0.38-0.11-0.69-0.32-0.92
		s-0.54-0.35-0.98-0.35c-0.38,0-0.69,0.09-0.93,0.28s-0.36,0.43-0.36,0.72h-1.66c0-0.41,0.13-0.79,0.4-1.14s0.63-0.63,1.1-0.83
		c0.46-0.2,0.98-0.3,1.55-0.3c0.87,0,1.56,0.22,2.07,0.65s0.78,1.05,0.79,1.84v3.34c0,0.67,0.09,1.2,0.28,1.59v0.12H232.1z
		 M230.27,35.9c0.33,0,0.64-0.08,0.93-0.24c0.29-0.16,0.51-0.37,0.65-0.64v-1.39h-0.9c-0.62,0-1.08,0.11-1.39,0.32
		s-0.46,0.52-0.46,0.91c0,0.32,0.11,0.57,0.32,0.76C229.64,35.81,229.92,35.9,230.27,35.9z"/>
	<path class="st22" d="M239.34,31.22c-0.22-0.04-0.44-0.05-0.68-0.05c-0.76,0-1.27,0.29-1.54,0.87v5.06h-1.66v-7.4h1.59l0.04,0.83
		c0.4-0.64,0.96-0.96,1.67-0.96c0.24,0,0.43,0.03,0.59,0.1L239.34,31.22z"/>
	<path class="st22" d="M250.77,33.48c0,1.14-0.26,2.06-0.78,2.74s-1.22,1.02-2.09,1.02c-0.81,0-1.46-0.27-1.95-0.8v3.51h-1.66V29.7
		h1.53l0.07,0.75c0.49-0.59,1.15-0.89,1.99-0.89c0.9,0,1.61,0.34,2.12,1.01c0.51,0.67,0.77,1.61,0.77,2.8V33.48z M249.12,33.33
		c0-0.74-0.15-1.32-0.44-1.76c-0.29-0.43-0.71-0.65-1.26-0.65c-0.68,0-1.17,0.28-1.46,0.84v3.28c0.3,0.57,0.79,0.86,1.48,0.86
		c0.53,0,0.94-0.21,1.24-0.64C248.97,34.84,249.12,34.2,249.12,33.33z"/>
	<path class="st22" d="M256.26,31.22c-0.22-0.04-0.44-0.05-0.68-0.05c-0.76,0-1.27,0.29-1.54,0.87v5.06h-1.66v-7.4h1.59l0.04,0.83
		c0.4-0.64,0.96-0.96,1.67-0.96c0.24,0,0.43,0.03,0.59,0.1L256.26,31.22z"/>
	<path class="st22" d="M256.96,33.33c0-0.72,0.14-1.38,0.43-1.96s0.69-1.03,1.21-1.34s1.12-0.47,1.79-0.47c1,0,1.81,0.32,2.43,0.96
		c0.62,0.64,0.96,1.49,1.01,2.56l0.01,0.39c0,0.73-0.14,1.38-0.42,1.96c-0.28,0.57-0.68,1.02-1.2,1.33
		c-0.52,0.31-1.12,0.47-1.81,0.47c-1.04,0-1.88-0.35-2.5-1.04c-0.63-0.69-0.94-1.62-0.94-2.78V33.33z M258.62,33.48
		c0,0.76,0.16,1.36,0.47,1.79s0.75,0.65,1.31,0.65s1-0.22,1.31-0.66c0.31-0.44,0.47-1.08,0.47-1.92c0-0.75-0.16-1.34-0.48-1.78
		c-0.32-0.44-0.76-0.66-1.31-0.66c-0.54,0-0.97,0.22-1.29,0.65S258.62,32.62,258.62,33.48z"/>
	<path class="st22" d="M267.18,29.7v8.05c0,0.76-0.19,1.33-0.56,1.73c-0.38,0.4-0.93,0.6-1.65,0.6c-0.31,0-0.6-0.04-0.88-0.12v-1.31
		c0.17,0.04,0.37,0.06,0.59,0.06c0.55,0,0.83-0.3,0.85-0.9V29.7H267.18z M265.38,27.78c0-0.26,0.08-0.47,0.24-0.64
		c0.16-0.17,0.39-0.25,0.69-0.25s0.53,0.08,0.7,0.25s0.25,0.38,0.25,0.64c0,0.25-0.08,0.46-0.25,0.63s-0.4,0.25-0.7,0.25
		s-0.53-0.08-0.69-0.25C265.46,28.24,265.38,28.03,265.38,27.78z"/>
	<path class="st22" d="M272.43,37.24c-1.05,0-1.91-0.33-2.56-0.99c-0.65-0.66-0.98-1.55-0.98-2.65v-0.21c0-0.74,0.14-1.4,0.43-1.98
		c0.29-0.58,0.69-1.03,1.2-1.36s1.09-0.49,1.72-0.49c1.01,0,1.79,0.32,2.33,0.96c0.55,0.64,0.82,1.55,0.82,2.73v0.67h-4.83
		c0.05,0.61,0.25,1.09,0.61,1.45c0.36,0.36,0.81,0.53,1.35,0.53c0.76,0,1.38-0.31,1.86-0.92l0.9,0.85c-0.3,0.44-0.69,0.79-1.19,1.03
		C273.6,37.11,273.04,37.24,272.43,37.24z M272.23,30.9c-0.46,0-0.82,0.16-1.1,0.48c-0.28,0.32-0.46,0.76-0.54,1.33h3.17v-0.12
		c-0.04-0.56-0.18-0.98-0.44-1.26S272.69,30.9,272.23,30.9z"/>
	<path class="st22" d="M278.97,27.9v1.8h1.31v1.23h-1.31v4.13c0,0.28,0.06,0.49,0.17,0.61c0.11,0.13,0.31,0.19,0.6,0.19
		c0.19,0,0.38-0.02,0.58-0.07v1.29c-0.38,0.1-0.74,0.16-1.09,0.16c-1.28,0-1.91-0.7-1.91-2.11v-4.19h-1.22V29.7h1.22v-1.8H278.97z"
		/>
	<path class="st22" d="M281.24,33.33c0-0.72,0.14-1.38,0.43-1.96s0.69-1.03,1.21-1.34s1.12-0.47,1.79-0.47c1,0,1.81,0.32,2.43,0.96
		c0.62,0.64,0.96,1.49,1.01,2.56l0.01,0.39c0,0.73-0.14,1.38-0.42,1.96c-0.28,0.57-0.68,1.02-1.2,1.33
		c-0.52,0.31-1.12,0.47-1.81,0.47c-1.04,0-1.88-0.35-2.5-1.04c-0.63-0.69-0.94-1.62-0.94-2.78V33.33z M282.9,33.48
		c0,0.76,0.16,1.36,0.47,1.79s0.75,0.65,1.31,0.65s1-0.22,1.31-0.66c0.31-0.44,0.47-1.08,0.47-1.92c0-0.75-0.16-1.34-0.48-1.78
		c-0.32-0.44-0.76-0.66-1.31-0.66c-0.54,0-0.97,0.22-1.29,0.65S282.9,32.62,282.9,33.48z"/>
	<path class="st22" d="M293.88,35.09c0-0.3-0.12-0.52-0.37-0.68c-0.24-0.15-0.65-0.29-1.21-0.41s-1.04-0.27-1.42-0.45
		c-0.83-0.4-1.24-0.98-1.24-1.74c0-0.64,0.27-1.17,0.81-1.6s1.22-0.64,2.05-0.64c0.88,0,1.6,0.22,2.14,0.66
		c0.54,0.44,0.82,1,0.82,1.7h-1.66c0-0.32-0.12-0.58-0.36-0.8s-0.55-0.32-0.94-0.32c-0.36,0-0.66,0.08-0.89,0.25
		c-0.23,0.17-0.35,0.39-0.35,0.68c0,0.26,0.11,0.45,0.32,0.59s0.65,0.28,1.3,0.43s1.16,0.31,1.53,0.51c0.37,0.2,0.65,0.44,0.83,0.71
		c0.18,0.28,0.27,0.62,0.27,1.01c0,0.67-0.28,1.2-0.83,1.62s-1.27,0.62-2.17,0.62c-0.61,0-1.15-0.11-1.62-0.33s-0.84-0.52-1.11-0.9
		s-0.4-0.8-0.4-1.24h1.61c0.02,0.39,0.17,0.69,0.44,0.91s0.64,0.32,1.09,0.32c0.44,0,0.77-0.08,1-0.25S293.88,35.36,293.88,35.09z"
		/>
</g>
<g>
	<g>
		<path class="st2" d="M53.21,54.94c9.86-20.43,32.77-27.59,53.66-30.77c-0.4,1.49-0.79,2.99-1.18,4.48
			c-2.67-2.76-5.96-4.35-9.75-4.88c0.48-1.72,0.95-3.45,1.43-5.16c2.59,0.59,5.13,1.3,7.64,2.19c2.1,0.75,4.91,1.43,5.96,3.62
			c1.13,2.37-0.44,4.53-1.76,6.4c-1.48,2.1-3.03,4.11-4.92,5.86c-1.87,1.75-5.42-0.6-3.73-2.89c1.1-1.49,2.27-2.95,3.35-4.45
			c0.41-0.57,0.81-1.14,1.21-1.73c0.25-0.38,0.51-0.78,0.76-1.18c0.33-0.76,0.44-0.62,0.35,0.43c-0.13,0.14-4.15-1.48-4.67-1.64
			c-1.84-0.57-3.7-1.05-5.59-1.48c-2.89-0.64-2.32-5.65,0.71-5.26c4.96,0.65,9.36,2.7,12.82,6.34c1.24,1.3,0.92,4.16-1.18,4.48
			c-10.71,1.54-21.56,3.83-31.28,8.74C68.76,42.25,60.7,48.47,55.6,56.3C54.62,57.83,52.44,56.53,53.21,54.94L53.21,54.94z"/>
	</g>
</g>
</svg>
