<svg id="Camada_1" data-name="Camada 1" xmlns="http://www.w3.org/2000/svg" viewBox="0 0 1145.64 164.86"><defs><style>.cls-1{fill:#010102;}.cls-2{fill:#f2a11b;}.cls-3{font-size:37.18px;fill:#1d1d1b;font-family:RobotoMono-Regular, Roboto Mono;}.cls-4{fill:#21344a;}.cls-5{fill:#f3f0f0;}.cls-6{fill:#fff;}.cls-10,.cls-7{fill:#f6a216;}.cls-11,.cls-8,.cls-9{fill:none;}.cls-10,.cls-11,.cls-8,.cls-9{stroke:#21344a;}.cls-11,.cls-8{stroke-linecap:round;}.cls-8{stroke-linejoin:round;stroke-width:7.35px;}.cls-10,.cls-11,.cls-9{stroke-miterlimit:10;}.cls-9{stroke-width:4px;}.cls-10{stroke-width:2.5px;}.cls-11{stroke-width:5px;}</style></defs><path class="cls-1" d="M254.9,91.76q0,21.27-9.08,33.17t-25.37,11.91q-14.4,0-23-11l-1.06,9.41H175.12V9.53h23.65V54.61Q206.95,45,220.29,45q16.2,0,25.4,11.9t9.21,33.51ZM231.25,90q0-13.42-4.25-19.6t-12.68-6.18q-11.3,0-15.55,9.25v34.94q4.33,9.33,15.71,9.33t15.05-11.3Q231.26,101.08,231.25,90Z"/><path class="cls-1" d="M318.63,126.2q-8.76,10.63-24.22,10.64-14.24,0-21.72-8.18t-7.65-24v-58h23.64v57.26q0,13.84,12.6,13.85,12,0,16.53-8.36V46.67h23.73V135.2H319.28Z"/><path class="cls-1" d="M403.47,110.74q0-4.33-4.3-6.83t-13.79-4.46Q353.8,92.82,353.8,72.61q0-11.77,9.78-19.68T389.15,45q16.86,0,27,7.93a25,25,0,0,1,10.1,20.62H402.57a11.39,11.39,0,0,0-3.28-8.38Q396,61.9,389.07,61.89q-6,0-9.25,2.7a8.52,8.52,0,0,0-3.27,6.87,7.3,7.3,0,0,0,3.72,6.35Q384,80.22,392.83,82a101.43,101.43,0,0,1,14.89,4q18.73,6.87,18.74,23.81,0,12.1-10.39,19.59t-26.84,7.49a46.76,46.76,0,0,1-19.76-4A33.11,33.11,0,0,1,355.93,122,25.31,25.31,0,0,1,351,107.06h22.42q.33,6.3,4.66,9.65t11.62,3.36q6.79,0,10.27-2.58A8,8,0,0,0,403.47,110.74Z"/><path class="cls-1" d="M485.77,110.74q0-4.33-4.3-6.83t-13.78-4.46q-31.59-6.63-31.58-26.84,0-11.77,9.77-19.68T471.45,45q16.86,0,27,7.93a25,25,0,0,1,10.11,20.62H484.87a11.42,11.42,0,0,0-3.27-8.38c-2.19-2.21-5.59-3.32-10.23-3.32q-6,0-9.25,2.7a8.52,8.52,0,0,0-3.27,6.87,7.3,7.3,0,0,0,3.72,6.35q3.74,2.41,12.56,4.17A101.6,101.6,0,0,1,490,86q18.72,6.87,18.73,23.81,0,12.1-10.39,19.59t-26.84,7.49a46.76,46.76,0,0,1-19.76-4A33.11,33.11,0,0,1,438.23,122a25.31,25.31,0,0,1-4.91-14.93h22.42q.33,6.3,4.67,9.65T472,120.07q6.8,0,10.27-2.58A8,8,0,0,0,485.77,110.74Z"/><path class="cls-1" d="M516.44,90.12a52.38,52.38,0,0,1,5.08-23.48,37.21,37.21,0,0,1,14.6-16A42.65,42.65,0,0,1,558.25,45q17.93,0,29.26,11t12.64,29.78l.16,6.06q0,20.37-11.37,32.68t-30.52,12.32q-19.15,0-30.56-12.27T516.44,91.18Zm23.65,1.68q0,12.61,4.75,19.3t13.58,6.68a15.71,15.71,0,0,0,13.42-6.6q4.83-6.6,4.82-21.1,0-12.37-4.82-19.18a15.71,15.71,0,0,0-13.59-6.8,15.43,15.43,0,0,0-13.41,6.76Q540.08,77.63,540.09,91.8Z"/><path class="cls-1" d="M636,135.2H612.25V9.53H636Z"/><path class="cls-1" d="M702.9,135.2a26,26,0,0,1-2.38-7.93q-8.58,9.57-22.33,9.57-13,0-21.56-7.53a24.2,24.2,0,0,1-8.55-19q0-14.07,10.43-21.6t30.15-7.61h10.88V76.05q0-6.15-3.15-9.82t-9.94-3.68q-6,0-9.37,2.86a9.74,9.74,0,0,0-3.39,7.85H650A23.7,23.7,0,0,1,654.79,59a31.24,31.24,0,0,1,13.42-10.27A48.91,48.91,0,0,1,687.68,45q16.37,0,26,8.22t9.61,23.11v38.38q.08,12.6,3.52,19.06v1.39Zm-19.56-16.44a20.45,20.45,0,0,0,9.66-2.33,15.42,15.42,0,0,0,6.54-6.26V95h-8.83q-17.76,0-18.9,12.27l-.09,1.39a9.47,9.47,0,0,0,3.11,7.28C676.91,117.8,679.74,118.76,683.34,118.76Z"/><polygon class="cls-2" points="288.68 46.67 288.68 3.43 322.79 3.43 288.68 46.67"/><text class="cls-3" transform="translate(753.56 135.2)">sistema prisional</text><path class="cls-4" d="M55.47,19.06a71.86,71.86,0,1,1-12.74,5.1,9,9,0,0,0,12.74-5.1Zm80.05,45a64.49,64.49,0,1,0-35.86,83.85A64.57,64.57,0,0,0,135.52,64Z"/><path class="cls-4" d="M121.62,68.1a1.38,1.38,0,1,1,1,2.56l-1.27.51c-.15-.43-.32-.86-.49-1.29s-.35-.85-.54-1.27Z"/><path class="cls-5" d="M120.35,68.61c.19.42.37.84.54,1.27s.34.86.49,1.29L79.33,88l-1.79-.77.77-1.8Z"/><path class="cls-6" d="M120.35,68.61l-42,16.85L96.12,43.82A48.49,48.49,0,0,1,120.35,68.61Z"/><path class="cls-6" d="M79.33,88l42.05-16.86a48.52,48.52,0,0,1-.4,34.67Z"/><path class="cls-7" d="M51.67,28.14A64.49,64.49,0,1,1,15.79,112,64.57,64.57,0,0,1,51.67,28.14Zm76,39a56.07,56.07,0,1,0-31.19,72.91A56.07,56.07,0,0,0,127.71,67.15Z"/><path class="cls-4" d="M54.8,36a56.07,56.07,0,1,1-31.19,72.91A56.07,56.07,0,0,1,54.8,36Zm68.62,32.91a1.39,1.39,0,0,0-1.8-.77l-1.27.51A48.49,48.49,0,0,0,96.12,43.82l.54-1.26a1.38,1.38,0,0,0-2.54-1.08l-.54,1.25a48.51,48.51,0,0,0-34.69-.47l-.48-1.19a1.38,1.38,0,1,0-2.56,1l.47,1.18A48.49,48.49,0,0,0,31.47,67.55l-1.17-.5a1.38,1.38,0,0,0-1.09,2.54l1.17.5a48.47,48.47,0,0,0-.44,34.75l-1.14.46a1.38,1.38,0,0,0,1,2.56l1.13-.45a48.51,48.51,0,0,0,24.33,24.84l-.5,1.16a1.38,1.38,0,0,0,.73,1.81,1.37,1.37,0,0,0,1,0,1.35,1.35,0,0,0,.76-.74l.5-1.16a48.57,48.57,0,0,0,34.73.39L93,134.9a1.38,1.38,0,1,0,2.56-1l-.47-1.19a48.57,48.57,0,0,0,24.77-24.3l1.25.54a1.37,1.37,0,0,0,1,0,1.35,1.35,0,0,0,.76-.74,1.37,1.37,0,0,0-.72-1.81l-1.26-.54a48.52,48.52,0,0,0,.4-34.67l1.27-.51A1.38,1.38,0,0,0,123.42,68.87Z"/><path class="cls-4" d="M95.93,40.75a1.37,1.37,0,0,1,.73,1.81l-.54,1.26c-.83-.4-1.68-.76-2.54-1.09l.54-1.25A1.37,1.37,0,0,1,95.93,40.75Z"/><path class="cls-4" d="M122.24,106.38a1.37,1.37,0,0,1,.72,1.81,1.35,1.35,0,0,1-.76.74,1.37,1.37,0,0,1-1,0l-1.25-.54c.39-.84.75-1.68,1.08-2.54Z"/><path class="cls-5" d="M96.12,43.82,78.31,85.46l-.77,1.8,1.79.77L121,105.84c-.33.86-.69,1.7-1.08,2.54L78.25,90.56l16.88,42.12-1.34.56-1.23.48L75.68,91.59,57.83,133.33c-.85-.33-1.7-.7-2.54-1.08L73.15,90.5,31,107.41c-.18-.42-.36-.85-.53-1.28s-.34-.85-.49-1.29l42.17-16.9L30.38,70.09c.33-.87.7-1.71,1.09-2.54L73.2,85.41,56.32,43.28l1.22-.5,1.35-.52L75.77,84.38,93.58,42.73C94.44,43.06,95.29,43.42,96.12,43.82Z"/><path class="cls-6" d="M93.58,42.73,75.77,84.38,58.89,42.26A48.51,48.51,0,0,1,93.58,42.73Z"/><path class="cls-6" d="M78.25,90.56l41.65,17.82a48.57,48.57,0,0,1-24.77,24.3Z"/><path class="cls-7" d="M55.3,12.78a9,9,0,0,1,.17,6.28q-3.28,1-6.53,2.27c-2.14.85-4.21,1.8-6.21,2.83a8.94,8.94,0,0,1-4.21-4.65A9,9,0,1,1,55.3,12.78Z"/><path class="cls-4" d="M55.47,19.06a9,9,0,0,1-12.74,5.1c2-1,4.07-2,6.21-2.83S53.28,19.7,55.47,19.06Z"/><path class="cls-4" d="M95.13,132.68l.47,1.19a1.38,1.38,0,1,1-2.56,1l-.48-1.18,1.23-.48Z"/><path class="cls-4" d="M58.41,41.07l.48,1.19-1.35.52-1.22.5-.47-1.18a1.38,1.38,0,1,1,2.56-1Z"/><path class="cls-6" d="M75.68,91.59l16.88,42.13a48.57,48.57,0,0,1-34.73-.39Z"/><path class="cls-6" d="M56.32,43.28,73.2,85.41,31.47,67.55A48.49,48.49,0,0,1,56.32,43.28Z"/><path class="cls-6" d="M73.15,90.5,55.29,132.25A48.51,48.51,0,0,1,31,107.41Z"/><path class="cls-6" d="M72.11,87.94l-42.17,16.9a48.47,48.47,0,0,1,.44-34.75Z"/><path class="cls-4" d="M57.83,133.33l-.5,1.16a1.35,1.35,0,0,1-.76.74,1.37,1.37,0,0,1-1,0,1.38,1.38,0,0,1-.73-1.81l.5-1.16C56.13,132.63,57,133,57.83,133.33Z"/><path class="cls-4" d="M30.3,67.05l1.17.5c-.39.83-.76,1.67-1.09,2.54l-1.17-.5a1.38,1.38,0,0,1,1.09-2.54Z"/><path class="cls-4" d="M28.8,105.3l1.14-.46c.15.44.32.87.49,1.29s.35.86.53,1.28l-1.13.45a1.38,1.38,0,0,1-1-2.56Z"/><path class="cls-8" d="M55.47,19.06a9,9,0,1,0-5.2,5.48A9,9,0,0,0,55.47,19.06Z"/><line class="cls-9" x1="60.6" y1="58.54" x2="60.6" y2="115.96"/><line class="cls-9" x1="71.9" y1="58.54" x2="71.9" y2="115.96"/><line class="cls-9" x1="83.19" y1="58.54" x2="83.19" y2="115.96"/><line class="cls-9" x1="94.48" y1="58.54" x2="94.48" y2="115.96"/><rect class="cls-10" x="67.41" y="74.58" width="20.27" height="25.35" rx="5.67"/><path class="cls-4" d="M80.88,85.09a3.34,3.34,0,0,0-6.68,0A3.29,3.29,0,0,0,75.89,88v4.2a.6.6,0,0,0,.6.6H78.6a.6.6,0,0,0,.6-.6V88A3.34,3.34,0,0,0,80.88,85.09Z"/><line class="cls-11" x1="55.51" y1="58.54" x2="99.58" y2="58.54"/><line class="cls-11" x1="55.51" y1="115.96" x2="99.58" y2="115.96"/></svg>