<?xml version="1.0" encoding="utf-8"?>
<!-- Generator: Adobe Illustrator 24.1.2, SVG Export Plug-In . SVG Version: 6.00 Build 0)  -->
<svg version="1.1" id="Camada_1" xmlns="http://www.w3.org/2000/svg" xmlns:xlink="http://www.w3.org/1999/xlink" x="0px" y="0px"
	 viewBox="0 0 170.53 593.81" style="enable-background:new 0 0 170.53 593.81;" xml:space="preserve">
<style type="text/css">
	.st0{fill:#9273B2;}
	.st1{fill:#7EBFC9;}
	.st2{fill:#C94F45;}
	.st3{fill:#FFFFFF;}
	.st4{fill:#C84F45;}
	.st5{fill:#020203;}
	.st6{fill:#6462A1;}
	.st7{fill:#C7615A;}
	.st8{fill:#92C293;}
	.st9{fill:#E3A5B8;}
	.st10{fill:#C2A93D;}
	.st11{fill:#23354B;}
	.st12{fill:#F3F0F0;}
	.st13{fill:none;stroke:#21344A;stroke-width:5;stroke-linecap:round;stroke-linejoin:round;stroke-miterlimit:10;}
	.st14{fill:none;stroke:#21344A;stroke-width:5;stroke-linecap:round;stroke-linejoin:round;}
	.st15{fill:#8ECECD;stroke:#21344A;stroke-width:4;stroke-linecap:round;stroke-linejoin:round;stroke-miterlimit:10;}
	.st16{fill:#C3CE55;stroke:#21344A;stroke-width:4;stroke-linecap:round;stroke-linejoin:round;stroke-miterlimit:10;}
	.st17{fill:#9273B2;stroke:#21344A;stroke-width:4;stroke-linecap:round;stroke-linejoin:round;stroke-miterlimit:10;}
	.st18{fill:#B04A3F;stroke:#21344A;stroke-width:4;stroke-linecap:round;stroke-linejoin:round;stroke-miterlimit:10;}
	.st19{fill:#B04A3F;}
	.st20{fill:#C3CE55;}
	.st21{fill:#8ECECD;}
	.st22{fill:#21344A;}
	.st23{fill:none;stroke:#21344A;stroke-width:4;stroke-linecap:round;stroke-linejoin:round;stroke-miterlimit:10;}
	.st24{fill:#C55248;}
	.st25{fill:#D8D5D5;}
	.st26{fill:none;stroke:#21344A;stroke-width:3;stroke-linecap:round;stroke-linejoin:round;}
	.st27{fill:#FFFFFF;stroke:#C94F45;stroke-width:7;stroke-miterlimit:10;}
	.st28{fill:#FFFFFF;stroke:#21344A;stroke-width:7;stroke-miterlimit:10;}
	.st29{fill:#FFFFFF;stroke:#9273B1;stroke-width:9;stroke-miterlimit:10;}
	.st30{fill:#8FCECD;stroke:#020203;stroke-width:4;stroke-linecap:round;stroke-linejoin:round;}
	.st31{fill:none;stroke:#020203;stroke-width:4;stroke-linecap:round;stroke-linejoin:round;}
	.st32{fill:none;stroke:#21344A;stroke-width:4;stroke-linecap:round;stroke-linejoin:round;}
	.st33{fill:#9273B2;stroke:#21344A;stroke-width:5;stroke-linecap:round;stroke-linejoin:round;stroke-miterlimit:10;}
</style>
<g id="XMLID_17_">
	<g>
		<path class="st25" d="M182.01,237.73c2.19-2.19,1.29-6.63-2.5-10.43c-3.79-3.79-8.24-4.69-10.43-2.5l-0.2,0.21l-37.73,40.19
			c-1.21,1.21-1.3,3.24-0.26,5.39l5.33,5.33c2.15,1.05,4.18,0.96,5.39-0.26l40.19-37.73L182.01,237.73z"/>
		<polygon class="st25" points="136.22,275.92 136.22,275.92 130.89,270.59 130.88,270.59 125.9,275.58 131.23,280.91 		"/>
		<path class="st24" d="M126.99,347.4c18.67-18.67,18.67-48.93,0.01-67.59c-18.66-18.67-48.93-18.66-67.59,0.01
			c-18.65,18.66-18.66,48.92,0,67.59C78.07,366.07,108.34,366.06,126.99,347.4z M117.11,289.7c13.2,13.2,13.19,34.61-0.01,47.8
			c-13.19,13.18-34.59,13.2-47.79,0s-13.19-34.6,0-47.79C82.51,276.52,103.91,276.5,117.11,289.7z"/>
		<path class="st3" d="M117.1,337.51c13.2-13.2,13.2-34.6,0.01-47.8c-13.2-13.2-34.6-13.18-47.8,0.01
			c-13.19,13.19-13.2,34.59,0,47.79S103.91,350.69,117.1,337.51z"/>
	</g>
	<g>
		<path class="st32" d="M59.41,347.4c-18.66-18.67-18.65-48.93,0-67.59c18.67-18.67,48.93-18.67,67.59-0.01
			c18.67,18.67,18.66,48.93-0.01,67.59C108.34,366.06,78.07,366.07,59.41,347.4z"/>
		<path class="st26" d="M117.11,289.7c-13.2-13.2-34.6-13.18-47.8,0.01c-13.19,13.19-13.2,34.59,0,47.79s34.6,13.18,47.79,0
			C130.3,324.31,130.3,302.91,117.11,289.7z"/>
		<path class="st32" d="M136.22,275.92c2.15,1.05,4.18,0.96,5.39-0.26l40.19-37.73l0.21-0.2c2.19-2.19,1.29-6.63-2.5-10.43
			c-3.79-3.79-8.24-4.69-10.43-2.5l-0.2,0.21l-37.73,40.19c-1.21,1.21-1.3,3.24-0.26,5.39"/>
		<line class="st32" x1="136.22" y1="275.92" x2="130.89" y2="270.59"/>
		<polyline class="st26" points="130.89,270.59 130.88,270.59 125.9,275.58 131.23,280.91 136.22,275.92 136.22,275.92 		"/>
	</g>
</g>
<g id="XMLID_15_">
	<g>
		<path class="st20" d="M178.87,134.07l-15.95-3.3c-0.97,1.96-2.1,3.88-3.36,5.74c-1.26,1.86-2.63,3.61-4.09,5.24l8.95,13.61
			c-6.14,6.02-13.4,10.8-21.37,14.04l-8.94-13.61c-4.21,1.4-8.6,2.24-13.04,2.49l-3.3,15.95c-4.21-0.03-8.49-0.49-12.77-1.37
			c-4.28-0.88-8.39-2.17-12.27-3.81l3.3-15.95c-1.96-0.97-3.88-2.1-5.74-3.36c-1.86-1.26-3.61-2.63-5.24-4.09l-13.61,8.95
			c-6.03-6.13-10.8-13.41-14.04-21.37L71,124.27c-1.41-4.21-2.24-8.6-2.49-13.03l-15.95-3.3c0.04-4.22,0.48-8.49,1.37-12.77
			c0.88-4.28,2.17-8.39,3.81-12.27l15.95,3.3c0.97-1.96,2.1-3.88,3.36-5.74c1.26-1.86,2.63-3.61,4.09-5.24L72.2,61.61
			c6.13-6.03,13.4-10.81,21.37-14.05l8.94,13.61c4.21-1.4,8.6-2.24,13.04-2.49l3.3-15.95c4.21,0.03,8.49,0.49,12.77,1.37
			c4.28,0.88,8.39,2.17,12.27,3.81l-3.3,15.95c1.96,0.97,3.88,2.1,5.74,3.36c1.86,1.26,3.61,2.63,5.24,4.09l13.61-8.95
			c6.02,6.14,10.8,13.4,14.04,21.37l-13.61,8.94c1.4,4.21,2.24,8.6,2.49,13.04l15.95,3.3c-0.03,4.21-0.48,8.49-1.37,12.77
			C181.8,126.08,180.51,130.19,178.87,134.07z M133.64,118.9c5.76-8.47,3.55-20-4.92-25.75c-8.47-5.76-20-3.55-25.75,4.92
			c-5.76,8.47-3.55,20,4.92,25.75C116.36,129.57,127.89,127.37,133.64,118.9z"/>
		<circle class="st3" cx="118.31" cy="108.48" r="18.54"/>
	</g>
	<g>
		<circle class="st23" cx="118.31" cy="108.48" r="18.54"/>
		<path class="st23" d="M155.46,141.74l8.95,13.61c-6.14,6.02-13.4,10.8-21.37,14.04l-8.94-13.61c-4.21,1.4-8.6,2.24-13.04,2.49
			l-3.3,15.95c-4.21-0.03-8.49-0.49-12.77-1.37c-4.28-0.88-8.39-2.17-12.27-3.81l3.3-15.95c-1.96-0.97-3.88-2.1-5.74-3.36
			c-1.86-1.26-3.61-2.63-5.24-4.09l-13.61,8.95c-6.03-6.13-10.8-13.41-14.04-21.37L71,124.27c-1.41-4.21-2.24-8.6-2.49-13.03
			l-15.95-3.3c0.04-4.22,0.48-8.49,1.37-12.77c0.88-4.28,2.17-8.39,3.81-12.27l15.95,3.3c0.97-1.96,2.1-3.88,3.36-5.74
			c1.26-1.86,2.63-3.61,4.09-5.24L72.2,61.61c6.13-6.03,13.4-10.81,21.37-14.05l8.94,13.61c4.21-1.4,8.6-2.24,13.04-2.49l3.3-15.95
			c4.21,0.03,8.49,0.49,12.77,1.37c4.28,0.88,8.39,2.17,12.27,3.81l-3.3,15.95c1.96,0.97,3.88,2.1,5.74,3.36
			c1.86,1.26,3.61,2.63,5.24,4.09l13.61-8.95c6.02,6.14,10.8,13.4,14.04,21.37l-13.61,8.94c1.4,4.21,2.24,8.6,2.49,13.04l15.95,3.3
			c-0.03,4.21-0.48,8.49-1.37,12.77c-0.88,4.28-2.17,8.39-3.81,12.27l-15.95-3.3c-0.97,1.96-2.1,3.88-3.36,5.74
			C158.29,138.36,156.92,140.12,155.46,141.74z"/>
	</g>
</g>
<g>
	<path class="st33" d="M183.01,515.94c1.69,15.07-9.1,28.63-24.17,30.32s-28.64-9.15-30.32-24.22
		c-1.69-15.07,9.16-28.58,24.23-30.27C167.82,490.09,181.32,500.87,183.01,515.94z"/>
	<path class="st33" d="M172.97,426.17c1.69,15.07-9.1,28.63-24.17,30.32s-28.64-9.15-30.32-24.22
		c-1.69-15.07,9.16-28.58,24.23-30.27C157.78,400.32,171.28,411.1,172.97,426.17z"/>
	<line class="st13" x1="148.8" y1="456.49" x2="152.75" y2="491.77"/>
</g>
</svg>
