<?xml version="1.0" encoding="utf-8"?>
<!-- Generator: Adobe Illustrator 24.1.2, SVG Export Plug-In . SVG Version: 6.00 Build 0)  -->
<svg version="1.1" id="Camada_1" xmlns="http://www.w3.org/2000/svg" xmlns:xlink="http://www.w3.org/1999/xlink" x="0px" y="0px"
	 viewBox="0 0 193.87 193.65" style="enable-background:new 0 0 193.87 193.65;" xml:space="preserve">
<style type="text/css">
	.st0{fill:#9273B2;}
	.st1{fill:#7EBFC9;}
	.st2{fill:#C94F45;}
	.st3{fill:#FFFFFF;}
	.st4{fill:#C84F45;}
	.st5{fill:#020203;}
	.st6{fill:#6462A1;}
	.st7{fill:#C7615A;}
	.st8{fill:#92C293;}
	.st9{fill:#E3A5B8;}
	.st10{fill:#C2A93D;}
	.st11{fill:#23354B;}
	.st12{fill:#F3F0F0;}
	.st13{fill:none;stroke:#21344A;stroke-width:5;stroke-linecap:round;stroke-linejoin:round;stroke-miterlimit:10;}
	.st14{fill:none;stroke:#21344A;stroke-width:5;stroke-linecap:round;stroke-linejoin:round;}
	.st15{fill:#8ECECD;stroke:#21344A;stroke-width:4;stroke-linecap:round;stroke-linejoin:round;stroke-miterlimit:10;}
	.st16{fill:#C3CE55;stroke:#21344A;stroke-width:4;stroke-linecap:round;stroke-linejoin:round;stroke-miterlimit:10;}
	.st17{fill:#9273B2;stroke:#21344A;stroke-width:4;stroke-linecap:round;stroke-linejoin:round;stroke-miterlimit:10;}
	.st18{fill:#B04A3F;stroke:#21344A;stroke-width:4;stroke-linecap:round;stroke-linejoin:round;stroke-miterlimit:10;}
	.st19{fill:#B04A3F;}
	.st20{fill:#C3CE55;}
	.st21{fill:#8ECECD;}
	.st22{fill:#21344A;}
	.st23{fill:none;stroke:#21344A;stroke-width:4;stroke-linecap:round;stroke-linejoin:round;stroke-miterlimit:10;}
	.st24{fill:#C55248;}
	.st25{fill:#D8D5D5;}
	.st26{fill:none;stroke:#21344A;stroke-width:3;stroke-linecap:round;stroke-linejoin:round;}
	.st27{fill:#FFFFFF;stroke:#C94F45;stroke-width:7;stroke-miterlimit:10;}
	.st28{fill:#FFFFFF;stroke:#21344A;stroke-width:7;stroke-miterlimit:10;}
	.st29{fill:#FFFFFF;stroke:#9273B1;stroke-width:9;stroke-miterlimit:10;}
	.st30{fill:#8FCECD;stroke:#020203;stroke-width:4;stroke-linecap:round;stroke-linejoin:round;}
	.st31{fill:none;stroke:#020203;stroke-width:4;stroke-linecap:round;stroke-linejoin:round;}
	.st32{fill:none;stroke:#21344A;stroke-width:4;stroke-linecap:round;stroke-linejoin:round;}
	.st33{fill:#9273B2;stroke:#21344A;stroke-width:5;stroke-linecap:round;stroke-linejoin:round;stroke-miterlimit:10;}
	.st34{fill:none;stroke:#23344A;stroke-width:1.5;stroke-miterlimit:10;}
	.st35{fill:#22344A;}
	.st36{fill:#FFFFFF;stroke:#23344A;stroke-width:1.5;stroke-miterlimit:10;}
	.st37{fill:#7EBFC9;stroke:#23344A;stroke-width:1.5;stroke-miterlimit:10;}
	.st38{fill:#9273B1;stroke:#23344A;stroke-width:1.5;stroke-miterlimit:10;}
	.st39{fill:none;}
	.st40{fill:#C94F45;stroke:#23344A;stroke-width:1.5;stroke-miterlimit:10;}
	.st41{fill:#F2F2F2;stroke:#23344A;stroke-width:1.5;stroke-miterlimit:10;}
</style>
<circle class="st34" cx="96.93" cy="96.83" r="85.82"/>
<g>
	<path class="st40" d="M109.03,96.87c0,6.61-5.39,11.96-12.03,11.96c-6.65,0-12.04-5.36-12.04-11.96c0-6.61,5.39-11.96,12.04-11.96
		C103.64,84.91,109.03,90.26,109.03,96.87"/>
	<path class="st34" d="M109.03,96.87c0,6.61-5.39,11.96-12.03,11.96c-6.65,0-12.04-5.36-12.04-11.96c0-6.61,5.39-11.96,12.04-11.96
		C103.64,84.91,109.03,90.26,109.03,96.87z"/>
	<path class="st41" d="M131.88,78.61c-0.39,0.39-0.92,0.61-1.48,0.61c-0.54,0-1.07-0.23-1.47-0.62c-0.4-0.39-0.62-0.93-0.62-1.46
		v-8.03l-15.8,15.71c-0.81,0.81-2.13,0.81-2.95,0c-0.82-0.81-0.82-2.13,0-2.94l15.8-15.71l-8.07,0c-0.54,0-1.07-0.23-1.47-0.62
		c-0.39-0.39-0.62-0.92-0.62-1.46c0-0.56,0.22-1.08,0.61-1.47c0.39-0.39,0.92-0.61,1.48-0.61h13.11c0.05,0,0.1,0,0.16,0.01
		c0.42,0.03,0.81,0.18,1.13,0.43c0.07,0.05,0.14,0.11,0.2,0.17c0.04,0.04,0.07,0.07,0.1,0.11c0.33,0.38,0.52,0.86,0.52,1.36l0,13.04
		C132.49,77.69,132.27,78.22,131.88,78.61"/>
	<path class="st34" d="M131.88,78.61c-0.39,0.39-0.92,0.61-1.48,0.61c-0.54,0-1.07-0.23-1.47-0.62c-0.4-0.39-0.62-0.93-0.62-1.46
		v-8.03l-15.8,15.71c-0.81,0.81-2.13,0.81-2.95,0c-0.82-0.81-0.82-2.13,0-2.94l15.8-15.71l-8.07,0c-0.54,0-1.07-0.23-1.47-0.62
		c-0.39-0.39-0.62-0.92-0.62-1.46c0-0.56,0.22-1.08,0.61-1.47c0.39-0.39,0.92-0.61,1.48-0.61h13.11c0.05,0,0.1,0,0.16,0.01
		c0.42,0.03,0.81,0.18,1.13,0.43c0.07,0.05,0.14,0.11,0.2,0.17c0.04,0.04,0.07,0.07,0.1,0.11c0.33,0.38,0.52,0.86,0.52,1.36l0,13.04
		C132.49,77.69,132.27,78.22,131.88,78.61z"/>
	<path class="st41" d="M77.99,63.1c0.39,0.39,0.61,0.91,0.61,1.47c0,0.53-0.23,1.06-0.62,1.46c-0.39,0.39-0.93,0.62-1.47,0.62h-8.08
		l15.8,15.71c0.81,0.81,0.81,2.13,0,2.93c-0.81,0.81-2.14,0.81-2.95,0l-15.8-15.71l0,8.03c0,0.53-0.23,1.07-0.62,1.46
		c-0.39,0.39-0.93,0.62-1.47,0.62c-0.56,0-1.08-0.22-1.48-0.61c-0.39-0.39-0.61-0.92-0.61-1.47V64.58c0-0.05,0-0.1,0.01-0.16
		c0.03-0.41,0.18-0.8,0.43-1.12c0.05-0.07,0.11-0.14,0.17-0.19c0.04-0.04,0.07-0.07,0.11-0.1c0.38-0.33,0.87-0.51,1.37-0.51l13.12,0
		C77.08,62.49,77.6,62.71,77.99,63.1"/>
	<path class="st34" d="M77.99,63.1c0.39,0.39,0.61,0.91,0.61,1.47c0,0.53-0.23,1.06-0.62,1.46c-0.39,0.39-0.93,0.62-1.47,0.62h-8.08
		l15.8,15.71c0.81,0.81,0.81,2.13,0,2.93c-0.81,0.81-2.14,0.81-2.95,0l-15.8-15.71l0,8.03c0,0.53-0.23,1.07-0.62,1.46
		c-0.39,0.39-0.93,0.62-1.47,0.62c-0.56,0-1.08-0.22-1.48-0.61c-0.39-0.39-0.61-0.92-0.61-1.47V64.58c0-0.05,0-0.1,0.01-0.16
		c0.03-0.41,0.18-0.8,0.43-1.12c0.05-0.07,0.11-0.14,0.17-0.19c0.04-0.04,0.07-0.07,0.11-0.1c0.38-0.33,0.87-0.51,1.37-0.51l13.12,0
		C77.08,62.49,77.6,62.71,77.99,63.1z"/>
	<path class="st41" d="M131.94,115.04c-0.39-0.39-0.92-0.61-1.48-0.61c-0.54,0-1.07,0.23-1.47,0.62c-0.39,0.39-0.62,0.93-0.62,1.46
		v8.03l-15.8-15.71c-0.81-0.81-2.13-0.81-2.95,0c-0.82,0.81-0.82,2.13,0,2.94l15.8,15.71l-8.07,0c-0.54,0-1.07,0.23-1.47,0.62
		c-0.39,0.39-0.62,0.92-0.62,1.46c0,0.56,0.22,1.08,0.61,1.47c0.39,0.39,0.92,0.61,1.48,0.61h13.11c0.05,0,0.1,0,0.16-0.01
		c0.42-0.03,0.81-0.18,1.13-0.43c0.07-0.05,0.14-0.11,0.2-0.17c0.04-0.04,0.07-0.07,0.1-0.11c0.33-0.38,0.52-0.86,0.52-1.36l0-13.04
		C132.55,115.96,132.33,115.43,131.94,115.04"/>
	<path class="st34" d="M131.94,115.04c-0.39-0.39-0.92-0.61-1.48-0.61c-0.54,0-1.07,0.23-1.47,0.62c-0.39,0.39-0.62,0.93-0.62,1.46
		v8.03l-15.8-15.71c-0.81-0.81-2.13-0.81-2.95,0c-0.82,0.81-0.82,2.13,0,2.94l15.8,15.71l-8.07,0c-0.54,0-1.07,0.23-1.47,0.62
		c-0.39,0.39-0.62,0.92-0.62,1.46c0,0.56,0.22,1.08,0.61,1.47c0.39,0.39,0.92,0.61,1.48,0.61h13.11c0.05,0,0.1,0,0.16-0.01
		c0.42-0.03,0.81-0.18,1.13-0.43c0.07-0.05,0.14-0.11,0.2-0.17c0.04-0.04,0.07-0.07,0.1-0.11c0.33-0.38,0.52-0.86,0.52-1.36l0-13.04
		C132.55,115.96,132.33,115.43,131.94,115.04z"/>
	<path class="st41" d="M78.05,130.55c0.39-0.39,0.61-0.91,0.61-1.47c0-0.53-0.23-1.06-0.62-1.46c-0.39-0.39-0.93-0.62-1.47-0.62
		H68.5l15.8-15.71c0.81-0.81,0.81-2.13,0-2.93c-0.81-0.81-2.14-0.81-2.95,0l-15.8,15.71l0-8.03c0-0.53-0.23-1.07-0.62-1.46
		c-0.39-0.39-0.93-0.61-1.47-0.62c-0.56,0-1.08,0.22-1.48,0.61s-0.61,0.92-0.61,1.47v13.03c0,0.05,0,0.1,0.01,0.16
		c0.03,0.41,0.18,0.8,0.43,1.12c0.05,0.06,0.11,0.13,0.17,0.19c0.04,0.04,0.07,0.07,0.11,0.1c0.38,0.33,0.87,0.51,1.37,0.51l13.12,0
		C77.13,131.16,77.66,130.94,78.05,130.55"/>
	<path class="st34" d="M78.05,130.55c0.39-0.39,0.61-0.91,0.61-1.47c0-0.53-0.23-1.06-0.62-1.46c-0.39-0.39-0.93-0.62-1.47-0.62
		H68.5l15.8-15.71c0.81-0.81,0.81-2.13,0-2.93c-0.81-0.81-2.14-0.81-2.95,0l-15.8,15.71l0-8.03c0-0.53-0.23-1.07-0.62-1.46
		c-0.39-0.39-0.93-0.61-1.47-0.62c-0.56,0-1.08,0.22-1.48,0.61s-0.61,0.92-0.61,1.47v13.03c0,0.05,0,0.1,0.01,0.16
		c0.03,0.41,0.18,0.8,0.43,1.12c0.05,0.06,0.11,0.13,0.17,0.19c0.04,0.04,0.07,0.07,0.11,0.1c0.38,0.33,0.87,0.51,1.37,0.51l13.12,0
		C77.13,131.16,77.66,130.94,78.05,130.55z"/>
</g>
</svg>
