<?xml version="1.0" encoding="utf-8"?>
<!-- Generator: Adobe Illustrator 24.1.2, SVG Export Plug-In . SVG Version: 6.00 Build 0)  -->
<svg version="1.1" id="Camada_1" xmlns="http://www.w3.org/2000/svg" xmlns:xlink="http://www.w3.org/1999/xlink" x="0px" y="0px"
	 viewBox="0 0 193.87 193.65" style="enable-background:new 0 0 193.87 193.65;" xml:space="preserve">
<style type="text/css">
	.st0{fill:#9273B2;}
	.st1{fill:#7EBFC9;}
	.st2{fill:#C94F45;}
	.st3{fill:#FFFFFF;}
	.st4{fill:#C84F45;}
	.st5{fill:#020203;}
	.st6{fill:#6462A1;}
	.st7{fill:#C7615A;}
	.st8{fill:#92C293;}
	.st9{fill:#E3A5B8;}
	.st10{fill:#C2A93D;}
	.st11{fill:#23354B;}
	.st12{fill:#F3F0F0;}
	.st13{fill:none;stroke:#21344A;stroke-width:5;stroke-linecap:round;stroke-linejoin:round;stroke-miterlimit:10;}
	.st14{fill:none;stroke:#21344A;stroke-width:5;stroke-linecap:round;stroke-linejoin:round;}
	.st15{fill:#8ECECD;stroke:#21344A;stroke-width:4;stroke-linecap:round;stroke-linejoin:round;stroke-miterlimit:10;}
	.st16{fill:#C3CE55;stroke:#21344A;stroke-width:4;stroke-linecap:round;stroke-linejoin:round;stroke-miterlimit:10;}
	.st17{fill:#9273B2;stroke:#21344A;stroke-width:4;stroke-linecap:round;stroke-linejoin:round;stroke-miterlimit:10;}
	.st18{fill:#B04A3F;stroke:#21344A;stroke-width:4;stroke-linecap:round;stroke-linejoin:round;stroke-miterlimit:10;}
	.st19{fill:#B04A3F;}
	.st20{fill:#C3CE55;}
	.st21{fill:#8ECECD;}
	.st22{fill:#21344A;}
	.st23{fill:none;stroke:#21344A;stroke-width:4;stroke-linecap:round;stroke-linejoin:round;stroke-miterlimit:10;}
	.st24{fill:#C55248;}
	.st25{fill:#D8D5D5;}
	.st26{fill:none;stroke:#21344A;stroke-width:3;stroke-linecap:round;stroke-linejoin:round;}
	.st27{fill:#FFFFFF;stroke:#C94F45;stroke-width:7;stroke-miterlimit:10;}
	.st28{fill:#FFFFFF;stroke:#21344A;stroke-width:7;stroke-miterlimit:10;}
	.st29{fill:#FFFFFF;stroke:#9273B1;stroke-width:9;stroke-miterlimit:10;}
	.st30{fill:#8FCECD;stroke:#020203;stroke-width:4;stroke-linecap:round;stroke-linejoin:round;}
	.st31{fill:none;stroke:#020203;stroke-width:4;stroke-linecap:round;stroke-linejoin:round;}
	.st32{fill:none;stroke:#21344A;stroke-width:4;stroke-linecap:round;stroke-linejoin:round;}
	.st33{fill:#9273B2;stroke:#21344A;stroke-width:5;stroke-linecap:round;stroke-linejoin:round;stroke-miterlimit:10;}
	.st34{fill:none;stroke:#23344A;stroke-width:1.5;stroke-miterlimit:10;}
	.st35{fill:#22344A;}
	.st36{fill:#FFFFFF;stroke:#23344A;stroke-width:1.5;stroke-miterlimit:10;}
	.st37{fill:#7EBFC9;stroke:#23344A;stroke-width:1.5;stroke-miterlimit:10;}
	.st38{fill:#9273B1;stroke:#23344A;stroke-width:1.5;stroke-miterlimit:10;}
	.st39{fill:none;}
	.st40{fill:#C94F45;stroke:#23344A;stroke-width:1.5;stroke-miterlimit:10;}
	.st41{fill:#F2F2F2;stroke:#23344A;stroke-width:1.5;stroke-miterlimit:10;}
</style>
<circle class="st34" cx="96.93" cy="96.83" r="85.82"/>
<g>
	<path class="st34" d="M114.72,64.37H79.15c-1.64,0-2.97-1.33-2.97-2.97v-1.78c0-1.64,1.33-2.97,2.97-2.97h35.57
		c1.64,0,2.97,1.33,2.97,2.97v1.78C117.69,63.04,116.36,64.37,114.72,64.37z"/>
	<path class="st34" d="M100.51,136.97h-6.88c-6.37,0-11.53-5.16-11.53-11.53V64.52h29.93v60.92
		C112.04,131.81,106.88,136.97,100.51,136.97z"/>
	<path class="st38" d="M99.56,120.06c-2.39,0-4.33-1.92-4.33-4.28c0-2.36,1.94-4.28,4.33-4.28c2.39,0,4.32,1.92,4.32,4.28
		C103.88,118.14,101.94,120.06,99.56,120.06 M89.42,106.5c-1.61,0-2.91-1.29-2.91-2.87c0-1.59,1.3-2.88,2.91-2.88
		s2.91,1.29,2.91,2.88C92.33,105.21,91.02,106.5,89.42,106.5 M107.89,82.7c-4.14,0.37-5.77-1.38-13.12-4.69
		c-7.35-3.31-12.01,1.19-12.01,1.19l-0.66,0.64v46.11c0,1.1,0.15,4.97,3,7.62c1.07,0.99,2.55,2.36,4.73,2.96
		c2.3,0.64,4.73,0.43,7.81,0.43c3.38,0,5.63-0.01,7.62-0.77c1.67-0.64,3.24-1.92,4.23-3.09c2.91-3.46,2.53-8.47,2.53-8.47V82.33
		L107.89,82.7z"/>
	<path class="st39" d="M99.56,120.06c-2.39,0-4.33-1.92-4.33-4.28c0-2.36,1.94-4.28,4.33-4.28c2.39,0,4.32,1.92,4.32,4.28
		C103.88,118.14,101.94,120.06,99.56,120.06z M89.42,106.5c-1.61,0-2.91-1.29-2.91-2.87c0-1.59,1.3-2.88,2.91-2.88
		s2.91,1.29,2.91,2.88C92.33,105.21,91.02,106.5,89.42,106.5z M107.89,82.7c-4.14,0.37-5.77-1.38-13.12-4.69
		c-7.35-3.31-12.01,1.19-12.01,1.19l-0.66,0.64v46.11c0,1.1,0.15,4.97,3,7.62c1.07,0.99,2.55,2.36,4.73,2.96
		c2.3,0.64,4.73,0.43,7.81,0.43c3.38,0,5.63-0.01,7.62-0.77c1.67-0.64,3.24-1.92,4.23-3.09c2.91-3.46,2.53-8.47,2.53-8.47V82.33
		L107.89,82.7z"/>
</g>
</svg>
