<?xml version="1.0" encoding="utf-8"?>
<!-- Generator: Adobe Illustrator 24.1.2, SVG Export Plug-In . SVG Version: 6.00 Build 0)  -->
<svg version="1.1" id="Camada_1" xmlns="http://www.w3.org/2000/svg" xmlns:xlink="http://www.w3.org/1999/xlink" x="0px" y="0px"
	 viewBox="0 0 193.87 193.65" style="enable-background:new 0 0 193.87 193.65;" xml:space="preserve">
<style type="text/css">
	.st0{fill:#9273B2;}
	.st1{fill:#7EBFC9;}
	.st2{fill:#C94F45;}
	.st3{fill:#FFFFFF;}
	.st4{fill:#C84F45;}
	.st5{fill:#020203;}
	.st6{fill:#6462A1;}
	.st7{fill:#C7615A;}
	.st8{fill:#92C293;}
	.st9{fill:#E3A5B8;}
	.st10{fill:#C2A93D;}
	.st11{fill:#23354B;}
	.st12{fill:#F3F0F0;}
	.st13{fill:none;stroke:#21344A;stroke-width:5;stroke-linecap:round;stroke-linejoin:round;stroke-miterlimit:10;}
	.st14{fill:none;stroke:#21344A;stroke-width:5;stroke-linecap:round;stroke-linejoin:round;}
	.st15{fill:#8ECECD;stroke:#21344A;stroke-width:4;stroke-linecap:round;stroke-linejoin:round;stroke-miterlimit:10;}
	.st16{fill:#C3CE55;stroke:#21344A;stroke-width:4;stroke-linecap:round;stroke-linejoin:round;stroke-miterlimit:10;}
	.st17{fill:#9273B2;stroke:#21344A;stroke-width:4;stroke-linecap:round;stroke-linejoin:round;stroke-miterlimit:10;}
	.st18{fill:#B04A3F;stroke:#21344A;stroke-width:4;stroke-linecap:round;stroke-linejoin:round;stroke-miterlimit:10;}
	.st19{fill:#B04A3F;}
	.st20{fill:#C3CE55;}
	.st21{fill:#8ECECD;}
	.st22{fill:#21344A;}
	.st23{fill:none;stroke:#21344A;stroke-width:4;stroke-linecap:round;stroke-linejoin:round;stroke-miterlimit:10;}
	.st24{fill:#C55248;}
	.st25{fill:#D8D5D5;}
	.st26{fill:none;stroke:#21344A;stroke-width:3;stroke-linecap:round;stroke-linejoin:round;}
	.st27{fill:#FFFFFF;stroke:#C94F45;stroke-width:7;stroke-miterlimit:10;}
	.st28{fill:#FFFFFF;stroke:#21344A;stroke-width:7;stroke-miterlimit:10;}
	.st29{fill:#FFFFFF;stroke:#9273B1;stroke-width:9;stroke-miterlimit:10;}
	.st30{fill:#8FCECD;stroke:#020203;stroke-width:4;stroke-linecap:round;stroke-linejoin:round;}
	.st31{fill:none;stroke:#020203;stroke-width:4;stroke-linecap:round;stroke-linejoin:round;}
	.st32{fill:none;stroke:#21344A;stroke-width:4;stroke-linecap:round;stroke-linejoin:round;}
	.st33{fill:#9273B2;stroke:#21344A;stroke-width:5;stroke-linecap:round;stroke-linejoin:round;stroke-miterlimit:10;}
	.st34{fill:none;stroke:#23344A;stroke-width:1.5;stroke-miterlimit:10;}
	.st35{fill:#22344A;}
	.st36{fill:#FFFFFF;stroke:#23344A;stroke-width:1.5;stroke-miterlimit:10;}
	.st37{fill:#7EBFC9;stroke:#23344A;stroke-width:1.5;stroke-miterlimit:10;}
	.st38{fill:#9273B1;stroke:#23344A;stroke-width:1.5;stroke-miterlimit:10;}
	.st39{fill:none;}
	.st40{fill:#C94F45;stroke:#23344A;stroke-width:1.5;stroke-miterlimit:10;}
	.st41{fill:#F2F2F2;stroke:#23344A;stroke-width:1.5;stroke-miterlimit:10;}
</style>
<circle class="st34" cx="96.93" cy="96.83" r="85.82"/>
<g>
	<path class="st1" d="M110.68,93.69c0-3.3,1.4-6.27,3.63-8.36c-0.65-11.19-10.46-13.12-10.74-13.18h-0.01
		c-1.83,1.25-4.03,1.96-6.41,1.96c-2.37,0-4.58-0.72-6.41-1.96c0,0-9.79,3.57-10.72,13.34c2.14,2.08,3.47,4.98,3.47,8.2
		c0,3.93-2,7.42-5.03,9.47c0.22,0.04,6.44,1.27,9.32,7.36c2.65,0.64,5.75,0.98,9.07,0.98c3.83,0,7.37-0.45,10.26-1.3h0
		c3.15-5.05,8.59-7.04,8.59-7.04C112.68,101.11,110.68,97.63,110.68,93.69z"/>
	<path class="st34" d="M103.57,72.15c0.28,0.06,10.1,1.99,10.74,13.18c-2.24,2.09-3.63,5.06-3.63,8.36c0,3.94,2,7.42,5.04,9.47
		c0,0-5.44,1.99-8.59,7.04h0c-2.89,0.85-6.43,1.3-10.26,1.3c-3.32,0-6.43-0.34-9.07-0.98c-2.89-6.09-9.11-7.31-9.32-7.36
		c3.03-2.06,5.03-5.54,5.03-9.47c0-3.22-1.33-6.12-3.47-8.2c0.93-9.77,10.72-13.34,10.72-13.34c1.83,1.25,4.04,1.96,6.41,1.96
		c2.38,0,4.58-0.72,6.41-1.96H103.57z"/>
	<g>
		<path class="st35" d="M101.52,91.82c0-2.45-1.98-4.44-4.43-4.44s-4.44,1.99-4.44,4.44s1.99,4.44,4.44,4.44
			S101.52,94.27,101.52,91.82z M97.09,84.68c3.94,0,7.15,3.2,7.15,7.15c0,3.95-3.2,7.15-7.15,7.15c-3.95,0-7.15-3.2-7.15-7.15
			C89.95,87.88,93.14,84.68,97.09,84.68z"/>
		<circle class="st35" cx="97.09" cy="91.82" r="1.33"/>
	</g>
	<path class="st36" d="M83.49,93.69c0,3.93-2,7.42-5.03,9.47h-0.01c-1.83,1.25-4.03,1.97-6.41,1.97c-2.37,0-4.58-0.72-6.41-1.97
		c-3.04-2.05-5.04-5.53-5.04-9.47c0-6.32,5.13-11.44,11.44-11.44c3.1,0,5.92,1.24,7.98,3.24C82.16,87.57,83.49,90.47,83.49,93.69"/>
	<path class="st34" d="M83.49,93.69c0,3.93-2,7.42-5.03,9.47h-0.01c-1.83,1.25-4.03,1.97-6.41,1.97c-2.37,0-4.58-0.72-6.41-1.97
		c-3.04-2.05-5.04-5.53-5.04-9.47c0-6.32,5.13-11.44,11.44-11.44c3.1,0,5.92,1.24,7.98,3.24C82.16,87.57,83.49,90.47,83.49,93.69z"
		/>
	<path class="st36" d="M133.57,93.69c0,3.93-2,7.42-5.03,9.47h-0.01c-1.82,1.25-4.03,1.97-6.41,1.97c-2.38,0-4.58-0.72-6.41-1.97
		c-3.04-2.05-5.04-5.53-5.04-9.47c0-3.3,1.4-6.27,3.63-8.35c2.05-1.91,4.8-3.09,7.81-3.09C128.44,82.25,133.57,87.37,133.57,93.69"
		/>
	<path class="st34" d="M133.57,93.69c0,3.93-2,7.42-5.03,9.47h-0.01c-1.82,1.25-4.03,1.97-6.41,1.97c-2.38,0-4.58-0.72-6.41-1.97
		c-3.04-2.05-5.04-5.53-5.04-9.47c0-3.3,1.4-6.27,3.63-8.35c2.05-1.91,4.8-3.09,7.81-3.09C128.44,82.25,133.57,87.37,133.57,93.69z"
		/>
	<path class="st36" d="M108.6,62.67c0,3.94-2,7.42-5.03,9.47h-0.01c-1.83,1.25-4.03,1.97-6.41,1.97c-2.37,0-4.58-0.72-6.41-1.97
		c-3.04-2.05-5.04-5.53-5.04-9.47c0-6.31,5.13-11.44,11.44-11.44C103.47,51.23,108.6,56.36,108.6,62.67"/>
	<path class="st34" d="M108.6,62.67c0,3.94-2,7.42-5.03,9.47h-0.01c-1.83,1.25-4.03,1.97-6.41,1.97c-2.37,0-4.58-0.72-6.41-1.97
		c-3.04-2.05-5.04-5.53-5.04-9.47c0-6.31,5.13-11.44,11.44-11.44C103.47,51.23,108.6,56.36,108.6,62.67z"/>
	<path class="st37" d="M104.54,129.16l-0.13,0c0.25-3.74,0.46-7.78,0.52-11.43c0.05-3.04,0.95-5.52,2.2-7.52h0
		c3.15-5.05,8.59-7.04,8.59-7.04c1.83,1.25,4.04,1.97,6.41,1.97c2.37,0,4.58-0.72,6.4-1.97h0.01c0.29,0.06,10.78,2.13,10.78,14.37
		c0,4,0.17,8.01,0.39,11.61c0,5-7.87,7.86-17.59,7.86C112.42,137,104.55,134.14,104.54,129.16"/>
	<path class="st37" d="M54.36,129.16l-0.13,0c0.25-3.74,0.46-7.78,0.52-11.43c0.19-10.7,10.79-14.57,10.79-14.57
		c1.83,1.25,4.04,1.97,6.41,1.97c2.38,0,4.58-0.72,6.41-1.97h0.01c0.22,0.04,6.44,1.27,9.33,7.36c0.88,1.85,1.45,4.16,1.45,7.02
		c0,4,0.17,8.01,0.39,11.61c0,5-7.87,7.86-17.59,7.86C62.24,137,54.37,134.14,54.36,129.16"/>
	<path class="st34" d="M54.36,129.16l-0.13,0c0.25-3.74,0.46-7.78,0.52-11.43c0.19-10.7,10.79-14.57,10.79-14.57
		c1.83,1.25,4.04,1.97,6.41,1.97c2.38,0,4.58-0.72,6.41-1.97h0.01c0.22,0.04,6.44,1.27,9.33,7.36c0.88,1.85,1.45,4.16,1.45,7.02
		c0,4,0.17,8.01,0.39,11.61c0,5-7.87,7.86-17.59,7.86C62.24,137,54.37,134.14,54.36,129.16z"/>
</g>
</svg>
