<?xml version="1.0" encoding="utf-8"?>
<!-- Generator: Adobe Illustrator 24.1.2, SVG Export Plug-In . SVG Version: 6.00 Build 0)  -->
<svg version="1.1" id="Camada_1" xmlns="http://www.w3.org/2000/svg" xmlns:xlink="http://www.w3.org/1999/xlink" x="0px" y="0px"
	 viewBox="0 0 912.85 547.51" style="enable-background:new 0 0 912.85 547.51;" xml:space="preserve">
<style type="text/css">
	.st0{fill:#FFFFFF;}
	.st1{fill:#9273B2;}
	.st2{fill:#7EBFC9;}
	.st3{fill:#C94F45;}
	.st4{fill:#C84F45;}
	.st5{fill:#020203;}
	.st6{fill:#6462A1;}
	.st7{fill:#C7615A;}
	.st8{fill:#92C293;}
	.st9{fill:#E3A5B8;}
	.st10{fill:#C2A93D;}
	.st11{fill:#23354B;}
	.st12{fill:#F3F0F0;}
	.st13{fill:none;stroke:#21344A;stroke-width:5;stroke-linecap:round;stroke-linejoin:round;stroke-miterlimit:10;}
	.st14{fill:none;stroke:#21344A;stroke-width:5;stroke-linecap:round;stroke-linejoin:round;}
	.st15{fill:#8ECECD;stroke:#21344A;stroke-width:4;stroke-linecap:round;stroke-linejoin:round;stroke-miterlimit:10;}
	.st16{fill:#C3CE55;stroke:#21344A;stroke-width:4;stroke-linecap:round;stroke-linejoin:round;stroke-miterlimit:10;}
	.st17{fill:#9273B2;stroke:#21344A;stroke-width:4;stroke-linecap:round;stroke-linejoin:round;stroke-miterlimit:10;}
	.st18{fill:#B04A3F;stroke:#21344A;stroke-width:4;stroke-linecap:round;stroke-linejoin:round;stroke-miterlimit:10;}
	.st19{fill:#B04A3F;}
	.st20{fill:#C3CE55;}
	.st21{fill:#8ECECD;}
	.st22{fill:#21344A;}
	.st23{fill:none;stroke:#21344A;stroke-width:4;stroke-linecap:round;stroke-linejoin:round;stroke-miterlimit:10;}
	.st24{fill:#C55248;}
	.st25{fill:#D8D5D5;}
	.st26{fill:none;stroke:#21344A;stroke-width:3;stroke-linecap:round;stroke-linejoin:round;}
	.st27{fill:#FFFFFF;stroke:#C94F45;stroke-width:7;stroke-miterlimit:10;}
	.st28{fill:#FFFFFF;stroke:#21344A;stroke-width:7;stroke-miterlimit:10;}
	.st29{fill:#FFFFFF;stroke:#9273B1;stroke-width:9;stroke-miterlimit:10;}
	.st30{fill:#8FCECD;stroke:#020203;stroke-width:4;stroke-linecap:round;stroke-linejoin:round;}
	.st31{fill:none;stroke:#020203;stroke-width:4;stroke-linecap:round;stroke-linejoin:round;}
	.st32{fill:none;stroke:#21344A;stroke-width:4;stroke-linecap:round;stroke-linejoin:round;}
	.st33{fill:#9273B2;stroke:#21344A;stroke-width:5;stroke-linecap:round;stroke-linejoin:round;stroke-miterlimit:10;}
	.st34{fill:none;stroke:#23344A;stroke-width:1.5;stroke-miterlimit:10;}
	.st35{fill:#22344A;}
	.st36{fill:#FFFFFF;stroke:#23344A;stroke-width:1.5;stroke-miterlimit:10;}
	.st37{fill:#7EBFC9;stroke:#23344A;stroke-width:1.5;stroke-miterlimit:10;}
	.st38{fill:#9273B1;stroke:#23344A;stroke-width:1.5;stroke-miterlimit:10;}
	.st39{fill:none;}
	.st40{fill:#C94F45;stroke:#23344A;stroke-width:1.5;stroke-miterlimit:10;}
	.st41{fill:#F2F2F2;stroke:#23344A;stroke-width:1.5;stroke-miterlimit:10;}
	.st42{fill:none;stroke:#FFFFFF;stroke-width:4;stroke-linecap:round;stroke-linejoin:round;stroke-miterlimit:10;}
	.st43{fill:none;stroke:#23344A;stroke-width:1.5;stroke-linecap:round;stroke-linejoin:round;stroke-miterlimit:10;}
	.st44{fill:none;stroke:#020203;stroke-width:5;stroke-linecap:round;stroke-linejoin:round;}
	.st45{fill:#FFFFFF;stroke:#21344A;stroke-width:5;stroke-linecap:round;stroke-linejoin:round;stroke-miterlimit:10;}
	.st46{fill:#F6A115;}
	.st47{fill:none;stroke:#23354B;stroke-width:5;stroke-linecap:round;stroke-linejoin:round;stroke-miterlimit:10;}
	.st48{fill:#FFFFFF;stroke:#23354B;stroke-width:5;stroke-linecap:round;stroke-linejoin:round;stroke-miterlimit:10;}
</style>
<path class="st0" d="M518.34,387.05c0,0-2.78-0.52-4.24-5.33c-1.46-4.8-4.93-19.08-10.63-20.59c-5.7-1.52-7.34,4.71-7.26,7.89
	c0.09,3.19,0.48,9.46-3.43,8.28s-20.16-9.16-26.92-14.44c-6.76-5.28-12.59-1.38-11.15,2.61s5.01,10.44,5.01,10.44
	s-12.66-7.61-15.5-5.09c-2.84,2.52-5.36,8.13-1.91,10.91c0,0-5.14,0.7-5.61,4.79s0.77,7.71,7.52,11.23c6.75,3.53,3.92,3.41,2.68,4.5
	c-1.24,1.09-6.44,8.89,8.61,15.89s83.18,26.97,121.62,18.45c38.44-8.53,62.07-43.22,62.07-43.22s-17.66,51.9-17.33,68
	c0.33,16.1,0.51,31.46,45.83,53.02c45.32,21.56,119.52,29.27,173.82-1.68c54.3-30.95,59.19-27.01,59.99-35.41
	s-15.59-95.68-38.28-122.68c-22.69-27-25.29-41.09-72.99-46.98c-47.7-5.89-102.06-3.93-110.93-2.79
	c-8.87,1.13-34.59,1.15-53.42,24.53c-18.83,23.38-24.94,43.66-49.74,53.81C551.32,393.33,518.34,387.05,518.34,387.05z"/>
<path class="st0" d="M187.67,150.28c0,0,62.8-17.56,178.24,42.27c0,0,89.02,53.46,116.99,102.44c0,0,17.2,23.31,14.36,28.51
	c-2.84,5.2-8.8,2.66-8.8,2.66s0.82,10.23-3.53,9.91c-4.35-0.32-9.51-3.97-9.51-3.97s1.61,9.81-4.24,10.5
	c-5.85,0.69-6.18-2.82-11.7-12.99c-5.53-10.17-13.16-18.59-14.96-18.42c0,0-2.84-0.49-2.11,3.45c0.73,3.94,3.16,19.41-1.64,17.63
	s-13.17-7.63-14.69-20.01c-1.53-12.38-1.98-26.56-15.28-37.49s-65.04-41.16-115.5-39.53c0,0-2.3,2.03-1.35,6.64
	c0.95,4.62,6.56,37.82,7.27,55.88c0.71,18.06,1.6,30.19-8.92,37.48c-10.52,7.29-58.36,49.65-113.52,47.17s-96.98-6.96-132.85-28.83
	C10.04,331.7,9.7,333.96,8.92,328.88c-0.78-5.09-3.86-24.71,6-56.65s28.74-84.45,69.75-102.35s55.15-19.07,67.32-19.48
	C164.16,149.99,187.67,150.28,187.67,150.28z"/>
<path class="st45" d="M778.69,315.79c-11.89,7.97-26.19,12.6-41.58,12.6c-16.43,0-31.62-5.29-43.95-14.24
	c-18.73-13.62-30.92-35.7-30.92-60.63c0-41.35,33.52-74.87,74.87-74.87s74.87,33.52,74.87,74.87c0,25.92-13.17,48.77-33.18,62.2"/>
<path class="st13" d="M788.77,307.7c0,0,58.93-5.59,89.31,78.2c14.66,40.42,21.38,74.19,22.86,83.36c1.01,6.28,1.19,10.46-4.7,14.65
	c-11.09,7.87-75.2,47.18-142.27,49.62c-69.52,2.53-131.01-41.47-132.33-58.51c-2.71-35.01,24.27-99.1,24.27-99.1"/>
<g id="XMLID_66_">
	<g>
		<path class="st0" d="M535.33,147.9v16.47c-0.03,6.48-3.11,12.25-7.88,15.95c-3.43,2.67-7.73,3.44-12.39,3.44
			c-4.66,0-8.96-0.77-12.38-3.44c-4.78-3.7-7.86-9.47-7.89-15.95V147.9c0.03,6.48,3.11,12.25,7.89,15.95
			c3.43,2.67,7.73,3.44,12.38,3.44c4.66,0,8.96-0.77,12.39-3.44C532.22,160.15,535.3,154.38,535.33,147.9z"/>
		<path class="st0" d="M535.33,146.32v1.58c-0.03,6.48-3.11,12.25-7.88,15.95c-3.43,2.67-7.73,3.44-12.39,3.44
			c-4.66,0-8.96-0.77-12.38-3.44c-4.78-3.7-7.86-9.47-7.89-15.95v-1.62c3.72,1.54,7.66,2.67,11.75,3.32
			c2.77,0.45,5.62,0.69,8.52,0.69c2.96,0,5.86-0.24,8.69-0.71c4.03-0.65,7.9-1.77,11.57-3.28L535.33,146.32z"/>
		<path class="st0" d="M528.3,122.25c0.53,0.7,0.73,1.58,0.51,2.43l-5.08,24.72l0.02,0.17c-2.83,0.47-5.73,0.71-8.69,0.71
			c-2.9,0-5.75-0.23-8.52-0.69l0.04-0.22l-5.08-24.69c-0.21-0.84-0.02-1.74,0.51-2.43c0.53-0.69,1.36-1.08,2.22-1.08h21.85
			C526.94,121.17,527.76,121.56,528.3,122.25z"/>
		<path class="st46" d="M494.78,146.28c-19.32-7.97-32.91-26.99-32.91-49.18c0-29.37,23.81-53.18,53.18-53.18
			c29.37,0,53.18,23.81,53.18,53.18c0,22.2-13.6,41.22-32.92,49.19c-3.67,1.51-7.54,2.63-11.57,3.28l-0.02-0.17l5.08-24.72
			c0.22-0.85,0.02-1.74-0.51-2.43c-0.53-0.69-1.36-1.08-2.22-1.08h-21.85c-0.86,0-1.69,0.4-2.22,1.08c-0.53,0.7-0.72,1.59-0.51,2.43
			l5.08,24.69l-0.04,0.22C502.45,148.94,498.5,147.82,494.78,146.28z"/>
	</g>
	<g>
		<line class="st13" x1="482.9" y1="36.12" x2="476.1" y2="24.34"/>
		<line class="st13" x1="515.15" y1="27.48" x2="515.15" y2="13.88"/>
		<line class="st13" x1="547.4" y1="36.12" x2="554.2" y2="24.34"/>
		<line class="st13" x1="571.01" y1="59.73" x2="582.79" y2="52.93"/>
		<line class="st13" x1="459.28" y1="59.73" x2="447.51" y2="52.93"/>
		<path class="st13" d="M535.33,146.32v1.58v16.47c-0.03,6.48-3.11,12.25-7.88,15.95c-3.43,2.67-7.73,3.44-12.39,3.44
			c-4.66,0-8.96-0.77-12.38-3.44c-4.78-3.7-7.86-9.47-7.89-15.95V147.9v-1.62v-0.05"/>
		<path class="st13" d="M494.78,147.9c0.03,6.48,3.11,12.25,7.89,15.95c3.43,2.67,7.73,3.44,12.38,3.44c4.66,0,8.96-0.77,12.39-3.44
			c4.77-3.7,7.85-9.47,7.88-15.95"/>
		<path class="st13" d="M494.78,146.28c-19.32-7.97-32.91-26.99-32.91-49.18c0-29.37,23.81-53.18,53.18-53.18
			c29.37,0,53.18,23.81,53.18,53.18c0,22.2-13.6,41.22-32.92,49.19c-3.67,1.51-7.54,2.63-11.57,3.28c-2.83,0.47-5.73,0.71-8.69,0.71
			c-2.9,0-5.75-0.23-8.52-0.69C502.45,148.94,498.5,147.82,494.78,146.28z"/>
		<path class="st13" d="M506.58,149.38l-5.08-24.69c-0.21-0.84-0.02-1.74,0.51-2.43c0.53-0.69,1.36-1.08,2.22-1.08h21.85
			c0.86,0,1.69,0.4,2.22,1.08c0.53,0.7,0.73,1.58,0.51,2.43l-5.08,24.72"/>
	</g>
</g>
<g>
	<path class="st11" d="M746.3,234.93c3.62,1.94,4.98,6.45,3.04,10.08c-1.93,3.62-6.45,5-10.08,3.05c-3.62-1.94-4.98-6.46-3.04-10.08
		C738.16,234.35,742.67,232.99,746.3,234.93z"/>
	<path class="st11" d="M698.88,222.38c3.62,1.94,4.98,6.45,3.05,10.08c-1.94,3.62-6.46,5-10.08,3.05c-3.64-1.94-5-6.46-3.05-10.08
		C690.74,221.8,695.24,220.44,698.88,222.38z"/>
</g>
<path class="st13" d="M515.16,385.91c-0.07,0.94,51.02,15.54,79.93-15.8c28.91-31.33,30.05-62.41,87.5-65.28"/>
<path class="st13" d="M464.04,393.36c1.92,0.98,4.01,1.96,6.28,2.93"/>
<path class="st13" d="M470.24,381.42c-0.91-0.47-15.58-8.12-19.53-10.3c-4.49-2.5-8.01,0.2-9.34,2.22c-0.76,1.14-1.85,5.8,3.92,8.95
	c4.7,2.56,10.12,6.72,18.7,11.05"/>
<path class="st13" d="M470.32,396.28c-0.64-0.29-3.04-1.39-6.28-2.93c-0.01,0-0.03,0-0.04-0.01c-5.18-2.43-12.51-5.91-18.25-8.83
	c-2.42-1.22-6.53-2.27-9.05,2c-2.85,4.86,3.13,8.52,6.76,10.8c0,0,2.76,1.62,7.5,3.96c3.64,1.77,8.45,3.98,14.08,6.19"/>
<path class="st13" d="M470.32,396.28c0.11,0.04,0.17,0.07,0.17,0.07"/>
<path class="st13" d="M451.01,401.27c0,0-0.01,0-0.04,0c-0.47-0.05-4.88-0.42-6.52,4.22c-1.05,3.01,1.48,6.54,7.39,9.59
	c5.92,3.04,26.45,10.42,41.12,14.05c41.32,10.22,117.73,29.88,152.95-53.22"/>
<path class="st13" d="M478.04,385.29c-2.11-0.85-4.79-2.1-7.76-3.85c0,0-0.01-0.01-0.04-0.03c-3.75-2.22-7.94-5.25-11.91-9.29
	c-7.13-7.26-1.56-10.94-1.56-10.94s3.95-3.59,12.59,4.55c8.87,8.36,25.55,12.12,25.55,12.12c3.59-3.88-1.76-15.88,4.64-17.42
	c9.56-2.3,15.59,25.48,15.59,25.48"/>
<g>
	<path class="st14" d="M476.16,302.4c8.09,10.71,10,16.34,11.95,24.61c1.48,6.28-2.02,9.64-5.38,9.49c-4.7-0.2-7.96-9.6-11.42-15.72
		l-5.83-9.98c8.73,11.21,8.65,21.7,8.86,24.69c0.21,3.01-0.34,6.78-5.39,7.1c-5.41,0.35-7.17-5.75-7.17-5.75
		c-5.29-20.99-17.26-25.65-17.26-25.65c-7.07-2.37,5.82,19.58-4.82,20.28c-10.64,0.69-14.33-26.32-14.27-31.11
		c0.42-33.4-82.17-67-133.14-65.05"/>
	<path class="st14" d="M484.44,315.62c1.45,2.82,5.3,16.1,11.64,10.37c6.65-6.02-15.37-34.6-23.47-44.12
		c0,0-93.19-121.2-245.87-133.97l-74.75,2.49c0,0-140.4-1.84-143.07,176.72c-0.05,3.19,1.53,6.21,4.23,7.92
		c155.42,98.01,256.76,19.93,282.13-3.9c4.23-3.98,6.63-9.51,6.63-15.32c0-22.53-4.82-64.24-9.63-80.51"/>
</g>
<path class="st47" d="M101.7,235.23c0,0-45.65,51.86-40.32,125.06"/>
<path class="st13" d="M835.84,399.51c0,0,22.66,27.28,15.18,109.07"/>
<circle class="st48" cx="195.94" cy="89.78" r="74.87"/>
<circle class="st11" cx="187.67" cy="99.09" r="7.45"/>
<circle class="st11" cx="249.14" cy="99.74" r="7.45"/>
</svg>
