<?xml version="1.0" encoding="utf-8"?>
<!-- Generator: Adobe Illustrator 24.1.2, SVG Export Plug-In . SVG Version: 6.00 Build 0)  -->
<svg version="1.1" id="Camada_1" xmlns="http://www.w3.org/2000/svg" xmlns:xlink="http://www.w3.org/1999/xlink" x="0px" y="0px"
	 viewBox="0 0 300 300" style="enable-background:new 0 0 300 300;" xml:space="preserve">
<style type="text/css">
	.st0{fill:#9273B2;}
	.st1{fill:#7EBFC9;}
	.st2{fill:#C94F45;}
	.st3{fill:#FFFFFF;}
	.st4{fill:#C84F45;}
	.st5{fill:#020203;}
	.st6{fill:#6462A1;}
	.st7{fill:#C7615A;}
	.st8{fill:#92C293;}
	.st9{fill:#E3A5B8;}
	.st10{fill:#C2A93D;}
	.st11{fill:#23354B;}
	.st12{fill:#F3F0F0;}
	.st13{fill:none;stroke:#21344A;stroke-width:5;stroke-linecap:round;stroke-linejoin:round;stroke-miterlimit:10;}
	.st14{fill:none;stroke:#21344A;stroke-width:5;stroke-linecap:round;stroke-linejoin:round;}
	.st15{fill:#8ECECD;stroke:#21344A;stroke-width:4;stroke-linecap:round;stroke-linejoin:round;stroke-miterlimit:10;}
	.st16{fill:#C3CE55;stroke:#21344A;stroke-width:4;stroke-linecap:round;stroke-linejoin:round;stroke-miterlimit:10;}
	.st17{fill:#9273B2;stroke:#21344A;stroke-width:4;stroke-linecap:round;stroke-linejoin:round;stroke-miterlimit:10;}
	.st18{fill:#B04A3F;stroke:#21344A;stroke-width:4;stroke-linecap:round;stroke-linejoin:round;stroke-miterlimit:10;}
	.st19{fill:#B04A3F;}
	.st20{fill:#C3CE55;}
	.st21{fill:#8ECECD;}
	.st22{fill:#21344A;}
	.st23{fill:none;stroke:#21344A;stroke-width:4;stroke-linecap:round;stroke-linejoin:round;stroke-miterlimit:10;}
	.st24{fill:#C55248;}
	.st25{fill:#D8D5D5;}
	.st26{fill:none;stroke:#21344A;stroke-width:3;stroke-linecap:round;stroke-linejoin:round;}
	.st27{fill:#FFFFFF;stroke:#C94F45;stroke-width:7;stroke-miterlimit:10;}
	.st28{fill:#FFFFFF;stroke:#9273B1;stroke-width:9;stroke-miterlimit:10;}
	.st29{fill:#8FCECD;stroke:#020203;stroke-width:4;stroke-linecap:round;stroke-linejoin:round;}
	.st30{fill:none;stroke:#020203;stroke-width:4;stroke-linecap:round;stroke-linejoin:round;}
</style>
<rect x="-727.23" y="-2.93" class="st1" width="1039.55" height="311.38"/>
<g>
	<circle class="st1" cx="150" cy="150" r="133.74"/>
	<path class="st3" d="M150,18.26c35.19,0,68.27,13.7,93.16,38.59c24.88,24.88,38.59,57.97,38.59,93.16
		c0,35.19-13.7,68.27-38.59,93.16c-24.88,24.88-57.97,38.59-93.16,38.59s-68.27-13.7-93.16-38.59
		C31.96,218.27,18.26,185.19,18.26,150s13.7-68.27,38.59-93.16C81.73,31.96,114.81,18.26,150,18.26 M150,14.26
		C75.03,14.26,14.26,75.03,14.26,150c0,74.97,60.77,135.74,135.74,135.74c74.97,0,135.74-60.77,135.74-135.74
		C285.74,75.03,224.97,14.26,150,14.26L150,14.26z"/>
</g>
<g>
	<g id="XMLID_118_">
		<g>
			<path class="st3" d="M162.75,130.1c20.07,2.53,47.82,30.31,47.82,49.44c0,20.22-31.88,31.82-71.2,31.82
				c-39.33,0-71.2-11.59-71.2-31.82c0-19.13,27.75-46.92,47.82-49.44c6.17,6.45,14.68,9.96,23.38,9.97
				c5.51,0.02,11.1-1.39,16.2-4.34C158.28,134.16,160.68,132.26,162.75,130.1z"/>
			<path class="st3" d="M162.75,130.1c-2.06,2.16-4.47,4.06-7.18,5.62c-5.1,2.95-10.69,4.36-16.2,4.34
				c-8.7-0.01-17.21-3.52-23.38-9.97c-1.77-1.84-3.34-3.92-4.68-6.23c-5.99-10.38-5.59-22.71,0-32.4c2.74-4.78,6.75-8.9,11.86-11.86
				c5.11-2.94,10.7-4.35,16.2-4.34c11.18,0.01,22.06,5.82,28.06,16.21c5.99,10.38,5.58,22.7,0,32.39
				C166.13,126.11,164.57,128.21,162.75,130.1z M158.45,93.71c0-2.14-1.74-3.88-3.87-3.88c-2.14,0-3.88,1.74-3.88,3.88
				c0,2.14,1.74,3.87,3.88,3.87C156.72,97.58,158.45,95.85,158.45,93.71z M128.63,93.71c0-2.14-1.73-3.88-3.87-3.88
				s-3.88,1.74-3.88,3.88c0,2.14,1.74,3.87,3.88,3.87S128.63,95.85,128.63,93.71z"/>
			<path class="st22" d="M154.58,89.83c2.14,0,3.87,1.74,3.87,3.88c0,2.14-1.74,3.87-3.87,3.87c-2.14,0-3.88-1.74-3.88-3.87
				C150.7,91.57,152.44,89.83,154.58,89.83z"/>
			<path class="st22" d="M124.76,89.83c2.14,0,3.87,1.74,3.87,3.88c0,2.14-1.73,3.87-3.87,3.87s-3.88-1.74-3.88-3.87
				C120.88,91.57,122.61,89.83,124.76,89.83z"/>
		</g>
		<g>
			<path class="st23" d="M115.99,130.1c-1.77-1.84-3.34-3.92-4.68-6.23c-5.99-10.38-5.59-22.71,0-32.4
				c2.74-4.78,6.75-8.9,11.86-11.86c5.11-2.94,10.7-4.35,16.2-4.34c11.18,0.01,22.06,5.82,28.06,16.21c5.99,10.38,5.58,22.7,0,32.39
				c-1.29,2.24-2.85,4.34-4.67,6.23c-2.06,2.16-4.47,4.06-7.18,5.62c-5.1,2.95-10.69,4.36-16.2,4.34
				C130.67,140.06,122.16,136.55,115.99,130.1z"/>
			<path class="st23" d="M115.99,130.1c-20.07,2.52-47.82,30.31-47.82,49.44c0,20.22,31.87,31.82,71.2,31.82
				c39.32,0,71.2-11.59,71.2-31.82c0-19.13-27.74-46.91-47.82-49.44h-0.01"/>
		</g>
	</g>
	<g id="XMLID_86_">
		<g>
			<path class="st3" d="M223.55,180.45c8.44-8.43,8.44-22.13,0-30.57c-8.44-8.44-22.14-8.43-30.57,0c-8.44,8.44-8.45,22.14,0,30.58
				S215.11,188.89,223.55,180.45z"/>
			<path class="st24" d="M229.88,186.78c11.94-11.94,11.94-31.3,0-43.24c-11.94-11.94-31.3-11.93-43.23,0
				c-11.94,11.94-11.95,31.3-0.01,43.24C198.58,198.72,217.95,198.72,229.88,186.78z M192.98,180.45c-8.44-8.44-8.44-22.14,0-30.58
				c8.44-8.44,22.13-8.45,30.57,0c8.44,8.45,8.44,22.14,0,30.57C215.11,188.89,201.42,188.9,192.98,180.45z"/>
			
				<rect x="181.79" y="186.97" transform="matrix(0.7075 -0.7067 0.7067 0.7075 -80.0028 185.447)" class="st25" width="4.51" height="4.82"/>
			<path class="st25" d="M151.46,213.71c-1.41,1.4-0.82,4.24,1.6,6.67c2.43,2.43,5.27,3,6.67,1.6l0.12-0.13l24.14-25.71
				c0.78-0.78,0.83-2.07,0.17-3.44l-3.41-3.41c-1.38-0.67-2.68-0.61-3.45,0.16l-25.71,24.14L151.46,213.71z"/>
		</g>
		<g>
			<path class="st26" d="M229.88,143.54c11.94,11.94,11.94,31.3,0,43.24c-11.94,11.94-31.3,11.95-43.24,0
				c-11.94-11.94-11.93-31.3,0.01-43.24C198.58,131.61,217.95,131.6,229.88,143.54z"/>
			<path class="st26" d="M192.98,180.45c8.44,8.44,22.14,8.44,30.58-0.01c8.44-8.43,8.44-22.13,0-30.57
				c-8.44-8.44-22.14-8.43-30.57,0C184.54,158.32,184.53,172.01,192.98,180.45z"/>
			<path class="st26" d="M180.75,189.27c-1.38-0.67-2.68-0.61-3.45,0.16l-25.71,24.14l-0.14,0.13c-1.41,1.4-0.82,4.24,1.6,6.67
				c2.43,2.43,5.27,3,6.67,1.6l0.12-0.13l24.14-25.71c0.78-0.78,0.83-2.07,0.17-3.44L180.75,189.27z"/>
			<polyline class="st26" points="184.16,192.69 184.16,192.68 187.35,189.49 183.94,186.08 180.75,189.27 184.16,192.68 			"/>
		</g>
	</g>
</g>
</svg>
