<?xml version="1.0" encoding="utf-8"?>
<!-- Generator: Adobe Illustrator 24.1.2, SVG Export Plug-In . SVG Version: 6.00 Build 0)  -->
<svg version="1.1" id="Camada_1" xmlns="http://www.w3.org/2000/svg" xmlns:xlink="http://www.w3.org/1999/xlink" x="0px" y="0px"
	 viewBox="0 0 300 300" style="enable-background:new 0 0 300 300;" xml:space="preserve">
<style type="text/css">
	.st0{fill:#9273B2;}
	.st1{fill:#7EBFC9;}
	.st2{fill:#C94F45;}
	.st3{fill:#FFFFFF;}
	.st4{fill:#C84F45;}
	.st5{fill:#020203;}
	.st6{fill:#6462A1;}
	.st7{fill:#C7615A;}
	.st8{fill:#92C293;}
	.st9{fill:#E3A5B8;}
	.st10{fill:#C2A93D;}
	.st11{fill:#23354B;}
	.st12{fill:#F3F0F0;}
	.st13{fill:none;stroke:#21344A;stroke-width:5;stroke-linecap:round;stroke-linejoin:round;stroke-miterlimit:10;}
	.st14{fill:none;stroke:#21344A;stroke-width:5;stroke-linecap:round;stroke-linejoin:round;}
	.st15{fill:#8ECECD;stroke:#21344A;stroke-width:4;stroke-linecap:round;stroke-linejoin:round;stroke-miterlimit:10;}
	.st16{fill:#C3CE55;stroke:#21344A;stroke-width:4;stroke-linecap:round;stroke-linejoin:round;stroke-miterlimit:10;}
	.st17{fill:#9273B2;stroke:#21344A;stroke-width:4;stroke-linecap:round;stroke-linejoin:round;stroke-miterlimit:10;}
	.st18{fill:#B04A3F;stroke:#21344A;stroke-width:4;stroke-linecap:round;stroke-linejoin:round;stroke-miterlimit:10;}
	.st19{fill:#B04A3F;}
	.st20{fill:#C3CE55;}
	.st21{fill:#8ECECD;}
	.st22{fill:#21344A;}
	.st23{fill:none;stroke:#21344A;stroke-width:4;stroke-linecap:round;stroke-linejoin:round;stroke-miterlimit:10;}
	.st24{fill:#C55248;}
	.st25{fill:#D8D5D5;}
	.st26{fill:none;stroke:#21344A;stroke-width:3;stroke-linecap:round;stroke-linejoin:round;}
	.st27{fill:#FFFFFF;stroke:#C94F45;stroke-width:7;stroke-miterlimit:10;}
	.st28{fill:#FFFFFF;stroke:#9273B1;stroke-width:9;stroke-miterlimit:10;}
	.st29{fill:#8FCECD;stroke:#020203;stroke-width:4;stroke-linecap:round;stroke-linejoin:round;}
	.st30{fill:none;stroke:#020203;stroke-width:4;stroke-linecap:round;stroke-linejoin:round;}
</style>
<rect x="-375.12" y="-2.93" class="st1" width="1039.55" height="311.38"/>
<g>
	<circle class="st1" cx="150" cy="150" r="133.74"/>
	<path class="st3" d="M150,18.26c35.19,0,68.27,13.7,93.16,38.59c24.88,24.88,38.59,57.97,38.59,93.16
		c0,35.19-13.7,68.27-38.59,93.16c-24.88,24.88-57.97,38.59-93.16,38.59s-68.27-13.7-93.16-38.59
		C31.96,218.27,18.26,185.19,18.26,150c0-35.19,13.7-68.27,38.59-93.16C81.73,31.96,114.81,18.26,150,18.26 M150,14.26
		C75.03,14.26,14.26,75.03,14.26,150c0,74.97,60.77,135.74,135.74,135.74S285.74,224.97,285.74,150
		C285.74,75.03,224.97,14.26,150,14.26L150,14.26z"/>
</g>
<g>
	<g id="XMLID_10_">
		<g>
			<path class="st3" d="M152.03,145.33c20.07,2.51,47.82,30.3,47.82,49.43c0,20.22-31.88,31.82-71.2,31.82
				c-39.33,0-71.2-11.59-71.2-31.82c0-19.13,27.75-46.92,47.82-49.43c6.18,6.44,14.68,9.95,23.38,9.96
				c5.51,0.02,11.1-1.39,16.2-4.34C147.56,149.39,149.96,147.49,152.03,145.33z"/>
			<path class="st3" d="M156.71,106.7c6,10.38,5.58,22.7,0,32.4c-1.28,2.24-2.86,4.34-4.68,6.23c-2.06,2.15-4.46,4.06-7.18,5.62
				c-5.1,2.94-10.69,4.35-16.2,4.34c-8.7-0.01-17.2-3.52-23.38-9.96c-1.77-1.84-3.34-3.93-4.68-6.24c-5.99-10.38-5.58-22.71,0-32.4
				c2.74-4.77,6.75-8.9,11.86-11.85c5.11-2.95,10.7-4.36,16.2-4.34C139.84,90.5,150.72,96.32,156.71,106.7z M147.74,131.85
				c0-2.14-1.73-3.88-3.87-3.88c-2.14,0-3.88,1.74-3.88,3.88c0,2.14,1.74,3.87,3.88,3.87C146.01,135.72,147.74,133.98,147.74,131.85
				z M117.92,131.85c0-2.14-1.74-3.88-3.88-3.88c-2.14,0-3.87,1.74-3.87,3.88c0,2.14,1.73,3.87,3.87,3.87
				C116.19,135.72,117.92,133.98,117.92,131.85z"/>
			<path class="st22" d="M143.87,127.97c2.14,0,3.87,1.74,3.87,3.88c0,2.14-1.73,3.87-3.87,3.87c-2.14,0-3.88-1.74-3.88-3.87
				C139.99,129.7,141.72,127.97,143.87,127.97z"/>
			<path class="st22" d="M114.04,127.97c2.14,0,3.88,1.74,3.88,3.88c0,2.14-1.74,3.87-3.88,3.87c-2.14,0-3.87-1.74-3.87-3.87
				C110.17,129.7,111.9,127.97,114.04,127.97z"/>
		</g>
		<g>
			<line class="st23" x1="101.22" y1="77.78" x2="95.44" y2="67.76"/>
			<polyline class="st23" points="128.65,70.43 128.65,70.42 128.65,58.86 			"/>
			<line class="st23" x1="156.08" y1="77.78" x2="161.87" y2="67.76"/>
			<line class="st23" x1="176.17" y1="97.86" x2="186.19" y2="92.08"/>
			<line class="st23" x1="81.12" y1="97.86" x2="71.12" y2="92.08"/>
			<path class="st23" d="M105.28,145.33c-1.77-1.84-3.34-3.93-4.68-6.24c-5.99-10.38-5.58-22.71,0-32.4
				c2.74-4.77,6.75-8.9,11.86-11.85c5.11-2.95,10.7-4.36,16.2-4.34c11.18,0,22.06,5.82,28.06,16.2c6,10.38,5.58,22.7,0,32.4
				c-1.28,2.24-2.86,4.34-4.68,6.23c-2.06,2.15-4.46,4.06-7.18,5.62c-5.1,2.94-10.69,4.35-16.2,4.34
				C119.96,155.29,111.45,151.77,105.28,145.33z"/>
			<path class="st23" d="M105.28,145.33c-20.07,2.51-47.82,30.3-47.82,49.43c0,20.22,31.87,31.82,71.2,31.82
				c39.32,0,71.2-11.59,71.2-31.82c0-19.13-27.75-46.92-47.82-49.43"/>
		</g>
	</g>
	<g id="XMLID_67_">
		<g>
			<path class="st20" d="M241.03,207.83l-10.84-2.24c-0.66,1.33-1.43,2.63-2.29,3.9s-1.79,2.46-2.78,3.56l6.08,9.25
				c-4.17,4.09-9.11,7.34-14.53,9.55l-6.08-9.25c-2.87,0.95-5.85,1.52-8.86,1.69l-2.24,10.84c-2.86-0.02-5.77-0.33-8.68-0.93
				s-5.7-1.48-8.34-2.59l2.24-10.84c-1.33-0.66-2.63-1.43-3.9-2.29c-1.27-0.86-2.46-1.79-3.56-2.78l-9.25,6.08
				c-4.1-4.17-7.34-9.11-9.55-14.53l9.25-6.08c-0.96-2.86-1.53-5.84-1.7-8.86l-10.84-2.24c0.02-2.87,0.33-5.77,0.93-8.68
				c0.6-2.91,1.48-5.7,2.59-8.34l10.84,2.24c0.66-1.33,1.43-2.63,2.29-3.9c0.86-1.27,1.79-2.45,2.78-3.56l-6.08-9.25
				c4.17-4.1,9.11-7.35,14.53-9.55l6.08,9.25c2.87-0.95,5.85-1.52,8.86-1.69l2.24-10.84c2.86,0.02,5.77,0.33,8.68,0.93
				c2.91,0.6,5.7,1.48,8.34,2.59L215,160.11c1.33,0.66,2.63,1.43,3.9,2.29s2.46,1.79,3.56,2.78l9.25-6.08
				c4.09,4.17,7.34,9.11,9.55,14.53l-9.25,6.08c0.95,2.87,1.52,5.85,1.69,8.86l10.84,2.24c-0.02,2.86-0.33,5.77-0.93,8.68
				C243.02,202.41,242.14,205.2,241.03,207.83z M210.28,197.52c3.91-5.76,2.41-13.6-3.34-17.51c-5.76-3.91-13.6-2.41-17.51,3.34
				c-3.91,5.76-2.42,13.6,3.34,17.51C198.53,204.78,206.37,203.28,210.28,197.52z"/>
			<circle class="st3" cx="199.85" cy="190.44" r="12.6"/>
		</g>
		<g>
			<circle class="st23" cx="199.85" cy="190.44" r="12.6"/>
			<path class="st23" d="M225.11,213.05l6.08,9.25c-4.17,4.09-9.11,7.34-14.53,9.55l-6.08-9.25c-2.87,0.95-5.85,1.52-8.86,1.69
				l-2.24,10.84c-2.86-0.02-5.77-0.33-8.68-0.93s-5.7-1.48-8.34-2.59l2.24-10.84c-1.33-0.66-2.63-1.43-3.9-2.29
				c-1.27-0.86-2.46-1.79-3.56-2.78l-9.25,6.08c-4.1-4.17-7.34-9.11-9.55-14.53l9.25-6.08c-0.96-2.86-1.53-5.84-1.7-8.86
				l-10.84-2.24c0.02-2.87,0.33-5.77,0.93-8.68c0.6-2.91,1.48-5.7,2.59-8.34l10.84,2.24c0.66-1.33,1.43-2.63,2.29-3.9
				c0.86-1.27,1.79-2.45,2.78-3.56l-6.08-9.25c4.17-4.1,9.11-7.35,14.53-9.55l6.08,9.25c2.87-0.95,5.85-1.52,8.86-1.69l2.24-10.84
				c2.86,0.02,5.77,0.33,8.68,0.93c2.91,0.6,5.7,1.48,8.34,2.59L215,160.11c1.33,0.66,2.63,1.43,3.9,2.29s2.46,1.79,3.56,2.78
				l9.25-6.08c4.09,4.17,7.34,9.11,9.55,14.53l-9.25,6.08c0.95,2.87,1.52,5.85,1.69,8.86l10.84,2.24c-0.02,2.86-0.33,5.77-0.93,8.68
				c-0.6,2.91-1.48,5.7-2.59,8.34l-10.84-2.24c-0.66,1.33-1.43,2.63-2.29,3.9S226.11,211.95,225.11,213.05z"/>
		</g>
	</g>
</g>
</svg>
