<?xml version="1.0" encoding="utf-8"?>
<!-- Generator: Adobe Illustrator 24.1.2, SVG Export Plug-In . SVG Version: 6.00 Build 0)  -->
<svg version="1.1" id="Camada_1" xmlns="http://www.w3.org/2000/svg" xmlns:xlink="http://www.w3.org/1999/xlink" x="0px" y="0px"
	 viewBox="0 0 300 300" style="enable-background:new 0 0 300 300;" xml:space="preserve">
<style type="text/css">
	.st0{fill:#9273B2;}
	.st1{fill:#7EBFC9;}
	.st2{fill:#C94F45;}
	.st3{fill:#FFFFFF;}
	.st4{fill:#C84F45;}
	.st5{fill:#020203;}
	.st6{fill:#6462A1;}
	.st7{fill:#C7615A;}
	.st8{fill:#92C293;}
	.st9{fill:#E3A5B8;}
	.st10{fill:#C2A93D;}
	.st11{fill:#23354B;}
	.st12{fill:#F3F0F0;}
	.st13{fill:none;stroke:#21344A;stroke-width:5;stroke-linecap:round;stroke-linejoin:round;stroke-miterlimit:10;}
	.st14{fill:none;stroke:#21344A;stroke-width:5;stroke-linecap:round;stroke-linejoin:round;}
	.st15{fill:#8ECECD;stroke:#21344A;stroke-width:4;stroke-linecap:round;stroke-linejoin:round;stroke-miterlimit:10;}
	.st16{fill:#C3CE55;stroke:#21344A;stroke-width:4;stroke-linecap:round;stroke-linejoin:round;stroke-miterlimit:10;}
	.st17{fill:#9273B2;stroke:#21344A;stroke-width:4;stroke-linecap:round;stroke-linejoin:round;stroke-miterlimit:10;}
	.st18{fill:#B04A3F;stroke:#21344A;stroke-width:4;stroke-linecap:round;stroke-linejoin:round;stroke-miterlimit:10;}
	.st19{fill:#B04A3F;}
	.st20{fill:#C3CE55;}
	.st21{fill:#8ECECD;}
	.st22{fill:#21344A;}
	.st23{fill:none;stroke:#21344A;stroke-width:4;stroke-linecap:round;stroke-linejoin:round;stroke-miterlimit:10;}
	.st24{fill:#C55248;}
	.st25{fill:#D8D5D5;}
	.st26{fill:none;stroke:#21344A;stroke-width:3;stroke-linecap:round;stroke-linejoin:round;}
	.st27{fill:#FFFFFF;stroke:#C94F45;stroke-width:7;stroke-miterlimit:10;}
	.st28{fill:#FFFFFF;stroke:#9273B1;stroke-width:9;stroke-miterlimit:10;}
	.st29{fill:#8FCECD;stroke:#020203;stroke-width:4;stroke-linecap:round;stroke-linejoin:round;}
	.st30{fill:none;stroke:#020203;stroke-width:4;stroke-linecap:round;stroke-linejoin:round;}
</style>
<rect x="-10.79" y="-2.93" class="st1" width="1039.55" height="311.38"/>
<g>
	<circle class="st1" cx="150" cy="150" r="133.74"/>
	<path class="st3" d="M150,18.26c35.19,0,68.27,13.7,93.16,38.59c24.88,24.88,38.59,57.97,38.59,93.16
		c0,35.19-13.7,68.27-38.59,93.16c-24.88,24.88-57.97,38.59-93.16,38.59s-68.27-13.7-93.16-38.59
		C31.96,218.27,18.26,185.19,18.26,150c0-35.19,13.7-68.27,38.59-93.16C81.73,31.96,114.81,18.26,150,18.26 M150,14.26
		C75.03,14.26,14.26,75.03,14.26,150c0,74.97,60.77,135.74,135.74,135.74S285.74,224.97,285.74,150
		C285.74,75.03,224.97,14.26,150,14.26L150,14.26z"/>
</g>
<path class="st3" d="M222.6,106.13c0,0-4.08,1.78-4.25,5.26c-0.17,3.48-4.07,9.81-5.87,12.21c-1.79,2.4-5.53,8.62-3.56,12.8
	c1.97,4.18,2.82,6.53,2.82,6.53l-11.72,26.97c0,0-19.21-18.43-26.76-20.75c-7.55-2.32-48.8-5.76-61.1-1.33
	c-12.29,4.43-38.01,26.65-37.7,42.34c0.31,15.69,0.91,25.67,25.92,32.77s61.02,4.25,68.13,2.91c7.1-1.34,12.41-2.98,12.41-2.98
	l2.48-8.27c0,0,6.63,8.43,9.98,8.27c3.35-0.16,18.17,0.14,23.52-10.5c5.35-10.64,10.09-28.73,10.09-36.1
	c0-7.38-1.6-22.86-0.95-25.26c0.92-3.42,4.33-5.8,5.79-9.11c1.47-3.31,1.58-9.32-0.75-12.28c-2.34-2.96-6.76-6.95-6.76-6.95
	s1.7-9.96,1.93-12.52S222.6,106.13,222.6,106.13z"/>
<g>
	<g id="XMLID_109_">
		<g>
			<path class="st3" d="M135.53,130.87c0-4.82-3.9-8.71-8.73-8.71s-8.71,3.89-8.71,8.71c0,4.82,3.89,8.73,8.71,8.73
				S135.53,135.7,135.53,130.87z M146.82,130.87c0,4.82,3.89,8.73,8.71,8.73s8.73-3.9,8.73-8.73c0-4.82-3.9-8.71-8.73-8.71
				S146.82,126.05,146.82,130.87z M168.93,107.98c6,10.38,5.58,22.7,0,32.4c-1.28,2.24-2.86,4.34-4.68,6.23v0.01
				c-2.07,2.16-4.46,4.05-7.18,5.62c-5.1,2.94-10.69,4.35-16.19,4.34c-8.7-0.02-17.21-3.52-23.38-9.96v-0.01
				c-1.77-1.84-3.34-3.92-4.68-6.23c-5.99-10.38-5.58-22.71,0-32.4c2.74-4.78,6.75-8.91,11.86-11.86c5.1-2.95,10.69-4.35,16.19-4.34
				C152.05,91.79,162.93,97.59,168.93,107.98z"/>
			<path class="st0" d="M155.53,122.16c4.82,0,8.73,3.89,8.73,8.71c0,4.82-3.9,8.73-8.73,8.73s-8.71-3.9-8.71-8.73
				C146.82,126.05,150.71,122.16,155.53,122.16z"/>
			<path class="st0" d="M126.8,122.16c4.82,0,8.73,3.89,8.73,8.71c0,4.82-3.9,8.73-8.73,8.73s-8.71-3.9-8.71-8.73
				C118.09,126.05,121.97,122.16,126.8,122.16z"/>
		</g>
		<g>
			<path class="st23" d="M155.53,122.16c4.82,0,8.73,3.89,8.73,8.71c0,4.82-3.9,8.73-8.73,8.73s-8.71-3.9-8.71-8.73
				C146.82,126.05,150.71,122.16,155.53,122.16z"/>
			<path class="st23" d="M126.8,122.16c4.82,0,8.73,3.89,8.73,8.71c0,4.82-3.9,8.73-8.73,8.73s-8.71-3.9-8.71-8.73
				C118.09,126.05,121.97,122.16,126.8,122.16z"/>
			<line class="st23" x1="113.44" y1="79.06" x2="107.65" y2="69.04"/>
			<polyline class="st23" points="140.87,71.71 140.87,71.7 140.87,60.14 			"/>
			<line class="st23" x1="168.3" y1="79.06" x2="174.09" y2="69.04"/>
			<line class="st23" x1="188.39" y1="99.14" x2="198.41" y2="93.35"/>
			<line class="st23" x1="93.34" y1="99.14" x2="83.34" y2="93.35"/>
			<path class="st23" d="M117.49,146.62L117.49,146.62c-1.77-1.85-3.34-3.93-4.68-6.24c-5.99-10.38-5.58-22.71,0-32.4
				c2.74-4.78,6.75-8.91,11.86-11.86c5.1-2.95,10.69-4.35,16.19-4.34c11.18,0.01,22.06,5.82,28.06,16.2c6,10.38,5.58,22.7,0,32.4
				c-1.28,2.24-2.86,4.34-4.68,6.23v0.01c-2.07,2.16-4.46,4.05-7.18,5.62c-5.1,2.94-10.69,4.35-16.19,4.34
				C132.17,156.56,123.67,153.06,117.49,146.62z"/>
			<path class="st23" d="M164.25,146.62c11.65,1.46,25.89,11.43,35.78,23.3"/>
			<path class="st23" d="M182.13,222.87c-11.64,3.38-25.88,4.99-41.26,4.99c-15.57,0-29.97-1.82-41.68-5.26
				c-17.89-5.26-24.72-14.33-24.72-26.54c0-19.14,22.95-46.93,43.02-49.44"/>
			<line class="st23" x1="135.53" y1="130.87" x2="146.82" y2="130.87"/>
			<path class="st23" d="M179.33,183c0,0,2.46,13.38,3.08,26.42c0.22,4.76,0.2,9.46-0.28,13.46"/>
			<path class="st23" d="M102,183c0,0-4.6,24.67-2.81,39.6"/>
			<path class="st23" d="M182.4,209.38c0,0,0,0.02,0.01,0.04c0.26,1.02,5.84,22.35,28.26,8.85c4.11-2.48,9.74-8.8,12-18
				c8.3-33.71-1.23-49.08,6.34-55.32c12.42-10.25-4.68-22.28-4.68-22.28c2.94-10.94,3.29-16.97-3.2-16.57
				c-3.41,0.22-5.55,12.57-8,16.57c-1.87,3.06-6.58,6.69-4.2,13.74c1.2,3.54,3.14,5.86,3.14,5.86
				c-5.41,11.23-9.26,20.39-11.99,27.66c-6.01,15.94-6.68,22.87-6.68,22.87"/>
		</g>
	</g>
</g>
</svg>
