<?xml version="1.0" encoding="utf-8"?>
<!-- Generator: Adobe Illustrator 24.1.2, SVG Export Plug-In . SVG Version: 6.00 Build 0)  -->
<svg version="1.1" id="Camada_1" xmlns="http://www.w3.org/2000/svg" xmlns:xlink="http://www.w3.org/1999/xlink" x="0px" y="0px"
	 viewBox="0 0 306.4 295.7" style="enable-background:new 0 0 306.4 295.7;" xml:space="preserve">
<style type="text/css">
	.st0{fill:#FFFFFF;}
	.st1{fill:none;stroke:#20334A;stroke-width:3;stroke-linecap:round;stroke-linejoin:round;stroke-miterlimit:10;}
	.st2{fill:#F57333;stroke:#20334A;stroke-width:3;stroke-linecap:round;stroke-linejoin:round;stroke-miterlimit:10;}
	.st3{fill:#FDA300;stroke:#20334A;stroke-width:3;stroke-linecap:round;stroke-linejoin:round;stroke-miterlimit:10;}
	.st4{fill:#2866AD;stroke:#20334A;stroke-width:3;stroke-linecap:round;stroke-linejoin:round;stroke-miterlimit:10;}
	.st5{fill:#F5A015;}
	.st6{fill:#E85218;}
	.st7{fill:none;stroke:#FFFFFF;stroke-width:4;stroke-linecap:round;stroke-linejoin:round;stroke-miterlimit:10;}
	.st8{fill:#148796;}
	.st9{fill:none;stroke:#F3F0F0;stroke-width:6;stroke-linecap:round;stroke-linejoin:round;stroke-miterlimit:10;}
	.st10{fill:#11293B;}
	.st11{fill:#94BF55;}
	.st12{fill:#E06332;}
	.st13{fill:#7AD37D;}
	.st14{fill:#D8D568;}
	.st15{fill:#A86AAD;}
	.st16{fill:#629CBC;}
	.st17{fill:#2866AD;}
	.st18{fill:#677080;}
	.st19{fill:#AAB5C7;}
	.st20{fill:#F3F0F0;}
	.st21{fill:#5D89C4;}
	.st22{fill:#20334A;}
	.st23{fill:#FDA400;}
	.st24{fill:#3E4F6B;}
	.st25{fill:#22344A;}
	.st26{fill:#2A66AE;}
	.st27{fill:#FDA300;}
	.st28{fill:none;stroke:#22344A;stroke-width:4;stroke-linecap:round;stroke-linejoin:round;stroke-miterlimit:10;}
	.st29{fill:none;stroke:#22344A;stroke-width:3;stroke-linecap:round;stroke-linejoin:round;stroke-miterlimit:10;}
	.st30{fill:none;stroke:#22344A;stroke-width:4;stroke-miterlimit:10;}
	.st31{fill:none;stroke:#1F344B;stroke-width:4;stroke-miterlimit:10;}
	.st32{fill:#D8D5D5;stroke:#1F344B;stroke-width:4;stroke-miterlimit:10;}
	.st33{fill:#FDA300;stroke:#1F344B;stroke-width:4;stroke-miterlimit:10;}
	.st34{fill:#629CBC;stroke:#1F344B;stroke-width:4;stroke-miterlimit:10;}
	.st35{fill:none;stroke:#E06332;stroke-width:2;stroke-linecap:round;stroke-linejoin:round;stroke-miterlimit:10;}
	.st36{fill:none;stroke:#FFFFFF;stroke-width:2;stroke-linecap:round;stroke-linejoin:round;stroke-miterlimit:10;}
	
		.st37{fill:none;stroke:#1F344B;stroke-width:2;stroke-linecap:round;stroke-linejoin:round;stroke-miterlimit:10;stroke-dasharray:10,15;}
	.st38{fill:none;}
	.st39{fill:none;stroke:#1F344B;stroke-width:2;stroke-linecap:round;stroke-linejoin:round;}
	.st40{fill:none;stroke:#1F344B;stroke-width:2;stroke-linecap:round;stroke-linejoin:round;stroke-dasharray:10.0846,15.1269;}
	.st41{fill:none;stroke:#1F344B;stroke-width:2;stroke-linecap:round;stroke-linejoin:round;stroke-miterlimit:10;}
	.st42{fill:#FFFFFF;stroke:#FDA300;stroke-width:4;stroke-miterlimit:10;}
	.st43{fill:none;stroke:#FDA400;stroke-width:3;stroke-linecap:round;stroke-linejoin:round;stroke-miterlimit:10;}
	.st44{fill:none;stroke:#FFFFFF;stroke-width:3;stroke-linecap:round;stroke-linejoin:round;stroke-miterlimit:10;}
	
		.st45{fill:none;stroke:#11293B;stroke-width:3;stroke-linecap:round;stroke-linejoin:round;stroke-miterlimit:10;stroke-dasharray:10,15;}
	.st46{fill:none;stroke:#FDA400;stroke-width:2;stroke-linecap:round;stroke-linejoin:round;stroke-miterlimit:10;}
	.st47{fill:none;stroke:#11293B;stroke-width:3;stroke-linecap:round;stroke-linejoin:round;}
	.st48{fill:none;stroke:#11293B;stroke-width:3;stroke-linecap:round;stroke-linejoin:round;stroke-dasharray:10.0846,15.1269;}
	.st49{fill:none;stroke:#11293B;stroke-width:3;stroke-linecap:round;stroke-linejoin:round;stroke-miterlimit:10;}
	.st50{fill:none;stroke:#20334A;stroke-width:3;stroke-linecap:round;stroke-linejoin:round;}
	.st51{fill:#FDD07F;stroke:#20334A;stroke-width:3;stroke-linecap:round;stroke-linejoin:round;stroke-miterlimit:10;}
	.st52{fill:#F98A57;stroke:#20334A;stroke-width:3;stroke-linecap:round;stroke-linejoin:round;stroke-miterlimit:10;}
	.st53{fill:#82A7D9;stroke:#20334A;stroke-width:3;stroke-linecap:round;stroke-linejoin:round;stroke-miterlimit:10;}
	.st54{fill:none;stroke:#22344A;stroke-width:3;stroke-miterlimit:10;}
</style>
<g>
	<polyline class="st1" points="110.3,197.5 151.7,186.6 182.4,216.4 	"/>
	<polygon class="st1" points="121,156.6 151.7,186.6 193.1,175.5 182.4,216.4 140.7,228.3 110.3,197.5 	"/>
	<polyline class="st1" points="121,156.6 162.6,145 193.1,175.5 	"/>
	<polyline class="st1" points="162.6,145 151.7,186.6 140.7,228.3 	"/>
	<circle class="st2" cx="162.6" cy="145" r="9.5"/>
	<circle class="st3" cx="193.1" cy="175.5" r="9.5"/>
	<circle class="st3" cx="121" cy="156.6" r="9.5"/>
	<circle class="st4" cx="151.7" cy="186.6" r="9.5"/>
	<circle class="st3" cx="140.7" cy="228.3" r="9.5"/>
	<circle class="st2" cx="182.4" cy="216.4" r="9.5"/>
	<circle class="st2" cx="110.3" cy="197.5" r="9.5"/>
</g>
<g>
	<g>
		<g>
			<path class="st0" d="M190.9,224.9c4.3,1.9,9.2,3.3,12.5,6.8c3.1,3.3,8.1-1.7,4.9-4.9c-3.8-4-9-5.7-14-7.9
				C190.4,217,186.8,223,190.9,224.9L190.9,224.9z"/>
		</g>
	</g>
	<g>
		<g>
			<path class="st0" d="M170.6,233.3c2.7,2.1,5.3,4.3,8.6,5.3c3.5,1.1,7.2,0.8,10.8,1.5c4.4,0.8,6.3-5.9,1.9-6.7
				c-2.7-0.5-5.5-0.5-8.2-0.9c-3.2-0.4-5.7-2.1-8.2-4.1C172,225.6,167,230.5,170.6,233.3L170.6,233.3z"/>
		</g>
	</g>
	<g>
		<g>
			<path class="st0" d="M167.8,243.5c5.7,3.8,12.1,5.9,18.9,6.3c4.5,0.3,4.5-6.7,0-7c-5.6-0.4-10.7-2.2-15.4-5.3
				C167.6,235,164.1,241,167.8,243.5L167.8,243.5z"/>
		</g>
	</g>
	<g>
		<g>
			<path class="st0" d="M168.4,251.4c5.9,2.4,11.7,4.6,18.2,5c4.5,0.3,4.5-6.7,0-7c-5.7-0.3-11.1-2.5-16.3-4.7
				C166.1,242.9,164.3,249.7,168.4,251.4L168.4,251.4z"/>
		</g>
	</g>
	<g>
		<g>
			<path class="st0" d="M113,218.4c-4.6,1.5-8.8,4.2-13,6.5c-3.9,2.2-0.4,8.2,3.5,6c3.7-2,7.3-4.5,11.3-5.8
				C119.2,223.8,117.3,217,113,218.4L113,218.4z"/>
		</g>
	</g>
	<g>
		<g>
			<path class="st0" d="M130,228.2c-4.6,3.6-10.6,6.7-16.6,6.5c-4.5-0.1-4.5,6.9,0,7c7.9,0.2,15.4-3.8,21.5-8.6
				C138.5,230.4,133.5,225.5,130,228.2L130,228.2z"/>
		</g>
	</g>
	<g>
		<g>
			<path class="st0" d="M124.2,230.2c-3.5,1.3-7.1,2.9-10.9,2.7c-4.5-0.3-4.5,6.7,0,7c4.5,0.3,8.6-1.4,12.8-3
				C130.2,235.4,128.4,228.7,124.2,230.2L124.2,230.2z"/>
		</g>
	</g>
	<g>
		<g>
			<path class="st0" d="M136.7,236.2c-5.1,1.3-9.7,4.9-15,5.1c-4.5,0.1-4.5,7.1,0,7c6.2-0.2,11.1-3.8,16.9-5.3
				C142.9,241.8,141.1,235,136.7,236.2L136.7,236.2z"/>
		</g>
	</g>
	<g>
		<g>
			<path class="st0" d="M136.4,245.8c-5.3,1.9-10.8,3.2-16.3,3.8c-4.4,0.5-4.5,7.5,0,7c6.2-0.7,12.3-2,18.2-4.1
				C142.5,251.1,140.7,244.3,136.4,245.8L136.4,245.8z"/>
		</g>
	</g>
	<g>
		<path class="st25" d="M175.1,64.6c2.6,0.8,4.1,3.6,3.3,6.3c-0.8,2.6-3.6,4.1-6.3,3.3c-2.6-0.8-4.1-3.6-3.3-6.3
			C169.7,65.2,172.5,63.7,175.1,64.6z"/>
		<path class="st25" d="M134.3,62.2c2.6,0.8,4.1,3.6,3.3,6.3c-0.8,2.6-3.6,4.1-6.3,3.3c-2.6-0.8-4.1-3.6-3.3-6.3
			C128.9,62.8,131.7,61.4,134.3,62.2z"/>
	</g>
	<g>
		<path class="st54" d="M203.5,74.3c0,11.9-4.2,22.9-11.1,31.5c-9.2,11.4-23.3,18.7-39.1,18.7c-27.8,0-50.3-22.5-50.3-50.3
			c0-27.8,22.5-50.3,50.3-50.3C181,24.1,203.5,46.6,203.5,74.3z"/>
		<path class="st50" d="M61,189.7c16.1,10.5,23.3,37.8,32,34.3s19-10.1,23.8-4.8c4.7,5.4-11.8,9.7-7.3,11.9c0,0,7.9,3.5,20.4-4
			c0,0,3.7-2.1,6.1,0.7c2.2,2.6,0.7,4.6-0.8,5.9c-1.5,1.3-6.5,6.3-15.9,7.5"/>
		<path class="st50" d="M126.7,239.3c4.5-1.3,10.6-4.2,12.9-2c1.7,1.5,1.7,4.8-1.9,7.1c-4.9,3-8.4,4.8-17.4,6"/>
		<path class="st50" d="M130.4,248c2-0.7,10.2-5.1,10.4,0.6c0.3,6-23.7,9.1-32.1,9.8C73.1,261.3,8.5,240.1,22.3,189
			c19.9-73.6,88.7-87.4,88.7-87.4"/>
		<path class="st50" d="M249,193.4c-16.1,10.5-27.4,34.2-36.1,30.6s-19-10.1-23.8-4.8c-4.7,5.4,11.8,9.7,7.3,11.9
			c0,0-7.9,3.5-20.4-4c0,0-3.7-2.1-6.1,0.7c-2.2,2.6-0.7,4.6,0.8,5.9c1.5,1.3,6.5,6.3,15.9,7.5"/>
		<path class="st50" d="M179.2,239.3c-4.5-1.3-10.6-4.2-12.9-2c-1.7,1.5-1.7,4.8,1.9,7.1c4.9,3,8.4,4.8,17.4,6"/>
		<path class="st50" d="M175.4,248c-2-0.7-10.2-5.1-10.4,0.6c-0.3,6,23.7,9.1,32.1,9.8c35.7,2.9,90.3-30.9,81.6-68.7
			c-17.9-77.7-86.3-83.9-86.3-83.9"/>
	</g>
</g>
</svg>
