<?xml version="1.0" encoding="utf-8"?>
<!-- Generator: Adobe Illustrator 24.1.1, SVG Export Plug-In . SVG Version: 6.00 Build 0)  -->
<svg version="1.1" id="Camada_1" xmlns="http://www.w3.org/2000/svg" xmlns:xlink="http://www.w3.org/1999/xlink" x="0px" y="0px"
	 viewBox="0 0 126.4 195.5" style="enable-background:new 0 0 126.4 195.5;" xml:space="preserve">
<style type="text/css">
	.st0{fill:#F5A015;}
	.st1{fill:#E85218;}
	.st2{fill:none;stroke:#FFFFFF;stroke-width:4;stroke-linecap:round;stroke-linejoin:round;stroke-miterlimit:10;}
	.st3{fill:#148796;}
	.st4{fill:none;stroke:#F3F0F0;stroke-width:6;stroke-linecap:round;stroke-linejoin:round;stroke-miterlimit:10;}
	.st5{fill:#11293B;}
	.st6{fill:#94BF55;}
	.st7{fill:#E06332;}
	.st8{fill:#7AD37D;}
	.st9{fill:#D8D568;}
	.st10{fill:#A86AAD;}
	.st11{fill:#629CBC;}
	.st12{fill:#2866AD;}
	.st13{fill:#677080;}
	.st14{fill:#AAB5C7;}
	.st15{fill:#F3F0F0;}
	.st16{fill:#5D89C4;}
	.st17{fill:#20334A;}
	.st18{fill:#FDA400;}
	.st19{fill:#3E4F6B;}
	.st20{fill:#22344A;}
	.st21{fill:#2A66AE;}
	.st22{fill:#FFFFFF;}
	.st23{fill:#FDA300;}
	.st24{fill:none;stroke:#22344A;stroke-width:4;stroke-linecap:round;stroke-linejoin:round;stroke-miterlimit:10;}
	.st25{fill:none;stroke:#22344A;stroke-width:3;stroke-linecap:round;stroke-linejoin:round;stroke-miterlimit:10;}
	.st26{fill:none;stroke:#22344A;stroke-width:4;stroke-miterlimit:10;}
	.st27{fill:none;stroke:#1F344B;stroke-width:4;stroke-miterlimit:10;}
	.st28{fill:#D8D5D5;stroke:#1F344B;stroke-width:4;stroke-miterlimit:10;}
	.st29{fill:#FDA300;stroke:#1F344B;stroke-width:4;stroke-miterlimit:10;}
	.st30{fill:#629CBC;stroke:#1F344B;stroke-width:4;stroke-miterlimit:10;}
	.st31{fill:none;stroke:#E06332;stroke-width:2;stroke-linecap:round;stroke-linejoin:round;stroke-miterlimit:10;}
	.st32{fill:none;stroke:#FFFFFF;stroke-width:2;stroke-linecap:round;stroke-linejoin:round;stroke-miterlimit:10;}
	
		.st33{fill:none;stroke:#1F344B;stroke-width:2;stroke-linecap:round;stroke-linejoin:round;stroke-miterlimit:10;stroke-dasharray:10,15;}
	.st34{fill:none;}
	.st35{fill:none;stroke:#1F344B;stroke-width:2;stroke-linecap:round;stroke-linejoin:round;}
	.st36{fill:none;stroke:#1F344B;stroke-width:2;stroke-linecap:round;stroke-linejoin:round;stroke-dasharray:10.0846,15.1269;}
	.st37{fill:none;stroke:#1F344B;stroke-width:2;stroke-linecap:round;stroke-linejoin:round;stroke-miterlimit:10;}
	.st38{fill:#FFFFFF;stroke:#FDA300;stroke-width:4;stroke-miterlimit:10;}
	
		.st39{fill:none;stroke:#11293B;stroke-width:2;stroke-linecap:round;stroke-linejoin:round;stroke-miterlimit:10;stroke-dasharray:10,15;}
	.st40{fill:none;stroke:#11293B;stroke-width:2;stroke-linecap:round;stroke-linejoin:round;}
	.st41{fill:none;stroke:#11293B;stroke-width:2;stroke-linecap:round;stroke-linejoin:round;stroke-dasharray:10.0846,15.1269;}
	.st42{fill:none;stroke:#11293B;stroke-width:2;stroke-linecap:round;stroke-linejoin:round;stroke-miterlimit:10;}
</style>
<g>
	<path class="st23" d="M21,81.3c0,0,13.7-9.5,33.8-9.5c21,0,36,20,51,20.7l-9.9,92l-65.1,0.3L21,81.3z"/>
	<path class="st27" d="M63.2,46.4H20.3c-1.8,0-3.1,1.5-3,3.3L29,181.5c0.1,1.5,1.4,2.7,3,2.7h31.2h31.2c1.5,0,2.8-1.2,3-2.7
		l11.7-131.9c0.2-1.8-1.2-3.3-3-3.3H63.2z"/>
	<path class="st28" d="M113.4,46.4H13c-1.7,0-3-1.3-3-3V31.5c0-1.7,1.3-3,3-3h100.3c1.7,0,3,1.3,3,3v11.8
		C116.4,45,115,46.4,113.4,46.4z"/>
	<path class="st28" d="M102.4,28.5H24c-1.7,0-3-1.3-3-3V13.7c0-1.7,1.3-3,3-3h78.3c1.7,0,3,1.3,3,3v11.8
		C105.4,27.2,104,28.5,102.4,28.5z"/>
	<g>
		<path id="XMLID_133_" class="st22" d="M66.8,113.4c0,2-1.6,3.6-3.6,3.6c-2,0-3.6-1.6-3.6-3.6c0-2,1.6-3.6,3.6-3.6
			S66.8,111.4,66.8,113.4z"/>
		<path id="XMLID_27_" class="st22" d="M63.2,94.3c-10.5,0-19.1,8.5-19.1,19.1c0,10.5,8.5,19.1,19.1,19.1c10.5,0,19.1-8.5,19.1-19.1
			C82.3,102.9,73.7,94.3,63.2,94.3z M63.2,125.2c-6.5,0-11.8-5.3-11.8-11.8s5.3-11.8,11.8-11.8S75,106.9,75,113.4
			C75,119.9,69.7,125.2,63.2,125.2z"/>
	</g>
</g>
</svg>
