<?xml version="1.0" encoding="utf-8"?>
<!-- Generator: Adobe Illustrator 24.1.1, SVG Export Plug-In . SVG Version: 6.00 Build 0)  -->
<svg version="1.1" id="Camada_1" xmlns="http://www.w3.org/2000/svg" xmlns:xlink="http://www.w3.org/1999/xlink" x="0px" y="0px"
	 viewBox="0 0 306.4 295.7" style="enable-background:new 0 0 306.4 295.7;" xml:space="preserve">
<style type="text/css">
	.st0{fill:#F5A015;}
	.st1{fill:#E85218;}
	.st2{fill:none;stroke:#FFFFFF;stroke-width:4;stroke-linecap:round;stroke-linejoin:round;stroke-miterlimit:10;}
	.st3{fill:#148796;}
	.st4{fill:none;stroke:#F3F0F0;stroke-width:6;stroke-linecap:round;stroke-linejoin:round;stroke-miterlimit:10;}
	.st5{fill:#11293B;}
	.st6{fill:#94BF55;}
	.st7{fill:#E06332;}
	.st8{fill:#7AD37D;}
	.st9{fill:#D8D568;}
	.st10{fill:#A86AAD;}
	.st11{fill:#629CBC;}
	.st12{fill:#2866AD;}
	.st13{fill:#677080;}
	.st14{fill:#AAB5C7;}
	.st15{fill:#F3F0F0;}
	.st16{fill:#5D89C4;}
	.st17{fill:#20334A;}
	.st18{fill:#FDA400;}
	.st19{fill:#3E4F6B;}
	.st20{fill:#22344A;}
	.st21{fill:#2A66AE;}
	.st22{fill:#FFFFFF;}
	.st23{fill:#FDA300;}
	.st24{fill:none;stroke:#22344A;stroke-width:4;stroke-linecap:round;stroke-linejoin:round;stroke-miterlimit:10;}
	.st25{fill:none;stroke:#22344A;stroke-width:3;stroke-linecap:round;stroke-linejoin:round;stroke-miterlimit:10;}
	.st26{fill:none;stroke:#22344A;stroke-width:4;stroke-miterlimit:10;}
	.st27{fill:none;stroke:#1F344B;stroke-width:4;stroke-miterlimit:10;}
	.st28{fill:#D8D5D5;stroke:#1F344B;stroke-width:4;stroke-miterlimit:10;}
	.st29{fill:#FDA300;stroke:#1F344B;stroke-width:4;stroke-miterlimit:10;}
	.st30{fill:#629CBC;stroke:#1F344B;stroke-width:4;stroke-miterlimit:10;}
	.st31{fill:none;stroke:#E06332;stroke-width:2;stroke-linecap:round;stroke-linejoin:round;stroke-miterlimit:10;}
	.st32{fill:none;stroke:#FFFFFF;stroke-width:2;stroke-linecap:round;stroke-linejoin:round;stroke-miterlimit:10;}
	
		.st33{fill:none;stroke:#1F344B;stroke-width:2;stroke-linecap:round;stroke-linejoin:round;stroke-miterlimit:10;stroke-dasharray:10,15;}
	.st34{fill:none;}
	.st35{fill:none;stroke:#1F344B;stroke-width:2;stroke-linecap:round;stroke-linejoin:round;}
	.st36{fill:none;stroke:#1F344B;stroke-width:2;stroke-linecap:round;stroke-linejoin:round;stroke-dasharray:10.0846,15.1269;}
	.st37{fill:none;stroke:#1F344B;stroke-width:2;stroke-linecap:round;stroke-linejoin:round;stroke-miterlimit:10;}
	.st38{fill:#FFFFFF;stroke:#FDA300;stroke-width:4;stroke-miterlimit:10;}
	.st39{fill:none;stroke:#FDA400;stroke-width:3;stroke-linecap:round;stroke-linejoin:round;stroke-miterlimit:10;}
	.st40{fill:none;stroke:#FFFFFF;stroke-width:3;stroke-linecap:round;stroke-linejoin:round;stroke-miterlimit:10;}
	
		.st41{fill:none;stroke:#11293B;stroke-width:3;stroke-linecap:round;stroke-linejoin:round;stroke-miterlimit:10;stroke-dasharray:10,15;}
	.st42{fill:none;stroke:#FDA400;stroke-width:2;stroke-linecap:round;stroke-linejoin:round;stroke-miterlimit:10;}
	.st43{fill:none;stroke:#11293B;stroke-width:3;stroke-linecap:round;stroke-linejoin:round;}
	.st44{fill:none;stroke:#11293B;stroke-width:3;stroke-linecap:round;stroke-linejoin:round;stroke-dasharray:10.0846,15.1269;}
	.st45{fill:none;stroke:#11293B;stroke-width:3;stroke-linecap:round;stroke-linejoin:round;stroke-miterlimit:10;}
</style>
<g>
	<g id="XMLID_3_">
		<g>
			<path class="st22" d="M111.8,199.8l-1,2.3l-0.3-0.1l-2.1,5.4l-1.8,3.8l-1.4-1.3c-3.2-2.1-8.3-0.5-8.3-0.5s-9.7,2.2-14.1,2
				c-4.4-0.2-5.9-6.2-5.9-6.2l-8-25.3L81.3,141l0-0.1c0,0,0,0,0,0.1c-0.1,0.3-0.8,2.1-4.6,11.6c-1.7,4.4-14.8,5.8-14.8,5.8l-3.7-8.6
				c0.9,2.3,8.4,21,9.3,24.6c0.4,1.5,0.8,3.4,1.4,5.6c2.5,9.4,6.7,23.7,8.8,28.1c2.6,5.4,8.5,3.9,8.5,3.9s7.8-1.5,13.1-2.3
				s7,2.1,7,2.1l-3.6,7.5c-1.4-0.1-2.2,0.6-2.2,0.6s-2.6,2.8,0,7.1c0.7,1.2,2.1,1.9,3.9,2.3l5,8.5c-2.2,0.2-3.7,0.3-3.7,0.3
				c1.3,0.3,2.6,0.4,4,0.4l4.3,7.4c-4.8,0.5-9.1,0.4-9.1,0.4c0.9,0.2,5.2,0.1,9.3-0.1l3.6,6.1c-1.6,0.4-3.5,0.9-5.5,1.2c0,0,0,0,0,0
				c-2.5,0.2-5.1,0.3-7.7,0.3c0,0,0,0,0,0c-5.7-0.4-11.4-1.6-13.7-2.6c-3.8-1.7-11-6.7-14-8.8c0,0,0,0,0,0c-5.1-4.8-9.2-9.9-11-12.3
				c-4-5.3-18.4-16.8-37.8-37.3s-16.7-32-16.7-32s-1-22.3,28.3-53.5C70.6,74.3,111,74.3,111,74.3c1.1,4.6,4,10.8,9,16.7
				c9.2,11.5,23.5,18.9,39.4,18.9c0.9,0,1.7,0,2.6-0.1c0,0,0,0,0,0c11.2,0.1,20.3-4.3,27.3-9.7c0,0,0,0,0,0c5.4-4,10-9.1,13.5-14.9
				c2.4-3.6,3.5-6,3.5-6c10.7,0.2,29.3,5.7,41,12c11.8,6.3,37.8,26.8,45.8,52.8c7.7,24.9-8.2,34.5-19.4,39.5
				c-11.5,5.1-27.6,6.4-41.1,5.7l-19.2-24.6l39.6-19.2c0,0-20.2-1.6-45.7,11.4l-5.8-7.5l-72,9L111.8,199.8z"/>
			<path class="st22" d="M253,145.4l-39.6,19.2l-6.1-7.8C232.8,143.8,253,145.4,253,145.4z"/>
			<path class="st22" d="M122.1,204.1c0.8-1.8,5.5-12.7,8.2-13.5c1.4-0.4,2.6-0.5,3.4-0.4c0.9,0.1,1.4,0.3,1.4,0.3l5.5-14.4
				l-4.5,14.2l-1,3.1l27.6,8.9l0.5-1.9l0.2-0.4c-0.6,1.9-1,3.6-0.8,4.6c0.7,3.9,1.7,5.5,4.3,5.9c2.5,0.3,2.4-1.2,2.4-1.2
				s-2.1-6.7,4.9-15.8c-0.6,1-7.2,11.9-2.1,17.4c5.4,5.8,8.1,5.2,8.1,5.2s1.3,0.3,2.3-1.4c1-1.8-5-4.1-2.4-10.7
				c0.4-0.9,0.7-1.7,0.9-2.4c-0.6,2.5-0.8,5.8,0.8,8.9c3,5.4,4.9,4.9,7.1,4.8c0,0,2.1-0.5,1.7-4.2l7.4,2.7c0.7,0.3,1.7,0.6,2.7,0.8
				c0,0,0,0,0,0c2.6,0.5,5.9,0.4,8.4-1.7c0,0,0,0,0.1,0c0.7-0.6,1.3-1.3,1.8-2.2c0-0.1,0.1-0.1,0.1-0.2c0.2-0.4,0.4-0.9,0.6-1.4
				c0.6-1.5,0.8-2.8,0.7-4c0-0.5,0-0.8,0-0.8l-0.1,0c-0.6-5.2-5.8-8-7.6-8.8c1-0.5,1.9-1.1,2.7-1.9c3.9-3.8,4.3-6.3,18.8-4.8
				c2,0.2,4.1,0.4,6.3,0.5l0.9,1.2c0,0,22,53-7,70c-19.9,11.6-90.4,5.9-99.9,5.1l-1.2-4.8l-2.3-8.9c0.5-0.3,0.9-0.5,1.3-0.8
				c3-3-1.7-4.9-1.7-4.9s-4,0.2-8.2,0.4l-0.2-0.3c5.6-0.6,11.9-1.9,13.2-4.9c0.8-1.9,0.7-4.2-1.2-5.9c0,0-8.6,3.4-16.3,3.4l-0.4-0.7
				c5.1-0.5,14-1.8,17.1-5c1.3-1.4,0.9-5.6-0.8-6.2s-6.1,3.2-7.9,3.2c-0.2,0-0.6,0-1.1,0c2.3-0.5,3.5-1.3,3.5-1.3l3.1-7.4l5-12
				l-17.4-6.9l0.9-1.9l10.2,4.1C122,204.3,122,204.3,122.1,204.1z"/>
			<path class="st22" d="M174.1,193.5c-7,9.1-4.9,15.8-4.9,15.8s0.1,1.5-2.4,1.2c-2.5-0.3-3.5-2-4.3-5.9c-0.2-1.1,0.1-2.7,0.8-4.6
				l2.5-4.9l4.9-9.8l42.7-20.7l19.2,24.6c-2.2-0.1-4.3-0.3-6.3-0.5c-14.5-1.5-14.9,0.9-18.8,4.8c-0.8,0.7-1.7,1.4-2.7,1.9
				c-0.4-0.2-0.6-0.3-0.6-0.3c-1.4,0.8-7.3,1.8-7.3,1.8s-3.7,1.8-5.1,3.3c-0.1,0.2-0.3,0.3-0.4,0.5c0,0,0,0,0,0
				c-0.1,0.1-1.1,1.2-1.5,3.6c0,0.1,0,0.3-0.1,0.4c-0.1,0.9-0.2,1.7-0.2,2.4c0,1.9,0.2,3,0.3,3.4c0,0,0,0.1,0,0.1c0,0.1,0,0.1,0,0.1
				l0.5,0.2c0.3,3.7-1.7,4.2-1.7,4.2c-2.1,0.2-4.1,0.6-7.1-4.8c-1.7-3.1-1.5-6.3-0.8-8.9c1.3-3.3,1.6-4,1.7-4.2
				c-0.2,0.3-1.1,1.9-1.7,4.2c-0.3,0.7-0.6,1.5-0.9,2.4c-2.6,6.6,3.4,8.9,2.4,10.7c-1,1.8-2.3,1.4-2.3,1.4s-2.7,0.6-8.1-5.2
				C166.9,205.3,173.5,194.5,174.1,193.5z"/>
			<path class="st22" d="M207.3,156.8l6.1,7.8l-42.7,20.7l0.3-0.5l-0.1,0C183.2,171.4,195.8,162.6,207.3,156.8z"/>
			<path class="st11" d="M212.5,204.1c0,0,0,0.3,0,0.8C212.5,204.6,212.4,204.3,212.5,204.1L212.5,204.1z"/>
			<path class="st22" d="M212.5,204.8c0,1.2-0.2,2.5-0.7,4c-0.2,0.5-0.4,1-0.6,1.4C212.2,208,212.4,205.9,212.5,204.8z"/>
			<path class="st19" d="M212.4,204.1c0,0.3,0.1,0.5,0.1,0.8c-0.1,1.1-0.3,3.2-1.4,5.4c-0.5,1-1.2,1.8-1.9,2.4c0,0,0,0-0.1,0
				c-3.1,2.4-7.9,1.8-8.4,1.7c0,0,0,0,0,0l-10.1-3.5c0,0,0,0,0-0.1c-0.3-3-1.9-6.3,1.3-10.1L212.4,204.1z"/>
			<path class="st22" d="M212.4,204.1l-20.5-3.4c0.8-0.9,1.9-1.9,3.3-2.8c0,0,5.4-0.4,9.6-2.6C206.6,196.1,211.8,198.9,212.4,204.1z
				"/>
			<path class="st11" d="M211.1,210.2c0,0.1-0.1,0.1-0.1,0.2c-0.5,0.9-1.1,1.6-1.8,2.2C209.9,212,210.5,211.2,211.1,210.2z"/>
			<path class="st22" d="M133.6,190.2c-0.8-0.1-2,0-3.4,0.4c-2.7,0.8-7.4,11.7-8.2,13.5l-10.3-4.3l17.6-41.6l72-9l5.8,7.5
				c-11.5,5.8-24.1,14.7-36.5,27.9l-16-5.3l-14-4.6l-0.4,1.2l-5.5,14.4C135,190.4,134.5,190.2,133.6,190.2z"/>
			<path class="st22" d="M204.2,195c0,0,0.2,0.1,0.6,0.3c-4.2,2.2-9.6,2.6-9.6,2.6c-1.4,1-2.5,1.9-3.3,2.8l-0.5-0.1
				c0.1-0.2,0.3-0.3,0.4-0.5c1.4-1.5,5.1-3.3,5.1-3.3S202.8,195.8,204.2,195z"/>
			<path class="st22" d="M209.1,212.6c-2.5,2.1-5.8,2.2-8.4,1.7C201.2,214.4,206,215,209.1,212.6z"/>
			<path class="st22" d="M209.8,59.4c0,9.4-2.6,18.2-7.1,25.7c-2.8,4.2-7.3,10-13.5,14.9c0,0,0,0,0,0c-7.7,5.7-17.1,9.2-27.3,9.7
				c0,0,0,0,0,0c-0.9,0-1.7,0-2.6-0.1c-19-1.3-31.7-9.8-39.3-18.8c-6.9-8.6-11.1-19.6-11.1-31.5c0-27.9,22.6-50.4,50.4-50.4
				C187.2,9,209.8,31.6,209.8,59.4z M183.6,85.7c0-2.8-2.3-5.1-5.1-5.1c-2.8,0-5.1,2.3-5.1,5.1s2.3,5.1,5.1,5.1
				C181.4,90.8,183.6,88.5,183.6,85.7z M142.4,80.7c0-2.6-2.1-4.7-4.7-4.7c-2.6,0-4.6,2.1-4.6,4.7s2.1,4.7,4.6,4.7
				C140.3,85.3,142.4,83.2,142.4,80.7z"/>
			<path class="st22" d="M190.6,210.9l10.1,3.5c-1-0.2-2-0.5-2.7-0.8L190.6,210.9C190.6,210.9,190.6,210.9,190.6,210.9z"/>
			<path class="st22" d="M202.7,85.2c-3.4,5.8-8.1,10.9-13.5,14.9C195.5,95.2,199.9,89.4,202.7,85.2z"/>
			<path class="st11" d="M191.4,200.6l0.5,0.1c-3.3,3.8-1.6,7.1-1.3,10.1c0,0,0,0,0,0.1l-0.5-0.2c0,0,0,0,0-0.1c0,0,0-0.1,0-0.1
				c-0.1-0.5-0.3-1.8-0.3-3.4c0-0.7,0.1-1.5,0.2-2.4c0-0.1,0-0.3,0.1-0.4C190.1,203,190.6,201.7,191.4,200.6
				C191.4,200.6,191.4,200.6,191.4,200.6z"/>
			<path class="st11" d="M189.9,204.3c0.4-2.5,1.4-3.5,1.5-3.6C190.6,201.7,190.1,203,189.9,204.3z"/>
			<path class="st22" d="M190.6,210.9C190.6,210.9,190.6,210.9,190.6,210.9l-0.5-0.2c0,0,0,0,0-0.1c0,0.1,0,0.1,0,0.1L190.6,210.9z"
				/>
			<path class="st22" d="M189.7,207.1c0-0.8,0-1.6,0.2-2.4C189.7,205.6,189.7,206.4,189.7,207.1z"/>
			<path class="st11" d="M189.7,207.1c0,1.6,0.3,2.9,0.3,3.4C189.9,210.1,189.7,209,189.7,207.1z"/>
			<circle class="st20" cx="178.5" cy="85.7" r="5.1"/>
			<path class="st22" d="M182.6,197.3c-0.1,0.2-0.3,0.9-1.7,4.2C181.5,199.2,182.4,197.5,182.6,197.3z"/>
			<path class="st22" d="M170.9,184.7l-0.3,0.5l-0.7,0.3c0.3-0.3,0.6-0.6,0.8-0.9L170.9,184.7z"/>
			<path class="st22" d="M165.7,184l-11.1-4l0.2-0.6l16,5.3c-0.3,0.3-0.6,0.6-0.8,0.9l0,0L165.7,184z"/>
			<path class="st22" d="M170.7,185.2l-4.9,9.8l-0.5-0.1c2.1-4.8,4.7-9.4,4.7-9.4l0,0L170.7,185.2z"/>
			<path class="st22" d="M165.7,184l4.3,1.6c0,0-2.6,4.6-4.7,9.4l-29.3-4.9l4.5-14.2l0.4-0.9l13.8,5L165.7,184z"/>
			<path class="st11" d="M165.7,195.1l-2.5,4.9c0.5-1.6,1.2-3.3,2-5L165.7,195.1z"/>
			<path class="st19" d="M136,190.1l29.3,4.9c-0.8,1.7-1.4,3.4-2,5l-0.2,0.4l-0.5,1.9l-27.6-8.9L136,190.1z"/>
			<path class="st22" d="M159.3,109.7c0.9,0.1,1.8,0.1,2.6,0.1c-0.9,0-1.7,0.1-2.6,0.1c-15.9,0-30.1-7.4-39.4-18.9
				C127.6,100,140.3,108.4,159.3,109.7z"/>
			<polygon class="st22" points="154.8,179.4 154.6,180 140.8,175 140.4,176 140.8,174.8 			"/>
			<circle class="st20" cx="137.7" cy="80.7" r="4.7"/>
			<path class="st23" d="M128.3,272.1c0,0,1.7,9.3-4.6,12.7c-6.4,3.4-11.1,1.2-11.1,1.2l-31.8-13.4l-13.9-6c0,0-6.3-3-6.3-8.5
				c0-3.9,1.6-6.9,2.5-8.1c1.8-2.3,12.6-8.6,12.6-8.6s0.5,0.4,1.3,1c0,0,0,0,0,0c6.1,5.8,13.7,11.3,20.6,11.4c2.2,0.1,4.6,0.1,7,0.1
				c0,0,0,0,0,0c1.7,0.1,3.5,0.1,5.1,0.1l12.1,5.2l3.6,6.2c0,0,0.4,0,1.1,0.1L128.3,272.1z M78.1,262.8c0-1-0.8-1.8-1.8-1.8
				c-1,0-1.8,0.8-1.8,1.8c0,1,0.8,1.8,1.8,1.8C77.3,264.6,78.1,263.8,78.1,262.8z"/>
			<path class="st22" d="M123.3,221.1l-3.1,7.4c0,0-1.2,0.8-3.5,1.3c-1.3,0.1-3.4,0.2-5.7,0.2c-1.5-0.2-3.3-0.5-5.2-1.2
				c-0.9-0.3-1.7-0.7-2.2-1.1l-1.7-3c0-0.6,0.2-1,0.2-1l4-10.3l4.6-10.8l0.3-0.6l17.4,6.9L123.3,221.1z"/>
			<path class="st22" d="M126.1,235.1c1.9,1.7,2,4,1.2,5.9c-1.3,3-7.6,4.3-13.2,4.9l-4.3-7.4C117.5,238.5,126.1,235.1,126.1,235.1z"
				/>
			<path class="st22" d="M125.6,226.6c1.8,0.6,2.1,4.8,0.8,6.2c-3,3.3-12,4.6-17.1,5l-5-8.5c2,0.5,4.3,0.7,6.5,0.7
				c2.3,0.3,4.3,0.1,5.7-0.2c0.5,0,0.9,0,1.1,0C119.5,229.7,123.9,225.9,125.6,226.6z"/>
			<path class="st11" d="M125.3,260.5l1.2,4.8c-0.7-0.1-1.1-0.1-1.1-0.1l-3.6-6.2L125.3,260.5z"/>
			<path class="st22" d="M123,251.6l2.3,8.9l-3.5-1.5l-3.6-6.1C120.2,252.6,121.8,252.2,123,251.6z"/>
			<path class="st22" d="M122.5,245.8c0,0,4.7,1.9,1.7,4.9c-0.3,0.3-0.7,0.6-1.3,0.8l-0.2-0.9v0c0,0,0,0-0.1,0c0,0,0,0,0,0
				c-0.5,0.2-2.2,0.9-4.8,1.5l-3.6-6.1C118.5,246.1,122.5,245.8,122.5,245.8z"/>
			<path class="st22" d="M122.8,250.7l0.2,0.9c-1.2,0.6-2.8,1-4.8,1.3l-0.3-0.5c3.2-0.9,4.4-1.4,4.8-1.6
				C122.7,250.8,122.7,250.8,122.8,250.7C122.7,250.8,122.8,250.7,122.8,250.7z"/>
			<path class="st11" d="M122.8,250.7L122.8,250.7C122.8,250.7,122.7,250.8,122.8,250.7C122.8,250.7,122.8,250.7,122.8,250.7z"/>
			<path class="st22" d="M111.8,199.8l10.3,4.3c-0.1,0.2-0.1,0.3-0.1,0.3l-10.2-4.1l-0.9,1.9l0,0L111.8,199.8z"/>
			<path class="st22" d="M118.2,252.9l3.6,6.1l-12.1-5.2c0,0,0.1,0,0.1,0c1.2-0.1,2.4-0.2,3.5-0.4
				C115.1,253.3,116.7,253.2,118.2,252.9z"/>
			<path class="st22" d="M122.7,250.8c-0.4,0.2-1.6,0.7-4.8,1.6l0,0C120.4,251.6,122.2,251,122.7,250.8z"/>
			<path class="st22" d="M117.9,252.4l0.3,0.5c-1.5,0.3-3.2,0.4-4.9,0.6c0.3-0.1,0.5-0.1,0.8-0.2C115.6,253,116.9,252.6,117.9,252.4
				z"/>
			<path class="st22" d="M117.9,252.3L117.9,252.3c-1,0.3-2.3,0.6-3.8,1c-0.3,0.1-0.5,0.1-0.8,0.2c-0.3,0-0.6,0.1-0.9,0.1
				C114.4,253.2,116.3,252.8,117.9,252.3z"/>
			<path class="st22" d="M116.6,229.8c-1.5,0.3-3.4,0.5-5.7,0.2C113.2,230,115.3,229.9,116.6,229.8z"/>
			<path class="st22" d="M112.4,253.6c0.3,0,0.6,0,0.9-0.1c-1.1,0.2-2.2,0.3-3.5,0.4C110.7,253.8,111.5,253.7,112.4,253.6
				C112.3,253.6,112.4,253.5,112.4,253.6z"/>
			<polygon class="st22" points="110.9,202.1 110.6,202.8 110.9,202.1 			"/>
			<polygon class="st22" points="110.9,202.1 110.6,202.8 108.4,207.4 110.5,202 			"/>
			<polygon class="st22" points="108.4,207.4 110.6,202.8 106,213.5 			"/>
			<path class="st22" d="M105.7,228.8c1.9,0.6,3.6,1,5.2,1.2c-2.2,0-4.5-0.2-6.5-0.7l-0.9-1.6C104.1,228.1,104.8,228.5,105.7,228.8z
				"/>
			<path class="st22" d="M101.5,224.3l4.6-10.7l-4,10.3c0,0-0.2,0.4-0.2,1L101.5,224.3z"/>
			<path class="st11" d="M104.6,253.8c-2.5,0-4.9,0-7-0.1c-6.9-0.1-14.5-5.6-20.6-11.4c3,2.1,10.2,7.1,14,8.8
				C93.1,252.2,98.9,253.5,104.6,253.8z"/>
			<path class="st22" d="M101.8,224.8l1.7,3C102,226.7,101.7,225.6,101.8,224.8z"/>
			<circle class="st20" cx="76.3" cy="262.8" r="1.8"/>
		</g>
		<g>
			<polyline class="st24" points="101.8,224.8 101.5,224.3 106,213.5 			"/>
			<line class="st24" x1="104.4" y1="229.3" x2="103.5" y2="227.8"/>
			<line class="st24" x1="109.8" y1="238.5" x2="109.4" y2="237.8"/>
			<line class="st24" x1="114.3" y1="246.2" x2="114.1" y2="245.9"/>
			<path class="st24" d="M232.6,189.1l0.9,1.2c0,0,22,53-7,70c-19.9,11.6-90.4,5.9-99.9,5.1"/>
			<path class="st24" d="M120,91c-5-5.9-7.9-12.1-9-16.7"/>
			<path class="st24" d="M189.2,100.1c-6.9,5.5-16,9.8-27.3,9.7"/>
			<path class="st24" d="M204.8,195.3c1-0.5,1.9-1.1,2.7-1.9c3.9-3.8,4.3-6.3,18.8-4.8c2,0.2,4.1,0.4,6.3,0.5
				c13.5,0.7,29.6-0.6,41.1-5.7c11.2-5,27.1-14.7,19.4-39.5c-8-26-34-46.5-45.8-52.8c-11.7-6.3-30.3-11.8-41-12c0,0-1.2,2.5-3.5,6"
				/>
			<path class="st24" d="M182.6,197.2C182.6,197.2,182.6,197.2,182.6,197.2c-0.2,0.3-1.1,2-1.7,4.2c-0.6,2.5-0.8,5.8,0.8,8.9
				c3,5.4,4.9,4.9,7.1,4.8c0,0,2.1-0.5,1.7-4.2"/>
			<path class="st24" d="M174.1,193.5c-0.6,1-7.2,11.9-2.1,17.4c5.4,5.8,8.1,5.2,8.1,5.2s1.3,0.3,2.3-1.4c1-1.8-5-4.1-2.4-10.7
				c0.4-0.9,0.7-1.7,0.9-2.4c1.3-3.3,1.6-4,1.7-4.2"/>
			<path class="st24" d="M163.3,199.9c-0.6,1.9-1,3.6-0.8,4.6c0.7,3.9,1.7,5.5,4.3,5.9c2.5,0.3,2.4-1.2,2.4-1.2s-2.1-6.7,4.9-15.8
				c0-0.1,0.1-0.1,0.1-0.1"/>
			<path class="st24" d="M110.9,202.1l0.9-1.9l10.2,4.1c0,0,0-0.1,0.1-0.3c0.8-1.8,5.5-12.7,8.2-13.5c1.4-0.4,2.6-0.5,3.4-0.4
				c0.9,0.1,1.4,0.3,1.4,0.3l5.5-14.4"/>
			<path class="st24" d="M81.3,140.9L81.3,140.9L81.3,140.9l-12.4,39l8,25.3c0,0,1.5,6,5.9,6.2c4.4,0.2,14.1-2,14.1-2
				s5.1-1.6,8.3,0.5l1.4,1.3l1.8-3.8"/>
			<path class="st24" d="M58.1,149.5C58.1,149.5,58.1,149.5,58.1,149.5l0.1,0.2l3.7,8.6c0,0,13.1-1.3,14.8-5.8
				c3.7-9.5,4.4-11.3,4.6-11.6c0,0,0-0.1,0-0.1"/>
			<path class="st24" d="M110.9,230c-2.2,0-4.5-0.2-6.5-0.7c-1.8-0.4-3.2-1.2-3.9-2.3c-2.6-4.3,0-7.1,0-7.1s0.8-0.7,2.2-0.6l3.6-7.5
				c0,0-1.8-3-7-2.1s-13.1,2.3-13.1,2.3s-6,1.4-8.5-3.9c-2.1-4.4-6.3-18.6-8.8-28.1c-0.6-2.2-1.1-4.1-1.4-5.6
				c-0.9-3.6-8.3-22.3-9.3-24.6"/>
			<path class="st24" d="M123,251.6c0.5-0.3,0.9-0.5,1.3-0.8c3-3-1.7-4.9-1.7-4.9s-4,0.2-8.2,0.4c-4.1,0.2-8.4,0.3-9.3,0.1
				c0,0,4.3,0.1,9.1-0.4c5.6-0.6,11.9-1.9,13.2-4.9c0.8-1.9,0.7-4.2-1.2-5.9c0,0-8.6,3.4-16.3,3.4c-1.4,0-2.8-0.1-4-0.4
				c0,0,1.5-0.1,3.7-0.3c5.1-0.5,14-1.8,17.1-5c1.3-1.4,0.9-5.6-0.8-6.2s-6.1,3.2-7.9,3.2c-0.2,0-0.6,0-1.1,0"/>
			<path class="st24" d="M104.6,253.8c2.6,0,5.2-0.1,7.7-0.3"/>
			<path class="st24" d="M111,74.3c0,0-40.4,0-71.3,32.9c-29.2,31.1-28.3,53.5-28.3,53.5s-2.7,11.5,16.7,32s33.8,32,37.8,37.3
				c1.8,2.4,5.9,7.5,11,12.3"/>
			<path class="st24" d="M253,145.4c0,0-20.2-1.6-45.7,11.4c-11.5,5.8-24.1,14.7-36.5,27.9"/>
			<path class="st24" d="M120,91c-6.9-8.6-11.1-19.6-11.1-31.5c0-27.9,22.6-50.4,50.4-50.4c27.9,0,50.4,22.6,50.4,50.4
				c0,9.4-2.6,18.2-7.1,25.7c-3.4,5.8-8.1,10.9-13.5,14.9c0,0,0,0,0,0c-7.7,5.7-17.1,9.2-27.3,9.7c0,0,0,0,0,0
				c-0.9,0-1.7,0.1-2.6,0.1C143.4,109.9,129.2,102.5,120,91z"/>
			<path class="st24" d="M101.8,224.8c0-0.6,0.2-1,0.2-1l4-10.3l2.4-6.1l2.1-5.4l0.3,0.1l0,0l17.4,6.9l-5,12l-3.1,7.4
				c0,0-1.2,0.8-3.5,1.3c-1.5,0.3-3.4,0.5-5.7,0.2c-1.5-0.2-3.3-0.5-5.2-1.2c-0.9-0.3-1.7-0.7-2.2-1.1
				C102,226.7,101.7,225.6,101.8,224.8z"/>
			<line class="st25" x1="116" y1="218.2" x2="123.3" y2="221.1"/>
			<path class="st26" d="M122.7,250.8C122.8,250.7,122.8,250.7,122.7,250.8"/>
			<path class="st26" d="M125.3,260.5l1.2,4.8l1.7,6.7c0,0,1.7,9.3-4.6,12.7c-6.4,3.4-11.1,1.2-11.1,1.2l-31.8-13.4l-13.9-6
				c0,0-6.3-3-6.3-8.5c0-3.9,1.6-6.9,2.5-8.1c1.8-2.3,12.6-8.6,12.6-8.6s0.5,0.4,1.3,1c0,0,0,0,0,0c3,2.1,10.2,7.1,14,8.8
				c2.2,1,7.9,2.3,13.7,2.6c0,0,0,0,0,0c1.7,0.1,3.5,0.1,5.1,0.1"/>
			<line class="st26" x1="122.8" y1="250.7" x2="122.8" y2="250.7"/>
			<path class="st24" d="M109.7,253.9l12.1,5.2l3.5,1.5l-2.3-8.9l-0.2-0.9c0,0,0,0-0.1,0c0,0,0,0,0,0c-0.5,0.2-2.2,0.9-4.8,1.5
				c-1.6,0.4-3.5,0.9-5.5,1.2c0,0,0,0,0,0c-0.8,0.1-1.7,0.2-2.5,0.3C109.8,253.9,109.8,253.9,109.7,253.9z"/>
			<path class="st24" d="M76.3,249.8l-6,3.3c0,0-4.1,2.1-1.7,5.7c0,0,0.7,1.4,2.6,2.1"/>
			<polyline class="st24" points="109.7,198.9 111.8,199.8 122.1,204.1 129.8,207.3 			"/>
			<polyline class="st24" points="136,190.1 140.4,176 140.8,174.8 154.8,179.4 170.8,184.7 170.9,184.7 170.7,185.2 165.7,195.1 
							"/>
			<path class="st24" d="M189.7,207.1c0-0.8,0-1.6,0.2-2.4"/>
			<path class="st24" d="M200.7,214.4c-1-0.2-2-0.5-2.7-0.8l-7.4-2.7l-0.5-0.2c0,0,0,0,0-0.1"/>
			<path class="st24" d="M209.1,212.6c-2.5,2.1-5.8,2.2-8.4,1.7"/>
			<path class="st24" d="M212.5,204.8c0,1.2-0.2,2.5-0.7,4c-0.2,0.5-0.4,1-0.6,1.4"/>
			<path class="st24" d="M191.4,200.6c0.1-0.2,0.3-0.3,0.4-0.5c1.4-1.5,5.1-3.3,5.1-3.3s5.9-1.1,7.3-1.8c0,0,0.2,0.1,0.6,0.3
				c1.8,0.8,7,3.6,7.6,8.8"/>
			<path class="st24" d="M191.4,200.6C191.4,200.6,191.4,200.6,191.4,200.6c-0.1,0.1-1.1,1.2-1.5,3.6c0,0.1,0,0.3-0.1,0.4
				c-0.1,0.9-0.2,1.7-0.2,2.4c0,1.9,0.2,3,0.3,3.4c0,0,0,0.1,0,0.1c0,0.1,0,0.1,0,0.1l0.5,0.2l10.1,3.5c0,0,0,0,0,0
				c0.5,0.1,5.3,0.7,8.4-1.7c0,0,0,0,0.1,0c0.7-0.6,1.3-1.3,1.8-2.2c0-0.1,0.1-0.1,0.1-0.2c1.1-2.2,1.3-4.3,1.4-5.4
				c0-0.5,0-0.8,0-0.8l-0.1,0l-20.5-3.4L191.4,200.6"/>
			<polyline class="st25" points="163.8,190.6 165.7,184 165.8,183.5 			"/>
			<polyline class="st25" points="152.6,187 154.6,180 154.8,179.4 			"/>
			<polygon class="st24" points="136,190.1 165.2,195 165.7,195.1 163.3,199.9 163.1,200.3 162.6,202.2 135,193.2 			"/>
			<polyline class="st24" points="139,173.1 133.6,190.2 132.6,193.3 			"/>
		</g>
	</g>
</g>
</svg>
