<?xml version="1.0" encoding="utf-8"?>
<!-- Generator: Adobe Illustrator 24.1.1, SVG Export Plug-In . SVG Version: 6.00 Build 0)  -->
<svg version="1.1" id="Camada_1" xmlns="http://www.w3.org/2000/svg" xmlns:xlink="http://www.w3.org/1999/xlink" x="0px" y="0px"
	 viewBox="0 0 407 400" style="enable-background:new 0 0 407 400;" xml:space="preserve">
<style type="text/css">
	.st0{fill:#FDA300;}
	.st1{fill:#FFFFFF;stroke:#22344A;stroke-width:4;stroke-linecap:round;stroke-linejoin:round;stroke-miterlimit:10;}
	.st2{fill:#E85218;}
	.st3{fill:none;stroke:#FFFFFF;stroke-width:4;stroke-linecap:round;stroke-linejoin:round;stroke-miterlimit:10;}
	.st4{fill:#148796;}
	.st5{fill:#F5A015;}
	.st6{fill:none;stroke:#F3F0F0;stroke-width:6;stroke-linecap:round;stroke-linejoin:round;stroke-miterlimit:10;}
	.st7{fill:#11293B;}
	.st8{fill:#2866AD;}
	.st9{fill:#677080;}
	.st10{fill:#AAB5C7;}
	.st11{fill:#F3F0F0;}
	.st12{fill:#5D89C4;}
	.st13{fill:#20334A;}
	.st14{fill:#FDA400;}
	.st15{fill:#3E4F6B;}
	.st16{fill:#22344A;}
	.st17{fill:#2A66AE;}
	.st18{fill:#FFFFFF;}
	.st19{fill:none;stroke:#22344A;stroke-width:3;stroke-linecap:round;stroke-linejoin:round;stroke-miterlimit:10;}
	.st20{fill:#FC5000;stroke:#22344A;stroke-width:4;stroke-miterlimit:10;}
	.st21{fill:none;stroke:#22344A;stroke-width:4;stroke-linecap:round;stroke-linejoin:round;stroke-miterlimit:10;}
	.st22{fill:#FDA300;stroke:#22344A;stroke-width:4;stroke-linecap:round;stroke-linejoin:round;stroke-miterlimit:10;}
	.st23{fill:none;stroke:#1F344B;stroke-width:4;stroke-miterlimit:10;}
	.st24{fill:#D8D5D5;stroke:#1F344B;stroke-width:4;stroke-miterlimit:10;}
	.st25{fill:none;stroke:#F5A214;stroke-width:2;stroke-linecap:round;stroke-linejoin:round;stroke-miterlimit:10;}
	.st26{fill:none;stroke:#FFFFFF;stroke-width:2;stroke-linecap:round;stroke-linejoin:round;stroke-miterlimit:10;}
	
		.st27{fill:none;stroke:#1F344B;stroke-width:2;stroke-linecap:round;stroke-linejoin:round;stroke-miterlimit:10;stroke-dasharray:10,15;}
	.st28{fill:none;stroke:#1F344B;stroke-width:2;stroke-linecap:round;stroke-linejoin:round;}
	.st29{fill:none;stroke:#1F344B;stroke-width:2;stroke-linecap:round;stroke-linejoin:round;stroke-dasharray:10.0846,15.1269;}
	.st30{fill:none;stroke:#1F344B;stroke-width:2;stroke-linecap:round;stroke-linejoin:round;stroke-miterlimit:10;}
	.st31{fill:#FFFFFF;stroke:#FDA300;stroke-width:4;stroke-miterlimit:10;}
	.st32{fill:#5D89C5;}
</style>
<g id="XMLID_24_">
	<g>
		<path class="st2" d="M250.1,151.5c18.24,18.26,18.24,47.84,0,66.1c-18.26,18.26-47.84,18.26-66.1,0
			c-18.24-18.26-18.24-47.84,0-66.1C202.26,133.26,231.84,133.26,250.1,151.5z M236.72,204.22c10.87-10.85,10.87-28.48,0-39.35
			c-10.87-10.85-28.48-10.85-39.35,0c-10.87,10.87-10.87,28.49,0,39.35C208.25,215.09,225.85,215.09,236.72,204.22z"/>
		<path class="st2" d="M391.66,8.34c0,0,6.64,35.88-32.29,109.31l-0.22-0.11c-10.27,10.27-35.41,1.8-56.15-18.95
			C282.29,77.87,273.06,52,283.29,41.7C356.32,2.26,391.66,8.34,391.66,8.34z"/>
		<path class="st2" d="M258.5,258.5l-16.03,69.76l-60.38,60.36l17.4-67.77c22.01-22.03,41.54-42.85,58.84-62.51L258.5,258.5z"/>
		<path class="st2" d="M144.51,141.5l0.29,0.33c-19.73,17.37-40.69,36.97-62.87,59.11l-0.44-0.44l-66.13,17.4l60.38-60.38
			L144.51,141.5z"/>
	</g>
	<g>
		<path class="st3" d="M250.1,217.59c18.24-18.26,18.24-47.84,0-66.1c-18.26-18.24-47.84-18.24-66.1,0
			c-18.24,18.26-18.24,47.84,0,66.1C202.26,235.85,231.84,235.85,250.1,217.59z"/>
		<path class="st3" d="M199.5,320.86c22.01-22.03,41.54-42.85,58.84-62.51c49.89-56.68,81.33-103.5,101.04-140.71
			C398.3,44.22,391.66,8.34,391.66,8.34S356.32,2.26,283.29,41.7c-36.61,19.78-82.67,50.98-138.49,100.13
			c-19.73,17.37-40.69,36.97-62.87,59.11c-0.38,0.38-0.78,0.78-1.18,1.18"/>
		<path class="st3" d="M283.31,41.68l-0.02,0.02c-10.24,10.31-1,36.17,19.71,56.9c20.74,20.74,45.88,29.22,56.15,18.95"/>
		<path class="st3" d="M258.5,258.5l-16.03,69.76l-60.38,60.36l17.4-67.77c-16.26,16.24-56.01,2.83-88.8-29.96
			s-46.21-72.54-29.95-88.78"/>
		<polyline class="st3" points="144.51,141.5 75.74,157.52 15.36,217.9 81.49,200.5 		"/>
		<line class="st3" x1="130.51" y1="357.34" x2="123.73" y2="382.68"/>
		<polyline class="st3" points="74.72,325.11 74.71,325.13 56.18,343.68 56.16,343.68 		"/>
		<line class="st3" x1="42.51" y1="269.32" x2="17.16" y2="276.11"/>
		<ellipse class="st3" cx="217.05" cy="184.55" rx="27.83" ry="27.82"/>
	</g>
</g>
</svg>
