<?xml version="1.0" encoding="utf-8"?>
<!-- Generator: Adobe Illustrator 24.1.1, SVG Export Plug-In . SVG Version: 6.00 Build 0)  -->
<svg version="1.1" id="Camada_1" xmlns="http://www.w3.org/2000/svg" xmlns:xlink="http://www.w3.org/1999/xlink" x="0px" y="0px"
	 viewBox="0 0 652.6 316.3" style="enable-background:new 0 0 652.6 316.3;" xml:space="preserve">
<style type="text/css">
	.st0{fill:#F5A015;}
	.st1{fill:#E85218;}
	.st2{fill:none;stroke:#FFFFFF;stroke-width:4;stroke-linecap:round;stroke-linejoin:round;stroke-miterlimit:10;}
	.st3{fill:#148796;}
	.st4{fill:none;stroke:#F3F0F0;stroke-width:6;stroke-linecap:round;stroke-linejoin:round;stroke-miterlimit:10;}
	.st5{fill:#11293B;}
	.st6{fill:#94BF55;}
	.st7{fill:#E06332;}
	.st8{fill:#7AD37D;}
	.st9{fill:#D8D568;}
	.st10{fill:#A86AAD;}
	.st11{fill:#629CBC;}
	.st12{fill:#2866AD;}
	.st13{fill:#677080;}
	.st14{fill:#AAB5C7;}
	.st15{fill:#F3F0F0;}
	.st16{fill:#5D89C4;}
	.st17{fill:#20334A;}
	.st18{fill:#FDA400;}
	.st19{fill:#3E4F6B;}
	.st20{fill:#22344A;}
	.st21{fill:#2A66AE;}
	.st22{fill:#FFFFFF;}
	.st23{fill:#FDA300;}
	.st24{fill:none;stroke:#22344A;stroke-width:4;stroke-linecap:round;stroke-linejoin:round;stroke-miterlimit:10;}
	.st25{fill:none;stroke:#22344A;stroke-width:3;stroke-linecap:round;stroke-linejoin:round;stroke-miterlimit:10;}
	.st26{fill:none;stroke:#22344A;stroke-width:4;stroke-miterlimit:10;}
	.st27{fill:none;stroke:#1F344B;stroke-width:4;stroke-miterlimit:10;}
	.st28{fill:#D8D5D5;stroke:#1F344B;stroke-width:4;stroke-miterlimit:10;}
	.st29{fill:#FDA300;stroke:#1F344B;stroke-width:4;stroke-miterlimit:10;}
	.st30{fill:#629CBC;stroke:#1F344B;stroke-width:4;stroke-miterlimit:10;}
	.st31{fill:none;stroke:#E06332;stroke-width:2;stroke-linecap:round;stroke-linejoin:round;stroke-miterlimit:10;}
	.st32{fill:none;stroke:#FFFFFF;stroke-width:2;stroke-linecap:round;stroke-linejoin:round;stroke-miterlimit:10;}
	
		.st33{fill:none;stroke:#1F344B;stroke-width:2;stroke-linecap:round;stroke-linejoin:round;stroke-miterlimit:10;stroke-dasharray:10,15;}
	.st34{fill:none;}
	.st35{fill:none;stroke:#1F344B;stroke-width:2;stroke-linecap:round;stroke-linejoin:round;}
	.st36{fill:none;stroke:#1F344B;stroke-width:2;stroke-linecap:round;stroke-linejoin:round;stroke-dasharray:10.0846,15.1269;}
	.st37{fill:none;stroke:#1F344B;stroke-width:2;stroke-linecap:round;stroke-linejoin:round;stroke-miterlimit:10;}
	.st38{fill:#FFFFFF;stroke:#FDA300;stroke-width:4;stroke-miterlimit:10;}
	.st39{fill:none;stroke:#FDA400;stroke-width:3;stroke-linecap:round;stroke-linejoin:round;stroke-miterlimit:10;}
	.st40{fill:none;stroke:#FFFFFF;stroke-width:3;stroke-linecap:round;stroke-linejoin:round;stroke-miterlimit:10;}
	
		.st41{fill:none;stroke:#11293B;stroke-width:3;stroke-linecap:round;stroke-linejoin:round;stroke-miterlimit:10;stroke-dasharray:10,15;}
	.st42{fill:none;stroke:#FDA400;stroke-width:2;stroke-linecap:round;stroke-linejoin:round;stroke-miterlimit:10;}
	.st43{fill:none;stroke:#11293B;stroke-width:3;stroke-linecap:round;stroke-linejoin:round;}
	.st44{fill:none;stroke:#11293B;stroke-width:3;stroke-linecap:round;stroke-linejoin:round;stroke-dasharray:10.0846,15.1269;}
	.st45{fill:none;stroke:#11293B;stroke-width:3;stroke-linecap:round;stroke-linejoin:round;stroke-miterlimit:10;}
</style>
<path class="st39" d="M64.4,247.1c-20.6-24.8-33.1-57-33.1-91.3c0-77,62.4-139.5,139.5-139.5s139.5,62.4,139.5,139.5
	c0,73.6-57.1,130.1-129.2,138.6l0.3,0c0,0-98.5,14.7-173.2,4.2"/>
<path class="st41" d="M633.6,298.8c-74.7,10.6-173.8-4.2-173.8-4.2l0.5,0.1c-66.3-8.1-117.9-69.1-117.9-138.7
	c0-77,62.4-139.5,139.5-139.5s139.5,62.4,139.5,139.5s-62.5,135.4-139.5,139.5c-0.2,0-0.3,0-0.5,0l0.5,0"/>
<g>
	<path class="st5" d="M49.3,51l1.2,1l-0.1,0.1c-0.4,0.5-0.7,0.9-0.8,1.4c-0.2,0.5-0.2,0.9-0.2,1.3c0,0.4,0.2,0.8,0.4,1.2
		c0.2,0.4,0.5,0.7,0.8,1.1c0-0.2,0-0.4,0-0.6c0-0.2,0-0.4,0.1-0.6c0-0.2,0.1-0.4,0.2-0.6c0.1-0.2,0.2-0.4,0.4-0.6
		c0.3-0.4,0.7-0.7,1.2-0.9c0.4-0.2,0.8-0.2,1.3-0.2c0.4,0,0.9,0.1,1.3,0.3c0.4,0.2,0.8,0.4,1.2,0.8c0.4,0.3,0.7,0.7,1,1.1
		s0.4,0.9,0.5,1.3s0,0.9-0.1,1.4c-0.1,0.5-0.4,0.9-0.8,1.4c-0.4,0.5-0.8,0.8-1.3,1c-0.5,0.2-1,0.3-1.5,0.3c-0.5,0-1-0.1-1.5-0.4
		c-0.5-0.2-1-0.5-1.4-0.9l-0.5-0.5c-0.4-0.4-0.8-0.7-1.2-1.1c-0.3-0.4-0.6-0.8-0.9-1.3c-0.2-0.4-0.4-0.9-0.5-1.4
		c-0.1-0.5-0.1-1-0.1-1.4c0-0.5,0.2-1,0.4-1.5s0.6-1,1-1.5L49.3,51z M52.1,55.9c-0.1,0.2-0.2,0.3-0.3,0.5c-0.1,0.2-0.1,0.4-0.1,0.6
		c0,0.2,0,0.4,0,0.6c0,0.2,0.1,0.4,0.2,0.6l0.4,0.3c0.3,0.3,0.7,0.5,1,0.7c0.3,0.1,0.6,0.2,0.9,0.2c0.3,0,0.5,0,0.8-0.1
		c0.2-0.1,0.4-0.2,0.6-0.4c0.2-0.2,0.3-0.4,0.4-0.7c0.1-0.2,0.1-0.5,0-0.7s-0.2-0.5-0.3-0.7c-0.2-0.2-0.4-0.5-0.6-0.7
		c-0.2-0.2-0.5-0.4-0.8-0.5c-0.3-0.1-0.5-0.2-0.8-0.2c-0.3,0-0.5,0-0.7,0.1C52.5,55.6,52.3,55.7,52.1,55.9z"/>
	<path class="st5" d="M69,42.7c-0.2-0.2-0.4-0.3-0.6-0.4s-0.5-0.1-0.7-0.1c-0.3,0-0.5,0.1-0.8,0.2c-0.3,0.1-0.6,0.2-0.9,0.4
		c-0.4,0.2-0.8,0.4-1.3,0.5s-0.9,0.2-1.3,0.3c-0.4,0-0.8,0-1.2-0.2c-0.4-0.1-0.8-0.4-1.1-0.7c-0.3-0.4-0.5-0.7-0.7-1.2
		c-0.1-0.4-0.1-0.8-0.1-1.3c0.1-0.4,0.2-0.9,0.5-1.3c0.2-0.4,0.5-0.8,0.9-1.1c0.4-0.4,0.8-0.6,1.3-0.8c0.5-0.2,0.9-0.3,1.4-0.3
		c0.5,0,0.9,0.1,1.3,0.2c0.4,0.2,0.8,0.4,1.2,0.8L65.5,39c-0.2-0.2-0.4-0.3-0.7-0.4c-0.2-0.1-0.5-0.2-0.7-0.2c-0.2,0-0.5,0-0.7,0.1
		S63,38.8,62.8,39c-0.2,0.2-0.4,0.4-0.5,0.6c-0.1,0.2-0.2,0.4-0.2,0.6c0,0.2,0,0.4,0,0.6c0.1,0.2,0.2,0.4,0.3,0.6
		c0.2,0.2,0.4,0.3,0.6,0.4c0.2,0,0.5,0.1,0.7,0c0.3,0,0.5-0.1,0.8-0.2s0.6-0.2,0.8-0.4c0.4-0.2,0.9-0.4,1.3-0.5
		c0.4-0.1,0.9-0.2,1.3-0.2c0.4,0,0.8,0.1,1.2,0.2c0.4,0.1,0.8,0.4,1.1,0.7c0.3,0.4,0.6,0.8,0.7,1.2c0.1,0.4,0.1,0.8,0,1.3
		c-0.1,0.4-0.2,0.8-0.5,1.3c-0.3,0.4-0.6,0.8-0.9,1.1c-0.3,0.2-0.5,0.4-0.8,0.6s-0.6,0.3-0.9,0.4s-0.6,0.2-1,0.2c-0.3,0-0.7,0-1,0
		c-0.3-0.1-0.6-0.2-0.9-0.3c-0.3-0.2-0.6-0.4-0.8-0.7l1.3-1.3c0.2,0.2,0.5,0.4,0.8,0.5c0.3,0.1,0.5,0.1,0.8,0.1
		c0.3,0,0.5-0.1,0.8-0.2c0.3-0.1,0.5-0.3,0.7-0.5c0.2-0.2,0.4-0.4,0.5-0.6s0.2-0.4,0.3-0.6c0-0.2,0-0.4,0-0.6
		C69.3,43.1,69.1,42.9,69,42.7z"/>
	<path class="st5" d="M75.3,34.5l-3.5,2.9l2.2,2.7l4.1-3.4l1,1.2l-5.6,4.6l-7.1-8.6l5.5-4.5l1,1.2l-4.1,3.4l2,2.4l3.5-2.9L75.3,34.5
		z"/>
	<path class="st5" d="M75.9,26.4l4,3.1l-1.6-4.8l1.8-1.3l6.6,9l-1.4,1L83,30.3l-2.8-4l1.8,5.3l-0.8,0.6l-4.3-3.3l2.9,3.8l2.3,3.1
		l-1.4,1l-6.6-9L75.9,26.4z"/>
	<path class="st5" d="M91.3,26.3l-2.9,1.9l0.7,2.6l-1.6,1l-2.9-11.4l1.4-0.9l9,7.5l-1.6,1L91.3,26.3z M87.9,26.6l2.2-1.4l-3.4-3
		L87.9,26.6z"/>
	<path class="st5" d="M102.3,23l-1.6,0.9l-6.9-5l3.7,6.7l-1.6,0.9l-5.4-9.8l1.6-0.9l6.9,5l-3.7-6.7l1.6-0.9L102.3,23z"/>
	<path class="st5" d="M107.9,17.4l-3.1,1.5l0.4,2.7l-1.7,0.8l-1.5-11.6l1.5-0.7l8,8.6l-1.7,0.8L107.9,17.4z M104.5,17.3l2.3-1.1
		l-3-3.4L104.5,17.3z"/>
	<path class="st5" d="M116.7,13.4c-0.1-0.2-0.2-0.4-0.4-0.6s-0.4-0.3-0.6-0.3c-0.2-0.1-0.5-0.1-0.8-0.1c-0.3,0-0.6,0-1,0
		c-0.5,0-0.9,0.1-1.4,0c-0.5,0-0.9-0.1-1.3-0.2c-0.4-0.1-0.8-0.3-1.1-0.6c-0.3-0.3-0.6-0.6-0.8-1.1c-0.2-0.4-0.2-0.9-0.2-1.3
		c0.1-0.4,0.2-0.8,0.4-1.2c0.2-0.4,0.5-0.7,0.9-1s0.8-0.5,1.3-0.7c0.5-0.2,1-0.3,1.5-0.3c0.5,0,1,0,1.4,0.2c0.4,0.1,0.8,0.4,1.2,0.7
		c0.3,0.3,0.6,0.7,0.8,1.2l-1.7,0.7c-0.1-0.3-0.3-0.5-0.5-0.6s-0.4-0.3-0.6-0.4c-0.2-0.1-0.5-0.1-0.7-0.1s-0.5,0.1-0.8,0.2
		c-0.3,0.1-0.5,0.2-0.7,0.4c-0.2,0.2-0.3,0.3-0.4,0.5C111,8.8,111,9,111,9.2c0,0.2,0,0.4,0.1,0.7c0.1,0.2,0.2,0.4,0.4,0.6
		c0.2,0.1,0.4,0.2,0.7,0.3c0.3,0.1,0.5,0.1,0.8,0.1c0.3,0,0.6,0,0.9-0.1c0.5,0,1,0,1.4,0c0.5,0,0.9,0.1,1.3,0.3
		c0.4,0.1,0.8,0.4,1.1,0.6c0.3,0.3,0.6,0.6,0.7,1.1c0.2,0.5,0.2,0.9,0.2,1.3c-0.1,0.4-0.2,0.8-0.4,1.2c-0.2,0.4-0.5,0.7-0.9,1
		c-0.4,0.3-0.8,0.5-1.3,0.7c-0.3,0.1-0.6,0.2-1,0.3c-0.3,0.1-0.7,0.1-1,0.1c-0.3,0-0.7-0.1-1-0.1c-0.3-0.1-0.6-0.2-0.9-0.4
		c-0.3-0.2-0.5-0.4-0.8-0.6c-0.2-0.3-0.4-0.6-0.6-0.9l1.7-0.7c0.1,0.3,0.3,0.5,0.5,0.7s0.4,0.3,0.7,0.4c0.3,0.1,0.5,0.1,0.8,0.1
		c0.3,0,0.6-0.1,0.9-0.2c0.3-0.1,0.5-0.2,0.7-0.4c0.2-0.2,0.4-0.3,0.5-0.5c0.1-0.2,0.2-0.4,0.2-0.6
		C116.9,13.9,116.8,13.6,116.7,13.4z"/>
</g>
<g>
	<line class="st42" x1="290.3" y1="84.1" x2="304.6" y2="88.9"/>
	<line class="st42" x1="290.3" y1="84.1" x2="285.5" y2="98.4"/>
</g>
<g>
	<g>
		<line class="st43" x1="481.8" y1="295.3" x2="476.8" y2="295.7"/>
		<path class="st44" d="M461.7,296.9l-5.1,0.4c-49.8,3.4-98.8,4.4-142.3,4.2c-50.6-0.3-93.8-2.2-122.2-3.8"/>
		<path class="st43" d="M184.6,297.2c-0.7,0-1.4-0.1-2.1-0.1c-1-0.1-1.9-0.1-2.9-0.2"/>
	</g>
</g>
<g>
	<line class="st45" x1="644.9" y1="296.3" x2="637.1" y2="309.1"/>
	<line class="st45" x1="644.9" y1="296.3" x2="632.1" y2="288.4"/>
</g>
<g>
	<line class="st39" x1="64.4" y1="247.2" x2="49.3" y2="247.1"/>
	<line class="st39" x1="64.4" y1="247.2" x2="64.5" y2="232.2"/>
</g>
</svg>
