<?xml version="1.0" encoding="utf-8"?>
<!-- Generator: Adobe Illustrator 24.1.1, SVG Export Plug-In . SVG Version: 6.00 Build 0)  -->
<svg version="1.1" id="Camada_1" xmlns="http://www.w3.org/2000/svg" xmlns:xlink="http://www.w3.org/1999/xlink" x="0px" y="0px"
	 viewBox="0 0 139.91 254.3" style="enable-background:new 0 0 139.91 254.3;" xml:space="preserve">
<style type="text/css">
	.st0{fill:#18B4BF;}
	.st1{fill:#199EA8;}
	.st2{fill:#188892;}
	.st3{fill:#13737C;}
	.st4{fill:#0D5E65;}
	.st5{fill:#05484E;}
	.st6{fill:#003137;}
	.st7{fill:#D3D3D3;}
	.st8{fill:none;stroke:#D3D3D3;stroke-width:0.5;stroke-miterlimit:10;}
	.st9{fill:#9F9F9F;}
	.st10{fill:none;stroke:#9F9F9F;stroke-width:0.5;stroke-miterlimit:10;}
	.st11{fill:#727272;}
	.st12{fill:none;stroke:#727272;stroke-width:0.5;stroke-miterlimit:10;}
	.st13{fill:none;stroke:#0D5E65;stroke-width:0.5;stroke-miterlimit:10;}
	.st14{fill:#1997A1;}
	.st15{fill:none;stroke:#5C5C5C;stroke-width:0.25;stroke-miterlimit:10;}
	.st16{fill:#157A83;}
	.st17{fill:none;stroke:#13737C;stroke-width:0.5;stroke-miterlimit:10;}
	.st18{fill:#929191;}
	.st19{fill:none;stroke:#929191;stroke-width:0.5;stroke-miterlimit:10;}
	.st20{fill:#5C5C5C;}
	.st21{fill:none;stroke:#5C5C5C;stroke-width:0.5;stroke-miterlimit:10;}
	.st22{fill:none;stroke:#5C5C5C;stroke-width:0.75;stroke-miterlimit:10;}
	.st23{fill:none;stroke:#18B4BF;stroke-width:0.75;stroke-miterlimit:10;}
	.st24{fill:none;stroke:#18B4BF;stroke-width:0.25;stroke-miterlimit:10;}
	.st25{fill:#1E9BA3;}
	.st26{fill:#147D85;}
	.st27{fill:#0A5E65;}
	.st28{fill:#BDBDBD;}
	.st29{fill:#8A8A8A;}
	.st30{fill:#616262;}
	.st31{fill:#034146;}
	.st32{fill:#2B2B2B;}
</style>
<g>
	<path class="st32" d="M53.81,9.76v158.36h-19.2V9.76H53.81 M54.21,9.36h-20v159.16h20V9.36L54.21,9.36z"/>
</g>
<g>
	<path class="st32" d="M105.31,9.76v158.36h-19.2V9.76H105.31 M105.71,9.36h-20v159.16h20V9.36L105.71,9.36z"/>
</g>
<g>
	<path class="st32" d="M35.74,180.16c0-0.36,0.07-0.69,0.21-0.98c0.14-0.29,0.34-0.51,0.59-0.67c0.25-0.16,0.54-0.24,0.87-0.24
		c0.5,0,0.91,0.17,1.22,0.52c0.31,0.35,0.47,0.81,0.47,1.39v0.04c0,0.36-0.07,0.68-0.21,0.97s-0.33,0.51-0.59,0.67
		c-0.26,0.16-0.55,0.24-0.88,0.24c-0.5,0-0.91-0.17-1.22-0.52c-0.31-0.35-0.47-0.81-0.47-1.38V180.16z M36.37,180.23
		c0,0.41,0.09,0.74,0.29,0.99s0.44,0.37,0.76,0.37c0.32,0,0.58-0.13,0.77-0.38s0.28-0.6,0.28-1.06c0-0.41-0.1-0.73-0.29-0.99
		s-0.45-0.38-0.77-0.38c-0.31,0-0.56,0.12-0.75,0.37C36.47,179.42,36.37,179.77,36.37,180.23z"/>
	<path class="st32" d="M43.03,180.23c0,0.57-0.13,1.02-0.39,1.36s-0.61,0.51-1.05,0.51c-0.47,0-0.83-0.17-1.08-0.5l-0.03,0.43H39.9
		v-5.25h0.63v1.96c0.25-0.32,0.61-0.48,1.06-0.48s0.8,0.17,1.06,0.51c0.26,0.34,0.38,0.8,0.38,1.39V180.23z M42.39,180.16
		c0-0.43-0.08-0.76-0.25-1s-0.41-0.35-0.72-0.35c-0.42,0-0.72,0.19-0.9,0.58v1.6c0.19,0.39,0.5,0.58,0.91,0.58
		c0.3,0,0.54-0.12,0.71-0.35C42.31,180.99,42.39,180.63,42.39,180.16z"/>
	<path class="st32" d="M45.61,178.91c-0.1-0.02-0.2-0.02-0.31-0.02c-0.42,0-0.7,0.18-0.84,0.53v2.63h-0.63v-3.7h0.62l0.01,0.43
		c0.21-0.33,0.5-0.5,0.88-0.5c0.12,0,0.22,0.02,0.28,0.05V178.91z"/>
	<path class="st32" d="M48.34,182.04c-0.04-0.07-0.07-0.2-0.09-0.39c-0.29,0.31-0.64,0.46-1.05,0.46c-0.36,0-0.66-0.1-0.9-0.31
		s-0.35-0.47-0.35-0.78c0-0.38,0.15-0.68,0.44-0.9s0.71-0.32,1.24-0.32h0.62v-0.29c0-0.22-0.07-0.4-0.2-0.53
		c-0.13-0.13-0.33-0.2-0.58-0.2c-0.23,0-0.42,0.06-0.57,0.17c-0.15,0.11-0.23,0.25-0.23,0.41h-0.64c0-0.18,0.07-0.36,0.2-0.54
		s0.31-0.31,0.53-0.41s0.47-0.15,0.74-0.15c0.43,0,0.76,0.11,1,0.32s0.37,0.51,0.38,0.88v1.7c0,0.34,0.04,0.61,0.13,0.81v0.05H48.34
		z M47.29,181.56c0.2,0,0.39-0.05,0.56-0.15s0.31-0.24,0.39-0.4v-0.76h-0.5c-0.77,0-1.16,0.23-1.16,0.68c0,0.2,0.07,0.35,0.2,0.46
		S47.08,181.56,47.29,181.56z"/>
	<path class="st32" d="M52.02,181.06c0-0.17-0.06-0.3-0.19-0.4s-0.35-0.18-0.67-0.24s-0.57-0.15-0.76-0.25
		c-0.19-0.1-0.33-0.21-0.42-0.34c-0.09-0.13-0.13-0.29-0.13-0.47c0-0.3,0.13-0.56,0.38-0.77c0.26-0.21,0.58-0.31,0.98-0.31
		c0.42,0,0.76,0.11,1.02,0.33c0.26,0.22,0.39,0.49,0.39,0.83h-0.64c0-0.17-0.07-0.32-0.22-0.45c-0.15-0.13-0.33-0.19-0.56-0.19
		c-0.23,0-0.41,0.05-0.54,0.15s-0.19,0.23-0.19,0.39c0,0.15,0.06,0.27,0.18,0.34s0.34,0.15,0.65,0.22c0.32,0.07,0.57,0.16,0.77,0.25
		c0.2,0.1,0.34,0.22,0.44,0.35s0.14,0.31,0.14,0.5c0,0.33-0.13,0.6-0.4,0.79c-0.26,0.2-0.61,0.3-1.03,0.3
		c-0.3,0-0.56-0.05-0.79-0.16s-0.41-0.25-0.54-0.44c-0.13-0.19-0.19-0.39-0.19-0.61h0.63c0.01,0.21,0.1,0.38,0.25,0.5
		s0.37,0.19,0.63,0.19c0.24,0,0.43-0.05,0.58-0.15S52.02,181.22,52.02,181.06z"/>
</g>
<g>
	<path class="st32" d="M84.42,178.91c-0.1-0.02-0.2-0.02-0.31-0.02c-0.42,0-0.7,0.18-0.84,0.53v2.63h-0.63v-3.7h0.62l0.01,0.43
		c0.21-0.33,0.5-0.5,0.88-0.5c0.12,0,0.22,0.02,0.28,0.05V178.91z"/>
	<path class="st32" d="M86.47,182.11c-0.5,0-0.91-0.17-1.22-0.49s-0.47-0.77-0.47-1.32v-0.12c0-0.37,0.07-0.69,0.21-0.98
		c0.14-0.29,0.34-0.51,0.59-0.68s0.52-0.24,0.82-0.24c0.48,0,0.85,0.16,1.12,0.48c0.27,0.32,0.4,0.77,0.4,1.36v0.26h-2.5
		c0.01,0.36,0.12,0.66,0.32,0.88s0.46,0.34,0.78,0.34c0.22,0,0.41-0.05,0.57-0.14c0.15-0.09,0.29-0.21,0.41-0.36l0.39,0.3
		C87.55,181.87,87.09,182.11,86.47,182.11z M86.39,178.79c-0.25,0-0.47,0.09-0.64,0.28s-0.28,0.45-0.32,0.78h1.85v-0.05
		c-0.02-0.32-0.1-0.57-0.26-0.75S86.65,178.79,86.39,178.79z"/>
	<path class="st32" d="M90.13,181.59c0.23,0,0.42-0.07,0.59-0.21c0.17-0.14,0.26-0.31,0.28-0.51h0.6c-0.01,0.21-0.08,0.41-0.22,0.61
		s-0.31,0.34-0.54,0.46s-0.46,0.17-0.71,0.17c-0.5,0-0.9-0.17-1.2-0.5c-0.3-0.34-0.45-0.8-0.45-1.38v-0.11
		c0-0.36,0.07-0.68,0.2-0.96c0.13-0.28,0.32-0.5,0.57-0.65s0.54-0.23,0.88-0.23c0.41,0,0.76,0.12,1.03,0.37
		c0.27,0.25,0.42,0.57,0.44,0.97H91c-0.02-0.24-0.11-0.44-0.27-0.59c-0.16-0.15-0.36-0.23-0.6-0.23c-0.32,0-0.57,0.12-0.75,0.35
		s-0.26,0.57-0.26,1v0.12c0,0.43,0.09,0.75,0.26,0.98S89.8,181.59,90.13,181.59z"/>
	<path class="st32" d="M94.59,181.68c-0.25,0.29-0.61,0.43-1.08,0.43c-0.39,0-0.69-0.11-0.9-0.34c-0.21-0.23-0.31-0.57-0.31-1.02
		v-2.41h0.63v2.39c0,0.56,0.23,0.84,0.68,0.84c0.48,0,0.8-0.18,0.96-0.54v-2.69h0.63v3.7h-0.6L94.59,181.68z"/>
	<path class="st32" d="M97.95,178.91c-0.1-0.02-0.2-0.02-0.31-0.02c-0.42,0-0.7,0.18-0.84,0.53v2.63h-0.63v-3.7h0.62l0.01,0.43
		c0.21-0.33,0.5-0.5,0.88-0.5c0.12,0,0.22,0.02,0.28,0.05V178.91z"/>
	<path class="st32" d="M100.69,181.06c0-0.17-0.06-0.3-0.19-0.4s-0.35-0.18-0.67-0.24s-0.57-0.15-0.76-0.25
		c-0.19-0.1-0.33-0.21-0.42-0.34c-0.09-0.13-0.13-0.29-0.13-0.47c0-0.3,0.13-0.56,0.38-0.77c0.26-0.21,0.58-0.31,0.98-0.31
		c0.42,0,0.76,0.11,1.02,0.33c0.26,0.22,0.39,0.49,0.39,0.83h-0.64c0-0.17-0.07-0.32-0.22-0.45c-0.15-0.13-0.33-0.19-0.56-0.19
		c-0.23,0-0.41,0.05-0.54,0.15s-0.19,0.23-0.19,0.39c0,0.15,0.06,0.27,0.18,0.34s0.34,0.15,0.65,0.22c0.32,0.07,0.57,0.16,0.77,0.25
		c0.2,0.1,0.34,0.22,0.44,0.35s0.14,0.31,0.14,0.5c0,0.33-0.13,0.6-0.4,0.79c-0.26,0.2-0.61,0.3-1.03,0.3
		c-0.3,0-0.56-0.05-0.79-0.16s-0.41-0.25-0.54-0.44c-0.13-0.19-0.19-0.39-0.19-0.61h0.63c0.01,0.21,0.1,0.38,0.25,0.5
		s0.37,0.19,0.63,0.19c0.24,0,0.43-0.05,0.58-0.15S100.69,181.22,100.69,181.06z"/>
	<path class="st32" d="M101.97,180.16c0-0.36,0.07-0.69,0.21-0.98c0.14-0.29,0.34-0.51,0.59-0.67c0.25-0.16,0.54-0.24,0.87-0.24
		c0.5,0,0.91,0.17,1.22,0.52c0.31,0.35,0.47,0.81,0.47,1.39v0.04c0,0.36-0.07,0.68-0.21,0.97s-0.33,0.51-0.59,0.67
		c-0.26,0.16-0.55,0.24-0.88,0.24c-0.5,0-0.91-0.17-1.22-0.52c-0.31-0.35-0.47-0.81-0.47-1.38V180.16z M102.61,180.23
		c0,0.41,0.09,0.74,0.29,0.99s0.44,0.37,0.76,0.37c0.32,0,0.58-0.13,0.77-0.38s0.28-0.6,0.28-1.06c0-0.41-0.1-0.73-0.29-0.99
		s-0.45-0.38-0.77-0.38c-0.31,0-0.56,0.12-0.75,0.37C102.71,179.42,102.61,179.77,102.61,180.23z"/>
	<path class="st32" d="M108.29,181.06c0-0.17-0.06-0.3-0.19-0.4s-0.35-0.18-0.67-0.24s-0.57-0.15-0.76-0.25
		c-0.19-0.1-0.33-0.21-0.42-0.34c-0.09-0.13-0.13-0.29-0.13-0.47c0-0.3,0.13-0.56,0.38-0.77c0.26-0.21,0.58-0.31,0.98-0.31
		c0.42,0,0.76,0.11,1.02,0.33c0.26,0.22,0.39,0.49,0.39,0.83h-0.64c0-0.17-0.07-0.32-0.22-0.45c-0.15-0.13-0.33-0.19-0.56-0.19
		c-0.23,0-0.41,0.05-0.54,0.15s-0.19,0.23-0.19,0.39c0,0.15,0.06,0.27,0.18,0.34s0.34,0.15,0.65,0.22c0.32,0.07,0.57,0.16,0.77,0.25
		c0.2,0.1,0.34,0.22,0.44,0.35s0.14,0.31,0.14,0.5c0,0.33-0.13,0.6-0.4,0.79c-0.26,0.2-0.61,0.3-1.03,0.3
		c-0.3,0-0.56-0.05-0.79-0.16s-0.41-0.25-0.54-0.44c-0.13-0.19-0.19-0.39-0.19-0.61h0.63c0.01,0.21,0.1,0.38,0.25,0.5
		s0.37,0.19,0.63,0.19c0.24,0,0.43-0.05,0.58-0.15S108.29,181.22,108.29,181.06z"/>
</g>
</svg>
