<?xml version="1.0" encoding="utf-8"?>
<!-- Generator: Adobe Illustrator 24.1.1, SVG Export Plug-In . SVG Version: 6.00 Build 0)  -->
<svg version="1.1" id="Camada_1" xmlns="http://www.w3.org/2000/svg" xmlns:xlink="http://www.w3.org/1999/xlink" x="0px" y="0px"
	 viewBox="0 0 265 195" style="enable-background:new 0 0 265 195;" xml:space="preserve">
<style type="text/css">
	.st0{fill:#FFFFFF;}
	.st1{fill:#FDA300;stroke:#20334A;stroke-width:10;stroke-miterlimit:10;}
	.st2{fill:#20334A;}
	.st3{fill:#73CBE0;}
	.st4{fill:#FFFFFF;stroke:#DEDEDE;stroke-width:7;stroke-linecap:round;stroke-linejoin:round;stroke-miterlimit:10;}
	.st5{fill:#282826;}
	.st6{fill:#AAB5C7;}
	.st7{fill:none;stroke:#20334A;stroke-width:3;stroke-linecap:round;stroke-linejoin:round;stroke-miterlimit:10;}
	.st8{fill:none;stroke:#20334A;stroke-width:3;stroke-linecap:round;stroke-linejoin:round;}
	.st9{fill:#D8D5D5;}
	.st10{fill:#2866AD;}
	.st11{fill:#FDA300;}
	.st12{fill:#6DCDD9;}
	.st13{fill:#F95000;}
	.st14{fill:#D8D5D5;stroke:#20334A;stroke-width:3;stroke-linecap:round;stroke-linejoin:round;stroke-miterlimit:10;}
	.st15{fill:#FFFFFF;stroke:#20334A;stroke-width:3;stroke-linecap:round;stroke-linejoin:round;stroke-miterlimit:10;}
	.st16{fill:#FDA300;stroke:#20334A;stroke-width:3;stroke-linecap:round;stroke-linejoin:round;stroke-miterlimit:10;}
	.st17{fill:#2866AD;stroke:#20334A;stroke-width:3;stroke-linecap:round;stroke-linejoin:round;}
	.st18{fill:#FFA727;}
	.st19{fill:#F3F0F0;}
	.st20{fill:#F5A015;}
	.st21{fill:#72C6D3;}
	.st22{fill:#41AA7D;}
	.st23{fill:#FFFFFF;stroke:#20334A;stroke-width:3;stroke-miterlimit:10;}
	.st24{fill:#41AA7D;stroke:#20334A;stroke-width:3;stroke-linecap:round;stroke-linejoin:round;stroke-miterlimit:10;}
	.st25{fill:none;stroke:#20334A;stroke-width:3;stroke-linecap:round;stroke-miterlimit:10;}
	.st26{fill:none;stroke:#20334A;stroke-width:3;stroke-miterlimit:10;}
	.st27{fill:none;stroke:#1F344B;stroke-width:3;stroke-miterlimit:10;}
	.st28{fill:#A7CCC3;}
	.st29{fill:#41AA7D;stroke:#20334A;stroke-width:3;stroke-linecap:round;stroke-miterlimit:10;}
	.st30{fill:#AAB5C7;stroke:#20334A;stroke-width:3;stroke-linecap:round;stroke-miterlimit:10;}
	.st31{fill:#E8521A;stroke:#20334A;stroke-width:3;stroke-miterlimit:10;}
	.st32{fill:#04A239;stroke:#20334A;stroke-width:3;stroke-linecap:round;stroke-linejoin:round;stroke-miterlimit:10;}
	.st33{fill:#FDB128;}
	.st34{fill:#6DCDD9;stroke:#20334A;stroke-width:3;stroke-linecap:round;stroke-linejoin:round;stroke-miterlimit:10;}
	.st35{fill:#F95000;stroke:#20334A;stroke-width:3;stroke-linecap:round;stroke-linejoin:round;stroke-miterlimit:10;}
	.st36{fill:#336CAF;stroke:#20334A;stroke-width:3;stroke-linecap:round;stroke-linejoin:round;stroke-miterlimit:10;}
	.st37{fill:#336CAF;}
	.st38{fill:#22B573;stroke:#20334A;stroke-width:3;stroke-linecap:round;stroke-linejoin:round;stroke-miterlimit:10;}
	.st39{fill:#F2F2F2;stroke:#20334A;stroke-width:3;stroke-miterlimit:10;}
	.st40{fill:#C9C9C9;}
	.st41{fill:#22344A;}
	.st42{fill:#2A66AE;}
	.st43{fill:#138897;}
	.st44{fill:none;stroke:#22344A;stroke-width:3;stroke-miterlimit:10;}
	.st45{fill:none;stroke:#22344A;stroke-width:3;stroke-linecap:round;stroke-linejoin:round;stroke-miterlimit:10;}
	.st46{fill:#F6A217;}
	.st47{fill:#F2BF59;}
	.st48{fill:#BBBA57;}
	.st49{fill:#42A873;}
	.st50{fill:#FA6450;}
	.st51{fill:#EB615C;}
	.st52{fill:#9751CE;}
	.st53{fill:#A88FCC;}
	.st54{fill:#6786E8;}
	.st55{fill:#95D861;}
	.st56{fill:#1E1E4D;}
	.st57{fill:#78CECA;}
	.st58{fill:#E73C1F;}
	.st59{fill:#61B5BC;}
	.st60{fill:#6ECCD9;}
	.st61{clip-path:url(#SVGID_2_);fill:#6ECCD9;}
	.st62{clip-path:url(#SVGID_4_);fill:#F59E26;}
	.st63{clip-path:url(#SVGID_6_);fill:#40AB91;}
	.st64{clip-path:url(#SVGID_8_);fill:#F57333;}
	.st65{clip-path:url(#SVGID_10_);fill:#12293B;}
	.st66{fill:#A5CBC1;}
	.st67{fill:#8481A3;}
	.st68{fill:#FFFFFF;stroke:#20334A;stroke-width:10;stroke-miterlimit:10;}
	.st69{fill:none;stroke:#F3F0F0;stroke-width:4;stroke-linecap:square;stroke-linejoin:round;stroke-miterlimit:10;}
	.st70{fill:#FFFFFF;stroke:#000000;stroke-width:6;stroke-linecap:round;stroke-linejoin:round;}
	.st71{fill:#E73C1F;stroke:#000000;stroke-width:6;stroke-miterlimit:10;}
	.st72{fill:#40AB91;}
	.st73{fill:#FFFFFF;stroke:#FFFFFF;stroke-miterlimit:10;}
	.st74{fill:#FFFFFF;stroke:#20334A;stroke-width:6;stroke-linecap:round;stroke-linejoin:round;}
	.st75{fill:#E73C1F;stroke:#20334A;stroke-width:6;stroke-miterlimit:10;}
	.st76{fill:none;stroke:#20334A;stroke-width:10;stroke-miterlimit:10;}
	.st77{fill:#677080;}
	.st78{fill:#11293B;}
	.st79{fill:#5D89C4;}
	.st80{fill:#FDA400;}
	.st81{fill:#3E4F6B;}
	.st82{fill:#FFA21A;}
	.st83{fill:#BDBD54;}
</style>
<g id="XMLID_8_">
	<g>
		<path class="st0" d="M146.03,139.61l-0.02-0.04c0.49-0.28,0.99-0.55,1.48-0.82l-13-19.3c5.19-3.64,9.14-8.53,11.63-14.05
			c24.73-3.14,43.86-24.26,43.86-49.85c0,0,71.39,26.48,70.41,86c-0.94,57.2-78.16,28.71-93.66,27.06c0,0-0.81,7.84-7,9.12
			c-7.05,1.47-16.91,2.6-21.5-8.29c-0.7-1.67-1.28-3.62-1.71-5.89c-0.97-5.2-3.37-10.34-1.23-14
			C137.02,146.58,141.65,142.15,146.03,139.61z"/>
		<path class="st0" d="M189.98,55.55c0,25.59-19.13,46.71-43.86,49.85c4.18-9.23,4.3-20.2-0.63-29.95
			c-8.64-17.09-29.5-23.94-46.59-15.3c-3.13,1.58-5.91,3.57-8.32,5.88c-0.72-3.38-1.1-6.89-1.1-10.48
			c0-27.75,22.5-50.25,50.25-50.25S189.98,27.8,189.98,55.55z M164.73,80.88c0-2.76-2.24-5-5-5c-2.76,0-5,2.24-5,5s2.24,5,5,5
			C162.49,85.88,164.73,83.64,164.73,80.88z"/>
		<circle class="st41" cx="159.73" cy="80.88" r="5"/>
		<path class="st43" d="M134.49,119.45l13,19.3c-0.49,0.27-0.99,0.54-1.48,0.82c-3.29,1.87-6.58,4.1-8.83,7.07l-11.62-22.67
			c1.57-0.53,3.11-1.17,4.63-1.94C131.71,121.26,133.14,120.4,134.49,119.45z"/>
		<path class="st43" d="M145.49,75.45c4.93,9.75,4.81,20.72,0.63,29.95c-2.49,5.52-6.44,10.41-11.63,14.05
			c-1.35,0.95-2.78,1.81-4.3,2.58c-1.52,0.77-3.06,1.41-4.63,1.94c-16.06,5.41-34.08-1.66-41.95-17.24
			c-7.06-13.96-3.79-30.43,6.97-40.7c2.41-2.31,5.19-4.3,8.32-5.88C115.99,51.51,136.85,58.36,145.49,75.45z M135.53,105
			c4.83-7.3,5.71-16.9,1.48-25.27c-6.27-12.41-21.41-17.38-33.82-11.11c-3.56,1.8-6.5,4.32-8.74,7.31
			c-5.61,7.42-6.85,17.67-2.38,26.52c6.28,12.41,21.43,17.38,33.84,11.11C129.95,111.52,133.21,108.53,135.53,105z"/>
		<path class="st0" d="M118.26,176.02c1.87,4,2.18,7.28,2.39,8.54c0.33,2,0.2,4.54-3.16,5.09c-3.59,0.57-5.15-3.4-5.15-3.4
			c-4.85-13.69-13.14-16.05-13.14-16.05s-5.67-2.56-13.23-7.87c-7.69-5.39-23.18,5.33-49.33,4.16c-10.89-1.02-49.76-9.2-22.58-54.61
			c33.5-55.96,75.42-56.33,75.42-56.33c0,3.59,0.38,7.1,1.1,10.48c-10.76,10.27-14.03,26.74-6.97,40.7
			c7.87,15.58,25.89,22.65,41.95,17.24l11.62,22.67c2.25-2.97,5.54-5.2,8.83-7.07l0.02,0.04c-4.38,2.54-9.01,6.97-10.74,9.94
			c-2.14,3.66,0.26,8.8,1.23,14c0.43,2.27,1.01,4.22,1.71,5.89l-4.12,1.22c1.28,2.74,1.63,4.99,0.48,6.2
			c-2.64,2.74-5.32-0.47-6.92-3.21c-0.42-0.98-0.9-1.93-1.47-2.92c0.12,0.3,0.66,1.55,1.47,2.92c0.62,1.39,1.13,2.82,1.66,4.38
			c1.38,4.1,0.39,5.99-3.01,6.68C123.41,185.31,118.78,176.97,118.26,176.02z"/>
		<path class="st0" d="M137.01,79.73c4.23,8.37,3.35,17.97-1.48,25.27c-2.32,3.53-5.58,6.52-9.62,8.56
			c-12.41,6.27-27.56,1.3-33.84-11.11c-4.47-8.85-3.23-19.1,2.38-26.52c2.24-2.99,5.18-5.51,8.74-7.31
			C115.6,62.35,130.74,67.32,137.01,79.73z M121.39,97.88c0-5.52-4.47-10-10-10c-5.52,0-10,4.48-10,10c0,5.53,4.48,10,10,10
			C116.92,107.88,121.39,103.41,121.39,97.88z"/>
		<circle class="st41" cx="111.39" cy="97.88" r="10"/>
	</g>
	<g>
		<path class="st44" d="M90.58,66.03c-0.72-3.38-1.1-6.89-1.1-10.48c0-27.75,22.5-50.25,50.25-50.25s50.25,22.5,50.25,50.25
			c0,25.59-19.13,46.71-43.86,49.85"/>
		<path class="st44" d="M134.49,119.45c5.19-3.64,9.14-8.53,11.63-14.05c4.18-9.23,4.3-20.2-0.63-29.95
			c-8.64-17.09-29.5-23.94-46.59-15.3c-3.13,1.58-5.91,3.57-8.32,5.88c-10.76,10.27-14.03,26.74-6.97,40.7
			c7.87,15.58,25.89,22.65,41.95,17.24"/>
		<path class="st44" d="M135.53,105c-2.32,3.53-5.58,6.52-9.62,8.56c-12.41,6.27-27.56,1.3-33.84-11.11
			c-4.47-8.85-3.23-19.1,2.38-26.52c2.24-2.99,5.18-5.51,8.74-7.31c12.41-6.27,27.55-1.3,33.82,11.11
			C141.24,88.1,140.36,97.7,135.53,105z"/>
		<path class="st44" d="M134.49,119.45l13,19.3c-0.49,0.27-0.99,0.54-1.48,0.82c-3.29,1.87-6.58,4.1-8.83,7.07l-11.62-22.67
			c1.57-0.53,3.11-1.17,4.63-1.94C131.71,121.26,133.14,120.4,134.49,119.45z"/>
		<path class="st45" d="M233.78,136.96c-24.67-4.33-54.85,15.33-70.6,5c-5.75-3.77-8.2-5.3-12.97-4.13
			c-1.29,0.3-2.72,0.94-4.18,1.78c-4.38,2.54-9.01,6.97-10.74,9.94c-2.14,3.66,0.26,8.8,1.23,14c0.43,2.27,1.01,4.22,1.71,5.89
			c4.59,10.89,14.45,9.76,21.5,8.29c6.19-1.28,7-9.12,7-9.12c15.5,1.65,92.72,30.14,93.66-27.06c0.98-59.52-70.41-86-70.41-86"/>
		<path class="st45" d="M118.21,175.93c-1.08-2.29-2.67-4.81-5.03-7.32"/>
		<path class="st45" d="M126.16,170.66c-1.39-2.42-3.32-5-6.36-8.33"/>
		<path class="st45" d="M118.21,175.93c0,0,0.01,0.04,0.05,0.09c0.52,0.95,5.15,9.29,8.06,8.69c3.4-0.69,4.39-2.58,3.01-6.68
			c-0.53-1.56-1.04-2.99-1.66-4.38c-0.42-0.98-0.9-1.93-1.47-2.92"/>
		<path class="st45" d="M89.48,55.55c0,0-41.92,0.37-75.42,56.33c-27.18,45.41,11.69,53.59,22.58,54.61
			c26.15,1.17,41.64-9.55,49.33-4.16c7.56,5.31,13.23,7.87,13.23,7.87s8.29,2.36,13.14,16.05c0,0,1.56,3.97,5.15,3.4
			c3.36-0.55,3.49-3.09,3.16-5.09c-0.21-1.26-0.52-4.54-2.39-8.54"/>
		<path class="st45" d="M126.16,170.66c0,0,0.02,0.02,0.04,0.07c0.12,0.3,0.66,1.55,1.47,2.92c1.6,2.74,4.28,5.95,6.92,3.21
			c1.15-1.21,0.8-3.46-0.48-6.2c-3.31-7.14-12.82-17.64-17.97-21.82c0,0-33.91-32.62-79.5-32.54"/>
		<line class="st45" x1="138.23" y1="169.44" x2="134.11" y2="170.66"/>
	</g>
</g>
</svg>
