<svg id="Camada_1" data-name="Camada 1" xmlns="http://www.w3.org/2000/svg" viewBox="0 0 312 316"><defs><style>.cls-1,.cls-4{fill:none;}.cls-1{stroke:#e6e6e6;stroke-miterlimit:10;stroke-width:6px;}.cls-2,.cls-7{fill:#fff;}.cls-3{fill:#d8d5d5;}.cls-4,.cls-5,.cls-6,.cls-7{stroke:#20334a;stroke-linecap:round;stroke-linejoin:round;stroke-width:4px;}.cls-5{fill:#fda300;}.cls-6{fill:#f95000;}</style></defs><circle class="cls-1" cx="156.94" cy="157.66" r="139.01"/><polygon class="cls-2" points="216.34 114.17 216.34 236 99.31 236 99.31 72.15 174.32 72.15 174.32 114.15 216.33 114.15 216.34 114.17"/><polygon class="cls-3" points="216.33 114.15 174.32 114.15 174.32 72.15 216.33 114.15"/><polygon class="cls-4" points="216.33 114.15 216.34 114.17 216.34 236 99.31 236 99.31 72.15 174.32 72.15 216.33 114.15"/><polyline class="cls-4" points="174.32 72.15 174.32 114.15 216.33 114.15 216.34 114.15"/><line class="cls-4" x1="117.28" y1="142.25" x2="168.3" y2="142.25"/><line class="cls-4" x1="117.28" y1="151.32" x2="175.81" y2="151.32"/><line class="cls-4" x1="117.28" y1="174.04" x2="168.3" y2="174.04"/><line class="cls-4" x1="117.28" y1="183.1" x2="175.81" y2="183.1"/><line class="cls-4" x1="117.28" y1="205.86" x2="168.3" y2="205.86"/><line class="cls-4" x1="117.28" y1="214.92" x2="175.81" y2="214.92"/><rect class="cls-5" x="190.25" y="147.89" width="11.81" height="94.24" transform="translate(270.31 461.47) rotate(-150.38)"/><path class="cls-6" d="M216.45,143h11.81a0,0,0,0,1,0,0v6.72a5.09,5.09,0,0,1-5.09,5.09h-1.63a5.09,5.09,0,0,1-5.09-5.09V143A0,0,0,0,1,216.45,143Z" transform="translate(342.08 388.25) rotate(-150.38)"/><polygon class="cls-7" points="166.5 247.18 172.25 243.04 178 238.89 172.87 235.97 167.73 233.05 167.11 240.12 166.5 247.18"/></svg>