<svg id="Camada_1" data-name="Camada 1" xmlns="http://www.w3.org/2000/svg" viewBox="0 0 312 316"><defs><style>.cls-1,.cls-4,.cls-6{fill:none;}.cls-1{stroke:#e6e6e6;stroke-miterlimit:10;stroke-width:6px;}.cls-2{fill:#fff;}.cls-2,.cls-3,.cls-4,.cls-5,.cls-6{stroke:#20334a;stroke-linecap:round;stroke-linejoin:round;}.cls-2,.cls-3,.cls-4{stroke-width:4px;}.cls-3{fill:#d8d5d5;}.cls-5{fill:#6dcdd9;}.cls-5,.cls-6{stroke-width:2px;}</style></defs><circle class="cls-1" cx="156.94" cy="157.66" r="139.01"/><path class="cls-2" d="M83.84,137.23V224.1a10.72,10.72,0,0,0,10.73,10.73h112a10.73,10.73,0,0,0,10.71-10.05l5.48-87.23a10.73,10.73,0,0,0-10.73-11.4l-117.54.35A10.74,10.74,0,0,0,83.84,137.23Z"/><path class="cls-3" d="M98.56,184.67l-.47-95.24A8.93,8.93,0,0,1,107,80.5h93.92a8.93,8.93,0,0,1,8.93,8.93v49.88L114,141.15Z"/><line class="cls-4" x1="109.99" y1="96.63" x2="128.89" y2="96.63"/><line class="cls-4" x1="137.76" y1="96.69" x2="198.9" y2="96.69"/><line class="cls-4" x1="109.99" y1="109.9" x2="163.43" y2="109.9"/><line class="cls-4" x1="171.37" y1="109.9" x2="198.9" y2="109.9"/><line class="cls-4" x1="109.99" y1="123.65" x2="151.06" y2="123.65"/><line class="cls-4" x1="157.36" y1="123.65" x2="198.9" y2="123.65"/><path class="cls-2" d="M85.26,230h0l24.31-82.92A10.87,10.87,0,0,1,120,139.31H225.15a10.87,10.87,0,0,1,10.37,14.13l-18.2,71.34"/><polygon class="cls-5" points="157.6 192.51 157.6 152.14 173 152.14 173 193.44 181.4 193.44 164.6 212.58 148.5 192.49 157.6 192.51"/><line class="cls-6" x1="153.68" y1="222.25" x2="175.57" y2="222.25"/></svg>