<svg id="Camada_1" data-name="Camada 1" xmlns="http://www.w3.org/2000/svg" viewBox="0 0 312 316"><defs><style>.cls-1,.cls-4{fill:none;}.cls-1{stroke:#e6e6e6;stroke-miterlimit:10;stroke-width:6px;}.cls-2{fill:#fc5000;}.cls-3{fill:#6dcdd9;}.cls-4{stroke:#20334a;stroke-linecap:round;stroke-linejoin:round;stroke-width:4px;}</style></defs><circle class="cls-1" cx="156.94" cy="157.66" r="139.01"/><path class="cls-2" d="M148.32,104.64a16.83,16.83,0,1,1,23.32-4.72,15.75,15.75,0,0,1-2.49,2.94A16.8,16.8,0,0,1,148.32,104.64Z"/><path class="cls-3" d="M190.41,162.53a20.86,20.86,0,1,1,7.72,9.35A20.84,20.84,0,0,1,190.41,162.53Z"/><circle class="cls-2" cx="206.99" cy="228.26" r="13.28"/><path class="cls-3" d="M118.59,163a24.56,24.56,0,0,1,3.38,1.89,24.85,24.85,0,1,1-3.38-1.89Z"/><path class="cls-4" d="M132.89,182.35A24.82,24.82,0,0,0,122,164.87a24.56,24.56,0,0,0-3.38-1.89,24.9,24.9,0,1,0,14.3,19.37Z"/><path class="cls-4" d="M169.15,102.86a15.75,15.75,0,0,0,2.49-2.94,16.87,16.87,0,1,0-2.49,2.94Z"/><path class="cls-4" d="M208.12,175.3a20.86,20.86,0,1,0-10-3.42A20.86,20.86,0,0,0,208.12,175.3Z"/><circle class="cls-4" cx="206.99" cy="228.26" r="13.28"/><line class="cls-4" x1="206.64" y1="214.99" x2="208.12" y2="175.3"/><line class="cls-4" x1="197.67" y1="137.37" x2="169.16" y2="102.87"/><polyline class="cls-4" points="132.88 182.36 132.89 182.35 190.41 162.53"/><line class="cls-4" x1="118.59" y1="162.98" x2="148.32" y2="104.64"/></svg>