<svg id="Camada_1" data-name="Camada 1" xmlns="http://www.w3.org/2000/svg" viewBox="0 0 312 316"><defs><style>.cls-1,.cls-5{fill:none;}.cls-1{stroke:#e6e6e6;stroke-miterlimit:10;stroke-width:6px;}.cls-2{fill:#d8d5d5;}.cls-3{fill:#aab5c7;}.cls-4{fill:#fda300;}.cls-5{stroke:#20334a;stroke-linecap:round;stroke-linejoin:round;stroke-width:4px;}</style></defs><circle class="cls-1" cx="156.94" cy="157.66" r="139.01"/><path class="cls-2" d="M221,175.43V211c0,17.7-28.68,32-64.06,32s-64.07-14.34-64.07-32V175.43c0,6.58,4,12.69,10.75,17.77,11.49,8.6,31.08,14.26,53.32,14.26s41.83-5.66,53.3-14.26C217,188.12,221,182,221,175.43Zm-21.28,42.69a4.78,4.78,0,0,0-.32-1.75,4.9,4.9,0,0,0-9.47,1.75,4.66,4.66,0,0,0,.14,1.13,4.89,4.89,0,0,0,9.65-1.13Z"/><path class="cls-2" d="M221,139.89v35.54c0,6.58-4,12.69-10.76,17.77-11.47,8.6-31.06,14.26-53.3,14.26s-41.83-5.66-53.32-14.26c-6.79-5.08-10.75-11.19-10.75-17.77V139.89c0,6.58,4,12.69,10.76,17.77,11.49,8.6,31.08,14.26,53.31,14.26s41.81-5.66,53.3-14.26C217,152.58,221,146.47,221,139.89Zm-21.28,42.88a4.8,4.8,0,0,0-.32-1.74,4.9,4.9,0,0,0-9.47,1.74,4.75,4.75,0,0,0,.14,1.14,4.89,4.89,0,0,0,9.65-1.14Z"/><path class="cls-2" d="M221,104.36v35.53c0,6.58-4,12.69-10.76,17.77-11.49,8.6-31.07,14.26-53.3,14.26s-41.82-5.66-53.31-14.26c-6.8-5.08-10.76-11.19-10.76-17.77V104.36c0,6.58,4,12.68,10.75,17.77,11.49,8.6,31.08,14.26,53.32,14.26s41.83-5.66,53.3-14.26C217,117,221,110.94,221,104.36Zm-21.28,43.08a4.81,4.81,0,0,0-.32-1.75,4.9,4.9,0,0,0-9.47,1.75,4.66,4.66,0,0,0,.14,1.13,4.89,4.89,0,0,0,9.65-1.13Z"/><path class="cls-3" d="M221,104.36c0,6.58-4,12.68-10.76,17.77-11.47,8.6-31.06,14.26-53.3,14.26s-41.83-5.66-53.32-14.26c-6.79-5.09-10.75-11.19-10.75-17.77,0-17.69,28.68-32,64.07-32S221,86.67,221,104.36Z"/><path class="cls-4" d="M199.4,145.69a4.81,4.81,0,0,1,.32,1.75,4.89,4.89,0,0,1-9.65,1.13,4.66,4.66,0,0,1-.14-1.13,4.9,4.9,0,0,1,9.47-1.75Z"/><path class="cls-4" d="M199.4,181a4.8,4.8,0,0,1,.32,1.74,4.89,4.89,0,0,1-9.65,1.14,4.75,4.75,0,0,1-.14-1.14A4.9,4.9,0,0,1,199.4,181Z"/><path class="cls-2" d="M199.4,216.37a4.78,4.78,0,0,1,.32,1.75,4.89,4.89,0,0,1-9.65,1.13,4.66,4.66,0,0,1-.14-1.13,4.9,4.9,0,0,1,9.47-1.75Z"/><path class="cls-5" d="M92.87,104.36c0-17.69,28.68-32,64.07-32S221,86.67,221,104.36"/><path class="cls-5" d="M92.87,139.89V104.36c0,6.58,4,12.68,10.75,17.77,11.49,8.6,31.08,14.26,53.32,14.26s41.83-5.66,53.3-14.26C217,117,221,110.94,221,104.36v35.53"/><path class="cls-5" d="M221,175.43V211c0,17.7-28.68,32-64.06,32s-64.07-14.34-64.07-32V175.43"/><path class="cls-5" d="M221,139.89v35.54c0,6.58-4,12.69-10.76,17.77-11.47,8.6-31.06,14.26-53.3,14.26s-41.83-5.66-53.32-14.26c-6.79-5.08-10.75-11.19-10.75-17.77V139.89c0,6.58,4,12.69,10.76,17.77,11.49,8.6,31.08,14.26,53.31,14.26s41.81-5.66,53.3-14.26C217,152.58,221,146.47,221,139.89Z"/><path class="cls-5" d="M199.72,147.44a4.89,4.89,0,0,1-9.65,1.13,4.66,4.66,0,0,1-.14-1.13,4.9,4.9,0,0,1,9.47-1.75A4.81,4.81,0,0,1,199.72,147.44Z"/><path class="cls-5" d="M199.72,182.77a4.89,4.89,0,0,1-9.65,1.14,4.75,4.75,0,0,1-.14-1.14A4.9,4.9,0,0,1,199.4,181,4.8,4.8,0,0,1,199.72,182.77Z"/><path class="cls-5" d="M199.72,218.12a4.89,4.89,0,0,1-9.65,1.13,4.66,4.66,0,0,1-.14-1.13,4.9,4.9,0,0,1,9.47-1.75A4.78,4.78,0,0,1,199.72,218.12Z"/></svg>