<svg xmlns="http://www.w3.org/2000/svg" viewBox="0 0 2292.81 867.05"><defs><style>.cls-1,.cls-11,.cls-3,.cls-7{isolation:isolate;}.cls-1{font-size:25px;fill:#727272;letter-spacing:0.03em;}.cls-1,.cls-11,.cls-7{font-family:Roboto-Regular, Roboto;}.cls-2,.cls-5{fill:none;}.cls-2{stroke:#999;stroke-miterlimit:10;}.cls-3,.cls-4{font-size:24px;fill:#999;font-family:RobotoMono-Regular, Roboto Mono;}.cls-5,.cls-6{stroke:#f2f2f2;}.cls-6{fill:#bfbfbf;}.cls-7{font-size:29px;fill:#444;letter-spacing:0.03em;}.cls-8{letter-spacing:0.02em;}.cls-9{letter-spacing:0.02em;}.cls-10{letter-spacing:0.02em;}.cls-11{font-size:27px;fill:#515151;}.cls-12{fill:#2c9696;}.cls-13{fill:#e2665c;}.cls-14{fill:#275d8c;}.cls-15{fill:#ffb409;}</style></defs><g id="Camada_1" data-name="Camada 1"><text class="cls-1" transform="translate(322.23 719.67)">Legenda</text><circle id="circle" class="cls-2" cx="696.39" cy="778.41" r="10.51"/><text class="cls-3" transform="translate(717.53 787.32)">15</text><text class="cls-4" transform="translate(390.32 787.32)">54</text><circle id="circle-2" data-name="circle" class="cls-2" cx="350.56" cy="778.41" r="28.33"/><text class="cls-4" transform="translate(565.35 787.32)">38</text><circle id="circle-3" data-name="circle" class="cls-2" cx="531.87" cy="778.41" r="21.02"/><line class="cls-5" x1="2162.58" y1="102.84" x2="322.55" y2="102.84"/><line class="cls-5" x1="2162.58" y1="224.56" x2="322.55" y2="224.56"/><line class="cls-5" x1="2162.58" y1="346.29" x2="322.55" y2="346.29"/><line class="cls-5" x1="2162.58" y1="468.01" x2="322.55" y2="468.01"/><line class="cls-6" x1="390.7" y1="539.64" x2="390.7" y2="102.82"/><line class="cls-6" x1="527" y1="539.64" x2="527" y2="102.84"/><line class="cls-6" x1="663.3" y1="539.64" x2="663.3" y2="102.84"/><line class="cls-6" x1="799.6" y1="539.64" x2="799.6" y2="102.8"/><line class="cls-6" x1="935.9" y1="539.64" x2="935.9" y2="102.82"/><line class="cls-6" x1="1072.19" y1="539.64" x2="1072.19" y2="102.84"/><line class="cls-6" x1="1208.49" y1="539.64" x2="1208.49" y2="102.84"/><line class="cls-6" x1="1344.79" y1="539.64" x2="1344.79" y2="102.84"/><line class="cls-6" x1="1481.09" y1="539.64" x2="1481.09" y2="102.84"/><line class="cls-6" x1="1617.39" y1="539.64" x2="1617.39" y2="102.84"/><line class="cls-6" x1="1753.69" y1="539.64" x2="1753.69" y2="102.84"/><line class="cls-6" x1="1889.99" y1="539.64" x2="1889.99" y2="102.84"/><line class="cls-6" x1="2026.28" y1="539.64" x2="2026.28" y2="102.84"/><line class="cls-6" x1="322.61" y1="539.64" x2="322.61" y2="102.84"/><line class="cls-6" x1="458.85" y1="539.64" x2="458.85" y2="102.84"/><line class="cls-6" x1="595.15" y1="539.64" x2="595.15" y2="102.84"/><line class="cls-6" x1="731.45" y1="539.64" x2="731.45" y2="102.82"/><line class="cls-6" x1="867.75" y1="539.64" x2="867.75" y2="102.82"/><line class="cls-6" x1="1004.04" y1="539.64" x2="1004.04" y2="102.84"/><line class="cls-6" x1="1140.34" y1="539.64" x2="1140.34" y2="102.84"/><line class="cls-6" x1="1276.64" y1="539.64" x2="1276.64" y2="102.84"/><line class="cls-6" x1="1412.94" y1="539.64" x2="1412.94" y2="102.84"/><line class="cls-6" x1="1549.24" y1="539.64" x2="1549.24" y2="102.84"/><line class="cls-6" x1="1685.54" y1="539.64" x2="1685.54" y2="102.84"/><line class="cls-6" x1="1821.84" y1="539.64" x2="1821.84" y2="102.84"/><line class="cls-6" x1="1958.13" y1="539.64" x2="1958.13" y2="102.84"/><line class="cls-6" x1="2094.43" y1="539.64" x2="2094.43" y2="102.84"/><line class="cls-6" x1="2162.58" y1="539.64" x2="2162.58" y2="102.84"/><text class="cls-7" transform="translate(60.71 111.91)">Cirú<tspan class="cls-8" x="54.61" y="0">r</tspan><tspan x="64.88" y="0">gico Adul</tspan><tspan class="cls-9" x="191.91" y="0">t</tspan><tspan x="201.82" y="0">o</tspan></text><text class="cls-7" transform="translate(90.61 233.82)">Clínico Adul<tspan class="cls-10" x="162.01" y="0">t</tspan><tspan x="171.93" y="0">o</tspan></text><text class="cls-7" transform="translate(75.71 354.79)">Especialidades</text><text class="cls-7" transform="translate(192.81 476.57)">UTI/UI</text><path class="cls-5" d="M322.61,551V539.64h1840V552"/><line class="cls-5" x1="390.76" y1="539.61" x2="390.76" y2="551.95"/><line class="cls-5" x1="527.06" y1="539.61" x2="527.06" y2="551.95"/><line class="cls-5" x1="663.35" y1="539.61" x2="663.35" y2="551.95"/><line class="cls-5" x1="799.65" y1="539.61" x2="799.65" y2="551.95"/><line class="cls-5" x1="935.95" y1="539.61" x2="935.95" y2="551.95"/><line class="cls-5" x1="1072.25" y1="539.61" x2="1072.25" y2="551.95"/><line class="cls-5" x1="1208.55" y1="539.61" x2="1208.55" y2="551.95"/><line class="cls-5" x1="1344.85" y1="539.61" x2="1344.85" y2="551.95"/><line class="cls-5" x1="1481.15" y1="539.61" x2="1481.15" y2="551.95"/><line class="cls-5" x1="1617.45" y1="539.61" x2="1617.45" y2="551.95"/><line class="cls-5" x1="1753.74" y1="539.61" x2="1753.74" y2="551.95"/><line class="cls-5" x1="1890.04" y1="539.61" x2="1890.04" y2="551.95"/><line class="cls-5" x1="2026.34" y1="539.61" x2="2026.34" y2="551.95"/><text class="cls-11" transform="translate(354.87 599.72)">13/06</text><text class="cls-11" transform="translate(491.17 599.72)">15/06</text><text class="cls-11" transform="translate(627.47 599.72)">17/06</text><text class="cls-11" transform="translate(763.77 599.72)">19/06</text><text class="cls-11" transform="translate(900.07 599.72)">21/06</text><text class="cls-11" transform="translate(1036.36 599.72)">23/06</text><text class="cls-11" transform="translate(1172.66 599.72)">25/06</text><text class="cls-11" transform="translate(1308.96 599.72)">27/06</text><text class="cls-11" transform="translate(1445.26 599.72)">29/06</text><text class="cls-11" transform="translate(1581.56 599.72)">01/07</text><text class="cls-11" transform="translate(1717.86 599.72)">03/07</text><text class="cls-11" transform="translate(1854.16 599.72)">05/07</text><text class="cls-11" transform="translate(1990.45 599.72)">07/07</text><text class="cls-11" transform="translate(2126.75 599.72)">09/07</text><circle id="circle-4" data-name="circle" class="cls-12" cx="322.55" cy="102.81" r="4.57"/><circle id="circle-5" data-name="circle" class="cls-12" cx="390.7" cy="102.82" r="4.57"/><circle id="circle-6" data-name="circle" class="cls-12" cx="458.85" cy="102.8" r="5.94"/><circle id="circle-7" data-name="circle" class="cls-12" cx="527" cy="102.82" r="9.6"/><circle id="circle-8" data-name="circle" class="cls-12" cx="595.15" cy="102.81" r="10.05"/><circle id="circle-9" data-name="circle" class="cls-12" cx="663.3" cy="102.8" r="10.05"/><circle id="circle-10" data-name="circle" class="cls-12" cx="731.45" cy="102.83" r="10.05"/><circle id="circle-11" data-name="circle" class="cls-12" cx="799.6" cy="102.8" r="10.05"/><circle id="circle-12" data-name="circle" class="cls-12" cx="867.75" cy="102.82" r="10.05"/><circle id="circle-13" data-name="circle" class="cls-12" cx="935.9" cy="102.82" r="11.42"/><circle id="circle-14" data-name="circle" class="cls-12" cx="1004.04" cy="102.79" r="11.42"/><circle id="circle-15" data-name="circle" class="cls-12" cx="1072.19" cy="102.83" r="11.42"/><circle id="circle-16" data-name="circle" class="cls-12" cx="1140.34" cy="102.8" r="12.34"/><circle id="circle-17" data-name="circle" class="cls-12" cx="1208.49" cy="102.81" r="11.42"/><circle id="circle-18" data-name="circle" class="cls-12" cx="1276.64" cy="102.83" r="11.42"/><circle id="circle-19" data-name="circle" class="cls-12" cx="1344.79" cy="102.79" r="11.42"/><circle id="circle-20" data-name="circle" class="cls-12" cx="1412.94" cy="102.83" r="11.42"/><circle id="circle-21" data-name="circle" class="cls-12" cx="1481.09" cy="102.81" r="11.88"/><circle id="circle-22" data-name="circle" class="cls-12" cx="1549.24" cy="102.79" r="11.42"/><circle id="circle-23" data-name="circle" class="cls-12" cx="1617.39" cy="102.84" r="11.42"/><circle id="circle-24" data-name="circle" class="cls-12" cx="1685.54" cy="102.79" r="11.42"/><circle id="circle-25" data-name="circle" class="cls-12" cx="1753.69" cy="102.81" r="11.42"/><circle id="circle-26" data-name="circle" class="cls-12" cx="1821.84" cy="102.83" r="11.42"/><circle id="circle-27" data-name="circle" class="cls-12" cx="1889.99" cy="102.78" r="11.42"/><circle id="circle-28" data-name="circle" class="cls-12" cx="1958.13" cy="102.84" r="11.42"/><circle id="circle-29" data-name="circle" class="cls-12" cx="2026.28" cy="102.81" r="11.42"/><circle id="circle-30" data-name="circle" class="cls-12" cx="2094.43" cy="102.79" r="11.42"/><circle id="circle-31" data-name="circle" class="cls-12" cx="2162.58" cy="102.84" r="11.42"/><circle id="circle-32" data-name="circle" class="cls-13" cx="322.55" cy="224.59" r="4.11"/><circle id="circle-33" data-name="circle" class="cls-13" cx="390.7" cy="224.59" r="4.11"/><circle id="circle-34" data-name="circle" class="cls-13" cx="458.85" cy="224.58" r="5.48"/><circle id="circle-35" data-name="circle" class="cls-13" cx="527" cy="224.6" r="5.48"/><circle id="circle-36" data-name="circle" class="cls-13" cx="595.15" cy="224.59" r="8.22"/><circle id="circle-37" data-name="circle" class="cls-13" cx="663.3" cy="224.58" r="8.22"/><circle id="circle-38" data-name="circle" class="cls-13" cx="731.45" cy="224.6" r="8.22"/><circle id="circle-39" data-name="circle" class="cls-13" cx="799.6" cy="224.57" r="8.22"/><circle id="circle-40" data-name="circle" class="cls-13" cx="867.75" cy="224.59" r="8.22"/><circle id="circle-41" data-name="circle" class="cls-13" cx="935.9" cy="224.6" r="8.22"/><circle id="circle-42" data-name="circle" class="cls-13" cx="1004.04" cy="224.57" r="8.22"/><circle id="circle-43" data-name="circle" class="cls-13" cx="1072.19" cy="224.61" r="8.22"/><circle id="circle-44" data-name="circle" class="cls-13" cx="1140.34" cy="224.58" r="8.22"/><circle id="circle-45" data-name="circle" class="cls-13" cx="1208.49" cy="224.58" r="8.22"/><circle id="circle-46" data-name="circle" class="cls-13" cx="1276.64" cy="224.61" r="8.22"/><circle id="circle-47" data-name="circle" class="cls-13" cx="1344.79" cy="224.56" r="8.22"/><circle id="circle-48" data-name="circle" class="cls-13" cx="1412.94" cy="224.6" r="8.22"/><circle id="circle-49" data-name="circle" class="cls-13" cx="1481.09" cy="224.59" r="8.22"/><circle id="circle-50" data-name="circle" class="cls-13" cx="1549.24" cy="224.57" r="8.22"/><circle id="circle-51" data-name="circle" class="cls-13" cx="1617.39" cy="224.62" r="8.22"/><circle id="circle-52" data-name="circle" class="cls-13" cx="1685.54" cy="224.57" r="8.22"/><circle id="circle-53" data-name="circle" class="cls-13" cx="1753.69" cy="224.59" r="8.22"/><circle id="circle-54" data-name="circle" class="cls-13" cx="1821.84" cy="224.6" r="8.22"/><circle id="circle-55" data-name="circle" class="cls-13" cx="1889.99" cy="224.56" r="8.22"/><circle id="circle-56" data-name="circle" class="cls-13" cx="1958.13" cy="224.61" r="8.22"/><circle id="circle-57" data-name="circle" class="cls-13" cx="2026.28" cy="224.58" r="8.68"/><circle id="circle-58" data-name="circle" class="cls-13" cx="2094.43" cy="224.57" r="9.6"/><circle id="circle-59" data-name="circle" class="cls-13" cx="2162.58" cy="224.62" r="9.6"/><circle id="circle-60" data-name="circle" class="cls-14" cx="322.55" cy="346.33" r="5.48"/><circle id="circle-61" data-name="circle" class="cls-14" cx="390.7" cy="346.34" r="8.22"/><circle id="circle-62" data-name="circle" class="cls-14" cx="458.85" cy="346.32" r="11.42"/><circle id="circle-63" data-name="circle" class="cls-14" cx="527" cy="346.34" r="21.93"/><circle id="circle-64" data-name="circle" class="cls-14" cx="595.15" cy="346.33" r="21.02" transform="translate(154.52 875.47) rotate(-80.41)"/><circle id="circle-65" data-name="circle" class="cls-14" cx="663.3" cy="346.32" r="21.02"/><circle id="circle-66" data-name="circle" class="cls-14" cx="731.45" cy="346.35" r="23.3"/><circle id="circle-67" data-name="circle" class="cls-14" cx="799.6" cy="346.32" r="24.67"/><circle id="circle-68" data-name="circle" class="cls-14" cx="867.75" cy="346.34" r="24.67"/><circle id="circle-69" data-name="circle" class="cls-14" cx="935.9" cy="346.34" r="24.67"/><circle id="circle-70" data-name="circle" class="cls-14" cx="1004.04" cy="346.31" r="24.67"/><circle id="circle-71" data-name="circle" class="cls-14" cx="1072.19" cy="346.35" r="24.67"/><circle id="circle-72" data-name="circle" class="cls-14" cx="1140.34" cy="346.31" r="28.33"/><circle id="circle-73" data-name="circle" class="cls-14" cx="1208.49" cy="346.32" r="24.67"/><circle id="circle-74" data-name="circle" class="cls-14" cx="1276.64" cy="346.36" r="24.67"/><circle id="circle-75" data-name="circle" class="cls-14" cx="1344.79" cy="346.31" r="24.67"/><circle id="circle-76" data-name="circle" class="cls-14" cx="1412.94" cy="346.37" r="25.13"/><circle id="circle-77" data-name="circle" class="cls-14" cx="1481.09" cy="346.31" r="24.67"/><circle id="circle-78" data-name="circle" class="cls-14" cx="1549.24" cy="346.31" r="24.67"/><circle id="circle-79" data-name="circle" class="cls-14" cx="1617.39" cy="346.36" r="24.67"/><circle id="circle-80" data-name="circle" class="cls-14" cx="1685.54" cy="346.31" r="24.67"/><circle id="circle-81" data-name="circle" class="cls-14" cx="1753.69" cy="346.3" r="24.67"/><circle id="circle-82" data-name="circle" class="cls-14" cx="1821.84" cy="346.38" r="24.67"/><circle id="circle-83" data-name="circle" class="cls-14" cx="1889.99" cy="346.3" r="24.67"/><circle id="circle-84" data-name="circle" class="cls-14" cx="1958.13" cy="346.38" r="24.67"/><circle id="circle-85" data-name="circle" class="cls-14" cx="2026.28" cy="346.32" r="24.67"/><circle id="circle-86" data-name="circle" class="cls-14" cx="2094.43" cy="346.3" r="25.13"/><circle id="circle-87" data-name="circle" class="cls-14" cx="2162.58" cy="346.36" r="25.13"/><circle id="circle-88" data-name="circle" class="cls-15" cx="322.55" cy="468.1" r="9.14"/><circle id="circle-89" data-name="circle" class="cls-15" cx="390.7" cy="468.11" r="10.51"/><circle id="circle-90" data-name="circle" class="cls-15" cx="458.85" cy="468.09" r="9.14"/><circle id="circle-91" data-name="circle" class="cls-15" cx="527" cy="468.11" r="9.6"/><circle id="circle-92" data-name="circle" class="cls-15" cx="595.15" cy="468.1" r="9.14"/><circle id="circle-93" data-name="circle" class="cls-15" cx="663.3" cy="468.09" r="9.14"/><circle id="circle-94" data-name="circle" class="cls-15" cx="731.45" cy="468.12" r="10.51"/><circle id="circle-95" data-name="circle" class="cls-15" cx="799.6" cy="468.09" r="10.51"/><circle id="circle-96" data-name="circle" class="cls-15" cx="867.75" cy="468.11" r="10.51"/><circle id="circle-97" data-name="circle" class="cls-15" cx="935.9" cy="468.11" r="10.51"/><circle id="circle-98" data-name="circle" class="cls-15" cx="1004.04" cy="468.08" r="10.51"/><circle id="circle-99" data-name="circle" class="cls-15" cx="1072.19" cy="468.12" r="10.51"/><circle id="circle-100" data-name="circle" class="cls-15" cx="1140.34" cy="468.09" r="10.51"/><circle id="circle-101" data-name="circle" class="cls-15" cx="1208.49" cy="468.1" r="10.51"/><circle id="circle-102" data-name="circle" class="cls-15" cx="1276.64" cy="468.12" r="10.51"/><circle id="circle-103" data-name="circle" class="cls-15" cx="1344.79" cy="468.08" r="10.51"/><circle id="circle-104" data-name="circle" class="cls-15" cx="1412.94" cy="468.12" r="10.51"/><circle id="circle-105" data-name="circle" class="cls-15" cx="1481.09" cy="468.1" r="11.42"/><circle id="circle-106" data-name="circle" class="cls-15" cx="1549.24" cy="468.08" r="10.51"/><circle id="circle-107" data-name="circle" class="cls-15" cx="1617.39" cy="468.13" r="10.51"/><circle id="circle-108" data-name="circle" class="cls-15" cx="1685.54" cy="468.08" r="10.51"/><circle id="circle-109" data-name="circle" class="cls-15" cx="1753.69" cy="468.11" r="10.51"/><circle id="circle-110" data-name="circle" class="cls-15" cx="1821.84" cy="468.12" r="10.51"/><circle id="circle-111" data-name="circle" class="cls-15" cx="1889.99" cy="468.07" r="10.51"/><circle id="circle-112" data-name="circle" class="cls-15" cx="1958.13" cy="468.13" r="10.51"/><circle id="circle-113" data-name="circle" class="cls-15" cx="2026.28" cy="468.1" r="15.08"/><circle id="circle-114" data-name="circle" class="cls-15" cx="2094.43" cy="468.08" r="10.05"/><circle id="circle-115" data-name="circle" class="cls-15" cx="2162.58" cy="468.13" r="10.05"/></g></svg>