<svg id="Camada_1" data-name="Camada 1" xmlns="http://www.w3.org/2000/svg" viewBox="0 0 699.76 336.35"><defs><style>.cls-1{fill:#010101;}.cls-2{fill:#f1a019;}.cls-14,.cls-17,.cls-22,.cls-23,.cls-3,.cls-4{fill:none;}.cls-3{stroke:#c6c6c6;stroke-width:0.75px;}.cls-22,.cls-3{stroke-miterlimit:10;}.cls-4{stroke:#e95443;}.cls-14,.cls-17,.cls-23,.cls-4{stroke-linecap:round;stroke-linejoin:round;}.cls-12,.cls-13,.cls-15,.cls-18,.cls-5{font-size:15px;font-family:Roboto-Regular, Roboto;}.cls-5{fill:#e95443;}.cls-6{letter-spacing:0.02em;}.cls-7{font-size:10px;font-family:Roboto-Light, Roboto;font-weight:300;}.cls-8{letter-spacing:-0.02em;}.cls-9{letter-spacing:-0.01em;}.cls-10{letter-spacing:-0.02em;}.cls-11{letter-spacing:-0.01em;}.cls-12{fill:#ebaa35;}.cls-13{fill:#38b3c1;}.cls-14{stroke:#38b3c1;}.cls-15{fill:#695cb5;}.cls-16{font-size:11.69px;fill:#1d1d1b;font-family:RobotoMono-Regular, Roboto Mono;}.cls-17{stroke:#ebaa35;}.cls-18{fill:#296297;}.cls-19{letter-spacing:-0.01em;}.cls-20{letter-spacing:-0.01em;}.cls-21{letter-spacing:-0.01em;}.cls-22{stroke:#695cb5;}.cls-23{stroke:#296297;}</style></defs><path class="cls-1" d="M248,157.75q0,8.81-3.76,13.74a12.45,12.45,0,0,1-10.5,4.93,11.46,11.46,0,0,1-9.53-4.57l-.44,3.89h-8.81V123.69h9.8v18.67a11.16,11.16,0,0,1,8.91-4,12.55,12.55,0,0,1,10.52,4.93q3.81,4.92,3.81,13.88Zm-9.79-.71c0-3.71-.59-6.41-1.76-8.12a6,6,0,0,0-5.26-2.56c-3.11,0-5.26,1.28-6.43,3.83v14.47c1.19,2.58,3.36,3.86,6.5,3.86s5.24-1.55,6.24-4.67A24.29,24.29,0,0,0,238.16,157Z"/><path class="cls-1" d="M274.35,172a12.28,12.28,0,0,1-10,4.41q-5.9,0-9-3.39t-3.17-9.93v-24H262v23.72q0,5.73,5.22,5.73,5,0,6.84-3.46v-26h9.83v36.67h-9.22Z"/><path class="cls-1" d="M309.49,165.61a3.15,3.15,0,0,0-1.78-2.83,20,20,0,0,0-5.71-1.85q-13.08-2.75-13.08-11.11a10.07,10.07,0,0,1,4.05-8.15q4-3.27,10.59-3.27,7,0,11.17,3.28a10.37,10.37,0,0,1,4.18,8.54h-9.79a4.72,4.72,0,0,0-1.36-3.47,5.69,5.69,0,0,0-4.23-1.37,5.83,5.83,0,0,0-3.83,1.12,3.5,3.5,0,0,0-1.36,2.84,3,3,0,0,0,1.54,2.63,16,16,0,0,0,5.21,1.73,41.61,41.61,0,0,1,6.16,1.64q7.77,2.85,7.76,9.86a9.56,9.56,0,0,1-4.3,8.12q-4.31,3.1-11.12,3.1a19.46,19.46,0,0,1-8.18-1.64,13.82,13.82,0,0,1-5.61-4.51,10.51,10.51,0,0,1-2-6.19h9.28a5.1,5.1,0,0,0,1.94,4,7.62,7.62,0,0,0,4.81,1.39,7.11,7.11,0,0,0,4.25-1.06A3.34,3.34,0,0,0,309.49,165.61Z"/><path class="cls-1" d="M343.58,165.61a3.15,3.15,0,0,0-1.78-2.83,20,20,0,0,0-5.71-1.85Q323,158.19,323,149.82a10.07,10.07,0,0,1,4.05-8.15q4.05-3.27,10.59-3.27,7,0,11.17,3.28a10.37,10.37,0,0,1,4.18,8.54h-9.79a4.72,4.72,0,0,0-1.36-3.47,5.69,5.69,0,0,0-4.23-1.37,5.83,5.83,0,0,0-3.83,1.12,3.5,3.5,0,0,0-1.36,2.84A3,3,0,0,0,334,152a16,16,0,0,0,5.21,1.73,41.61,41.61,0,0,1,6.16,1.64q7.77,2.85,7.76,9.86a9.56,9.56,0,0,1-4.3,8.12q-4.31,3.1-11.12,3.1a19.46,19.46,0,0,1-8.18-1.64,13.82,13.82,0,0,1-5.61-4.51,10.51,10.51,0,0,1-2-6.19h9.28a5.1,5.1,0,0,0,1.94,4,7.62,7.62,0,0,0,4.81,1.39,7.11,7.11,0,0,0,4.25-1.06A3.34,3.34,0,0,0,343.58,165.61Z"/><path class="cls-1" d="M356.29,157.07a21.77,21.77,0,0,1,2.1-9.73,15.38,15.38,0,0,1,6.05-6.61,17.7,17.7,0,0,1,9.16-2.33,16.69,16.69,0,0,1,12.12,4.54q4.69,4.55,5.24,12.33l.06,2.51q0,8.44-4.71,13.54t-12.64,5.1c-5.29,0-9.5-1.69-12.66-5.08s-4.72-8-4.72-13.83Zm9.79.69c0,3.49.66,6.15,2,8a7.06,7.06,0,0,0,11.18,0q2-2.73,2-8.74,0-5.12-2-7.94a6.5,6.5,0,0,0-5.63-2.82,6.4,6.4,0,0,0-5.55,2.8Q366.09,151.9,366.08,157.76Z"/><path class="cls-1" d="M405.8,175.74H396V123.69h9.83Z"/><path class="cls-1" d="M433.51,175.74a11.07,11.07,0,0,1-1-3.28,11.84,11.84,0,0,1-9.25,4,13,13,0,0,1-8.93-3.12,10,10,0,0,1-3.54-7.86,10.37,10.37,0,0,1,4.32-8.95q4.32-3.12,12.49-3.15h4.5v-2.1a6.06,6.06,0,0,0-1.3-4.07,5.15,5.15,0,0,0-4.12-1.52,5.84,5.84,0,0,0-3.88,1.18,4,4,0,0,0-1.4,3.26h-9.8a9.85,9.85,0,0,1,2-5.9,13,13,0,0,1,5.56-4.25,20.18,20.18,0,0,1,8.06-1.54q6.78,0,10.76,3.4t4,9.58v15.89c0,3.48.51,6.11,1.46,7.9v.57Zm-8.09-6.81a8.46,8.46,0,0,0,4-1,6.32,6.32,0,0,0,2.71-2.6v-6.3h-3.66q-7.35,0-7.82,5.08l0,.58a3.9,3.9,0,0,0,1.29,3A5,5,0,0,0,425.42,168.93Z"/><polygon class="cls-2" points="261.95 139.07 261.95 121.16 276.07 121.16 261.95 139.07"/><polyline class="cls-3" points="337.38 128.67 337.38 50.67 370.38 50.67"/><path class="cls-4" d="M380.37,57.79c0,1.86,3.43,3.38,7.65,3.38s7.65-1.52,7.65-3.38"/><path class="cls-4" d="M395.27,53.77h0a1.81,1.81,0,0,1,.39,1.07,1.7,1.7,0,0,1-.28.91l0,.06h0c-.94,1.4-3.86,2.42-7.33,2.42s-6.39-1-7.33-2.42h0l0-.06a1.7,1.7,0,0,1-.28-.91,1.78,1.78,0,0,1,.4-1.08h0"/><path class="cls-4" d="M382.52,46.37a1.36,1.36,0,0,0,0,.2c0,1.3,2.53,2.36,5.52,2.36s5.52-1.06,5.52-2.36a1.36,1.36,0,0,0,0-.2c-.24-1.21-2.66-2.16-5.5-2.16S382.76,45.16,382.52,46.37Z"/><path class="cls-4" d="M393.54,46.37a37.39,37.39,0,0,1,1.74,7.41,19.07,19.07,0,0,1,.11,2"/><path class="cls-4" d="M382.51,46.37a37.19,37.19,0,0,0-1.74,7.4,19.3,19.3,0,0,0-.12,2"/><line class="cls-4" x1="395.67" y1="54.85" x2="395.67" y2="57.79"/><line class="cls-4" x1="380.37" y1="54.85" x2="380.37" y2="57.79"/><line class="cls-4" x1="384.03" y1="42.42" x2="383.19" y2="40.97"/><line class="cls-4" x1="388.02" y1="41.35" x2="388.02" y2="39.67"/><line class="cls-4" x1="392.01" y1="42.42" x2="392.85" y2="40.97"/><line class="cls-4" x1="394.93" y1="45.34" x2="396.38" y2="44.5"/><line class="cls-4" x1="381.11" y1="45.34" x2="379.66" y2="44.5"/><text class="cls-5" transform="translate(404.46 54.92)">ale<tspan class="cls-6" x="19.75" y="0">r</tspan><tspan x="25.19" y="0">tas</tspan></text><text class="cls-7" transform="translate(404.46 73.81)"><tspan class="cls-8">A</tspan><tspan x="6" y="0">visos de situações críticas no </tspan><tspan x="0" y="14">moni</tspan><tspan class="cls-9" x="22.2" y="14">t</tspan><tspan x="25.31" y="14">o</tspan><tspan class="cls-10" x="30.91" y="14">r</tspan><tspan x="34.08" y="14">amen</tspan><tspan class="cls-9" x="58.96" y="14">t</tspan><tspan x="62.08" y="14">o dos indicado</tspan><tspan class="cls-11" x="125.96" y="14">r</tspan><tspan x="129.23" y="14">es </tspan><tspan x="0" y="28">selecionados.</tspan></text><polyline class="cls-3" points="263.38 184.67 263.38 247.67 283.38 247.67"/><text class="cls-12" transform="translate(312.46 252.92)">documen<tspan class="cls-9" x="62.5" y="0">t</tspan><tspan x="67.26" y="0">os</tspan></text><text class="cls-7" transform="translate(312.46 271.81)">Modelos de documen<tspan class="cls-9" x="94.79" y="0">t</tspan><tspan x="97.91" y="0">os pa</tspan><tspan class="cls-10" x="121.9" y="0">r</tspan><tspan x="125.07" y="0">a </tspan><tspan x="0" y="14">atuação em situações críticas </tspan><tspan x="0" y="28">detectadas pelos ale</tspan><tspan class="cls-6" x="90.04" y="28">r</tspan><tspan x="93.65" y="28">tas.</tspan></text><polyline class="cls-3" points="276.02 110.67 276.02 37.67 149.38 37.67"/><text class="cls-13" transform="translate(94.6 41.6)">painéis</text><path d="M96.1,57.59v2.89h-.6v-7.1h2.43a2.56,2.56,0,0,1,1.75.56,2,2,0,0,1,.64,1.56,2,2,0,0,1-.62,1.55,2.64,2.64,0,0,1-1.79.54Zm0-.51h1.83a2,2,0,0,0,1.33-.41,1.72,1.72,0,0,0,0-2.34,1.86,1.86,0,0,0-1.3-.45H96.1Z"/><path d="M104.81,60.48a2.74,2.74,0,0,1-.12-.73,2.09,2.09,0,0,1-.78.62,2.47,2.47,0,0,1-1,.21,1.77,1.77,0,0,1-1.23-.42,1.38,1.38,0,0,1-.47-1.08,1.41,1.41,0,0,1,.64-1.22,3.08,3.08,0,0,1,1.79-.45h1.06v-.6a1.18,1.18,0,0,0-.35-.89,1.47,1.47,0,0,0-1-.32,1.58,1.58,0,0,0-1,.31.92.92,0,0,0-.4.75h-.59a1.38,1.38,0,0,1,.59-1.1,2.3,2.3,0,0,1,1.44-.46,2,2,0,0,1,1.39.45,1.57,1.57,0,0,1,.53,1.23v2.5a3.09,3.09,0,0,0,.16,1.15v0ZM103,60.06a2,2,0,0,0,1-.28,1.7,1.7,0,0,0,.67-.76V57.86h-1a2.7,2.7,0,0,0-1.36.32,1,1,0,0,0-.5.85.94.94,0,0,0,.33.74A1.23,1.23,0,0,0,103,60.06Z"/><path d="M106.79,53.68a.39.39,0,0,1,.11-.28.37.37,0,0,1,.29-.12.39.39,0,0,1,.41.4.37.37,0,0,1-.11.27.39.39,0,0,1-.3.11.36.36,0,0,1-.29-.11A.37.37,0,0,1,106.79,53.68Zm.69,6.8h-.58V55.2h.58Z"/><path d="M109.62,55.2l0,.9a2.12,2.12,0,0,1,.75-.74,1.91,1.91,0,0,1,1-.26,1.57,1.57,0,0,1,1.26.48,2.13,2.13,0,0,1,.42,1.44v3.46h-.58V57a1.57,1.57,0,0,0-.3-1,1.18,1.18,0,0,0-.94-.35,1.5,1.5,0,0,0-1,.34,2,2,0,0,0-.62.92v3.61h-.58V55.2Z"/><path d="M116.61,60.58a2.3,2.3,0,0,1-1.22-.33,2.25,2.25,0,0,1-.85-.93,2.86,2.86,0,0,1-.3-1.33v-.21a3.23,3.23,0,0,1,.29-1.37,2.5,2.5,0,0,1,.83-1,2,2,0,0,1,1.14-.35,1.92,1.92,0,0,1,1.53.66,2.71,2.71,0,0,1,.56,1.8v.32h-3.77V58a2.24,2.24,0,0,0,.51,1.5,1.65,1.65,0,0,0,1.3.6,2,2,0,0,0,.83-.17,1.86,1.86,0,0,0,.65-.55l.37.28A2.14,2.14,0,0,1,116.61,60.58Zm-.11-5a1.44,1.44,0,0,0-1.11.49,2.25,2.25,0,0,0-.55,1.29H118v-.06a1.92,1.92,0,0,0-.44-1.24A1.34,1.34,0,0,0,116.5,55.6Zm.65-2.62h.71l-1.13,1.37h-.51Z"/><path d="M119.69,53.68a.39.39,0,0,1,.11-.28.37.37,0,0,1,.29-.12.38.38,0,0,1,.3.12.39.39,0,0,1,.11.28.38.38,0,0,1-.41.38.36.36,0,0,1-.29-.11A.37.37,0,0,1,119.69,53.68Zm.69,6.8h-.58V55.2h.58Z"/><path d="M125.13,59.14a.82.82,0,0,0-.35-.7,2.76,2.76,0,0,0-1-.41,4.71,4.71,0,0,1-1.09-.34,1.55,1.55,0,0,1-.58-.47,1.23,1.23,0,0,1-.18-.68,1.25,1.25,0,0,1,.52-1,2.12,2.12,0,0,1,1.34-.41,2.16,2.16,0,0,1,1.41.44,1.39,1.39,0,0,1,.54,1.14h-.59a.93.93,0,0,0-.39-.77,1.47,1.47,0,0,0-1-.31,1.53,1.53,0,0,0-.93.26.79.79,0,0,0-.35.66.74.74,0,0,0,.29.62,3.25,3.25,0,0,0,1.06.4,4.77,4.77,0,0,1,1.15.38,1.47,1.47,0,0,1,.57.49,1.35,1.35,0,0,1-.35,1.77,2.29,2.29,0,0,1-1.41.4,2.45,2.45,0,0,1-1.5-.44A1.39,1.39,0,0,1,121.7,59h.59a1,1,0,0,0,.43.79,1.74,1.74,0,0,0,1,.29,1.66,1.66,0,0,0,1-.27A.8.8,0,0,0,125.13,59.14Z"/><path d="M129.23,57.79a3.17,3.17,0,0,1,.55-2,1.78,1.78,0,0,1,1.49-.73,1.85,1.85,0,0,1,1.63.85V53h.58v7.5h-.54l0-.7a1.86,1.86,0,0,1-1.65.8,1.75,1.75,0,0,1-1.47-.73,3.22,3.22,0,0,1-.56-2Zm.59.11a2.68,2.68,0,0,0,.41,1.59,1.3,1.3,0,0,0,1.14.58,1.56,1.56,0,0,0,1.53-1V56.64a1.57,1.57,0,0,0-1.52-1,1.34,1.34,0,0,0-1.15.58A3,3,0,0,0,129.82,57.9Z"/><path d="M137.07,60.58a2.3,2.3,0,0,1-1.22-.33,2.25,2.25,0,0,1-.85-.93,2.86,2.86,0,0,1-.3-1.33v-.21a3.23,3.23,0,0,1,.29-1.37,2.42,2.42,0,0,1,.83-1A2,2,0,0,1,137,55.1a1.92,1.92,0,0,1,1.53.66,2.71,2.71,0,0,1,.56,1.8v.32h-3.77V58a2.24,2.24,0,0,0,.51,1.5,1.65,1.65,0,0,0,1.3.6,2,2,0,0,0,.83-.17,2,2,0,0,0,.65-.55l.37.28A2.14,2.14,0,0,1,137.07,60.58Zm-.11-5a1.44,1.44,0,0,0-1.11.49,2.19,2.19,0,0,0-.55,1.29h3.17v-.06a1.92,1.92,0,0,0-.44-1.24A1.34,1.34,0,0,0,137,55.6Z"/><path d="M146,60.48a2.81,2.81,0,0,1-.11-.73,2.17,2.17,0,0,1-.78.62,2.5,2.5,0,0,1-1,.21,1.77,1.77,0,0,1-1.23-.42,1.38,1.38,0,0,1-.48-1.08,1.42,1.42,0,0,1,.65-1.22,3.05,3.05,0,0,1,1.79-.45h1.06v-.6a1.18,1.18,0,0,0-.35-.89,1.5,1.5,0,0,0-1-.32,1.56,1.56,0,0,0-1,.31.92.92,0,0,0-.4.75h-.59a1.38,1.38,0,0,1,.59-1.1,2.3,2.3,0,0,1,1.44-.46,2,2,0,0,1,1.39.45,1.57,1.57,0,0,1,.53,1.23v2.5a3.09,3.09,0,0,0,.16,1.15v0Zm-1.83-.42a1.91,1.91,0,0,0,1-.28,1.66,1.66,0,0,0,.68-.76V57.86h-1.05a2.74,2.74,0,0,0-1.37.32,1,1,0,0,0-.49.85.94.94,0,0,0,.33.74A1.23,1.23,0,0,0,144.12,60.06Z"/><path d="M149.93,60.09a1.49,1.49,0,0,0,1-.35,1.19,1.19,0,0,0,.45-.89H152a1.69,1.69,0,0,1-.3.88,2,2,0,0,1-.74.63,2.24,2.24,0,0,1-1,.22,2,2,0,0,1-1.65-.72,2.89,2.89,0,0,1-.61-1.94v-.18a3.18,3.18,0,0,1,.28-1.38,2.1,2.1,0,0,1,.78-.93,2.15,2.15,0,0,1,1.19-.33,2.09,2.09,0,0,1,1.44.52A1.93,1.93,0,0,1,152,57h-.56a1.48,1.48,0,0,0-.45-1,1.59,1.59,0,0,0-2.25.19,2.54,2.54,0,0,0-.44,1.6V58a2.46,2.46,0,0,0,.44,1.57A1.46,1.46,0,0,0,149.93,60.09Z"/><path d="M152.8,57.77a3.11,3.11,0,0,1,.3-1.38,2.21,2.21,0,0,1,2.06-1.29,2.2,2.2,0,0,1,1.71.74,2.9,2.9,0,0,1,.65,2v.13a3.25,3.25,0,0,1-.29,1.38,2.22,2.22,0,0,1-2.06,1.27,2.16,2.16,0,0,1-1.71-.74,2.82,2.82,0,0,1-.66-2Zm.59.16a2.36,2.36,0,0,0,.49,1.55,1.66,1.66,0,0,0,2.57,0,2.45,2.45,0,0,0,.49-1.6v-.11a2.65,2.65,0,0,0-.23-1.11,1.64,1.64,0,0,0-.63-.78,1.54,1.54,0,0,0-.92-.28,1.58,1.58,0,0,0-1.28.62,2.45,2.45,0,0,0-.49,1.6Z"/><path d="M159.26,55.2l0,.86a1.94,1.94,0,0,1,.73-.72,2,2,0,0,1,1-.24,1.48,1.48,0,0,1,1.58,1,2.05,2.05,0,0,1,.76-.76,2.08,2.08,0,0,1,1-.27c1.13,0,1.71.62,1.73,1.86v3.52h-.59V57a1.57,1.57,0,0,0-.3-1,1.28,1.28,0,0,0-1-.34,1.57,1.57,0,0,0-1.07.41,1.42,1.42,0,0,0-.48,1v3.49h-.58V57a1.42,1.42,0,0,0-.33-1,1.22,1.22,0,0,0-1-.34,1.47,1.47,0,0,0-.95.32,1.9,1.9,0,0,0-.59.93v3.62h-.58V55.2Z"/><path d="M171.84,57.9a3.23,3.23,0,0,1-.55,2,1.74,1.74,0,0,1-1.47.72,2,2,0,0,1-1.66-.76v2.7h-.58V55.2h.55l0,.75a1.88,1.88,0,0,1,1.65-.85,1.76,1.76,0,0,1,1.49.72,3.25,3.25,0,0,1,.54,2Zm-.59-.11a2.75,2.75,0,0,0-.41-1.59,1.36,1.36,0,0,0-1.16-.59,1.57,1.57,0,0,0-1.52,1v2.54a1.52,1.52,0,0,0,.61.69,1.7,1.7,0,0,0,.92.24,1.34,1.34,0,0,0,1.15-.59A3,3,0,0,0,171.25,57.79Z"/><path d="M176.47,60.48a2.74,2.74,0,0,1-.12-.73,2.09,2.09,0,0,1-.78.62,2.47,2.47,0,0,1-1,.21,1.77,1.77,0,0,1-1.23-.42,1.38,1.38,0,0,1-.47-1.08,1.41,1.41,0,0,1,.64-1.22,3.08,3.08,0,0,1,1.79-.45h1.06v-.6a1.18,1.18,0,0,0-.35-.89,1.47,1.47,0,0,0-1-.32,1.58,1.58,0,0,0-1,.31.92.92,0,0,0-.4.75H173a1.38,1.38,0,0,1,.59-1.1A2.3,2.3,0,0,1,175,55.1a2,2,0,0,1,1.39.45,1.57,1.57,0,0,1,.53,1.23v2.5a3.09,3.09,0,0,0,.16,1.15v0Zm-1.84-.42a2,2,0,0,0,1.05-.28,1.7,1.7,0,0,0,.67-.76V57.86h-1a2.7,2.7,0,0,0-1.36.32,1,1,0,0,0-.5.85.94.94,0,0,0,.33.74A1.23,1.23,0,0,0,174.63,60.06Z"/><path d="M179,55.2l0,.9a2.12,2.12,0,0,1,.75-.74,1.91,1.91,0,0,1,1-.26,1.57,1.57,0,0,1,1.26.48,2.13,2.13,0,0,1,.42,1.44v3.46h-.58V57a1.57,1.57,0,0,0-.3-1,1.18,1.18,0,0,0-.94-.35,1.48,1.48,0,0,0-1,.34,2,2,0,0,0-.62.92v3.61h-.58V55.2Z"/><path d="M184.56,56.1a2.1,2.1,0,0,1,.74-.74,2,2,0,0,1,1-.26,1.56,1.56,0,0,1,1.26.48A2.13,2.13,0,0,1,188,57v3.46h-.58V57a1.57,1.57,0,0,0-.3-1,1.16,1.16,0,0,0-.94-.35,1.52,1.52,0,0,0-1,.34,2,2,0,0,0-.62.92v3.61H184V53h.58Z"/><path d="M192.8,60.48a2.81,2.81,0,0,1-.11-.73,2.17,2.17,0,0,1-.78.62,2.5,2.5,0,0,1-1,.21,1.77,1.77,0,0,1-1.23-.42,1.38,1.38,0,0,1-.47-1.08,1.41,1.41,0,0,1,.64-1.22,3.08,3.08,0,0,1,1.79-.45h1.06v-.6a1.18,1.18,0,0,0-.35-.89,1.48,1.48,0,0,0-1-.32,1.56,1.56,0,0,0-1,.31.92.92,0,0,0-.4.75h-.59a1.38,1.38,0,0,1,.59-1.1,2.3,2.3,0,0,1,1.44-.46,2,2,0,0,1,1.39.45,1.57,1.57,0,0,1,.53,1.23v2.5a3.09,3.09,0,0,0,.16,1.15v0ZM191,60.06a2,2,0,0,0,1.05-.28,1.7,1.7,0,0,0,.67-.76V57.86h-1.05a2.74,2.74,0,0,0-1.37.32,1,1,0,0,0-.49.85.94.94,0,0,0,.33.74A1.23,1.23,0,0,0,191,60.06Z"/><path d="M195.36,55.2l0,.86a1.94,1.94,0,0,1,.73-.72,2,2,0,0,1,1-.24,1.48,1.48,0,0,1,1.58,1,2,2,0,0,1,.76-.76,2,2,0,0,1,1-.27q1.71,0,1.74,1.86v3.52h-.59V57a1.57,1.57,0,0,0-.3-1,1.28,1.28,0,0,0-1-.34,1.57,1.57,0,0,0-1.07.41,1.42,1.42,0,0,0-.48,1v3.49h-.59V57a1.42,1.42,0,0,0-.32-1,1.24,1.24,0,0,0-1-.34,1.47,1.47,0,0,0-.94.32,1.83,1.83,0,0,0-.59.93v3.62h-.58V55.2Z"/><path d="M205.73,60.58a2.27,2.27,0,0,1-1.21-.33,2.19,2.19,0,0,1-.85-.93,2.86,2.86,0,0,1-.3-1.33v-.21a3.09,3.09,0,0,1,.29-1.37,2.48,2.48,0,0,1,.82-1,2.07,2.07,0,0,1,1.15-.35,1.88,1.88,0,0,1,1.52.66,2.66,2.66,0,0,1,.57,1.8v.32H204V58a2.24,2.24,0,0,0,.51,1.5,1.64,1.64,0,0,0,1.3.6,2,2,0,0,0,.83-.17,2.05,2.05,0,0,0,.65-.55l.36.28A2.13,2.13,0,0,1,205.73,60.58Zm-.1-5a1.44,1.44,0,0,0-1.11.49,2.13,2.13,0,0,0-.55,1.29h3.16v-.06a1.92,1.92,0,0,0-.43-1.24A1.34,1.34,0,0,0,205.63,55.6Z"/><path d="M209.41,55.2l0,.9a2.18,2.18,0,0,1,.74-.74,1.94,1.94,0,0,1,1-.26,1.59,1.59,0,0,1,1.27.48,2.25,2.25,0,0,1,.42,1.44v3.46h-.58V57a1.68,1.68,0,0,0-.3-1,1.2,1.2,0,0,0-1-.35,1.52,1.52,0,0,0-1,.34,2,2,0,0,0-.62.92v3.61h-.58V55.2Z"/><path d="M215.25,53.85V55.2h1.1v.48h-1.1V59.2a1.14,1.14,0,0,0,.16.66.64.64,0,0,0,.53.21,3.74,3.74,0,0,0,.48,0l0,.47a1.76,1.76,0,0,1-.62.08,1,1,0,0,1-.88-.35,1.63,1.63,0,0,1-.27-1V55.68h-1V55.2h1V53.85Z"/><path d="M217.14,57.77a3.25,3.25,0,0,1,.29-1.38,2.35,2.35,0,0,1,.84-1,2.31,2.31,0,0,1,1.22-.34,2.17,2.17,0,0,1,1.71.74,2.85,2.85,0,0,1,.66,2v.13a3.11,3.11,0,0,1-.3,1.38,2.24,2.24,0,0,1-.83.94,2.31,2.31,0,0,1-1.23.33,2.13,2.13,0,0,1-1.7-.74,2.82,2.82,0,0,1-.66-2Zm.59.16a2.36,2.36,0,0,0,.49,1.55,1.65,1.65,0,0,0,2.56,0,2.45,2.45,0,0,0,.5-1.6v-.11a2.65,2.65,0,0,0-.23-1.11,1.76,1.76,0,0,0-.63-.78,1.64,1.64,0,0,0-2.2.34,2.45,2.45,0,0,0-.49,1.6Z"/><path d="M95.13,71.79a3.23,3.23,0,0,1,.55-2,1.8,1.8,0,0,1,1.49-.73A1.83,1.83,0,0,1,98.8,70V67h.59v7.5h-.55l0-.7a1.86,1.86,0,0,1-1.65.8,1.76,1.76,0,0,1-1.47-.73,3.22,3.22,0,0,1-.56-2Zm.59.11a2.75,2.75,0,0,0,.41,1.59,1.3,1.3,0,0,0,1.14.58,1.56,1.56,0,0,0,1.53-.95V70.64a1.57,1.57,0,0,0-1.52-1,1.36,1.36,0,0,0-1.15.58A3,3,0,0,0,95.72,71.9Z"/><path d="M103,74.58a2.26,2.26,0,0,1-2.07-1.26,2.86,2.86,0,0,1-.3-1.33v-.21a3.09,3.09,0,0,1,.3-1.37,2.4,2.4,0,0,1,.82-1,2,2,0,0,1,1.14-.35,1.92,1.92,0,0,1,1.53.66,2.71,2.71,0,0,1,.56,1.8v.32h-3.77V72a2.19,2.19,0,0,0,.52,1.5,1.62,1.62,0,0,0,1.29.6,2,2,0,0,0,.83-.17,1.86,1.86,0,0,0,.65-.55l.37.28A2.13,2.13,0,0,1,103,74.58Zm-.11-5a1.44,1.44,0,0,0-1.11.49,2.25,2.25,0,0,0-.55,1.29h3.17v-.06a2,2,0,0,0-.43-1.24A1.37,1.37,0,0,0,102.86,69.6Z"/><path d="M108.29,71.79a3.15,3.15,0,0,1,.55-2,1.77,1.77,0,0,1,1.49-.73A1.85,1.85,0,0,1,112,70l0-.76h.54v5.18A2.21,2.21,0,0,1,112,76a2,2,0,0,1-1.54.6,2.33,2.33,0,0,1-1.06-.25,2.11,2.11,0,0,1-.79-.65l.33-.36a1.86,1.86,0,0,0,1.48.77,1.5,1.5,0,0,0,1.14-.44,1.7,1.7,0,0,0,.42-1.19V73.8a1.88,1.88,0,0,1-1.63.78,1.77,1.77,0,0,1-1.48-.73,3.21,3.21,0,0,1-.55-2Zm.59.11a2.75,2.75,0,0,0,.4,1.59,1.31,1.31,0,0,0,1.15.58,1.55,1.55,0,0,0,1.52-1V70.65a1.6,1.6,0,0,0-.59-.77,1.54,1.54,0,0,0-.92-.27,1.33,1.33,0,0,0-1.15.58A2.9,2.9,0,0,0,108.88,71.9Z"/><path d="M116.51,69.7a2.5,2.5,0,0,0-.4,0,1.43,1.43,0,0,0-.92.3,1.69,1.69,0,0,0-.54.89v3.62h-.58V69.2h.57V70a1.56,1.56,0,0,1,1.49-.94,1,1,0,0,1,.38.07Z"/><path d="M120.83,73.82a1.89,1.89,0,0,1-1.68.76,1.64,1.64,0,0,1-1.29-.49,2.18,2.18,0,0,1-.45-1.45V69.2H118v3.37c0,1,.41,1.5,1.22,1.5a1.48,1.48,0,0,0,1.61-1V69.2h.59v5.28h-.57Z"/><path d="M127.17,71.9a3.23,3.23,0,0,1-.54,2,1.76,1.76,0,0,1-1.47.72,2,2,0,0,1-1.66-.76v2.7h-.58V69.2h.54l0,.75a1.88,1.88,0,0,1,1.66-.85,1.75,1.75,0,0,1,1.48.72,3.25,3.25,0,0,1,.54,2Zm-.58-.11a2.68,2.68,0,0,0-.42-1.59,1.33,1.33,0,0,0-1.15-.59,1.55,1.55,0,0,0-1.52,1v2.54a1.56,1.56,0,0,0,.6.69,1.74,1.74,0,0,0,.93.24,1.34,1.34,0,0,0,1.15-.59A3,3,0,0,0,126.59,71.79Z"/><path d="M128.15,71.77a3.1,3.1,0,0,1,.29-1.38,2.35,2.35,0,0,1,.84-1,2.28,2.28,0,0,1,1.22-.34,2.2,2.2,0,0,1,1.71.74,2.9,2.9,0,0,1,.65,2v.13a3.25,3.25,0,0,1-.29,1.38,2.22,2.22,0,0,1-2.06,1.27,2.16,2.16,0,0,1-1.71-.74,2.81,2.81,0,0,1-.65-2Zm.58.16a2.42,2.42,0,0,0,.49,1.55,1.57,1.57,0,0,0,1.29.61,1.55,1.55,0,0,0,1.28-.61,2.45,2.45,0,0,0,.49-1.6v-.11a2.65,2.65,0,0,0-.22-1.11,1.76,1.76,0,0,0-.63-.78,1.65,1.65,0,0,0-2.21.34,2.5,2.5,0,0,0-.49,1.6Z"/><path d="M137.23,73.14a.82.82,0,0,0-.35-.7,2.76,2.76,0,0,0-1-.41,4.71,4.71,0,0,1-1.09-.34,1.55,1.55,0,0,1-.58-.47,1.23,1.23,0,0,1-.18-.68,1.25,1.25,0,0,1,.52-1,2.12,2.12,0,0,1,1.34-.41,2.16,2.16,0,0,1,1.41.44,1.39,1.39,0,0,1,.54,1.14h-.59a.93.93,0,0,0-.39-.77,1.47,1.47,0,0,0-1-.31,1.53,1.53,0,0,0-.93.26.79.79,0,0,0-.35.66.74.74,0,0,0,.29.62,3.25,3.25,0,0,0,1.06.4,4.77,4.77,0,0,1,1.15.38,1.47,1.47,0,0,1,.57.49,1.35,1.35,0,0,1-.35,1.77,2.29,2.29,0,0,1-1.41.4,2.43,2.43,0,0,1-1.5-.44A1.39,1.39,0,0,1,133.8,73h.59a1,1,0,0,0,.43.79,1.74,1.74,0,0,0,1.05.29,1.66,1.66,0,0,0,1-.27A.8.8,0,0,0,137.23,73.14Z"/><path d="M141.33,71.79a3.17,3.17,0,0,1,.55-2,1.77,1.77,0,0,1,1.49-.73A1.85,1.85,0,0,1,145,70V67h.58v7.5H145l0-.7a1.86,1.86,0,0,1-1.65.8,1.75,1.75,0,0,1-1.47-.73,3.22,3.22,0,0,1-.56-2Zm.59.11a2.75,2.75,0,0,0,.4,1.59,1.33,1.33,0,0,0,1.15.58,1.56,1.56,0,0,0,1.53-.95V70.64a1.57,1.57,0,0,0-1.52-1,1.34,1.34,0,0,0-1.15.58A3,3,0,0,0,141.92,71.9Z"/><path d="M149.17,74.58a2.3,2.3,0,0,1-1.22-.33,2.19,2.19,0,0,1-.85-.93,2.86,2.86,0,0,1-.3-1.33v-.21a3.23,3.23,0,0,1,.29-1.37,2.42,2.42,0,0,1,.83-1,2,2,0,0,1,1.14-.35,1.88,1.88,0,0,1,1.52.66,2.66,2.66,0,0,1,.57,1.8v.32h-3.77V72a2.24,2.24,0,0,0,.51,1.5,1.65,1.65,0,0,0,1.3.6,2,2,0,0,0,.83-.17,2,2,0,0,0,.65-.55l.37.28A2.14,2.14,0,0,1,149.17,74.58Zm-.11-5a1.44,1.44,0,0,0-1.11.49,2.19,2.19,0,0,0-.55,1.29h3.17v-.06a1.92,1.92,0,0,0-.44-1.24A1.34,1.34,0,0,0,149.06,69.6Z"/><path d="M154.68,67.68a.39.39,0,0,1,.11-.28.37.37,0,0,1,.29-.12.38.38,0,0,1,.3.12.39.39,0,0,1,.11.28.38.38,0,0,1-.41.38.36.36,0,0,1-.29-.11A.37.37,0,0,1,154.68,67.68Zm.69,6.8h-.58V69.2h.58Z"/><path d="M157.52,69.2v.9a2.12,2.12,0,0,1,.75-.74,1.91,1.91,0,0,1,1-.26,1.57,1.57,0,0,1,1.26.48,2.13,2.13,0,0,1,.42,1.44v3.46h-.58V71a1.57,1.57,0,0,0-.3-1.05,1.16,1.16,0,0,0-.94-.35,1.52,1.52,0,0,0-1,.34,2,2,0,0,0-.62.92v3.61H157V69.2Z"/><path d="M162.22,71.79a3.17,3.17,0,0,1,.55-2,1.77,1.77,0,0,1,1.49-.73,1.85,1.85,0,0,1,1.63.85V67h.58v7.5h-.55l0-.7a1.87,1.87,0,0,1-1.65.8,1.75,1.75,0,0,1-1.47-.73,3.16,3.16,0,0,1-.56-2Zm.59.11a2.75,2.75,0,0,0,.4,1.59,1.32,1.32,0,0,0,1.15.58,1.56,1.56,0,0,0,1.53-.95V70.64a1.57,1.57,0,0,0-1.52-1,1.33,1.33,0,0,0-1.15.58A3,3,0,0,0,162.81,71.9Z"/><path d="M168,67.68a.39.39,0,0,1,.11-.28.37.37,0,0,1,.29-.12.38.38,0,0,1,.3.12.39.39,0,0,1,.11.28.38.38,0,0,1-.41.38.36.36,0,0,1-.29-.11A.37.37,0,0,1,168,67.68Zm.69,6.8h-.58V69.2h.58Z"/><path d="M172.2,74.09a1.52,1.52,0,0,0,1-.35,1.18,1.18,0,0,0,.44-.89h.56a1.53,1.53,0,0,1-.3.88,1.82,1.82,0,0,1-.74.63,2.24,2.24,0,0,1-1,.22,2.06,2.06,0,0,1-1.65-.72,2.94,2.94,0,0,1-.6-1.94v-.18a3.33,3.33,0,0,1,.27-1.38,2.1,2.1,0,0,1,.78-.93,2.16,2.16,0,0,1,1.2-.33,2,2,0,0,1,1.43.52,1.86,1.86,0,0,1,.6,1.36h-.56a1.43,1.43,0,0,0-.44-1,1.49,1.49,0,0,0-1-.38,1.46,1.46,0,0,0-1.23.57,2.6,2.6,0,0,0-.44,1.6V72a2.53,2.53,0,0,0,.44,1.57A1.46,1.46,0,0,0,172.2,74.09Z"/><path d="M178.74,74.48a2.74,2.74,0,0,1-.12-.73,2.09,2.09,0,0,1-.78.62,2.47,2.47,0,0,1-1,.21,1.77,1.77,0,0,1-1.23-.42,1.38,1.38,0,0,1-.47-1.08,1.41,1.41,0,0,1,.64-1.22,3.08,3.08,0,0,1,1.79-.45h1.06v-.6a1.18,1.18,0,0,0-.35-.89,1.47,1.47,0,0,0-1-.32,1.58,1.58,0,0,0-1,.31.92.92,0,0,0-.4.75h-.59a1.38,1.38,0,0,1,.59-1.1,2.3,2.3,0,0,1,1.44-.46,2,2,0,0,1,1.39.45,1.54,1.54,0,0,1,.53,1.23v2.5a3.09,3.09,0,0,0,.16,1.15v0Zm-1.84-.42a2,2,0,0,0,1-.28,1.7,1.7,0,0,0,.67-.76V71.86h-1.05a2.7,2.7,0,0,0-1.36.32,1,1,0,0,0-.5.85.94.94,0,0,0,.33.74A1.23,1.23,0,0,0,176.9,74.06Z"/><path d="M180.52,71.79a3.23,3.23,0,0,1,.55-2,1.8,1.8,0,0,1,1.49-.73,1.86,1.86,0,0,1,1.64.85V67h.58v7.5h-.55l0-.7a1.86,1.86,0,0,1-1.65.8,1.76,1.76,0,0,1-1.47-.73,3.22,3.22,0,0,1-.56-2Zm.59.11a2.75,2.75,0,0,0,.41,1.59,1.3,1.3,0,0,0,1.14.58,1.58,1.58,0,0,0,1.54-.95V70.64a1.59,1.59,0,0,0-1.53-1,1.36,1.36,0,0,0-1.15.58A3,3,0,0,0,181.11,71.9Z"/><path d="M186,71.77a3.11,3.11,0,0,1,.3-1.38,2.26,2.26,0,0,1,.83-1,2.32,2.32,0,0,1,1.23-.34,2.16,2.16,0,0,1,1.7.74,2.85,2.85,0,0,1,.66,2v.13a3.11,3.11,0,0,1-.3,1.38,2.17,2.17,0,0,1-.83.94,2.3,2.3,0,0,1-1.22.33,2.16,2.16,0,0,1-1.71-.74,2.82,2.82,0,0,1-.66-2Zm.59.16a2.36,2.36,0,0,0,.49,1.55,1.66,1.66,0,0,0,2.57,0,2.5,2.5,0,0,0,.49-1.6v-.11a2.65,2.65,0,0,0-.23-1.11,1.76,1.76,0,0,0-.63-.78,1.64,1.64,0,0,0-2.2.34,2.45,2.45,0,0,0-.49,1.6Z"/><path d="M194.36,69.7a2.6,2.6,0,0,0-.4,0,1.43,1.43,0,0,0-.92.3,1.57,1.57,0,0,0-.54.89v3.62h-.59V69.2h.58V70A1.56,1.56,0,0,1,194,69.1a1,1,0,0,1,.38.07Z"/><path d="M197.23,74.58a2.33,2.33,0,0,1-1.22-.33,2.23,2.23,0,0,1-.84-.93,2.75,2.75,0,0,1-.31-1.33v-.21a3.09,3.09,0,0,1,.3-1.37,2.48,2.48,0,0,1,.82-1,2,2,0,0,1,1.14-.35,1.91,1.91,0,0,1,1.53.66,2.66,2.66,0,0,1,.56,1.8v.32h-3.76V72a2.24,2.24,0,0,0,.51,1.5,1.64,1.64,0,0,0,1.3.6,1.94,1.94,0,0,0,.82-.17,2,2,0,0,0,.66-.55l.36.28A2.13,2.13,0,0,1,197.23,74.58Zm-.11-5a1.47,1.47,0,0,0-1.11.49,2.25,2.25,0,0,0-.55,1.29h3.17v-.06a1.92,1.92,0,0,0-.43-1.24A1.34,1.34,0,0,0,197.12,69.6Z"/><path d="M203.52,73.14a.85.85,0,0,0-.35-.7,2.9,2.9,0,0,0-1-.41,4.81,4.81,0,0,1-1.1-.34,1.44,1.44,0,0,1-.57-.47,1.16,1.16,0,0,1-.19-.68,1.25,1.25,0,0,1,.52-1,2.14,2.14,0,0,1,1.34-.41,2.19,2.19,0,0,1,1.42.44,1.38,1.38,0,0,1,.53,1.14h-.58a.93.93,0,0,0-.39-.77,1.51,1.51,0,0,0-1-.31,1.57,1.57,0,0,0-.93.26.78.78,0,0,0-.34.66.72.72,0,0,0,.29.62,3.07,3.07,0,0,0,1.06.4,4.94,4.94,0,0,1,1.15.38,1.64,1.64,0,0,1,.57.49,1.33,1.33,0,0,1,.18.7,1.25,1.25,0,0,1-.54,1.07,2.29,2.29,0,0,1-1.41.4,2.4,2.4,0,0,1-1.49-.44,1.4,1.4,0,0,1-.58-1.13h.59a1,1,0,0,0,.43.79,1.79,1.79,0,0,0,1.05.29,1.66,1.66,0,0,0,1-.27A.81.81,0,0,0,203.52,73.14Z"/><path d="M99.62,85.9a3.23,3.23,0,0,1-.55,2,1.75,1.75,0,0,1-1.47.72,2,2,0,0,1-1.66-.76v2.7h-.58V83.2h.54l0,.75a1.9,1.9,0,0,1,1.66-.85,1.76,1.76,0,0,1,1.49.72,3.25,3.25,0,0,1,.54,2ZM99,85.79a2.68,2.68,0,0,0-.42-1.59,1.33,1.33,0,0,0-1.15-.59,1.55,1.55,0,0,0-1.52,1v2.54a1.56,1.56,0,0,0,.6.69,1.74,1.74,0,0,0,.93.24,1.34,1.34,0,0,0,1.15-.59A3,3,0,0,0,99,85.79Z"/><path d="M103.35,83.7a2.5,2.5,0,0,0-.4,0,1.43,1.43,0,0,0-.92.3,1.69,1.69,0,0,0-.54.89v3.62h-.58V83.2h.57V84A1.57,1.57,0,0,1,103,83.1a1,1,0,0,1,.39.07Z"/><path d="M106.23,88.58a2.3,2.3,0,0,1-1.22-.33,2.25,2.25,0,0,1-.85-.93,2.86,2.86,0,0,1-.3-1.33v-.21a3.23,3.23,0,0,1,.29-1.37,2.42,2.42,0,0,1,.83-1,2,2,0,0,1,1.14-.35,1.92,1.92,0,0,1,1.53.66,2.71,2.71,0,0,1,.56,1.8v.32h-3.77V86a2.24,2.24,0,0,0,.51,1.5,1.65,1.65,0,0,0,1.3.6,2,2,0,0,0,.83-.17,2,2,0,0,0,.65-.55l.37.28A2.14,2.14,0,0,1,106.23,88.58Zm-.11-5a1.44,1.44,0,0,0-1.11.49,2.19,2.19,0,0,0-.55,1.29h3.17v-.06a1.92,1.92,0,0,0-.44-1.24A1.34,1.34,0,0,0,106.12,83.6Z"/><path d="M110.93,87.68l1.6-4.48h.61l-2,5.28h-.47l-2-5.28h.6Z"/><path d="M114.06,81.68a.39.39,0,0,1,.4-.4.37.37,0,0,1,.29.12.36.36,0,0,1,.11.28.33.33,0,0,1-.11.27.36.36,0,0,1-.29.11.35.35,0,0,1-.29-.11A.33.33,0,0,1,114.06,81.68Zm.69,6.8h-.59V83.2h.59Z"/><path d="M119.67,88.48a2.44,2.44,0,0,1-.11-.73,2.21,2.21,0,0,1-.79.62,2.47,2.47,0,0,1-1,.21,1.8,1.8,0,0,1-1.23-.42,1.48,1.48,0,0,1,.17-2.3,3.1,3.1,0,0,1,1.79-.45h1.06v-.6a1.15,1.15,0,0,0-.35-.89,1.47,1.47,0,0,0-1-.32,1.6,1.6,0,0,0-1,.31,1,1,0,0,0-.4.75h-.58a1.37,1.37,0,0,1,.58-1.1,2.3,2.3,0,0,1,1.44-.46,2,2,0,0,1,1.4.45,1.57,1.57,0,0,1,.52,1.23v2.5a3.32,3.32,0,0,0,.16,1.15v0Zm-1.84-.42a2,2,0,0,0,1-.28,1.64,1.64,0,0,0,.67-.76V85.86h-1a2.72,2.72,0,0,0-1.37.32,1,1,0,0,0-.49.85.94.94,0,0,0,.33.74A1.2,1.2,0,0,0,117.83,88.06Z"/><path d="M122.22,83.2l0,.86a2,2,0,0,1,.73-.72,2,2,0,0,1,1-.24,1.5,1.5,0,0,1,1.59,1,2,2,0,0,1,.75-.76,2.11,2.11,0,0,1,1-.27c1.13,0,1.71.62,1.73,1.86v3.52h-.58V85a1.62,1.62,0,0,0-.31-1,1.26,1.26,0,0,0-1-.34,1.54,1.54,0,0,0-1.06.41,1.42,1.42,0,0,0-.48,1v3.49h-.59V85a1.42,1.42,0,0,0-.32-1,1.24,1.24,0,0,0-1-.34,1.49,1.49,0,0,0-1,.32,1.82,1.82,0,0,0-.58.93v3.62h-.59V83.2Z"/><path d="M132.6,88.58a2.26,2.26,0,0,1-2.07-1.26,2.86,2.86,0,0,1-.3-1.33v-.21a3.09,3.09,0,0,1,.3-1.37,2.4,2.4,0,0,1,.82-1,2,2,0,0,1,1.14-.35,1.92,1.92,0,0,1,1.53.66,2.71,2.71,0,0,1,.56,1.8v.32h-3.77V86a2.19,2.19,0,0,0,.52,1.5,1.62,1.62,0,0,0,1.29.6,2,2,0,0,0,.83-.17,1.86,1.86,0,0,0,.65-.55l.37.28A2.13,2.13,0,0,1,132.6,88.58Zm-.11-5a1.44,1.44,0,0,0-1.11.49,2.25,2.25,0,0,0-.55,1.29H134v-.06a2,2,0,0,0-.43-1.24A1.37,1.37,0,0,0,132.49,83.6Z"/><path d="M136.28,83.2v.9a2.12,2.12,0,0,1,.75-.74,1.91,1.91,0,0,1,1-.26,1.57,1.57,0,0,1,1.26.48A2.13,2.13,0,0,1,139.7,85v3.46h-.58V85a1.57,1.57,0,0,0-.3-1.05,1.18,1.18,0,0,0-.94-.35,1.52,1.52,0,0,0-1,.34,2,2,0,0,0-.62.92v3.61h-.58V83.2Z"/><path d="M142.12,81.85V83.2h1.09v.48h-1.09V87.2a1.07,1.07,0,0,0,.16.66.61.61,0,0,0,.53.21,3.62,3.62,0,0,0,.47,0l0,.47a1.82,1.82,0,0,1-.63.08,1,1,0,0,1-.87-.35,1.57,1.57,0,0,1-.28-1V83.68h-1V83.2h1V81.85Z"/><path d="M146.47,88.58a2.33,2.33,0,0,1-1.22-.33,2.23,2.23,0,0,1-.84-.93A2.75,2.75,0,0,1,144.1,86v-.21a3.09,3.09,0,0,1,.3-1.37,2.4,2.4,0,0,1,.82-1,2,2,0,0,1,1.14-.35,1.92,1.92,0,0,1,1.53.66,2.71,2.71,0,0,1,.56,1.8v.32h-3.77V86a2.24,2.24,0,0,0,.52,1.5,1.62,1.62,0,0,0,1.29.6,2,2,0,0,0,.83-.17,1.86,1.86,0,0,0,.65-.55l.37.28A2.13,2.13,0,0,1,146.47,88.58Zm-.11-5a1.44,1.44,0,0,0-1.11.49,2.25,2.25,0,0,0-.55,1.29h3.17v-.06a1.92,1.92,0,0,0-.43-1.24A1.36,1.36,0,0,0,146.36,83.6Z"/><path d="M156.27,85.9a3.17,3.17,0,0,1-.55,2,1.73,1.73,0,0,1-1.46.72,2,2,0,0,1-1.66-.76v2.7H152V83.2h.54l0,.75a1.88,1.88,0,0,1,1.65-.85,1.75,1.75,0,0,1,1.49.72,3.25,3.25,0,0,1,.54,2Zm-.59-.11a2.68,2.68,0,0,0-.41-1.59,1.35,1.35,0,0,0-1.16-.59,1.63,1.63,0,0,0-.92.26,1.6,1.6,0,0,0-.59.75v2.54a1.56,1.56,0,0,0,.6.69,1.73,1.73,0,0,0,.92.24,1.33,1.33,0,0,0,1.15-.59A2.92,2.92,0,0,0,155.68,85.79Z"/><path d="M160,83.7a2.6,2.6,0,0,0-.4,0,1.43,1.43,0,0,0-.92.3,1.57,1.57,0,0,0-.54.89v3.62h-.59V83.2h.58V84a1.55,1.55,0,0,1,1.48-.94,1,1,0,0,1,.39.07Z"/><path d="M160.89,81.68a.39.39,0,0,1,.11-.28.37.37,0,0,1,.29-.12.38.38,0,0,1,.3.12.39.39,0,0,1,.11.28.38.38,0,0,1-.41.38A.36.36,0,0,1,161,82,.37.37,0,0,1,160.89,81.68Zm.69,6.8H161V83.2h.58Z"/><path d="M162.85,85.77a3.25,3.25,0,0,1,.29-1.38,2.35,2.35,0,0,1,.84-1,2.28,2.28,0,0,1,1.22-.34,2.2,2.2,0,0,1,1.71.74,2.85,2.85,0,0,1,.65,2v.13a3.1,3.1,0,0,1-.29,1.38,2.19,2.19,0,0,1-2.06,1.27,2.16,2.16,0,0,1-1.71-.74,2.86,2.86,0,0,1-.65-2Zm.58.16a2.42,2.42,0,0,0,.49,1.55,1.57,1.57,0,0,0,1.29.61,1.54,1.54,0,0,0,1.28-.61,2.45,2.45,0,0,0,.49-1.6v-.11a2.65,2.65,0,0,0-.22-1.11,1.76,1.76,0,0,0-.63-.78,1.64,1.64,0,0,0-2.2.34,2.45,2.45,0,0,0-.5,1.6Z"/><path d="M171.21,83.7a2.38,2.38,0,0,0-.39,0,1.44,1.44,0,0,0-.93.3,1.69,1.69,0,0,0-.54.89v3.62h-.58V83.2h.57V84a1.57,1.57,0,0,1,1.49-.94,1,1,0,0,1,.39.07Z"/><path d="M172.1,81.68a.39.39,0,0,1,.11-.28.37.37,0,0,1,.29-.12.41.41,0,0,1,.3.12.39.39,0,0,1,.11.28.37.37,0,0,1-.11.27.4.4,0,0,1-.3.11.36.36,0,0,1-.29-.11A.37.37,0,0,1,172.1,81.68Zm.69,6.8h-.59V83.2h.59Z"/><path d="M174.76,88h3.43v.49H174v-.42l3.2-4.35h-3.1V83.2H178v.44Z"/><path d="M182.57,88.48a3.32,3.32,0,0,1-.11-.73,2.17,2.17,0,0,1-.78.62,2.5,2.5,0,0,1-1,.21,1.77,1.77,0,0,1-1.23-.42,1.38,1.38,0,0,1-.47-1.08,1.41,1.41,0,0,1,.64-1.22,3.08,3.08,0,0,1,1.79-.45h1.06v-.6a1.18,1.18,0,0,0-.35-.89,1.48,1.48,0,0,0-1-.32,1.58,1.58,0,0,0-1,.31.92.92,0,0,0-.4.75h-.59a1.38,1.38,0,0,1,.59-1.1,2.3,2.3,0,0,1,1.44-.46,2,2,0,0,1,1.39.45,1.57,1.57,0,0,1,.53,1.23v2.5a3.09,3.09,0,0,0,.16,1.15v0Zm-1.83-.42a2,2,0,0,0,1-.28,1.7,1.7,0,0,0,.67-.76V85.86h-1.05a2.74,2.74,0,0,0-1.37.32,1,1,0,0,0-.49.85.94.94,0,0,0,.33.74A1.23,1.23,0,0,0,180.74,88.06Z"/><path d="M184.36,85.79a3.17,3.17,0,0,1,.55-2,1.78,1.78,0,0,1,1.49-.73A1.83,1.83,0,0,1,188,84V81h.58v7.5h-.54l0-.7a1.86,1.86,0,0,1-1.65.8,1.75,1.75,0,0,1-1.47-.73,3.22,3.22,0,0,1-.56-2Zm.59.11a2.75,2.75,0,0,0,.41,1.59,1.3,1.3,0,0,0,1.14.58,1.56,1.56,0,0,0,1.53-.95V84.64a1.57,1.57,0,0,0-1.52-1,1.36,1.36,0,0,0-1.15.58A3,3,0,0,0,185,85.9Z"/><path d="M189.83,85.77a3.25,3.25,0,0,1,.29-1.38,2.35,2.35,0,0,1,.84-1,2.31,2.31,0,0,1,1.22-.34,2.17,2.17,0,0,1,1.71.74,2.85,2.85,0,0,1,.66,2v.13a3.11,3.11,0,0,1-.3,1.38,2.24,2.24,0,0,1-.83.94,2.31,2.31,0,0,1-1.23.33,2.13,2.13,0,0,1-1.7-.74,2.82,2.82,0,0,1-.66-2Zm.59.16a2.36,2.36,0,0,0,.49,1.55,1.65,1.65,0,0,0,2.56,0,2.45,2.45,0,0,0,.5-1.6v-.11a2.65,2.65,0,0,0-.23-1.11,1.76,1.76,0,0,0-.63-.78,1.64,1.64,0,0,0-2.2.34,2.45,2.45,0,0,0-.49,1.6Z"/><path d="M198.92,87.14a.85.85,0,0,0-.35-.7,2.9,2.9,0,0,0-1-.41,4.81,4.81,0,0,1-1.1-.34,1.44,1.44,0,0,1-.57-.47,1.16,1.16,0,0,1-.19-.68,1.25,1.25,0,0,1,.52-1,2.14,2.14,0,0,1,1.34-.41,2.19,2.19,0,0,1,1.42.44,1.38,1.38,0,0,1,.53,1.14h-.58a.93.93,0,0,0-.39-.77,1.51,1.51,0,0,0-1-.31,1.57,1.57,0,0,0-.93.26.78.78,0,0,0-.34.66.72.72,0,0,0,.29.62,3.07,3.07,0,0,0,1.06.4,4.94,4.94,0,0,1,1.15.38,1.64,1.64,0,0,1,.57.49,1.33,1.33,0,0,1,.18.7,1.25,1.25,0,0,1-.54,1.07,2.29,2.29,0,0,1-1.41.4,2.4,2.4,0,0,1-1.49-.44,1.4,1.4,0,0,1-.58-1.13h.59a1,1,0,0,0,.43.79,1.79,1.79,0,0,0,1.05.29,1.66,1.66,0,0,0,1-.27A.81.81,0,0,0,198.92,87.14Z"/><path d="M200.76,88.13a.44.44,0,0,1,.11-.29.46.46,0,0,1,.62,0,.44.44,0,0,1,.11.29.38.38,0,0,1-.11.28.49.49,0,0,1-.62,0A.38.38,0,0,1,200.76,88.13Z"/><rect class="cls-14" x="72.23" y="31.83" width="9.34" height="12.57" transform="translate(115.01 -38.78) rotate(90)"/><rect class="cls-14" x="74.75" y="46.24" width="9.34" height="7.52" transform="translate(129.43 -29.42) rotate(90)"/><rect class="cls-14" x="62.69" y="44.02" width="9.34" height="11.96" transform="translate(117.37 -17.36) rotate(90)"/><rect class="cls-14" x="60.09" y="34.74" width="9.34" height="6.76" transform="translate(102.88 -26.65) rotate(90)"/><polyline class="cls-3" points="137.38 209.67 170.95 209.67 170.95 163.39 202.38 163.17"/><text class="cls-15" transform="translate(28.6 213.6)">linha do tempo</text><text class="cls-7" transform="translate(28.61 232.49)">Visão ge<tspan class="cls-10" x="37.57" y="0">r</tspan><tspan x="40.74" y="0">al do his</tspan><tspan class="cls-9" x="77.15" y="0">t</tspan><tspan x="80.27" y="0">órico de atuação </tspan><tspan x="0" y="14">sob</tspan><tspan class="cls-11" x="16.21" y="14">r</tspan><tspan x="19.48" y="14">e os temas moni</tspan><tspan class="cls-9" x="92.46" y="14">t</tspan><tspan x="95.58" y="14">o</tspan><tspan class="cls-10" x="101.18" y="14">r</tspan><tspan x="104.35" y="14">ados.</tspan></text><text class="cls-16" transform="translate(331.17 196.51)">painel gerencial</text><polygon class="cls-17" points="305.38 247.9 305.38 247.9 305.38 262.11 291.73 262.11 291.73 243 300.48 243 305.38 247.9"/><polyline class="cls-17" points="300.48 243 300.48 247.9 305.38 247.9 305.38 247.9"/><line class="cls-3" x1="451.88" y1="163.17" x2="499.38" y2="163.17"/><text class="cls-18" transform="translate(537.46 166.92)">p<tspan class="cls-19" x="8.42" y="0">r</tspan><tspan x="13.35" y="0">e</tspan><tspan class="cls-20" x="21.3" y="0">f</tspan><tspan x="26.33" y="0">e</tspan><tspan class="cls-21" x="34.28" y="0">r</tspan><tspan x="39.22" y="0">ências</tspan></text><path d="M543.4,183.59a2.57,2.57,0,0,1-.81,1.72,2.64,2.64,0,0,1-1.81.6,2.49,2.49,0,0,1-2.34-1.52,4.13,4.13,0,0,1-.34-1.66v-.92a4.06,4.06,0,0,1,.33-1.68,2.6,2.6,0,0,1,1-1.13,2.86,2.86,0,0,1,3.24.22,2.63,2.63,0,0,1,.77,1.7h-.61a1.81,1.81,0,0,0-2-1.81,1.87,1.87,0,0,0-1.54.72,3.15,3.15,0,0,0-.57,2v.87a3.14,3.14,0,0,0,.56,2,1.81,1.81,0,0,0,1.51.73,2,2,0,0,0,1.42-.45,2.2,2.2,0,0,0,.59-1.36Z"/><path d="M544.4,183.09a3,3,0,0,1,.29-1.37,2.23,2.23,0,0,1,.84-.95,2.2,2.2,0,0,1,1.22-.34,2.16,2.16,0,0,1,1.71.74,2.81,2.81,0,0,1,.65,2v.12a3.25,3.25,0,0,1-.29,1.38,2.22,2.22,0,0,1-2.06,1.28,2.2,2.2,0,0,1-1.71-.74,2.9,2.9,0,0,1-.65-2Zm.58.16a2.46,2.46,0,0,0,.49,1.56,1.59,1.59,0,0,0,1.29.6,1.57,1.57,0,0,0,1.28-.6,2.47,2.47,0,0,0,.49-1.61v-.11a2.72,2.72,0,0,0-.22-1.11,1.88,1.88,0,0,0-.63-.78,1.64,1.64,0,0,0-.93-.27,1.54,1.54,0,0,0-1.27.61,2.47,2.47,0,0,0-.5,1.6Z"/><path d="M550.88,180.53l0,.9a2,2,0,0,1,.74-.75,1.91,1.91,0,0,1,1-.25,1.56,1.56,0,0,1,1.26.48,2.11,2.11,0,0,1,.42,1.43v3.47h-.58v-3.47a1.6,1.6,0,0,0-.3-1.06,1.16,1.16,0,0,0-.94-.34,1.47,1.47,0,0,0-1,.34,1.93,1.93,0,0,0-.62.91v3.62h-.58v-5.28Z"/><path d="M556.23,185.81V181h-.87v-.47h.87v-.64a1.78,1.78,0,0,1,.41-1.25,1.52,1.52,0,0,1,1.15-.43,2,2,0,0,1,.62.08l0,.48a2.2,2.2,0,0,0-.53-.06.93.93,0,0,0-.75.31,1.22,1.22,0,0,0-.27.85v.66h1.26V181h-1.26v4.81Z"/><path d="M559.09,179a.37.37,0,0,1,.11-.28.44.44,0,0,1,.58,0,.41.41,0,0,1,0,.56.44.44,0,0,1-.58,0A.37.37,0,0,1,559.09,179Zm.69,6.81h-.59v-5.28h.59Z"/><path d="M561.13,183.12a3.18,3.18,0,0,1,.55-2,1.78,1.78,0,0,1,1.49-.72,1.82,1.82,0,0,1,1.64.86l0-.76h.55v5.17a2.26,2.26,0,0,1-.57,1.62,2,2,0,0,1-1.55.59,2.38,2.38,0,0,1-1-.24,2.07,2.07,0,0,1-.79-.66l.32-.35a1.86,1.86,0,0,0,1.48.76,1.48,1.48,0,0,0,1.14-.43,1.7,1.7,0,0,0,.43-1.2v-.66a1.9,1.9,0,0,1-1.64.78,1.76,1.76,0,0,1-1.47-.74,3.16,3.16,0,0,1-.56-2Zm.59.1a2.73,2.73,0,0,0,.41,1.59,1.31,1.31,0,0,0,1.14.59,1.56,1.56,0,0,0,1.53-1V182a1.76,1.76,0,0,0-.59-.78,1.59,1.59,0,0,0-.93-.26,1.34,1.34,0,0,0-1.15.57A3,3,0,0,0,561.72,183.22Z"/><path d="M570.31,185.14a1.9,1.9,0,0,1-1.69.77,1.65,1.65,0,0,1-1.28-.49,2.21,2.21,0,0,1-.45-1.46v-3.43h.58v3.36c0,1,.41,1.51,1.22,1.51a1.5,1.5,0,0,0,1.61-1.05v-3.82h.59v5.28h-.57Z"/><path d="M574.85,181a2.6,2.6,0,0,0-.4,0,1.38,1.38,0,0,0-.92.31,1.55,1.55,0,0,0-.54.88v3.63h-.59v-5.28H573v.84a1.53,1.53,0,0,1,1.48-.94,1,1,0,0,1,.39.06Z"/><path d="M578.91,185.81a2.51,2.51,0,0,1-.11-.74,2.1,2.1,0,0,1-.79.62,2.48,2.48,0,0,1-1,.22,1.74,1.74,0,0,1-1.23-.43,1.47,1.47,0,0,1,.17-2.29,3.1,3.1,0,0,1,1.79-.45h1.06v-.6a1.15,1.15,0,0,0-.35-.89,1.42,1.42,0,0,0-1-.33,1.66,1.66,0,0,0-1,.31,1,1,0,0,0-.4.76h-.58a1.35,1.35,0,0,1,.58-1.09,2.24,2.24,0,0,1,1.44-.46,2.1,2.1,0,0,1,1.4.44,1.58,1.58,0,0,1,.52,1.23v2.5a3.28,3.28,0,0,0,.16,1.15v.06Zm-1.84-.42a2.06,2.06,0,0,0,1-.28,1.69,1.69,0,0,0,.67-.76v-1.16h-1a2.52,2.52,0,0,0-1.37.32,1,1,0,0,0-.49.85.93.93,0,0,0,.33.74A1.23,1.23,0,0,0,577.07,185.39Z"/><path d="M582.88,185.41a1.56,1.56,0,0,0,1-.34,1.22,1.22,0,0,0,.44-.89h.56a1.58,1.58,0,0,1-.3.88,1.88,1.88,0,0,1-.74.62,2.25,2.25,0,0,1-1,.23,2,2,0,0,1-1.65-.73,2.94,2.94,0,0,1-.6-1.94v-.18a3.33,3.33,0,0,1,.27-1.38,2,2,0,0,1,.78-.92,2.16,2.16,0,0,1,1.2-.33,2,2,0,0,1,1.43.52,1.82,1.82,0,0,1,.6,1.36h-.56a1.39,1.39,0,0,0-.44-1,1.6,1.6,0,0,0-2.26.19,2.58,2.58,0,0,0-.44,1.6v.17a2.56,2.56,0,0,0,.44,1.58A1.45,1.45,0,0,0,582.88,185.41Zm.16.44,0,.32a.78.78,0,0,1,.8.83.82.82,0,0,1-.38.71,1.82,1.82,0,0,1-1,.27l0-.38a1.46,1.46,0,0,0,.71-.16.48.48,0,0,0,.28-.43.4.4,0,0,0-.21-.39,2.08,2.08,0,0,0-.65-.15l.14-.62Z"/><path d="M589.42,185.81a2.82,2.82,0,0,1-.12-.74,2,2,0,0,1-.78.62,2.48,2.48,0,0,1-1,.22,1.72,1.72,0,0,1-1.23-.43,1.35,1.35,0,0,1-.47-1.07,1.4,1.4,0,0,1,.64-1.22,3.08,3.08,0,0,1,1.79-.45h1.06v-.6a1.15,1.15,0,0,0-.35-.89,1.42,1.42,0,0,0-1-.33,1.64,1.64,0,0,0-1,.31.93.93,0,0,0-.4.76h-.59a1.37,1.37,0,0,1,.59-1.09,2.24,2.24,0,0,1,1.44-.46,2.07,2.07,0,0,1,1.39.44,1.56,1.56,0,0,1,.53,1.23v2.5a3.06,3.06,0,0,0,.16,1.15v.06Zm-1.84-.42a2.06,2.06,0,0,0,1-.28,1.75,1.75,0,0,0,.67-.76v-1.16h-1a2.51,2.51,0,0,0-1.36.32,1,1,0,0,0-.5.85,1,1,0,0,0,.33.74A1.28,1.28,0,0,0,587.58,185.39Zm2.23-6.87a1,1,0,0,1-.27.75.91.91,0,0,1-.68.28,1.25,1.25,0,0,1-.73-.26,1.06,1.06,0,0,0-.63-.27.52.52,0,0,0-.38.15.57.57,0,0,0-.16.42h-.43a1,1,0,0,1,.26-.74.91.91,0,0,1,.69-.29,1,1,0,0,1,.4.08l.31.19a2.38,2.38,0,0,0,.3.18.62.62,0,0,0,.34.09.54.54,0,0,0,.39-.17.6.6,0,0,0,.16-.43Z"/><path d="M591.12,183.09a3,3,0,0,1,.29-1.37,2.23,2.23,0,0,1,.84-.95,2.2,2.2,0,0,1,1.22-.34,2.16,2.16,0,0,1,1.71.74,2.86,2.86,0,0,1,.65,2v.12a3.25,3.25,0,0,1-.29,1.38,2.2,2.2,0,0,1-.84.94,2.35,2.35,0,0,1-2.93-.4,2.85,2.85,0,0,1-.65-2Zm.58.16a2.46,2.46,0,0,0,.49,1.56,1.59,1.59,0,0,0,1.29.6,1.57,1.57,0,0,0,1.28-.6,2.47,2.47,0,0,0,.49-1.61v-.11A2.72,2.72,0,0,0,595,182a1.88,1.88,0,0,0-.63-.78,1.64,1.64,0,0,0-.93-.27,1.57,1.57,0,0,0-1.28.61,2.52,2.52,0,0,0-.49,1.6Z"/><path d="M599.24,183.12a3.21,3.21,0,0,1,.54-2,1.78,1.78,0,0,1,1.5-.73,1.85,1.85,0,0,1,1.63.84v-3h.58v7.5h-.55l0-.7a1.91,1.91,0,0,1-1.65.8,1.79,1.79,0,0,1-1.48-.74,3.21,3.21,0,0,1-.55-2Zm.59.1a2.73,2.73,0,0,0,.4,1.59,1.31,1.31,0,0,0,1.14.59,1.59,1.59,0,0,0,1.54-1V182a1.56,1.56,0,0,0-1.53-1,1.32,1.32,0,0,0-1.14.57A2.92,2.92,0,0,0,599.83,183.22Z"/><path d="M607.07,185.91a2.25,2.25,0,0,1-1.22-.34,2.2,2.2,0,0,1-.84-.92,2.8,2.8,0,0,1-.31-1.33v-.21a3,3,0,0,1,.3-1.37,2.34,2.34,0,0,1,.82-1,2,2,0,0,1,1.14-.35,1.93,1.93,0,0,1,1.53.65,2.66,2.66,0,0,1,.56,1.8v.33h-3.77v.11a2.2,2.2,0,0,0,.52,1.49,1.64,1.64,0,0,0,1.3.6,1.8,1.8,0,0,0,.82-.17,1.83,1.83,0,0,0,.66-.54l.36.27A2.12,2.12,0,0,1,607.07,185.91Zm-.11-5a1.49,1.49,0,0,0-1.11.48,2.25,2.25,0,0,0-.55,1.3h3.17v-.07a1.94,1.94,0,0,0-.43-1.24A1.36,1.36,0,0,0,607,180.93Z"/><path d="M612.39,183.12a3.15,3.15,0,0,1,.55-2,1.76,1.76,0,0,1,1.49-.73,1.84,1.84,0,0,1,1.63.84v-3h.58v7.5h-.54l0-.7a1.88,1.88,0,0,1-1.65.8,1.76,1.76,0,0,1-1.47-.74,3.21,3.21,0,0,1-.56-2Zm.59.1a2.73,2.73,0,0,0,.41,1.59,1.31,1.31,0,0,0,1.14.59,1.57,1.57,0,0,0,1.53-1V182a1.55,1.55,0,0,0-1.52-1,1.34,1.34,0,0,0-1.15.57A3,3,0,0,0,613,183.22Z"/><path d="M621.52,185.81a2.82,2.82,0,0,1-.12-.74,2,2,0,0,1-.78.62,2.48,2.48,0,0,1-1,.22,1.72,1.72,0,0,1-1.23-.43,1.35,1.35,0,0,1-.47-1.07,1.4,1.4,0,0,1,.64-1.22,3.08,3.08,0,0,1,1.79-.45h1.06v-.6a1.15,1.15,0,0,0-.35-.89,1.42,1.42,0,0,0-1-.33,1.64,1.64,0,0,0-1,.31.93.93,0,0,0-.4.76H618a1.37,1.37,0,0,1,.59-1.09,2.24,2.24,0,0,1,1.44-.46,2.07,2.07,0,0,1,1.39.44,1.59,1.59,0,0,1,.53,1.23v2.5a3.06,3.06,0,0,0,.16,1.15v.06Zm-1.84-.42a2.06,2.06,0,0,0,1.05-.28,1.75,1.75,0,0,0,.67-.76v-1.16h-1a2.51,2.51,0,0,0-1.36.32,1,1,0,0,0-.5.85,1,1,0,0,0,.33.74A1.28,1.28,0,0,0,619.68,185.39Z"/><path d="M623.3,183.12a3.21,3.21,0,0,1,.55-2,1.77,1.77,0,0,1,1.49-.73,1.83,1.83,0,0,1,1.63.84v-3h.59v7.5H627l0-.7a1.88,1.88,0,0,1-1.65.8,1.77,1.77,0,0,1-1.47-.74,3.21,3.21,0,0,1-.56-2Zm.59.1a2.73,2.73,0,0,0,.41,1.59,1.31,1.31,0,0,0,1.14.59,1.57,1.57,0,0,0,1.53-1V182a1.55,1.55,0,0,0-1.52-1,1.35,1.35,0,0,0-1.15.57A3,3,0,0,0,623.89,183.22Z"/><path d="M628.77,183.09a3,3,0,0,1,.3-1.37,2.14,2.14,0,0,1,.83-.95,2.22,2.22,0,0,1,1.22-.34,2.14,2.14,0,0,1,1.71.74,2.82,2.82,0,0,1,.66,2v.12a3.11,3.11,0,0,1-.3,1.38,2.12,2.12,0,0,1-.83.94,2.23,2.23,0,0,1-1.23.34,2.18,2.18,0,0,1-1.7-.74,2.85,2.85,0,0,1-.66-2Zm.59.16a2.41,2.41,0,0,0,.49,1.56,1.57,1.57,0,0,0,1.28.6,1.59,1.59,0,0,0,1.29-.6,2.53,2.53,0,0,0,.49-1.61v-.11a2.72,2.72,0,0,0-.23-1.11,1.88,1.88,0,0,0-.63-.78,1.64,1.64,0,0,0-.93-.27,1.55,1.55,0,0,0-1.27.61,2.46,2.46,0,0,0-.49,1.6Z"/><path d="M637.86,184.47a.84.84,0,0,0-.35-.7,2.47,2.47,0,0,0-1-.41,4.5,4.5,0,0,1-1.09-.35,1.32,1.32,0,0,1-.58-.47,1.13,1.13,0,0,1-.19-.67,1.27,1.27,0,0,1,.52-1,2.08,2.08,0,0,1,1.34-.41,2.14,2.14,0,0,1,1.42.44,1.38,1.38,0,0,1,.53,1.14h-.58a1,1,0,0,0-.39-.78,1.55,1.55,0,0,0-1-.3,1.52,1.52,0,0,0-.92.25.78.78,0,0,0-.35.67.7.7,0,0,0,.29.61,2.87,2.87,0,0,0,1.06.4,4.87,4.87,0,0,1,1.15.39,1.47,1.47,0,0,1,.57.49,1.28,1.28,0,0,1,.18.7,1.29,1.29,0,0,1-.53,1.07,2.4,2.4,0,0,1-1.41.4,2.35,2.35,0,0,1-1.5-.45,1.37,1.37,0,0,1-.57-1.13H635a1,1,0,0,0,.43.8,1.8,1.8,0,0,0,1.06.28,1.65,1.65,0,0,0,1-.27A.79.79,0,0,0,637.86,184.47Z"/><path d="M646.44,183.22a3.21,3.21,0,0,1-.55,2,1.74,1.74,0,0,1-1.46.73,1.94,1.94,0,0,1-1.66-.77v2.7h-.59v-7.31h.55l0,.74a1.87,1.87,0,0,1,1.65-.84,1.76,1.76,0,0,1,1.49.72,3.23,3.23,0,0,1,.54,2Zm-.59-.1a2.76,2.76,0,0,0-.41-1.6,1.35,1.35,0,0,0-1.16-.58,1.6,1.6,0,0,0-.92.25,1.62,1.62,0,0,0-.59.76v2.53a1.51,1.51,0,0,0,.6.69,1.7,1.7,0,0,0,.92.24,1.32,1.32,0,0,0,1.15-.59A3,3,0,0,0,645.85,183.12Z"/><path d="M649.78,185.91a2.31,2.31,0,0,1-2.07-1.26,2.92,2.92,0,0,1-.3-1.33v-.21a3.17,3.17,0,0,1,.29-1.37,2.36,2.36,0,0,1,.83-1,2,2,0,0,1,1.14-.35,1.94,1.94,0,0,1,1.53.65,2.71,2.71,0,0,1,.56,1.8v.33H648v.11a2.19,2.19,0,0,0,.51,1.49,1.65,1.65,0,0,0,1.3.6,1.84,1.84,0,0,0,.83-.17,1.73,1.73,0,0,0,.65-.54l.37.27A2.13,2.13,0,0,1,649.78,185.91Zm-.11-5a1.46,1.46,0,0,0-1.11.48,2.19,2.19,0,0,0-.55,1.3h3.17v-.07a1.94,1.94,0,0,0-.44-1.24A1.36,1.36,0,0,0,649.67,180.93Z"/><path d="M656.06,184.47a.81.81,0,0,0-.35-.7,2.47,2.47,0,0,0-1.05-.41,4.65,4.65,0,0,1-1.09-.35,1.38,1.38,0,0,1-.58-.47,1.2,1.2,0,0,1-.19-.67,1.25,1.25,0,0,1,.53-1,2.05,2.05,0,0,1,1.33-.41,2.12,2.12,0,0,1,1.42.44,1.39,1.39,0,0,1,.54,1.14H656a1,1,0,0,0-.39-.78,1.78,1.78,0,0,0-1.9,0,.81.81,0,0,0-.35.67.72.72,0,0,0,.29.61,3,3,0,0,0,1.06.4,4.71,4.71,0,0,1,1.15.39,1.4,1.4,0,0,1,.57.49,1.2,1.2,0,0,1,.19.7,1.28,1.28,0,0,1-.54,1.07,2.71,2.71,0,0,1-2.91,0,1.37,1.37,0,0,1-.57-1.13h.58a1,1,0,0,0,.44.8,1.74,1.74,0,0,0,1.05.28,1.68,1.68,0,0,0,1-.27A.78.78,0,0,0,656.06,184.47Z"/><path d="M661.12,184.47a.83.83,0,0,0-.34-.7,2.57,2.57,0,0,0-1.06-.41,4.65,4.65,0,0,1-1.09-.35,1.29,1.29,0,0,1-.57-.47,1.13,1.13,0,0,1-.19-.67,1.24,1.24,0,0,1,.52-1,2.06,2.06,0,0,1,1.34-.41,2.14,2.14,0,0,1,1.42.44,1.41,1.41,0,0,1,.53,1.14h-.58a1,1,0,0,0-.39-.78,1.8,1.8,0,0,0-1.91,0,.81.81,0,0,0-.35.67.72.72,0,0,0,.29.61,3,3,0,0,0,1.06.4,4.82,4.82,0,0,1,1.16.39,1.54,1.54,0,0,1,.57.49,1.37,1.37,0,0,1-.36,1.77,2.69,2.69,0,0,1-2.9,0,1.36,1.36,0,0,1-.58-1.13h.59a1,1,0,0,0,.43.8,1.78,1.78,0,0,0,1,.28,1.66,1.66,0,0,0,1-.27A.78.78,0,0,0,661.12,184.47Z"/><path d="M662.7,183.09a3,3,0,0,1,.3-1.37,2.14,2.14,0,0,1,.83-.95,2.23,2.23,0,0,1,1.23-.34,2.13,2.13,0,0,1,1.7.74,2.82,2.82,0,0,1,.66,2v.12a3.11,3.11,0,0,1-.3,1.38,2.12,2.12,0,0,1-.83.94,2.22,2.22,0,0,1-1.22.34,2.2,2.2,0,0,1-1.71-.74,2.85,2.85,0,0,1-.66-2Zm.59.16a2.41,2.41,0,0,0,.49,1.56,1.68,1.68,0,0,0,2.57,0,2.53,2.53,0,0,0,.49-1.61v-.11a2.72,2.72,0,0,0-.23-1.11,1.88,1.88,0,0,0-.63-.78,1.63,1.63,0,0,0-.92-.27,1.55,1.55,0,0,0-1.28.61,2.46,2.46,0,0,0-.49,1.6Z"/><path d="M672,185.81a2.51,2.51,0,0,1-.11-.74,2.1,2.1,0,0,1-.79.62,2.43,2.43,0,0,1-1,.22,1.77,1.77,0,0,1-1.24-.43,1.39,1.39,0,0,1-.47-1.07,1.42,1.42,0,0,1,.64-1.22,3.1,3.1,0,0,1,1.79-.45h1.06v-.6a1.12,1.12,0,0,0-.35-.89,1.41,1.41,0,0,0-1-.33,1.67,1.67,0,0,0-1,.31,1,1,0,0,0-.4.76h-.58a1.35,1.35,0,0,1,.58-1.09,2.26,2.26,0,0,1,1.44-.46,2.1,2.1,0,0,1,1.4.44,1.58,1.58,0,0,1,.52,1.23v2.5a3.28,3.28,0,0,0,.16,1.15v.06Zm-1.84-.42a2.06,2.06,0,0,0,1-.28,1.69,1.69,0,0,0,.67-.76v-1.16h-1a2.52,2.52,0,0,0-1.37.32,1,1,0,0,0-.49.85,1,1,0,0,0,.33.74A1.25,1.25,0,0,0,670.12,185.39Z"/><path d="M674,179a.4.4,0,0,1,.1-.28.39.39,0,0,1,.3-.11.36.36,0,0,1,.29.11.41.41,0,0,1,0,.56.4.4,0,0,1-.29.11.42.42,0,0,1-.3-.11A.4.4,0,0,1,674,179Zm.69,6.81h-.59v-5.28h.59Z"/><path d="M679.39,184.47a.84.84,0,0,0-.35-.7,2.58,2.58,0,0,0-1-.41,4.76,4.76,0,0,1-1.1-.35,1.29,1.29,0,0,1-.57-.47,1.13,1.13,0,0,1-.19-.67,1.24,1.24,0,0,1,.52-1,2.08,2.08,0,0,1,1.34-.41,2.14,2.14,0,0,1,1.42.44,1.38,1.38,0,0,1,.53,1.14h-.58a1,1,0,0,0-.39-.78,1.8,1.8,0,0,0-1.91,0,.8.8,0,0,0-.34.67.7.7,0,0,0,.29.61,2.87,2.87,0,0,0,1.06.4,4.87,4.87,0,0,1,1.15.39,1.54,1.54,0,0,1,.57.49,1.37,1.37,0,0,1-.36,1.77,2.69,2.69,0,0,1-2.9,0,1.38,1.38,0,0,1-.58-1.13h.59a1,1,0,0,0,.43.8,1.78,1.78,0,0,0,1,.28,1.66,1.66,0,0,0,1-.27A.79.79,0,0,0,679.39,184.47Z"/><path d="M685.76,185.91a2.19,2.19,0,0,1-1.21-.34,2.16,2.16,0,0,1-.85-.92,2.92,2.92,0,0,1-.3-1.33v-.21a3,3,0,0,1,.29-1.37,2.34,2.34,0,0,1,.82-1,2,2,0,0,1,1.15-.35,1.91,1.91,0,0,1,1.52.65,2.66,2.66,0,0,1,.57,1.8v.33H684v.11a2.19,2.19,0,0,0,.51,1.49,1.64,1.64,0,0,0,1.3.6,1.84,1.84,0,0,0,.83-.17,1.89,1.89,0,0,0,.65-.54l.36.27A2.12,2.12,0,0,1,685.76,185.91Zm-.1-5a1.46,1.46,0,0,0-1.11.48,2.13,2.13,0,0,0-.55,1.3h3.16v-.07a1.94,1.94,0,0,0-.43-1.24A1.36,1.36,0,0,0,685.66,180.93Z"/><path d="M542.47,197.22a3.21,3.21,0,0,1-.54,2,1.77,1.77,0,0,1-1.47.73,2,2,0,0,1-1.66-.77v2.7h-.58v-7.31h.54l0,.74a1.88,1.88,0,0,1,1.66-.84,1.75,1.75,0,0,1,1.48.72,3.23,3.23,0,0,1,.54,2Zm-.58-.1a2.69,2.69,0,0,0-.42-1.6,1.33,1.33,0,0,0-1.16-.58,1.65,1.65,0,0,0-.92.25,1.69,1.69,0,0,0-.59.76v2.53a1.51,1.51,0,0,0,.6.69,1.73,1.73,0,0,0,.92.24,1.29,1.29,0,0,0,1.15-.59A2.9,2.9,0,0,0,541.89,197.12Z"/><path d="M546.21,195a2.6,2.6,0,0,0-.4,0,1.38,1.38,0,0,0-.92.31,1.55,1.55,0,0,0-.54.88v3.63h-.58v-5.28h.57v.84a1.54,1.54,0,0,1,1.49-.94,1,1,0,0,1,.38.06Z"/><path d="M549.08,199.91a2.19,2.19,0,0,1-1.21-.34,2.16,2.16,0,0,1-.85-.92,2.92,2.92,0,0,1-.3-1.33v-.21a3,3,0,0,1,.29-1.37,2.34,2.34,0,0,1,.82-1,2,2,0,0,1,1.15-.35,1.91,1.91,0,0,1,1.52.65,2.66,2.66,0,0,1,.57,1.8v.33H547.3v.11a2.19,2.19,0,0,0,.51,1.49,1.65,1.65,0,0,0,1.3.6,1.84,1.84,0,0,0,.83-.17,1.89,1.89,0,0,0,.65-.54l.36.27A2.12,2.12,0,0,1,549.08,199.91Zm-.1-5a1.46,1.46,0,0,0-1.11.48,2.13,2.13,0,0,0-.55,1.3h3.17v-.07a2,2,0,0,0-.44-1.24A1.36,1.36,0,0,0,549,194.93Z"/><path d="M552.62,199.81V195h-.87v-.47h.87v-.64a1.73,1.73,0,0,1,.42-1.25,1.5,1.5,0,0,1,1.15-.43,2.11,2.11,0,0,1,.62.08l0,.48a2.2,2.2,0,0,0-.53-.06.93.93,0,0,0-.75.31,1.22,1.22,0,0,0-.27.85v.66h1.26V195h-1.26v4.81Z"/><path d="M557.44,199.91a2.19,2.19,0,0,1-1.21-.34,2.16,2.16,0,0,1-.85-.92,2.93,2.93,0,0,1-.31-1.33v-.21a3,3,0,0,1,.3-1.37,2.34,2.34,0,0,1,.82-1,2,2,0,0,1,1.15-.35,1.91,1.91,0,0,1,1.52.65,2.66,2.66,0,0,1,.57,1.8v.33h-3.77v.11a2.19,2.19,0,0,0,.51,1.49,1.64,1.64,0,0,0,1.3.6,1.84,1.84,0,0,0,.83-.17,1.89,1.89,0,0,0,.65-.54l.36.27A2.12,2.12,0,0,1,557.44,199.91Zm-.1-5a1.46,1.46,0,0,0-1.11.48,2.13,2.13,0,0,0-.55,1.3h3.16v-.07a1.94,1.94,0,0,0-.43-1.24A1.36,1.36,0,0,0,557.34,194.93Z"/><path d="M563,195a2.38,2.38,0,0,0-.39,0,1.41,1.41,0,0,0-.93.31,1.66,1.66,0,0,0-.54.88v3.63h-.58v-5.28h.57v.84a1.55,1.55,0,0,1,1.49-.94,1,1,0,0,1,.39.06Z"/><path d="M565.88,199.91a2.25,2.25,0,0,1-1.22-.34,2.2,2.2,0,0,1-.84-.92,2.8,2.8,0,0,1-.31-1.33v-.21a3,3,0,0,1,.3-1.37,2.27,2.27,0,0,1,.82-1,2,2,0,0,1,1.14-.35,1.94,1.94,0,0,1,1.53.65,2.71,2.71,0,0,1,.56,1.8v.33h-3.77v.11a2.2,2.2,0,0,0,.52,1.49,1.63,1.63,0,0,0,1.3.6,1.8,1.8,0,0,0,.82-.17,1.73,1.73,0,0,0,.65-.54l.37.27A2.12,2.12,0,0,1,565.88,199.91Zm-.11-5a1.46,1.46,0,0,0-1.11.48,2.25,2.25,0,0,0-.55,1.3h3.17v-.07a1.94,1.94,0,0,0-.43-1.24A1.38,1.38,0,0,0,565.77,194.93Zm1.43-1.31v0h-.54l-.82-.9-.82.9h-.53v-.07l1.16-1.24H566Z"/><path d="M569.56,194.53l0,.9a2.13,2.13,0,0,1,.74-.75,1.93,1.93,0,0,1,1-.25,1.59,1.59,0,0,1,1.27.48,2.22,2.22,0,0,1,.42,1.43v3.47h-.59v-3.47a1.6,1.6,0,0,0-.3-1.06,1.16,1.16,0,0,0-.94-.34,1.47,1.47,0,0,0-1,.34,2,2,0,0,0-.62.91v3.62H569v-5.28Z"/><path d="M576.45,199.41a1.53,1.53,0,0,0,1-.34,1.27,1.27,0,0,0,.45-.89h.56a1.75,1.75,0,0,1-.3.88,2,2,0,0,1-.74.62,2.25,2.25,0,0,1-1,.23,2,2,0,0,1-1.65-.73,2.89,2.89,0,0,1-.61-1.94v-.18a3.33,3.33,0,0,1,.27-1.38,2.11,2.11,0,0,1,.79-.92,2.15,2.15,0,0,1,1.19-.33,2,2,0,0,1,1.43.52,1.87,1.87,0,0,1,.61,1.36h-.56a1.44,1.44,0,0,0-.45-1,1.41,1.41,0,0,0-1-.38,1.47,1.47,0,0,0-1.23.57,2.58,2.58,0,0,0-.43,1.6v.17a2.56,2.56,0,0,0,.43,1.58A1.48,1.48,0,0,0,576.45,199.41Z"/><path d="M579.61,193a.41.41,0,0,1,.11-.28.36.36,0,0,1,.29-.11.39.39,0,0,1,.3.11.41.41,0,0,1,0,.56.42.42,0,0,1-.3.11.4.4,0,0,1-.29-.11A.41.41,0,0,1,579.61,193Zm.69,6.81h-.59v-5.28h.59Z"/><path d="M585.22,199.81a2.9,2.9,0,0,1-.11-.74,2.15,2.15,0,0,1-.78.62,2.51,2.51,0,0,1-1,.22,1.77,1.77,0,0,1-1.24-.43,1.39,1.39,0,0,1-.47-1.07,1.41,1.41,0,0,1,.65-1.22,3,3,0,0,1,1.78-.45h1.06v-.6a1.15,1.15,0,0,0-.34-.89,1.46,1.46,0,0,0-1-.33,1.62,1.62,0,0,0-1,.31.93.93,0,0,0-.4.76h-.59a1.37,1.37,0,0,1,.59-1.09,2.24,2.24,0,0,1,1.44-.46,2.07,2.07,0,0,1,1.39.44,1.59,1.59,0,0,1,.53,1.23v2.5a3.06,3.06,0,0,0,.16,1.15v.06Zm-1.83-.42a2,2,0,0,0,1-.28,1.69,1.69,0,0,0,.67-.76v-1.16h-1a2.55,2.55,0,0,0-1.37.32,1,1,0,0,0-.49.85,1,1,0,0,0,.33.74A1.26,1.26,0,0,0,583.39,199.39Z"/><path d="M590.41,198.47a.84.84,0,0,0-.35-.7,2.58,2.58,0,0,0-1-.41,4.76,4.76,0,0,1-1.1-.35,1.35,1.35,0,0,1-.57-.47,1.13,1.13,0,0,1-.19-.67,1.24,1.24,0,0,1,.52-1,2.08,2.08,0,0,1,1.34-.41,2.14,2.14,0,0,1,1.42.44A1.38,1.38,0,0,1,591,196h-.58a1,1,0,0,0-.39-.78,1.8,1.8,0,0,0-1.91,0,.8.8,0,0,0-.34.67.7.7,0,0,0,.29.61,2.87,2.87,0,0,0,1.06.4,4.87,4.87,0,0,1,1.15.39,1.54,1.54,0,0,1,.57.49,1.37,1.37,0,0,1-.36,1.77,2.69,2.69,0,0,1-2.9,0,1.38,1.38,0,0,1-.58-1.13h.59a1,1,0,0,0,.43.8,1.78,1.78,0,0,0,1,.28,1.66,1.66,0,0,0,1-.27A.79.79,0,0,0,590.41,198.47Z"/><path d="M599,197.22a3.21,3.21,0,0,1-.55,2,1.76,1.76,0,0,1-1.47.73,2,2,0,0,1-1.66-.77v2.7h-.58v-7.31h.55l0,.74a1.9,1.9,0,0,1,1.66-.84,1.76,1.76,0,0,1,1.49.72,3.23,3.23,0,0,1,.54,2Zm-.59-.1a2.76,2.76,0,0,0-.41-1.6,1.35,1.35,0,0,0-1.16-.58,1.6,1.6,0,0,0-.92.25,1.7,1.7,0,0,0-.6.76v2.53a1.51,1.51,0,0,0,.6.69,1.76,1.76,0,0,0,.93.24,1.32,1.32,0,0,0,1.15-.59A3,3,0,0,0,598.4,197.12Z"/><path d="M603.62,199.81a2.82,2.82,0,0,1-.12-.74,2,2,0,0,1-.78.62,2.48,2.48,0,0,1-1,.22,1.72,1.72,0,0,1-1.23-.43,1.35,1.35,0,0,1-.47-1.07,1.4,1.4,0,0,1,.64-1.22,3.08,3.08,0,0,1,1.79-.45h1.06v-.6a1.15,1.15,0,0,0-.35-.89,1.42,1.42,0,0,0-1-.33,1.64,1.64,0,0,0-1,.31.93.93,0,0,0-.4.76h-.59a1.37,1.37,0,0,1,.59-1.09,2.24,2.24,0,0,1,1.44-.46,2.07,2.07,0,0,1,1.39.44,1.59,1.59,0,0,1,.53,1.23v2.5a3.06,3.06,0,0,0,.16,1.15v.06Zm-1.84-.42a2.06,2.06,0,0,0,1.05-.28,1.75,1.75,0,0,0,.67-.76v-1.16h-1a2.49,2.49,0,0,0-1.36.32,1,1,0,0,0-.5.85,1,1,0,0,0,.33.74A1.28,1.28,0,0,0,601.78,199.39Z"/><path d="M608.08,195a2.6,2.6,0,0,0-.4,0,1.38,1.38,0,0,0-.92.31,1.55,1.55,0,0,0-.54.88v3.63h-.58v-5.28h.57v.84a1.54,1.54,0,0,1,1.49-.94,1,1,0,0,1,.38.06Z"/><path d="M612.14,199.81a2.51,2.51,0,0,1-.11-.74,2.1,2.1,0,0,1-.79.62,2.43,2.43,0,0,1-1,.22,1.77,1.77,0,0,1-1.24-.43,1.39,1.39,0,0,1-.47-1.07,1.42,1.42,0,0,1,.64-1.22,3.1,3.1,0,0,1,1.79-.45H612v-.6a1.12,1.12,0,0,0-.35-.89,1.41,1.41,0,0,0-1-.33,1.62,1.62,0,0,0-1,.31.94.94,0,0,0-.41.76h-.58a1.35,1.35,0,0,1,.58-1.09,2.29,2.29,0,0,1,1.45-.46,2.09,2.09,0,0,1,1.39.44,1.58,1.58,0,0,1,.52,1.23v2.5a3,3,0,0,0,.17,1.15v.06Zm-1.84-.42a2,2,0,0,0,1.05-.28,1.69,1.69,0,0,0,.67-.76v-1.16h-1a2.55,2.55,0,0,0-1.37.32,1,1,0,0,0-.49.85,1,1,0,0,0,.33.74A1.25,1.25,0,0,0,610.3,199.39Z"/><path d="M619,195a2.38,2.38,0,0,0-.39,0,1.43,1.43,0,0,0-.93.31,1.66,1.66,0,0,0-.54.88v3.63h-.58v-5.28h.57v.84a1.55,1.55,0,0,1,1.49-.94,1,1,0,0,1,.39.06Z"/><path d="M621.91,199.91a2.25,2.25,0,0,1-1.22-.34,2.2,2.2,0,0,1-.84-.92,2.8,2.8,0,0,1-.31-1.33v-.21a3,3,0,0,1,.3-1.37,2.27,2.27,0,0,1,.82-1,2,2,0,0,1,1.14-.35,1.93,1.93,0,0,1,1.53.65,2.71,2.71,0,0,1,.56,1.8v.33h-3.77v.11a2.2,2.2,0,0,0,.52,1.49,1.63,1.63,0,0,0,1.3.6,1.8,1.8,0,0,0,.82-.17,1.73,1.73,0,0,0,.65-.54l.37.27A2.12,2.12,0,0,1,621.91,199.91Zm-.11-5a1.46,1.46,0,0,0-1.11.48,2.25,2.25,0,0,0-.55,1.3h3.17v-.07a1.94,1.94,0,0,0-.43-1.24A1.38,1.38,0,0,0,621.8,194.93Z"/><path d="M627,199.41a1.56,1.56,0,0,0,1-.34,1.22,1.22,0,0,0,.44-.89H629a1.67,1.67,0,0,1-.31.88,1.88,1.88,0,0,1-.74.62,2.19,2.19,0,0,1-1,.23,2,2,0,0,1-1.64-.73,2.89,2.89,0,0,1-.61-1.94v-.18a3.33,3.33,0,0,1,.27-1.38,2.09,2.09,0,0,1,.78-.92,2.18,2.18,0,0,1,1.2-.33,2,2,0,0,1,1.43.52,1.87,1.87,0,0,1,.61,1.36h-.57a1.39,1.39,0,0,0-.44-1,1.43,1.43,0,0,0-1-.38,1.46,1.46,0,0,0-1.23.57,2.58,2.58,0,0,0-.44,1.6v.17a2.56,2.56,0,0,0,.44,1.58A1.45,1.45,0,0,0,627,199.41Z"/><path d="M632.23,199.91a2.22,2.22,0,0,1-1.22-.34,2.29,2.29,0,0,1-.85-.92,2.92,2.92,0,0,1-.3-1.33v-.21a3,3,0,0,1,.3-1.37,2.27,2.27,0,0,1,.82-1,2,2,0,0,1,1.14-.35,1.94,1.94,0,0,1,1.53.65,2.71,2.71,0,0,1,.56,1.8v.33h-3.77v.11a2.15,2.15,0,0,0,.52,1.49,1.62,1.62,0,0,0,1.29.6,1.81,1.81,0,0,0,.83-.17,1.73,1.73,0,0,0,.65-.54l.37.27A2.12,2.12,0,0,1,632.23,199.91Zm-.11-5a1.46,1.46,0,0,0-1.11.48,2.25,2.25,0,0,0-.55,1.3h3.17v-.07a2,2,0,0,0-.43-1.24A1.39,1.39,0,0,0,632.12,194.93Z"/><path d="M639.6,197.22a3.15,3.15,0,0,1-.55,2,1.75,1.75,0,0,1-1.47.73,1.92,1.92,0,0,1-1.67-.82l0,.72h-.55v-7.5h.58v3a1.87,1.87,0,0,1,1.65-.86,1.79,1.79,0,0,1,1.49.71,3.25,3.25,0,0,1,.54,2Zm-.58-.1a2.77,2.77,0,0,0-.41-1.62,1.33,1.33,0,0,0-1.14-.56,1.61,1.61,0,0,0-1,.27,1.73,1.73,0,0,0-.6.81v2.38a1.58,1.58,0,0,0,1.56,1,1.31,1.31,0,0,0,1.13-.57A3,3,0,0,0,639,197.12Z"/><path d="M640.86,193a.4.4,0,0,1,.1-.28.37.37,0,0,1,.3-.11.36.36,0,0,1,.29.11.41.41,0,0,1,0,.56.4.4,0,0,1-.29.11.41.41,0,0,1-.3-.11A.4.4,0,0,1,640.86,193Zm.68,6.81H641v-5.28h.58Z"/><path d="M643.66,194.53l0,.86a1.94,1.94,0,0,1,1.71-1,1.48,1.48,0,0,1,1.59,1,2,2,0,0,1,.76-.76,2.14,2.14,0,0,1,1-.26c1.13,0,1.71.62,1.73,1.85v3.53h-.58v-3.48a1.57,1.57,0,0,0-.31-1.05,1.23,1.23,0,0,0-1-.34,1.53,1.53,0,0,0-1.06.4,1.44,1.44,0,0,0-.48,1v3.5h-.59v-3.53a1.42,1.42,0,0,0-.32-1,1.28,1.28,0,0,0-1-.33,1.49,1.49,0,0,0-1,.31,1.87,1.87,0,0,0-.58.94v3.62h-.59v-5.28Z"/><path d="M654,199.91a2.22,2.22,0,0,1-1.22-.34,2.29,2.29,0,0,1-.85-.92,2.92,2.92,0,0,1-.3-1.33v-.21a3,3,0,0,1,.3-1.37,2.27,2.27,0,0,1,.82-1,2,2,0,0,1,1.14-.35,1.94,1.94,0,0,1,1.53.65,2.71,2.71,0,0,1,.56,1.8v.33h-3.77v.11a2.15,2.15,0,0,0,.52,1.49,1.62,1.62,0,0,0,1.29.6,1.81,1.81,0,0,0,.83-.17,1.73,1.73,0,0,0,.65-.54l.37.27A2.12,2.12,0,0,1,654,199.91Zm-.11-5a1.46,1.46,0,0,0-1.11.48,2.25,2.25,0,0,0-.55,1.3h3.17v-.07a2,2,0,0,0-.43-1.24A1.39,1.39,0,0,0,653.93,194.93Z"/><path d="M657.72,194.53l0,.9a2,2,0,0,1,.74-.75,1.91,1.91,0,0,1,1-.25,1.56,1.56,0,0,1,1.26.48,2.11,2.11,0,0,1,.42,1.43v3.47h-.58v-3.47a1.6,1.6,0,0,0-.3-1.06,1.16,1.16,0,0,0-.94-.34,1.47,1.47,0,0,0-1,.34,1.93,1.93,0,0,0-.62.91v3.62h-.58v-5.28Z"/><path d="M663.56,193.17v1.36h1.1V195h-1.1v3.53a1.06,1.06,0,0,0,.16.65.6.6,0,0,0,.53.22,4,4,0,0,0,.47-.05l0,.47a1.79,1.79,0,0,1-.63.09,1,1,0,0,1-.87-.35,1.69,1.69,0,0,1-.27-1V195h-1v-.47h1v-1.36Z"/><path d="M665.45,197.09a3,3,0,0,1,.29-1.37,2.23,2.23,0,0,1,.84-.95,2.2,2.2,0,0,1,1.22-.34,2.16,2.16,0,0,1,1.71.74,2.81,2.81,0,0,1,.65,2v.12a3.25,3.25,0,0,1-.29,1.38,2.2,2.2,0,0,1-.84.94,2.35,2.35,0,0,1-2.93-.4,2.85,2.85,0,0,1-.65-2Zm.58.16a2.46,2.46,0,0,0,.49,1.56,1.59,1.59,0,0,0,1.29.6,1.57,1.57,0,0,0,1.28-.6,2.47,2.47,0,0,0,.49-1.61v-.11a2.72,2.72,0,0,0-.22-1.11,1.88,1.88,0,0,0-.63-.78,1.64,1.64,0,0,0-.93-.27,1.54,1.54,0,0,0-1.27.61,2.47,2.47,0,0,0-.5,1.6Z"/><path d="M538,211.12a3.15,3.15,0,0,1,.55-2,1.76,1.76,0,0,1,1.49-.73,1.84,1.84,0,0,1,1.63.84v-3h.58v7.5h-.54l0-.7a1.88,1.88,0,0,1-1.65.8,1.76,1.76,0,0,1-1.47-.74,3.21,3.21,0,0,1-.56-2Zm.59.1a2.73,2.73,0,0,0,.41,1.59,1.31,1.31,0,0,0,1.14.59,1.57,1.57,0,0,0,1.53-1V210a1.55,1.55,0,0,0-1.52-1,1.34,1.34,0,0,0-1.15.57A3,3,0,0,0,538.58,211.22Z"/><path d="M545.83,213.91a2.31,2.31,0,0,1-2.07-1.26,2.92,2.92,0,0,1-.3-1.33v-.21a3.17,3.17,0,0,1,.29-1.37,2.36,2.36,0,0,1,.83-1,2,2,0,0,1,1.14-.35,1.94,1.94,0,0,1,1.53.65,2.71,2.71,0,0,1,.56,1.8v.33H544v.11a2.19,2.19,0,0,0,.51,1.49,1.65,1.65,0,0,0,1.3.6,1.84,1.84,0,0,0,.83-.17,1.73,1.73,0,0,0,.65-.54l.37.27A2.13,2.13,0,0,1,545.83,213.91Zm-.11-5a1.46,1.46,0,0,0-1.11.48,2.19,2.19,0,0,0-.55,1.3h3.17v-.07a1.94,1.94,0,0,0-.44-1.24A1.36,1.36,0,0,0,545.72,208.93Z"/><path d="M554.71,213.81a3.43,3.43,0,0,1-.11-.74,2.07,2.07,0,0,1-.78.62,2.51,2.51,0,0,1-1,.22,1.72,1.72,0,0,1-1.23-.43,1.35,1.35,0,0,1-.47-1.07,1.4,1.4,0,0,1,.64-1.22,3.08,3.08,0,0,1,1.79-.45h1.06v-.6a1.15,1.15,0,0,0-.35-.89,1.44,1.44,0,0,0-1-.33,1.64,1.64,0,0,0-1,.31.93.93,0,0,0-.4.76h-.59a1.37,1.37,0,0,1,.59-1.09,2.24,2.24,0,0,1,1.44-.46,2.07,2.07,0,0,1,1.39.44,1.59,1.59,0,0,1,.53,1.23v2.5a3.06,3.06,0,0,0,.16,1.15v.06Zm-1.83-.42a2.06,2.06,0,0,0,1-.28,1.75,1.75,0,0,0,.67-.76v-1.16h-1.05a2.55,2.55,0,0,0-1.37.32,1,1,0,0,0-.16,1.59A1.28,1.28,0,0,0,552.88,213.39Z"/><path d="M557.39,213.81h-.59v-7.5h.59Z"/><path d="M561,213.91a2.25,2.25,0,0,1-1.22-.34,2.2,2.2,0,0,1-.84-.92,2.8,2.8,0,0,1-.31-1.33v-.21a3,3,0,0,1,.3-1.37,2.34,2.34,0,0,1,.82-1,2,2,0,0,1,1.14-.35,1.93,1.93,0,0,1,1.53.65,2.66,2.66,0,0,1,.56,1.8v.33h-3.76v.11a2.19,2.19,0,0,0,.51,1.49,1.64,1.64,0,0,0,1.3.6,1.8,1.8,0,0,0,.82-.17,1.83,1.83,0,0,0,.66-.54l.36.27A2.12,2.12,0,0,1,561,213.91Zm-.11-5a1.49,1.49,0,0,0-1.11.48,2.25,2.25,0,0,0-.55,1.3h3.17v-.07a1.94,1.94,0,0,0-.43-1.24A1.36,1.36,0,0,0,560.91,208.93Z"/><path d="M566.58,209a2.38,2.38,0,0,0-.39,0,1.41,1.41,0,0,0-.93.31,1.66,1.66,0,0,0-.54.88v3.63h-.58v-5.28h.57v.84a1.55,1.55,0,0,1,1.49-.94,1,1,0,0,1,.39.06Z"/><path d="M568.66,207.17v1.36h1.09V209h-1.09v3.53a1.06,1.06,0,0,0,.16.65.59.59,0,0,0,.53.22,4.18,4.18,0,0,0,.47-.05l0,.47a1.83,1.83,0,0,1-.63.09,1,1,0,0,1-.87-.35,1.62,1.62,0,0,1-.28-1V209h-1v-.47h1v-1.36Z"/><path d="M574.3,213.81a2.51,2.51,0,0,1-.11-.74,2.1,2.1,0,0,1-.79.62,2.48,2.48,0,0,1-1,.22,1.76,1.76,0,0,1-1.23-.43,1.47,1.47,0,0,1,.17-2.29,3.1,3.1,0,0,1,1.79-.45h1.06v-.6a1.12,1.12,0,0,0-.35-.89,1.42,1.42,0,0,0-1-.33,1.66,1.66,0,0,0-1,.31,1,1,0,0,0-.4.76h-.58a1.35,1.35,0,0,1,.58-1.09,2.24,2.24,0,0,1,1.44-.46,2.1,2.1,0,0,1,1.4.44,1.58,1.58,0,0,1,.52,1.23v2.5a3.28,3.28,0,0,0,.16,1.15v.06Zm-1.84-.42a2.06,2.06,0,0,0,1-.28,1.69,1.69,0,0,0,.67-.76v-1.16h-1a2.52,2.52,0,0,0-1.37.32,1,1,0,0,0-.49.85,1,1,0,0,0,.33.74A1.23,1.23,0,0,0,572.46,213.39Z"/><path d="M579.48,212.47a.81.81,0,0,0-.35-.7,2.47,2.47,0,0,0-1-.41A4.65,4.65,0,0,1,577,211a1.29,1.29,0,0,1-.57-.47,1.13,1.13,0,0,1-.19-.67,1.24,1.24,0,0,1,.52-1,2.06,2.06,0,0,1,1.34-.41,2.14,2.14,0,0,1,1.42.44A1.41,1.41,0,0,1,580,210h-.59a1,1,0,0,0-.38-.78,1.8,1.8,0,0,0-1.91,0,.81.81,0,0,0-.35.67.72.72,0,0,0,.29.61,3,3,0,0,0,1.06.4,4.82,4.82,0,0,1,1.16.39,1.43,1.43,0,0,1,.56.49,1.2,1.2,0,0,1,.19.7,1.28,1.28,0,0,1-.54,1.07,2.36,2.36,0,0,1-1.41.4,2.39,2.39,0,0,1-1.5-.45,1.37,1.37,0,0,1-.57-1.13h.59a1,1,0,0,0,.43.8,1.76,1.76,0,0,0,1,.28,1.66,1.66,0,0,0,1-.27A.78.78,0,0,0,579.48,212.47Z"/><path d="M581.33,213.46a.42.42,0,0,1,.11-.29.39.39,0,0,1,.3-.12.4.4,0,0,1,.31.12.38.38,0,0,1,.11.29.37.37,0,0,1-.11.28.43.43,0,0,1-.31.11.42.42,0,0,1-.3-.11A.41.41,0,0,1,581.33,213.46Z"/><path class="cls-22" d="M16.73,228.86V242"/><path class="cls-22" d="M16.73,209.51v13.21"/><path class="cls-22" d="M16.75,202.8a3.38,3.38,0,1,1-3.37,3.38,3.37,3.37,0,0,1,3.37-3.38Z"/><path class="cls-22" d="M16.75,222.37a3.37,3.37,0,1,1-3.37,3.37,3.37,3.37,0,0,1,3.37-3.37Z"/><path class="cls-22" d="M16.75,241.93a3.37,3.37,0,1,1-3.37,3.37,3.37,3.37,0,0,1,3.37-3.37Z"/><circle class="cls-23" cx="517.54" cy="166.17" r="3.02"/><path class="cls-23" d="M525.59,167.25l2.45,1a10.86,10.86,0,0,1-1.6,3.85l-2.45-1a8.16,8.16,0,0,1-1.52,1.53l1,2.45a10.51,10.51,0,0,1-1.85,1,9.6,9.6,0,0,1-2,.61l-1-2.45a7.73,7.73,0,0,1-1.08.07,7.64,7.64,0,0,1-1.08-.07l-1,2.45a10.66,10.66,0,0,1-3.85-1.59l1-2.45a7.92,7.92,0,0,1-1.53-1.53l-2.45,1a10.87,10.87,0,0,1-1-1.85,10,10,0,0,1-.61-2l2.45-1a7.64,7.64,0,0,1-.07-1.08,7.83,7.83,0,0,1,.07-1.08l-2.45-1a10.59,10.59,0,0,1,1.59-3.85l2.45,1a7.92,7.92,0,0,1,1.53-1.53l-1-2.45a9.93,9.93,0,0,1,1.85-1,11.47,11.47,0,0,1,2-.61l1,2.45a9.48,9.48,0,0,1,1.08-.07,9.63,9.63,0,0,1,1.08.07l1-2.45a10.79,10.79,0,0,1,3.85,1.6l-1,2.45a8.16,8.16,0,0,1,1.52,1.53l2.45-1a9.93,9.93,0,0,1,1,1.85,11,11,0,0,1,.61,2l-2.45,1a9.79,9.79,0,0,1,.07,1.08A9.48,9.48,0,0,1,525.59,167.25Z"/></svg>