<?xml version="1.0" encoding="utf-8"?>
<!-- Generator: Adobe Illustrator 24.1.1, SVG Export Plug-In . SVG Version: 6.00 Build 0)  -->
<svg version="1.1" id="Camada_1" xmlns="http://www.w3.org/2000/svg" xmlns:xlink="http://www.w3.org/1999/xlink" x="0px" y="0px"
	 viewBox="0 0 382 58" style="enable-background:new 0 0 382 58;" xml:space="preserve">
<style type="text/css">
	.st0{fill:#FFFFFF;}
	.st1{fill:#FDA300;stroke:#20334A;stroke-width:10;stroke-miterlimit:10;}
	.st2{fill:#20334A;}
	.st3{fill:#73CBE0;}
	.st4{fill:#FFFFFF;stroke:#DEDEDE;stroke-width:7;stroke-linecap:round;stroke-linejoin:round;stroke-miterlimit:10;}
	.st5{fill:#282826;}
	.st6{fill:#AAB5C7;}
	.st7{fill:none;stroke:#20334A;stroke-width:3;stroke-linecap:round;stroke-linejoin:round;stroke-miterlimit:10;}
	.st8{fill:none;stroke:#20334A;stroke-width:3;stroke-linecap:round;stroke-linejoin:round;}
	.st9{fill:#D8D5D5;}
	.st10{fill:#2866AD;}
	.st11{fill:#FDA300;}
	.st12{fill:#6DCDD9;}
	.st13{fill:#F95000;}
	.st14{fill:#D8D5D5;stroke:#20334A;stroke-width:3;stroke-linecap:round;stroke-linejoin:round;stroke-miterlimit:10;}
	.st15{fill:#FFFFFF;stroke:#20334A;stroke-width:3;stroke-linecap:round;stroke-linejoin:round;stroke-miterlimit:10;}
	.st16{fill:#FDA300;stroke:#20334A;stroke-width:3;stroke-linecap:round;stroke-linejoin:round;stroke-miterlimit:10;}
	.st17{fill:#2866AD;stroke:#20334A;stroke-width:3;stroke-linecap:round;stroke-linejoin:round;}
	.st18{fill:#FFA727;}
	.st19{fill:#F3F0F0;}
	.st20{fill:#F5A015;}
	.st21{fill:#72C6D3;}
	.st22{fill:#41AA7D;}
	.st23{fill:#FFFFFF;stroke:#20334A;stroke-width:3;stroke-miterlimit:10;}
	.st24{fill:#41AA7D;stroke:#20334A;stroke-width:3;stroke-linecap:round;stroke-linejoin:round;stroke-miterlimit:10;}
	.st25{fill:none;stroke:#20334A;stroke-width:3;stroke-linecap:round;stroke-miterlimit:10;}
	.st26{fill:none;stroke:#20334A;stroke-width:3;stroke-miterlimit:10;}
	.st27{fill:none;stroke:#1F344B;stroke-width:3;stroke-miterlimit:10;}
	.st28{fill:#A7CCC3;}
	.st29{fill:#41AA7D;stroke:#20334A;stroke-width:3;stroke-linecap:round;stroke-miterlimit:10;}
	.st30{fill:#AAB5C7;stroke:#20334A;stroke-width:3;stroke-linecap:round;stroke-miterlimit:10;}
	.st31{fill:#E8521A;stroke:#20334A;stroke-width:3;stroke-miterlimit:10;}
	.st32{fill:#04A239;stroke:#20334A;stroke-width:3;stroke-linecap:round;stroke-linejoin:round;stroke-miterlimit:10;}
	.st33{fill:#FDB128;}
	.st34{fill:#6DCDD9;stroke:#20334A;stroke-width:3;stroke-linecap:round;stroke-linejoin:round;stroke-miterlimit:10;}
	.st35{fill:#F95000;stroke:#20334A;stroke-width:3;stroke-linecap:round;stroke-linejoin:round;stroke-miterlimit:10;}
	.st36{fill:#336CAF;stroke:#20334A;stroke-width:3;stroke-linecap:round;stroke-linejoin:round;stroke-miterlimit:10;}
	.st37{fill:#336CAF;}
	.st38{fill:#22B573;stroke:#20334A;stroke-width:3;stroke-linecap:round;stroke-linejoin:round;stroke-miterlimit:10;}
	.st39{fill:#F2F2F2;stroke:#20334A;stroke-width:3;stroke-miterlimit:10;}
	.st40{fill:#C9C9C9;}
	.st41{fill:#22344A;}
	.st42{fill:#2A66AE;}
	.st43{fill:#138897;}
	.st44{fill:none;stroke:#22344A;stroke-width:3;stroke-miterlimit:10;}
	.st45{fill:none;stroke:#22344A;stroke-width:3;stroke-linecap:round;stroke-linejoin:round;stroke-miterlimit:10;}
	.st46{fill:#F6A217;}
	.st47{fill:#F2BF59;}
	.st48{fill:#BBBA57;}
	.st49{fill:#42A873;}
	.st50{fill:#FA6450;}
	.st51{fill:#EB615C;}
	.st52{fill:#9751CE;}
	.st53{fill:#A88FCC;}
	.st54{fill:#6786E8;}
	.st55{fill:#95D861;}
	.st56{fill:#1E1E4D;}
	.st57{fill:#78CECA;}
	.st58{fill:#E73C1F;}
	.st59{fill:#61B5BC;}
	.st60{fill:#6ECCD9;}
	.st61{clip-path:url(#SVGID_2_);fill:#6ECCD9;}
	.st62{clip-path:url(#SVGID_4_);fill:#F59E26;}
	.st63{clip-path:url(#SVGID_6_);fill:#40AB91;}
	.st64{clip-path:url(#SVGID_8_);fill:#F57333;}
	.st65{clip-path:url(#SVGID_10_);fill:#12293B;}
	.st66{fill:#A5CBC1;}
	.st67{fill:#8481A3;}
	.st68{fill:#FFFFFF;stroke:#20334A;stroke-width:10;stroke-miterlimit:10;}
	.st69{fill:none;stroke:#F3F0F0;stroke-width:4;stroke-linecap:square;stroke-linejoin:round;stroke-miterlimit:10;}
	.st70{fill:#FFFFFF;stroke:#000000;stroke-width:6;stroke-linecap:round;stroke-linejoin:round;}
	.st71{fill:#E73C1F;stroke:#000000;stroke-width:6;stroke-miterlimit:10;}
	.st72{fill:#40AB91;}
	.st73{fill:#FFFFFF;stroke:#FFFFFF;stroke-miterlimit:10;}
	.st74{fill:#FFFFFF;stroke:#20334A;stroke-width:6;stroke-linecap:round;stroke-linejoin:round;}
	.st75{fill:#E73C1F;stroke:#20334A;stroke-width:6;stroke-miterlimit:10;}
	.st76{fill:none;stroke:#20334A;stroke-width:10;stroke-miterlimit:10;}
	.st77{fill:#677080;}
	.st78{fill:#11293B;}
	.st79{fill:#5D89C4;}
	.st80{fill:#FDA400;}
	.st81{fill:#3E4F6B;}
	.st82{fill:#FFA21A;}
	.st83{fill:#BDBD54;}
</style>
<g id="XMLID_20_">
	<g id="XMLID_34_">
		<path id="XMLID_46_" class="st41" d="M359.75,43.16v-5.43h6.9c1.03,0,1.87-0.08,2.53-0.25c0.65-0.17,1.17-0.44,1.55-0.81
			c0.38-0.38,0.64-0.86,0.79-1.44c0.15-0.59,0.23-1.3,0.23-2.13V14.65h6.35v18.73c0,1.81-0.17,3.34-0.52,4.58
			c-0.35,1.24-0.94,2.24-1.78,3.01c-0.84,0.77-1.96,1.32-3.36,1.67c-1.41,0.35-3.17,0.52-5.29,0.52H359.75z"/>
		<path id="XMLID_43_" class="st41" d="M353.53,23.66c0-0.75-0.08-1.36-0.25-1.83c-0.17-0.47-0.44-0.83-0.83-1.08
			c-0.39-0.25-0.93-0.42-1.62-0.5c-0.69-0.08-1.55-0.12-2.58-0.12h-15.5v8.65h15.5c1.03,0,1.88-0.04,2.56-0.12
			c0.68-0.08,1.22-0.25,1.62-0.5c0.4-0.25,0.69-0.61,0.85-1.08c0.17-0.47,0.25-1.09,0.25-1.87V23.66z M349.33,43.16l-16.59-10.31
			v10.31h-6.28V14.81h22.2c2,0,3.7,0.12,5.11,0.37c1.41,0.25,2.57,0.69,3.47,1.33c0.9,0.64,1.56,1.51,1.97,2.62
			c0.42,1.11,0.62,2.51,0.62,4.2v1.95c0,1.64-0.22,2.99-0.67,4.05c-0.44,1.07-1.13,1.91-2.06,2.54c-0.93,0.62-2.1,1.06-3.51,1.31
			c-1.41,0.25-3.09,0.37-5.03,0.37h-4.99l16.63,9.6H349.33z"/>
		<path id="XMLID_36_" class="st41" d="M319,24.2c0-1.52-0.33-2.56-0.98-3.12c-0.65-0.56-1.82-0.83-3.51-0.83H298.3v9.68h16.29
			c1.66,0,2.81-0.26,3.45-0.77c0.64-0.51,0.96-1.52,0.96-3.01V24.2z M298.3,35.05v8.11h-6.32V14.81h22.7c2.02,0,3.71,0.16,5.07,0.48
			c1.36,0.32,2.45,0.85,3.28,1.58c0.83,0.73,1.42,1.68,1.77,2.85c0.35,1.16,0.52,2.58,0.52,4.24v2.45c0,1.69-0.17,3.09-0.5,4.2
			c-0.33,1.11-0.91,2-1.72,2.66c-0.82,0.66-1.91,1.13-3.26,1.39c-1.36,0.26-3.08,0.4-5.15,0.4H298.3z"/>
		<path id="XMLID_35_" class="st41" d="M284.05,43.15V24.36l-13.94,18.21c-0.64,0.81-1.58,1.21-2.8,1.21c-1.23,0-2.16-0.4-2.8-1.21
			l-13.9-18.21v18.79h-5.78V16.57c0-0.89,0.33-1.55,0.98-1.97c0.66-0.42,1.47-0.63,2.45-0.63c0.75,0,1.35,0.1,1.8,0.31
			c0.45,0.21,0.85,0.55,1.21,1.02l16.11,21.39l16.24-21.39c0.36-0.47,0.75-0.82,1.15-1.02c0.4-0.21,0.97-0.31,1.69-0.31
			c0.98,0,1.79,0.21,2.45,0.63c0.66,0.42,0.98,1.07,0.98,1.97v26.58H284.05z"/>
	</g>
	<rect id="XMLID_33_" x="228.07" y="3.71" class="st41" width="1.17" height="50.48"/>
	<g id="XMLID_21_">
		<path id="XMLID_31_" class="st41" d="M22.97,5.04h10.09l23.32,29.98V5.04h10.8v48.44h-9.31l-24.1-30.97v30.97H22.97V5.04z"/>
		<path id="XMLID_29_" class="st41" d="M125.26,5.04h11.93l12.84,33.94l12.84-33.94h11.65L154.67,53.2h-9.54L125.26,5.04z"/>
		<path id="XMLID_27_" class="st41" d="M213.97,53.2h-11.93L189.2,19.26L176.36,53.2h-11.65l19.86-48.16h9.54L213.97,53.2z"/>
		<rect id="XMLID_26_" x="3.89" y="5.04" class="st41" width="10.95" height="48.44"/>
		<path id="XMLID_25_" class="st42" d="M104.85,29c0,2.77-2.25,5.01-5.01,5.01c-2.77,0-5.01-2.24-5.01-5.01
			c0-2.77,2.25-5.01,5.01-5.01C102.6,23.99,104.85,26.23,104.85,29z"/>
		<path id="XMLID_22_" class="st42" d="M99.84,2.12C84.99,2.12,72.96,14.16,72.96,29c0,14.84,12.03,26.88,26.87,26.88
			c14.84,0,26.87-12.04,26.87-26.88C126.71,14.16,114.68,2.12,99.84,2.12z M99.84,45.68c-9.21,0-16.67-7.47-16.67-16.68
			c0-9.2,7.46-16.67,16.67-16.67s16.67,7.47,16.67,16.67C116.51,38.21,109.05,45.68,99.84,45.68z"/>
	</g>
</g>
</svg>
