<svg id="Camada_1" data-name="Camada 1" xmlns="http://www.w3.org/2000/svg" viewBox="0 0 312 316"><defs><style>.cls-1,.cls-4{fill:none;}.cls-1{stroke:#e6e6e6;stroke-miterlimit:10;stroke-width:6px;}.cls-2{fill:#d8d5d5;}.cls-3{fill:#2866ad;}.cls-4{stroke:#20334a;stroke-linecap:round;stroke-linejoin:round;stroke-width:4px;}</style></defs><circle class="cls-1" cx="156.94" cy="157.66" r="139.01"/><path class="cls-2" d="M239.55,224.33c2.71,2.69,1.59,8.17-3.09,12.86s-10.17,5.8-12.86,3.09l-.25-.26-46.57-49.61c-1.5-1.5-1.61-4-.33-6.65l6.58-6.58c2.65-1.29,5.16-1.18,6.66.32l49.6,46.58Z"/><polygon class="cls-2" points="183.03 177.17 176.44 183.76 170.29 177.6 173.45 174.44 173.72 174.17 176.87 171.02 183.03 177.17"/><path class="cls-3" d="M173.57,90.87a59,59,0,0,1,.15,83.3l-.27.27a59,59,0,1,1,.12-83.57Zm-15.82,67.61a36.61,36.61,0,1,0-51.77,0A36.61,36.61,0,0,0,157.75,158.48Z"/><path class="cls-3" d="M139.64,124.8a11,11,0,1,1-15.55,0A11,11,0,0,1,139.64,124.8Z"/><path class="cls-4" d="M139.64,124.8a11,11,0,1,1-15.55,0A11,11,0,0,1,139.64,124.8Z"/><path class="cls-4" d="M173.72,174.17a59,59,0,1,0-.27.27"/><path class="cls-4" d="M157.75,158.48a36.61,36.61,0,1,1,0-51.78A36.61,36.61,0,0,1,157.75,158.48Z"/><path class="cls-4" d="M236.46,237.19c-4.68,4.68-10.17,5.8-12.86,3.09l-.25-.26-46.57-49.61c-1.5-1.5-1.61-4-.33-6.65l6.58-6.58c2.65-1.29,5.16-1.18,6.66.32l49.6,46.58.26.25C242.26,227,241.14,232.5,236.46,237.19Z"/><polyline class="cls-4" points="176.45 183.76 176.44 183.76 170.29 177.6 173.45 174.44 173.72 174.17 176.87 171.02 183.03 177.17 176.44 183.76"/></svg>