<svg id="Camada_1" data-name="Camada 1" xmlns="http://www.w3.org/2000/svg" viewBox="0 0 312 316"><defs><style>.cls-1,.cls-4{fill:none;}.cls-1{stroke:#e6e6e6;stroke-miterlimit:10;stroke-width:6px;}.cls-2{fill:#fda300;}.cls-3{fill:#fdb93f;}.cls-4{stroke:#20334a;stroke-linecap:round;stroke-linejoin:round;stroke-width:4px;}</style></defs><circle class="cls-1" cx="156.94" cy="157.66" r="139.01"/><polygon class="cls-2" points="217.69 138.76 217.69 208.91 156.94 243.99 156.94 173.83 217.69 138.76"/><polygon class="cls-3" points="217.69 138.76 156.94 173.83 96.18 138.76 156.94 103.68 217.69 138.76"/><polygon class="cls-2" points="156.94 173.83 156.94 243.99 96.18 208.91 96.18 138.76 156.94 173.83"/><polygon class="cls-4" points="217.69 138.76 156.94 103.68 96.18 138.76 96.18 208.91 156.94 243.99 217.69 208.91 217.69 138.76"/><polyline class="cls-4" points="96.18 138.76 156.94 173.83 217.69 138.76"/><line class="cls-4" x1="156.94" y1="173.83" x2="156.94" y2="243.99"/><line class="cls-4" x1="124" y1="94.04" x2="117.06" y2="82.02"/><line class="cls-4" x1="156.94" y1="85.22" x2="156.94" y2="71.33"/><line class="cls-4" x1="189.87" y1="94.04" x2="196.81" y2="82.02"/><line class="cls-4" x1="213.98" y1="118.15" x2="226" y2="111.2"/><line class="cls-4" x1="99.89" y1="118.15" x2="87.87" y2="111.21"/></svg>