<svg id="Camada_1" data-name="Camada 1" xmlns="http://www.w3.org/2000/svg" viewBox="0 0 195 213"><defs><style>.cls-1{fill:#fff;}.cls-2{fill:#f5a015;}.cls-3{fill:#fc5000;}.cls-4,.cls-5,.cls-6{fill:none;}.cls-4{stroke:#f3f0f0;stroke-linecap:round;stroke-width:3px;}.cls-4,.cls-5{stroke-miterlimit:10;}.cls-5,.cls-6{stroke:#20334a;stroke-width:4px;}.cls-6{stroke-linejoin:round;}</style></defs><path class="cls-1" d="M161.28,89.44a68.7,68.7,0,0,1-.38,52.38l-1.08-.37-35.91-15.36V104.43l36.5-14.63Z"/><path class="cls-2" d="M97.5,26.88a88.27,88.27,0,1,1-37.57,8.37,13.39,13.39,0,0,0,5-2.17A88.13,88.13,0,0,1,97.5,26.88Zm68.78,88.29a68.44,68.44,0,1,0-5.38,26.65A68.33,68.33,0,0,0,166.28,115.17Z"/><path class="cls-1" d="M159.82,141.45l1.08.37a68.76,68.76,0,0,1-38,37.09v-1.37l-14.54-36.26h.39V126.12h15.16v0Z"/><path class="cls-1" d="M124.45,52.06l-.13,1L108.75,89.54v-.49H87.42L72.68,52.28l-1.56-.22a68.65,68.65,0,0,1,53.33,0Z"/><path class="cls-1" d="M160.41,89.8l-36.5,14.63v-.22H108.75V89.54l15.57-36.43.13-1a68.67,68.67,0,0,1,36.83,37.38Z"/><polygon class="cls-3" points="123.91 126.09 123.91 126.12 108.75 126.12 108.75 141.28 108.36 141.28 86.83 141.28 86.83 140.54 86.83 126.12 71.66 126.12 71.66 125.4 71.66 104.21 72.65 104.21 86.83 104.21 86.83 89.05 87.42 89.05 108.75 89.05 108.75 89.54 108.75 104.21 123.91 104.21 123.91 104.43 123.91 126.09"/><path class="cls-1" d="M122.9,177.54v1.37a68.72,68.72,0,0,1-53.3-1.3l1.65-.66,15.58-36.41v.74h21.53Z"/><path class="cls-1" d="M72.68,52.28,87.42,89.05h-.59v15.16H72.65v0L35.75,88.39,34.89,88a68.68,68.68,0,0,1,36.23-36Z"/><path class="cls-1" d="M86.83,126.12v14.42L71.25,177l-1.65.66a68.74,68.74,0,0,1-35.55-37.33l1.11-.25,36.5-14.63v.72Z"/><path class="cls-1" d="M72.65,104.16v0h-1V125.4L35.16,140l-1.11.25A68.74,68.74,0,0,1,34.89,88l.86.37Z"/><path class="cls-2" d="M57.15,8.46a13.54,13.54,0,0,1,7.77,24.62c-1.7.67-3.36,1.4-5,2.17a12.73,12.73,0,0,1-2.78.29,13.54,13.54,0,1,1,0-27.08Z"/><path class="cls-2" d="M59.93,35.25c1.63-.77,3.29-1.5,5-2.17A13.39,13.39,0,0,1,59.93,35.25Z"/><polyline class="cls-4" points="87.51 89.28 87.42 89.05 72.68 52.28"/><line class="cls-4" x1="72.65" y1="104.16" x2="35.75" y2="88.39"/><polyline class="cls-4" points="72.15 125.2 71.66 125.4 35.16 140.03"/><polyline class="cls-4" points="87.04 140.05 86.83 140.54 71.25 176.95"/><polyline class="cls-4" points="122.9 177.54 108.36 141.28 108.07 140.54"/><polyline class="cls-4" points="159.82 141.45 123.91 126.09 122.94 125.67"/><polyline class="cls-4" points="160.41 89.8 123.91 104.43 123.42 104.63"/><polyline class="cls-4" points="124.32 53.11 108.75 89.54 108.55 90.01"/><path class="cls-5" d="M161.28,89.44a68.46,68.46,0,1,1-36.83-37.38A68.33,68.33,0,0,1,161.28,89.44Z"/><path class="cls-5" d="M59.93,35.25a12.73,12.73,0,0,1-2.78.29,13.54,13.54,0,1,1,7.77-2.46A13.39,13.39,0,0,1,59.93,35.25Z"/><polygon class="cls-6" points="108.75 89.54 108.75 104.21 123.91 104.21 123.91 104.43 123.91 126.09 123.91 126.12 108.75 126.12 108.75 141.28 108.36 141.28 86.83 141.28 86.83 140.54 86.83 126.12 71.66 126.12 71.66 125.4 71.66 104.21 72.65 104.21 86.83 104.21 86.83 89.05 87.42 89.05 108.75 89.05 108.75 89.54"/><path class="cls-5" d="M64.92,33.08a88.54,88.54,0,1,1-5,2.17"/></svg>