<?xml version="1.0" encoding="utf-8"?>
<!-- Generator: Adobe Illustrator 24.1.1, SVG Export Plug-In . SVG Version: 6.00 Build 0)  -->
<svg version="1.1" id="Camada_1" xmlns="http://www.w3.org/2000/svg" xmlns:xlink="http://www.w3.org/1999/xlink" x="0px" y="0px"
	 viewBox="0 0 139.91 273.45" style="enable-background:new 0 0 139.91 273.45;" xml:space="preserve">
<style type="text/css">
	.st0{fill:#D3D3D3;}
	.st1{fill:#9F9F9F;}
	.st2{fill:none;stroke:#9F9F9F;stroke-width:0.5;stroke-miterlimit:10;}
	.st3{fill:#727272;}
	.st4{fill:none;stroke:#727272;stroke-width:0.5;stroke-miterlimit:10;}
	.st5{fill:none;stroke:#D3D3D3;stroke-width:0.5;stroke-miterlimit:10;}
	.st6{opacity:0.3;fill:#BDBDBD;}
	.st7{fill:#18B4BF;}
	.st8{fill:#199EA8;}
	.st9{fill:#188892;}
	.st10{fill:#13737C;}
	.st11{fill:#0D5E65;}
	.st12{fill:#05484E;}
	.st13{fill:#003137;}
	.st14{fill:none;stroke:#0D5E65;stroke-width:0.5;stroke-miterlimit:10;}
	.st15{fill:#1997A1;}
	.st16{fill:none;stroke:#5C5C5C;stroke-width:0.25;stroke-miterlimit:10;}
	.st17{fill:#157A83;}
	.st18{fill:none;stroke:#13737C;stroke-width:0.5;stroke-miterlimit:10;}
	.st19{fill:#929191;}
	.st20{fill:none;stroke:#929191;stroke-width:0.5;stroke-miterlimit:10;}
	.st21{fill:#5C5C5C;}
	.st22{fill:none;stroke:#5C5C5C;stroke-width:0.5;stroke-miterlimit:10;}
	.st23{fill:none;stroke:#5C5C5C;stroke-width:0.75;stroke-miterlimit:10;}
	.st24{fill:none;stroke:#18B4BF;stroke-width:0.75;stroke-miterlimit:10;}
	.st25{fill:none;stroke:#18B4BF;stroke-width:0.25;stroke-miterlimit:10;}
	.st26{opacity:0.3;fill:#1E9BA3;}
	.st27{opacity:0.3;fill:#147D85;}
	.st28{opacity:0.3;fill:#0A5E65;}
	.st29{opacity:0.3;fill:#8A8A8A;}
	.st30{opacity:0.3;fill:#616262;}
	.st31{opacity:0.3;fill:#034146;}
	.st32{fill:#2B2B2B;}
</style>
<g>
	<path class="st32" d="M24.41,244.74c0-0.34,0.07-0.66,0.2-0.93c0.14-0.28,0.32-0.49,0.57-0.64c0.24-0.15,0.52-0.22,0.83-0.22
		c0.48,0,0.87,0.17,1.16,0.5s0.45,0.77,0.45,1.33v0.04c0,0.34-0.07,0.65-0.2,0.92c-0.13,0.27-0.32,0.48-0.56,0.64
		c-0.24,0.15-0.53,0.23-0.84,0.23c-0.48,0-0.86-0.17-1.16-0.5c-0.3-0.33-0.44-0.77-0.44-1.32V244.74z M25.01,244.82
		c0,0.39,0.09,0.7,0.27,0.94c0.18,0.24,0.42,0.36,0.73,0.36c0.31,0,0.55-0.12,0.73-0.36c0.18-0.24,0.27-0.58,0.27-1.01
		c0-0.39-0.09-0.7-0.28-0.94c-0.18-0.24-0.43-0.36-0.73-0.36c-0.3,0-0.54,0.12-0.72,0.36C25.11,244.04,25.01,244.38,25.01,244.82z
		 M26.28,241.53h0.73l-0.87,0.96l-0.49,0L26.28,241.53z"/>
	<path class="st32" d="M30.08,243.55c-0.09-0.01-0.19-0.02-0.3-0.02c-0.39,0-0.66,0.17-0.8,0.51v2.5h-0.6v-3.53h0.59l0.01,0.41
		c0.2-0.32,0.48-0.47,0.84-0.47c0.12,0,0.21,0.02,0.27,0.05V243.55z"/>
	<path class="st32" d="M30.42,244.75c0-0.55,0.13-0.99,0.38-1.31c0.25-0.32,0.59-0.49,1.01-0.49c0.43,0,0.77,0.15,1.01,0.46
		l0.03-0.39h0.55v3.44c0,0.46-0.13,0.82-0.41,1.08c-0.27,0.26-0.63,0.39-1.09,0.39c-0.25,0-0.5-0.05-0.75-0.16
		c-0.24-0.11-0.43-0.26-0.56-0.45l0.31-0.36c0.26,0.32,0.57,0.48,0.95,0.48c0.29,0,0.52-0.08,0.69-0.25c0.16-0.16,0.25-0.4,0.25-0.7
		v-0.3c-0.24,0.28-0.57,0.42-0.99,0.42c-0.41,0-0.75-0.17-1-0.5C30.55,245.77,30.42,245.32,30.42,244.75z M31.03,244.82
		c0,0.4,0.08,0.71,0.24,0.94c0.16,0.23,0.39,0.34,0.68,0.34c0.38,0,0.66-0.17,0.84-0.52v-1.61c-0.18-0.34-0.46-0.51-0.83-0.51
		c-0.29,0-0.52,0.11-0.69,0.34C31.11,244.03,31.03,244.37,31.03,244.82z"/>
	<path class="st32" d="M36.49,246.54c-0.03-0.07-0.06-0.19-0.08-0.37c-0.28,0.29-0.62,0.44-1,0.44c-0.35,0-0.63-0.1-0.86-0.3
		c-0.22-0.2-0.33-0.45-0.33-0.75c0-0.37,0.14-0.65,0.42-0.86c0.28-0.2,0.67-0.3,1.18-0.3h0.59v-0.28c0-0.21-0.06-0.38-0.19-0.5
		c-0.12-0.13-0.31-0.19-0.56-0.19c-0.21,0-0.39,0.05-0.54,0.16c-0.15,0.11-0.22,0.24-0.22,0.39h-0.61c0-0.18,0.06-0.35,0.19-0.51
		s0.29-0.29,0.51-0.39c0.21-0.1,0.45-0.14,0.7-0.14c0.41,0,0.72,0.1,0.95,0.3c0.23,0.2,0.35,0.48,0.36,0.84v1.62
		c0,0.32,0.04,0.58,0.12,0.77v0.05H36.49z M36.9,241.64c0,0.23-0.07,0.42-0.2,0.57c-0.13,0.15-0.3,0.22-0.5,0.22
		c-0.09,0-0.17-0.01-0.23-0.03c-0.07-0.02-0.15-0.07-0.26-0.13c-0.11-0.07-0.18-0.11-0.23-0.12c-0.05-0.01-0.1-0.02-0.16-0.02
		c-0.09,0-0.16,0.03-0.23,0.1c-0.06,0.07-0.09,0.16-0.09,0.26l-0.4-0.02c0-0.23,0.07-0.42,0.2-0.58c0.13-0.15,0.3-0.23,0.5-0.23
		c0.08,0,0.14,0.01,0.21,0.03c0.06,0.02,0.14,0.07,0.25,0.13c0.1,0.06,0.18,0.1,0.24,0.12c0.05,0.02,0.12,0.03,0.18,0.03
		c0.09,0,0.17-0.04,0.23-0.11c0.06-0.07,0.09-0.16,0.09-0.26L36.9,241.64z M35.49,246.08c0.19,0,0.37-0.05,0.54-0.15
		c0.17-0.1,0.29-0.22,0.37-0.38v-0.72h-0.47c-0.74,0-1.11,0.22-1.11,0.65c0,0.19,0.06,0.34,0.19,0.44
		C35.13,246.03,35.29,246.08,35.49,246.08z"/>
	<path class="st32" d="M37.78,244.74c0-0.34,0.07-0.66,0.2-0.93c0.14-0.28,0.32-0.49,0.57-0.64c0.24-0.15,0.52-0.22,0.83-0.22
		c0.48,0,0.87,0.17,1.16,0.5c0.3,0.33,0.44,0.77,0.44,1.33v0.04c0,0.34-0.07,0.65-0.2,0.92c-0.13,0.27-0.32,0.48-0.56,0.64
		c-0.24,0.15-0.53,0.23-0.84,0.23c-0.48,0-0.87-0.17-1.16-0.5c-0.3-0.33-0.44-0.77-0.44-1.32V244.74z M38.39,244.82
		c0,0.39,0.09,0.7,0.27,0.94c0.18,0.24,0.42,0.36,0.73,0.36c0.31,0,0.55-0.12,0.73-0.36c0.18-0.24,0.27-0.58,0.27-1.01
		c0-0.39-0.09-0.7-0.28-0.94c-0.18-0.24-0.43-0.36-0.73-0.36c-0.3,0-0.54,0.12-0.72,0.36C38.48,244.04,38.39,244.38,38.39,244.82z"
		/>
	<path class="st32" d="M43.25,244.75c0-0.54,0.13-0.98,0.38-1.3c0.26-0.33,0.59-0.49,1.01-0.49c0.41,0,0.74,0.14,0.98,0.42v-1.84
		h0.6v5h-0.55l-0.03-0.38c-0.24,0.3-0.58,0.44-1.01,0.44c-0.41,0-0.74-0.17-1-0.5c-0.26-0.34-0.39-0.77-0.39-1.31V244.75z
		 M43.85,244.82c0,0.4,0.08,0.71,0.25,0.94c0.16,0.22,0.39,0.34,0.68,0.34c0.38,0,0.66-0.17,0.84-0.51v-1.62
		c-0.18-0.33-0.46-0.5-0.83-0.5c-0.3,0-0.53,0.11-0.69,0.34C43.93,244.03,43.85,244.37,43.85,244.82z"/>
	<path class="st32" d="M48.62,246.6c-0.48,0-0.87-0.16-1.17-0.47c-0.3-0.31-0.45-0.73-0.45-1.26v-0.11c0-0.35,0.07-0.66,0.2-0.94
		c0.13-0.28,0.32-0.49,0.56-0.64c0.24-0.16,0.5-0.23,0.78-0.23c0.46,0,0.81,0.15,1.07,0.45s0.38,0.73,0.38,1.3v0.25h-2.39
		c0.01,0.35,0.11,0.63,0.3,0.84c0.19,0.21,0.44,0.32,0.74,0.32c0.21,0,0.39-0.04,0.54-0.13c0.15-0.09,0.28-0.2,0.39-0.35l0.37,0.29
		C49.65,246.38,49.21,246.6,48.62,246.6z M48.55,243.44c-0.24,0-0.45,0.09-0.61,0.26c-0.16,0.18-0.27,0.43-0.31,0.74h1.76v-0.05
		c-0.02-0.31-0.1-0.54-0.25-0.71C49,243.53,48.8,243.44,48.55,243.44z"/>
	<path class="st32" d="M25.98,254.12c0.22,0,0.4-0.07,0.56-0.2c0.16-0.13,0.25-0.29,0.27-0.49h0.57c-0.01,0.2-0.08,0.39-0.21,0.58
		c-0.13,0.18-0.3,0.33-0.51,0.44c-0.21,0.11-0.44,0.16-0.68,0.16c-0.48,0-0.86-0.16-1.14-0.48c-0.28-0.32-0.43-0.76-0.43-1.32v-0.1
		c0-0.34,0.06-0.65,0.19-0.91c0.13-0.27,0.31-0.47,0.54-0.62c0.24-0.15,0.51-0.22,0.84-0.22c0.4,0,0.72,0.12,0.99,0.36
		c0.26,0.24,0.4,0.55,0.42,0.92h-0.57c-0.02-0.23-0.1-0.42-0.26-0.56s-0.35-0.22-0.58-0.22c-0.31,0-0.54,0.11-0.71,0.33
		c-0.17,0.22-0.25,0.54-0.25,0.96v0.11c0,0.41,0.08,0.72,0.25,0.94C25.43,254.01,25.67,254.12,25.98,254.12z"/>
	<path class="st32" d="M27.9,252.75c0-0.34,0.07-0.66,0.2-0.93c0.14-0.28,0.32-0.49,0.57-0.64c0.24-0.15,0.52-0.22,0.83-0.22
		c0.48,0,0.87,0.17,1.16,0.5c0.3,0.33,0.44,0.77,0.44,1.33v0.04c0,0.34-0.07,0.65-0.2,0.92c-0.13,0.27-0.32,0.48-0.56,0.64
		c-0.24,0.15-0.53,0.23-0.84,0.23c-0.48,0-0.87-0.17-1.16-0.5c-0.3-0.33-0.44-0.77-0.44-1.32V252.75z M28.51,252.82
		c0,0.39,0.09,0.7,0.27,0.94c0.18,0.24,0.42,0.36,0.73,0.36c0.31,0,0.55-0.12,0.73-0.36c0.18-0.24,0.27-0.58,0.27-1.01
		c0-0.39-0.09-0.7-0.28-0.94c-0.18-0.24-0.43-0.36-0.73-0.36c-0.3,0-0.54,0.12-0.72,0.36C28.6,252.04,28.51,252.38,28.51,252.82z"/>
	<path class="st32" d="M32.44,251.02l0.02,0.44c0.27-0.34,0.62-0.51,1.06-0.51c0.74,0,1.12,0.42,1.13,1.26v2.33h-0.6v-2.33
		c0-0.25-0.06-0.44-0.17-0.56c-0.11-0.12-0.29-0.18-0.53-0.18c-0.2,0-0.37,0.05-0.51,0.16c-0.15,0.1-0.26,0.24-0.35,0.41v2.51h-0.6
		v-3.53H32.44z"/>
	<path class="st32" d="M36.36,250.17v0.85h0.66v0.47h-0.66v2.19c0,0.14,0.03,0.25,0.09,0.32c0.06,0.07,0.16,0.11,0.3,0.11
		c0.07,0,0.16-0.01,0.29-0.04v0.49c-0.16,0.04-0.31,0.07-0.46,0.07c-0.27,0-0.47-0.08-0.61-0.24c-0.14-0.16-0.2-0.39-0.2-0.69v-2.18
		h-0.64v-0.47h0.64v-0.85H36.36z"/>
	<path class="st32" d="M39.43,251.56c-0.09-0.01-0.19-0.02-0.3-0.02c-0.39,0-0.66,0.17-0.8,0.51v2.5h-0.6v-3.53h0.59l0.01,0.41
		c0.2-0.32,0.48-0.47,0.84-0.47c0.12,0,0.21,0.02,0.27,0.05V251.56z"/>
	<path class="st32" d="M39.76,252.75c0-0.34,0.07-0.66,0.2-0.93c0.14-0.28,0.32-0.49,0.57-0.64c0.24-0.15,0.52-0.22,0.83-0.22
		c0.48,0,0.87,0.17,1.16,0.5c0.3,0.33,0.44,0.77,0.44,1.33v0.04c0,0.34-0.07,0.65-0.2,0.92c-0.13,0.27-0.32,0.48-0.56,0.64
		c-0.24,0.15-0.53,0.23-0.84,0.23c-0.48,0-0.87-0.17-1.16-0.5c-0.3-0.33-0.44-0.77-0.44-1.32V252.75z M40.36,252.82
		c0,0.39,0.09,0.7,0.27,0.94c0.18,0.24,0.42,0.36,0.73,0.36c0.31,0,0.55-0.12,0.73-0.36c0.18-0.24,0.27-0.58,0.27-1.01
		c0-0.39-0.09-0.7-0.28-0.94c-0.18-0.24-0.43-0.36-0.73-0.36c-0.3,0-0.54,0.12-0.72,0.36C40.45,252.04,40.36,252.38,40.36,252.82z"
		/>
	<path class="st32" d="M44.38,254.54h-0.6v-5h0.6V254.54z"/>
	<path class="st32" d="M46.8,254.61c-0.48,0-0.87-0.16-1.17-0.47c-0.3-0.31-0.45-0.73-0.45-1.26v-0.11c0-0.35,0.07-0.66,0.2-0.94
		c0.13-0.28,0.32-0.49,0.56-0.64c0.24-0.16,0.5-0.23,0.78-0.23c0.46,0,0.81,0.15,1.07,0.45s0.38,0.73,0.38,1.3v0.25h-2.39
		c0.01,0.35,0.11,0.63,0.3,0.84c0.19,0.21,0.44,0.32,0.74,0.32c0.21,0,0.39-0.04,0.54-0.13c0.15-0.09,0.28-0.2,0.39-0.35l0.37,0.29
		C47.84,254.38,47.39,254.61,46.8,254.61z M46.73,251.45c-0.24,0-0.45,0.09-0.61,0.26c-0.16,0.18-0.27,0.43-0.31,0.74h1.76v-0.05
		c-0.02-0.31-0.1-0.54-0.25-0.71C47.18,251.53,46.98,251.45,46.73,251.45z"/>
	<path class="st32" d="M51.99,254.61c-0.48,0-0.87-0.16-1.17-0.47c-0.3-0.31-0.45-0.73-0.45-1.26v-0.11c0-0.35,0.07-0.66,0.2-0.94
		c0.13-0.28,0.32-0.49,0.56-0.64c0.24-0.16,0.5-0.23,0.78-0.23c0.46,0,0.81,0.15,1.07,0.45s0.38,0.73,0.38,1.3v0.25h-2.39
		c0.01,0.35,0.11,0.63,0.3,0.84c0.19,0.21,0.44,0.32,0.74,0.32c0.21,0,0.39-0.04,0.54-0.13c0.15-0.09,0.28-0.2,0.39-0.35l0.37,0.29
		C53.02,254.38,52.58,254.61,51.99,254.61z M51.91,251.45c-0.24,0-0.45,0.09-0.61,0.26c-0.16,0.18-0.27,0.43-0.31,0.74h1.76v-0.05
		c-0.02-0.31-0.1-0.54-0.25-0.71C52.37,251.53,52.17,251.45,51.91,251.45z"/>
	<path class="st32" d="M25.19,259.02v3.93c0,0.68-0.31,1.02-0.92,1.02c-0.13,0-0.26-0.02-0.37-0.06v-0.48
		c0.07,0.02,0.16,0.03,0.27,0.03c0.14,0,0.24-0.04,0.31-0.11c0.07-0.07,0.11-0.2,0.11-0.38v-3.95H25.19z M24.53,258.09
		c0-0.1,0.03-0.18,0.09-0.25c0.06-0.07,0.15-0.1,0.26-0.1c0.12,0,0.21,0.03,0.27,0.1c0.06,0.07,0.09,0.15,0.09,0.25
		c0,0.1-0.03,0.18-0.09,0.24c-0.06,0.07-0.15,0.1-0.27,0.1c-0.12,0-0.2-0.03-0.26-0.1C24.56,258.27,24.53,258.19,24.53,258.09z"/>
	<path class="st32" d="M28.34,262.2c-0.24,0.28-0.58,0.41-1.03,0.41c-0.37,0-0.66-0.11-0.86-0.33c-0.2-0.22-0.3-0.54-0.3-0.97v-2.29
		h0.6v2.28c0,0.53,0.22,0.8,0.65,0.8c0.46,0,0.77-0.17,0.92-0.51v-2.56h0.6v3.53h-0.57L28.34,262.2z"/>
	<path class="st32" d="M29.69,260.76c0-0.54,0.13-0.98,0.38-1.3c0.26-0.33,0.59-0.49,1.01-0.49c0.41,0,0.74,0.14,0.98,0.42v-1.84
		h0.6v5h-0.55l-0.03-0.38c-0.24,0.3-0.58,0.44-1.01,0.44c-0.41,0-0.74-0.17-1-0.5c-0.26-0.34-0.39-0.77-0.39-1.31V260.76z
		 M30.29,260.83c0,0.4,0.08,0.71,0.25,0.94c0.16,0.22,0.39,0.34,0.68,0.34c0.38,0,0.66-0.17,0.84-0.51v-1.62
		c-0.18-0.33-0.46-0.5-0.83-0.5c-0.3,0-0.53,0.11-0.69,0.34C30.38,260.04,30.29,260.38,30.29,260.83z"/>
	<path class="st32" d="M33.6,258.09c0-0.1,0.03-0.18,0.09-0.25c0.06-0.07,0.15-0.1,0.26-0.1c0.12,0,0.21,0.03,0.27,0.1
		c0.06,0.07,0.09,0.15,0.09,0.25c0,0.1-0.03,0.18-0.09,0.24c-0.06,0.07-0.15,0.1-0.27,0.1c-0.12,0-0.2-0.03-0.26-0.1
		C33.63,258.27,33.6,258.19,33.6,258.09z M34.26,262.55h-0.6v-3.53h0.6V262.55z"/>
	<path class="st32" d="M36.63,262.12c0.22,0,0.4-0.07,0.56-0.2s0.25-0.29,0.27-0.49h0.57c-0.01,0.2-0.08,0.39-0.21,0.58
		c-0.13,0.18-0.3,0.33-0.51,0.44c-0.21,0.11-0.44,0.16-0.68,0.16c-0.48,0-0.86-0.16-1.14-0.48c-0.28-0.32-0.43-0.76-0.43-1.32v-0.1
		c0-0.34,0.06-0.65,0.19-0.91c0.13-0.27,0.31-0.47,0.54-0.62c0.24-0.15,0.51-0.22,0.84-0.22c0.39,0,0.72,0.12,0.99,0.36
		s0.4,0.55,0.42,0.92h-0.57c-0.02-0.23-0.1-0.42-0.26-0.56c-0.16-0.15-0.35-0.22-0.57-0.22c-0.31,0-0.54,0.11-0.71,0.33
		c-0.17,0.22-0.25,0.54-0.25,0.96v0.11c0,0.41,0.08,0.72,0.25,0.94C36.08,262.01,36.32,262.12,36.63,262.12z"/>
	<path class="st32" d="M38.71,258.09c0-0.1,0.03-0.18,0.09-0.25c0.06-0.07,0.15-0.1,0.26-0.1c0.12,0,0.21,0.03,0.27,0.1
		c0.06,0.07,0.09,0.15,0.09,0.25c0,0.1-0.03,0.18-0.09,0.24c-0.06,0.07-0.15,0.1-0.27,0.1c-0.12,0-0.2-0.03-0.26-0.1
		C38.74,258.27,38.71,258.19,38.71,258.09z M39.37,262.55h-0.6v-3.53h0.6V262.55z"/>
	<path class="st32" d="M42.51,262.55c-0.03-0.07-0.06-0.19-0.08-0.37c-0.28,0.29-0.62,0.44-1,0.44c-0.35,0-0.63-0.1-0.86-0.3
		c-0.22-0.2-0.33-0.45-0.33-0.75c0-0.37,0.14-0.65,0.42-0.86s0.67-0.3,1.18-0.3h0.59v-0.28c0-0.21-0.06-0.38-0.19-0.5
		c-0.12-0.12-0.31-0.19-0.56-0.19c-0.21,0-0.39,0.05-0.54,0.16c-0.15,0.11-0.22,0.24-0.22,0.39H40.3c0-0.18,0.06-0.35,0.19-0.51
		c0.12-0.16,0.29-0.29,0.51-0.39c0.21-0.1,0.45-0.14,0.7-0.14c0.41,0,0.72,0.1,0.95,0.3c0.23,0.2,0.35,0.48,0.36,0.84v1.62
		c0,0.32,0.04,0.58,0.12,0.77v0.05H42.51z M41.51,262.09c0.19,0,0.37-0.05,0.54-0.15c0.17-0.1,0.29-0.22,0.37-0.38v-0.72h-0.47
		c-0.74,0-1.11,0.22-1.11,0.65c0,0.19,0.06,0.34,0.19,0.44C41.15,262.04,41.31,262.09,41.51,262.09z M42.06,257.55h0.73l-0.87,0.96
		l-0.49,0L42.06,257.55z"/>
	<path class="st32" d="M45.66,259.57c-0.09-0.01-0.19-0.02-0.3-0.02c-0.39,0-0.66,0.17-0.8,0.51v2.5h-0.6v-3.53h0.59l0.01,0.41
		c0.2-0.32,0.48-0.47,0.84-0.47c0.12,0,0.21,0.02,0.27,0.05V259.57z"/>
	<path class="st32" d="M46.22,258.09c0-0.1,0.03-0.18,0.09-0.25c0.06-0.07,0.15-0.1,0.26-0.1c0.12,0,0.21,0.03,0.27,0.1
		c0.06,0.07,0.09,0.15,0.09,0.25c0,0.1-0.03,0.18-0.09,0.24c-0.06,0.07-0.15,0.1-0.27,0.1c-0.12,0-0.2-0.03-0.26-0.1
		C46.25,258.27,46.22,258.19,46.22,258.09z M46.87,262.55h-0.6v-3.53h0.6V262.55z"/>
	<path class="st32" d="M47.68,260.75c0-0.34,0.07-0.66,0.2-0.93c0.14-0.28,0.32-0.49,0.57-0.64c0.24-0.15,0.52-0.22,0.83-0.22
		c0.48,0,0.87,0.17,1.16,0.5c0.3,0.33,0.44,0.77,0.44,1.33v0.04c0,0.34-0.07,0.65-0.2,0.92c-0.13,0.27-0.32,0.48-0.56,0.64
		c-0.24,0.15-0.53,0.23-0.84,0.23c-0.48,0-0.87-0.17-1.16-0.5c-0.3-0.33-0.44-0.77-0.44-1.32V260.75z M48.28,260.83
		c0,0.39,0.09,0.7,0.27,0.94c0.18,0.24,0.42,0.36,0.73,0.36c0.31,0,0.55-0.12,0.73-0.36c0.18-0.24,0.27-0.58,0.27-1.01
		c0-0.39-0.09-0.7-0.28-0.94c-0.18-0.24-0.43-0.36-0.73-0.36c-0.3,0-0.54,0.12-0.72,0.36C48.37,260.05,48.28,260.39,48.28,260.83z"
		/>
</g>
<rect x="34.21" y="136.68" class="st11" width="20" height="9.55"/>
<rect x="85.71" y="122.36" class="st11" width="20" height="12.73"/>
<g>
	<path class="st11" d="M13.9,139.3v0.59h-0.09c-0.4,0.01-0.72,0.12-0.96,0.33s-0.38,0.52-0.42,0.91c0.23-0.24,0.52-0.36,0.88-0.36
		c0.38,0,0.67,0.13,0.89,0.4s0.33,0.61,0.33,1.03c0,0.43-0.13,0.78-0.38,1.05c-0.26,0.27-0.59,0.4-1,0.4
		c-0.43,0-0.77-0.16-1.04-0.47c-0.27-0.31-0.4-0.73-0.4-1.24v-0.24c0-0.75,0.18-1.33,0.55-1.76s0.89-0.63,1.57-0.63H13.9z
		 M13.14,141.34c-0.16,0-0.3,0.04-0.43,0.13s-0.22,0.21-0.29,0.35v0.22c0,0.32,0.07,0.57,0.2,0.75s0.3,0.28,0.52,0.28
		s0.38-0.08,0.5-0.24s0.18-0.37,0.18-0.63s-0.06-0.47-0.19-0.63S13.35,141.34,13.14,141.34z"/>
	<path class="st11" d="M15.07,140.14c0-0.26,0.08-0.47,0.25-0.63s0.38-0.25,0.65-0.25c0.27,0,0.49,0.08,0.66,0.25
		s0.25,0.38,0.25,0.65v0.21c0,0.26-0.08,0.46-0.25,0.63s-0.38,0.25-0.65,0.25c-0.26,0-0.48-0.08-0.65-0.24
		c-0.17-0.16-0.26-0.38-0.26-0.65V140.14z M15.57,140.37c0,0.13,0.04,0.24,0.11,0.33c0.08,0.08,0.17,0.13,0.3,0.13
		c0.12,0,0.22-0.04,0.29-0.13c0.07-0.08,0.11-0.2,0.11-0.34v-0.21c0-0.13-0.04-0.24-0.11-0.33c-0.08-0.08-0.17-0.13-0.3-0.13
		c-0.12,0-0.22,0.04-0.29,0.13c-0.07,0.08-0.11,0.2-0.11,0.34V140.37z M16.12,143.27l-0.37-0.21l2.08-3.33l0.37,0.21L16.12,143.27z
		 M17.12,142.55c0-0.26,0.08-0.47,0.25-0.64s0.39-0.24,0.65-0.24c0.27,0,0.48,0.08,0.65,0.24c0.17,0.16,0.25,0.38,0.25,0.66v0.21
		c0,0.25-0.08,0.46-0.25,0.63s-0.38,0.25-0.65,0.25c-0.27,0-0.49-0.08-0.66-0.24c-0.17-0.16-0.25-0.38-0.25-0.65V142.55z
		 M17.62,142.77c0,0.13,0.04,0.24,0.12,0.33c0.08,0.08,0.18,0.13,0.3,0.13c0.13,0,0.22-0.04,0.29-0.12
		c0.07-0.08,0.11-0.19,0.11-0.34v-0.22c0-0.14-0.04-0.25-0.11-0.33s-0.17-0.12-0.29-0.12c-0.12,0-0.22,0.04-0.29,0.12
		s-0.11,0.2-0.11,0.34V142.77z"/>
</g>
<g>
	<path class="st11" d="M123.74,127.72c0,0.21-0.05,0.4-0.16,0.56s-0.25,0.29-0.44,0.38c0.22,0.1,0.39,0.25,0.51,0.42
		c0.12,0.18,0.18,0.38,0.18,0.61c0,0.38-0.13,0.67-0.38,0.89s-0.59,0.33-1.01,0.33c-0.42,0-0.76-0.11-1.02-0.33
		c-0.26-0.22-0.38-0.52-0.38-0.89c0-0.23,0.06-0.43,0.18-0.62s0.29-0.32,0.51-0.42c-0.18-0.09-0.33-0.22-0.44-0.38
		s-0.16-0.35-0.16-0.56c0-0.36,0.12-0.65,0.35-0.86s0.55-0.32,0.95-0.32c0.4,0,0.72,0.11,0.95,0.32S123.74,127.35,123.74,127.72z
		 M123.12,129.66c0-0.21-0.06-0.38-0.19-0.51c-0.13-0.13-0.29-0.2-0.5-0.2s-0.37,0.06-0.5,0.19c-0.13,0.13-0.19,0.3-0.19,0.51
		c0,0.21,0.06,0.38,0.18,0.5s0.29,0.19,0.51,0.19s0.38-0.06,0.5-0.18C123.06,130.05,123.12,129.88,123.12,129.66z M123.03,127.74
		c0-0.19-0.05-0.34-0.16-0.46s-0.25-0.18-0.43-0.18s-0.33,0.06-0.43,0.17s-0.16,0.27-0.16,0.47c0,0.2,0.05,0.35,0.16,0.47
		c0.11,0.12,0.25,0.17,0.43,0.17s0.33-0.06,0.43-0.17S123.03,127.94,123.03,127.74z"/>
	<path class="st11" d="M124.43,127.41c0-0.26,0.08-0.47,0.25-0.63s0.38-0.25,0.65-0.25c0.27,0,0.49,0.08,0.66,0.25
		s0.25,0.38,0.25,0.65v0.21c0,0.26-0.08,0.47-0.25,0.63s-0.38,0.25-0.65,0.25c-0.26,0-0.48-0.08-0.65-0.24
		c-0.17-0.16-0.26-0.38-0.26-0.65V127.41z M124.93,127.64c0,0.13,0.04,0.24,0.11,0.33c0.08,0.08,0.17,0.13,0.3,0.13
		c0.12,0,0.22-0.04,0.29-0.13c0.07-0.08,0.11-0.2,0.11-0.34v-0.21c0-0.13-0.04-0.24-0.11-0.33c-0.08-0.08-0.17-0.13-0.3-0.13
		s-0.22,0.04-0.29,0.13c-0.07,0.08-0.11,0.2-0.11,0.34V127.64z M125.48,130.54l-0.37-0.21l2.08-3.33l0.37,0.21L125.48,130.54z
		 M126.48,129.81c0-0.26,0.08-0.47,0.25-0.64s0.39-0.24,0.65-0.24c0.27,0,0.48,0.08,0.65,0.24c0.17,0.16,0.25,0.38,0.25,0.66v0.21
		c0,0.25-0.08,0.46-0.25,0.63s-0.38,0.25-0.65,0.25s-0.49-0.08-0.66-0.24c-0.17-0.16-0.25-0.38-0.25-0.65V129.81z M126.98,130.04
		c0,0.13,0.04,0.24,0.12,0.33c0.08,0.08,0.18,0.13,0.3,0.13c0.13,0,0.22-0.04,0.29-0.12c0.07-0.08,0.11-0.2,0.11-0.34v-0.22
		c0-0.14-0.04-0.25-0.11-0.33s-0.17-0.12-0.29-0.12c-0.12,0-0.22,0.04-0.29,0.12s-0.11,0.2-0.11,0.34V130.04z"/>
</g>
<polygon class="st31" points="54.21,136.68 85.71,122.36 85.71,135.09 54.21,146.23 "/>
<rect x="10.6" y="240.09" class="st10" width="9" height="9"/>
</svg>
