<?xml version="1.0" encoding="utf-8"?>
<!-- Generator: Adobe Illustrator 24.1.1, SVG Export Plug-In . SVG Version: 6.00 Build 0)  -->
<svg version="1.1" id="Camada_1" xmlns="http://www.w3.org/2000/svg" xmlns:xlink="http://www.w3.org/1999/xlink" x="0px" y="0px"
	 viewBox="0 0 139.91 273.63" style="enable-background:new 0 0 139.91 273.63;" xml:space="preserve">
<style type="text/css">
	.st0{fill:#D3D3D3;}
	.st1{fill:#9F9F9F;}
	.st2{fill:none;stroke:#9F9F9F;stroke-width:0.5;stroke-miterlimit:10;}
	.st3{fill:#727272;}
	.st4{fill:none;stroke:#727272;stroke-width:0.5;stroke-miterlimit:10;}
	.st5{fill:none;stroke:#D3D3D3;stroke-width:0.5;stroke-miterlimit:10;}
	.st6{opacity:0.3;fill:#BDBDBD;}
	.st7{fill:#18B4BF;}
	.st8{fill:#199EA8;}
	.st9{fill:#188892;}
	.st10{fill:#13737C;}
	.st11{fill:#0D5E65;}
	.st12{fill:#05484E;}
	.st13{fill:#003137;}
	.st14{fill:none;stroke:#0D5E65;stroke-width:0.5;stroke-miterlimit:10;}
	.st15{fill:#1997A1;}
	.st16{fill:none;stroke:#5C5C5C;stroke-width:0.25;stroke-miterlimit:10;}
	.st17{fill:#157A83;}
	.st18{fill:none;stroke:#13737C;stroke-width:0.5;stroke-miterlimit:10;}
	.st19{fill:#929191;}
	.st20{fill:none;stroke:#929191;stroke-width:0.5;stroke-miterlimit:10;}
	.st21{fill:#5C5C5C;}
	.st22{fill:none;stroke:#5C5C5C;stroke-width:0.5;stroke-miterlimit:10;}
	.st23{fill:none;stroke:#5C5C5C;stroke-width:0.75;stroke-miterlimit:10;}
	.st24{fill:none;stroke:#18B4BF;stroke-width:0.75;stroke-miterlimit:10;}
	.st25{fill:none;stroke:#18B4BF;stroke-width:0.25;stroke-miterlimit:10;}
	.st26{opacity:0.3;fill:#1E9BA3;}
	.st27{opacity:0.3;fill:#147D85;}
	.st28{opacity:0.3;fill:#0A5E65;}
	.st29{opacity:0.3;fill:#8A8A8A;}
	.st30{opacity:0.3;fill:#616262;}
	.st31{opacity:0.3;fill:#034146;}
	.st32{fill:#2B2B2B;}
</style>
<g>
	<path class="st0" d="M122.98,149.29h-0.71v-3.43l-1.05,0.36v-0.6l1.66-0.61h0.09V149.29z"/>
	<path class="st0" d="M126.67,145v0.59h-0.09c-0.4,0.01-0.72,0.12-0.96,0.33s-0.38,0.51-0.42,0.91c0.23-0.24,0.52-0.36,0.88-0.36
		c0.38,0,0.67,0.13,0.89,0.4s0.33,0.61,0.33,1.03c0,0.43-0.13,0.78-0.38,1.05c-0.26,0.27-0.59,0.4-1,0.4
		c-0.43,0-0.77-0.16-1.04-0.47c-0.27-0.31-0.4-0.73-0.4-1.24v-0.24c0-0.75,0.18-1.33,0.55-1.76c0.36-0.42,0.89-0.64,1.57-0.64
		H126.67z M125.91,147.04c-0.16,0-0.3,0.04-0.43,0.13s-0.22,0.21-0.29,0.35v0.22c0,0.32,0.07,0.57,0.2,0.75s0.3,0.28,0.52,0.28
		s0.38-0.08,0.5-0.24s0.18-0.37,0.18-0.62s-0.06-0.47-0.19-0.63S126.12,147.04,125.91,147.04z"/>
	<path class="st0" d="M127.84,145.84c0-0.26,0.08-0.47,0.25-0.63c0.17-0.17,0.38-0.25,0.65-0.25c0.27,0,0.49,0.08,0.66,0.25
		s0.25,0.38,0.25,0.65v0.21c0,0.26-0.08,0.47-0.25,0.63s-0.38,0.25-0.65,0.25c-0.26,0-0.48-0.08-0.65-0.24
		c-0.17-0.16-0.26-0.38-0.26-0.65V145.84z M128.34,146.06c0,0.13,0.04,0.24,0.11,0.33s0.17,0.13,0.3,0.13
		c0.12,0,0.22-0.04,0.29-0.13s0.11-0.2,0.11-0.34v-0.21c0-0.13-0.04-0.25-0.11-0.33c-0.08-0.08-0.17-0.13-0.3-0.13
		s-0.22,0.04-0.29,0.13c-0.07,0.08-0.11,0.2-0.11,0.34V146.06z M128.89,148.97l-0.37-0.21l2.08-3.33l0.37,0.21L128.89,148.97z
		 M129.89,148.24c0-0.26,0.08-0.47,0.25-0.64s0.39-0.24,0.65-0.24c0.27,0,0.48,0.08,0.65,0.24c0.17,0.16,0.25,0.38,0.25,0.66v0.21
		c0,0.25-0.08,0.46-0.25,0.63s-0.38,0.25-0.65,0.25s-0.49-0.08-0.66-0.25c-0.17-0.16-0.25-0.38-0.25-0.65V148.24z M130.39,148.47
		c0,0.13,0.04,0.24,0.12,0.33c0.08,0.08,0.18,0.13,0.3,0.13c0.13,0,0.22-0.04,0.29-0.12c0.07-0.08,0.11-0.19,0.11-0.34v-0.22
		c0-0.14-0.04-0.25-0.11-0.33s-0.17-0.12-0.29-0.12c-0.12,0-0.22,0.04-0.29,0.12s-0.11,0.2-0.11,0.34V148.47z"/>
</g>
<g>
	<path class="st1" d="M121.87,156.54h0.43c0.22,0,0.39-0.06,0.52-0.17s0.19-0.27,0.19-0.48c0-0.2-0.05-0.36-0.16-0.47
		c-0.11-0.11-0.27-0.17-0.49-0.17c-0.19,0-0.35,0.05-0.47,0.17s-0.18,0.25-0.18,0.43H121c0-0.22,0.06-0.42,0.17-0.6
		c0.12-0.18,0.28-0.32,0.49-0.42c0.21-0.1,0.44-0.15,0.7-0.15c0.43,0,0.76,0.11,1,0.32c0.24,0.21,0.37,0.51,0.37,0.89
		c0,0.19-0.06,0.37-0.18,0.54s-0.28,0.3-0.47,0.38c0.23,0.08,0.41,0.21,0.54,0.38c0.12,0.17,0.18,0.38,0.18,0.62
		c0,0.38-0.13,0.69-0.39,0.91c-0.26,0.23-0.61,0.34-1.04,0.34c-0.41,0-0.75-0.11-1.01-0.33s-0.39-0.51-0.39-0.87h0.71
		c0,0.19,0.06,0.34,0.19,0.46c0.13,0.12,0.29,0.18,0.51,0.18c0.22,0,0.39-0.06,0.52-0.18s0.19-0.29,0.19-0.51
		c0-0.22-0.07-0.4-0.2-0.52s-0.33-0.18-0.59-0.18h-0.42V156.54z"/>
	<path class="st1" d="M124.43,155.55c0-0.26,0.08-0.47,0.25-0.63s0.38-0.25,0.65-0.25c0.27,0,0.49,0.08,0.66,0.25
		s0.25,0.38,0.25,0.65v0.21c0,0.26-0.08,0.47-0.25,0.63s-0.38,0.25-0.65,0.25c-0.26,0-0.48-0.08-0.65-0.24
		c-0.17-0.16-0.26-0.38-0.26-0.65V155.55z M124.93,155.77c0,0.13,0.04,0.24,0.11,0.33s0.17,0.13,0.3,0.13
		c0.12,0,0.22-0.04,0.29-0.13s0.11-0.2,0.11-0.34v-0.21c0-0.13-0.04-0.25-0.11-0.33c-0.08-0.08-0.17-0.13-0.3-0.13
		s-0.22,0.04-0.29,0.13c-0.07,0.08-0.11,0.2-0.11,0.34V155.77z M125.48,158.67l-0.37-0.21l2.08-3.33l0.37,0.21L125.48,158.67z
		 M126.48,157.95c0-0.26,0.08-0.47,0.25-0.64s0.39-0.24,0.65-0.24c0.27,0,0.48,0.08,0.65,0.24c0.17,0.16,0.25,0.38,0.25,0.66v0.21
		c0,0.25-0.08,0.46-0.25,0.63c-0.16,0.17-0.38,0.25-0.65,0.25s-0.49-0.08-0.66-0.25c-0.17-0.16-0.25-0.38-0.25-0.65V157.95z
		 M126.98,158.17c0,0.13,0.04,0.24,0.12,0.33c0.08,0.08,0.18,0.13,0.3,0.13c0.13,0,0.22-0.04,0.29-0.12
		c0.07-0.08,0.11-0.19,0.11-0.34v-0.22c0-0.14-0.04-0.25-0.11-0.33s-0.17-0.12-0.29-0.12c-0.12,0-0.22,0.04-0.29,0.12
		s-0.11,0.2-0.11,0.34V158.17z"/>
</g>
<polyline class="st2" points="117.45,157.34 114.52,157.34 108.49,163.19 105.19,163.19 "/>
<g>
	<g>
		<path class="st3" d="M123.92,174.59h-2.87v-0.49l1.42-1.55c0.21-0.23,0.35-0.42,0.44-0.57s0.13-0.31,0.13-0.46
			c0-0.2-0.06-0.37-0.17-0.49c-0.11-0.13-0.27-0.19-0.46-0.19c-0.23,0-0.41,0.07-0.54,0.21s-0.19,0.33-0.19,0.58h-0.71
			c0-0.26,0.06-0.49,0.18-0.7s0.29-0.37,0.51-0.48c0.22-0.12,0.47-0.17,0.76-0.17c0.41,0,0.74,0.1,0.98,0.31
			c0.24,0.21,0.36,0.5,0.36,0.86c0,0.21-0.06,0.44-0.18,0.67c-0.12,0.23-0.32,0.5-0.59,0.8l-1.04,1.12h1.98V174.59z"/>
		<path class="st3" d="M124.43,171.14c0-0.26,0.08-0.47,0.25-0.63s0.38-0.25,0.65-0.25c0.27,0,0.49,0.08,0.66,0.25
			s0.25,0.38,0.25,0.65v0.21c0,0.26-0.08,0.47-0.25,0.63s-0.38,0.25-0.65,0.25c-0.26,0-0.48-0.08-0.65-0.24
			c-0.17-0.16-0.26-0.38-0.26-0.65V171.14z M124.93,171.37c0,0.13,0.04,0.24,0.11,0.33s0.17,0.13,0.3,0.13
			c0.12,0,0.22-0.04,0.29-0.13s0.11-0.2,0.11-0.34v-0.21c0-0.13-0.04-0.25-0.11-0.33c-0.08-0.08-0.17-0.13-0.3-0.13
			s-0.22,0.04-0.29,0.13c-0.07,0.08-0.11,0.2-0.11,0.34V171.37z M125.48,174.27l-0.37-0.21l2.08-3.33l0.37,0.21L125.48,174.27z
			 M126.48,173.54c0-0.26,0.08-0.47,0.25-0.64s0.39-0.24,0.65-0.24c0.27,0,0.48,0.08,0.65,0.24c0.17,0.16,0.25,0.38,0.25,0.66v0.21
			c0,0.25-0.08,0.46-0.25,0.63c-0.16,0.17-0.38,0.25-0.65,0.25s-0.49-0.08-0.66-0.25c-0.17-0.16-0.25-0.38-0.25-0.65V173.54z
			 M126.98,173.77c0,0.13,0.04,0.24,0.12,0.33c0.08,0.08,0.18,0.13,0.3,0.13c0.13,0,0.22-0.04,0.29-0.12
			c0.07-0.08,0.11-0.19,0.11-0.34v-0.22c0-0.14-0.04-0.25-0.11-0.33s-0.17-0.12-0.29-0.12c-0.12,0-0.22,0.04-0.29,0.12
			s-0.11,0.2-0.11,0.34V173.77z"/>
	</g>
</g>
<polyline class="st4" points="117.45,172.74 114.52,172.74 108.49,166.89 105.19,166.89 "/>
<g>
	<path class="st0" d="M10.21,152.51H9.5v-3.43l-1.05,0.36v-0.6l1.66-0.61h0.09V152.51z"/>
	<path class="st0" d="M14.56,152.51h-2.87v-0.49l1.42-1.55c0.21-0.23,0.35-0.42,0.44-0.57s0.13-0.31,0.13-0.46
		c0-0.2-0.06-0.37-0.17-0.49c-0.11-0.13-0.27-0.19-0.46-0.19c-0.23,0-0.41,0.07-0.54,0.21s-0.19,0.33-0.19,0.58h-0.71
		c0-0.26,0.06-0.49,0.18-0.7s0.29-0.37,0.51-0.48c0.22-0.12,0.47-0.17,0.76-0.17c0.41,0,0.74,0.1,0.98,0.31
		c0.24,0.21,0.36,0.5,0.36,0.86c0,0.21-0.06,0.44-0.18,0.67c-0.12,0.23-0.32,0.5-0.59,0.8l-1.04,1.12h1.98V152.51z"/>
	<path class="st0" d="M15.07,149.07c0-0.26,0.08-0.47,0.25-0.63s0.38-0.25,0.65-0.25c0.27,0,0.49,0.08,0.66,0.25
		s0.25,0.38,0.25,0.65v0.21c0,0.26-0.08,0.47-0.25,0.63s-0.38,0.25-0.65,0.25c-0.26,0-0.48-0.08-0.65-0.24
		c-0.17-0.16-0.26-0.38-0.26-0.65V149.07z M15.57,149.29c0,0.13,0.04,0.24,0.11,0.33s0.17,0.13,0.3,0.13c0.12,0,0.22-0.04,0.29-0.13
		s0.11-0.2,0.11-0.34v-0.21c0-0.13-0.04-0.25-0.11-0.33c-0.08-0.08-0.17-0.13-0.3-0.13s-0.22,0.04-0.29,0.13
		c-0.07,0.08-0.11,0.2-0.11,0.34V149.29z M16.12,152.19l-0.37-0.21l2.08-3.33l0.37,0.21L16.12,152.19z M17.12,151.47
		c0-0.26,0.08-0.47,0.25-0.64s0.39-0.24,0.65-0.24c0.27,0,0.48,0.08,0.65,0.24c0.17,0.16,0.25,0.38,0.25,0.66v0.21
		c0,0.25-0.08,0.46-0.25,0.63s-0.38,0.25-0.65,0.25s-0.49-0.08-0.66-0.25c-0.17-0.16-0.25-0.38-0.25-0.65V151.47z M17.62,151.69
		c0,0.13,0.04,0.24,0.12,0.33c0.08,0.08,0.18,0.13,0.3,0.13c0.13,0,0.22-0.04,0.29-0.12c0.07-0.08,0.11-0.19,0.11-0.34v-0.22
		c0-0.14-0.04-0.25-0.11-0.33s-0.17-0.12-0.29-0.12c-0.12,0-0.22,0.04-0.29,0.12s-0.11,0.2-0.11,0.34V151.69z"/>
</g>
<polyline class="st5" points="21.95,150.44 24.88,150.44 30.91,155.97 34.21,155.97 "/>
<g>
	<path class="st1" d="M13.62,162.17h-0.71v-3.43l-1.05,0.36v-0.6l1.66-0.61h0.09V162.17z"/>
	<path class="st1" d="M15.07,158.72c0-0.26,0.08-0.47,0.25-0.63s0.38-0.25,0.65-0.25c0.27,0,0.49,0.08,0.66,0.25
		s0.25,0.38,0.25,0.65v0.21c0,0.26-0.08,0.47-0.25,0.63s-0.38,0.25-0.65,0.25c-0.26,0-0.48-0.08-0.65-0.24
		c-0.17-0.16-0.26-0.38-0.26-0.65V158.72z M15.57,158.95c0,0.13,0.04,0.24,0.11,0.33s0.17,0.13,0.3,0.13c0.12,0,0.22-0.04,0.29-0.13
		s0.11-0.2,0.11-0.34v-0.21c0-0.13-0.04-0.25-0.11-0.33c-0.08-0.08-0.17-0.13-0.3-0.13s-0.22,0.04-0.29,0.13
		c-0.07,0.08-0.11,0.2-0.11,0.34V158.95z M16.12,161.85l-0.37-0.21l2.08-3.33l0.37,0.21L16.12,161.85z M17.12,161.12
		c0-0.26,0.08-0.47,0.25-0.64s0.39-0.24,0.65-0.24c0.27,0,0.48,0.08,0.65,0.24c0.17,0.16,0.25,0.38,0.25,0.66v0.21
		c0,0.25-0.08,0.46-0.25,0.63s-0.38,0.25-0.65,0.25s-0.49-0.08-0.66-0.25c-0.17-0.16-0.25-0.38-0.25-0.65V161.12z M17.62,161.35
		c0,0.13,0.04,0.24,0.12,0.33c0.08,0.08,0.18,0.13,0.3,0.13c0.13,0,0.22-0.04,0.29-0.12c0.07-0.08,0.11-0.19,0.11-0.34v-0.22
		c0-0.14-0.04-0.25-0.11-0.33s-0.17-0.12-0.29-0.12c-0.12,0-0.22,0.04-0.29,0.12s-0.11,0.2-0.11,0.34V161.35z"/>
</g>
<polyline class="st2" points="21.95,160.14 24.88,160.14 30.91,166 34.21,166 "/>
<g>
	<path class="st3" d="M13.62,175.74h-0.71v-3.43l-1.05,0.36v-0.6l1.66-0.61h0.09V175.74z"/>
	<path class="st3" d="M15.07,172.29c0-0.26,0.08-0.47,0.25-0.63s0.38-0.25,0.65-0.25c0.27,0,0.49,0.08,0.66,0.25
		s0.25,0.38,0.25,0.65v0.21c0,0.26-0.08,0.47-0.25,0.63s-0.38,0.25-0.65,0.25c-0.26,0-0.48-0.08-0.65-0.24
		c-0.17-0.16-0.26-0.38-0.26-0.65V172.29z M15.57,172.52c0,0.13,0.04,0.24,0.11,0.33c0.08,0.08,0.17,0.13,0.3,0.13
		c0.12,0,0.22-0.04,0.29-0.13c0.07-0.08,0.11-0.2,0.11-0.34v-0.21c0-0.13-0.04-0.24-0.11-0.33c-0.08-0.08-0.17-0.13-0.3-0.13
		s-0.22,0.04-0.29,0.13c-0.07,0.08-0.11,0.2-0.11,0.34V172.52z M16.12,175.42l-0.37-0.21l2.08-3.33l0.37,0.21L16.12,175.42z
		 M17.12,174.69c0-0.26,0.08-0.47,0.25-0.64s0.39-0.24,0.65-0.24c0.27,0,0.48,0.08,0.65,0.24c0.17,0.16,0.25,0.38,0.25,0.66v0.21
		c0,0.25-0.08,0.46-0.25,0.63s-0.38,0.25-0.65,0.25s-0.49-0.08-0.66-0.24c-0.17-0.16-0.25-0.38-0.25-0.65V174.69z M17.62,174.92
		c0,0.13,0.04,0.24,0.12,0.33c0.08,0.08,0.18,0.13,0.3,0.13c0.13,0,0.22-0.04,0.29-0.12c0.07-0.08,0.11-0.2,0.11-0.34v-0.22
		c0-0.14-0.04-0.25-0.11-0.33s-0.17-0.12-0.29-0.12c-0.12,0-0.22,0.04-0.29,0.12s-0.11,0.2-0.11,0.34V174.92z"/>
</g>
<polyline class="st4" points="21.95,173.44 24.88,173.44 30.91,167.59 34.21,167.59 "/>
<polygon class="st6" points="54.21,146.23 85.71,135.09 85.71,160.55 54.21,165.33 "/>
<g>
	<rect x="85.71" y="135.09" class="st0" width="20" height="25.46"/>
	<rect x="85.71" y="160.55" class="st1" width="20" height="4.77"/>
	<rect x="85.71" y="165.33" class="st3" width="20" height="3.18"/>
</g>
<rect x="34.21" y="146.23" class="st0" width="20" height="19.1"/>
<rect x="34.21" y="165.33" class="st1" width="20" height="1.59"/>
<rect x="34.21" y="166.92" class="st3" width="20" height="1.59"/>
<polygon class="st29" points="54.21,166.92 85.71,165.33 85.71,160.55 54.21,165.33 "/>
<polygon class="st30" points="54.21,168.52 85.71,168.52 85.71,165.33 54.21,166.92 "/>
<g>
	<g>
		<path class="st32" d="M89.31,219.94c-0.03-0.07-0.06-0.19-0.09-0.37c-0.28,0.29-0.61,0.44-1,0.44c-0.35,0-0.63-0.1-0.86-0.3
			c-0.22-0.2-0.33-0.45-0.33-0.75c0-0.37,0.14-0.65,0.42-0.86c0.28-0.2,0.67-0.3,1.18-0.3h0.59v-0.28c0-0.21-0.06-0.38-0.19-0.5
			c-0.13-0.12-0.31-0.19-0.56-0.19c-0.22,0-0.39,0.05-0.54,0.16c-0.14,0.11-0.22,0.24-0.22,0.39h-0.61c0-0.18,0.06-0.35,0.19-0.51
			c0.12-0.16,0.29-0.29,0.51-0.39c0.21-0.1,0.45-0.14,0.7-0.14c0.41,0,0.72,0.1,0.95,0.3c0.23,0.2,0.35,0.48,0.36,0.84v1.62
			c0,0.32,0.04,0.58,0.12,0.77v0.05H89.31z M88.31,219.48c0.19,0,0.37-0.05,0.54-0.15c0.17-0.1,0.29-0.22,0.37-0.38v-0.72h-0.47
			c-0.74,0-1.11,0.22-1.11,0.65c0,0.19,0.06,0.34,0.19,0.44C87.95,219.42,88.11,219.48,88.31,219.48z"/>
		<path class="st32" d="M91.33,216.41l0.02,0.39c0.26-0.3,0.61-0.46,1.05-0.46c0.49,0,0.83,0.19,1.01,0.57
			c0.12-0.17,0.27-0.31,0.46-0.41c0.19-0.1,0.41-0.16,0.67-0.16c0.77,0,1.17,0.41,1.18,1.23v2.36h-0.6v-2.33
			c0-0.25-0.06-0.44-0.17-0.57c-0.12-0.12-0.31-0.19-0.58-0.19c-0.22,0-0.41,0.07-0.56,0.2c-0.15,0.13-0.23,0.31-0.26,0.54v2.34
			h-0.61v-2.31c0-0.51-0.25-0.77-0.75-0.77c-0.4,0-0.67,0.17-0.81,0.51v2.57h-0.6v-3.53H91.33z"/>
		<path class="st32" d="M99.59,218.21c0,0.54-0.12,0.97-0.37,1.3c-0.25,0.33-0.58,0.49-1,0.49c-0.45,0-0.79-0.16-1.03-0.47
			l-0.03,0.41h-0.55v-5h0.6v1.87c0.24-0.3,0.58-0.45,1.01-0.45c0.43,0,0.76,0.16,1.01,0.49c0.24,0.32,0.37,0.77,0.37,1.33V218.21z
			 M98.99,218.14c0-0.41-0.08-0.73-0.24-0.95c-0.16-0.22-0.39-0.34-0.68-0.34c-0.4,0-0.68,0.18-0.86,0.55v1.53
			c0.18,0.37,0.47,0.55,0.86,0.55c0.29,0,0.51-0.11,0.67-0.34C98.91,218.93,98.99,218.59,98.99,218.14z"/>
		<path class="st32" d="M100.35,215.48c0-0.1,0.03-0.18,0.09-0.25c0.06-0.07,0.15-0.1,0.26-0.1c0.12,0,0.21,0.03,0.27,0.1
			c0.06,0.07,0.09,0.15,0.09,0.25c0,0.1-0.03,0.18-0.09,0.24c-0.06,0.07-0.15,0.1-0.27,0.1c-0.12,0-0.2-0.03-0.26-0.1
			C100.39,215.66,100.35,215.57,100.35,215.48z M101.01,219.94h-0.6v-3.53h0.6V219.94z"/>
		<path class="st32" d="M103.43,220c-0.48,0-0.87-0.16-1.17-0.47c-0.3-0.31-0.45-0.73-0.45-1.26v-0.11c0-0.35,0.07-0.66,0.2-0.94
			c0.13-0.28,0.32-0.49,0.56-0.64c0.24-0.16,0.5-0.23,0.78-0.23c0.46,0,0.81,0.15,1.07,0.45s0.38,0.73,0.38,1.3v0.25h-2.39
			c0.01,0.35,0.11,0.63,0.3,0.84c0.19,0.21,0.44,0.32,0.74,0.32c0.21,0,0.39-0.04,0.54-0.13c0.15-0.09,0.28-0.2,0.39-0.35l0.37,0.29
			C104.47,219.77,104.02,220,103.43,220z M103.36,216.84c-0.24,0-0.45,0.09-0.61,0.26c-0.16,0.18-0.27,0.43-0.31,0.74h1.76v-0.05
			c-0.02-0.31-0.1-0.54-0.25-0.71C103.81,216.93,103.61,216.84,103.36,216.84z"/>
		<path class="st32" d="M106.08,216.41l0.02,0.44c0.27-0.34,0.62-0.51,1.06-0.51c0.74,0,1.12,0.42,1.13,1.26v2.33h-0.6v-2.33
			c0-0.25-0.06-0.44-0.17-0.56c-0.11-0.12-0.29-0.18-0.53-0.18c-0.2,0-0.37,0.05-0.51,0.16c-0.15,0.1-0.26,0.24-0.35,0.41v2.51h-0.6
			v-3.53H106.08z"/>
		<path class="st32" d="M110,215.56v0.85h0.66v0.47H110v2.19c0,0.14,0.03,0.25,0.09,0.32s0.16,0.11,0.3,0.11
			c0.07,0,0.16-0.01,0.29-0.04v0.49c-0.16,0.04-0.31,0.07-0.46,0.07c-0.27,0-0.47-0.08-0.61-0.24c-0.14-0.16-0.2-0.39-0.2-0.69
			v-2.18h-0.64v-0.47h0.64v-0.85H110z"/>
		<path class="st32" d="M113.54,219.94c-0.03-0.07-0.06-0.19-0.08-0.37c-0.28,0.29-0.62,0.44-1,0.44c-0.35,0-0.63-0.1-0.86-0.3
			c-0.22-0.2-0.33-0.45-0.33-0.75c0-0.37,0.14-0.65,0.42-0.86c0.28-0.2,0.67-0.3,1.18-0.3h0.59v-0.28c0-0.21-0.06-0.38-0.19-0.5
			c-0.13-0.12-0.31-0.19-0.56-0.19c-0.21,0-0.39,0.05-0.54,0.16c-0.15,0.11-0.22,0.24-0.22,0.39h-0.61c0-0.18,0.06-0.35,0.19-0.51
			c0.12-0.16,0.29-0.29,0.51-0.39c0.21-0.1,0.45-0.14,0.7-0.14c0.41,0,0.72,0.1,0.95,0.3c0.23,0.2,0.35,0.48,0.36,0.84v1.62
			c0,0.32,0.04,0.58,0.12,0.77v0.05H113.54z M112.54,219.48c0.19,0,0.37-0.05,0.54-0.15c0.17-0.1,0.29-0.22,0.37-0.38v-0.72h-0.47
			c-0.74,0-1.11,0.22-1.11,0.65c0,0.19,0.06,0.34,0.19,0.44C112.18,219.42,112.35,219.48,112.54,219.48z"/>
		<path class="st32" d="M115.65,219.94h-0.6v-5h0.6V219.94z"/>
	</g>
</g>
<rect x="73.4" y="213.49" class="st1" width="9" height="9"/>
<g>
	<path class="st32" d="M86.99,231.45c0-0.54,0.13-0.98,0.39-1.3c0.26-0.33,0.59-0.49,1.01-0.49c0.41,0,0.74,0.14,0.98,0.42v-1.84
		h0.6v5h-0.55l-0.03-0.38c-0.24,0.3-0.58,0.44-1.01,0.44c-0.41,0-0.74-0.17-1-0.5c-0.26-0.34-0.39-0.77-0.39-1.31V231.45z
		 M87.59,231.52c0,0.4,0.08,0.71,0.25,0.94c0.16,0.22,0.39,0.34,0.68,0.34c0.38,0,0.66-0.17,0.84-0.51v-1.62
		c-0.18-0.33-0.46-0.5-0.83-0.5c-0.3,0-0.53,0.11-0.69,0.34C87.67,230.73,87.59,231.07,87.59,231.52z"/>
	<path class="st32" d="M92.36,233.3c-0.48,0-0.87-0.16-1.17-0.47c-0.3-0.31-0.45-0.73-0.45-1.26v-0.11c0-0.35,0.07-0.66,0.2-0.94
		c0.13-0.28,0.32-0.49,0.56-0.64c0.24-0.16,0.5-0.23,0.78-0.23c0.46,0,0.81,0.15,1.07,0.45c0.25,0.3,0.38,0.73,0.38,1.3v0.25h-2.39
		c0.01,0.35,0.11,0.63,0.3,0.84c0.19,0.21,0.44,0.32,0.74,0.32c0.21,0,0.39-0.04,0.54-0.13c0.15-0.09,0.28-0.2,0.39-0.35l0.37,0.29
		C93.39,233.08,92.95,233.3,92.36,233.3z M92.28,230.14c-0.24,0-0.45,0.09-0.61,0.26c-0.16,0.18-0.27,0.43-0.31,0.74h1.76v-0.05
		c-0.02-0.31-0.1-0.54-0.25-0.71C92.74,230.23,92.54,230.14,92.28,230.14z"/>
	<path class="st32" d="M96.48,232.3c0-0.16-0.06-0.29-0.18-0.38c-0.12-0.09-0.34-0.17-0.64-0.23c-0.3-0.07-0.55-0.14-0.73-0.23
		c-0.18-0.09-0.31-0.2-0.4-0.33c-0.09-0.13-0.13-0.28-0.13-0.45c0-0.29,0.12-0.53,0.37-0.73s0.56-0.3,0.94-0.3
		c0.4,0,0.72,0.1,0.97,0.31c0.25,0.21,0.37,0.47,0.37,0.79h-0.61c0-0.16-0.07-0.31-0.21-0.43c-0.14-0.12-0.32-0.18-0.53-0.18
		c-0.22,0-0.39,0.05-0.51,0.14c-0.12,0.09-0.18,0.22-0.18,0.37c0,0.15,0.06,0.26,0.17,0.33c0.12,0.07,0.32,0.14,0.62,0.21
		c0.3,0.07,0.54,0.15,0.73,0.24c0.19,0.09,0.33,0.21,0.42,0.34c0.09,0.13,0.13,0.29,0.13,0.48c0,0.32-0.13,0.57-0.38,0.76
		c-0.25,0.19-0.58,0.28-0.98,0.28c-0.28,0-0.53-0.05-0.75-0.15c-0.22-0.1-0.39-0.24-0.51-0.42c-0.12-0.18-0.18-0.37-0.18-0.58h0.6
		c0.01,0.2,0.09,0.36,0.24,0.48c0.15,0.12,0.35,0.18,0.6,0.18c0.23,0,0.41-0.05,0.55-0.14C96.41,232.58,96.48,232.46,96.48,232.3z"
		/>
	<path class="st32" d="M100.05,233.24c-0.03-0.07-0.06-0.19-0.08-0.37c-0.28,0.29-0.62,0.44-1,0.44c-0.35,0-0.63-0.1-0.86-0.3
		c-0.22-0.2-0.33-0.45-0.33-0.75c0-0.37,0.14-0.65,0.42-0.86c0.28-0.2,0.67-0.3,1.18-0.3h0.59v-0.28c0-0.21-0.06-0.38-0.19-0.5
		c-0.13-0.13-0.31-0.19-0.56-0.19c-0.21,0-0.39,0.05-0.54,0.16c-0.15,0.11-0.22,0.24-0.22,0.39h-0.61c0-0.18,0.06-0.35,0.19-0.51
		c0.12-0.16,0.29-0.29,0.51-0.39c0.21-0.1,0.45-0.14,0.7-0.14c0.41,0,0.72,0.1,0.95,0.3c0.23,0.2,0.35,0.48,0.36,0.84v1.62
		c0,0.32,0.04,0.58,0.12,0.77v0.05H100.05z M99.05,232.78c0.19,0,0.37-0.05,0.54-0.15c0.17-0.1,0.29-0.22,0.37-0.38v-0.72h-0.47
		c-0.74,0-1.11,0.22-1.11,0.65c0,0.19,0.06,0.34,0.19,0.44C98.69,232.73,98.85,232.78,99.05,232.78z"/>
	<path class="st32" d="M104.48,231.52c0,0.54-0.12,0.97-0.37,1.3c-0.24,0.33-0.58,0.49-1,0.49c-0.43,0-0.76-0.14-1.01-0.41v1.7h-0.6
		v-4.88h0.55l0.03,0.39c0.25-0.3,0.59-0.46,1.02-0.46c0.42,0,0.76,0.16,1.01,0.48c0.25,0.32,0.37,0.76,0.37,1.33V231.52z
		 M103.87,231.45c0-0.4-0.09-0.71-0.25-0.94c-0.17-0.23-0.4-0.35-0.7-0.35c-0.36,0-0.64,0.16-0.82,0.49v1.68
		c0.18,0.32,0.46,0.48,0.83,0.48c0.29,0,0.52-0.11,0.69-0.34C103.79,232.24,103.87,231.9,103.87,231.45z"/>
	<path class="st32" d="M106.95,230.25c-0.09-0.01-0.19-0.02-0.3-0.02c-0.39,0-0.66,0.17-0.8,0.51v2.5h-0.6v-3.53h0.59l0.01,0.41
		c0.2-0.32,0.48-0.47,0.84-0.47c0.12,0,0.21,0.02,0.27,0.05V230.25z"/>
	<path class="st32" d="M107.27,231.44c0-0.34,0.07-0.66,0.2-0.93c0.14-0.28,0.32-0.49,0.57-0.64c0.24-0.15,0.52-0.22,0.83-0.22
		c0.48,0,0.87,0.17,1.16,0.5c0.3,0.33,0.44,0.77,0.44,1.33v0.04c0,0.34-0.07,0.65-0.2,0.92c-0.13,0.27-0.32,0.48-0.56,0.64
		c-0.24,0.15-0.53,0.23-0.84,0.23c-0.48,0-0.87-0.17-1.16-0.5c-0.3-0.33-0.44-0.77-0.44-1.32V231.44z M107.88,231.52
		c0,0.39,0.09,0.7,0.27,0.94s0.42,0.36,0.73,0.36c0.31,0,0.55-0.12,0.73-0.36c0.18-0.24,0.27-0.58,0.27-1.01
		c0-0.39-0.09-0.7-0.28-0.94c-0.18-0.24-0.43-0.36-0.73-0.36c-0.3,0-0.54,0.12-0.72,0.36C107.97,230.74,107.88,231.07,107.88,231.52
		z"/>
	<path class="st32" d="M114.22,231.52c0,0.54-0.12,0.97-0.37,1.3c-0.24,0.33-0.58,0.49-1,0.49c-0.43,0-0.76-0.14-1.01-0.41v1.7h-0.6
		v-4.88h0.55l0.03,0.39c0.25-0.3,0.59-0.46,1.02-0.46c0.42,0,0.76,0.16,1.01,0.48c0.25,0.32,0.37,0.76,0.37,1.33V231.52z
		 M113.61,231.45c0-0.4-0.09-0.71-0.25-0.94c-0.17-0.23-0.4-0.35-0.7-0.35c-0.36,0-0.64,0.16-0.82,0.49v1.68
		c0.18,0.32,0.46,0.48,0.83,0.48c0.29,0,0.52-0.11,0.69-0.34C113.53,232.24,113.61,231.9,113.61,231.45z"/>
	<path class="st32" d="M116.69,230.25c-0.09-0.01-0.19-0.02-0.3-0.02c-0.39,0-0.66,0.17-0.8,0.51v2.5h-0.6v-3.53h0.59l0.01,0.41
		c0.2-0.32,0.48-0.47,0.84-0.47c0.12,0,0.21,0.02,0.27,0.05V230.25z"/>
	<path class="st32" d="M117.24,228.78c0-0.1,0.03-0.18,0.09-0.25c0.06-0.07,0.15-0.1,0.26-0.1c0.12,0,0.21,0.03,0.27,0.1
		c0.06,0.07,0.09,0.15,0.09,0.25c0,0.1-0.03,0.18-0.09,0.24c-0.06,0.07-0.15,0.1-0.27,0.1c-0.12,0-0.2-0.03-0.26-0.1
		S117.24,228.88,117.24,228.78z M117.89,233.24h-0.6v-3.53h0.6V233.24z"/>
	<path class="st32" d="M121.03,233.24c-0.03-0.07-0.06-0.19-0.08-0.37c-0.28,0.29-0.62,0.44-1,0.44c-0.35,0-0.63-0.1-0.86-0.3
		c-0.22-0.2-0.33-0.45-0.33-0.75c0-0.37,0.14-0.65,0.42-0.86c0.28-0.2,0.67-0.3,1.18-0.3h0.59v-0.28c0-0.21-0.06-0.38-0.19-0.5
		c-0.12-0.13-0.31-0.19-0.56-0.19c-0.21,0-0.39,0.05-0.54,0.16c-0.15,0.11-0.22,0.24-0.22,0.39h-0.61c0-0.18,0.06-0.35,0.19-0.51
		c0.13-0.16,0.29-0.29,0.51-0.39c0.21-0.1,0.45-0.14,0.7-0.14c0.41,0,0.72,0.1,0.95,0.3c0.23,0.2,0.35,0.48,0.36,0.84v1.62
		c0,0.32,0.04,0.58,0.12,0.77v0.05H121.03z M120.03,232.78c0.19,0,0.37-0.05,0.54-0.15c0.17-0.1,0.29-0.22,0.37-0.38v-0.72h-0.47
		c-0.74,0-1.11,0.22-1.11,0.65c0,0.19,0.06,0.34,0.19,0.44C119.67,232.73,119.84,232.78,120.03,232.78z"/>
	<path class="st32" d="M123.9,232.81c0.22,0,0.4-0.07,0.56-0.2c0.16-0.13,0.25-0.29,0.27-0.49h0.57c-0.01,0.2-0.08,0.39-0.21,0.58
		c-0.13,0.18-0.3,0.33-0.51,0.44c-0.21,0.11-0.44,0.16-0.68,0.16c-0.48,0-0.86-0.16-1.14-0.48c-0.28-0.32-0.43-0.76-0.43-1.32v-0.1
		c0-0.34,0.06-0.65,0.19-0.91c0.13-0.27,0.31-0.47,0.54-0.62c0.24-0.15,0.51-0.22,0.84-0.22c0.39,0,0.72,0.12,0.99,0.36
		c0.26,0.24,0.4,0.55,0.42,0.92h-0.57c-0.02-0.23-0.1-0.42-0.26-0.56s-0.35-0.22-0.57-0.22c-0.31,0-0.54,0.11-0.71,0.33
		c-0.17,0.22-0.25,0.54-0.25,0.96v0.11c0,0.41,0.08,0.72,0.25,0.94S123.59,232.81,123.9,232.81z M124,233.27l-0.04,0.17
		c0.33,0.06,0.5,0.25,0.5,0.56c0,0.21-0.09,0.38-0.26,0.5c-0.17,0.12-0.42,0.18-0.73,0.18l-0.02-0.35c0.17,0,0.3-0.03,0.4-0.09
		c0.09-0.06,0.14-0.14,0.14-0.24c0-0.1-0.03-0.17-0.1-0.21c-0.07-0.05-0.21-0.08-0.42-0.1l0.11-0.44H124z"/>
	<path class="st32" d="M128.15,233.24c-0.03-0.07-0.06-0.19-0.08-0.37c-0.28,0.29-0.62,0.44-1,0.44c-0.35,0-0.63-0.1-0.86-0.3
		c-0.22-0.2-0.33-0.45-0.33-0.75c0-0.37,0.14-0.65,0.42-0.86c0.28-0.2,0.67-0.3,1.18-0.3h0.59v-0.28c0-0.21-0.06-0.38-0.19-0.5
		c-0.13-0.13-0.31-0.19-0.56-0.19c-0.21,0-0.39,0.05-0.54,0.16c-0.15,0.11-0.22,0.24-0.22,0.39h-0.61c0-0.18,0.06-0.35,0.19-0.51
		c0.12-0.16,0.29-0.29,0.51-0.39c0.21-0.1,0.45-0.14,0.7-0.14c0.41,0,0.72,0.1,0.95,0.3c0.23,0.2,0.35,0.48,0.36,0.84v1.62
		c0,0.32,0.04,0.58,0.12,0.77v0.05H128.15z M128.57,228.34c0,0.23-0.07,0.42-0.2,0.57c-0.13,0.15-0.3,0.22-0.5,0.22
		c-0.09,0-0.17-0.01-0.23-0.03c-0.07-0.02-0.15-0.07-0.26-0.13c-0.11-0.07-0.18-0.11-0.23-0.12c-0.05-0.01-0.1-0.02-0.16-0.02
		c-0.09,0-0.16,0.03-0.23,0.1c-0.06,0.07-0.09,0.16-0.09,0.26l-0.4-0.02c0-0.23,0.07-0.42,0.2-0.58c0.13-0.15,0.3-0.23,0.5-0.23
		c0.08,0,0.14,0.01,0.21,0.03c0.06,0.02,0.14,0.07,0.25,0.13c0.1,0.06,0.18,0.1,0.24,0.12c0.05,0.02,0.12,0.03,0.18,0.03
		c0.09,0,0.17-0.04,0.23-0.11c0.06-0.07,0.09-0.16,0.09-0.26L128.57,228.34z M127.15,232.78c0.19,0,0.37-0.05,0.54-0.15
		c0.17-0.1,0.29-0.22,0.37-0.38v-0.72h-0.47c-0.74,0-1.11,0.22-1.11,0.65c0,0.19,0.06,0.34,0.19,0.44
		C126.8,232.73,126.96,232.78,127.15,232.78z"/>
	<path class="st32" d="M129.45,231.44c0-0.34,0.07-0.66,0.2-0.93c0.14-0.28,0.32-0.49,0.57-0.64c0.24-0.15,0.52-0.22,0.83-0.22
		c0.48,0,0.87,0.17,1.16,0.5c0.3,0.33,0.44,0.77,0.44,1.33v0.04c0,0.34-0.07,0.65-0.2,0.92c-0.13,0.27-0.32,0.48-0.56,0.64
		c-0.24,0.15-0.53,0.23-0.84,0.23c-0.48,0-0.87-0.17-1.16-0.5c-0.3-0.33-0.44-0.77-0.44-1.32V231.44z M130.05,231.52
		c0,0.39,0.09,0.7,0.27,0.94s0.42,0.36,0.73,0.36c0.31,0,0.55-0.12,0.73-0.36c0.18-0.24,0.27-0.58,0.27-1.01
		c0-0.39-0.09-0.7-0.28-0.94c-0.18-0.24-0.43-0.36-0.73-0.36c-0.3,0-0.54,0.12-0.72,0.36C130.15,230.74,130.05,231.07,130.05,231.52
		z"/>
</g>
<rect x="73.4" y="226.79" class="st3" width="9" height="9"/>
<g>
	<path class="st32" d="M86.97,204.87c0-0.34,0.07-0.66,0.2-0.93c0.14-0.28,0.32-0.49,0.57-0.64c0.24-0.15,0.52-0.22,0.83-0.22
		c0.48,0,0.87,0.17,1.16,0.5c0.3,0.33,0.44,0.77,0.44,1.33v0.04c0,0.34-0.07,0.65-0.2,0.92c-0.13,0.27-0.32,0.48-0.56,0.64
		c-0.24,0.15-0.53,0.23-0.84,0.23c-0.48,0-0.86-0.17-1.16-0.5c-0.3-0.33-0.44-0.77-0.44-1.32V204.87z M87.58,204.94
		c0,0.39,0.09,0.7,0.27,0.94s0.42,0.36,0.73,0.36c0.31,0,0.55-0.12,0.73-0.36c0.18-0.24,0.27-0.58,0.27-1.01
		c0-0.39-0.09-0.7-0.28-0.94c-0.18-0.24-0.43-0.36-0.73-0.36c-0.3,0-0.54,0.12-0.72,0.36C87.67,204.16,87.58,204.5,87.58,204.94z"/>
	<path class="st32" d="M93.12,206.32c-0.23,0.28-0.58,0.41-1.03,0.41c-0.38,0-0.66-0.11-0.86-0.33c-0.2-0.22-0.3-0.54-0.3-0.97
		v-2.29h0.6v2.28c0,0.53,0.22,0.8,0.65,0.8c0.46,0,0.77-0.17,0.92-0.51v-2.56h0.6v3.53h-0.57L93.12,206.32z"/>
	<path class="st32" d="M95.43,202.29v0.85h0.66v0.47h-0.66v2.19c0,0.14,0.03,0.25,0.09,0.32c0.06,0.07,0.16,0.11,0.3,0.11
		c0.07,0,0.16-0.01,0.29-0.04v0.49c-0.16,0.04-0.31,0.07-0.46,0.07c-0.27,0-0.47-0.08-0.61-0.24c-0.14-0.16-0.21-0.39-0.21-0.69
		v-2.18h-0.64v-0.47h0.64v-0.85H95.43z"/>
	<path class="st32" d="M98.5,203.68c-0.09-0.01-0.19-0.02-0.3-0.02c-0.39,0-0.66,0.17-0.8,0.51v2.5h-0.6v-3.53h0.59l0.01,0.41
		c0.2-0.32,0.48-0.47,0.84-0.47c0.12,0,0.21,0.02,0.27,0.05V203.68z"/>
	<path class="st32" d="M98.83,204.87c0-0.34,0.07-0.66,0.2-0.93c0.14-0.28,0.32-0.49,0.57-0.64c0.24-0.15,0.52-0.22,0.83-0.22
		c0.48,0,0.87,0.17,1.16,0.5c0.3,0.33,0.44,0.77,0.44,1.33v0.04c0,0.34-0.07,0.65-0.2,0.92c-0.13,0.27-0.32,0.48-0.56,0.64
		c-0.24,0.15-0.53,0.23-0.84,0.23c-0.48,0-0.87-0.17-1.16-0.5c-0.3-0.33-0.44-0.77-0.44-1.32V204.87z M99.43,204.94
		c0,0.39,0.09,0.7,0.27,0.94s0.42,0.36,0.73,0.36c0.31,0,0.55-0.12,0.73-0.36c0.18-0.24,0.27-0.58,0.27-1.01
		c0-0.39-0.09-0.7-0.28-0.94c-0.18-0.24-0.43-0.36-0.73-0.36c-0.3,0-0.54,0.12-0.72,0.36C99.53,204.16,99.43,204.5,99.43,204.94z"/>
	<path class="st32" d="M104.85,205.73c0-0.16-0.06-0.29-0.18-0.38c-0.12-0.09-0.34-0.17-0.64-0.23c-0.31-0.07-0.55-0.14-0.73-0.23
		c-0.18-0.09-0.31-0.2-0.4-0.33s-0.13-0.28-0.13-0.45c0-0.29,0.12-0.53,0.37-0.73c0.24-0.2,0.56-0.3,0.94-0.3
		c0.4,0,0.72,0.1,0.97,0.31c0.25,0.21,0.37,0.47,0.37,0.79h-0.61c0-0.16-0.07-0.31-0.21-0.43c-0.14-0.12-0.32-0.18-0.53-0.18
		c-0.22,0-0.39,0.05-0.52,0.14c-0.12,0.09-0.19,0.22-0.19,0.37c0,0.15,0.06,0.26,0.17,0.33c0.12,0.07,0.32,0.14,0.62,0.21
		c0.3,0.07,0.54,0.15,0.73,0.24s0.33,0.21,0.42,0.34c0.09,0.13,0.13,0.29,0.13,0.48c0,0.32-0.13,0.57-0.38,0.76
		c-0.25,0.19-0.58,0.28-0.98,0.28c-0.28,0-0.53-0.05-0.75-0.15s-0.39-0.24-0.51-0.42c-0.12-0.18-0.18-0.37-0.18-0.58h0.6
		c0.01,0.2,0.09,0.36,0.24,0.48c0.15,0.12,0.35,0.18,0.6,0.18c0.23,0,0.41-0.05,0.55-0.14
		C104.78,206.01,104.85,205.88,104.85,205.73z"/>
</g>
<rect x="73.4" y="200.21" class="st0" width="9" height="9"/>
</svg>
