<?xml version="1.0" encoding="utf-8"?>
<!-- Generator: Adobe Illustrator 24.1.1, SVG Export Plug-In . SVG Version: 6.00 Build 0)  -->
<svg version="1.1" id="Camada_1" xmlns="http://www.w3.org/2000/svg" xmlns:xlink="http://www.w3.org/1999/xlink" x="0px" y="0px"
	 viewBox="0 0 139.91 273.63" style="enable-background:new 0 0 139.91 273.63;" xml:space="preserve">
<style type="text/css">
	.st0{fill:#D3D3D3;}
	.st1{fill:#9F9F9F;}
	.st2{fill:none;stroke:#9F9F9F;stroke-width:0.5;stroke-miterlimit:10;}
	.st3{fill:#727272;}
	.st4{fill:none;stroke:#727272;stroke-width:0.5;stroke-miterlimit:10;}
	.st5{fill:none;stroke:#D3D3D3;stroke-width:0.5;stroke-miterlimit:10;}
	.st6{opacity:0.3;fill:#BDBDBD;}
	.st7{fill:#18B4BF;}
	.st8{fill:#199EA8;}
	.st9{fill:#188892;}
	.st10{fill:#13737C;}
	.st11{fill:#0D5E65;}
	.st12{fill:#05484E;}
	.st13{fill:#003137;}
	.st14{fill:none;stroke:#0D5E65;stroke-width:0.5;stroke-miterlimit:10;}
	.st15{fill:#1997A1;}
	.st16{fill:none;stroke:#5C5C5C;stroke-width:0.25;stroke-miterlimit:10;}
	.st17{fill:#157A83;}
	.st18{fill:none;stroke:#13737C;stroke-width:0.5;stroke-miterlimit:10;}
	.st19{fill:#929191;}
	.st20{fill:none;stroke:#929191;stroke-width:0.5;stroke-miterlimit:10;}
	.st21{fill:#5C5C5C;}
	.st22{fill:none;stroke:#5C5C5C;stroke-width:0.5;stroke-miterlimit:10;}
	.st23{fill:none;stroke:#5C5C5C;stroke-width:0.75;stroke-miterlimit:10;}
	.st24{fill:none;stroke:#18B4BF;stroke-width:0.75;stroke-miterlimit:10;}
	.st25{fill:none;stroke:#18B4BF;stroke-width:0.25;stroke-miterlimit:10;}
	.st26{opacity:0.3;fill:#1E9BA3;}
	.st27{opacity:0.3;fill:#147D85;}
	.st28{opacity:0.3;fill:#0A5E65;}
	.st29{opacity:0.3;fill:#8A8A8A;}
	.st30{opacity:0.3;fill:#616262;}
	.st31{opacity:0.3;fill:#034146;}
	.st32{fill:#2B2B2B;}
</style>
<rect x="34.21" y="9.36" class="st7" width="20" height="74.8"/>
<rect x="85.71" y="9.36" class="st7" width="20" height="30.24"/>
<g>
	<path class="st7" d="M10.69,47.58h0.53v0.57h-0.53v0.95H9.97v-0.95H8.13l-0.02-0.43l1.84-2.88h0.74V47.58z M8.86,47.58h1.12V45.8
		l-0.05,0.09L8.86,47.58z"/>
	<path class="st7" d="M14.53,45.23l-1.71,3.87h-0.75l1.7-3.69h-2.21v-0.57h2.96V45.23z"/>
	<path class="st7" d="M15.07,45.65c0-0.26,0.08-0.47,0.25-0.63s0.38-0.25,0.65-0.25c0.27,0,0.49,0.08,0.66,0.25s0.25,0.38,0.25,0.65
		v0.21c0,0.26-0.08,0.47-0.25,0.63s-0.38,0.25-0.65,0.25c-0.26,0-0.48-0.08-0.65-0.24c-0.17-0.16-0.26-0.38-0.26-0.65V45.65z
		 M15.57,45.88c0,0.13,0.04,0.24,0.11,0.33c0.08,0.08,0.17,0.13,0.3,0.13c0.12,0,0.22-0.04,0.29-0.13c0.07-0.08,0.11-0.2,0.11-0.34
		v-0.21c0-0.13-0.04-0.24-0.11-0.33c-0.08-0.08-0.17-0.13-0.3-0.13c-0.12,0-0.22,0.04-0.29,0.13c-0.07,0.08-0.11,0.2-0.11,0.34
		V45.88z M16.12,48.78l-0.37-0.21l2.08-3.33l0.37,0.21L16.12,48.78z M17.12,48.05c0-0.26,0.08-0.47,0.25-0.64s0.39-0.24,0.65-0.24
		c0.27,0,0.48,0.08,0.65,0.24c0.17,0.16,0.25,0.38,0.25,0.66v0.21c0,0.25-0.08,0.46-0.25,0.63s-0.38,0.25-0.65,0.25
		s-0.49-0.08-0.66-0.24c-0.17-0.16-0.25-0.38-0.25-0.65V48.05z M17.62,48.28c0,0.13,0.04,0.24,0.12,0.33
		c0.08,0.08,0.18,0.13,0.3,0.13c0.13,0,0.22-0.04,0.29-0.12c0.07-0.08,0.11-0.2,0.11-0.34v-0.22c0-0.14-0.04-0.25-0.11-0.33
		s-0.17-0.12-0.29-0.12c-0.12,0-0.22,0.04-0.29,0.12s-0.11,0.2-0.11,0.34V48.28z"/>
</g>
<g>
	<path class="st7" d="M122.98,26.23h-0.71v-3.43l-1.05,0.36v-0.6l1.66-0.61h0.09V26.23z"/>
	<path class="st7" d="M126.48,24.45c-0.24,0.25-0.52,0.38-0.83,0.38c-0.38,0-0.67-0.13-0.9-0.39s-0.33-0.61-0.33-1.04
		c0-0.28,0.06-0.54,0.17-0.76c0.11-0.23,0.27-0.41,0.48-0.53s0.45-0.19,0.73-0.19c0.43,0,0.77,0.16,1.02,0.48s0.38,0.75,0.38,1.29
		v0.2c0,0.77-0.17,1.36-0.52,1.76s-0.87,0.61-1.56,0.62h-0.08v-0.59h0.1c0.42-0.01,0.74-0.11,0.97-0.3S126.45,24.86,126.48,24.45z
		 M125.79,24.27c0.14,0,0.28-0.04,0.4-0.12s0.22-0.2,0.29-0.34v-0.28c0-0.31-0.06-0.57-0.19-0.76s-0.3-0.29-0.5-0.29
		s-0.37,0.08-0.49,0.25s-0.18,0.38-0.18,0.64c0,0.27,0.06,0.48,0.18,0.65S125.59,24.27,125.79,24.27z"/>
	<path class="st7" d="M127.84,22.79c0-0.26,0.08-0.47,0.25-0.63s0.38-0.25,0.65-0.25c0.27,0,0.49,0.08,0.66,0.25
		s0.25,0.38,0.25,0.65v0.21c0,0.26-0.08,0.47-0.25,0.63s-0.38,0.25-0.65,0.25c-0.26,0-0.48-0.08-0.65-0.24
		c-0.17-0.16-0.26-0.38-0.26-0.65V22.79z M128.34,23.01c0,0.13,0.04,0.24,0.11,0.33c0.08,0.08,0.17,0.13,0.3,0.13
		c0.12,0,0.22-0.04,0.29-0.13c0.07-0.08,0.11-0.2,0.11-0.34v-0.21c0-0.13-0.04-0.24-0.11-0.33c-0.08-0.08-0.17-0.13-0.3-0.13
		s-0.22,0.04-0.29,0.13c-0.07,0.08-0.11,0.2-0.11,0.34V23.01z M128.89,25.91l-0.37-0.21l2.08-3.33l0.37,0.21L128.89,25.91z
		 M129.89,25.19c0-0.26,0.08-0.47,0.25-0.64s0.39-0.24,0.65-0.24c0.27,0,0.48,0.08,0.65,0.24c0.17,0.16,0.25,0.38,0.25,0.66v0.21
		c0,0.25-0.08,0.46-0.25,0.63s-0.38,0.25-0.65,0.25s-0.49-0.08-0.66-0.24c-0.17-0.16-0.25-0.38-0.25-0.65V25.19z M130.39,25.41
		c0,0.13,0.04,0.24,0.12,0.33c0.08,0.08,0.18,0.13,0.3,0.13c0.13,0,0.22-0.04,0.29-0.12c0.07-0.08,0.11-0.2,0.11-0.34v-0.22
		c0-0.14-0.04-0.25-0.11-0.33s-0.17-0.12-0.29-0.12c-0.12,0-0.22,0.04-0.29,0.12s-0.11,0.2-0.11,0.34V25.41z"/>
</g>
<polygon class="st26" points="54.21,9.36 85.71,9.36 85.71,39.6 54.21,84.16 "/>
<g>
	<path class="st32" d="M25.15,202.26v0.85h0.66v0.47h-0.66v2.19c0,0.14,0.03,0.25,0.09,0.32c0.06,0.07,0.16,0.11,0.3,0.11
		c0.07,0,0.16-0.01,0.29-0.04v0.49c-0.16,0.04-0.31,0.07-0.46,0.07c-0.27,0-0.47-0.08-0.61-0.24c-0.14-0.16-0.21-0.39-0.21-0.69
		v-2.18h-0.64v-0.47h0.64v-0.85H25.15z"/>
	<path class="st32" d="M27.97,206.7c-0.48,0-0.87-0.16-1.17-0.47c-0.3-0.31-0.45-0.73-0.45-1.26v-0.11c0-0.35,0.07-0.66,0.2-0.94
		c0.13-0.28,0.32-0.49,0.56-0.64c0.24-0.16,0.5-0.23,0.78-0.23c0.46,0,0.81,0.15,1.07,0.45c0.25,0.3,0.38,0.73,0.38,1.3v0.25h-2.39
		c0.01,0.35,0.11,0.63,0.3,0.84c0.19,0.21,0.44,0.32,0.74,0.32c0.21,0,0.39-0.04,0.54-0.13c0.15-0.09,0.28-0.2,0.39-0.35l0.37,0.29
		C29.01,206.47,28.56,206.7,27.97,206.7z M27.9,203.54c-0.24,0-0.45,0.09-0.61,0.26c-0.16,0.18-0.27,0.43-0.31,0.74h1.77v-0.05
		c-0.02-0.31-0.1-0.54-0.25-0.71C28.35,203.62,28.15,203.54,27.9,203.54z M28.19,201.63h0.73l-0.87,0.96l-0.49,0L28.19,201.63z"/>
	<path class="st32" d="M31.46,206.21c0.22,0,0.4-0.07,0.56-0.2s0.25-0.29,0.27-0.49h0.57c-0.01,0.2-0.08,0.39-0.21,0.58
		c-0.13,0.18-0.3,0.33-0.51,0.44c-0.21,0.11-0.44,0.16-0.68,0.16c-0.48,0-0.86-0.16-1.14-0.48c-0.28-0.32-0.42-0.76-0.42-1.32v-0.1
		c0-0.34,0.06-0.65,0.19-0.91c0.13-0.27,0.31-0.47,0.54-0.62c0.24-0.15,0.51-0.22,0.84-0.22c0.4,0,0.72,0.12,0.99,0.36
		c0.26,0.24,0.4,0.55,0.42,0.92h-0.57c-0.02-0.23-0.1-0.42-0.26-0.56c-0.15-0.15-0.35-0.22-0.58-0.22c-0.31,0-0.54,0.11-0.71,0.33
		c-0.17,0.22-0.25,0.54-0.25,0.96v0.11c0,0.41,0.08,0.72,0.25,0.94C30.91,206.1,31.15,206.21,31.46,206.21z"/>
	<path class="st32" d="M34.11,203.11l0.02,0.44c0.27-0.34,0.62-0.51,1.06-0.51c0.74,0,1.12,0.42,1.13,1.26v2.33h-0.6v-2.33
		c0-0.25-0.06-0.44-0.17-0.56c-0.11-0.12-0.29-0.18-0.53-0.18c-0.2,0-0.37,0.05-0.51,0.16c-0.15,0.1-0.26,0.24-0.35,0.41v2.51h-0.6
		v-3.53H34.11z"/>
	<path class="st32" d="M37.22,202.17c0-0.1,0.03-0.18,0.09-0.25c0.06-0.07,0.15-0.1,0.27-0.1c0.12,0,0.21,0.03,0.27,0.1
		c0.06,0.07,0.09,0.15,0.09,0.25c0,0.1-0.03,0.18-0.09,0.24c-0.06,0.07-0.15,0.1-0.27,0.1c-0.12,0-0.21-0.03-0.27-0.1
		C37.25,202.35,37.22,202.27,37.22,202.17z M37.87,206.63h-0.6v-3.53h0.6V206.63z"/>
	<path class="st32" d="M40.25,206.21c0.22,0,0.4-0.07,0.56-0.2c0.16-0.13,0.25-0.29,0.27-0.49h0.57c-0.01,0.2-0.08,0.39-0.21,0.58
		c-0.13,0.18-0.3,0.33-0.51,0.44c-0.21,0.11-0.44,0.16-0.68,0.16c-0.48,0-0.86-0.16-1.14-0.48c-0.28-0.32-0.42-0.76-0.42-1.32v-0.1
		c0-0.34,0.06-0.65,0.19-0.91c0.13-0.27,0.31-0.47,0.54-0.62c0.24-0.15,0.51-0.22,0.84-0.22c0.4,0,0.72,0.12,0.99,0.36
		c0.26,0.24,0.4,0.55,0.42,0.92h-0.57c-0.02-0.23-0.1-0.42-0.26-0.56c-0.15-0.15-0.35-0.22-0.58-0.22c-0.31,0-0.54,0.11-0.71,0.33
		c-0.17,0.22-0.25,0.54-0.25,0.96v0.11c0,0.41,0.08,0.72,0.25,0.94C39.7,206.1,39.94,206.21,40.25,206.21z"/>
	<path class="st32" d="M42.17,204.84c0-0.34,0.07-0.66,0.2-0.93c0.14-0.28,0.32-0.49,0.57-0.64c0.24-0.15,0.52-0.22,0.83-0.22
		c0.48,0,0.87,0.17,1.16,0.5c0.3,0.33,0.44,0.77,0.44,1.33v0.04c0,0.34-0.07,0.65-0.2,0.92c-0.13,0.27-0.32,0.48-0.56,0.64
		c-0.24,0.15-0.53,0.23-0.84,0.23c-0.48,0-0.87-0.17-1.16-0.5c-0.3-0.33-0.44-0.77-0.44-1.32V204.84z M42.78,204.91
		c0,0.39,0.09,0.7,0.27,0.94c0.18,0.24,0.42,0.36,0.73,0.36c0.31,0,0.55-0.12,0.73-0.36c0.18-0.24,0.27-0.58,0.27-1.01
		c0-0.39-0.09-0.7-0.28-0.94c-0.18-0.24-0.43-0.36-0.73-0.36c-0.3,0-0.54,0.12-0.72,0.36C42.87,204.13,42.78,204.47,42.78,204.91z"
		/>
</g>
<rect x="10.6" y="200.18" class="st7" width="9" height="9"/>
</svg>
