<?xml version="1.0" encoding="utf-8"?>
<!-- Generator: Adobe Illustrator 24.1.2, SVG Export Plug-In . SVG Version: 6.00 Build 0)  -->
<svg version="1.1" id="Camada_1" xmlns="http://www.w3.org/2000/svg" xmlns:xlink="http://www.w3.org/1999/xlink" x="0px" y="0px"
	 viewBox="0 0 57.75 57.14" style="enable-background:new 0 0 57.75 57.14;" xml:space="preserve">
<style type="text/css">
	.st0{fill:#0E121B;}
	.st1{fill:#282454;}
	.st2{fill:#282454;stroke:#FFFFFF;stroke-miterlimit:10;}
	.st3{fill:#282454;stroke:#FFFFFF;stroke-linecap:round;stroke-linejoin:round;stroke-miterlimit:10;}
	.st4{fill:#73C7D4;}
	.st5{fill:#F6A216;}
	.st6{fill:none;stroke:#21344A;stroke-miterlimit:10;}
	.st7{fill:#23354B;}
	.st8{fill:#2967AE;}
	.st9{fill:#11293B;}
	.st10{fill:#2866AE;}
	.st11{fill:#677080;}
	.st12{fill:#AAB5C7;}
	.st13{fill:#F3F0F0;}
	.st14{fill:#5D89C5;}
	.st15{fill:#21344A;}
	.st16{fill:#F6A115;}
	.st17{fill:#3E4F6B;}
	.st18{fill:#E9531B;}
	.st19{fill:#178998;}
	.st20{fill:#F29698;}
	.st21{fill:#D8D5D6;}
	.st22{fill:#616160;}
	.st23{fill:none;stroke:#E9E9E9;stroke-miterlimit:10;}
	.st24{fill:#FFFFFF;stroke:#020203;stroke-width:0.5;stroke-linecap:round;stroke-linejoin:round;}
	.st25{fill:none;stroke:#20354C;stroke-miterlimit:10;}
	.st26{fill:#D8D5D5;stroke:#20354C;stroke-miterlimit:10;}
	.st27{fill:#FFFFFF;}
	.st28{fill:#8A83BE;}
	.st29{fill:none;stroke:#21344A;stroke-width:2;stroke-linecap:round;stroke-linejoin:round;stroke-miterlimit:10;}
	.st30{fill:#8A83BE;stroke:#21344A;stroke-miterlimit:10;}
	.st31{fill:#DD4C43;}
	.st32{fill:#90C06D;}
	.st33{fill:#5E4A99;}
	.st34{fill:#8FCFCF;}
	.st35{fill:none;stroke:#21344A;stroke-width:0.25;stroke-miterlimit:10;}
	.st36{fill:#DD4C43;stroke:#22344A;stroke-width:0.75;stroke-miterlimit:10;}
	.st37{fill:#D8D5D5;stroke:#21344A;stroke-width:0.75;stroke-linecap:round;stroke-linejoin:round;stroke-miterlimit:10;}
	.st38{fill:#FFFFFF;stroke:#21344A;stroke-width:0.75;stroke-linecap:round;stroke-linejoin:round;stroke-miterlimit:10;}
	.st39{fill:#F6A115;stroke:#21344A;stroke-width:0.75;stroke-linecap:round;stroke-linejoin:round;stroke-miterlimit:10;}
	.st40{fill:#2866AE;stroke:#21344A;stroke-width:0.75;stroke-linecap:round;stroke-linejoin:round;}
	.st41{fill:#5E4A99;stroke:#23344A;stroke-width:0.75;stroke-miterlimit:10;}
	.st42{fill:#8A83BE;stroke:#23344A;stroke-width:0.75;stroke-miterlimit:10;}
	.st43{fill:#8FCFCF;stroke:#23344A;stroke-width:0.75;stroke-miterlimit:10;}
	.st44{fill:#D8D5D5;}
	.st45{fill:none;stroke:#21344A;stroke-width:0.5;stroke-linecap:round;stroke-linejoin:round;stroke-miterlimit:10;}
	.st46{fill:none;stroke:#21344A;stroke-width:6;stroke-linecap:round;stroke-linejoin:round;stroke-miterlimit:10;}
	.st47{fill:#F6A215;}
	.st48{fill:#22344B;}
	.st49{fill:#EE7337;}
	.st50{fill:#DB8914;}
	.st51{fill:#182533;}
	.st52{fill:#D15F33;}
	.st53{fill:#1D5766;stroke:#23344A;stroke-miterlimit:10;}
	.st54{fill:#282454;stroke:#23344A;stroke-miterlimit:10;}
	.st55{fill:#F6A320;stroke:#24344A;stroke-miterlimit:10;}
	.st56{fill:none;stroke:#24344A;stroke-linecap:round;stroke-linejoin:round;stroke-miterlimit:10;}
	.st57{fill:none;stroke:#FFFFFF;stroke-linecap:round;stroke-linejoin:round;stroke-miterlimit:10;}
	.st58{fill:#71B8BD;}
	.st59{opacity:0.15;fill:#FFFFFF;}
	.st60{fill:#FFFFFF;stroke:#21344A;stroke-width:2;stroke-linecap:round;stroke-linejoin:round;stroke-miterlimit:10;}
	.st61{fill:none;stroke:#FFFFFF;stroke-miterlimit:10;}
	.st62{fill:#F6A115;stroke:#FFFFFF;stroke-linecap:round;stroke-linejoin:round;stroke-miterlimit:10;}
	.st63{opacity:0.15;}
	.st64{fill:none;}
	.st65{fill:#1D5766;}
	.st66{fill:none;stroke:#22344A;stroke-miterlimit:10;}
	.st67{fill:#D8D5D5;stroke:#22344A;stroke-miterlimit:10;}
	.st68{fill:#F6A320;}
	.st69{fill:none;stroke:#21344A;stroke-width:0.75;stroke-miterlimit:10;}
	.st70{fill:none;stroke:#23344A;stroke-width:0.75;stroke-miterlimit:10;}
	.st71{fill:none;stroke:#21344A;stroke-width:0.8;stroke-miterlimit:10;}
	.st72{fill:#CD8829;stroke:#23344A;stroke-width:0.75;stroke-miterlimit:10;}
	.st73{fill:#71B8BD;stroke:#22344A;stroke-miterlimit:10;}
	.st74{fill:#71B8BD;stroke:#FFFFFF;stroke-miterlimit:10;}
	.st75{fill:#FFFFFF;stroke:#23344A;stroke-miterlimit:10;}
	.st76{fill:none;stroke:#23344A;stroke-miterlimit:10;}
	.st77{fill:#8A83BE;stroke:#21344A;stroke-width:0.5;stroke-miterlimit:10;}
	.st78{fill:none;stroke:#21344A;stroke-linecap:round;stroke-linejoin:round;stroke-miterlimit:10;}
	.st79{fill:#FFFFFF;stroke:#21344A;stroke-miterlimit:10;}
	.st80{fill:#DADADA;stroke:#21344A;stroke-miterlimit:10;}
	.st81{fill:#1D5766;stroke:#23344A;stroke-width:0.75;stroke-linecap:round;stroke-linejoin:round;stroke-miterlimit:10;}
	.st82{fill:#1D5766;stroke:#21344A;stroke-width:0.75;stroke-miterlimit:10;}
	.st83{fill:#282454;stroke:#23344A;stroke-width:0.5;stroke-miterlimit:10;}
	.st84{fill:#8FCFCF;stroke:#23344A;stroke-width:0.5;stroke-linecap:round;stroke-linejoin:round;stroke-miterlimit:10;}
	.st85{fill:#FFFFFF;stroke:#21344A;stroke-width:0.5;stroke-linecap:round;stroke-linejoin:round;stroke-miterlimit:10;}
	.st86{fill:none;stroke:#24354B;stroke-width:1.5;stroke-linecap:round;stroke-linejoin:round;stroke-miterlimit:10;}
	.st87{fill:none;stroke:#21344A;stroke-linecap:round;stroke-linejoin:round;}
	.st88{fill:#C84F45;stroke:#21344A;stroke-miterlimit:10;}
	.st89{fill:#B6CD14;}
	.st90{fill:#3BBFF0;}
	.st91{fill:#71B8BD;stroke:#22344A;stroke-width:0.75;stroke-miterlimit:10;}
	.st92{fill:#71B8BD;stroke:#24344A;stroke-miterlimit:10;}
	.st93{fill:#F6A320;stroke:#21344A;stroke-miterlimit:10;}
	.st94{fill:#FDB93F;}
	.st95{fill:none;stroke:#FFFFFF;stroke-width:3;stroke-linecap:round;stroke-linejoin:round;stroke-miterlimit:10;}
	.st96{fill:#CD8829;stroke:#23344A;stroke-linecap:round;stroke-linejoin:round;stroke-miterlimit:10;}
	.st97{fill:none;stroke:#FFFFFF;stroke-width:1.5;stroke-linecap:round;stroke-linejoin:round;stroke-miterlimit:10;}
	.st98{fill:#541113;}
	.st99{fill:none;stroke:#23354B;stroke-miterlimit:10;}
	.st100{fill:none;stroke:#21344A;stroke-width:0.75;stroke-linecap:round;stroke-linejoin:round;stroke-miterlimit:10;}
	.st101{fill:none;stroke:#23344A;stroke-width:0.75;stroke-linecap:round;stroke-linejoin:round;stroke-miterlimit:10;}
	.st102{fill:none;stroke:#22344A;stroke-width:0.75;stroke-linecap:round;stroke-linejoin:round;stroke-miterlimit:10;}
	.st103{fill:none;stroke:#21344A;stroke-width:0.5;stroke-miterlimit:10;}
	.st104{fill:#541113;stroke:#21344A;stroke-width:0.5;stroke-miterlimit:10;}
	.st105{fill:#F6A320;stroke:#21344A;stroke-width:0.75;stroke-miterlimit:10;}
	.st106{fill:#24354B;}
	.st107{fill:none;stroke:#24354B;stroke-width:2;stroke-miterlimit:10;}
	.st108{fill:none;stroke:#24354B;stroke-width:2;stroke-linecap:round;stroke-linejoin:round;stroke-miterlimit:10;}
	.st109{fill:#8FCFCF;stroke:#23344A;stroke-width:0.75;stroke-linecap:round;stroke-linejoin:round;stroke-miterlimit:10;}
	.st110{fill:#CD8829;stroke:#23344A;stroke-width:0.75;stroke-linecap:round;stroke-linejoin:round;stroke-miterlimit:10;}
	.st111{fill:#FFFFFF;stroke:#23344A;stroke-width:0.75;stroke-linecap:round;stroke-linejoin:round;stroke-miterlimit:10;}
	.st112{fill:#687181;}
	.st113{fill:#A9B4C6;}
	.st114{fill:none;stroke:#23344A;stroke-linecap:round;stroke-linejoin:round;stroke-miterlimit:10;}
	.st115{fill:#FFFFFF;stroke:#21344A;stroke-linecap:round;stroke-linejoin:round;stroke-miterlimit:10;}
	.st116{fill:#D8D5D5;stroke:#21344A;stroke-linecap:round;stroke-linejoin:round;stroke-miterlimit:10;}
	.st117{fill:#71B8BD;stroke:#22344A;stroke-width:0.75;stroke-linecap:round;stroke-linejoin:round;stroke-miterlimit:10;}
	.st118{fill:#CD8829;stroke:#23344A;stroke-width:0.5;stroke-miterlimit:10;}
	.st119{fill:#282454;stroke:#23344A;stroke-width:0.75;stroke-miterlimit:10;}
	.st120{fill:#E8A425;}
	.st121{fill:none;stroke:#24344A;stroke-miterlimit:10;}
	.st122{fill:#F6A320;stroke:#21344A;stroke-linecap:round;stroke-linejoin:round;stroke-miterlimit:10;}
	.st123{fill:#F6A320;stroke:#23344A;stroke-width:0.75;stroke-linecap:round;stroke-linejoin:round;stroke-miterlimit:10;}
	.st124{fill:none;stroke:#FFFFFF;stroke-width:0.75;stroke-miterlimit:10;}
	.st125{fill:#0E121B;stroke:#FFFFFF;stroke-miterlimit:10;}
	.st126{fill:#FFFFFF;stroke:#FFFFFF;stroke-miterlimit:10;}
	.st127{fill:#C78C20;stroke:#FFFFFF;stroke-width:0.75;stroke-linecap:round;stroke-linejoin:round;stroke-miterlimit:10;}
	.st128{fill:#BCB957;}
	.st129{fill:#5F9395;stroke:#FAFAFA;stroke-width:0.75;stroke-linecap:round;stroke-linejoin:round;stroke-miterlimit:10;}
	.st130{fill:#C78C20;stroke:#FAFAFA;stroke-width:0.75;stroke-linecap:round;stroke-linejoin:round;stroke-miterlimit:10;}
	.st131{fill:#BB4343;stroke:#FAFAFA;stroke-width:0.75;stroke-linecap:round;stroke-linejoin:round;stroke-miterlimit:10;}
	.st132{fill:#8FCFCF;stroke:#FAFAFA;stroke-width:0.75;stroke-linecap:round;stroke-linejoin:round;stroke-miterlimit:10;}
	.st133{fill:#0E121B;stroke:#FAFAFA;stroke-width:0.75;stroke-linecap:round;stroke-linejoin:round;stroke-miterlimit:10;}
	.st134{fill:#E5E4E4;stroke:#FFFFFF;stroke-width:0.5;stroke-linecap:round;stroke-linejoin:round;}
	.st135{fill:none;stroke:#FFFFFF;stroke-width:0.8;stroke-miterlimit:10;}
	.st136{fill:#293547;}
	.st137{fill:none;stroke:#FFFFFF;stroke-width:0.5;stroke-linecap:round;stroke-linejoin:round;stroke-miterlimit:10;}
	.st138{fill:#F6A320;stroke:#FFFFFF;stroke-width:0.75;stroke-linecap:round;stroke-linejoin:round;stroke-miterlimit:10;}
	.st139{fill:none;stroke:#FFFFFF;stroke-width:0.75;stroke-linecap:round;stroke-linejoin:round;stroke-miterlimit:10;}
	.st140{fill:#466E70;}
	.st141{fill:#5F9395;}
	.st142{fill:none;stroke:#FFFFFF;stroke-width:0.75;stroke-linecap:round;stroke-linejoin:round;}
	.st143{fill:#BB4343;}
	.st144{fill:#313F56;}
</style>
<rect x="-5.51" y="-4.66" class="st0" width="66.49" height="66.49"/>
<g id="XMLID_241_">
	<g>
		<path class="st0" d="M33.38,49.57c-0.58,0.67-1.58,1.39-3.3,1.81c-3.84,0.94-5.92,0.58-6.76-0.24c-1.41-1.37,0.11-5.19,0.07-6.88
			c-0.09-4.1-1.32-6.82-1.32-6.82l0-0.09c0.69,0,1.37,0.02,2.04,0.08c1.43,0.12,3.38,0.51,5.46,1.01l-0.01,0.02
			c-0.34-0.1-0.62,0.26-0.45,0.57l4.51,7.99C34.09,47.85,33.99,48.87,33.38,49.57z"/>
		<path class="st144" d="M49.13,40.52c-0.45,0.9-3.25,3.8-6.81,1.64c0,0,0,0,0,0c-0.04-0.02-0.78-0.41-1.44-0.99
			c-2.28-1.98-4.05-4.47-5.39-6.84c3.52-1.63,7.01-4.02,7.01-4.02l-0.01-0.02c1.36-0.67,1.71-3.83,0.79-7.18
			c-0.91-3.35-2.81-5.9-4.31-5.79l0-0.02c0,0-4.31-0.21-8.08,0.13c0.08-2.28,0.45-4.92,1.32-7.83c0.11-0.38,0.34-0.88,0.67-1.41
			c1.29-2.07,4.24-4.53,8.81-1.76c0,0,6.28,3.29,9.22,15.29C53.86,33.73,49.58,39.63,49.13,40.52z"/>
		<path class="st0" d="M42.32,42.16C42.32,42.16,42.32,42.16,42.32,42.16c-0.29-0.1-7.05-2.33-12.75-3.71
			c-2.08-0.5-4.03-0.89-5.46-1.01c-0.66-0.06-1.35-0.08-2.04-0.08c-4.96,0-10.15,1.31-10.15,1.31s-3.97,1.23-5.6-5.4
			c-1.49-6.07,0.68-8.2,1.05-8.52c0.03-0.03,0.07-0.05,0.11-0.06c0.71-0.27,8.1-3.11,12.16-5.39c4.13-2.32,12.64-10.64,13.17-11.16
			l0.06,0.04c-0.33,0.53-0.55,1.03-0.67,1.41c-0.87,2.9-1.24,5.54-1.32,7.83c-0.2,5.49,1.24,8.91,1.24,8.91s1,3.82,3.36,8
			c1.34,2.37,3.12,4.87,5.39,6.84C41.54,41.75,42.28,42.14,42.32,42.16z"/>
		<path class="st27" d="M42.31,42.16l-12.75-3.68l0.01-0.02C35.27,39.83,42.03,42.06,42.31,42.16z"/>
		<path class="st136" d="M42.5,30.31c0,0-3.49,2.39-7.01,4.02c-2.36-4.18-3.36-8-3.36-8s-1.44-3.41-1.24-8.91
			c3.77-0.34,8.08-0.13,8.08-0.13l0,0.02c-0.08,0-0.16,0.02-0.24,0.04c-1.54,0.42-1.98,3.74-1.02,7.27
			c0.96,3.53,3.01,6.17,4.55,5.75c0.08-0.02,0.15-0.05,0.22-0.09L42.5,30.31z"/>
		<path class="st136" d="M42.27,30.37c-1.54,0.42-3.59-2.22-4.55-5.75c-0.96-3.53-0.52-6.85,1.02-7.27
			c0.08-0.02,0.16-0.04,0.24-0.04c1.51-0.11,3.4,2.44,4.31,5.79c0.91,3.35,0.56,6.51-0.79,7.18C42.42,30.32,42.34,30.35,42.27,30.37
			z"/>
	</g>
	<g>
		<path class="st57" d="M42.32,42.16c-0.04-0.02-0.78-0.41-1.44-0.99c-2.28-1.98-4.05-4.47-5.39-6.84c-2.36-4.18-3.36-8-3.36-8
			s-1.44-3.41-1.24-8.91c0.08-2.28,0.45-4.92,1.32-7.83c0.11-0.38,0.34-0.88,0.67-1.41"/>
		<path class="st57" d="M42.31,42.16c-0.28-0.1-7.04-2.33-12.74-3.7c-2.08-0.5-4.03-0.89-5.46-1.01c-0.66-0.06-1.35-0.08-2.04-0.08
			c-4.96,0-10.15,1.31-10.15,1.31s-3.97,1.23-5.6-5.4c-1.49-6.07,0.68-8.2,1.05-8.52c0.03-0.03,0.07-0.05,0.11-0.06
			c0.71-0.27,8.1-3.11,12.16-5.39c4.13-2.32,12.64-10.64,13.17-11.16c0.02-0.02,0.03-0.03,0.03-0.03"/>
		<path class="st57" d="M32.87,8.19c1.29-2.07,4.24-4.53,8.81-1.76c0,0,6.28,3.29,9.22,15.29c2.95,12.01-1.34,17.9-1.78,18.8
			c-0.45,0.9-3.25,3.8-6.81,1.64c0,0,0,0,0,0"/>
		<line class="st57" x1="42.32" y1="42.16" x2="42.31" y2="42.16"/>
		<path class="st57" d="M22.08,37.45c0,0,1.23,2.72,1.32,6.82c0.04,1.69-1.48,5.5-0.07,6.88c0.84,0.82,2.91,1.18,6.76,0.24
			c1.72-0.42,2.72-1.14,3.3-1.81c0.61-0.71,0.7-1.73,0.24-2.54l-4.51-7.99c-0.17-0.3,0.11-0.66,0.45-0.57l12.75,3.68"/>
		<path class="st57" d="M38.97,17.31c-0.08,0-0.16,0.02-0.24,0.04c-1.54,0.42-1.98,3.74-1.02,7.27c0.96,3.53,3.01,6.17,4.55,5.75
			c0.08-0.02,0.15-0.05,0.22-0.09c1.36-0.67,1.71-3.83,0.79-7.18C42.38,19.75,40.48,17.21,38.97,17.31z"/>
		<path class="st57" d="M42.5,30.31c0,0-3.49,2.39-7.01,4.02"/>
		<path class="st57" d="M38.97,17.29c0,0-4.31-0.21-8.08,0.13"/>
	</g>
</g>
</svg>
