<?xml version="1.0" encoding="utf-8"?>
<!-- Generator: Adobe Illustrator 24.1.2, SVG Export Plug-In . SVG Version: 6.00 Build 0)  -->
<svg version="1.1" id="Camada_1" xmlns="http://www.w3.org/2000/svg" xmlns:xlink="http://www.w3.org/1999/xlink" x="0px" y="0px"
	 viewBox="0 0 57.75 57.14" style="enable-background:new 0 0 57.75 57.14;" xml:space="preserve">
<style type="text/css">
	.st0{fill:#0E121B;}
	.st1{fill:#282454;}
	.st2{fill:#282454;stroke:#FFFFFF;stroke-miterlimit:10;}
	.st3{fill:#282454;stroke:#FFFFFF;stroke-linecap:round;stroke-linejoin:round;stroke-miterlimit:10;}
	.st4{fill:#73C7D4;}
	.st5{fill:#F6A216;}
	.st6{fill:none;stroke:#21344A;stroke-miterlimit:10;}
	.st7{fill:#23354B;}
	.st8{fill:#2967AE;}
	.st9{fill:#11293B;}
	.st10{fill:#2866AE;}
	.st11{fill:#677080;}
	.st12{fill:#AAB5C7;}
	.st13{fill:#F3F0F0;}
	.st14{fill:#5D89C5;}
	.st15{fill:#21344A;}
	.st16{fill:#F6A115;}
	.st17{fill:#3E4F6B;}
	.st18{fill:#E9531B;}
	.st19{fill:#178998;}
	.st20{fill:#F29698;}
	.st21{fill:#D8D5D6;}
	.st22{fill:#616160;}
	.st23{fill:none;stroke:#E9E9E9;stroke-miterlimit:10;}
	.st24{fill:#FFFFFF;stroke:#020203;stroke-width:0.5;stroke-linecap:round;stroke-linejoin:round;}
	.st25{fill:none;stroke:#20354C;stroke-miterlimit:10;}
	.st26{fill:#D8D5D5;stroke:#20354C;stroke-miterlimit:10;}
	.st27{fill:#FFFFFF;}
	.st28{fill:#8A83BE;}
	.st29{fill:none;stroke:#21344A;stroke-width:2;stroke-linecap:round;stroke-linejoin:round;stroke-miterlimit:10;}
	.st30{fill:#8A83BE;stroke:#21344A;stroke-miterlimit:10;}
	.st31{fill:#DD4C43;}
	.st32{fill:#90C06D;}
	.st33{fill:#5E4A99;}
	.st34{fill:#8FCFCF;}
	.st35{fill:none;stroke:#21344A;stroke-width:0.25;stroke-miterlimit:10;}
	.st36{fill:#DD4C43;stroke:#22344A;stroke-width:0.75;stroke-miterlimit:10;}
	.st37{fill:#D8D5D5;stroke:#21344A;stroke-width:0.75;stroke-linecap:round;stroke-linejoin:round;stroke-miterlimit:10;}
	.st38{fill:#FFFFFF;stroke:#21344A;stroke-width:0.75;stroke-linecap:round;stroke-linejoin:round;stroke-miterlimit:10;}
	.st39{fill:#F6A115;stroke:#21344A;stroke-width:0.75;stroke-linecap:round;stroke-linejoin:round;stroke-miterlimit:10;}
	.st40{fill:#2866AE;stroke:#21344A;stroke-width:0.75;stroke-linecap:round;stroke-linejoin:round;}
	.st41{fill:#5E4A99;stroke:#23344A;stroke-width:0.75;stroke-miterlimit:10;}
	.st42{fill:#8A83BE;stroke:#23344A;stroke-width:0.75;stroke-miterlimit:10;}
	.st43{fill:#8FCFCF;stroke:#23344A;stroke-width:0.75;stroke-miterlimit:10;}
	.st44{fill:#D8D5D5;}
	.st45{fill:none;stroke:#21344A;stroke-width:0.5;stroke-linecap:round;stroke-linejoin:round;stroke-miterlimit:10;}
	.st46{fill:none;stroke:#21344A;stroke-width:6;stroke-linecap:round;stroke-linejoin:round;stroke-miterlimit:10;}
	.st47{fill:#F6A215;}
	.st48{fill:#22344B;}
	.st49{fill:#EE7337;}
	.st50{fill:#DB8914;}
	.st51{fill:#182533;}
	.st52{fill:#D15F33;}
	.st53{fill:#1D5766;stroke:#23344A;stroke-miterlimit:10;}
	.st54{fill:#282454;stroke:#23344A;stroke-miterlimit:10;}
	.st55{fill:#F6A320;stroke:#24344A;stroke-miterlimit:10;}
	.st56{fill:none;stroke:#24344A;stroke-linecap:round;stroke-linejoin:round;stroke-miterlimit:10;}
	.st57{fill:none;stroke:#FFFFFF;stroke-linecap:round;stroke-linejoin:round;stroke-miterlimit:10;}
	.st58{fill:#71B8BD;}
	.st59{opacity:0.15;fill:#FFFFFF;}
	.st60{fill:#FFFFFF;stroke:#21344A;stroke-width:2;stroke-linecap:round;stroke-linejoin:round;stroke-miterlimit:10;}
	.st61{fill:none;stroke:#FFFFFF;stroke-miterlimit:10;}
	.st62{fill:#F6A115;stroke:#FFFFFF;stroke-linecap:round;stroke-linejoin:round;stroke-miterlimit:10;}
	.st63{opacity:0.15;}
	.st64{fill:none;}
	.st65{fill:#1D5766;}
	.st66{fill:none;stroke:#22344A;stroke-miterlimit:10;}
	.st67{fill:#D8D5D5;stroke:#22344A;stroke-miterlimit:10;}
	.st68{fill:#F6A320;}
	.st69{fill:none;stroke:#21344A;stroke-width:0.75;stroke-miterlimit:10;}
	.st70{fill:none;stroke:#23344A;stroke-width:0.75;stroke-miterlimit:10;}
	.st71{fill:none;stroke:#21344A;stroke-width:0.8;stroke-miterlimit:10;}
	.st72{fill:#CD8829;stroke:#23344A;stroke-width:0.75;stroke-miterlimit:10;}
	.st73{fill:#71B8BD;stroke:#22344A;stroke-miterlimit:10;}
	.st74{fill:#71B8BD;stroke:#FFFFFF;stroke-miterlimit:10;}
	.st75{fill:#FFFFFF;stroke:#23344A;stroke-miterlimit:10;}
	.st76{fill:none;stroke:#23344A;stroke-miterlimit:10;}
	.st77{fill:#8A83BE;stroke:#21344A;stroke-width:0.5;stroke-miterlimit:10;}
	.st78{fill:none;stroke:#21344A;stroke-linecap:round;stroke-linejoin:round;stroke-miterlimit:10;}
	.st79{fill:#FFFFFF;stroke:#21344A;stroke-miterlimit:10;}
	.st80{fill:#DADADA;stroke:#21344A;stroke-miterlimit:10;}
	.st81{fill:#1D5766;stroke:#23344A;stroke-width:0.75;stroke-linecap:round;stroke-linejoin:round;stroke-miterlimit:10;}
	.st82{fill:#1D5766;stroke:#21344A;stroke-width:0.75;stroke-miterlimit:10;}
	.st83{fill:#282454;stroke:#23344A;stroke-width:0.5;stroke-miterlimit:10;}
	.st84{fill:#8FCFCF;stroke:#23344A;stroke-width:0.5;stroke-linecap:round;stroke-linejoin:round;stroke-miterlimit:10;}
	.st85{fill:#FFFFFF;stroke:#21344A;stroke-width:0.5;stroke-linecap:round;stroke-linejoin:round;stroke-miterlimit:10;}
	.st86{fill:none;stroke:#24354B;stroke-width:1.5;stroke-linecap:round;stroke-linejoin:round;stroke-miterlimit:10;}
	.st87{fill:none;stroke:#21344A;stroke-linecap:round;stroke-linejoin:round;}
	.st88{fill:#C84F45;stroke:#21344A;stroke-miterlimit:10;}
	.st89{fill:#B6CD14;}
	.st90{fill:#3BBFF0;}
	.st91{fill:#71B8BD;stroke:#22344A;stroke-width:0.75;stroke-miterlimit:10;}
	.st92{fill:#71B8BD;stroke:#24344A;stroke-miterlimit:10;}
	.st93{fill:#F6A320;stroke:#21344A;stroke-miterlimit:10;}
	.st94{fill:#FDB93F;}
	.st95{fill:none;stroke:#FFFFFF;stroke-width:3;stroke-linecap:round;stroke-linejoin:round;stroke-miterlimit:10;}
	.st96{fill:#CD8829;stroke:#23344A;stroke-linecap:round;stroke-linejoin:round;stroke-miterlimit:10;}
	.st97{fill:none;stroke:#FFFFFF;stroke-width:1.5;stroke-linecap:round;stroke-linejoin:round;stroke-miterlimit:10;}
	.st98{fill:#541113;}
	.st99{fill:none;stroke:#23354B;stroke-miterlimit:10;}
	.st100{fill:none;stroke:#21344A;stroke-width:0.75;stroke-linecap:round;stroke-linejoin:round;stroke-miterlimit:10;}
	.st101{fill:none;stroke:#23344A;stroke-width:0.75;stroke-linecap:round;stroke-linejoin:round;stroke-miterlimit:10;}
	.st102{fill:none;stroke:#22344A;stroke-width:0.75;stroke-linecap:round;stroke-linejoin:round;stroke-miterlimit:10;}
	.st103{fill:none;stroke:#21344A;stroke-width:0.5;stroke-miterlimit:10;}
	.st104{fill:#541113;stroke:#21344A;stroke-width:0.5;stroke-miterlimit:10;}
	.st105{fill:#F6A320;stroke:#21344A;stroke-width:0.75;stroke-miterlimit:10;}
	.st106{fill:#24354B;}
	.st107{fill:none;stroke:#24354B;stroke-width:2;stroke-miterlimit:10;}
	.st108{fill:none;stroke:#24354B;stroke-width:2;stroke-linecap:round;stroke-linejoin:round;stroke-miterlimit:10;}
	.st109{fill:#8FCFCF;stroke:#23344A;stroke-width:0.75;stroke-linecap:round;stroke-linejoin:round;stroke-miterlimit:10;}
	.st110{fill:#CD8829;stroke:#23344A;stroke-width:0.75;stroke-linecap:round;stroke-linejoin:round;stroke-miterlimit:10;}
	.st111{fill:#FFFFFF;stroke:#23344A;stroke-width:0.75;stroke-linecap:round;stroke-linejoin:round;stroke-miterlimit:10;}
	.st112{fill:#687181;}
	.st113{fill:#A9B4C6;}
	.st114{fill:none;stroke:#23344A;stroke-linecap:round;stroke-linejoin:round;stroke-miterlimit:10;}
	.st115{fill:#FFFFFF;stroke:#21344A;stroke-linecap:round;stroke-linejoin:round;stroke-miterlimit:10;}
	.st116{fill:#D8D5D5;stroke:#21344A;stroke-linecap:round;stroke-linejoin:round;stroke-miterlimit:10;}
	.st117{fill:#71B8BD;stroke:#22344A;stroke-width:0.75;stroke-linecap:round;stroke-linejoin:round;stroke-miterlimit:10;}
	.st118{fill:#CD8829;stroke:#23344A;stroke-width:0.5;stroke-miterlimit:10;}
	.st119{fill:#282454;stroke:#23344A;stroke-width:0.75;stroke-miterlimit:10;}
	.st120{fill:#E8A425;}
	.st121{fill:none;stroke:#24344A;stroke-miterlimit:10;}
	.st122{fill:#F6A320;stroke:#21344A;stroke-linecap:round;stroke-linejoin:round;stroke-miterlimit:10;}
	.st123{fill:#F6A320;stroke:#23344A;stroke-width:0.75;stroke-linecap:round;stroke-linejoin:round;stroke-miterlimit:10;}
	.st124{fill:none;stroke:#FFFFFF;stroke-width:0.75;stroke-miterlimit:10;}
	.st125{fill:#0E121B;stroke:#FFFFFF;stroke-miterlimit:10;}
	.st126{fill:#FFFFFF;stroke:#FFFFFF;stroke-miterlimit:10;}
	.st127{fill:#C78C20;stroke:#FFFFFF;stroke-width:0.75;stroke-linecap:round;stroke-linejoin:round;stroke-miterlimit:10;}
	.st128{fill:#BCB957;}
	.st129{fill:#5F9395;stroke:#FAFAFA;stroke-width:0.75;stroke-linecap:round;stroke-linejoin:round;stroke-miterlimit:10;}
	.st130{fill:#C78C20;stroke:#FAFAFA;stroke-width:0.75;stroke-linecap:round;stroke-linejoin:round;stroke-miterlimit:10;}
	.st131{fill:#BB4343;stroke:#FAFAFA;stroke-width:0.75;stroke-linecap:round;stroke-linejoin:round;stroke-miterlimit:10;}
	.st132{fill:#8FCFCF;stroke:#FAFAFA;stroke-width:0.75;stroke-linecap:round;stroke-linejoin:round;stroke-miterlimit:10;}
	.st133{fill:#0E121B;stroke:#FAFAFA;stroke-width:0.75;stroke-linecap:round;stroke-linejoin:round;stroke-miterlimit:10;}
	.st134{fill:#E5E4E4;stroke:#FFFFFF;stroke-width:0.5;stroke-linecap:round;stroke-linejoin:round;}
	.st135{fill:none;stroke:#FFFFFF;stroke-width:0.8;stroke-miterlimit:10;}
	.st136{fill:#293547;}
	.st137{fill:none;stroke:#FFFFFF;stroke-width:0.5;stroke-linecap:round;stroke-linejoin:round;stroke-miterlimit:10;}
	.st138{fill:#F6A320;stroke:#FFFFFF;stroke-width:0.75;stroke-linecap:round;stroke-linejoin:round;stroke-miterlimit:10;}
	.st139{fill:none;stroke:#FFFFFF;stroke-width:0.75;stroke-linecap:round;stroke-linejoin:round;stroke-miterlimit:10;}
	.st140{fill:none;stroke:#FFFFFF;stroke-width:0.75;stroke-linecap:round;stroke-linejoin:round;}
</style>
<rect x="-5.51" y="-4.66" class="st0" width="66.49" height="66.49"/>
<g>
	<g id="XMLID_220_">
		<g>
			<path class="st0" d="M49.88,24.66v7.51c0,3.74-6.06,6.78-13.55,6.78s-13.55-3.03-13.55-6.78v-7.51c0,1.39,0.84,2.68,2.27,3.76
				c2.43,1.82,6.57,3.02,11.28,3.02s8.85-1.2,11.27-3.02C49.04,27.34,49.88,26.05,49.88,24.66z M45.38,33.69
				c0-0.13-0.02-0.26-0.07-0.37c-0.15-0.39-0.52-0.67-0.97-0.67c-0.57,0-1.04,0.46-1.04,1.04c0,0.08,0.01,0.16,0.03,0.24
				c0.11,0.46,0.52,0.8,1.01,0.8C44.92,34.72,45.38,34.26,45.38,33.69z"/>
			<path class="st0" d="M49.88,17.14v7.52c0,1.39-0.84,2.68-2.27,3.76c-2.43,1.82-6.57,3.02-11.27,3.02s-8.85-1.2-11.28-3.02
				c-1.44-1.07-2.27-2.37-2.27-3.76v-7.52c0,1.39,0.84,2.68,2.28,3.76c2.43,1.82,6.57,3.02,11.27,3.02s8.84-1.2,11.27-3.02
				C49.04,19.83,49.88,18.54,49.88,17.14z M45.38,26.21c0-0.13-0.02-0.26-0.07-0.37c-0.15-0.39-0.52-0.66-0.97-0.66
				c-0.57,0-1.04,0.46-1.04,1.04c0,0.08,0.01,0.16,0.03,0.24c0.11,0.46,0.52,0.8,1.01,0.8C44.92,27.25,45.38,26.78,45.38,26.21z"/>
			<path class="st0" d="M49.88,9.63v7.51c0,1.39-0.84,2.68-2.28,3.76c-2.43,1.82-6.57,3.02-11.27,3.02s-8.84-1.2-11.27-3.02
				c-1.44-1.07-2.28-2.37-2.28-3.76V9.63c0,1.39,0.84,2.68,2.27,3.76c2.43,1.82,6.57,3.02,11.28,3.02s8.85-1.2,11.27-3.02
				C49.04,12.31,49.88,11.02,49.88,9.63z M45.38,18.74c0-0.13-0.02-0.25-0.07-0.37c-0.15-0.39-0.52-0.67-0.97-0.67
				c-0.57,0-1.04,0.46-1.04,1.04c0,0.08,0.01,0.16,0.03,0.24c0.11,0.46,0.52,0.8,1.01,0.8C44.92,19.77,45.38,19.31,45.38,18.74z"/>
			<path class="st136" d="M49.88,9.63c0,1.39-0.84,2.68-2.27,3.76c-2.43,1.82-6.57,3.02-11.27,3.02s-8.85-1.2-11.28-3.02
				c-1.44-1.08-2.27-2.37-2.27-3.76c0-3.74,6.07-6.78,13.55-6.78S49.88,5.89,49.88,9.63z"/>
			<path class="st68" d="M45.31,18.37c0.04,0.12,0.07,0.24,0.07,0.37c0,0.57-0.46,1.04-1.04,1.04c-0.49,0-0.9-0.34-1.01-0.8
				c-0.02-0.08-0.03-0.16-0.03-0.24c0-0.57,0.46-1.04,1.04-1.04C44.79,17.7,45.16,17.98,45.31,18.37z"/>
			<path class="st68" d="M45.31,25.84c0.04,0.12,0.07,0.24,0.07,0.37c0,0.57-0.46,1.04-1.04,1.04c-0.49,0-0.9-0.34-1.01-0.8
				c-0.02-0.08-0.03-0.16-0.03-0.24c0-0.57,0.46-1.04,1.04-1.04C44.79,25.18,45.16,25.45,45.31,25.84z"/>
			<path class="st68" d="M45.31,33.32c0.04,0.11,0.07,0.24,0.07,0.37c0,0.57-0.46,1.04-1.04,1.04c-0.49,0-0.9-0.34-1.01-0.8
				c-0.02-0.08-0.03-0.16-0.03-0.24c0-0.57,0.46-1.04,1.04-1.04C44.79,32.65,45.16,32.93,45.31,33.32z"/>
		</g>
		<g>
			<path class="st137" d="M22.78,9.63c0-3.74,6.07-6.78,13.55-6.78s13.55,3.04,13.55,6.78"/>
			<path class="st137" d="M22.78,17.14V9.63c0,1.39,0.84,2.68,2.27,3.76c2.43,1.82,6.57,3.02,11.28,3.02s8.85-1.2,11.27-3.02
				c1.44-1.08,2.27-2.37,2.27-3.76v7.51"/>
			<path class="st137" d="M49.88,24.66v7.51c0,3.74-6.06,6.78-13.55,6.78s-13.55-3.03-13.55-6.78v-7.51"/>
			<path class="st137" d="M49.88,17.14v7.52c0,1.39-0.84,2.68-2.27,3.76c-2.43,1.82-6.57,3.02-11.27,3.02s-8.85-1.2-11.28-3.02
				c-1.44-1.07-2.27-2.37-2.27-3.76v-7.52c0,1.39,0.84,2.68,2.28,3.76c2.43,1.82,6.57,3.02,11.27,3.02s8.84-1.2,11.27-3.02
				C49.04,19.83,49.88,18.54,49.88,17.14z"/>
			<path class="st137" d="M45.38,18.74c0,0.57-0.46,1.04-1.04,1.04c-0.49,0-0.9-0.34-1.01-0.8c-0.02-0.08-0.03-0.16-0.03-0.24
				c0-0.57,0.46-1.04,1.04-1.04c0.44,0,0.82,0.28,0.97,0.67C45.36,18.49,45.38,18.61,45.38,18.74z"/>
			<path class="st137" d="M45.38,26.21c0,0.57-0.46,1.04-1.04,1.04c-0.49,0-0.9-0.34-1.01-0.8c-0.02-0.08-0.03-0.16-0.03-0.24
				c0-0.57,0.46-1.04,1.04-1.04c0.44,0,0.82,0.28,0.97,0.66C45.36,25.96,45.38,26.08,45.38,26.21z"/>
			<path class="st137" d="M45.38,33.69c0,0.57-0.46,1.04-1.04,1.04c-0.49,0-0.9-0.34-1.01-0.8c-0.02-0.08-0.03-0.16-0.03-0.24
				c0-0.57,0.46-1.04,1.04-1.04c0.44,0,0.82,0.28,0.97,0.67C45.36,33.43,45.38,33.56,45.38,33.69z"/>
		</g>
	</g>
	<g id="XMLID_218_">
		<g>
			<path class="st0" d="M34.97,39.99v7.52c0,1.39-0.84,2.68-2.27,3.76c-2.43,1.82-6.57,3.02-11.27,3.02s-8.85-1.2-11.28-3.02
				c-1.44-1.07-2.27-2.37-2.27-3.76v-7.52c0,1.39,0.84,2.68,2.28,3.76c2.43,1.82,6.57,3.02,11.27,3.02s8.84-1.2,11.27-3.02
				C34.13,42.68,34.97,41.39,34.97,39.99z M30.47,49.06c0-0.13-0.02-0.26-0.07-0.37c-0.15-0.39-0.52-0.66-0.97-0.66
				c-0.57,0-1.04,0.46-1.04,1.04c0,0.08,0.01,0.16,0.03,0.24c0.11,0.46,0.52,0.8,1.01,0.8C30.01,50.1,30.47,49.64,30.47,49.06z"/>
			<path class="st0" d="M34.97,32.48v7.51c0,1.39-0.84,2.68-2.28,3.76c-2.43,1.82-6.57,3.02-11.27,3.02s-8.84-1.2-11.27-3.02
				c-1.44-1.07-2.28-2.37-2.28-3.76v-7.51c0,1.39,0.84,2.68,2.27,3.76c2.43,1.82,6.57,3.02,11.28,3.02s8.85-1.2,11.27-3.02
				C34.13,35.16,34.97,33.87,34.97,32.48z M30.47,41.59c0-0.13-0.02-0.25-0.07-0.37c-0.15-0.39-0.52-0.67-0.97-0.67
				c-0.57,0-1.04,0.46-1.04,1.04c0,0.08,0.01,0.16,0.03,0.24c0.11,0.46,0.52,0.8,1.01,0.8C30.01,42.62,30.47,42.16,30.47,41.59z"/>
			<path class="st136" d="M34.97,32.48c0,1.39-0.84,2.68-2.27,3.76c-2.43,1.82-6.57,3.02-11.27,3.02s-8.85-1.2-11.28-3.02
				c-1.44-1.08-2.27-2.37-2.27-3.76c0-3.74,6.07-6.78,13.55-6.78S34.97,28.74,34.97,32.48z"/>
			<path class="st68" d="M30.4,41.22c0.04,0.12,0.07,0.24,0.07,0.37c0,0.57-0.46,1.04-1.04,1.04c-0.49,0-0.9-0.34-1.01-0.8
				c-0.02-0.08-0.03-0.16-0.03-0.24c0-0.57,0.46-1.04,1.04-1.04C29.88,40.55,30.25,40.83,30.4,41.22z"/>
			<path class="st68" d="M30.4,48.69c0.04,0.12,0.07,0.24,0.07,0.37c0,0.57-0.46,1.04-1.04,1.04c-0.49,0-0.9-0.34-1.01-0.8
				c-0.02-0.08-0.03-0.16-0.03-0.24c0-0.57,0.46-1.04,1.04-1.04C29.88,48.03,30.25,48.3,30.4,48.69z"/>
		</g>
		<g>
			<path class="st137" d="M7.87,32.48c0-3.74,6.07-6.78,13.55-6.78s13.55,3.04,13.55,6.78"/>
			<path class="st137" d="M7.87,39.99v-7.51c0,1.39,0.84,2.68,2.27,3.76c2.43,1.82,6.57,3.02,11.28,3.02s8.85-1.2,11.27-3.02
				c1.44-1.08,2.27-2.37,2.27-3.76v7.51"/>
			<path class="st137" d="M34.97,39.99v7.52c0,1.39-0.84,2.68-2.27,3.76c-2.43,1.82-6.57,3.02-11.27,3.02s-8.85-1.2-11.28-3.02
				c-1.44-1.07-2.27-2.37-2.27-3.76v-7.52c0,1.39,0.84,2.68,2.28,3.76c2.43,1.82,6.57,3.02,11.27,3.02s8.84-1.2,11.27-3.02
				C34.13,42.68,34.97,41.39,34.97,39.99z"/>
			<path class="st137" d="M30.47,41.59c0,0.57-0.46,1.04-1.04,1.04c-0.49,0-0.9-0.34-1.01-0.8c-0.02-0.08-0.03-0.16-0.03-0.24
				c0-0.57,0.46-1.04,1.04-1.04c0.44,0,0.82,0.28,0.97,0.67C30.45,41.34,30.47,41.46,30.47,41.59z"/>
			<path class="st137" d="M30.47,49.06c0,0.57-0.46,1.04-1.04,1.04c-0.49,0-0.9-0.34-1.01-0.8c-0.02-0.08-0.03-0.16-0.03-0.24
				c0-0.57,0.46-1.04,1.04-1.04c0.44,0,0.82,0.28,0.97,0.66C30.45,48.81,30.47,48.93,30.47,49.06z"/>
		</g>
	</g>
</g>
</svg>
