<?xml version="1.0" encoding="utf-8"?>
<!-- Generator: Adobe Illustrator 24.1.2, SVG Export Plug-In . SVG Version: 6.00 Build 0)  -->
<svg version="1.1" id="Camada_1" xmlns="http://www.w3.org/2000/svg" xmlns:xlink="http://www.w3.org/1999/xlink" x="0px" y="0px"
	 viewBox="0 0 142.73 57.14" style="enable-background:new 0 0 142.73 57.14;" xml:space="preserve">
<style type="text/css">
	.st0{fill:#0E121B;}
	.st1{fill:#282454;}
	.st2{fill:#282454;stroke:#FFFFFF;stroke-miterlimit:10;}
	.st3{fill:#282454;stroke:#FFFFFF;stroke-linecap:round;stroke-linejoin:round;stroke-miterlimit:10;}
	.st4{fill:#73C7D4;}
	.st5{fill:#F6A216;}
	.st6{fill:none;stroke:#21344A;stroke-miterlimit:10;}
	.st7{fill:#23354B;}
	.st8{fill:#2967AE;}
	.st9{fill:#11293B;}
	.st10{fill:#2866AE;}
	.st11{fill:#677080;}
	.st12{fill:#AAB5C7;}
	.st13{fill:#F3F0F0;}
	.st14{fill:#5D89C5;}
	.st15{fill:#21344A;}
	.st16{fill:#F6A115;}
	.st17{fill:#3E4F6B;}
	.st18{fill:#E9531B;}
	.st19{fill:#178998;}
	.st20{fill:#F29698;}
	.st21{fill:#D8D5D6;}
	.st22{fill:#616160;}
	.st23{fill:none;stroke:#E9E9E9;stroke-miterlimit:10;}
	.st24{fill:#FFFFFF;stroke:#020203;stroke-width:0.5;stroke-linecap:round;stroke-linejoin:round;}
	.st25{fill:none;stroke:#20354C;stroke-miterlimit:10;}
	.st26{fill:#D8D5D5;stroke:#20354C;stroke-miterlimit:10;}
	.st27{fill:#FFFFFF;}
	.st28{fill:#8A83BE;}
	.st29{fill:none;stroke:#21344A;stroke-width:2;stroke-linecap:round;stroke-linejoin:round;stroke-miterlimit:10;}
	.st30{fill:#8A83BE;stroke:#21344A;stroke-miterlimit:10;}
	.st31{fill:#DD4C43;}
	.st32{fill:#90C06D;}
	.st33{fill:#5E4A99;}
	.st34{fill:#8FCFCF;}
	.st35{fill:none;stroke:#21344A;stroke-width:0.25;stroke-miterlimit:10;}
	.st36{fill:#DD4C43;stroke:#22344A;stroke-width:0.75;stroke-miterlimit:10;}
	.st37{fill:#D8D5D5;stroke:#21344A;stroke-width:0.75;stroke-linecap:round;stroke-linejoin:round;stroke-miterlimit:10;}
	.st38{fill:#FFFFFF;stroke:#21344A;stroke-width:0.75;stroke-linecap:round;stroke-linejoin:round;stroke-miterlimit:10;}
	.st39{fill:#F6A115;stroke:#21344A;stroke-width:0.75;stroke-linecap:round;stroke-linejoin:round;stroke-miterlimit:10;}
	.st40{fill:#2866AE;stroke:#21344A;stroke-width:0.75;stroke-linecap:round;stroke-linejoin:round;}
	.st41{fill:#5E4A99;stroke:#23344A;stroke-width:0.75;stroke-miterlimit:10;}
	.st42{fill:#8A83BE;stroke:#23344A;stroke-width:0.75;stroke-miterlimit:10;}
	.st43{fill:#8FCFCF;stroke:#23344A;stroke-width:0.75;stroke-miterlimit:10;}
	.st44{fill:#D8D5D5;}
	.st45{fill:none;stroke:#21344A;stroke-width:0.5;stroke-linecap:round;stroke-linejoin:round;stroke-miterlimit:10;}
	.st46{fill:none;stroke:#21344A;stroke-width:6;stroke-linecap:round;stroke-linejoin:round;stroke-miterlimit:10;}
	.st47{fill:#F6A215;}
	.st48{fill:#22344B;}
	.st49{fill:#EE7337;}
	.st50{fill:#DB8914;}
	.st51{fill:#182533;}
	.st52{fill:#D15F33;}
	.st53{fill:#1D5766;stroke:#23344A;stroke-miterlimit:10;}
	.st54{fill:#282454;stroke:#23344A;stroke-miterlimit:10;}
	.st55{fill:#F6A320;stroke:#24344A;stroke-miterlimit:10;}
	.st56{fill:none;stroke:#24344A;stroke-linecap:round;stroke-linejoin:round;stroke-miterlimit:10;}
	.st57{fill:none;stroke:#FFFFFF;stroke-linecap:round;stroke-linejoin:round;stroke-miterlimit:10;}
	.st58{fill:#71B8BD;}
	.st59{opacity:0.15;fill:#FFFFFF;}
	.st60{fill:#FFFFFF;stroke:#21344A;stroke-width:2;stroke-linecap:round;stroke-linejoin:round;stroke-miterlimit:10;}
	.st61{fill:none;stroke:#FFFFFF;stroke-miterlimit:10;}
	.st62{fill:#F6A115;stroke:#FFFFFF;stroke-linecap:round;stroke-linejoin:round;stroke-miterlimit:10;}
	.st63{opacity:0.15;}
	.st64{fill:none;}
	.st65{fill:#1D5766;}
	.st66{fill:none;stroke:#22344A;stroke-miterlimit:10;}
	.st67{fill:#D8D5D5;stroke:#22344A;stroke-miterlimit:10;}
	.st68{fill:#F6A320;}
	.st69{fill:none;stroke:#21344A;stroke-width:0.75;stroke-miterlimit:10;}
	.st70{fill:none;stroke:#23344A;stroke-width:0.75;stroke-miterlimit:10;}
	.st71{fill:none;stroke:#21344A;stroke-width:0.8;stroke-miterlimit:10;}
	.st72{fill:#CD8829;stroke:#23344A;stroke-width:0.75;stroke-miterlimit:10;}
	.st73{fill:#71B8BD;stroke:#22344A;stroke-miterlimit:10;}
	.st74{fill:#71B8BD;stroke:#FFFFFF;stroke-miterlimit:10;}
	.st75{fill:#FFFFFF;stroke:#23344A;stroke-miterlimit:10;}
	.st76{fill:none;stroke:#23344A;stroke-miterlimit:10;}
	.st77{fill:#8A83BE;stroke:#21344A;stroke-width:0.5;stroke-miterlimit:10;}
	.st78{fill:none;stroke:#21344A;stroke-linecap:round;stroke-linejoin:round;stroke-miterlimit:10;}
	.st79{fill:#FFFFFF;stroke:#21344A;stroke-miterlimit:10;}
	.st80{fill:#DADADA;stroke:#21344A;stroke-miterlimit:10;}
	.st81{fill:#1D5766;stroke:#23344A;stroke-width:0.75;stroke-linecap:round;stroke-linejoin:round;stroke-miterlimit:10;}
	.st82{fill:#1D5766;stroke:#21344A;stroke-width:0.75;stroke-miterlimit:10;}
	.st83{fill:#282454;stroke:#23344A;stroke-width:0.5;stroke-miterlimit:10;}
	.st84{fill:#8FCFCF;stroke:#23344A;stroke-width:0.5;stroke-linecap:round;stroke-linejoin:round;stroke-miterlimit:10;}
	.st85{fill:#FFFFFF;stroke:#21344A;stroke-width:0.5;stroke-linecap:round;stroke-linejoin:round;stroke-miterlimit:10;}
	.st86{fill:none;stroke:#24354B;stroke-width:1.5;stroke-linecap:round;stroke-linejoin:round;stroke-miterlimit:10;}
	.st87{fill:none;stroke:#21344A;stroke-linecap:round;stroke-linejoin:round;}
	.st88{fill:#C84F45;stroke:#21344A;stroke-miterlimit:10;}
	.st89{fill:#B6CD14;}
	.st90{fill:#3BBFF0;}
	.st91{fill:#71B8BD;stroke:#22344A;stroke-width:0.75;stroke-miterlimit:10;}
	.st92{fill:#71B8BD;stroke:#24344A;stroke-miterlimit:10;}
	.st93{fill:#F6A320;stroke:#21344A;stroke-miterlimit:10;}
	.st94{fill:#FDB93F;}
	.st95{fill:none;stroke:#FFFFFF;stroke-width:3;stroke-linecap:round;stroke-linejoin:round;stroke-miterlimit:10;}
	.st96{fill:#CD8829;stroke:#23344A;stroke-linecap:round;stroke-linejoin:round;stroke-miterlimit:10;}
	.st97{fill:none;stroke:#FFFFFF;stroke-width:1.5;stroke-linecap:round;stroke-linejoin:round;stroke-miterlimit:10;}
	.st98{fill:#541113;}
	.st99{fill:none;stroke:#23354B;stroke-miterlimit:10;}
	.st100{fill:none;stroke:#21344A;stroke-width:0.75;stroke-linecap:round;stroke-linejoin:round;stroke-miterlimit:10;}
	.st101{fill:none;stroke:#23344A;stroke-width:0.75;stroke-linecap:round;stroke-linejoin:round;stroke-miterlimit:10;}
	.st102{fill:none;stroke:#22344A;stroke-width:0.75;stroke-linecap:round;stroke-linejoin:round;stroke-miterlimit:10;}
	.st103{fill:none;stroke:#21344A;stroke-width:0.5;stroke-miterlimit:10;}
	.st104{fill:#541113;stroke:#21344A;stroke-width:0.5;stroke-miterlimit:10;}
	.st105{fill:#F6A320;stroke:#21344A;stroke-width:0.75;stroke-miterlimit:10;}
	.st106{fill:#24354B;}
	.st107{fill:none;stroke:#24354B;stroke-width:2;stroke-miterlimit:10;}
	.st108{fill:none;stroke:#24354B;stroke-width:2;stroke-linecap:round;stroke-linejoin:round;stroke-miterlimit:10;}
	.st109{fill:#8FCFCF;stroke:#23344A;stroke-width:0.75;stroke-linecap:round;stroke-linejoin:round;stroke-miterlimit:10;}
	.st110{fill:#CD8829;stroke:#23344A;stroke-width:0.75;stroke-linecap:round;stroke-linejoin:round;stroke-miterlimit:10;}
	.st111{fill:#FFFFFF;stroke:#23344A;stroke-width:0.75;stroke-linecap:round;stroke-linejoin:round;stroke-miterlimit:10;}
	.st112{fill:#687181;}
	.st113{fill:#A9B4C6;}
	.st114{fill:none;stroke:#23344A;stroke-linecap:round;stroke-linejoin:round;stroke-miterlimit:10;}
	.st115{fill:#FFFFFF;stroke:#21344A;stroke-linecap:round;stroke-linejoin:round;stroke-miterlimit:10;}
	.st116{fill:#D8D5D5;stroke:#21344A;stroke-linecap:round;stroke-linejoin:round;stroke-miterlimit:10;}
	.st117{fill:#71B8BD;stroke:#22344A;stroke-width:0.75;stroke-linecap:round;stroke-linejoin:round;stroke-miterlimit:10;}
	.st118{fill:#CD8829;stroke:#23344A;stroke-width:0.5;stroke-miterlimit:10;}
	.st119{fill:#282454;stroke:#23344A;stroke-width:0.75;stroke-miterlimit:10;}
	.st120{fill:#E8A425;}
	.st121{fill:none;stroke:#24344A;stroke-miterlimit:10;}
	.st122{fill:#F6A320;stroke:#21344A;stroke-linecap:round;stroke-linejoin:round;stroke-miterlimit:10;}
	.st123{fill:#F6A320;stroke:#23344A;stroke-width:0.75;stroke-linecap:round;stroke-linejoin:round;stroke-miterlimit:10;}
	.st124{fill:none;stroke:#FFFFFF;stroke-width:0.75;stroke-miterlimit:10;}
	.st125{fill:#0E121B;stroke:#FFFFFF;stroke-miterlimit:10;}
	.st126{fill:#FFFFFF;stroke:#FFFFFF;stroke-miterlimit:10;}
	.st127{fill:#C78C20;stroke:#FFFFFF;stroke-width:0.75;stroke-linecap:round;stroke-linejoin:round;stroke-miterlimit:10;}
	.st128{fill:#BCB957;}
	.st129{fill:#5F9395;stroke:#FAFAFA;stroke-width:0.75;stroke-linecap:round;stroke-linejoin:round;stroke-miterlimit:10;}
	.st130{fill:#C78C20;stroke:#FAFAFA;stroke-width:0.75;stroke-linecap:round;stroke-linejoin:round;stroke-miterlimit:10;}
	.st131{fill:#BB4343;stroke:#FAFAFA;stroke-width:0.75;stroke-linecap:round;stroke-linejoin:round;stroke-miterlimit:10;}
	.st132{fill:#8FCFCF;stroke:#FAFAFA;stroke-width:0.75;stroke-linecap:round;stroke-linejoin:round;stroke-miterlimit:10;}
	.st133{fill:#0E121B;stroke:#FAFAFA;stroke-width:0.75;stroke-linecap:round;stroke-linejoin:round;stroke-miterlimit:10;}
	.st134{fill:#E5E4E4;stroke:#FFFFFF;stroke-width:0.5;stroke-linecap:round;stroke-linejoin:round;}
	.st135{fill:none;stroke:#FFFFFF;stroke-width:0.8;stroke-miterlimit:10;}
	.st136{fill:#293547;}
	.st137{fill:none;stroke:#FFFFFF;stroke-width:0.5;stroke-linecap:round;stroke-linejoin:round;stroke-miterlimit:10;}
	.st138{fill:#F6A320;stroke:#FFFFFF;stroke-width:0.75;stroke-linecap:round;stroke-linejoin:round;stroke-miterlimit:10;}
	.st139{fill:none;stroke:#FFFFFF;stroke-width:0.75;stroke-linecap:round;stroke-linejoin:round;stroke-miterlimit:10;}
	.st140{fill:#466E70;}
	.st141{fill:#5F9395;}
	.st142{fill:none;stroke:#FFFFFF;stroke-width:0.75;stroke-linecap:round;stroke-linejoin:round;}
	.st143{fill:#BB4343;}
</style>
<rect x="-22.13" y="-4.66" class="st0" width="181.31" height="66.49"/>
<g>
	<g id="XMLID_235_">
		<g>
			<polygon class="st140" points="43.98,14.29 43.98,22.99 36.45,27.35 36.45,18.64 			"/>
			<polygon class="st141" points="43.98,14.29 36.45,18.64 28.91,14.29 36.45,9.94 			"/>
			<polygon class="st140" points="36.45,18.64 36.45,27.35 28.91,22.99 28.91,14.29 			"/>
		</g>
		<g>
			<polygon class="st139" points="43.98,14.29 36.45,9.94 28.91,14.29 28.91,22.99 36.45,27.35 43.98,22.99 			"/>
			<polyline class="st139" points="28.91,14.29 36.45,18.64 43.98,14.29 			"/>
			<line class="st139" x1="36.45" y1="18.64" x2="36.45" y2="27.35"/>
		</g>
	</g>
	<g id="XMLID_234_">
		<g>
			<polygon class="st140" points="61.78,14.13 61.78,22.83 54.25,27.18 54.25,18.48 			"/>
			<polygon class="st141" points="61.78,14.13 54.25,18.48 46.71,14.13 54.25,9.78 			"/>
			<polygon class="st140" points="54.25,18.48 54.25,27.18 46.71,22.83 46.71,14.13 			"/>
		</g>
		<g>
			<polygon class="st139" points="61.78,14.13 54.25,9.78 46.71,14.13 46.71,22.83 54.25,27.18 61.78,22.83 			"/>
			<polyline class="st139" points="46.71,14.13 54.25,18.48 61.78,14.13 			"/>
			<line class="st139" x1="54.25" y1="18.48" x2="54.25" y2="27.18"/>
		</g>
	</g>
	<g id="XMLID_233_">
		<g>
			<polygon class="st140" points="80.12,14.06 80.12,22.77 72.59,27.12 72.59,18.41 			"/>
			<polygon class="st141" points="80.12,14.06 72.59,18.41 65.05,14.06 72.59,9.71 			"/>
			<polygon class="st140" points="72.59,18.41 72.59,27.12 65.05,22.77 65.05,14.06 			"/>
		</g>
		<g>
			<polygon class="st139" points="80.12,14.06 72.59,9.71 65.05,14.06 65.05,22.77 72.59,27.12 80.12,22.77 			"/>
			<polyline class="st139" points="65.05,14.06 72.59,18.41 80.12,14.06 			"/>
			<line class="st139" x1="72.59" y1="18.41" x2="72.59" y2="27.12"/>
		</g>
	</g>
	<g id="XMLID_232_">
		<g>
			<polygon class="st140" points="97.92,13.67 97.92,22.37 90.39,26.72 90.39,18.02 			"/>
			<polygon class="st141" points="97.92,13.67 90.39,18.02 82.85,13.67 90.39,9.32 			"/>
			<polygon class="st140" points="90.39,18.02 90.39,26.72 82.85,22.37 82.85,13.67 			"/>
		</g>
		<g>
			<polygon class="st139" points="97.92,13.67 90.39,9.32 82.85,13.67 82.85,22.37 90.39,26.72 97.92,22.37 			"/>
			<polyline class="st139" points="82.85,13.67 90.39,18.02 97.92,13.67 			"/>
			<line class="st139" x1="90.39" y1="18.02" x2="90.39" y2="26.72"/>
		</g>
	</g>
	<g id="XMLID_230_">
		<g>
			<polygon class="st140" points="115.86,13.67 115.86,22.37 108.33,26.72 108.33,18.02 			"/>
			<polygon class="st141" points="115.86,13.67 108.33,18.02 100.79,13.67 108.33,9.32 			"/>
			<polygon class="st140" points="108.33,18.02 108.33,26.72 100.79,22.37 100.79,13.67 			"/>
		</g>
		<g>
			<polygon class="st139" points="115.86,13.67 108.33,9.32 100.79,13.67 100.79,22.37 108.33,26.72 115.86,22.37 			"/>
			<polyline class="st139" points="100.79,13.67 108.33,18.02 115.86,13.67 			"/>
			<line class="st139" x1="108.33" y1="18.02" x2="108.33" y2="26.72"/>
		</g>
	</g>
	<g id="XMLID_229_">
		<g>
			<polygon class="st140" points="97.92,34.11 97.92,42.81 90.39,47.16 90.39,38.46 			"/>
			<polygon class="st141" points="97.92,34.11 90.39,38.46 82.85,34.11 90.39,29.76 			"/>
			<polygon class="st140" points="90.39,38.46 90.39,47.16 82.85,42.81 82.85,34.11 			"/>
		</g>
		<g>
			<polygon class="st139" points="97.92,34.11 90.39,29.76 82.85,34.11 82.85,42.81 90.39,47.16 97.92,42.81 			"/>
			<polyline class="st139" points="82.85,34.11 90.39,38.46 97.92,34.11 			"/>
			<line class="st139" x1="90.39" y1="38.46" x2="90.39" y2="47.16"/>
		</g>
	</g>
	<g id="XMLID_228_">
		<g>
			<polygon class="st140" points="115.86,34.11 115.86,42.81 108.33,47.16 108.33,38.46 			"/>
			<polygon class="st141" points="115.86,34.11 108.33,38.46 100.79,34.11 108.33,29.76 			"/>
			<polygon class="st140" points="108.33,38.46 108.33,47.16 100.79,42.81 100.79,34.11 			"/>
		</g>
		<g>
			<polygon class="st139" points="115.86,34.11 108.33,29.76 100.79,34.11 100.79,42.81 108.33,47.16 115.86,42.81 			"/>
			<polyline class="st139" points="100.79,34.11 108.33,38.46 115.86,34.11 			"/>
			<line class="st139" x1="108.33" y1="38.46" x2="108.33" y2="47.16"/>
		</g>
	</g>
	<g id="XMLID_227_">
		<g>
			<polygon class="st140" points="43.98,34.77 43.98,43.47 36.45,47.82 36.45,39.12 			"/>
			<polygon class="st141" points="43.98,34.77 36.45,39.12 28.91,34.77 36.45,30.42 			"/>
			<polygon class="st140" points="36.45,39.12 36.45,47.82 28.91,43.47 28.91,34.77 			"/>
		</g>
		<g>
			<polygon class="st139" points="43.98,34.77 36.45,30.42 28.91,34.77 28.91,43.47 36.45,47.82 43.98,43.47 			"/>
			<polyline class="st139" points="28.91,34.77 36.45,39.12 43.98,34.77 			"/>
			<line class="st139" x1="36.45" y1="39.12" x2="36.45" y2="47.82"/>
		</g>
	</g>
	<g id="XMLID_226_">
		<g>
			<polygon class="st140" points="61.78,34.7 61.78,43.4 54.25,47.75 54.25,39.05 			"/>
			<polygon class="st141" points="61.78,34.7 54.25,39.05 46.71,34.7 54.25,30.35 			"/>
			<polygon class="st140" points="54.25,39.05 54.25,47.75 46.71,43.4 46.71,34.7 			"/>
		</g>
		<g>
			<polygon class="st139" points="61.78,34.7 54.25,30.35 46.71,34.7 46.71,43.4 54.25,47.75 61.78,43.4 			"/>
			<polyline class="st139" points="46.71,34.7 54.25,39.05 61.78,34.7 			"/>
			<line class="st139" x1="54.25" y1="39.05" x2="54.25" y2="47.75"/>
		</g>
	</g>
	<g id="XMLID_225_">
		<g>
			<polygon class="st140" points="80.12,34.31 80.12,43.01 72.58,47.36 72.58,38.66 			"/>
			<polygon class="st141" points="80.12,34.31 72.58,38.66 65.04,34.31 72.58,29.96 			"/>
			<polygon class="st140" points="72.58,38.66 72.58,47.36 65.04,43.01 65.04,34.31 			"/>
		</g>
		<g>
			<polygon class="st139" points="80.12,34.31 72.58,29.96 65.04,34.31 65.04,43.01 72.58,47.36 80.12,43.01 			"/>
			<polyline class="st139" points="65.04,34.31 72.58,38.66 80.12,34.31 			"/>
			<line class="st139" x1="72.58" y1="38.66" x2="72.58" y2="47.36"/>
		</g>
	</g>
	<g id="XMLID_224_">
		<g>
			<polygon class="st140" points="24.47,34.77 24.47,43.47 16.94,47.82 16.94,39.12 			"/>
			<polygon class="st141" points="24.47,34.77 16.94,39.12 9.4,34.77 16.94,30.42 			"/>
			<polygon class="st140" points="16.94,39.12 16.94,47.82 9.4,43.47 9.4,34.77 			"/>
		</g>
		<g>
			<polygon class="st139" points="24.47,34.77 16.94,30.42 9.4,34.77 9.4,43.47 16.94,47.82 24.47,43.47 			"/>
			<polyline class="st139" points="9.4,34.77 16.94,39.12 24.47,34.77 			"/>
			<line class="st139" x1="16.94" y1="39.12" x2="16.94" y2="47.82"/>
		</g>
	</g>
	<g id="XMLID_223_">
		<g>
			<polygon class="st140" points="133.33,13.67 133.33,22.37 125.79,26.72 125.79,18.02 			"/>
			<polygon class="st141" points="133.33,13.67 125.79,18.02 118.26,13.67 125.79,9.32 			"/>
			<polygon class="st140" points="125.79,18.02 125.79,26.72 118.26,22.37 118.26,13.67 			"/>
		</g>
		<g>
			<polygon class="st139" points="133.33,13.67 125.79,9.32 118.26,13.67 118.26,22.37 125.79,26.72 133.33,22.37 			"/>
			<polyline class="st139" points="118.26,13.67 125.79,18.02 133.33,13.67 			"/>
			<line class="st139" x1="125.79" y1="18.02" x2="125.79" y2="26.72"/>
		</g>
	</g>
	<g id="XMLID_221_">
		<g>
			<polygon class="st140" points="24.47,14.29 24.47,22.99 16.94,27.35 16.94,18.64 			"/>
			<polygon class="st141" points="24.47,14.29 16.94,18.64 9.4,14.29 16.94,9.94 			"/>
			<polygon class="st140" points="16.94,18.64 16.94,27.35 9.4,22.99 9.4,14.29 			"/>
		</g>
		<g>
			<polygon class="st139" points="24.47,14.29 16.94,9.94 9.4,14.29 9.4,22.99 16.94,27.35 24.47,22.99 			"/>
			<polyline class="st139" points="9.4,14.29 16.94,18.64 24.47,14.29 			"/>
			<line class="st139" x1="16.94" y1="18.64" x2="16.94" y2="27.35"/>
		</g>
	</g>
</g>
</svg>
