<svg id="Camada_1" data-name="Camada 1" xmlns="http://www.w3.org/2000/svg" viewBox="0 0 293.26 293.18"><defs><style>.cls-1,.cls-3,.cls-7{fill:none;}.cls-1{stroke:#d6d7d7;stroke-width:8px;}.cls-1,.cls-7{stroke-miterlimit:10;}.cls-2{fill:#fff;}.cls-2,.cls-4{stroke:#21344a;}.cls-2,.cls-3,.cls-4,.cls-5{stroke-linecap:round;stroke-linejoin:round;}.cls-2,.cls-3,.cls-4,.cls-5,.cls-7{stroke-width:4px;}.cls-3{stroke:#122a3b;}.cls-4{fill:#2866ae;}.cls-5{fill:#6dcdd9;stroke:#22344a;}.cls-6{fill:#e9521b;}.cls-7{stroke:#23344a;}</style></defs><title>atencao parceira fundo branco</title><circle class="cls-1" cx="146.63" cy="148.18" r="139.01"/><path class="cls-2" d="M79.13,193.51s17.77,24.55,60.32,49.09c0,0,21.35,11.13,29.45-3.92,0,0,9.25,2.69,12.76-6.55a12.82,12.82,0,0,0,.82-2.21c0-.41,9,.11,11.29-9.88,0,0,9.78,0,9.74-10.57,0-4.71-13.58-14.57-23.24-20.62S156.55,173.63,147.22,171s-21.68-8.92-31.34-11-12.56-7.69-12.56-7.69Z"/><path class="cls-2" d="M193.25,153.14a15.47,15.47,0,0,1-13.71,3.39c-8.19-2-32.08-10.14-45.82-1.47S110.81,175.35,120,182.55s17.35-7.36,17.35-7.36,4-5.08,9.9-4.18c7.58,1.16,48.84,27,54.24,34.39,0,0,9.28-5,14.87-12.65Z"/><rect class="cls-2" x="104.24" y="199.65" width="14.52" height="33.82" rx="7.26" transform="translate(149.23 -24.08) rotate(36.15)"/><rect class="cls-2" x="115.16" y="211.84" width="14.52" height="28.87" rx="7.26" transform="translate(157.06 -28.65) rotate(36.15)"/><rect class="cls-2" x="126.13" y="224.4" width="14.52" height="22.66" rx="7.26" transform="matrix(0.81, 0.59, -0.59, 0.81, 164.75, -33.3)"/><rect class="cls-2" x="91.08" y="199.53" width="14.54" height="21.29" rx="7.27" transform="translate(142.93 -17.55) rotate(36.15)"/><line class="cls-3" x1="168.9" y1="238.68" x2="148.12" y2="228.2"/><line class="cls-3" x1="182.48" y1="229.92" x2="156.14" y2="214.78"/><line class="cls-3" x1="193.77" y1="220.04" x2="163.66" y2="201.04"/><path class="cls-4" d="M62.41,196.34l6.3,3.73a5.72,5.72,0,0,0,7.86-2l27.58-47.34a5.71,5.71,0,0,0-2.08-7.83l-7.47-4.32a5.72,5.72,0,0,0-7.87,2.19L60.31,188.65A5.72,5.72,0,0,0,62.41,196.34Z"/><path class="cls-5" d="M191.74,150.43l26.51,45.95a5.46,5.46,0,0,0,7.38,2l7.24-4A5.45,5.45,0,0,0,235,187l-25.9-46.48a5.45,5.45,0,0,0-7.51-2.06L193.72,143A5.44,5.44,0,0,0,191.74,150.43Z"/><path class="cls-6" d="M156.29,60.39c0,2.52-.14,5.08-.4,7.68l-2.47,28.25a22.52,22.52,0,0,1-1.72,7.74,4.5,4.5,0,0,1-4.35,2.68,4.32,4.32,0,0,1-4.3-2.6,25.88,25.88,0,0,1-1.72-7.94l-1.84-27.45q-.51-8-.51-11.51c0-3.18.83-5.65,2.49-7.43A8.6,8.6,0,0,1,148,47.15q4.93,0,6.59,3.41T156.29,60.39Z"/><path class="cls-6" d="M153.73,119.26a8.17,8.17,0,0,1,2.56,6,8,8,0,0,1-2.58,6.3,8.79,8.79,0,0,1-6,2.3,9,9,0,0,1-6.1-2.27,7.91,7.91,0,0,1-2.61-6.33,8.26,8.26,0,0,1,2.49-6,8.36,8.36,0,0,1,6.1-2.49A8.53,8.53,0,0,1,153.73,119.26Z"/><path class="cls-7" d="M141.33,96.2l-1.84-27.45q-.51-8-.51-11.51c0-3.18.83-5.65,2.49-7.43A8.6,8.6,0,0,1,148,47.15q4.93,0,6.59,3.41t1.67,9.83c0,2.52-.14,5.08-.4,7.68l-2.47,28.25a22.52,22.52,0,0,1-1.72,7.74,4.5,4.5,0,0,1-4.35,2.68,4.32,4.32,0,0,1-4.3-2.6A25.88,25.88,0,0,1,141.33,96.2Z"/><path class="cls-7" d="M147.69,133.91a9,9,0,0,1-6.1-2.27,7.91,7.91,0,0,1-2.61-6.33,8.26,8.26,0,0,1,2.49-6,8.36,8.36,0,0,1,6.1-2.49,8.53,8.53,0,0,1,6.16,2.49,8.17,8.17,0,0,1,2.56,6,8,8,0,0,1-2.58,6.3A8.79,8.79,0,0,1,147.69,133.91Z"/></svg>