<svg id="Camada_1" data-name="Camada 1" xmlns="http://www.w3.org/2000/svg" viewBox="0 0 293.26 293.18"><defs><style>.cls-1,.cls-6{fill:none;}.cls-1{stroke:#d6d7d7;stroke-miterlimit:10;stroke-width:8px;}.cls-2{fill:#2866ae;}.cls-3{fill:#fff;}.cls-4{fill:#6da6d9;}.cls-5{fill:#21344a;}.cls-6{stroke:#21344a;stroke-linecap:round;stroke-linejoin:round;stroke-width:4px;}</style></defs><title>atores</title><circle class="cls-1" cx="146.63" cy="145.18" r="139.01"/><path class="cls-2" d="M160.56,210.34h-.23c.47-6.94.85-14.45,1-21.22a26.84,26.84,0,0,1,4.07-14c5.86-9.38,15.95-13.07,15.95-13.07a21.19,21.19,0,0,0,23.78,0h0c.55.11,20,3.95,20,26.68,0,7.43.31,14.87.74,21.54,0,9.27-14.62,14.59-32.65,14.59S160.59,219.59,160.56,210.34Z"/><path class="cls-3" d="M214.44,144.51a21.21,21.21,0,0,1-9.33,17.58h0a21.23,21.23,0,1,1,9.34-17.58Z"/><path class="cls-4" d="M178.71,129a21.21,21.21,0,0,0,2.61,33.08s-10.09,3.69-15.95,13.07h0a69.19,69.19,0,0,1-19,2.4,72.57,72.57,0,0,1-16.83-1.82c-5.36-11.29-16.89-13.57-17.31-13.65a21.22,21.22,0,0,0,2.9-32.79h0c1.74-18.12,19.89-24.75,19.89-24.75a21.19,21.19,0,0,0,23.78,0h0C159.29,104.65,177.5,108.24,178.71,129ZM159.89,143.4a13.26,13.26,0,1,0-13.26,13.26A13.25,13.25,0,0,0,159.89,143.4Z"/><path class="cls-3" d="M168.1,87a21.24,21.24,0,0,1-9.33,17.59h0A21.23,21.23,0,1,1,168.1,87Z"/><path class="cls-5" d="M146.63,130.14a13.26,13.26,0,1,1-13.26,13.26A13.25,13.25,0,0,1,146.63,130.14Zm8.23,13.26a8.23,8.23,0,1,0-8.23,8.23A8.24,8.24,0,0,0,154.86,143.4Z"/><path class="cls-4" d="M146.63,135.17a8.23,8.23,0,1,1-8.22,8.23A8.24,8.24,0,0,1,146.63,135.17Zm2.47,8.23a2.47,2.47,0,1,0-2.47,2.47A2.46,2.46,0,0,0,149.1,143.4Z"/><circle class="cls-5" cx="146.63" cy="143.4" r="2.47"/><path class="cls-2" d="M67.63,210.34H67.4c.47-6.94.85-14.45,1-21.22.34-19.85,20-27,20-27a21.19,21.19,0,0,0,23.78,0h0c.42.08,11.95,2.36,17.31,13.65a29.93,29.93,0,0,1,2.7,13c0,7.43.31,14.87.74,21.54,0,9.27-14.62,14.59-32.65,14.59S67.66,219.59,67.63,210.34Z"/><path class="cls-3" d="M121.51,144.51a21.21,21.21,0,0,1-9.33,17.58h0a21.23,21.23,0,1,1,2.91-32.8h0A21.15,21.15,0,0,1,121.51,144.51Z"/><path class="cls-6" d="M158.75,104.54A21.23,21.23,0,1,1,168.1,87a21.1,21.1,0,0,1-9.35,17.59"/><path class="cls-6" d="M115.08,129.29c1.74-18.12,19.89-24.75,19.89-24.75"/><path class="cls-6" d="M158.75,104.54h0c.52.11,18.73,3.7,19.94,24.47"/><path class="cls-6" d="M112.17,162.09a21.23,21.23,0,1,1,2.91-32.8h0a21.22,21.22,0,0,1-2.9,32.79"/><path class="cls-6" d="M67.4,210.34c.47-6.94.85-14.45,1-21.22.34-19.85,20-27,20-27"/><path class="cls-6" d="M112.17,162.09h0c.42.08,11.95,2.36,17.31,13.65a29.93,29.93,0,0,1,2.7,13c0,7.43.31,14.87.74,21.54"/><path class="cls-6" d="M205.1,162.09a21.23,21.23,0,1,1,9.34-17.58,21.05,21.05,0,0,1-9.34,17.58"/><path class="cls-6" d="M160.33,210.34c.47-6.94.85-14.45,1-21.22a26.84,26.84,0,0,1,4.07-14c5.86-9.38,15.95-13.07,15.95-13.07"/><path class="cls-6" d="M205.1,162.09h0c.55.11,20,3.95,20,26.68,0,7.43.31,14.87.74,21.54"/><path class="cls-6" d="M160.56,210.31v0c0,9.25,14.64,14.56,32.65,14.56s32.65-5.32,32.65-14.59"/><path class="cls-6" d="M67.63,210.31v0c0,9.25,14.64,14.56,32.65,14.56s32.65-5.32,32.65-14.59"/><path class="cls-6" d="M129.49,175.74a72.57,72.57,0,0,0,16.83,1.82,69.19,69.19,0,0,0,19-2.4h0"/><line class="cls-6" x1="182.52" y1="77.18" x2="185.66" y2="65.47"/><line class="cls-6" x1="208.29" y1="92.06" x2="216.86" y2="83.48"/><line class="cls-6" x1="223.17" y1="117.83" x2="234.88" y2="114.69"/><line class="cls-6" x1="110.74" y1="77.18" x2="107.6" y2="65.47"/><line class="cls-6" x1="84.97" y1="92.06" x2="76.4" y2="83.48"/><line class="cls-6" x1="70.1" y1="117.83" x2="58.39" y2="114.69"/></svg>