<svg id="Camada_3" data-name="Camada 3" xmlns="http://www.w3.org/2000/svg" viewBox="0 0 756.34 726.45"><defs><style>.cls-1{fill:none;stroke:#203249;stroke-miterlimit:10;stroke-width:31px;}.cls-2{fill:#3e4e68;}.cls-3{fill:#203249;}</style></defs><title>azul</title><path class="cls-1" d="M293.51,248.11A163.19,163.19,0,0,0,130.32,84.92,84.1,84.1,0,0,0,46.21,169c0,46.45,37.66,84.1,85.11,84.1h437"/><path class="cls-1" d="M.08,489.28H176.31c64.7,0,118.09-51.46,118.09-116.17v-72.5L293.46,244"/><circle class="cls-2" cx="610.61" cy="253.12" r="41.43"/><path class="cls-3" d="M610.61,216.2a36.93,36.93,0,1,1-36.93,36.92,37,37,0,0,1,36.93-36.92m0-9a45.93,45.93,0,1,0,45.92,45.92,45.92,45.92,0,0,0-45.92-45.92Z"/></svg>