<svg id="Camada_1" data-name="Camada 1" xmlns="http://www.w3.org/2000/svg" xmlns:xlink="http://www.w3.org/1999/xlink" viewBox="0 0 1837.7 531.22"><defs><style>.cls-1,.cls-19,.cls-2,.cls-26,.cls-3,.cls-33,.cls-34,.cls-37,.cls-9{fill:none;}.cls-2{stroke:#1d1d1b;stroke-width:2.16px;}.cls-19,.cls-28,.cls-3,.cls-33{stroke:#21344a;}.cls-3,.cls-9{stroke-miterlimit:10;}.cls-3{stroke-width:35px;}.cls-4{fill:#4b6187;}.cls-20,.cls-22,.cls-5{fill:#f1eced;}.cls-6{fill:#2866ae;}.cls-7{font-size:7px;font-family:Roboto-Black, Roboto;font-weight:800;}.cls-21,.cls-23,.cls-24,.cls-28,.cls-7{fill:#fff;}.cls-8{fill:#6dcdd9;}.cls-9{stroke:#86899e;stroke-dasharray:5 5;}.cls-19,.cls-26,.cls-28,.cls-33,.cls-9{stroke-linecap:round;}.cls-10{fill:#728fb8;}.cls-11{fill:#21344a;}.cls-12,.cls-35{font-size:12px;}.cls-12,.cls-13{fill:#3e4f6b;}.cls-12,.cls-20,.cls-21,.cls-22,.cls-23,.cls-36{font-family:Roboto-Bold, Roboto;font-weight:700;}.cls-14,.cls-35{fill:#aab5c7;}.cls-15{fill:#f95000;}.cls-16{fill:#f6a115;}.cls-17{fill:#d8d5d5;}.cls-18{fill:#e9521b;}.cls-19,.cls-26,.cls-28,.cls-33,.cls-34,.cls-37{stroke-linejoin:round;}.cls-19{stroke-width:1.08px;}.cls-20,.cls-21,.cls-22,.cls-23,.cls-36,.cls-38{font-size:8px;}.cls-20,.cls-23{letter-spacing:-0.01em;}.cls-25{fill:#f59c1a;}.cls-26{stroke:#34334b;}.cls-26,.cls-28{stroke-width:0.35px;}.cls-27{fill:#6da6d9;}.cls-29{fill:url(#_10_lpi_30_);}.cls-30{fill:#f3f0f0;}.cls-31{fill:#f4991a;}.cls-32{fill:#11293b;}.cls-33{stroke-width:0.75px;}.cls-34,.cls-37{stroke:#aab5c7;}.cls-34{stroke-width:2px;}.cls-35{font-family:RobotoMono-Regular, Roboto Mono;}.cls-36,.cls-38{fill:#1a1414;}.cls-37{stroke-width:2.09px;}.cls-38{font-family:Roboto-Regular, Roboto;}.cls-39{fill:url(#_10_lpi_30_3);}</style><pattern id="_10_lpi_30_" data-name="10 lpi 30%" width="72" height="72" patternTransform="translate(-277.13 0.99) scale(0.16)" patternUnits="userSpaceOnUse" viewBox="0 0 72 72"><rect class="cls-1" width="72" height="72"/><line class="cls-2" x1="71.75" y1="68.4" x2="144.25" y2="68.4"/><line class="cls-2" x1="71.75" y1="54" x2="144.25" y2="54"/><line class="cls-2" x1="71.75" y1="39.6" x2="144.25" y2="39.6"/><line class="cls-2" x1="71.75" y1="25.2" x2="144.25" y2="25.2"/><line class="cls-2" x1="71.75" y1="10.8" x2="144.25" y2="10.8"/><line class="cls-2" x1="71.75" y1="61.2" x2="144.25" y2="61.2"/><line class="cls-2" x1="71.75" y1="46.8" x2="144.25" y2="46.8"/><line class="cls-2" x1="71.75" y1="32.4" x2="144.25" y2="32.4"/><line class="cls-2" x1="71.75" y1="18" x2="144.25" y2="18"/><line class="cls-2" x1="71.75" y1="3.6" x2="144.25" y2="3.6"/><line class="cls-2" x1="-0.25" y1="68.4" x2="72.25" y2="68.4"/><line class="cls-2" x1="-0.25" y1="54" x2="72.25" y2="54"/><line class="cls-2" x1="-0.25" y1="39.6" x2="72.25" y2="39.6"/><line class="cls-2" x1="-0.25" y1="25.2" x2="72.25" y2="25.2"/><line class="cls-2" x1="-0.25" y1="10.8" x2="72.25" y2="10.8"/><line class="cls-2" x1="-0.25" y1="61.2" x2="72.25" y2="61.2"/><line class="cls-2" x1="-0.25" y1="46.8" x2="72.25" y2="46.8"/><line class="cls-2" x1="-0.25" y1="32.4" x2="72.25" y2="32.4"/><line class="cls-2" x1="-0.25" y1="18" x2="72.25" y2="18"/><line class="cls-2" x1="-0.25" y1="3.6" x2="72.25" y2="3.6"/><line class="cls-2" x1="-72.25" y1="68.4" x2="0.25" y2="68.4"/><line class="cls-2" x1="-72.25" y1="54" x2="0.25" y2="54"/><line class="cls-2" x1="-72.25" y1="39.6" x2="0.25" y2="39.6"/><line class="cls-2" x1="-72.25" y1="25.2" x2="0.25" y2="25.2"/><line class="cls-2" x1="-72.25" y1="10.8" x2="0.25" y2="10.8"/><line class="cls-2" x1="-72.25" y1="61.2" x2="0.25" y2="61.2"/><line class="cls-2" x1="-72.25" y1="46.8" x2="0.25" y2="46.8"/><line class="cls-2" x1="-72.25" y1="32.4" x2="0.25" y2="32.4"/><line class="cls-2" x1="-72.25" y1="18" x2="0.25" y2="18"/><line class="cls-2" x1="-72.25" y1="3.6" x2="0.25" y2="3.6"/></pattern><pattern id="_10_lpi_30_3" data-name="10 lpi 30%" width="72" height="72" patternTransform="translate(-238.56 170.42) scale(0.16)" patternUnits="userSpaceOnUse" viewBox="0 0 72 72"><rect class="cls-1" width="72" height="72"/><line class="cls-2" x1="71.75" y1="68.4" x2="144.25" y2="68.4"/><line class="cls-2" x1="71.75" y1="54" x2="144.25" y2="54"/><line class="cls-2" x1="71.75" y1="39.6" x2="144.25" y2="39.6"/><line class="cls-2" x1="71.75" y1="25.2" x2="144.25" y2="25.2"/><line class="cls-2" x1="71.75" y1="10.8" x2="144.25" y2="10.8"/><line class="cls-2" x1="71.75" y1="61.2" x2="144.25" y2="61.2"/><line class="cls-2" x1="71.75" y1="46.8" x2="144.25" y2="46.8"/><line class="cls-2" x1="71.75" y1="32.4" x2="144.25" y2="32.4"/><line class="cls-2" x1="71.75" y1="18" x2="144.25" y2="18"/><line class="cls-2" x1="71.75" y1="3.6" x2="144.25" y2="3.6"/><line class="cls-2" x1="-0.25" y1="68.4" x2="72.25" y2="68.4"/><line class="cls-2" x1="-0.25" y1="54" x2="72.25" y2="54"/><line class="cls-2" x1="-0.25" y1="39.6" x2="72.25" y2="39.6"/><line class="cls-2" x1="-0.25" y1="25.2" x2="72.25" y2="25.2"/><line class="cls-2" x1="-0.25" y1="10.8" x2="72.25" y2="10.8"/><line class="cls-2" x1="-0.25" y1="61.2" x2="72.25" y2="61.2"/><line class="cls-2" x1="-0.25" y1="46.8" x2="72.25" y2="46.8"/><line class="cls-2" x1="-0.25" y1="32.4" x2="72.25" y2="32.4"/><line class="cls-2" x1="-0.25" y1="18" x2="72.25" y2="18"/><line class="cls-2" x1="-0.25" y1="3.6" x2="72.25" y2="3.6"/><line class="cls-2" x1="-72.25" y1="68.4" x2="0.25" y2="68.4"/><line class="cls-2" x1="-72.25" y1="54" x2="0.25" y2="54"/><line class="cls-2" x1="-72.25" y1="39.6" x2="0.25" y2="39.6"/><line class="cls-2" x1="-72.25" y1="25.2" x2="0.25" y2="25.2"/><line class="cls-2" x1="-72.25" y1="10.8" x2="0.25" y2="10.8"/><line class="cls-2" x1="-72.25" y1="61.2" x2="0.25" y2="61.2"/><line class="cls-2" x1="-72.25" y1="46.8" x2="0.25" y2="46.8"/><line class="cls-2" x1="-72.25" y1="32.4" x2="0.25" y2="32.4"/><line class="cls-2" x1="-72.25" y1="18" x2="0.25" y2="18"/><line class="cls-2" x1="-72.25" y1="3.6" x2="0.25" y2="3.6"/></pattern></defs><path class="cls-3" d="M618,161A113.68,113.68,0,0,0,504.33,47.34a58.58,58.58,0,0,0-58.58,58.58c0,32.36,26.23,58.59,59.28,58.59H660.39"/><circle class="cls-4" cx="456.17" cy="98.91" r="40"/><path class="cls-5" d="M440.38,93.67a2.55,2.55,0,0,1-.44,1.56,1.42,1.42,0,0,1-1.2.59,1.32,1.32,0,0,1-1-.44v2h-1.13V91.52h1l0,.41a1.33,1.33,0,0,1,1.07-.49A1.43,1.43,0,0,1,440,92a2.57,2.57,0,0,1,.43,1.59Zm-1.13-.08a1.63,1.63,0,0,0-.21-.91.66.66,0,0,0-.6-.32.73.73,0,0,0-.73.4v1.73a.74.74,0,0,0,.73.42Q439.25,94.91,439.25,93.59Z"/><path class="cls-5" d="M443,95.82a2.09,2.09,0,0,1-1.52-.57,2,2,0,0,1-.58-1.52v-.11a2.64,2.64,0,0,1,.24-1.14,1.87,1.87,0,0,1,.7-.77,2,2,0,0,1,1-.27,1.76,1.76,0,0,1,1.37.55,2.22,2.22,0,0,1,.49,1.55V94H442a1.07,1.07,0,0,0,.33.66,1,1,0,0,0,.7.25,1.22,1.22,0,0,0,1-.47l.55.62a1.57,1.57,0,0,1-.68.56A2.17,2.17,0,0,1,443,95.82Zm-.13-3.47a.72.72,0,0,0-.55.23,1.18,1.18,0,0,0-.27.65h1.57v-.09a.8.8,0,0,0-.2-.58A.71.71,0,0,0,442.82,92.35Z"/><path class="cls-5" d="M447.53,94.58a.36.36,0,0,0-.2-.33,2.32,2.32,0,0,0-.66-.21c-1-.21-1.51-.64-1.51-1.28a1.16,1.16,0,0,1,.47-.94,1.89,1.89,0,0,1,1.22-.38,2,2,0,0,1,1.29.38,1.19,1.19,0,0,1,.48,1h-1.13a.54.54,0,0,0-.16-.4.66.66,0,0,0-.48-.16.75.75,0,0,0-.45.13.43.43,0,0,0-.15.33.33.33,0,0,0,.18.3,1.52,1.52,0,0,0,.6.2,5.91,5.91,0,0,1,.71.19,1.17,1.17,0,0,1,.89,1.14,1.1,1.1,0,0,1-.49.94,2.23,2.23,0,0,1-1.29.35,2.19,2.19,0,0,1-.94-.19,1.6,1.6,0,0,1-.65-.52,1.23,1.23,0,0,1-.23-.71h1.07a.6.6,0,0,0,.22.46.89.89,0,0,0,.56.16.84.84,0,0,0,.49-.12A.38.38,0,0,0,447.53,94.58Z"/><path class="cls-5" d="M449.1,93.59a2.48,2.48,0,0,1,.45-1.57,1.43,1.43,0,0,1,1.21-.58,1.27,1.27,0,0,1,1.08.52l.08-.44h1v5.85h-1.13v-2a1.28,1.28,0,0,1-1,.44,1.43,1.43,0,0,1-1.2-.58A2.65,2.65,0,0,1,449.1,93.59Zm1.13.08a1.71,1.71,0,0,0,.21.93.7.7,0,0,0,.6.31.78.78,0,0,0,.74-.41V92.75a.76.76,0,0,0-.73-.4.68.68,0,0,0-.6.32A1.74,1.74,0,0,0,450.23,93.67Z"/><path class="cls-5" d="M456.25,95.31a1.43,1.43,0,0,1-1.16.51,1.31,1.31,0,0,1-1-.39,1.63,1.63,0,0,1-.37-1.14V91.52h1.13v2.73q0,.66.6.66a.81.81,0,0,0,.79-.4v-3h1.13v4.22h-1.06Z"/><path class="cls-5" d="M458.11,90.42a.53.53,0,0,1,.17-.41.62.62,0,0,1,.46-.17.64.64,0,0,1,.46.17.57.57,0,0,1,.17.41.58.58,0,0,1-.17.43.74.74,0,0,1-.92,0A.54.54,0,0,1,458.11,90.42Zm1.2,5.32h-1.14V91.52h1.14Z"/><path class="cls-5" d="M462.44,94.58a.36.36,0,0,0-.2-.33,2.32,2.32,0,0,0-.66-.21c-1-.21-1.51-.64-1.51-1.28a1.16,1.16,0,0,1,.47-.94,1.89,1.89,0,0,1,1.22-.38,2,2,0,0,1,1.29.38,1.19,1.19,0,0,1,.48,1H462.4a.54.54,0,0,0-.16-.4.66.66,0,0,0-.48-.16.75.75,0,0,0-.45.13.43.43,0,0,0-.15.33.33.33,0,0,0,.18.3,1.52,1.52,0,0,0,.6.2,5.91,5.91,0,0,1,.71.19,1.17,1.17,0,0,1,.89,1.14,1.1,1.1,0,0,1-.49.94,2.23,2.23,0,0,1-1.29.35,2.19,2.19,0,0,1-.94-.19,1.6,1.6,0,0,1-.65-.52,1.23,1.23,0,0,1-.23-.71H461a.6.6,0,0,0,.22.46.89.89,0,0,0,.56.16.84.84,0,0,0,.49-.12A.38.38,0,0,0,462.44,94.58Z"/><path class="cls-5" d="M466.64,95.74a1.46,1.46,0,0,1-.12-.37,1.35,1.35,0,0,1-1.06.45,1.49,1.49,0,0,1-1-.36,1.16,1.16,0,0,1-.41-.9,1.2,1.2,0,0,1,.5-1,2.5,2.5,0,0,1,1.44-.37h.52v-.24a.7.7,0,0,0-.15-.47.59.59,0,0,0-.48-.17.64.64,0,0,0-.44.13.47.47,0,0,0-.17.38h-1.13a1.14,1.14,0,0,1,.23-.68,1.52,1.52,0,0,1,.64-.49,2.34,2.34,0,0,1,.93-.18,1.84,1.84,0,0,1,1.24.39,1.36,1.36,0,0,1,.46,1.11v1.83a2,2,0,0,0,.17.91v.06ZM465.7,95a1.08,1.08,0,0,0,.47-.11.81.81,0,0,0,.31-.3v-.73h-.42c-.57,0-.87.2-.91.59v.06a.44.44,0,0,0,.15.35A.57.57,0,0,0,465.7,95Z"/><path class="cls-5" d="M472.26,95.82a2.09,2.09,0,0,1-1.52-.57,2,2,0,0,1-.58-1.52v-.11a2.64,2.64,0,0,1,.24-1.14,1.87,1.87,0,0,1,.7-.77,2,2,0,0,1,1-.27,1.76,1.76,0,0,1,1.37.55,2.22,2.22,0,0,1,.49,1.55V94H471.3a1.07,1.07,0,0,0,.33.66,1,1,0,0,0,.7.25,1.22,1.22,0,0,0,1-.47l.55.62a1.63,1.63,0,0,1-.68.56A2.17,2.17,0,0,1,472.26,95.82Zm-.13-3.47a.72.72,0,0,0-.55.23,1.18,1.18,0,0,0-.27.65h1.57v-.09a.8.8,0,0,0-.2-.58A.71.71,0,0,0,472.13,92.35Z"/><path class="cls-5" d="M425.77,106.74v-3.39h-.63v-.83h.63v-.36a1.45,1.45,0,0,1,.41-1.1,1.54,1.54,0,0,1,1.14-.4,2.67,2.67,0,0,1,.57.08v.88a1.09,1.09,0,0,0-.34,0c-.43,0-.64.2-.64.6v.34h.84v.83h-.84v3.39Z"/><path class="cls-5" d="M428.07,104.59a2.52,2.52,0,0,1,.24-1.12,1.84,1.84,0,0,1,.7-.76,2.06,2.06,0,0,1,1.06-.27,1.94,1.94,0,0,1,1.4.52,2.11,2.11,0,0,1,.6,1.43v.28a2.17,2.17,0,0,1-.55,1.56,1.84,1.84,0,0,1-1.45.59,1.89,1.89,0,0,1-1.46-.58,2.24,2.24,0,0,1-.55-1.6Zm1.13.08a1.58,1.58,0,0,0,.23.92.73.73,0,0,0,.65.32.76.76,0,0,0,.64-.31,1.77,1.77,0,0,0,.23-1,1.62,1.62,0,0,0-.23-.92.77.77,0,0,0-.65-.32.74.74,0,0,0-.64.32A1.78,1.78,0,0,0,429.2,104.67Z"/><path class="cls-5" d="M435.07,103.58l-.41,0a.82.82,0,0,0-.84.43v2.76h-1.13v-4.22h1.07l0,.5a1,1,0,0,1,.94-.58,1.29,1.29,0,0,1,.35,0Z"/><path class="cls-5" d="M436.59,102.52l0,.47a1.49,1.49,0,0,1,1.22-.55,1.12,1.12,0,0,1,1.12.64,1.45,1.45,0,0,1,1.27-.64,1.24,1.24,0,0,1,1,.4,1.82,1.82,0,0,1,.34,1.21v2.69h-1.13v-2.69a.78.78,0,0,0-.15-.53.6.6,0,0,0-.49-.16.7.7,0,0,0-.7.48v2.9H438v-2.69a.84.84,0,0,0-.14-.53.64.64,0,0,0-.5-.16.72.72,0,0,0-.69.4v3h-1.13v-4.22Z"/><path class="cls-5" d="M444.82,106.74a1.16,1.16,0,0,1-.11-.37,1.37,1.37,0,0,1-1.07.45,1.48,1.48,0,0,1-1-.36,1.13,1.13,0,0,1-.41-.9,1.17,1.17,0,0,1,.5-1,2.49,2.49,0,0,1,1.43-.37h.52v-.24a.7.7,0,0,0-.15-.47.57.57,0,0,0-.47-.17.69.69,0,0,0-.45.13.46.46,0,0,0-.16.38H442.3a1.14,1.14,0,0,1,.23-.68,1.46,1.46,0,0,1,.64-.49,2.27,2.27,0,0,1,.93-.18,1.86,1.86,0,0,1,1.24.39,1.4,1.4,0,0,1,.46,1.11v1.83a2,2,0,0,0,.17.91v.06Zm-.93-.78a1,1,0,0,0,.46-.11.75.75,0,0,0,.31-.3v-.73h-.42c-.56,0-.86.2-.9.59v.06a.47.47,0,0,0,.14.35A.6.6,0,0,0,443.89,106Z"/><path class="cls-5" d="M448.34,105.91a.77.77,0,0,0,.51-.17.58.58,0,0,0,.2-.46h1.06a1.46,1.46,0,0,1-.23.79,1.7,1.7,0,0,1-.63.56,2,2,0,0,1-.89.19,1.85,1.85,0,0,1-1.43-.57,2.3,2.3,0,0,1-.52-1.6v-.07a2.25,2.25,0,0,1,.52-1.56,2,2,0,0,1,2.7-.13,1.6,1.6,0,0,1,.48,1.2h-1.06a.72.72,0,0,0-.2-.53.75.75,0,0,0-1.11.08,1.6,1.6,0,0,0-.2.93v.12a1.64,1.64,0,0,0,.2.94A.67.67,0,0,0,448.34,105.91Zm.41.81,0,.23a.63.63,0,0,1,.59.67.77.77,0,0,1-.36.68,1.73,1.73,0,0,1-1,.25l0-.65c.3,0,.44-.1.44-.32a.21.21,0,0,0-.13-.22,1.24,1.24,0,0,0-.42-.08l.12-.56Z"/><path class="cls-5" d="M453.13,106.74a1.15,1.15,0,0,1-.12-.37,1.37,1.37,0,0,1-1.06.45,1.49,1.49,0,0,1-1-.36,1.13,1.13,0,0,1-.41-.9,1.17,1.17,0,0,1,.5-1,2.5,2.5,0,0,1,1.44-.37H453v-.24a.65.65,0,0,0-.16-.47.57.57,0,0,0-.47-.17.69.69,0,0,0-.45.13.46.46,0,0,0-.16.38H450.6a1.14,1.14,0,0,1,.23-.68,1.46,1.46,0,0,1,.64-.49,2.34,2.34,0,0,1,.93-.18,1.86,1.86,0,0,1,1.24.39,1.4,1.4,0,0,1,.46,1.11v1.83a2,2,0,0,0,.17.91v.06Zm.73-5.94a1.11,1.11,0,0,1-.25.74.85.85,0,0,1-.63.29,1.12,1.12,0,0,1-.27,0,2.22,2.22,0,0,1-.32-.14l-.29-.14-.19,0a.33.33,0,0,0-.24.1.37.37,0,0,0-.09.27l-.66,0a1.11,1.11,0,0,1,.26-.73.78.78,0,0,1,.63-.31.83.83,0,0,1,.22,0l.33.14a2.5,2.5,0,0,0,.33.14.58.58,0,0,0,.19,0,.32.32,0,0,0,.23-.09.37.37,0,0,0,.1-.28ZM452.19,106a1,1,0,0,0,.46-.11.85.85,0,0,0,.32-.3v-.73h-.43c-.56,0-.86.2-.9.59v.06a.44.44,0,0,0,.15.35A.56.56,0,0,0,452.19,106Z"/><path class="cls-5" d="M454.71,104.59a2.52,2.52,0,0,1,.24-1.12,1.78,1.78,0,0,1,.7-.76,2,2,0,0,1,1.06-.27,1.9,1.9,0,0,1,1.39.52,2.17,2.17,0,0,1,.61,1.43v.28a2.21,2.21,0,0,1-.54,1.56,2.1,2.1,0,0,1-2.91,0,2.24,2.24,0,0,1-.55-1.6Zm1.13.08a1.51,1.51,0,0,0,.23.92.72.72,0,0,0,.64.32.73.73,0,0,0,.64-.31,1.69,1.69,0,0,0,.24-1,1.55,1.55,0,0,0-.24-.92.75.75,0,0,0-.64-.32.74.74,0,0,0-.64.32A1.7,1.7,0,0,0,455.84,104.67Z"/><path class="cls-5" d="M461.07,104.6a2.5,2.5,0,0,1,.44-1.57,1.45,1.45,0,0,1,1.21-.59,1.29,1.29,0,0,1,1,.46v-2.16h1.13v6h-1l-.05-.44a1.32,1.32,0,0,1-1.09.52,1.41,1.41,0,0,1-1.19-.59A2.61,2.61,0,0,1,461.07,104.6Zm1.12.08a1.69,1.69,0,0,0,.21.92.67.67,0,0,0,.6.31.74.74,0,0,0,.74-.44V103.8a.75.75,0,0,0-.73-.44C462.47,103.36,462.19,103.8,462.19,104.68Z"/><path class="cls-5" d="M467.61,106.82a2.07,2.07,0,0,1-1.51-.57,2,2,0,0,1-.58-1.52v-.11a2.64,2.64,0,0,1,.24-1.14,1.87,1.87,0,0,1,.7-.77,2,2,0,0,1,1-.27,1.72,1.72,0,0,1,1.36.55,2.17,2.17,0,0,1,.5,1.55V105h-2.69a1.07,1.07,0,0,0,.33.66,1,1,0,0,0,.7.25,1.22,1.22,0,0,0,1-.47l.55.62a1.7,1.7,0,0,1-.68.56A2.19,2.19,0,0,1,467.61,106.82Zm-.12-3.47a.72.72,0,0,0-.55.23,1.18,1.18,0,0,0-.27.65h1.57v-.09a.8.8,0,0,0-.2-.58A.71.71,0,0,0,467.49,103.35Z"/><path class="cls-5" d="M474.2,103.58l-.41,0a.84.84,0,0,0-.84.43v2.76h-1.12v-4.22h1.06l0,.5a1,1,0,0,1,.94-.58,1.36,1.36,0,0,1,.36,0Z"/><path class="cls-5" d="M476.61,106.82a2.05,2.05,0,0,1-1.51-.57,2,2,0,0,1-.59-1.52v-.11a2.51,2.51,0,0,1,.25-1.14,1.78,1.78,0,0,1,.69-.77,2,2,0,0,1,1-.27,1.74,1.74,0,0,1,1.37.55,2.22,2.22,0,0,1,.5,1.55V105h-2.69a1,1,0,0,0,.33.66,1,1,0,0,0,.69.25,1.19,1.19,0,0,0,1-.47l.56.62a1.66,1.66,0,0,1-.69.56A2.17,2.17,0,0,1,476.61,106.82Zm-.13-3.47a.69.69,0,0,0-.54.23,1.18,1.18,0,0,0-.27.65h1.57v-.09a.85.85,0,0,0-.21-.58A.71.71,0,0,0,476.48,103.35Z"/><path class="cls-5" d="M478.73,104.6a2.5,2.5,0,0,1,.45-1.57,1.44,1.44,0,0,1,1.21-.59,1.29,1.29,0,0,1,1,.46v-2.16h1.13v6h-1l0-.44a1.34,1.34,0,0,1-1.09.52,1.42,1.42,0,0,1-1.2-.59A2.61,2.61,0,0,1,478.73,104.6Zm1.13.08a1.69,1.69,0,0,0,.21.92.67.67,0,0,0,.6.31.75.75,0,0,0,.74-.44V103.8a.75.75,0,0,0-.73-.44C480.13,103.36,479.86,103.8,479.86,104.68Z"/><path class="cls-5" d="M485.28,106.82a2.07,2.07,0,0,1-1.51-.57,2,2,0,0,1-.59-1.52v-.11a2.65,2.65,0,0,1,.25-1.14,1.8,1.8,0,0,1,.7-.77,2,2,0,0,1,1-.27,1.74,1.74,0,0,1,1.36.55,2.22,2.22,0,0,1,.5,1.55V105h-2.69a1,1,0,0,0,.33.66,1,1,0,0,0,.69.25,1.19,1.19,0,0,0,1-.47l.56.62a1.66,1.66,0,0,1-.69.56A2.17,2.17,0,0,1,485.28,106.82Zm-.13-3.47a.71.71,0,0,0-.54.23,1.18,1.18,0,0,0-.27.65h1.57v-.09a.84.84,0,0,0-.2-.58A.73.73,0,0,0,485.15,103.35Z"/><path class="cls-4" d="M494,163.6a.78.78,0,0,1-1,.51l-14.79-4.57a.78.78,0,0,1-.51-1,.77.77,0,0,1,1-.51l14.79,4.57A.8.8,0,0,1,494,163.6Z"/><path class="cls-4" d="M494,163.6a.81.81,0,0,1-.38.45l-4.88,2.58a.78.78,0,0,1-.73-1.38l4.19-2.21-2.22-4.2a.78.78,0,0,1,1.38-.73L494,163A.79.79,0,0,1,494,163.6Z"/><path class="cls-4" d="M600.61,99.67a.78.78,0,0,1,1,.36l6.68,14a.79.79,0,0,1-.37,1,.77.77,0,0,1-1-.37l-6.68-14A.77.77,0,0,1,600.61,99.67Z"/><path class="cls-4" d="M600.61,99.67a.83.83,0,0,1,.6,0l5.2,1.84a.78.78,0,0,1-.52,1.47l-4.47-1.58-1.58,4.48a.78.78,0,0,1-1,.48.77.77,0,0,1-.47-1l1.84-5.22A.77.77,0,0,1,600.61,99.67Z"/><path class="cls-4" d="M534.15,50.93a.77.77,0,0,1,1-.48l14.63,5a.77.77,0,0,1,.48,1,.78.78,0,0,1-1,.49l-14.63-5A.78.78,0,0,1,534.15,50.93Z"/><path class="cls-4" d="M534.15,50.93a.76.76,0,0,1,.39-.45l5-2.41a.78.78,0,1,1,.68,1.4l-4.26,2.07L538,55.82a.77.77,0,0,1-.35,1,.77.77,0,0,1-1-.35l-2.43-5A.76.76,0,0,1,534.15,50.93Z"/><path class="cls-4" d="M574.61,164.44a.78.78,0,0,1-.78.78H558.35a.78.78,0,1,1,0-1.56h15.48A.78.78,0,0,1,574.61,164.44Z"/><path class="cls-4" d="M574.61,164.44a.81.81,0,0,1-.23.55l-3.9,3.9a.78.78,0,0,1-1.1-1.1l3.35-3.35-3.36-3.36a.78.78,0,0,1,1.1-1.1l3.91,3.91A.81.81,0,0,1,574.61,164.44Z"/><circle class="cls-6" cx="1361.25" cy="115.07" r="7"/><text class="cls-7" transform="translate(1356.79 117.79)">SD</text><circle class="cls-8" cx="849.66" cy="115.07" r="7"/><text class="cls-7" transform="translate(845.1 117.73) rotate(-0.51)">PP</text><line class="cls-3" x1="618.04" y1="164.51" x2="1488.63" y2="164.51"/><line class="cls-3" x1="1116.68" y1="164.55" x2="1758.02" y2="164.55"/><path class="cls-3" d="M283.85,400.64H500.94c64.7,0,118.09-51.46,118.09-116.17V212l-.94-56.62"/><path class="cls-3" d="M76.72,257.3v59.23a84.11,84.11,0,0,0,84.1,84.11H500.94"/><line class="cls-9" x1="262.77" y1="233.8" x2="35.54" y2="233.8"/><circle class="cls-10" cx="76.46" cy="233.8" r="37.5"/><path class="cls-11" d="M76.46,198.8a35,35,0,1,1-35,35,35,35,0,0,1,35-35m0-5a40,40,0,1,0,40,40,40,40,0,0,0-40-40Z"/><circle class="cls-4" cx="443.48" cy="400.67" r="40"/><circle class="cls-4" cx="322.08" cy="400.67" r="40"/><circle class="cls-4" cx="201.7" cy="400.67" r="40"/><circle class="cls-4" cx="1117.92" cy="163.71" r="40"/><circle class="cls-4" cx="1373.39" cy="163.71" r="40"/><circle class="cls-4" cx="1502.82" cy="163.71" r="40"/><circle class="cls-4" cx="1630.32" cy="163.71" r="40"/><circle class="cls-10" cx="1758.02" cy="163.71" r="37.5"/><path class="cls-11" d="M1758,128.71a35,35,0,1,1-35,35,35,35,0,0,1,35-35m0-5a40,40,0,1,0,40,40,40,40,0,0,0-40-40Z"/><line class="cls-9" x1="422.32" y1="248.47" x2="639.39" y2="248.47"/><text class="cls-12" transform="translate(422.32 242.55)">APROFUNDAMENTO</text><line class="cls-9" x1="1066.13" y1="67.08" x2="1066.13" y2="186.43"/><text class="cls-12" transform="translate(1072.18 75.55)">MONITORAMENTO</text><path class="cls-13" d="M192.48,244.1h-1.4v3.13h-1.76V238.7h3.17a3.56,3.56,0,0,1,2.33.67,2.31,2.31,0,0,1,.82,1.9,2.64,2.64,0,0,1-.37,1.46,2.58,2.58,0,0,1-1.15.93l1.85,3.48v.09h-1.89Zm-1.4-1.42h1.42a1.41,1.41,0,0,0,1-.34,1.17,1.17,0,0,0,.37-.93,1.27,1.27,0,0,0-.35-.94,1.36,1.36,0,0,0-1-.35h-1.41Z"/><path class="cls-13" d="M202.11,243.53h-3.37v2.28h4v1.42H197V238.7h5.71v1.42h-3.95v2h3.37Z"/><path class="cls-13" d="M203.73,247.23V238.7h2.63a4,4,0,0,1,2,.5,3.55,3.55,0,0,1,1.38,1.44,4.38,4.38,0,0,1,.5,2.13v.39a4.45,4.45,0,0,1-.49,2.12,3.46,3.46,0,0,1-1.38,1.43,4.06,4.06,0,0,1-2,.52Zm1.76-7.11v5.69h.85a1.88,1.88,0,0,0,1.57-.67,3,3,0,0,0,.56-1.93v-.45a3.08,3.08,0,0,0-.54-2,1.88,1.88,0,0,0-1.57-.67Z"/><path class="cls-13" d="M216.66,243.53h-3.37v2.28h4v1.42h-5.72V238.7h5.71v1.42h-4v2h3.37Z"/><path class="cls-13" d="M223.41,243.74H220v3.49h-1.76V238.7h5.55v1.42H220v2.2h3.37Z"/><path class="cls-13" d="M226.72,247.23H225V238.7h1.75Z"/><path class="cls-13" d="M235.29,247.23h-1.76l-3.42-5.62v5.62h-1.76V238.7h1.76l3.43,5.62V238.7h1.75Z"/><path class="cls-13" d="M238.69,247.23h-1.75V238.7h1.75Z"/><path class="cls-13" d="M247,244.39a3,3,0,0,1-1,2.16,3.54,3.54,0,0,1-2.41.79,3.21,3.21,0,0,1-2.58-1.1,4.53,4.53,0,0,1-.95-3v-.52a5.09,5.09,0,0,1,.44-2.17,3.2,3.2,0,0,1,1.24-1.44,3.4,3.4,0,0,1,1.87-.5,3.47,3.47,0,0,1,2.38.79,3.24,3.24,0,0,1,1,2.22h-1.76a1.75,1.75,0,0,0-.46-1.2,1.68,1.68,0,0,0-1.2-.37,1.51,1.51,0,0,0-1.32.63,3.47,3.47,0,0,0-.44,1.95v.65a3.78,3.78,0,0,0,.42,2,1.44,1.44,0,0,0,1.32.64,1.77,1.77,0,0,0,1.21-.37,1.69,1.69,0,0,0,.46-1.15Zm-2.79,2.8-.06.34a1,1,0,0,1,.88,1,1.17,1.17,0,0,1-.54,1,2.61,2.61,0,0,1-1.51.38l0-1c.44,0,.66-.16.66-.47a.34.34,0,0,0-.2-.34,2,2,0,0,0-.64-.12l.19-.84Z"/><path class="cls-13" d="M253,245.47h-3.08l-.59,1.76h-1.87l3.18-8.53h1.63l3.19,8.53h-1.87Zm.68-9a1.64,1.64,0,0,1-.39,1.11,1.18,1.18,0,0,1-.94.45,1.62,1.62,0,0,1-.4-.05,2.37,2.37,0,0,1-.47-.21,3.68,3.68,0,0,0-.44-.21,1.39,1.39,0,0,0-.3,0,.48.48,0,0,0-.34.14.57.57,0,0,0-.15.42l-1-.06a1.72,1.72,0,0,1,.38-1.11,1.2,1.2,0,0,1,.94-.45,1.15,1.15,0,0,1,.33,0,3.46,3.46,0,0,1,.51.21,2.44,2.44,0,0,0,.49.21,1.27,1.27,0,0,0,.28,0,.47.47,0,0,0,.35-.14.54.54,0,0,0,.15-.41Zm-3.29,7.56h2.14l-1.08-3.2Z"/><path class="cls-13" d="M263.26,243.15a5.1,5.1,0,0,1-.45,2.21,3.39,3.39,0,0,1-1.27,1.47,3.79,3.79,0,0,1-3.8,0,3.44,3.44,0,0,1-1.29-1.45,5,5,0,0,1-.46-2.18v-.42a5.18,5.18,0,0,1,.45-2.22,3.44,3.44,0,0,1,1.29-1.47,3.78,3.78,0,0,1,3.79,0,3.36,3.36,0,0,1,1.28,1.47,5.16,5.16,0,0,1,.46,2.21Zm-1.78-.38a3.57,3.57,0,0,0-.49-2,1.69,1.69,0,0,0-2.73,0,3.6,3.6,0,0,0-.49,2v.41a3.63,3.63,0,0,0,.48,2,1.56,1.56,0,0,0,1.39.72,1.53,1.53,0,0,0,1.35-.69,3.66,3.66,0,0,0,.49-2Z"/><path class="cls-13" d="M198.64,262.23V253.7h2.62a4,4,0,0,1,2,.5,3.55,3.55,0,0,1,1.38,1.44,4.49,4.49,0,0,1,.5,2.13v.39a4.45,4.45,0,0,1-.49,2.12,3.46,3.46,0,0,1-1.38,1.43,4.06,4.06,0,0,1-2,.52Zm1.76-7.11v5.69h.85a1.9,1.9,0,0,0,1.57-.67,3,3,0,0,0,.56-1.93v-.45a3.08,3.08,0,0,0-.54-2,1.89,1.89,0,0,0-1.58-.67Z"/><path class="cls-13" d="M211.57,258.53H208.2v2.28h4v1.42h-5.72V253.7h5.7v1.42H208.2v2h3.37Z"/><path class="cls-13" d="M216.18,262.23V253.7h2.62a4,4,0,0,1,2,.5,3.51,3.51,0,0,1,1.39,1.44,4.49,4.49,0,0,1,.5,2.13v.39a4.57,4.57,0,0,1-.49,2.12,3.58,3.58,0,0,1-1.38,1.43,4.12,4.12,0,0,1-2,.52Zm1.75-7.11v5.69h.85a1.9,1.9,0,0,0,1.58-.67,3.08,3.08,0,0,0,.56-1.93v-.45a3.08,3.08,0,0,0-.54-2,1.9,1.9,0,0,0-1.58-.67Z"/><path class="cls-13" d="M229.11,258.53h-3.38v2.28h4v1.42H224V253.7h5.7v1.42h-4v2h3.38Z"/><path class="cls-13" d="M235.15,260a.93.93,0,0,0-.35-.77,5.11,5.11,0,0,0-1.27-.56,9.62,9.62,0,0,1-1.45-.58,2.38,2.38,0,0,1-1.45-2.12,2,2,0,0,1,.39-1.23,2.59,2.59,0,0,1,1.12-.85,4.28,4.28,0,0,1,1.64-.3,3.86,3.86,0,0,1,1.63.33,2.67,2.67,0,0,1,1.11.93,2.5,2.5,0,0,1,.39,1.38h-1.76a1.18,1.18,0,0,0-.36-.92,1.58,1.58,0,0,0-1-.32,1.61,1.61,0,0,0-1,.27.86.86,0,0,0-.36.72.83.83,0,0,0,.42.7,4.91,4.91,0,0,0,1.23.52,5.43,5.43,0,0,1,2.19,1.12,2.26,2.26,0,0,1,.68,1.67,2,2,0,0,1-.84,1.73,3.64,3.64,0,0,1-2.25.63A4.3,4.3,0,0,1,232,262a2.94,2.94,0,0,1-1.24-1,2.58,2.58,0,0,1-.42-1.46h1.76c0,.94.56,1.42,1.69,1.42a1.65,1.65,0,0,0,1-.26A.84.84,0,0,0,235.15,260Z"/><path class="cls-13" d="M242.92,260.47h-3.08l-.59,1.76h-1.87l3.18-8.53h1.63l3.19,8.53h-1.87Zm-2.61-1.42h2.13l-1.07-3.2Z"/><path class="cls-13" d="M251.31,258.74h-3.38v3.49h-1.75V253.7h5.55v1.42h-3.8v2.2h3.38Z"/><path class="cls-13" d="M254.62,262.23h-1.76V253.7h1.76Z"/><path class="cls-13" d="M263.26,258.15a5.1,5.1,0,0,1-.45,2.21,3.39,3.39,0,0,1-1.27,1.47,3.79,3.79,0,0,1-3.8,0,3.44,3.44,0,0,1-1.29-1.45,5,5,0,0,1-.46-2.18v-.42a5.18,5.18,0,0,1,.45-2.22,3.44,3.44,0,0,1,1.29-1.47,3.78,3.78,0,0,1,3.79,0,3.36,3.36,0,0,1,1.28,1.47,5.16,5.16,0,0,1,.46,2.21Zm-1.78-.38a3.57,3.57,0,0,0-.49-2,1.69,1.69,0,0,0-2.73,0,3.6,3.6,0,0,0-.49,2v.41a3.63,3.63,0,0,0,.48,2,1.56,1.56,0,0,0,1.39.72,1.53,1.53,0,0,0,1.35-.69,3.66,3.66,0,0,0,.49-2Z"/><text class="cls-12" transform="translate(1450.02 75.55)">COMUNICAÇÃO</text><line class="cls-9" x1="1444.02" y1="67.08" x2="1444.02" y2="185.25"/><circle class="cls-14" cx="1461.8" cy="134.55" r="7"/><text class="cls-7" transform="translate(1457.2 137.16)">CC</text><circle class="cls-14" cx="1589.37" cy="134.55" r="7"/><text class="cls-7" transform="translate(1584.77 137.16)">CC</text><circle class="cls-15" cx="1076.36" cy="134.56" r="7"/><text class="cls-7" transform="translate(1071.8 137.28)">CD</text><circle class="cls-16" cx="1332.41" cy="134.6" r="7"/><text class="cls-7" transform="translate(1330.15 137.26)">D</text><circle class="cls-15" cx="1345.02" cy="121.93" r="7"/><text class="cls-7" transform="translate(1340.46 124.66)">CD</text><path class="cls-4" d="M670.93,164.52a.76.76,0,0,1-.77.77H654.68a.77.77,0,0,1-.78-.77.78.78,0,0,1,.78-.78h15.48A.77.77,0,0,1,670.93,164.52Z"/><path class="cls-4" d="M670.93,164.52a.82.82,0,0,1-.22.55l-3.9,3.89a.77.77,0,1,1-1.1-1.09l3.35-3.35-3.36-3.37a.77.77,0,0,1,0-1.1.78.78,0,0,1,1.1,0l3.91,3.92A.78.78,0,0,1,670.93,164.52Z"/><path class="cls-4" d="M76.51,303.33a.77.77,0,0,1-.78-.77V287.08a.78.78,0,1,1,1.55,0v15.48A.77.77,0,0,1,76.51,303.33Z"/><path class="cls-4" d="M76.51,303.33a.78.78,0,0,1-.55-.22l-3.9-3.9a.78.78,0,1,1,1.1-1.1l3.35,3.35,3.36-3.37a.78.78,0,0,1,1.1,1.1l-3.92,3.92A.77.77,0,0,1,76.51,303.33Z"/><path class="cls-4" d="M1190.58,164.56a.78.78,0,0,1-.78.78h-15.48a.78.78,0,1,1,0-1.56h15.48A.78.78,0,0,1,1190.58,164.56Z"/><path class="cls-4" d="M1190.58,164.56a.78.78,0,0,1-.23.55l-3.9,3.9a.78.78,0,0,1-1.1-1.1l3.35-3.35-3.36-3.36a.78.78,0,0,1,0-1.1.77.77,0,0,1,1.1,0l3.91,3.91A.75.75,0,0,1,1190.58,164.56Z"/><path class="cls-4" d="M1318.31,164.56a.77.77,0,0,1-.77.78h-15.48a.78.78,0,1,1,0-1.56h15.48A.77.77,0,0,1,1318.31,164.56Z"/><path class="cls-4" d="M1318.31,164.56a.82.82,0,0,1-.22.55l-3.9,3.9a.78.78,0,0,1-1.1,0,.77.77,0,0,1,0-1.1l3.35-3.35-3.36-3.36a.77.77,0,0,1,0-1.1.76.76,0,0,1,1.09,0l3.92,3.91A.78.78,0,0,1,1318.31,164.56Z"/><path class="cls-4" d="M1437.22,164.56a.77.77,0,0,1-.77.78H1421a.78.78,0,1,1,0-1.56h15.48A.77.77,0,0,1,1437.22,164.56Z"/><path class="cls-4" d="M1437.22,164.56a.82.82,0,0,1-.22.55l-3.9,3.9a.78.78,0,0,1-1.1-1.1l3.35-3.35L1432,161.2a.78.78,0,1,1,1.1-1.1L1437,164A.78.78,0,0,1,1437.22,164.56Z"/><path class="cls-4" d="M805.65,164.41a.78.78,0,0,1-.78.78H789.39a.78.78,0,0,1-.78-.78.77.77,0,0,1,.78-.77h15.48A.77.77,0,0,1,805.65,164.41Z"/><path class="cls-4" d="M805.65,164.41a.75.75,0,0,1-.23.55l-3.9,3.9a.77.77,0,0,1-1.1,0,.78.78,0,0,1,0-1.1l3.35-3.35-3.36-3.36a.78.78,0,0,1,1.1-1.1l3.91,3.91A.78.78,0,0,1,805.65,164.41Z"/><path class="cls-4" d="M934.25,164.41a.78.78,0,0,1-.78.78H918a.78.78,0,0,1-.78-.78.77.77,0,0,1,.78-.77h15.48A.77.77,0,0,1,934.25,164.41Z"/><path class="cls-4" d="M934.25,164.41a.75.75,0,0,1-.23.55l-3.9,3.9a.77.77,0,0,1-1.1,0,.78.78,0,0,1,0-1.1l3.35-3.35L929,161.05a.78.78,0,1,1,1.1-1.1l3.91,3.91A.78.78,0,0,1,934.25,164.41Z"/><path class="cls-4" d="M1056.55,164.41a.78.78,0,0,1-.78.78h-15.48a.78.78,0,0,1-.78-.78.77.77,0,0,1,.78-.77h15.48A.77.77,0,0,1,1056.55,164.41Z"/><path class="cls-4" d="M1056.55,164.41a.75.75,0,0,1-.23.55l-3.9,3.9a.77.77,0,0,1-1.1,0,.78.78,0,0,1,0-1.1l3.35-3.35-3.36-3.36a.78.78,0,0,1,1.1-1.1l3.91,3.91A.78.78,0,0,1,1056.55,164.41Z"/><path class="cls-4" d="M1702.68,164.56a.77.77,0,0,1-.77.78h-15.48a.78.78,0,1,1,0-1.56h15.48A.77.77,0,0,1,1702.68,164.56Z"/><path class="cls-4" d="M1702.68,164.56a.82.82,0,0,1-.22.55l-3.9,3.9a.78.78,0,0,1-1.1,0,.77.77,0,0,1,0-1.1l3.35-3.35-3.36-3.36a.77.77,0,0,1,0-1.1.76.76,0,0,1,1.09,0l3.92,3.91A.78.78,0,0,1,1702.68,164.56Z"/><path class="cls-4" d="M1575.09,164.56a.78.78,0,0,1-.78.78h-15.48a.78.78,0,1,1,0-1.56h15.48A.78.78,0,0,1,1575.09,164.56Z"/><path class="cls-4" d="M1575.09,164.56a.83.83,0,0,1-.23.55L1571,169a.78.78,0,1,1-1.1-1.1l3.35-3.35-3.36-3.36a.78.78,0,0,1,1.1-1.1l3.91,3.91A.79.79,0,0,1,1575.09,164.56Z"/><path class="cls-4" d="M88.87,360.59a.78.78,0,0,1-1-.39l-6.41-14.09a.78.78,0,0,1,.39-1,.79.79,0,0,1,1,.39l6.41,14.09A.78.78,0,0,1,88.87,360.59Z"/><path class="cls-4" d="M88.87,360.59a.8.8,0,0,1-.59,0l-5.17-1.94a.78.78,0,0,1,.55-1.45l4.44,1.66,1.66-4.45a.78.78,0,0,1,1-.46.77.77,0,0,1,.46,1l-1.94,5.18A.77.77,0,0,1,88.87,360.59Z"/><path class="cls-4" d="M131.59,395.82a.78.78,0,0,1-1.05.33L116.81,389a.78.78,0,0,1-.34-1.05.79.79,0,0,1,1-.33l13.74,7.14A.78.78,0,0,1,131.59,395.82Z"/><path class="cls-4" d="M131.59,395.82a.77.77,0,0,1-.45.38l-5.26,1.66a.78.78,0,1,1-.47-1.48l4.52-1.43-1.44-4.53A.78.78,0,1,1,130,390l1.67,5.28A.76.76,0,0,1,131.59,395.82Z"/><path class="cls-17" d="M1769.75,170.73v3c0,2.86-5.25,5.19-11.73,5.19s-11.74-2.33-11.74-5.19h0v-2.87a2.61,2.61,0,0,0,.43,1.29.41.41,0,0,0,0,.09h0c1.45,2.15,5.94,3.71,11.26,3.71s9.81-1.56,11.25-3.71h0l.06-.09h0A2.56,2.56,0,0,0,1769.75,170.73Z"/><path class="cls-18" d="M1746.89,169.07a57.3,57.3,0,0,1,2.67-11.36h0a1.53,1.53,0,0,0,0,.3c0,2,3.88,3.63,8.47,3.63s8.46-1.63,8.46-3.63a1.53,1.53,0,0,0,0-.3h0a56.69,56.69,0,0,1,2.67,11.38,26,26,0,0,1,.18,3h0l-.06.09h0c-1.44,2.15-5.94,3.71-11.25,3.71s-9.81-1.56-11.26-3.71h0a.41.41,0,0,1,0-.09h0A28.82,28.82,0,0,1,1746.89,169.07Z"/><path class="cls-18" d="M1766.45,157.72a1.53,1.53,0,0,1,0,.3c0,2-3.87,3.63-8.46,3.63s-8.47-1.63-8.47-3.63a1.53,1.53,0,0,1,0-.3c.37-1.86,4.08-3.32,8.44-3.32S1766.09,155.86,1766.45,157.72Z"/><path class="cls-19" d="M1746.28,173.7c0,2.86,5.25,5.19,11.74,5.19s11.73-2.33,11.73-5.19"/><path class="cls-19" d="M1769.33,172.12l-.06.09h0c-1.44,2.15-5.94,3.71-11.25,3.71s-9.81-1.56-11.26-3.71h0a.41.41,0,0,1,0-.09,2.61,2.61,0,0,1-.43-1.29v-.1a2.7,2.7,0,0,1,.61-1.66h0"/><path class="cls-19" d="M1769.14,169.07v0a2.72,2.72,0,0,1,.6,1.64,2.56,2.56,0,0,1-.42,1.39"/><path class="cls-19" d="M1749.58,157.72a1.53,1.53,0,0,0,0,.3c0,2,3.88,3.63,8.47,3.63s8.46-1.63,8.46-3.63a1.53,1.53,0,0,0,0-.3c-.36-1.86-4.07-3.32-8.43-3.32S1750,155.86,1749.58,157.72Z"/><path class="cls-19" d="M1766.48,157.71a56.69,56.69,0,0,1,2.67,11.38,26,26,0,0,1,.18,3h0"/><path class="cls-19" d="M1749.56,157.71a57.3,57.3,0,0,0-2.67,11.36,28.82,28.82,0,0,0-.18,3.05"/><line class="cls-19" x1="1769.75" y1="170.73" x2="1769.75" y2="173.7"/><polyline class="cls-19" points="1746.28 170.73 1746.28 170.83 1746.28 173.7"/><line class="cls-19" x1="1751.9" y1="151.66" x2="1750.61" y2="149.42"/><line class="cls-19" x1="1758.02" y1="150.02" x2="1758.02" y2="147.44"/><line class="cls-19" x1="1764.14" y1="151.66" x2="1765.43" y2="149.42"/><line class="cls-19" x1="1768.61" y1="156.14" x2="1770.85" y2="154.85"/><line class="cls-19" x1="1747.42" y1="156.13" x2="1745.19" y2="154.85"/><circle class="cls-16" cx="1205.18" cy="134.56" r="7"/><text class="cls-7" transform="translate(1202.92 137.22)">D</text><circle class="cls-15" cx="1217.84" cy="121.93" r="7"/><text class="cls-7" transform="translate(1213.28 124.66)">CD</text><circle class="cls-8" cx="1234.06" cy="115.07" r="7"/><text class="cls-7" transform="translate(1229.5 117.79)">PP</text><circle class="cls-4" cx="1246.2" cy="163.71" r="40"/><circle class="cls-4" cx="732.73" cy="163.71" r="40"/><text class="cls-20" transform="translate(712.08 161.7)">delimitação<tspan x="2.48" y="11">de escopo</tspan></text><path class="cls-5" d="M1354.52,147.4a2.57,2.57,0,0,1,.44-1.57,1.45,1.45,0,0,1,1.22-.59,1.32,1.32,0,0,1,1,.46v-2.15h1.13v6h-1l-.06-.45a1.33,1.33,0,0,1-1.08.53,1.44,1.44,0,0,1-1.2-.59A2.64,2.64,0,0,1,1354.52,147.4Zm1.13.09a1.66,1.66,0,0,0,.21.91.66.66,0,0,0,.6.32.76.76,0,0,0,.74-.45V146.6a.75.75,0,0,0-.73-.44C1355.92,146.16,1355.65,146.6,1355.65,147.49Z"/><path class="cls-5" d="M1361.07,149.63a2,2,0,0,1-2.1-2.09v-.11a2.45,2.45,0,0,1,.25-1.14,1.73,1.73,0,0,1,.69-.77,1.92,1.92,0,0,1,1-.28,1.78,1.78,0,0,1,1.37.55,2.22,2.22,0,0,1,.5,1.55v.46h-2.69a1,1,0,0,0,1,.92,1.2,1.2,0,0,0,1-.48l.56.62a1.77,1.77,0,0,1-.69.57A2.32,2.32,0,0,1,1361.07,149.63Zm-.13-3.48a.73.73,0,0,0-.55.23,1.25,1.25,0,0,0-.26.65h1.57v-.09a.87.87,0,0,0-.21-.58A.71.71,0,0,0,1360.94,146.15Z"/><path class="cls-5" d="M1365.66,148.38a.37.37,0,0,0-.21-.33,2.21,2.21,0,0,0-.66-.21c-1-.21-1.5-.64-1.5-1.28a1.15,1.15,0,0,1,.46-.94,1.89,1.89,0,0,1,1.22-.38,2,2,0,0,1,1.29.38,1.21,1.21,0,0,1,.48,1h-1.13a.55.55,0,0,0-.15-.4.66.66,0,0,0-.49-.16.64.64,0,0,0-.44.13.38.38,0,0,0-.16.33.35.35,0,0,0,.18.3,1.87,1.87,0,0,0,.6.2,4.21,4.21,0,0,1,.71.19,1.15,1.15,0,0,1,.89,1.13,1.1,1.1,0,0,1-.49.94,2.13,2.13,0,0,1-1.28.36,2.37,2.37,0,0,1-1-.19,1.58,1.58,0,0,1-.64-.52,1.2,1.2,0,0,1-.24-.72h1.07a.61.61,0,0,0,.23.47.9.9,0,0,0,.55.16.82.82,0,0,0,.49-.13A.39.39,0,0,0,1365.66,148.38Z"/><path class="cls-5" d="M1369.35,149.63a2.09,2.09,0,0,1-1.52-.57,2,2,0,0,1-.58-1.52v-.11a2.58,2.58,0,0,1,.24-1.14,1.81,1.81,0,0,1,.7-.77,1.9,1.9,0,0,1,1-.28,1.79,1.79,0,0,1,1.37.55,2.22,2.22,0,0,1,.49,1.55v.46h-2.69a1.1,1.1,0,0,0,.33.67,1.05,1.05,0,0,0,.7.25,1.23,1.23,0,0,0,1-.48l.55.62a1.67,1.67,0,0,1-.68.57A2.32,2.32,0,0,1,1369.35,149.63Zm-.13-3.48a.72.72,0,0,0-.55.23,1.18,1.18,0,0,0-.27.65H1370v-.09a.87.87,0,0,0-.21-.58A.71.71,0,0,0,1369.22,146.15Z"/><path class="cls-5" d="M1372.68,145.32l0,.49a1.47,1.47,0,0,1,1.21-.57,1.22,1.22,0,0,1,1,.4,1.79,1.79,0,0,1,.34,1.18v2.73h-1.13v-2.7a.73.73,0,0,0-.16-.53.71.71,0,0,0-.51-.16.79.79,0,0,0-.72.41v3h-1.13v-4.23Z"/><path class="cls-5" d="M1377.15,145.78a1.4,1.4,0,0,1,1.13-.54c.91,0,1.38.54,1.39,1.6v2.71h-1.13v-2.68a.78.78,0,0,0-.15-.53.67.67,0,0,0-.52-.18.77.77,0,0,0-.72.38v3H1376v-6h1.13Z"/><path class="cls-5" d="M1380.27,147.4a2.57,2.57,0,0,1,.24-1.13,1.77,1.77,0,0,1,.7-.76,2,2,0,0,1,1-.27,1.93,1.93,0,0,1,1.4.53,2.09,2.09,0,0,1,.6,1.42v.29a2.21,2.21,0,0,1-.54,1.56,2.1,2.1,0,0,1-2.92,0,2.25,2.25,0,0,1-.54-1.59Zm1.12.08a1.6,1.6,0,0,0,.23.92.81.81,0,0,0,1.29,0,1.75,1.75,0,0,0,.23-1,1.57,1.57,0,0,0-.23-.91.8.8,0,0,0-1.29,0A1.73,1.73,0,0,0,1381.39,147.48Z"/><path class="cls-5" d="M1388.74,149.63a2.07,2.07,0,0,1-1.51-.57,2,2,0,0,1-.58-1.52v-.11a2.58,2.58,0,0,1,.24-1.14,1.81,1.81,0,0,1,.7-.77,1.87,1.87,0,0,1,1-.28,1.75,1.75,0,0,1,1.36.55,2.17,2.17,0,0,1,.5,1.55v.46h-2.69a1.1,1.1,0,0,0,.33.67,1,1,0,0,0,.7.25,1.23,1.23,0,0,0,1-.48l.55.62a1.77,1.77,0,0,1-.69.57A2.26,2.26,0,0,1,1388.74,149.63Zm-.13-3.48a.71.71,0,0,0-.54.23,1.18,1.18,0,0,0-.27.65h1.57v-.09a.82.82,0,0,0-.2-.58A.73.73,0,0,0,1388.61,146.15Z"/><path class="cls-5" d="M1354.84,159.72a.72.72,0,0,0,.51-.18.56.56,0,0,0,.2-.45h1.06a1.42,1.42,0,0,1-.23.78,1.62,1.62,0,0,1-.63.56,2,2,0,0,1-.89.2,1.86,1.86,0,0,1-1.43-.58,2.26,2.26,0,0,1-.52-1.59v-.08a2.2,2.2,0,0,1,.52-1.55,1.8,1.8,0,0,1,1.42-.59,1.76,1.76,0,0,1,1.27.45,1.61,1.61,0,0,1,.49,1.21h-1.06a.77.77,0,0,0-.2-.54.75.75,0,0,0-1.11.08,1.6,1.6,0,0,0-.2.93v.12a1.62,1.62,0,0,0,.2.94A.68.68,0,0,0,1354.84,159.72Z"/><path class="cls-5" d="M1357,158.4a2.57,2.57,0,0,1,.24-1.13,1.84,1.84,0,0,1,.7-.76,2,2,0,0,1,1.06-.27,1.91,1.91,0,0,1,1.39.53,2.14,2.14,0,0,1,.61,1.42v.29a2.21,2.21,0,0,1-.54,1.56,2.1,2.1,0,0,1-2.92,0,2.25,2.25,0,0,1-.54-1.59Zm1.13.08a1.61,1.61,0,0,0,.22.92.77.77,0,0,0,.65.32.74.74,0,0,0,.64-.32,1.67,1.67,0,0,0,.23-1,1.49,1.49,0,0,0-.23-.91.74.74,0,0,0-.64-.33.75.75,0,0,0-.65.33A1.74,1.74,0,0,0,1358.13,158.48Z"/><path class="cls-5" d="M1362.66,156.32l0,.49a1.48,1.48,0,0,1,1.22-.57,1.24,1.24,0,0,1,1,.4,1.79,1.79,0,0,1,.33,1.18v2.73h-1.13v-2.7a.78.78,0,0,0-.15-.53.75.75,0,0,0-.52-.16.79.79,0,0,0-.72.41v3h-1.12v-4.23Z"/><path class="cls-5" d="M1368.31,159.38a.37.37,0,0,0-.21-.33,2.12,2.12,0,0,0-.66-.21c-1-.21-1.5-.64-1.5-1.28a1.15,1.15,0,0,1,.46-.94,1.91,1.91,0,0,1,1.22-.38,2,2,0,0,1,1.29.38,1.21,1.21,0,0,1,.48,1h-1.12a.56.56,0,0,0-.16-.4.66.66,0,0,0-.49-.16.64.64,0,0,0-.44.13.38.38,0,0,0-.16.33.35.35,0,0,0,.18.3,1.87,1.87,0,0,0,.6.2,4.21,4.21,0,0,1,.71.19,1.16,1.16,0,0,1,.9,1.13,1.11,1.11,0,0,1-.5.94,2.13,2.13,0,0,1-1.28.36,2.28,2.28,0,0,1-.94-.19,1.55,1.55,0,0,1-.65-.52,1.2,1.2,0,0,1-.24-.72h1.07a.65.65,0,0,0,.23.47.9.9,0,0,0,.55.16.82.82,0,0,0,.49-.13A.39.39,0,0,0,1368.31,159.38Z"/><path class="cls-5" d="M1371.4,155.28v1h.73v.83h-.73v2.11a.51.51,0,0,0,.09.34.5.5,0,0,0,.35.1,1.69,1.69,0,0,0,.33,0v.85a2.25,2.25,0,0,1-.68.11,1.08,1.08,0,0,1-1.22-1.2v-2.28h-.61v-.83h.61v-1Z"/><path class="cls-5" d="M1375.05,157.38l-.41,0a.84.84,0,0,0-.84.43v2.77h-1.12v-4.23h1.06l0,.51a1.05,1.05,0,0,1,.94-.59,1.36,1.36,0,0,1,.36,0Z"/><path class="cls-5" d="M1378,160.12a1.39,1.39,0,0,1-1.15.51,1.35,1.35,0,0,1-1-.39,1.67,1.67,0,0,1-.36-1.15v-2.77h1.12v2.74c0,.44.2.66.61.66a.84.84,0,0,0,.79-.4v-3h1.13v4.23h-1.06Z"/><path class="cls-5" d="M1381.67,159.72a.72.72,0,0,0,.51-.18.59.59,0,0,0,.2-.45h1.06a1.36,1.36,0,0,1-.24.78,1.49,1.49,0,0,1-.63.56,2,2,0,0,1-.88.2,1.85,1.85,0,0,1-1.43-.58,2.26,2.26,0,0,1-.53-1.59v-.08a2.25,2.25,0,0,1,.52-1.55,1.83,1.83,0,0,1,1.43-.59,1.78,1.78,0,0,1,1.27.45,1.65,1.65,0,0,1,.49,1.21h-1.06a.81.81,0,0,0-.2-.54.69.69,0,0,0-.52-.21.7.7,0,0,0-.6.29,1.69,1.69,0,0,0-.2.93v.12a1.7,1.7,0,0,0,.2.94A.71.71,0,0,0,1381.67,159.72Zm.41.8,0,.23a.63.63,0,0,1,.58.68.8.8,0,0,1-.36.68,1.76,1.76,0,0,1-1,.25l0-.66c.29,0,.44-.1.44-.31a.24.24,0,0,0-.13-.23,1.56,1.56,0,0,0-.43-.08l.12-.56Z"/><path class="cls-5" d="M1386.45,160.55a1.22,1.22,0,0,1-.11-.38,1.4,1.4,0,0,1-1.07.46,1.52,1.52,0,0,1-1-.36,1.18,1.18,0,0,1-.41-.91,1.2,1.2,0,0,1,.5-1,2.43,2.43,0,0,1,1.44-.36h.52v-.25a.67.67,0,0,0-.15-.46.58.58,0,0,0-.47-.18.69.69,0,0,0-.45.14.44.44,0,0,0-.16.37h-1.13a1.15,1.15,0,0,1,.22-.68,1.56,1.56,0,0,1,.65-.49,2.27,2.27,0,0,1,.93-.18,1.81,1.81,0,0,1,1.24.4,1.38,1.38,0,0,1,.45,1.1v1.83a2.1,2.1,0,0,0,.17.91v.07Zm.74-6a1.11,1.11,0,0,1-.26.74.8.8,0,0,1-.63.3.71.71,0,0,1-.26,0,1.28,1.28,0,0,1-.32-.14,1.24,1.24,0,0,0-.29-.13.64.64,0,0,0-.2,0,.29.29,0,0,0-.23.1.41.41,0,0,0-.1.28l-.65,0a1.11,1.11,0,0,1,.25-.74.81.81,0,0,1,.63-.3.78.78,0,0,1,.22,0,2.37,2.37,0,0,1,.34.15,2.08,2.08,0,0,0,.32.13.63.63,0,0,0,.19,0,.34.34,0,0,0,.34-.37Zm-1.67,5.16a.9.9,0,0,0,.46-.11.69.69,0,0,0,.31-.3v-.72h-.42c-.57,0-.87.19-.9.58v.07a.45.45,0,0,0,.15.35A.59.59,0,0,0,1385.52,159.76Z"/><path class="cls-5" d="M1388,158.4a2.57,2.57,0,0,1,.24-1.13,1.77,1.77,0,0,1,.7-.76,2,2,0,0,1,1-.27,1.93,1.93,0,0,1,1.4.53,2.09,2.09,0,0,1,.6,1.42v.29a2.21,2.21,0,0,1-.54,1.56,2.1,2.1,0,0,1-2.92,0,2.25,2.25,0,0,1-.54-1.59Zm1.12.08a1.6,1.6,0,0,0,.23.92.81.81,0,0,0,1.29,0,1.75,1.75,0,0,0,.23-1,1.57,1.57,0,0,0-.23-.91.8.8,0,0,0-1.29,0A1.73,1.73,0,0,0,1389.16,158.48Z"/><path class="cls-5" d="M1356.72,169.4a2.57,2.57,0,0,1,.44-1.57,1.45,1.45,0,0,1,1.22-.59,1.32,1.32,0,0,1,1,.46v-2.15h1.13v6h-1l0-.45a1.36,1.36,0,0,1-1.09.53,1.44,1.44,0,0,1-1.2-.59A2.64,2.64,0,0,1,1356.72,169.4Zm1.13.09a1.66,1.66,0,0,0,.21.91.67.67,0,0,0,.6.32.76.76,0,0,0,.74-.45V168.6a.75.75,0,0,0-.73-.44C1358.12,168.16,1357.85,168.6,1357.85,169.49Z"/><path class="cls-5" d="M1363.27,171.63a2.07,2.07,0,0,1-1.51-.57,2,2,0,0,1-.59-1.52v-.11a2.45,2.45,0,0,1,.25-1.14,1.69,1.69,0,0,1,.7-.77,1.86,1.86,0,0,1,1-.28,1.78,1.78,0,0,1,1.37.55,2.22,2.22,0,0,1,.5,1.55v.46h-2.69a1,1,0,0,0,1,.92,1.2,1.2,0,0,0,1-.48l.56.62a1.77,1.77,0,0,1-.69.57A2.32,2.32,0,0,1,1363.27,171.63Zm-.13-3.48a.71.71,0,0,0-.54.23,1.18,1.18,0,0,0-.27.65h1.57v-.09a.86.86,0,0,0-.2-.58A.73.73,0,0,0,1363.14,168.15Z"/><path class="cls-5" d="M1371.29,169.47a2.5,2.5,0,0,1-.45,1.57,1.42,1.42,0,0,1-1.2.59,1.31,1.31,0,0,1-1-.45v2h-1.13v-5.85h1l0,.42a1.32,1.32,0,0,1,1.07-.5,1.44,1.44,0,0,1,1.21.58,2.62,2.62,0,0,1,.44,1.6Zm-1.13-.08a1.68,1.68,0,0,0-.21-.91.69.69,0,0,0-.61-.32.74.74,0,0,0-.73.41v1.73a.75.75,0,0,0,.74.42C1369.89,170.72,1370.16,170.27,1370.16,169.39Z"/><path class="cls-5" d="M1374.35,171.55a1.22,1.22,0,0,1-.11-.38,1.38,1.38,0,0,1-1.07.46,1.52,1.52,0,0,1-1-.36,1.17,1.17,0,0,1-.4-.91,1.19,1.19,0,0,1,.49-1,2.47,2.47,0,0,1,1.44-.36h.52v-.25a.67.67,0,0,0-.15-.46.58.58,0,0,0-.47-.18.69.69,0,0,0-.45.14.44.44,0,0,0-.16.37h-1.13a1.16,1.16,0,0,1,.23-.68,1.46,1.46,0,0,1,.64-.49,2.27,2.27,0,0,1,.93-.18,1.81,1.81,0,0,1,1.24.4,1.39,1.39,0,0,1,.46,1.1v1.83a2.12,2.12,0,0,0,.16.91v.07Zm-.93-.79a.9.9,0,0,0,.46-.11.65.65,0,0,0,.31-.3v-.72h-.42c-.56,0-.86.19-.9.58v.07a.48.48,0,0,0,.14.35A.59.59,0,0,0,1373.42,170.76Z"/><path class="cls-5" d="M1376.11,166.23a.54.54,0,0,1,.17-.42.61.61,0,0,1,.46-.16.63.63,0,0,1,.46.16.6.6,0,0,1,0,.84.74.74,0,0,1-.92,0A.54.54,0,0,1,1376.11,166.23Zm1.2,5.32h-1.14v-4.23h1.14Z"/><path class="cls-5" d="M1379.19,167.32l0,.49a1.47,1.47,0,0,1,1.21-.57,1.22,1.22,0,0,1,1,.4,1.84,1.84,0,0,1,.34,1.18v2.73h-1.13v-2.7a.73.73,0,0,0-.16-.53.71.71,0,0,0-.51-.16.79.79,0,0,0-.72.41v3h-1.13v-4.23Z"/><path class="cls-5" d="M1384.5,171.63a2.07,2.07,0,0,1-1.51-.57,2,2,0,0,1-.59-1.52v-.11a2.58,2.58,0,0,1,.25-1.14,1.75,1.75,0,0,1,.7-.77,1.87,1.87,0,0,1,1-.28,1.77,1.77,0,0,1,1.36.55,2.22,2.22,0,0,1,.5,1.55v.46h-2.69a1,1,0,0,0,.33.67,1,1,0,0,0,.7.25,1.23,1.23,0,0,0,1-.48l.55.62a1.77,1.77,0,0,1-.69.57A2.32,2.32,0,0,1,1384.5,171.63Zm-.13-3.48a.71.71,0,0,0-.54.23,1.18,1.18,0,0,0-.27.65h1.57v-.09a.82.82,0,0,0-.2-.58A.73.73,0,0,0,1384.37,168.15Z"/><path class="cls-5" d="M1388,171.55h-1.13v-6H1388Z"/><path class="cls-5" d="M1347.76,180.4a2.5,2.5,0,0,1,.44-1.57,1.45,1.45,0,0,1,1.21-.59,1.32,1.32,0,0,1,1,.46v-2.15h1.14v6h-1l-.06-.45a1.33,1.33,0,0,1-1.08.53,1.44,1.44,0,0,1-1.2-.59A2.64,2.64,0,0,1,1347.76,180.4Zm1.13.09a1.75,1.75,0,0,0,.2.91.68.68,0,0,0,.6.32.75.75,0,0,0,.74-.45V179.6a.75.75,0,0,0-.73-.44C1349.16,179.16,1348.89,179.6,1348.89,180.49Z"/><path class="cls-5" d="M1354.31,182.63a2.09,2.09,0,0,1-1.52-.57,2,2,0,0,1-.58-1.52v-.11a2.58,2.58,0,0,1,.24-1.14,1.81,1.81,0,0,1,.7-.77,1.9,1.9,0,0,1,1-.28,1.79,1.79,0,0,1,1.37.55,2.22,2.22,0,0,1,.49,1.55v.46h-2.69a1.1,1.1,0,0,0,.33.67,1.05,1.05,0,0,0,.7.25,1.23,1.23,0,0,0,1-.48l.55.62a1.67,1.67,0,0,1-.68.57A2.32,2.32,0,0,1,1354.31,182.63Zm-.13-3.48a.72.72,0,0,0-.55.23,1.18,1.18,0,0,0-.27.65h1.58v-.09a.87.87,0,0,0-.21-.58A.71.71,0,0,0,1354.18,179.15Z"/><path class="cls-5" d="M1358.51,177.23a.57.57,0,0,1,.17-.42.74.74,0,0,1,.92,0,.6.6,0,0,1,0,.84.74.74,0,0,1-.92,0A.57.57,0,0,1,1358.51,177.23Zm1.2,5.32h-1.13v-4.23h1.13Z"/><path class="cls-5" d="M1361.6,178.32l0,.49a1.48,1.48,0,0,1,1.22-.57,1.24,1.24,0,0,1,1,.4,1.79,1.79,0,0,1,.33,1.18v2.73h-1.13v-2.7a.78.78,0,0,0-.15-.53.75.75,0,0,0-.52-.16.79.79,0,0,0-.72.41v3h-1.13v-4.23Z"/><path class="cls-5" d="M1364.78,180.4a2.5,2.5,0,0,1,.45-1.57,1.44,1.44,0,0,1,1.21-.59,1.32,1.32,0,0,1,1,.46v-2.15h1.13v6h-1l0-.45a1.34,1.34,0,0,1-1.09.53,1.44,1.44,0,0,1-1.2-.59A2.64,2.64,0,0,1,1364.78,180.4Zm1.13.09a1.66,1.66,0,0,0,.21.91.68.68,0,0,0,.6.32.76.76,0,0,0,.74-.45V179.6a.75.75,0,0,0-.73-.44C1366.18,179.16,1365.91,179.6,1365.91,180.49Z"/><path class="cls-5" d="M1369.38,177.23a.57.57,0,0,1,.17-.42.74.74,0,0,1,.92,0,.6.6,0,0,1,0,.84.74.74,0,0,1-.92,0A.57.57,0,0,1,1369.38,177.23Zm1.2,5.32h-1.14v-4.23h1.14Z"/><path class="cls-5" d="M1373.19,181.72a.71.71,0,0,0,.5-.18.6.6,0,0,0,.21-.45H1375a1.52,1.52,0,0,1-.24.78,1.49,1.49,0,0,1-.63.56,2,2,0,0,1-.88.2,1.83,1.83,0,0,1-1.43-.58,2.26,2.26,0,0,1-.53-1.59v-.08a2.25,2.25,0,0,1,.52-1.55,1.82,1.82,0,0,1,1.43-.59,1.78,1.78,0,0,1,1.27.45,1.65,1.65,0,0,1,.49,1.21h-1.06a.82.82,0,0,0-.21-.54.66.66,0,0,0-.51-.21.7.7,0,0,0-.6.29,1.69,1.69,0,0,0-.2.93v.12a1.7,1.7,0,0,0,.2.94A.7.7,0,0,0,1373.19,181.72Z"/><path class="cls-5" d="M1378,182.55a1.22,1.22,0,0,1-.11-.38,1.4,1.4,0,0,1-1.07.46,1.5,1.5,0,0,1-1-.36,1.18,1.18,0,0,1-.41-.91,1.2,1.2,0,0,1,.5-1,2.43,2.43,0,0,1,1.44-.36h.52v-.25a.67.67,0,0,0-.15-.46.59.59,0,0,0-.48-.18.66.66,0,0,0-.44.14.45.45,0,0,0-.17.37h-1.12a1.15,1.15,0,0,1,.22-.68,1.52,1.52,0,0,1,.64-.49,2.34,2.34,0,0,1,.93-.18,1.8,1.8,0,0,1,1.24.4,1.36,1.36,0,0,1,.46,1.1v1.83a2,2,0,0,0,.17.91v.07Zm-.93-.79a.92.92,0,0,0,.46-.11.69.69,0,0,0,.31-.3v-.72h-.42c-.57,0-.87.19-.91.58v.07a.45.45,0,0,0,.15.35A.58.58,0,0,0,1377,181.76Z"/><path class="cls-5" d="M1379.55,180.4a2.5,2.5,0,0,1,.45-1.57,1.44,1.44,0,0,1,1.21-.59,1.32,1.32,0,0,1,1,.46v-2.15h1.13v6h-1l0-.45a1.34,1.34,0,0,1-1.09.53,1.46,1.46,0,0,1-1.2-.59A2.64,2.64,0,0,1,1379.55,180.4Zm1.13.09a1.66,1.66,0,0,0,.21.91.68.68,0,0,0,.6.32.75.75,0,0,0,.74-.45V179.6a.75.75,0,0,0-.73-.44C1381,179.16,1380.68,179.6,1380.68,180.49Z"/><path class="cls-5" d="M1384,180.4a2.57,2.57,0,0,1,.24-1.13,1.84,1.84,0,0,1,.7-.76,2,2,0,0,1,1.06-.27,1.91,1.91,0,0,1,1.39.53,2.1,2.1,0,0,1,.61,1.42v.29a2.21,2.21,0,0,1-.54,1.56,2.09,2.09,0,0,1-2.91,0,2.21,2.21,0,0,1-.55-1.59Zm1.13.08a1.6,1.6,0,0,0,.23.92.74.74,0,0,0,.64.32.77.77,0,0,0,.65-.32,1.75,1.75,0,0,0,.23-1,1.57,1.57,0,0,0-.23-.91.75.75,0,0,0-.65-.33.73.73,0,0,0-.64.33A1.73,1.73,0,0,0,1385.11,180.48Z"/><path class="cls-5" d="M1391,179.38l-.41,0a.82.82,0,0,0-.84.43v2.77h-1.13v-4.23h1.07l0,.51a1,1,0,0,1,.94-.59,1.34,1.34,0,0,1,.35,0Z"/><path class="cls-5" d="M1393.38,182.63a2.07,2.07,0,0,1-1.51-.57,2,2,0,0,1-.58-1.52v-.11a2.58,2.58,0,0,1,.24-1.14,1.81,1.81,0,0,1,.7-.77,1.87,1.87,0,0,1,1-.28,1.75,1.75,0,0,1,1.36.55,2.17,2.17,0,0,1,.5,1.55v.46h-2.69a1.1,1.1,0,0,0,.33.67,1,1,0,0,0,.7.25,1.23,1.23,0,0,0,1-.48l.55.62a1.77,1.77,0,0,1-.69.57A2.29,2.29,0,0,1,1393.38,182.63Zm-.13-3.48a.71.71,0,0,0-.54.23,1.18,1.18,0,0,0-.27.65H1394v-.09a.82.82,0,0,0-.2-.58A.73.73,0,0,0,1393.25,179.15Z"/><path class="cls-5" d="M1398,181.38a.38.38,0,0,0-.2-.33,2.32,2.32,0,0,0-.66-.21c-1-.21-1.51-.64-1.51-1.28a1.16,1.16,0,0,1,.47-.94,1.87,1.87,0,0,1,1.22-.38,2,2,0,0,1,1.28.38,1.19,1.19,0,0,1,.49,1h-1.13a.52.52,0,0,0-.16-.4.63.63,0,0,0-.49-.16.66.66,0,0,0-.44.13.4.4,0,0,0-.15.33.36.36,0,0,0,.17.3,1.87,1.87,0,0,0,.6.2,4.21,4.21,0,0,1,.71.19,1.16,1.16,0,0,1,.9,1.13,1.11,1.11,0,0,1-.5.94,2.13,2.13,0,0,1-1.28.36,2.32,2.32,0,0,1-.94-.19,1.62,1.62,0,0,1-.65-.52,1.26,1.26,0,0,1-.23-.72h1.07a.6.6,0,0,0,.22.47.92.92,0,0,0,.55.16.88.88,0,0,0,.5-.13A.38.38,0,0,0,1398,181.38Z"/><circle class="cls-4" cx="989.93" cy="163.71" r="40"/><circle class="cls-15" cx="949.14" cy="134.56" r="7"/><text class="cls-7" transform="translate(944.58 137.22)">CD</text><text class="cls-20" transform="translate(960.19 155.05)">coleta preliminar<tspan x="11.98" y="11">e escolha </tspan><tspan x="3.85" y="22">de indicadores</tspan></text><text class="cls-20" transform="translate(1094.65 156.75)">arquitetura e <tspan x="-3.66" y="11">coleta contínua</tspan><tspan x="7.4" y="22">de dados</tspan></text><text class="cls-21" transform="translate(56.17 236.14)">radar Inova</text><text class="cls-22" transform="translate(1484.87 159.98)">produção <tspan x="-2.68" y="11">de relatório</tspan></text><text class="cls-22" transform="translate(1610.76 163.16)">divulgação<tspan x="1.26" y="11">do projeto</tspan></text><text class="cls-20" transform="translate(1225.27 162.25)">modelagem<tspan x="5.23" y="11">e análise</tspan></text><circle class="cls-6" cx="1089.01" cy="121.93" r="7"/><text class="cls-7" transform="translate(1084.54 124.52)">SD</text><path class="cls-4" d="M269.11,400.79a.76.76,0,0,1-.77.77H252.86a.77.77,0,0,1-.78-.77.78.78,0,0,1,.78-.78h15.48A.77.77,0,0,1,269.11,400.79Z"/><path class="cls-4" d="M269.11,400.79a.82.82,0,0,1-.22.55l-3.9,3.9a.78.78,0,0,1-1.1,0,.77.77,0,0,1,0-1.1l3.35-3.35-3.37-3.36a.78.78,0,0,1,0-1.1.77.77,0,0,1,1.1,0l3.92,3.91A.78.78,0,0,1,269.11,400.79Z"/><path class="cls-4" d="M393.18,400.79a.77.77,0,0,1-.78.77H376.92a.77.77,0,0,1-.78-.77.78.78,0,0,1,.78-.78H392.4A.78.78,0,0,1,393.18,400.79Z"/><path class="cls-4" d="M393.18,400.79a.78.78,0,0,1-.23.55l-3.9,3.9a.78.78,0,0,1-1.1-1.1l3.35-3.35-3.36-3.36a.78.78,0,0,1,0-1.1.77.77,0,0,1,1.1,0l3.91,3.91A.75.75,0,0,1,393.18,400.79Z"/><text class="cls-23" transform="translate(187.24 403)">anúncio</text><text class="cls-21" transform="translate(421.49 394.25)">fechamento<tspan x="4.84" y="11">do time e</tspan><tspan x="-0.26" y="22">cronograma</tspan></text><circle class="cls-24" cx="362.53" cy="371.63" r="7"/><circle class="cls-16" cx="362.53" cy="371.63" r="7"/><text class="cls-7" transform="translate(360.27 374.29)">D</text><path class="cls-24" d="M303.12,394.33l-.41,0a.84.84,0,0,0-.84.43v2.77h-1.13v-4.23h1.07l0,.5a1.06,1.06,0,0,1,.94-.58,1.36,1.36,0,0,1,.36.05Z"/><path class="cls-24" d="M305.61,397.57a2.05,2.05,0,0,1-1.52-.57,2,2,0,0,1-.58-1.52v-.1a2.45,2.45,0,0,1,.25-1.14,1.75,1.75,0,0,1,.69-.78,2,2,0,0,1,1-.27,1.78,1.78,0,0,1,1.37.55,2.22,2.22,0,0,1,.5,1.55v.46h-2.7a1,1,0,0,0,.33.66,1,1,0,0,0,.7.25,1.19,1.19,0,0,0,1-.47l.56.62a1.66,1.66,0,0,1-.69.56A2.17,2.17,0,0,1,305.61,397.57Zm-.13-3.47a.73.73,0,0,0-.55.23,1.18,1.18,0,0,0-.26.65h1.57v-.09a.87.87,0,0,0-.21-.58A.71.71,0,0,0,305.48,394.1Z"/><path class="cls-24" d="M307.81,395.35a2.57,2.57,0,0,1,.44-1.57,1.45,1.45,0,0,1,1.22-.59,1.32,1.32,0,0,1,1,.46V391.5h1.13v6h-1l-.05-.45a1.35,1.35,0,0,1-1.09.52,1.43,1.43,0,0,1-1.2-.58A2.64,2.64,0,0,1,307.81,395.35Zm1.13.09a1.66,1.66,0,0,0,.21.91.66.66,0,0,0,.6.31.75.75,0,0,0,.74-.44v-1.67a.75.75,0,0,0-.73-.44C309.21,394.11,308.94,394.55,308.94,395.44Z"/><path class="cls-24" d="M314.44,397.57a2,2,0,0,1-1.51-.57,2,2,0,0,1-.59-1.52v-.1a2.45,2.45,0,0,1,.25-1.14,1.72,1.72,0,0,1,.7-.78,1.94,1.94,0,0,1,1-.27,1.78,1.78,0,0,1,1.37.55,2.22,2.22,0,0,1,.5,1.55v.46h-2.69a1,1,0,0,0,1,.91,1.19,1.19,0,0,0,1-.47l.56.62a1.66,1.66,0,0,1-.69.56A2.17,2.17,0,0,1,314.44,397.57Zm-.13-3.47a.71.71,0,0,0-.54.23,1.18,1.18,0,0,0-.27.65h1.57v-.09a.86.86,0,0,0-.2-.58A.73.73,0,0,0,314.31,394.1Z"/><path class="cls-24" d="M317.13,397.5v-3.4h-.63v-.83h.63v-.36a1.43,1.43,0,0,1,.41-1.1,1.58,1.58,0,0,1,1.14-.4,2.76,2.76,0,0,1,.57.08v.88a1.13,1.13,0,0,0-.34,0c-.43,0-.64.2-.64.6v.34h.84v.83h-.84v3.4Z"/><path class="cls-24" d="M319.68,392.18a.54.54,0,0,1,.17-.42.71.71,0,0,1,.92,0,.6.6,0,0,1,0,.84.74.74,0,0,1-.92,0A.57.57,0,0,1,319.68,392.18Zm1.2,5.32h-1.14v-4.23h1.14Z"/><path class="cls-24" d="M322.85,393.27l0,.49a1.48,1.48,0,0,1,1.22-.57,1.22,1.22,0,0,1,1,.4,1.84,1.84,0,0,1,.33,1.18v2.73H324.3v-2.71a.77.77,0,0,0-.15-.52.7.7,0,0,0-.52-.16.79.79,0,0,0-.72.41v3h-1.13v-4.23Z"/><path class="cls-24" d="M326.28,392.18a.57.57,0,0,1,.17-.42.71.71,0,0,1,.92,0,.58.58,0,0,1,0,.84.63.63,0,0,1-.46.16.65.65,0,0,1-.46-.16A.57.57,0,0,1,326.28,392.18Zm1.2,5.32h-1.13v-4.23h1.13Z"/><path class="cls-24" d="M330.17,396.66a.71.71,0,0,0,.5-.17.6.6,0,0,0,.21-.45h1.06a1.55,1.55,0,0,1-.24.78,1.49,1.49,0,0,1-.63.56,2,2,0,0,1-.88.19,1.82,1.82,0,0,1-1.43-.57,2.28,2.28,0,0,1-.53-1.59v-.08a2.29,2.29,0,0,1,.52-1.56,1.85,1.85,0,0,1,1.43-.58,1.78,1.78,0,0,1,1.27.45,1.61,1.61,0,0,1,.49,1.2h-1.06a.81.81,0,0,0-.21-.53.66.66,0,0,0-.51-.21.7.7,0,0,0-.6.29,1.69,1.69,0,0,0-.2.93v.12a1.7,1.7,0,0,0,.2.94A.69.69,0,0,0,330.17,396.66Zm.41.81-.05.23a.64.64,0,0,1,.59.68.8.8,0,0,1-.36.68,1.78,1.78,0,0,1-1,.25l0-.66c.29,0,.44-.1.44-.31a.24.24,0,0,0-.13-.23,1.56,1.56,0,0,0-.43-.08l.12-.56Z"/><path class="cls-24" d="M335,397.5a1.31,1.31,0,0,1-.11-.38,1.39,1.39,0,0,1-1.07.45,1.5,1.5,0,0,1-1-.35,1.18,1.18,0,0,1-.41-.91,1.2,1.2,0,0,1,.5-1,2.5,2.5,0,0,1,1.44-.37h.52v-.24a.72.72,0,0,0-.15-.47.62.62,0,0,0-.48-.17.66.66,0,0,0-.44.13.48.48,0,0,0-.16.38h-1.13a1.15,1.15,0,0,1,.22-.68,1.52,1.52,0,0,1,.64-.49,2.34,2.34,0,0,1,.93-.18,1.84,1.84,0,0,1,1.24.39,1.39,1.39,0,0,1,.46,1.11v1.83a2.13,2.13,0,0,0,.17.91v.07Zm.74-5.95a1.11,1.11,0,0,1-.26.74.8.8,0,0,1-.63.3.68.68,0,0,1-.26,0,1.82,1.82,0,0,1-.32-.14,1.45,1.45,0,0,0-.29-.13.64.64,0,0,0-.2,0,.29.29,0,0,0-.23.1.4.4,0,0,0-.1.28l-.65,0a1.11,1.11,0,0,1,.25-.74.8.8,0,0,1,.85-.28,2.37,2.37,0,0,1,.34.15,1.74,1.74,0,0,0,.32.13.58.58,0,0,0,.19,0,.37.37,0,0,0,.24-.1.38.38,0,0,0,.1-.28Zm-1.67,5.16a1,1,0,0,0,.46-.11.69.69,0,0,0,.31-.3v-.73h-.42c-.57,0-.87.2-.9.59v.07a.43.43,0,0,0,.15.34A.54.54,0,0,0,334.1,396.71Z"/><path class="cls-24" d="M336.69,395.34a2.43,2.43,0,0,1,.25-1.12,1.76,1.76,0,0,1,.69-.76,2.06,2.06,0,0,1,1.06-.27,1.93,1.93,0,0,1,1.4.53,2.07,2.07,0,0,1,.6,1.42v.29a2.19,2.19,0,0,1-.55,1.56,1.87,1.87,0,0,1-1.45.58,1.89,1.89,0,0,1-1.46-.58,2.27,2.27,0,0,1-.55-1.6Zm1.13.08a1.62,1.62,0,0,0,.23.93.83.83,0,0,0,1.29,0,1.75,1.75,0,0,0,.23-1,1.57,1.57,0,0,0-.23-.91.8.8,0,0,0-1.29,0A1.78,1.78,0,0,0,337.82,395.42Z"/><path class="cls-24" d="M303,406.35a2.5,2.5,0,0,1,.45-1.57,1.44,1.44,0,0,1,1.21-.59,1.32,1.32,0,0,1,1,.46V402.5h1.13v6h-1l-.05-.45a1.32,1.32,0,0,1-1.09.52,1.43,1.43,0,0,1-1.19-.58A2.58,2.58,0,0,1,303,406.35Zm1.13.09a1.66,1.66,0,0,0,.21.91.67.67,0,0,0,.6.31.74.74,0,0,0,.74-.44v-1.67a.75.75,0,0,0-.73-.44C304.41,405.11,304.13,405.55,304.13,406.44Z"/><path class="cls-24" d="M307.51,406.34a2.56,2.56,0,0,1,.24-1.12,1.84,1.84,0,0,1,.7-.76,2.06,2.06,0,0,1,1.06-.27,1.91,1.91,0,0,1,1.39.53,2,2,0,0,1,.61,1.42v.29A2.19,2.19,0,0,1,311,408a1.87,1.87,0,0,1-1.45.58,1.89,1.89,0,0,1-1.46-.58,2.22,2.22,0,0,1-.55-1.6Zm1.13.08a1.62,1.62,0,0,0,.23.93.74.74,0,0,0,.65.31.76.76,0,0,0,.64-.31,1.75,1.75,0,0,0,.23-1,1.57,1.57,0,0,0-.23-.91.75.75,0,0,0-.65-.33.74.74,0,0,0-.64.32A1.78,1.78,0,0,0,308.64,406.42Z"/><path class="cls-24" d="M314,406.35a2.57,2.57,0,0,1,.44-1.57,1.45,1.45,0,0,1,1.21-.59,1.29,1.29,0,0,1,1,.46V402.5h1.14v6h-1l-.06-.45a1.32,1.32,0,0,1-1.08.52,1.43,1.43,0,0,1-1.2-.58A2.64,2.64,0,0,1,314,406.35Zm1.13.09a1.75,1.75,0,0,0,.2.91.68.68,0,0,0,.61.31.74.74,0,0,0,.73-.44v-1.67a.75.75,0,0,0-.73-.44C315.43,405.11,315.16,405.55,315.16,406.44Z"/><path class="cls-24" d="M320.66,408.57a2.05,2.05,0,0,1-1.52-.57,2,2,0,0,1-.58-1.52v-.1a2.45,2.45,0,0,1,.25-1.14,1.75,1.75,0,0,1,.69-.78,2,2,0,0,1,1-.27,1.79,1.79,0,0,1,1.37.55,2.22,2.22,0,0,1,.49,1.55v.46H319.7a1,1,0,0,0,.33.66,1,1,0,0,0,.7.25,1.19,1.19,0,0,0,1-.47l.56.62a1.66,1.66,0,0,1-.69.56A2.17,2.17,0,0,1,320.66,408.57Zm-.13-3.47a.72.72,0,0,0-.55.23,1.11,1.11,0,0,0-.26.65h1.57v-.09a.87.87,0,0,0-.21-.58A.71.71,0,0,0,320.53,405.1Z"/><path class="cls-24" d="M325.32,407.33a.36.36,0,0,0-.2-.33,2.32,2.32,0,0,0-.66-.21c-1-.21-1.51-.64-1.51-1.28a1.16,1.16,0,0,1,.47-.94,1.89,1.89,0,0,1,1.22-.38,2,2,0,0,1,1.29.38,1.19,1.19,0,0,1,.48,1h-1.13a.58.58,0,0,0-.15-.41.7.7,0,0,0-.49-.15.64.64,0,0,0-.44.13.38.38,0,0,0-.16.32.36.36,0,0,0,.18.31,2.16,2.16,0,0,0,.6.2,4.29,4.29,0,0,1,.71.18,1.17,1.17,0,0,1,.89,1.14,1.1,1.1,0,0,1-.49.94,2.14,2.14,0,0,1-1.29.35,2.35,2.35,0,0,1-.94-.18,1.58,1.58,0,0,1-.64-.52,1.2,1.2,0,0,1-.24-.72h1.07a.6.6,0,0,0,.22.46.89.89,0,0,0,.56.16.84.84,0,0,0,.49-.12A.38.38,0,0,0,325.32,407.33Z"/><path class="cls-24" d="M329.6,408.5a1.7,1.7,0,0,1-.12-.38,1.35,1.35,0,0,1-1.06.45,1.48,1.48,0,0,1-1-.35,1.18,1.18,0,0,1-.41-.91,1.2,1.2,0,0,1,.5-1,2.5,2.5,0,0,1,1.44-.37h.52v-.24a.72.72,0,0,0-.15-.47.62.62,0,0,0-.48-.17.64.64,0,0,0-.44.13.49.49,0,0,0-.17.38h-1.13a1.16,1.16,0,0,1,.23-.68,1.52,1.52,0,0,1,.64-.49,2.34,2.34,0,0,1,.93-.18,1.84,1.84,0,0,1,1.24.39,1.39,1.39,0,0,1,.46,1.11v1.83a2,2,0,0,0,.17.91v.07Zm-.94-.79a1.08,1.08,0,0,0,.47-.11.69.69,0,0,0,.31-.3v-.73H329c-.57,0-.87.2-.91.59v.07a.43.43,0,0,0,.15.34A.53.53,0,0,0,328.66,407.71Z"/><path class="cls-24" d="M331.75,408.5v-3.4h-.63v-.83h.63v-.36a1.46,1.46,0,0,1,.4-1.1,1.62,1.62,0,0,1,1.15-.4,2.85,2.85,0,0,1,.57.08v.88a1.13,1.13,0,0,0-.34,0c-.43,0-.64.2-.64.6v.34h.84v.83h-.84v3.4Z"/><path class="cls-24" d="M334.3,403.18a.54.54,0,0,1,.17-.42.62.62,0,0,1,.46-.17.64.64,0,0,1,.46.17.6.6,0,0,1,0,.84.74.74,0,0,1-.92,0A.54.54,0,0,1,334.3,403.18Zm1.2,5.32h-1.14v-4.23h1.14Z"/><path class="cls-24" d="M336.25,406.34a2.56,2.56,0,0,1,.24-1.12,1.78,1.78,0,0,1,.7-.76,2,2,0,0,1,1.06-.27,1.91,1.91,0,0,1,1.39.53,2.12,2.12,0,0,1,.61,1.42v.29a2.23,2.23,0,0,1-.54,1.56,1.89,1.89,0,0,1-1.46.58,1.87,1.87,0,0,1-1.45-.58,2.22,2.22,0,0,1-.55-1.6Zm1.13.08a1.54,1.54,0,0,0,.23.93.82.82,0,0,0,1.28,0,1.67,1.67,0,0,0,.24-1,1.49,1.49,0,0,0-.24-.91.79.79,0,0,0-1.28,0A1.7,1.7,0,0,0,337.38,406.42Z"/><path class="cls-4" d="M607.08,336a.78.78,0,0,1,.27,1.07l-8,13.25a.78.78,0,1,1-1.34-.8l8-13.26A.78.78,0,0,1,607.08,336Z"/><path class="cls-4" d="M607.08,336a.76.76,0,0,1,.36.48l1.32,5.35a.77.77,0,0,1-.57.94.78.78,0,0,1-.94-.57l-1.14-4.59-4.61,1.14a.78.78,0,0,1-.38-1.51l5.37-1.33A.76.76,0,0,1,607.08,336Z"/><path class="cls-4" d="M619,273.78a.77.77,0,0,1,.78.77l0,15.48a.78.78,0,0,1-.77.78.77.77,0,0,1-.78-.77l0-15.48A.77.77,0,0,1,619,273.78Z"/><path class="cls-4" d="M619,273.78a.76.76,0,0,1,.55.23l3.91,3.88a.78.78,0,0,1-1.1,1.11L619,275.66,615.61,279a.78.78,0,1,1-1.1-1.1l3.9-3.92A.76.76,0,0,1,619,273.78Z"/><path class="cls-4" d="M619,206.12a.78.78,0,0,1,.78.78l0,15.48a.77.77,0,0,1-.77.78.78.78,0,0,1-.78-.78l-.05-15.48A.79.79,0,0,1,619,206.12Z"/><path class="cls-4" d="M619,206.12a.76.76,0,0,1,.55.23l3.91,3.89a.78.78,0,0,1,0,1.1.78.78,0,0,1-1.1,0L619,208l-3.35,3.37a.78.78,0,0,1-1.1,0,.78.78,0,0,1,0-1.1l3.9-3.93A.81.81,0,0,1,619,206.12Z"/><path class="cls-4" d="M564.29,382.46a.78.78,0,0,1-.33,1.05l-13.74,7.13a.78.78,0,1,1-.71-1.38l13.74-7.13A.76.76,0,0,1,564.29,382.46Z"/><path class="cls-4" d="M564.29,382.46a.79.79,0,0,1,.06.6l-1.67,5.25a.78.78,0,1,1-1.48-.47l1.43-4.51-4.53-1.44a.77.77,0,0,1,.46-1.48l5.28,1.67A.74.74,0,0,1,564.29,382.46Z"/><circle class="cls-17" cx="1030.97" cy="197.11" r="9.36"/><path class="cls-25" d="M1029.5,200.54a3.85,3.85,0,1,1,2.93,0,4,4,0,0,1-.84.24h0L1032,199a.23.23,0,0,0,0-.18.2.2,0,0,0-.16-.07h-1.58a.2.2,0,0,0-.16.07.23.23,0,0,0,0,.18l.37,1.79h0A4,4,0,0,1,1029.5,200.54Z"/><path class="cls-24" d="M1032.43,200.66v1.19a1.43,1.43,0,0,1-.57,1.15,1.73,1.73,0,0,1-1.79,0,1.43,1.43,0,0,1-.57-1.15v-1.19a1.43,1.43,0,0,0,.57,1.15,1.73,1.73,0,0,0,1.79,0A1.43,1.43,0,0,0,1032.43,200.66Z"/><path class="cls-24" d="M1032.43,200.55v.11a1.43,1.43,0,0,1-.57,1.15,1.73,1.73,0,0,1-1.79,0,1.43,1.43,0,0,1-.57-1.15v-.12a4,4,0,0,0,.85.24,4.07,4.07,0,0,0,.61.05,4.23,4.23,0,0,0,.63-.05,4,4,0,0,0,.84-.24Z"/><path class="cls-25" d="M1031.92,198.8a.23.23,0,0,1,0,.18l-.37,1.79h0a4.23,4.23,0,0,1-.63.05,4.07,4.07,0,0,1-.61-.05h0L1030,199a.23.23,0,0,1,0-.18.2.2,0,0,1,.16-.07h1.58A.2.2,0,0,1,1031.92,198.8Z"/><line class="cls-26" x1="1028.64" y1="192.57" x2="1028.15" y2="191.72"/><line class="cls-26" x1="1030.97" y1="191.95" x2="1030.97" y2="190.97"/><line class="cls-26" x1="1033.3" y1="192.57" x2="1033.8" y2="191.72"/><line class="cls-26" x1="1035.01" y1="194.28" x2="1035.86" y2="193.79"/><line class="cls-26" x1="1026.93" y1="194.28" x2="1026.08" y2="193.79"/><path class="cls-26" d="M1032.43,200.55v1.3a1.43,1.43,0,0,1-.57,1.15,1.73,1.73,0,0,1-1.79,0,1.43,1.43,0,0,1-.57-1.15v-1.31h0"/><path class="cls-26" d="M1029.5,200.66a1.43,1.43,0,0,0,.57,1.15,1.73,1.73,0,0,0,1.79,0,1.43,1.43,0,0,0,.57-1.15"/><path class="cls-26" d="M1029.5,200.54a3.85,3.85,0,1,1,2.93,0,4,4,0,0,1-.84.24,4.23,4.23,0,0,1-.63.05,4.07,4.07,0,0,1-.61-.05A4,4,0,0,1,1029.5,200.54Z"/><path class="cls-26" d="M1030.35,200.77,1030,199a.23.23,0,0,1,0-.18.2.2,0,0,1,.16-.07h1.58a.2.2,0,0,1,.16.07.23.23,0,0,1,0,.18l-.37,1.79"/><circle class="cls-4" cx="861.53" cy="163.71" r="40"/><text class="cls-20" transform="translate(834.32 155.05)">levantamento e<tspan x="1.17" y="11">priorização de </tspan><tspan x="6.6" y="22">indicadores</tspan></text><circle class="cls-16" cx="833.44" cy="121.9" r="7"/><text class="cls-7" transform="translate(831.16 124.6) rotate(-0.25)">D</text><circle class="cls-27" cx="820.79" cy="134.56" r="7"/><text class="cls-7" transform="translate(815.4 137.13) rotate(2.5)">MR</text><circle class="cls-17" cx="869.98" cy="111.74" r="9.36"/><path class="cls-28" d="M875.37,111.74a5.35,5.35,0,0,1-3.09,4.86,4.42,4.42,0,0,1-.6.24,5.32,5.32,0,0,1-1.7.28,5.38,5.38,0,1,1,0-10.76,5.2,5.2,0,0,1,1.82.32,3.9,3.9,0,0,1,.47.2A5.35,5.35,0,0,1,875.37,111.74Z"/><path class="cls-29" d="M875.37,111.74a5.66,5.66,0,0,1-3.57,5.16c-1.81-.87-2.6-3-2.6-5.16s.79-4.25,2.6-5.11A5.81,5.81,0,0,1,875.37,111.74Z"/><circle class="cls-4" cx="618.13" cy="162.22" r="26.21"/><line class="cls-9" x1="680.94" y1="69.77" x2="680.94" y2="189.11"/><text class="cls-12" transform="translate(686.99 78.23)">PRIORIZAÇÃO</text><path class="cls-30" d="M629.14,155.33v13.78a11,11,0,0,1-22,0V155.33a11,11,0,0,1,22,0Zm-5.53,0a5.48,5.48,0,1,0-5.48,5.48A5.47,5.47,0,0,0,623.61,155.35Zm0,15.35a5.48,5.48,0,1,0-5.48,5.47A5.47,5.47,0,0,0,623.61,170.7Z"/><path class="cls-31" d="M618.13,149.88a5.48,5.48,0,1,1-5.47,5.47A5.47,5.47,0,0,1,618.13,149.88Zm2.51,5.14a.44.44,0,0,0,0-.62l-2.17-2.16,0,0a.42.42,0,0,0-.14-.09l0,0h0l-.1,0-.11,0h0l0,0a.34.34,0,0,0-.14.09l0,0-2.17,2.17a.44.44,0,0,0,.62.62l1.45-1.45v4.94a.44.44,0,1,0,.87,0v-4.94L620,155A.44.44,0,0,0,620.64,155Z"/><path class="cls-8" d="M618.13,165.23a5.47,5.47,0,1,1-5.47,5.47A5.47,5.47,0,0,1,618.13,165.23Zm3.44,5.47s0-.07,0-.1v0s0,0,0,0a.39.39,0,0,0-.1-.14v0l-2.19-2.18a.44.44,0,0,0-.62,0,.43.43,0,0,0,0,.61l1.46,1.46h-5a.44.44,0,0,0,0,.87h5l-1.45,1.45a.43.43,0,0,0,0,.61.42.42,0,0,0,.62,0l2.18-2.17v0s0,0,.06-.06h0a.3.3,0,0,1,0-.08s0,0,0,0,0,0,0,0A.31.31,0,0,0,621.57,170.7Z"/><path class="cls-32" d="M621.56,170.6s0,.07,0,.1a.31.31,0,0,1,0,.1s0,0,0,0,0,0,0,0a.3.3,0,0,0,0,.08h0l-.06.06v0a.44.44,0,0,1-.3.11h-1l.43-.44-.43-.43h1a.44.44,0,0,1,.3.11v0a.5.5,0,0,1,.1.14s0,0,0,0Z"/><path class="cls-32" d="M621.55,170.83s0,0,0,0S621.55,170.82,621.55,170.83Z"/><path class="cls-32" d="M621.56,170.6v0Z"/><path class="cls-32" d="M621.5,171a.3.3,0,0,1,0-.08A.3.3,0,0,0,621.5,171Z"/><path class="cls-32" d="M621.44,170.4a.39.39,0,0,1,.1.14A.5.5,0,0,0,621.44,170.4Z"/><path class="cls-32" d="M621.5,171s0,.05-.06.06Z"/><path class="cls-32" d="M619.24,168.2l2.19,2.18a.44.44,0,0,0-.3-.11h-1l-1.46-1.46a.43.43,0,0,1,0-.61A.44.44,0,0,1,619.24,168.2Z"/><path class="cls-32" d="M621.43,171l-2.18,2.17a.42.42,0,0,1-.62,0,.43.43,0,0,1,0-.61l1.45-1.45h1A.44.44,0,0,0,621.43,171Z"/><path class="cls-32" d="M620.64,154.4a.44.44,0,0,1-.62.62l-1.45-1.44v-1.06a.42.42,0,0,0-.1-.28Z"/><path class="cls-32" d="M620.51,170.7l-.43.44h-5a.44.44,0,0,1,0-.87h5Z"/><path class="cls-32" d="M618.57,153.58v4.94a.44.44,0,1,1-.87,0v-4.94l.44-.44Z"/><path class="cls-32" d="M618.57,152.52v1.06l-.43-.44-.44.44v-1.06a.48.48,0,0,1,.1-.28l0,0a.42.42,0,0,1,.14-.09l0,0h0l.11,0,.1,0h0l0,0a.55.55,0,0,1,.14.09l0,0A.42.42,0,0,1,618.57,152.52Z"/><path class="cls-32" d="M618.31,152.12a.42.42,0,0,1,.14.09A.55.55,0,0,0,618.31,152.12Z"/><path class="cls-32" d="M618.27,152.1h0Z"/><path class="cls-32" d="M618,152.1h0Z"/><path class="cls-32" d="M618,152.12a.42.42,0,0,0-.14.09A.34.34,0,0,1,618,152.12Z"/><path class="cls-32" d="M615.63,154.41l2.17-2.17a.48.48,0,0,0-.1.28v1.06L616.25,155a.44.44,0,0,1-.62-.62Z"/><path class="cls-33" d="M618.13,144.33a11,11,0,0,0-11,11v13.78a11,11,0,0,0,22,0V155.33A11,11,0,0,0,618.13,144.33Z"/><circle class="cls-33" cx="618.13" cy="155.35" r="5.47"/><path class="cls-33" d="M623.61,170.7a5.48,5.48,0,1,1-5.48-5.47A5.47,5.47,0,0,1,623.61,170.7Z"/><path class="cls-33" d="M610.91,155.35a7.23,7.23,0,0,1,14.45,0"/><path class="cls-33" d="M610.91,170.69a7.23,7.23,0,0,1,14.45,0"/><rect class="cls-34" x="1112.36" y="280.18" width="205.79" height="175.88"/><text class="cls-35" transform="translate(1112.36 274.18)">APRENDIZADOS</text><circle class="cls-16" cx="1149.29" cy="313.75" r="7"/><text class="cls-7" transform="translate(1147.03 316.42)">D</text><circle class="cls-8" cx="1149.29" cy="413.92" r="7"/><text class="cls-7" transform="translate(1144.74 416.53)">PP</text><circle class="cls-8" cx="1149.29" cy="353.74" r="7"/><circle class="cls-14" cx="1149.29" cy="353.75" r="7"/><text class="cls-7" transform="translate(1144.7 356.36)">CC</text><circle class="cls-15" cx="1149.29" cy="373.73" r="7"/><text class="cls-7" transform="translate(1144.73 376.46)">CD</text><circle class="cls-6" cx="1149.31" cy="393.64" r="7"/><text class="cls-7" transform="translate(1144.84 396.23)">SD</text><circle class="cls-27" cx="1149.29" cy="333.75" r="7"/><text class="cls-7" transform="translate(1143.94 336.48)">MR</text><text class="cls-36" transform="translate(1163.58 317.16)">design<tspan x="0" y="19.98">mobilização de rede</tspan><tspan x="0" y="39.95">campanhas de comunicação</tspan><tspan x="0" y="59.93">ciência de dados</tspan><tspan x="0" y="79.9">soluções digitais</tspan><tspan x="0" y="99.88">políticas públicas informadas</tspan><tspan x="0" y="111.88">por evidência</tspan></text><rect class="cls-37" x="1350.99" y="280.18" width="206.83" height="175.88"/><text class="cls-35" transform="translate(1350.99 274.89)">INOVAÇÃO ABERTA</text><circle class="cls-17" cx="1390.29" cy="316.12" r="9.36"/><text class="cls-36" transform="translate(1405.22 318.74)">inovação aberta</text><text class="cls-38" transform="translate(1380.93 340.98)">Sempre que houver este símbolo, o <tspan x="0" y="12">processo poderá ser aberto para </tspan><tspan x="0" y="24">participação de atores externos nas </tspan><tspan x="0" y="36">fases subsequentes, por meio de </tspan><tspan x="0" y="48">encomendas tecnológicas, hackathons </tspan><tspan x="0" y="60">ou concursos.</tspan></text><rect class="cls-37" x="1590.66" y="280.18" width="206.83" height="175.88"/><text class="cls-35" transform="translate(1591.33 274.89)">LADO SOMBRIO</text><text class="cls-36" transform="translate(1645.55 318.74)">lado sombrio</text><text class="cls-38" transform="translate(1621.27 340.98)">A priorização de indicadores começa <tspan x="0" y="12">pelo “lado sombrio” – um processo </tspan><tspan x="0" y="24">colaborativo entre especialistas para </tspan><tspan x="0" y="36">imaginar a rotina do gestor mais </tspan><tspan x="0" y="48">ineficiente ou mais corrupto possível. </tspan><tspan x="0" y="60">Como ele esconderia ineficiências ou </tspan><tspan x="0" y="72">desvios de recursos? Quais dados, e em </tspan><tspan x="0" y="84">qual ordem, precisaríamos enxergar para </tspan><tspan x="0" y="96">evitar o pior?</tspan></text><circle class="cls-17" cx="1630.62" cy="316.12" r="9.36"/><path class="cls-28" d="M1636,316.12a5.34,5.34,0,0,1-3.08,4.86,5,5,0,0,1-.6.24,5.38,5.38,0,1,1-1.7-10.49,5.29,5.29,0,0,1,1.82.33l.47.19A5.37,5.37,0,0,1,1636,316.12Z"/><path class="cls-39" d="M1636,316.12a5.64,5.64,0,0,1-3.56,5.15c-1.82-.86-2.6-3-2.6-5.15s.78-4.25,2.6-5.11A5.81,5.81,0,0,1,1636,316.12Z"/><path class="cls-25" d="M1388.82,319.55a3.85,3.85,0,1,1,2.93,0,3.78,3.78,0,0,1-.83.24h0l.37-1.79a.23.23,0,0,0,0-.18.21.21,0,0,0-.17-.08h-1.58a.21.21,0,0,0-.16.08.23.23,0,0,0,0,.18l.36,1.79h0A4.13,4.13,0,0,1,1388.82,319.55Z"/><path class="cls-24" d="M1391.75,319.67v1.19a1.43,1.43,0,0,1-.57,1.15,1.34,1.34,0,0,1-.89.25,1.38,1.38,0,0,1-.9-.25,1.45,1.45,0,0,1-.57-1.15v-1.19a1.47,1.47,0,0,0,.57,1.15,1.44,1.44,0,0,0,.9.25,1.39,1.39,0,0,0,.89-.25A1.44,1.44,0,0,0,1391.75,319.67Z"/><path class="cls-24" d="M1391.75,319.55v.12a1.44,1.44,0,0,1-.57,1.15,1.39,1.39,0,0,1-.89.25,1.44,1.44,0,0,1-.9-.25,1.47,1.47,0,0,1-.57-1.15v-.12a4.13,4.13,0,0,0,.85.24,4.21,4.21,0,0,0,.62,0,4.46,4.46,0,0,0,.63,0,3.78,3.78,0,0,0,.83-.24Z"/><path class="cls-25" d="M1391.25,317.81a.23.23,0,0,1,0,.18l-.37,1.79h0a4.46,4.46,0,0,1-.63,0,4.21,4.21,0,0,1-.62,0h0l-.36-1.79a.23.23,0,0,1,0-.18.21.21,0,0,1,.16-.08h1.58A.21.21,0,0,1,1391.25,317.81Z"/><line class="cls-26" x1="1387.96" y1="311.58" x2="1387.47" y2="310.73"/><line class="cls-26" x1="1390.29" y1="310.96" x2="1390.29" y2="309.98"/><line class="cls-26" x1="1392.63" y1="311.58" x2="1393.12" y2="310.73"/><line class="cls-26" x1="1394.33" y1="313.29" x2="1395.19" y2="312.8"/><line class="cls-26" x1="1386.25" y1="313.29" x2="1385.4" y2="312.8"/><path class="cls-26" d="M1391.75,319.55v1.31a1.43,1.43,0,0,1-.57,1.15,1.34,1.34,0,0,1-.89.25,1.38,1.38,0,0,1-.9-.25,1.45,1.45,0,0,1-.57-1.15v-1.31h0"/><path class="cls-26" d="M1388.82,319.67a1.47,1.47,0,0,0,.57,1.15,1.44,1.44,0,0,0,.9.25,1.39,1.39,0,0,0,.89-.25,1.44,1.44,0,0,0,.57-1.15"/><path class="cls-26" d="M1388.82,319.55a3.85,3.85,0,1,1,2.93,0,3.78,3.78,0,0,1-.83.24,4.46,4.46,0,0,1-.63,0,4.21,4.21,0,0,1-.62,0A4.13,4.13,0,0,1,1388.82,319.55Z"/><path class="cls-26" d="M1389.67,319.78l-.36-1.79a.23.23,0,0,1,0-.18.21.21,0,0,1,.16-.08h1.58a.21.21,0,0,1,.17.08.23.23,0,0,1,0,.18l-.37,1.79"/><circle class="cls-8" cx="406.32" cy="98.44" r="7"/><text class="cls-7" transform="translate(401.76 101.11) rotate(-0.51)">PP</text><circle class="cls-15" cx="419.47" cy="132.07" r="7"/><text class="cls-7" transform="translate(414.91 134.73)">CD</text><circle class="cls-27" cx="409.87" cy="116.39" r="7"/><text class="cls-7" transform="translate(404.49 118.96) rotate(2.5)">MR</text></svg>