<svg id="Camada_1" data-name="Camada 1" xmlns="http://www.w3.org/2000/svg" viewBox="0 0 293.26 293.18"><defs><style>.cls-1,.cls-6,.cls-7{fill:none;}.cls-1{stroke:#22344a;stroke-width:8px;}.cls-1,.cls-6{stroke-miterlimit:10;}.cls-2{fill:#fff;}.cls-3{fill:#f3f0f0;}.cls-4{fill:#e9521b;}.cls-5{fill:#f6a217;}.cls-6,.cls-7{stroke:#21344a;stroke-width:4px;}.cls-7{stroke-linecap:round;stroke-linejoin:round;}</style></defs><title>bg</title><circle class="cls-1" cx="146.63" cy="146.56" r="139.01"/><path class="cls-2" d="M151.14,167.36l.2.5c-3.19-.25-6.48-.4-9.52-.34l.69-1.59C146.06,166.4,148.93,167,151.14,167.36Z"/><path class="cls-3" d="M92.17,172.13l28.92-11.59c-.74,2.07-1.31,3.31-1.44,4L93.37,175.1a1.6,1.6,0,1,1-1.2-3Z"/><path class="cls-2" d="M156.2,125.76l-9.44,22L141.24,134A60.07,60.07,0,0,1,156.2,125.76Z"/><path class="cls-2" d="M200.74,176.35a1.66,1.66,0,0,0,.89-.86l1.21.5a60.9,60.9,0,0,1-33.36,32.75l-.55-1.3a1.62,1.62,0,0,0,.89-2.1l-10.61-26.48a16,16,0,0,0,3.18-.55c4.74-1.5,9-9.66,6.22-9-1.21.29-7-.54-13.69-1.18l-.16-.41c2.19,0,2.79-1.13,2-4.5-.43-1.76-.88-3.68-1.26-5.75l44,18.83A1.59,1.59,0,0,0,200.74,176.35Z"/><path class="cls-2" d="M154.61,147.1c0,1.19,0,2.33,0,3.44l-3.75,1.51-2.08-.89.9-2.1Z"/><path class="cls-2" d="M138.61,136.08,143.79,149l-12.88-5.51A62.88,62.88,0,0,1,138.61,136.08Z"/><path class="cls-2" d="M170.74,95.89a61,61,0,0,1,32.64,33.4l-1.23.49a1.61,1.61,0,0,0-2.09-.89L154.61,147.1a49.81,49.81,0,0,1,5.65-21.48c.16-.33.06-.52-.25-.61l11-25.81a1.61,1.61,0,0,0-.84-2.11Z"/><path class="cls-2" d="M169.37,208.78a60.92,60.92,0,0,1-46.77-.57l.62-1.3a1.64,1.64,0,0,0,1.23,0,1.6,1.6,0,0,0,.89-.86l11.84-27.68c4.86.23,12.72.77,18.64.64l11,27.52a1.61,1.61,0,0,0,2.09.9l.55,1.3Z"/><path class="cls-2" d="M150.9,152.05l3.75-1.51c.06,1.11.15,2.19.27,3.23Z"/><path class="cls-3" d="M142.51,165.93l-.69,1.59c-1.25,0-2.44.09-3.58.21l.94-2.19h0Q140.94,165.71,142.51,165.93Z"/><path class="cls-3" d="M159.21,178.86l10.61,26.48a1.61,1.61,0,1,1-3,1.2l-11-27.52C157.05,179,158.19,178.94,159.21,178.86Z"/><path class="cls-2" d="M142.52,152l-21.43,8.59c.11-.3.23-.61.33-.94a47.09,47.09,0,0,1,7.36-13.52Z"/><path class="cls-2" d="M143.72,154.93l-4.54,10.61h0c-.62-.07-1.26-.12-1.9-.17-14.53-1.12-18,1.36-17.63-.8Z"/><path class="cls-3" d="M170.21,97.09a1.61,1.61,0,0,1,.84,2.11L160,125a8.47,8.47,0,0,0-3.81.75l11.89-27.82A1.62,1.62,0,0,1,170.21,97.09Z"/><path class="cls-2" d="M149.72,149.06,160,125c.31.09.41.28.25.61a49.81,49.81,0,0,0-5.65,21.48Z"/><path class="cls-2" d="M124,95.25a61,61,0,0,1,46.75.64l-.53,1.2a1.62,1.62,0,0,0-2.12.85L156.2,125.76a60.07,60.07,0,0,0-15,8.27L126.58,97.46a1.6,1.6,0,0,0-2.08-.89Z"/><path class="cls-4" d="M151.34,167.86,155.82,179c-5.92.13-13.78-.41-18.64-.64l4.64-10.86C144.86,167.46,148.15,167.61,151.34,167.86Z"/><path class="cls-2" d="M124.5,96.57a1.59,1.59,0,0,0-.89,2.08l15,37.43a62.88,62.88,0,0,0-7.7,7.41l-37-15.82a1.58,1.58,0,0,0-2.11.85L90.46,128a60.93,60.93,0,0,1,33.43-32.71l.1,0Z"/><path class="cls-2" d="M91.27,174.22a1.61,1.61,0,0,0,2.1.88l26.28-10.53c-.4,2.16,3.1-.32,17.63.8.64,0,1.28.1,1.9.17l-.94,2.19a18.14,18.14,0,0,0-6.61,1.61c-2.09,1.09.32,6,2.46,8.08L122.38,204.8a1.61,1.61,0,0,0,.84,2.11l-.62,1.3a61,61,0,0,1-32.71-33.44Z"/><path class="cls-3" d="M126.58,97.46,141.24,134c-.87.64-1.75,1.33-2.63,2.05l-15-37.43a1.6,1.6,0,0,1,3-1.19Z"/><path class="cls-3" d="M200.78,173.38a1.6,1.6,0,0,1,.85,2.11,1.66,1.66,0,0,1-.89.86,1.59,1.59,0,0,1-1.23,0l-44-18.83c-.22-1.19-.41-2.44-.56-3.73Z"/><path class="cls-4" d="M141.82,167.52l-4.64,10.86-1.55-.07a2.78,2.78,0,0,1-1.54-.89l4.15-9.69C139.38,167.61,140.57,167.55,141.82,167.52Z"/><path class="cls-4" d="M154.92,168.16l4.29,10.7c-1,.08-2.16.14-3.39.16l-4.48-11.16C152.56,167.94,153.75,168.05,154.92,168.16Z"/><path class="cls-4" d="M168.61,169.34c2.74-.69-1.48,7.47-6.22,9a16,16,0,0,1-3.18.55l-4.29-10.7C161.66,168.8,167.4,169.63,168.61,169.34Z"/><path class="cls-2" d="M160,125l-10.29,24-.9,2.1,2.08.89,4,1.72c.15,1.29.34,2.54.56,3.73l-5.83-2.5,5.11,12.75a20.24,20.24,0,0,1-3.62-.39l-4.47-11.16-4.16,9.73q-1.57-.23-3.33-.39l4.54-10.61-24.07,9.64c.13-.72.7-2,1.44-4L142.52,152l-13.74-5.87c.69-.89,1.4-1.76,2.13-2.59L143.79,149l-5.18-12.92c.88-.72,1.76-1.41,2.63-2.05l5.52,13.78,9.44-22A8.47,8.47,0,0,1,160,125Z"/><path class="cls-3" d="M137.18,178.38l-11.84,27.68a1.6,1.6,0,0,1-.89.86,1.64,1.64,0,0,1-1.23,0,1.61,1.61,0,0,1-.84-2.11l11.71-27.38a2.78,2.78,0,0,0,1.54.89Z"/><path class="cls-3" d="M200.06,128.89a1.6,1.6,0,1,1,1.19,3l-46.6,18.67c-.05-1.11-.07-2.25,0-3.44Z"/><path class="cls-3" d="M151.14,167.36a20.24,20.24,0,0,0,3.62.39l.16.41c-1.17-.11-2.36-.22-3.58-.3Z"/><path class="cls-2" d="M146.67,156.2l4.47,11.16c-2.21-.38-5.08-1-8.63-1.43Z"/><circle class="cls-5" cx="110.56" cy="66.49" r="11.35"/><path class="cls-2" d="M149.65,155l5.83,2.5c.38,2.07.83,4,1.26,5.75.81,3.37.21,4.46-2,4.5Z"/><path class="cls-4" d="M138.24,167.73l-4.15,9.69c-2.14-2-4.55-7-2.46-8.08A18.14,18.14,0,0,1,138.24,167.73Z"/><path class="cls-3" d="M93.92,127.67l37,15.82c-.73.83-1.44,1.7-2.13,2.59L92.65,130.62a1.61,1.61,0,0,1,1.27-3Z"/><path class="cls-2" d="M89.89,174.77A60.92,60.92,0,0,1,90.46,128l1.35.52a1.59,1.59,0,0,0,.84,2.1l36.13,15.46a47.09,47.09,0,0,0-7.36,13.52c-.1.33-.22.64-.33.94L92.17,172.13a1.62,1.62,0,0,0-.9,2.09Z"/><path class="cls-5" d="M116.53,76.93a80.91,80.91,0,1,1-45,105.2A81,81,0,0,1,116.53,76.93Zm86.85,52.36a61.21,61.21,0,0,0-79.39-34l-.1,0a61.13,61.13,0,0,0,45.48,113.49l.11,0a61.22,61.22,0,0,0,33.9-79.45Z"/><path class="cls-2" d="M203.38,129.29a60.93,60.93,0,0,1-.54,46.7l-1.21-.5a1.6,1.6,0,0,0-.85-2.11l-45.86-19.61c-.12-1-.21-2.12-.27-3.23l46.6-18.67a1.6,1.6,0,0,0,.9-2.09Z"/><path class="cls-6" d="M116.53,76.93a80.91,80.91,0,1,1-45,105.2A81,81,0,0,1,116.53,76.93Z"/><path class="cls-6" d="M90.46,128a60.93,60.93,0,0,1,33.43-32.71l.1,0a61.13,61.13,0,0,1,45.49,113.49l-.11,0A61.1,61.1,0,0,1,90.46,128Z"/><circle class="cls-7" cx="110.56" cy="66.49" r="11.35"/><path class="cls-6" d="M139.18,165.54q1.75.17,3.33.39c3.55.47,6.42,1,8.63,1.43a20.24,20.24,0,0,0,3.62.39c2.19,0,2.79-1.13,2-4.5-.43-1.76-.88-3.68-1.26-5.75-.22-1.19-.41-2.44-.56-3.73-.12-1-.21-2.12-.27-3.23s-.07-2.25,0-3.44a49.81,49.81,0,0,1,5.65-21.48c.16-.33.06-.52-.25-.61a8.47,8.47,0,0,0-3.81.75,60.07,60.07,0,0,0-15,8.27c-.87.64-1.75,1.33-2.63,2.05a62.88,62.88,0,0,0-7.7,7.41c-.73.83-1.44,1.7-2.13,2.59a47.09,47.09,0,0,0-7.36,13.52c-.1.33-.22.64-.33.94-.74,2.07-1.31,3.31-1.44,4-.4,2.16,3.1-.32,17.63.8.64,0,1.28.1,1.9.17"/><path class="cls-6" d="M134.09,177.42c-2.14-2-4.55-7-2.46-8.08a18.14,18.14,0,0,1,6.61-1.61c1.14-.12,2.33-.18,3.58-.21,3-.06,6.33.09,9.52.34,1.22.08,2.41.19,3.58.3,6.74.64,12.48,1.47,13.69,1.18,2.74-.69-1.48,7.47-6.22,9a16,16,0,0,1-3.18.55c-1,.08-2.16.14-3.39.16-5.92.13-13.78-.41-18.64-.64l-1.55-.07A2.78,2.78,0,0,1,134.09,177.42Z"/></svg>