<svg id="Camada_1" data-name="Camada 1" xmlns="http://www.w3.org/2000/svg" xmlns:xlink="http://www.w3.org/1999/xlink" viewBox="0 0 254.73 265.87"><defs><style>.cls-1,.cls-7,.cls-8,.cls-9{fill:none;}.cls-2{clip-path:url(#clip-path);}.cls-3{fill:#f6a217;}.cls-4{fill:#fff;}.cls-5{fill:#f3f0f0;}.cls-6{fill:#e9521b;}.cls-7,.cls-8,.cls-9{stroke:#21344a;}.cls-7{stroke-miterlimit:10;}.cls-7,.cls-8{stroke-width:4px;}.cls-8,.cls-9{stroke-linecap:round;stroke-linejoin:round;}.cls-9{stroke-width:3px;}</style><clipPath id="clip-path"><rect class="cls-1" x="6.89" y="3.83" width="247.84" height="262.51"/></clipPath></defs><title>bh</title><g class="cls-2"><path class="cls-3" d="M210.56,56.7A122.42,122.42,0,1,1,96.33,44.39,121.84,121.84,0,0,1,210.56,56.7Zm17.21,66.92A92.65,92.65,0,0,0,107.62,72.11l-.15.06A92.51,92.51,0,0,0,176.3,243.92l.16-.06a92.62,92.62,0,0,0,51.31-120.24Z"/><path class="cls-4" d="M227.77,123.62l-1.86.74a2.43,2.43,0,0,0-3.16-1.34l-53.48,21.43H155.49v-11.8l23.34-54.57a2.43,2.43,0,0,0-1.27-3.19l.8-1.82A92.19,92.19,0,0,1,227.77,123.62Z"/><path class="cls-4" d="M225.91,124.36l1.86-.74a92.29,92.29,0,0,1-.81,70.69l-1.84-.77a2.44,2.44,0,0,0-1.28-3.19l-49.51-21.16V147.65l50.21-20.12A2.44,2.44,0,0,0,225.91,124.36Z"/><path class="cls-5" d="M222.75,123a2.43,2.43,0,1,1,1.8,4.51l-50.21,20.12v-3.2h-5.07Z"/><path class="cls-4" d="M178.37,73.08l-.8,1.82a2.42,2.42,0,0,0-3.2,1.28L153.23,125.6H131.65l-20.1-50.16a2.43,2.43,0,0,0-3.16-1.35l-.77-2A92.2,92.2,0,0,1,178.37,73.08Z"/><path class="cls-4" d="M227,194.31a92.24,92.24,0,0,1-50.5,49.55l-.82-2a2.43,2.43,0,0,0,1.34-3.17l-21.48-53.6V171.69h12.32l54.1,23.14a2.36,2.36,0,0,0,1.86,0,2.44,2.44,0,0,0,1.34-1.3Z"/><path class="cls-5" d="M177.57,74.9a2.43,2.43,0,0,1,1.27,3.19L155.5,132.66v-7h-2.27l21.14-49.42A2.42,2.42,0,0,1,177.57,74.9Z"/><path class="cls-5" d="M223.84,190.35a2.43,2.43,0,0,1-.06,4.49,2.36,2.36,0,0,1-1.86,0l-54.1-23.14h6.52v-2.49Z"/><polygon class="cls-6" points="174.34 144.45 174.34 147.65 148.35 158.06 145.2 156.73 146.56 153.55 169.27 144.45 174.34 144.45"/><polygon class="cls-6" points="174.34 147.65 174.33 169.19 148.35 158.06 174.34 147.65"/><polygon class="cls-6" points="169.27 144.45 146.56 153.55 155.5 132.66 155.49 144.46 169.27 144.45"/><polygon class="cls-6" points="174.33 169.19 174.34 171.68 167.82 171.68 146.45 162.54 155.5 185.12 155.5 190.51 152.43 190.51 141.94 164.34 130.75 190.51 128.27 190.52 128.28 183.93 137.48 162.42 114.38 171.68 109.44 171.68 109.44 168.43 135.66 157.92 109.43 146.7 109.44 144.46 116.56 144.46 137.58 153.46 128.27 130.23 128.27 125.61 131.65 125.61 142.09 151.65 153.23 125.61 155.5 125.61 155.5 132.66 146.56 153.55 145.2 156.73 148.35 158.06 174.33 169.19"/><polygon class="cls-6" points="153.23 125.61 142.09 151.65 131.65 125.61 153.23 125.61"/><polygon class="cls-6" points="167.82 171.68 155.5 171.69 155.5 185.12 146.45 162.54 167.82 171.68"/><circle class="cls-3" cx="87.29" cy="28.58" r="17.17"/><path class="cls-5" d="M155.5,185.12,177,238.72a2.43,2.43,0,1,1-4.5,1.81l-20-50h3.07Z"/><path class="cls-5" d="M111.55,75.45l20.1,50.16h-3.38v4.62L107,77.26a2.43,2.43,0,1,1,4.51-1.81Z"/><path class="cls-4" d="M175.64,241.89l.82,2-.16.06a92.2,92.2,0,0,1-70.78-.86l.94-2a2.45,2.45,0,0,0,3.2-1.28l21.09-49.29h21.68l20,50A2.43,2.43,0,0,0,175.64,241.89Z"/><path class="cls-4" d="M107.62,72.11l.77,2A2.43,2.43,0,0,0,107,77.26l21.23,53v14.23H116.56L62.11,121.17a2.41,2.41,0,0,0-3.19,1.28l-2-.77a92.22,92.22,0,0,1,50.59-49.51Z"/><polygon class="cls-6" points="141.94 164.34 152.43 190.51 130.75 190.51 141.94 164.34"/><polygon class="cls-6" points="128.27 130.23 137.58 153.46 116.56 144.46 128.28 144.46 128.27 130.23"/><polygon class="cls-6" points="137.48 162.42 128.28 183.93 128.28 171.68 114.38 171.68 137.48 162.42"/><polygon class="cls-6" points="135.66 157.92 109.44 168.43 109.43 146.7 135.66 157.92"/><path class="cls-4" d="M128.28,171.68v12.25l-23.09,54a2.42,2.42,0,0,0,1.27,3.18l-.94,2A92.3,92.3,0,0,1,56,192.46l2.1-.84A2.44,2.44,0,0,0,61.28,193l53.1-21.28Z"/><path class="cls-5" d="M116.56,144.46h-7.12v2.24L60.19,125.64a2.43,2.43,0,0,1,1.92-4.47Z"/><path class="cls-5" d="M105.19,237.91l23.09-54v6.59h2.48l-21.09,49.29a2.43,2.43,0,1,1-4.47-1.9Z"/><path class="cls-4" d="M109.43,146.7v21.73l-50,20a2.44,2.44,0,0,0-1.37,3.17l-2.1.84a92.24,92.24,0,0,1,.87-70.78l2,.77a2.43,2.43,0,0,0,1.27,3.19Z"/><path class="cls-5" d="M114.38,171.68,61.28,193a2.43,2.43,0,1,1-1.8-4.51l50-20v3.25Z"/><path class="cls-7" d="M96.33,44.39a122.54,122.54,0,1,1-68.1,159.2A122.47,122.47,0,0,1,96.33,44.39Z"/><path class="cls-7" d="M56.88,121.68a92.22,92.22,0,0,1,50.59-49.51l.15-.06a92.52,92.52,0,0,1,68.84,171.75l-.16.06A92.46,92.46,0,0,1,56.88,121.68Z"/><circle class="cls-8" cx="87.29" cy="28.58" r="17.17"/><polygon class="cls-9" points="169.27 144.45 174.34 144.45 174.34 147.65 174.33 169.19 174.34 171.68 167.82 171.68 155.5 171.69 155.5 185.12 155.5 190.51 152.43 190.51 130.75 190.51 128.27 190.52 128.28 183.93 128.28 171.68 114.38 171.68 109.44 171.68 109.44 168.43 109.43 146.7 109.44 144.46 116.56 144.46 128.28 144.46 128.27 130.23 128.27 125.61 131.65 125.61 153.23 125.61 155.5 125.61 155.5 132.66 155.49 144.46 169.27 144.45"/></g></svg>