<svg id="Camada_1" data-name="Camada 1" xmlns="http://www.w3.org/2000/svg" xmlns:xlink="http://www.w3.org/1999/xlink" viewBox="0 0 254.73 265.87"><defs><style>.cls-1,.cls-5{fill:none;}.cls-2{clip-path:url(#clip-path);}.cls-3{fill:#fdb93f;}.cls-4{fill:#21344a;}.cls-5{stroke:#21344a;stroke-linecap:round;stroke-linejoin:round;stroke-width:6px;}</style><clipPath id="clip-path"><rect class="cls-1" x="6.89" y="3.83" width="247.84" height="262.51"/></clipPath></defs><g class="cls-2"><path class="cls-3" d="M188.3,119.85a29.34,29.34,0,0,1,40.54,8.24L275.13,198a29.34,29.34,0,0,1-8.24,40.55l-71,47a29.38,29.38,0,0,1-40.55-8.24l-46.28-69.9a29.24,29.24,0,0,1-3.44-25,31.28,31.28,0,0,1,1.41-3.58h0a27.56,27.56,0,0,1,2.13-3.77,28.36,28.36,0,0,1,6-6.6,23.12,23.12,0,0,1,2.1-1.54l1-.69,3.22-2.13Zm9.59,66a14.12,14.12,0,1,0-7.2,21.16l5.84,19.81,16.05-10.63-16-13.1A14.13,14.13,0,0,0,197.89,185.86Z"/><path class="cls-4" d="M178.32,181.88a14.12,14.12,0,0,1,18.3,21.22l-9.33-7.66,3.4,11.58a14.12,14.12,0,0,1-12.37-25.14Z"/><path class="cls-4" d="M187.29,195.44l9.33,7.66a13.59,13.59,0,0,1-2.71,2.34,13.36,13.36,0,0,1-3.22,1.58Z"/><path class="cls-4" d="M196.62,203.1l16,13.1-16.05,10.63L190.69,207a13.36,13.36,0,0,0,3.22-1.58A13.59,13.59,0,0,0,196.62,203.1Z"/><line class="cls-5" x1="57.98" y1="78.55" x2="41.3" y2="70.25"/><line class="cls-5" x1="88.28" y1="44.28" x2="77.99" y2="28.75"/><line class="cls-5" x1="131.66" y1="29.75" x2="130.51" y2="11.15"/><line class="cls-5" x1="176.49" y1="38.86" x2="184.8" y2="22.18"/><line class="cls-5" x1="48.86" y1="123.39" x2="30.28" y2="124.52"/><path class="cls-5" d="M107,178.78a31.28,31.28,0,0,0-1.41,3.58,29.24,29.24,0,0,0,3.44,25l46.28,69.9a29.38,29.38,0,0,0,40.55,8.24l71-47A29.34,29.34,0,0,0,275.13,198l-46.29-69.88a29.34,29.34,0,0,0-40.54-8.24L121.58,164"/><path class="cls-5" d="M109.17,175a27.56,27.56,0,0,0-2.13,3.77"/><path class="cls-5" d="M121.58,164,103.86,137.3a37.46,37.46,0,0,1,62.47-41.37l2.53,3.84A12.07,12.07,0,0,0,189,86.46l-2.55-3.86a61.59,61.59,0,0,0-102.7,68l20,30.1a3.66,3.66,0,0,0,1.94,1.64"/><path class="cls-5" d="M109.17,175a28.36,28.36,0,0,1,6-6.6"/><path class="cls-5" d="M115.21,168.4a23.12,23.12,0,0,1,2.1-1.54l1-.69,3.22-2.13"/><polygon class="cls-5" points="196.62 203.1 187.29 195.44 190.69 207.02 196.53 226.83 212.58 216.2 196.62 203.1"/></g></svg>