<svg id="Camada_1" data-name="Camada 1" xmlns="http://www.w3.org/2000/svg" viewBox="0 0 293.26 293.18"><defs><style>.cls-1,.cls-4{fill:none;}.cls-1{stroke:#d6d7d7;stroke-miterlimit:10;stroke-width:8px;}.cls-2{fill:#fdb93f;}.cls-3{fill:#21344a;}.cls-4{stroke:#21344a;stroke-linecap:round;stroke-linejoin:round;stroke-width:4px;}</style></defs><title>cadeado</title><circle class="cls-1" cx="146.63" cy="145.18" r="139.01"/><path class="cls-2" d="M176,123.88a18.81,18.81,0,0,1,18.76,18.76v53.8A18.83,18.83,0,0,1,176,215.21H121.31a18.83,18.83,0,0,1-18.77-18.77v-53.8a18.76,18.76,0,0,1,7-14.61,20.49,20.49,0,0,1,2-1.42h0a19.28,19.28,0,0,1,2.48-1.27,18.23,18.23,0,0,1,5.57-1.39,15.44,15.44,0,0,1,1.67-.08H176ZM157.7,162.59a9.07,9.07,0,1,0-11.35,8.77L142.45,184H154.8l-3.89-12.67A9.07,9.07,0,0,0,157.7,162.59Z"/><path class="cls-3" d="M148.63,153.52a9.07,9.07,0,0,1,2.28,17.84l-2.28-7.4-2.28,7.4a9.07,9.07,0,0,1,2.28-17.84Z"/><path class="cls-3" d="M148.63,164l2.28,7.4a8.81,8.81,0,0,1-4.56,0Z"/><path class="cls-3" d="M150.91,171.36,154.8,184H142.45l3.9-12.67a8.81,8.81,0,0,0,4.56,0Z"/><path class="cls-4" d="M111.6,126.61a20.49,20.49,0,0,0-2,1.42,18.76,18.76,0,0,0-7,14.61v53.8a18.83,18.83,0,0,0,18.77,18.77H176a18.83,18.83,0,0,0,18.77-18.77v-53.8A18.81,18.81,0,0,0,176,123.88H124.6"/><path class="cls-4" d="M114.08,125.34a19.28,19.28,0,0,0-2.48,1.27"/><path class="cls-4" d="M124.6,123.88V103.29a24,24,0,0,1,48.09,0v2.95a7.67,7.67,0,0,0,2.26,5.48,7.74,7.74,0,0,0,13.22-5.47v-3a39.53,39.53,0,0,0-79,0v23.17a2.37,2.37,0,0,0,.45,1.57"/><path class="cls-4" d="M114.08,125.34a18.23,18.23,0,0,1,5.57-1.39"/><path class="cls-4" d="M119.65,124a15.44,15.44,0,0,1,1.67-.08h3.28"/><polygon class="cls-4" points="150.91 171.36 148.63 163.96 146.35 171.36 142.45 184.03 154.8 184.03 150.91 171.36"/></svg>