<svg id="Camada_1" data-name="Camada 1" xmlns="http://www.w3.org/2000/svg" viewBox="0 0 293.26 293.18"><defs><style>.cls-1{fill:none;stroke:#d6d7d7;stroke-miterlimit:10;stroke-width:8px;}.cls-2{fill:#d8d5d5;}.cls-2,.cls-3,.cls-4,.cls-5{stroke:#21344a;stroke-linecap:round;stroke-linejoin:round;stroke-width:4px;}.cls-3{fill:#fff;}.cls-4{fill:#f6a115;}.cls-5{fill:#2866ae;}</style></defs><title>calendario_1</title><circle class="cls-1" cx="146.63" cy="145.18" r="139.01"/><rect class="cls-2" x="84.39" y="89.07" width="126.48" height="45.79" rx="10"/><path class="cls-3" d="M203.63,117H84.39v90.61a7.24,7.24,0,0,0,7.24,7.24h112a7.24,7.24,0,0,0,7.24-7.24V117Z"/><rect class="cls-4" x="100.89" y="138.19" width="19.83" height="19.83" rx="2"/><rect class="cls-4" x="137.72" y="138.19" width="19.83" height="19.83" rx="2"/><rect class="cls-4" x="174.54" y="138.19" width="19.83" height="19.83" rx="2"/><rect class="cls-4" x="100.89" y="173.83" width="19.83" height="19.83" rx="2"/><rect class="cls-4" x="137.72" y="173.83" width="19.83" height="19.83" rx="2"/><rect class="cls-4" x="174.54" y="173.83" width="19.83" height="19.83" rx="2"/><rect class="cls-5" x="101.82" y="75.52" width="16.14" height="25.15" rx="2"/><rect class="cls-5" x="177.31" y="75.52" width="16.14" height="25.15" rx="2"/></svg>