<svg id="Camada_1" data-name="Camada 1" xmlns="http://www.w3.org/2000/svg" viewBox="0 0 293.26 293.18"><defs><style>.cls-1{fill:none;stroke:#d6d7d7;stroke-miterlimit:10;stroke-width:8px;}.cls-2{fill:#d8d5d5;}.cls-2,.cls-3,.cls-4,.cls-5{stroke:#21344a;stroke-linecap:round;stroke-linejoin:round;stroke-width:4px;}.cls-3{fill:#fff;}.cls-4{fill:#f6a115;}.cls-5{fill:#2866ae;}</style></defs><title>calendario</title><circle class="cls-1" cx="146.63" cy="145.18" r="139.01"/><rect class="cls-2" x="83.26" y="86.96" width="126.74" height="45.88" rx="10"/><path class="cls-3" d="M202.74,114.94H83.26v90.8A7.26,7.26,0,0,0,90.52,213H202.74a7.26,7.26,0,0,0,7.26-7.25v-90.8Z"/><rect class="cls-4" x="99.8" y="136.18" width="19.87" height="19.87" rx="2"/><rect class="cls-4" x="136.7" y="136.18" width="19.87" height="19.87" rx="2"/><rect class="cls-4" x="173.59" y="136.18" width="19.87" height="19.87" rx="2"/><rect class="cls-4" x="99.8" y="171.89" width="19.87" height="19.87" rx="2"/><rect class="cls-4" x="136.7" y="171.89" width="19.87" height="19.87" rx="2"/><rect class="cls-4" x="173.59" y="171.89" width="19.87" height="19.87" rx="2"/><rect class="cls-5" x="100.72" y="73.38" width="16.17" height="25.2" rx="2"/><rect class="cls-5" x="176.37" y="73.38" width="16.17" height="25.2" rx="2"/></svg>