<svg id="Camada_1" data-name="Camada 1" xmlns="http://www.w3.org/2000/svg" viewBox="0 0 1535.66 1132.31"><defs><style>.cls-1{fill:#23354b;}.cls-2{fill:#2b67af;}.cls-3,.cls-4{fill:#010101;}.cls-14,.cls-3,.cls-4,.cls-7{stroke:#122a3b;}.cls-14,.cls-3,.cls-4,.cls-5,.cls-7{stroke-linecap:round;stroke-linejoin:round;}.cls-3{stroke-width:0.13px;}.cls-4{stroke-width:0.13px;}.cls-14,.cls-5,.cls-7{fill:none;}.cls-5{stroke:#2967ae;stroke-width:0.53px;}.cls-6{fill:#f6a216;}.cls-7{stroke-width:2.58px;}.cls-18,.cls-22,.cls-28,.cls-8{font-size:11.87px;}.cls-16,.cls-17,.cls-18,.cls-19,.cls-22,.cls-28,.cls-39,.cls-8{fill:#122a3b;}.cls-16,.cls-18,.cls-22,.cls-28,.cls-39,.cls-8{font-family:Roboto-Bold, Roboto;font-weight:700;}.cls-24,.cls-8{letter-spacing:-0.03em;}.cls-17,.cls-19,.cls-25,.cls-38,.cls-9{font-size:7.91px;font-family:Roboto-Light, Roboto;font-weight:300;}.cls-9{letter-spacing:-0.02em;}.cls-10,.cls-19,.cls-25{letter-spacing:-0.01em;}.cls-11{letter-spacing:-0.02em;}.cls-12{letter-spacing:-0.03em;}.cls-13{letter-spacing:-0.02em;}.cls-14{stroke-width:2.68px;}.cls-15{letter-spacing:-0.04em;}.cls-16{font-size:18.06px;}.cls-17{letter-spacing:-0.01em;}.cls-18{letter-spacing:-0.02em;}.cls-20{letter-spacing:-0.03em;}.cls-21{letter-spacing:-0.02em;}.cls-22{letter-spacing:-0.02em;}.cls-23{letter-spacing:-0.12em;}.cls-26{letter-spacing:-0.02em;}.cls-27{letter-spacing:-0.03em;}.cls-28{letter-spacing:-0.11em;}.cls-29{letter-spacing:-0.12em;}.cls-30{letter-spacing:-0.13em;}.cls-31{letter-spacing:-0.08em;}.cls-32{letter-spacing:-0.04em;}.cls-33{letter-spacing:-0.06em;}.cls-34{letter-spacing:-0.02em;}.cls-35{letter-spacing:-0.01em;}.cls-36{letter-spacing:-0.12em;}.cls-37{letter-spacing:-0.01em;}.cls-38{letter-spacing:-0.02em;}.cls-39{font-size:18.07px;letter-spacing:-0.03em;}.cls-40{letter-spacing:-0.02em;}.cls-41{letter-spacing:-0.04em;}.cls-42{letter-spacing:-0.02em;}.cls-43{fill:#71c7d5;}.cls-44{fill:#f18959;}.cls-45{fill:#fdd07f;}</style></defs><path class="cls-1" d="M1497.51,1100.25v-1.31h1.67a2.56,2.56,0,0,0,.61-.06.81.81,0,0,0,.37-.19.85.85,0,0,0,.19-.35,1.9,1.9,0,0,0,.06-.52v-4.44h1.53v4.51a3.93,3.93,0,0,1-.13,1.11,1.39,1.39,0,0,1-.43.72,1.82,1.82,0,0,1-.81.41,5.64,5.64,0,0,1-1.27.12Z"/><path class="cls-1" d="M1496,1095.55a1.37,1.37,0,0,0-.06-.44.47.47,0,0,0-.2-.26.9.9,0,0,0-.39-.12,5.22,5.22,0,0,0-.62,0H1491v2.09h3.74a5.34,5.34,0,0,0,.62,0,.86.86,0,0,0,.39-.13.44.44,0,0,0,.2-.26,1.36,1.36,0,0,0,.06-.45Zm-1,4.7-4-2.48v2.48h-1.51v-6.83h5.35a7.2,7.2,0,0,1,1.23.09,2.14,2.14,0,0,1,.84.32,1.27,1.27,0,0,1,.48.63,3,3,0,0,1,.15,1v.47a2.71,2.71,0,0,1-.16,1,1.37,1.37,0,0,1-.5.61,2.19,2.19,0,0,1-.85.32,7,7,0,0,1-1.21.09h-1.2l4,2.31Z"/><path class="cls-1" d="M1487.69,1095.68a1,1,0,0,0-.24-.75,1.32,1.32,0,0,0-.84-.2h-3.91v2.34h3.93a1.38,1.38,0,0,0,.83-.19.92.92,0,0,0,.23-.73Zm-5,2.62v2h-1.52v-6.83h5.47a5.91,5.91,0,0,1,1.22.11,1.88,1.88,0,0,1,.79.38,1.53,1.53,0,0,1,.43.69,3.76,3.76,0,0,1,.12,1v.59a3.66,3.66,0,0,1-.12,1,1.34,1.34,0,0,1-.41.64,1.73,1.73,0,0,1-.79.33,6.14,6.14,0,0,1-1.24.1Z"/><path class="cls-1" d="M1479.27,1100.25v-4.53l-3.36,4.39a.94.94,0,0,1-1.36,0l-3.35-4.39v4.53h-1.39v-6.41a.52.52,0,0,1,.24-.47,1.08,1.08,0,0,1,.59-.15,1,1,0,0,1,.43.07.87.87,0,0,1,.3.25l3.88,5.16,3.92-5.16a.89.89,0,0,1,.27-.25.94.94,0,0,1,.41-.07,1.08,1.08,0,0,1,.59.15.52.52,0,0,1,.24.47v6.41Z"/><rect class="cls-1" x="1465.77" y="1090.74" width="0.28" height="12.17"/><path class="cls-1" d="M1416.33,1091.06h2.44l5.62,7.23v-7.23h2.6v11.68h-2.24l-5.81-7.46v7.46h-2.61Z"/><path class="cls-1" d="M1441,1091.06h2.88l3.09,8.19,3.1-8.19h2.8l-4.78,11.61h-2.3Z"/><path class="cls-1" d="M1462.37,1102.67h-2.87l-3.1-8.18-3.09,8.18h-2.81l4.79-11.61h2.3Z"/><rect class="cls-1" x="1411.73" y="1091.06" width="2.64" height="11.68"/><path class="cls-2" d="M1436.07,1096.84a1.21,1.21,0,1,1-1.21-1.21A1.21,1.21,0,0,1,1436.07,1096.84Z"/><path class="cls-2" d="M1434.86,1090.36a6.48,6.48,0,1,0,6.48,6.48A6.48,6.48,0,0,0,1434.86,1090.36Zm0,10.5a4,4,0,1,1,4-4A4,4,0,0,1,1434.86,1100.86Z"/><path class="cls-3" d="M1469.93,64.55h27.78a.62.62,0,0,0,.62-.62V40.51a.61.61,0,0,0-.24-.48.65.65,0,0,0-.42-.14h-7.57V40h7.6a.52.52,0,0,1,.53.52V63.93a.52.52,0,0,1-.52.52H1470a.73.73,0,0,1-.73-.73V45.13a.72.72,0,0,1,.73-.73h11.44v-.1h-11.54a.72.72,0,0,0-.73.73V63.82A.73.73,0,0,0,1469.93,64.55Z"/><path class="cls-3" d="M1476.15,60h14.64a.73.73,0,0,0,.73-.73V45a.73.73,0,0,0-.73-.73h-11.7v.1h11.6a.73.73,0,0,1,.73.73v14a.73.73,0,0,1-.73.73h-14.54a.52.52,0,0,1-.52-.51v-9.8h-.1v9.8A.61.61,0,0,0,1476.15,60Z"/><path class="cls-3" d="M1462.92,69.08h35.4V69H1463a.73.73,0,0,1-.73-.73V40.72A.73.73,0,0,1,1463,40h33.27v-.1h-33.37a.73.73,0,0,0-.73.73V68.35A.73.73,0,0,0,1462.92,69.08Z"/><path class="cls-3" d="M1475.54,59h.1V49.55a.73.73,0,0,1,.73-.73h7.73a.73.73,0,0,1,.73.73v5.12a.73.73,0,0,1-.73.73h-4.66v.1h4.76a.73.73,0,0,0,.73-.73V49.45a.73.73,0,0,0-.73-.73h-7.93a.73.73,0,0,0-.73.73Z"/><line class="cls-4" x1="1463.08" y1="68.97" x2="1463.08" y2="69.07"/><path class="cls-5" d="M1480.23,51.83h-1.83a1,1,0,0,0-1,1v3.83a1,1,0,0,0,1,1h8.73a1,1,0,0,0,1-1V47.83a1,1,0,0,0-1-1h-14.35a1,1,0,0,0-1,1V61.36a1,1,0,0,0,1,1h21.5a1,1,0,0,0,1-1V43.24a1,1,0,0,0-1-1H1466.5a1,1,0,0,0-1,1V66a1,1,0,0,0,1,1H1503"/><line class="cls-5" x1="1503.13" y1="66.99" x2="1500.78" y2="69.35"/><line class="cls-5" x1="1503.13" y1="66.99" x2="1500.78" y2="64.63"/><circle class="cls-6" cx="1480.23" cy="51.83" r="1.22"/><path class="cls-7" d="M688.33,87.51H51.12C36,87.51,23.74,99.37,23.74,114v934.89c0,14.63,12.25,26.49,27.38,26.49H1474.56c15.12,0,27.38-11.86,27.38-26.49V871.12"/><path class="cls-7" d="M454.75,332.38V828.79c0,14.63,12.26,26.49,27.38,26.49H1477c15.12,0,27.38-11.86,27.38-26.49V114c0-14.64-12.26-26.5-27.38-26.5H683.25"/><path class="cls-7" d="M586.41,632.62h365.5c15.13,0,27.38-11.87,27.38-26.5V335.27c0-14.63-12.25-26.49-27.38-26.49H482.37c-15.12,0-27.38,11.86-27.38,26.49V773"/><text class="cls-8" transform="translate(477.16 341.95)">POR QUÊ?<tspan class="cls-9"><tspan x="0" y="11.48">P</tspan><tspan class="cls-10" x="4.74" y="11.48">or que estamos nos </tspan><tspan class="cls-11" x="74.01" y="11.48">v</tspan><tspan class="cls-10" x="77.68" y="11.48">oltando pa</tspan><tspan class="cls-12" x="113.6" y="11.48">r</tspan><tspan class="cls-10" x="116.03" y="11.48">a esse p</tspan><tspan class="cls-13" x="144.07" y="11.48">r</tspan><tspan class="cls-10" x="146.57" y="11.48">oblema?</tspan></tspan></text><line class="cls-7" x1="454.86" y1="102.48" x2="454.86" y2="293.56"/><line class="cls-7" x1="978.86" y1="870.75" x2="978.86" y2="1060.69"/><line class="cls-7" x1="456.16" y1="870.75" x2="456.16" y2="1060.69"/><line class="cls-7" x1="979.4" y1="102.08" x2="979.4" y2="293.56"/><line class="cls-14" x1="1487.15" y1="356.77" x2="997.47" y2="356.77"/><line class="cls-14" x1="1487.43" y1="635.26" x2="996.51" y2="635.26"/><line class="cls-7" x1="439.06" y1="583.14" x2="39.08" y2="583.14"/><text class="cls-8" transform="translate(477.16 888.7)">Q<tspan class="cls-15" x="7.9" y="0">U</tspan><tspan x="15.29" y="0">AIS SÃO OS RISCOS?</tspan></text><text class="cls-16" transform="translate(601.21 888.7) scale(1.05 1)"> </text><text class="cls-17" transform="translate(605.94 888.7)">O que pode dar er<tspan class="cls-12" x="59.92" y="0">r</tspan><tspan class="cls-10" x="62.35" y="0">ado no p</tspan><tspan class="cls-13" x="91.8" y="0">r</tspan><tspan class="cls-10" x="94.31" y="0">ocesso de implementação?</tspan></text><text class="cls-18" transform="translate(1001.35 888.46)">COMO PREVINIR?</text><text class="cls-16" transform="translate(1093.18 888.46) scale(1.05 1)"> </text><text class="cls-19" transform="translate(1097.91 888.46)">O que pode ser efei<tspan class="cls-13" x="65.04" y="0">t</tspan><tspan x="67.42" y="0">o pa</tspan><tspan class="cls-20" x="82.09" y="0">r</tspan><tspan x="84.52" y="0">a </tspan><tspan class="cls-21" x="90.53" y="0">e</tspan><tspan x="94.49" y="0">vitar dar er</tspan><tspan class="cls-12" x="130.46" y="0">r</tspan><tspan x="132.89" y="0">ado?</tspan></text><text class="cls-22" transform="translate(39.08 120.98)">O QUE ESTÃO <tspan class="cls-23" x="73.7" y="0">F</tspan><tspan class="cls-24" x="78.8" y="0">AZENDO DE BOM ?</tspan><tspan class="cls-25"><tspan x="0" y="11.48">Quais são as iniciati</tspan><tspan class="cls-26" x="67.07" y="11.48">v</tspan><tspan x="70.74" y="11.48">as semelhantes de sucesso?</tspan></tspan></text><text class="cls-8" transform="translate(997.4 121.54)">Q<tspan class="cls-15" x="7.9" y="0">U</tspan><tspan x="15.29" y="0">AL MUDANÇA ESPERAMOS C</tspan><tspan class="cls-27" x="167.65" y="0">A</tspan><tspan x="175.24" y="0">USAR?</tspan><tspan class="cls-25"><tspan x="0" y="11.48">Quais são as melhorias que uma boa solução d</tspan><tspan class="cls-21" x="160.13" y="11.48">e</tspan><tspan x="164.08" y="11.48">ve alcançar?</tspan></tspan></text><text class="cls-28" transform="translate(997.4 389.55)">P<tspan class="cls-24" x="6.33" y="0">ARA QUEM A </tspan><tspan class="cls-29" x="76.56" y="0">F</tspan><tspan class="cls-24" x="81.66" y="0">A</tspan><tspan class="cls-30" x="89.35" y="0">L</tspan><tspan class="cls-31" x="94.29" y="0">T</tspan><tspan class="cls-24" x="100.65" y="0">A DA SO</tspan><tspan class="cls-32" x="143.67" y="0">L</tspan><tspan class="cls-24" x="149.66" y="0">UÇÃO É UM PROBLEM</tspan><tspan class="cls-33" x="264.66" y="0">A</tspan><tspan class="cls-24" x="271.88" y="0">?</tspan><tspan class="cls-25"><tspan x="0" y="11.08">Qual é o público-al</tspan><tspan class="cls-34" x="61.97" y="11.08">v</tspan><tspan x="65.64" y="11.08">o do p</tspan><tspan class="cls-13" x="86.66" y="11.08">r</tspan><tspan x="89.17" y="11.08">oje</tspan><tspan class="cls-13" x="99.25" y="11.08">t</tspan><tspan x="101.64" y="11.08">o?</tspan></tspan></text><text class="cls-8" transform="translate(477.16 120.98)">O NOSSO SERÁ O MELHOR DO MUNDO SE... <tspan class="cls-25"><tspan x="0" y="11.48">Quis as ca</tspan><tspan class="cls-12" x="35.11" y="11.48">r</tspan><tspan class="cls-35" x="37.54" y="11.48">acterísticas essenciais pa</tspan><tspan class="cls-12" x="124.39" y="11.48">r</tspan><tspan x="126.82" y="11.48">a a iniciati</tspan><tspan class="cls-34" x="160.5" y="11.48">v</tspan><tspan x="164.17" y="11.48">a se diferenciar do que já existe?</tspan></tspan></text><text class="cls-22" transform="translate(39.08 616.25)">O QUE JÁ DEU ERRADO OU ESTÃO <tspan class="cls-36" x="179.05" y="0">F</tspan><tspan class="cls-24" x="184.15" y="0">AZENDO MAL?</tspan><tspan class="cls-25"><tspan x="0" y="11.08">Quais iniciati</tspan><tspan class="cls-34" x="42.84" y="11.08">v</tspan><tspan class="cls-37" x="46.51" y="11.08">as já tenta</tspan><tspan class="cls-20" x="81.55" y="11.08">r</tspan><tspan x="83.98" y="11.08">am resolver o p</tspan><tspan class="cls-13" x="136.16" y="11.08">r</tspan><tspan x="138.67" y="11.08">oblema e não consegui</tspan><tspan class="cls-20" x="217.29" y="11.08">r</tspan><tspan class="cls-37" x="219.72" y="11.08">am?</tspan></tspan><tspan class="cls-38"><tspan x="0" y="22.16">P</tspan><tspan class="cls-10" x="4.74" y="22.16">or que falhou?</tspan></tspan></text><text class="cls-39" transform="translate(39.08 59.38)">PROJ<tspan class="cls-40" x="43.95" y="0">E</tspan><tspan class="cls-41" x="53.84" y="0">T</tspan><tspan class="cls-42" x="64.33" y="0">O:</tspan></text><text class="cls-8" transform="translate(585.37 665.63)">POR QUE AGOR<tspan class="cls-33" x="80.32" y="0">A</tspan><tspan x="87.54" y="0">?</tspan><tspan class="cls-25"><tspan x="0" y="11.08">O que </tspan><tspan class="cls-13" x="21.58" y="11.08">t</tspan><tspan x="23.97" y="11.08">orna esse momen</tspan><tspan class="cls-13" x="85.4" y="11.08">t</tspan><tspan x="87.79" y="11.08">o ideal pa</tspan><tspan class="cls-12" x="120.18" y="11.08">r</tspan><tspan x="122.61" y="11.08">a começar a iniciati</tspan><tspan class="cls-34" x="188.17" y="11.08">v</tspan><tspan x="191.84" y="11.08">a?</tspan></tspan></text><rect class="cls-43" x="1022.12" y="432.17" width="43.24" height="43.24"/><rect class="cls-43" x="1013.98" y="657.88" width="43.24" height="43.24"/><rect class="cls-44" x="1335.56" y="248.26" width="43.24" height="43.24"/><rect class="cls-45" x="1280.61" y="160.97" width="43.24" height="43.24"/><rect class="cls-43" x="896.18" y="550.88" width="43.24" height="43.24"/><rect class="cls-45" x="867.68" y="775.01" width="43.24" height="43.24"/><rect class="cls-44" x="1086.98" y="949.05" width="43.24" height="43.24"/><rect class="cls-45" x="598.02" y="703.37" width="43.24" height="43.24"/><rect class="cls-45" x="766.45" y="992.29" width="43.24" height="43.24"/><rect class="cls-43" x="608.7" y="949.05" width="43.24" height="43.24"/><rect class="cls-45" x="552.2" y="970.67" width="43.24" height="43.24"/><rect class="cls-45" x="788.07" y="451.45" width="43.24" height="43.24"/><rect class="cls-44" x="852.94" y="380.27" width="43.24" height="43.24"/><rect class="cls-44" x="788.07" y="373.96" width="43.24" height="43.24"/><rect class="cls-43" x="587.07" y="423.51" width="43.24" height="43.24"/><rect class="cls-43" x="1183.43" y="493.73" width="43.24" height="43.24"/><rect class="cls-45" x="530.58" y="373.96" width="43.24" height="43.24"/><rect class="cls-44" x="211.31" y="756.88" width="43.24" height="43.24"/><rect class="cls-43" x="333.43" y="937.87" width="43.24" height="43.24"/><rect class="cls-45" x="232.93" y="949.05" width="43.24" height="43.24"/><rect class="cls-44" x="270.06" y="1010.01" width="43.24" height="43.24"/><rect class="cls-43" x="248.44" y="703.37" width="43.24" height="43.24"/><rect class="cls-45" x="333.43" y="423.51" width="43.24" height="43.24"/><rect class="cls-45" x="110.81" y="735.8" width="43.24" height="43.24"/><rect class="cls-44" x="291.68" y="373.96" width="43.24" height="43.24"/><rect class="cls-43" x="100" y="428.82" width="43.24" height="43.24"/><rect class="cls-44" x="75.94" y="878.81" width="43.24" height="43.24"/><rect class="cls-43" x="54.32" y="686.24" width="43.24" height="43.24"/><rect class="cls-43" x="121.62" y="374.97" width="43.24" height="43.24"/><rect class="cls-45" x="1122.87" y="550.88" width="43.24" height="43.24"/><rect class="cls-43" x="1183.43" y="800.12" width="43.24" height="43.24"/><rect class="cls-45" x="1378.81" y="992.29" width="43.24" height="43.24"/><rect class="cls-44" x="1414.32" y="927.43" width="43.24" height="43.24"/><rect class="cls-45" x="1175.29" y="992.29" width="43.24" height="43.24"/><rect class="cls-44" x="801.28" y="756.88" width="43.24" height="43.24"/><rect class="cls-44" x="500.05" y="927.43" width="43.24" height="43.24"/><rect class="cls-44" x="1043.74" y="731.77" width="43.24" height="43.24"/><rect class="cls-43" x="1144.49" y="916.25" width="43.24" height="43.24"/><rect class="cls-43" x="1367.63" y="417.2" width="43.24" height="43.24"/><rect class="cls-43" x="1271.97" y="269.88" width="43.24" height="43.24"/><rect class="cls-44" x="1079.63" y="167.64" width="43.24" height="43.24"/><rect class="cls-44" x="487.34" y="146.02" width="43.24" height="43.24"/><rect class="cls-45" x="254.55" y="248.26" width="43.24" height="43.24"/><rect class="cls-44" x="211.31" y="139.35" width="43.24" height="43.24"/><rect class="cls-45" x="75.94" y="248.26" width="43.24" height="43.24"/><rect class="cls-45" x="874.56" y="248.26" width="43.24" height="43.24"/><rect class="cls-43" x="831.32" y="146.02" width="43.24" height="43.24"/><rect class="cls-45" x="598.02" y="182.59" width="43.24" height="43.24"/><rect class="cls-43" x="743.84" y="160.97" width="43.24" height="43.24"/><rect class="cls-45" x="530.58" y="210.88" width="43.24" height="43.24"/></svg>