<svg id="Camada_1" data-name="Camada 1" xmlns="http://www.w3.org/2000/svg" viewBox="0 0 293.26 293.18"><defs><style>.cls-1,.cls-4{fill:none;}.cls-1{stroke:#d6d7d7;stroke-miterlimit:10;stroke-width:8px;}.cls-2{fill:#fff;}.cls-3{fill:#d8d5d5;}.cls-4{stroke:#21344a;stroke-linecap:round;stroke-linejoin:round;stroke-width:4px;}</style></defs><title>carta</title><circle class="cls-1" cx="146.63" cy="145.18" r="139.01"/><polygon class="cls-2" points="208.19 105.93 208.19 225.77 93.07 225.77 93.07 64.6 166.86 64.6 166.86 105.92 208.17 105.92 208.19 105.93"/><polygon class="cls-3" points="208.17 105.92 166.86 105.92 166.86 64.6 208.17 105.92"/><polygon class="cls-4" points="208.17 105.92 208.19 105.93 208.19 225.77 93.07 225.77 93.07 64.6 166.86 64.6 208.17 105.92"/><polyline class="cls-4" points="166.86 64.6 166.86 105.92 208.17 105.92 208.19 105.92"/><line class="cls-4" x1="105.47" y1="176.18" x2="140.86" y2="176.18"/><line class="cls-4" x1="105.47" y1="187.2" x2="145.72" y2="187.2"/><line class="cls-4" x1="105.47" y1="198.2" x2="145.72" y2="198.2"/></svg>