<svg id="Camada_1" data-name="Camada 1" xmlns="http://www.w3.org/2000/svg" viewBox="0 0 978.49 1003.86"><defs><style>.cls-1,.cls-4{fill:#22344b;}.cls-2{fill:#bac8d8;}.cls-3{font-size:10.99px;}.cls-3,.cls-9{fill:#fff;}.cls-3,.cls-4,.cls-7,.cls-9{font-family:RobotoMono-Regular, Roboto Mono;}.cls-4{font-size:12.34px;}.cls-5,.cls-6{fill:none;stroke-miterlimit:10;stroke-width:1.5px;stroke-dasharray:8;}.cls-5{stroke:#fff;}.cls-6{stroke:#3c506b;}.cls-7{font-size:10.84px;fill:#3e506c;}.cls-8{fill:#5e8bc6;}.cls-9{font-size:11.75px;}.cls-10{fill:#f4f2f1;}.cls-11{fill:#fdd07f;}.cls-12{fill:#71c7d5;}.cls-13{fill:#f18959;}</style></defs><circle class="cls-1" cx="485.24" cy="493.69" r="467.36"/><circle class="cls-2" cx="485.24" cy="493.69" r="286.44"/><text class="cls-3" transform="translate(605.4 934.47) rotate(-15.66)">A</text><text class="cls-3" transform="translate(611.7 932.7) rotate(-16.48)">T</text><text class="cls-3" transform="matrix(0.95, -0.3, 0.3, 0.95, 617.99, 930.84)">O</text><text class="cls-3" transform="translate(624.26 928.89) rotate(-18.14)">R</text><text class="cls-3" transform="translate(630.56 926.82) rotate(-18.98)">E</text><text class="cls-3" transform="translate(636.75 924.7) rotate(-19.81)">S</text><text class="cls-3" transform="translate(642.96 922.46) rotate(-20.64)"> </text><text class="cls-3" transform="matrix(0.93, -0.37, 0.37, 0.93, 649.11, 920.14)">I</text><text class="cls-3" transform="translate(655.23 917.73) rotate(-22.31)">N</text><text class="cls-3" transform="translate(661.29 915.25) rotate(-23.13)">D</text><text class="cls-3" transform="matrix(0.91, -0.41, 0.41, 0.91, 667.37, 912.65)">I</text><text class="cls-3" transform="translate(673.38 909.98) rotate(-24.8)">R</text><text class="cls-3" transform="translate(679.33 907.23) rotate(-25.62)">E</text><text class="cls-3" transform="translate(685.29 904.38) rotate(-26.45)">T</text><text class="cls-3" transform="translate(691.14 901.47) rotate(-27.28)">A</text><text class="cls-3" transform="translate(697.04 898.42) rotate(-28.11)">M</text><text class="cls-3" transform="translate(702.83 895.33) rotate(-28.93)">E</text><text class="cls-3" transform="translate(708.59 892.14) rotate(-29.76)">N</text><text class="cls-3" transform="matrix(0.86, -0.51, 0.51, 0.86, 714.28, 888.89)">T</text><text class="cls-3" transform="translate(719.94 885.55) rotate(-31.4)">E</text><text class="cls-3" transform="matrix(0.85, -0.53, 0.53, 0.85, 725.56, 882.12)"> </text><text class="cls-3" transform="matrix(0.84, -0.55, 0.55, 0.84, 731.12, 878.62)">R</text><text class="cls-3" transform="translate(736.64 875.03) rotate(-33.85)">E</text><text class="cls-3" transform="matrix(0.82, -0.57, 0.57, 0.82, 742.09, 871.37)">L</text><text class="cls-3" transform="matrix(0.82, -0.58, 0.58, 0.82, 747.52, 867.59)">A</text><text class="cls-3" transform="matrix(0.8, -0.6, 0.6, 0.8, 753.04, 863.73)">C</text><text class="cls-3" transform="matrix(0.8, -0.6, 0.6, 0.8, 758.33, 859.79)">I</text><text class="cls-3" transform="translate(763.57 855.83) rotate(-37.92)">O</text><text class="cls-3" transform="matrix(0.78, -0.63, 0.63, 0.78, 768.77, 851.78)">N</text><text class="cls-3" transform="matrix(0.77, -0.64, 0.64, 0.77, 773.89, 847.67)">A</text><text class="cls-3" transform="translate(778.95 843.49) rotate(-40.37)">D</text><text class="cls-3" transform="translate(783.99 839.21) rotate(-41.2)">O</text><text class="cls-3" transform="matrix(0.74, -0.67, 0.67, 0.74, 788.93, 834.88)">S</text><text class="cls-4" transform="translate(406.04 756.49) rotate(15.93)"> </text><text class="cls-4" transform="matrix(0.97, 0.25, -0.25, 0.97, 413.12, 758.51)"> </text><text class="cls-4" transform="translate(420.23 760.34) rotate(12.86)"> </text><text class="cls-4" transform="matrix(0.98, 0.2, -0.2, 0.98, 427.39, 761.97)"> </text><text class="cls-4" transform="translate(434.57 763.41) rotate(9.8)"> </text><text class="cls-4" transform="matrix(0.99, 0.14, -0.14, 0.99, 441.84, 764.67)"> </text><text class="cls-4" transform="matrix(0.99, 0.12, -0.12, 0.99, 449.13, 765.73)"> </text><text class="cls-4" transform="matrix(1, 0.09, -0.09, 1, 456.4, 766.58)"> </text><text class="cls-4" transform="translate(463.73 767.25) rotate(3.69)"> </text><text class="cls-4" transform="translate(471.07 767.73) rotate(2.16)"> </text><text class="cls-4" transform="translate(478.42 768.01) rotate(0.63)"> </text><text class="cls-4" transform="translate(485.78 768.09) rotate(-0.9)"> </text><text class="cls-4" transform="matrix(1, -0.04, 0.04, 1, 493.14, 767.97)"> </text><text class="cls-4" transform="matrix(1, -0.07, 0.07, 1, 500.49, 767.66)"> </text><text class="cls-4" transform="translate(507.83 767.16) rotate(-5.48)">A</text><text class="cls-4" transform="matrix(0.99, -0.12, 0.12, 0.99, 515.11, 766.46)">T</text><text class="cls-4" transform="translate(522.42 765.56) rotate(-8.53)">O</text><text class="cls-4" transform="translate(529.72 764.47) rotate(-10.06)">R</text><text class="cls-4" transform="matrix(0.98, -0.2, 0.2, 0.98, 536.93, 763.19)">E</text><text class="cls-4" transform="matrix(0.97, -0.23, 0.23, 0.97, 544.12, 761.72)">S</text><text class="cls-4" transform="matrix(0.97, -0.25, 0.25, 0.97, 551.27, 760.05)"> </text><text class="cls-4" transform="translate(558.39 758.19) rotate(-16.19)">D</text><text class="cls-4" transform="translate(565.46 756.14) rotate(-17.73)">I</text><text class="cls-4" transform="translate(572.44 753.91) rotate(-19.26)">R</text><text class="cls-4" transform="matrix(0.93, -0.36, 0.36, 0.93, 579.42, 751.47)">E</text><text class="cls-4" transform="matrix(0.92, -0.38, 0.38, 0.92, 586.29, 748.86)">T</text><text class="cls-4" transform="translate(593.06 746.08) rotate(-23.9)">A</text><text class="cls-4" transform="translate(599.81 743.08) rotate(-25.45)">M</text><text class="cls-4" transform="translate(606.41 739.95) rotate(-26.99)">E</text><text class="cls-4" transform="translate(612.99 736.6) rotate(-28.54)">N</text><text class="cls-4" transform="matrix(0.87, -0.5, 0.5, 0.87, 619.44, 733.09)">T</text><text class="cls-4" transform="translate(625.78 729.42) rotate(-31.63)">E</text><text class="cls-4" transform="matrix(0.84, -0.55, 0.55, 0.84, 632.06, 725.55)"> </text><text class="cls-4" transform="matrix(0.82, -0.57, 0.57, 0.82, 638.21, 721.53)">R</text><text class="cls-4" transform="translate(644.25 717.35) rotate(-36.26)">E</text><text class="cls-4" transform="translate(650.16 713.01) rotate(-37.79)">L</text><text class="cls-4" transform="translate(655.98 708.5) rotate(-39.32)">A</text><text class="cls-4" transform="matrix(0.76, -0.65, 0.65, 0.76, 661.67, 703.84)">C</text><text class="cls-4" transform="matrix(0.74, -0.67, 0.67, 0.74, 667.21, 699.05)">I</text><text class="cls-4" transform="translate(672.66 694.08) rotate(-43.89)">O</text><text class="cls-4" transform="matrix(0.69, -0.72, 0.72, 0.69, 678.13, 688.9)">N</text><text class="cls-4" transform="matrix(0.68, -0.73, 0.73, 0.68, 683.29, 683.58)">A</text><text class="cls-4" transform="translate(688.33 678.19) rotate(-48.47)">D</text><text class="cls-4" transform="translate(693.18 672.7) rotate(-49.98)">O</text><text class="cls-4" transform="translate(697.91 667.08) rotate(-51.51)">S</text><line class="cls-5" x1="700.08" y1="900.05" x2="703.74" y2="906.96"/><line class="cls-5" x1="615.09" y1="739.57" x2="692.64" y2="886"/><line class="cls-5" x1="544.17" y1="605.68" x2="607.95" y2="726.11"/><line class="cls-5" x1="230.08" y1="12.63" x2="536.12" y2="590.48"/><line class="cls-6" x1="244.25" y1="38.65" x2="266.5" y2="80.68"/><text class="cls-7" transform="matrix(0.88, -0.47, 0.47, 0.88, 257.02, 40.98)">FIXOS</text><line class="cls-6" x1="702.96" y1="906.04" x2="725.21" y2="948.07"/><text class="cls-7" transform="matrix(0.88, -0.47, 0.47, 0.88, 660.52, 986.16)">OCASIONAIS</text><circle class="cls-8" cx="485.24" cy="493.69" r="132.11"/><text class="cls-9" transform="translate(529.91 606.36) rotate(-23.35)">T</text><text class="cls-9" transform="translate(536.67 603.43) rotate(-26.83)">I</text><text class="cls-9" transform="matrix(0.86, -0.5, 0.5, 0.86, 543.22, 600.11)">M</text><text class="cls-9" transform="matrix(0.83, -0.56, 0.56, 0.83, 549.58, 596.38)">E</text><circle class="cls-10" cx="485.24" cy="493.69" r="54.02"/><rect class="cls-11" x="329.61" y="70.62" width="43.24" height="43.24"/><rect class="cls-12" x="156.1" y="313.2" width="43.24" height="43.24"/><rect class="cls-12" x="54.34" y="434.7" width="43.24" height="43.24"/><rect class="cls-12" x="112.86" y="561.24" width="43.24" height="43.24"/><rect class="cls-13" x="91.24" y="678.74" width="43.24" height="43.24"/><rect class="cls-11" x="177.72" y="700.36" width="43.24" height="43.24"/><rect class="cls-12" x="273.12" y="817.86" width="43.24" height="43.24"/><rect class="cls-11" x="339.26" y="796.24" width="43.24" height="43.24"/><rect class="cls-13" x="389.67" y="892.12" width="43.24" height="43.24"/><rect class="cls-12" x="500.57" y="839.48" width="43.24" height="43.24"/><rect class="cls-11" x="579.95" y="848.88" width="43.24" height="43.24"/><rect class="cls-11" x="32.72" y="529.34" width="43.24" height="43.24"/><rect class="cls-13" x="112.86" y="413.08" width="43.24" height="43.24"/><rect class="cls-11" x="199.34" y="176.89" width="43.24" height="43.24"/><rect class="cls-13" x="105.99" y="230.36" width="43.24" height="43.24"/><rect class="cls-13" x="421.51" y="120.17" width="43.24" height="43.24"/><rect class="cls-13" x="500.57" y="230.36" width="43.24" height="43.24"/><rect class="cls-11" x="478.95" y="49" width="43.24" height="43.24"/><rect class="cls-12" x="523.73" y="112.03" width="43.24" height="43.24"/><rect class="cls-12" x="487.36" y="291.58" width="43.24" height="43.24"/><rect class="cls-12" x="329.61" y="672.2" width="43.24" height="43.24"/><rect class="cls-12" x="307.99" y="382.26" width="43.24" height="43.24"/><rect class="cls-13" x="610.21" y="313.2" width="43.24" height="43.24"/><rect class="cls-12" x="610.21" y="369.84" width="43.24" height="43.24"/><rect class="cls-11" x="671.29" y="348.22" width="43.24" height="43.24"/><rect class="cls-12" x="680.45" y="460.31" width="43.24" height="43.24"/><rect class="cls-11" x="637.21" y="527.39" width="43.24" height="43.24"/><rect class="cls-13" x="702.07" y="550.96" width="43.24" height="43.24"/><rect class="cls-11" x="631.83" y="596.16" width="43.24" height="43.24"/><rect class="cls-11" x="457.33" y="710.8" width="43.24" height="43.24"/><rect class="cls-11" x="411.29" y="251.98" width="43.24" height="43.24"/><rect class="cls-13" x="389.67" y="617.78" width="43.24" height="43.24"/><rect class="cls-13" x="294.74" y="529.34" width="43.24" height="43.24"/><rect class="cls-11" x="229.87" y="462.41" width="43.24" height="43.24"/><rect class="cls-13" x="264.74" y="304.98" width="43.24" height="43.24"/><rect class="cls-13" x="692.91" y="133.65" width="43.24" height="43.24"/><rect class="cls-12" x="692.91" y="230.36" width="43.24" height="43.24"/><rect class="cls-11" x="753.97" y="185.03" width="43.24" height="43.24"/><rect class="cls-12" x="775.59" y="304.98" width="43.24" height="43.24"/><rect class="cls-11" x="874.58" y="326.6" width="43.24" height="43.24"/><rect class="cls-12" x="865.4" y="596.16" width="43.24" height="43.24"/><rect class="cls-11" x="822.16" y="481.93" width="43.24" height="43.24"/><rect class="cls-11" x="797.21" y="657.12" width="43.24" height="43.24"/><rect class="cls-13" x="786.27" y="732.42" width="43.24" height="43.24"/><rect class="cls-13" x="714.53" y="732.42" width="43.24" height="43.24"/></svg>