<svg id="Camada_1" data-name="Camada 1" xmlns="http://www.w3.org/2000/svg" viewBox="0 0 293.26 293.18"><defs><style>.cls-1,.cls-5{fill:none;}.cls-1{stroke:#d6d7d7;stroke-miterlimit:10;stroke-width:8px;}.cls-2{fill:#aab5c7;}.cls-3{fill:#d8d5d5;}.cls-4{fill:#f6a115;}.cls-5{stroke:#21344a;stroke-linecap:round;stroke-linejoin:round;stroke-width:4px;}</style></defs><title>dados</title><circle class="cls-1" cx="146.63" cy="145.18" r="139.01"/><path class="cls-2" d="M146.64,73.7c29.64,0,53.66,12,53.66,26.84,0,5.5-3.31,10.62-9,14.88-9.61,7.2-26,12-44.65,12s-35-4.75-44.67-12c-5.69-4.26-9-9.38-9-14.88C93,85.71,117,73.7,146.64,73.7Z"/><path class="cls-3" d="M178.37,199.92a4.09,4.09,0,0,1-4-3.15,4.19,4.19,0,0,1-.12-1,4.11,4.11,0,0,1,7.94-1.46,4.2,4.2,0,0,1,.27,1.46A4.11,4.11,0,0,1,178.37,199.92Z"/><path class="cls-3" d="M178.37,191.72a4.11,4.11,0,0,0-4.1,4.1,4.19,4.19,0,0,0,.12,1,4.1,4.1,0,0,0,8.09-1,4.2,4.2,0,0,0-.27-1.46A4.1,4.1,0,0,0,178.37,191.72ZM102,175c9.63,7.2,26,11.94,44.67,11.94s35-4.74,44.65-11.94c5.7-4.26,9-9.38,9-14.89v29.76c0,14.83-24,26.84-53.66,26.84S93,204.66,93,189.83V160.07C93,165.58,96.28,170.7,102,175Z"/><path class="cls-4" d="M178.37,140.72a4.09,4.09,0,0,1-4-3.15,4.26,4.26,0,0,1-.12-.95,4.11,4.11,0,0,1,7.94-1.47,4.21,4.21,0,0,1,.27,1.47A4.11,4.11,0,0,1,178.37,140.72Z"/><path class="cls-3" d="M178.37,132.52a4.1,4.1,0,0,0-4.1,4.1,4.26,4.26,0,0,0,.12.95,4.1,4.1,0,0,0,8.09-.95,4.21,4.21,0,0,0-.27-1.47A4.11,4.11,0,0,0,178.37,132.52ZM102,115.42c9.63,7.2,26,12,44.67,12s35-4.75,44.65-12c5.7-4.26,9-9.38,9-14.88V130.3c0,5.51-3.32,10.63-9,14.89-9.63,7.2-26,11.94-44.65,11.94s-35-4.74-44.66-11.94c-5.69-4.26-9-9.38-9-14.89V100.54C93,106,96.28,111.16,102,115.42Z"/><path class="cls-4" d="M178.37,170.32a4.09,4.09,0,0,1-4-3.15,4.19,4.19,0,0,1-.12-.95,4.11,4.11,0,1,1,4.1,4.1Z"/><path class="cls-3" d="M174.39,167.17a4.07,4.07,0,1,0-.12-.95A4.19,4.19,0,0,0,174.39,167.17Zm-72.41-22c9.62,7.2,26,11.94,44.66,11.94s35-4.74,44.65-11.94c5.69-4.26,9-9.38,9-14.89v29.77c0,5.51-3.31,10.63-9,14.89-9.61,7.2-26,11.94-44.65,11.94S111.6,182.16,102,175c-5.69-4.26-9-9.38-9-14.89V130.3C93,135.81,96.29,140.93,102,145.19Z"/><path class="cls-5" d="M93,100.54c0-14.83,24-26.84,53.68-26.84s53.66,12,53.66,26.84"/><path class="cls-5" d="M93,130.3V100.54c0,5.5,3.32,10.62,9,14.88,9.63,7.2,26,12,44.67,12s35-4.75,44.65-12c5.7-4.26,9-9.38,9-14.88V130.3"/><path class="cls-5" d="M200.3,160.07v29.76c0,14.83-24,26.84-53.66,26.84S93,204.66,93,189.83V160.07"/><path class="cls-5" d="M200.3,130.3v29.77c0,5.51-3.31,10.63-9,14.89-9.61,7.2-26,11.94-44.65,11.94S111.6,182.16,102,175c-5.69-4.26-9-9.38-9-14.89V130.3c0,5.51,3.33,10.63,9,14.89,9.62,7.2,26,11.94,44.66,11.94s35-4.74,44.65-11.94C197,140.93,200.3,135.81,200.3,130.3Z"/><path class="cls-5" d="M182.48,136.62a4.1,4.1,0,0,1-8.09.95,4.26,4.26,0,0,1-.12-.95,4.11,4.11,0,0,1,7.94-1.47A4.21,4.21,0,0,1,182.48,136.62Z"/><path class="cls-5" d="M182.48,166.22a4.1,4.1,0,0,1-8.09.95,4.19,4.19,0,0,1-.12-.95,4.11,4.11,0,0,1,8.21,0Z"/><path class="cls-5" d="M182.48,195.82a4.1,4.1,0,0,1-8.09,1,4.19,4.19,0,0,1-.12-1,4.11,4.11,0,0,1,7.94-1.46A4.2,4.2,0,0,1,182.48,195.82Z"/></svg>