<svg id="Camada_1" data-name="Camada 1" xmlns="http://www.w3.org/2000/svg" viewBox="0 0 293.26 293.18"><defs><style>.cls-1,.cls-6{fill:none;}.cls-1{stroke:#d6d7d7;stroke-miterlimit:10;stroke-width:8px;}.cls-2{fill:#fff;}.cls-3{fill:#fdb93f;}.cls-4{fill:#2866ae;}.cls-5{fill:#d8d5d5;}.cls-6{stroke:#21344a;stroke-linecap:round;stroke-linejoin:round;stroke-width:4px;}</style></defs><title>demanda</title><circle class="cls-1" cx="146.63" cy="146.56" r="139.01"/><path class="cls-2" d="M203.36,107.86V226H89.9V67.13h72.72v40.73h40.74ZM117.8,207.8V194.52H104.53V207.8Zm0-30.85V163.67H104.53V177Zm0-30.85V132.82H104.53V146.1Z"/><rect class="cls-3" x="104.53" y="132.82" width="13.28" height="13.28"/><rect class="cls-4" x="104.53" y="163.67" width="13.28" height="13.28"/><rect class="cls-4" x="104.53" y="194.52" width="13.28" height="13.28"/><polygon class="cls-5" points="203.35 107.86 162.62 107.86 162.62 67.13 203.35 107.86"/><polygon class="cls-6" points="203.35 107.86 203.36 107.86 203.36 225.98 89.9 225.98 89.9 67.13 162.62 67.13 203.35 107.86"/><polyline class="cls-6" points="162.62 67.13 162.62 107.86 203.35 107.86 203.36 107.86"/><rect class="cls-6" x="104.53" y="132.82" width="13.28" height="13.28"/><rect class="cls-6" x="104.53" y="163.67" width="13.28" height="13.28"/><rect class="cls-6" x="104.53" y="194.52" width="13.28" height="13.28"/><line class="cls-6" x1="127.63" y1="135.1" x2="177.09" y2="135.1"/><line class="cls-6" x1="127.63" y1="143.88" x2="184.38" y2="143.88"/><line class="cls-6" x1="127.63" y1="165.91" x2="177.09" y2="165.91"/><line class="cls-6" x1="127.63" y1="174.7" x2="184.38" y2="174.7"/><line class="cls-6" x1="127.63" y1="196.76" x2="177.09" y2="196.76"/><line class="cls-6" x1="127.63" y1="205.55" x2="184.38" y2="205.55"/></svg>