<svg id="Camada_1" data-name="Camada 1" xmlns="http://www.w3.org/2000/svg" xmlns:xlink="http://www.w3.org/1999/xlink" viewBox="0 0 293.26 293.18"><defs><style>.cls-1,.cls-2,.cls-5{fill:none;}.cls-2{stroke:#d6d7d7;stroke-miterlimit:10;stroke-width:8px;}.cls-3{clip-path:url(#clip-path);}.cls-4{fill:#73c7d4;}.cls-5{stroke:#22344b;stroke-linecap:round;stroke-linejoin:round;stroke-width:4px;}</style><clipPath id="clip-path"><rect class="cls-1" x="72.44" y="52.27" width="172.13" height="170.15"/></clipPath></defs><title>desafio</title><circle class="cls-2" cx="146.63" cy="145.18" r="139.01"/><g class="cls-3"><path class="cls-4" d="M175.89,181a43.83,43.83,0,1,0-62,0,43.82,43.82,0,0,0,62,0M194.83,100a70.63,70.63,0,1,1-99.89,0,70.63,70.63,0,0,1,99.89,0"/><path class="cls-4" d="M154.2,140.64a13.18,13.18,0,1,1-18.62,0,13.17,13.17,0,0,1,18.62,0"/><path class="cls-5" d="M243.14,75.72l-22.87,0L202.45,94l21.72.37ZM201.2,94.42V71.54l18.26-17.83.39,21.72ZM144.83,151.1,200,96.22l19.5-19.42M176,181.17a44,44,0,1,1,0-62.28A44,44,0,0,1,176,181.17ZM94.66,99.85a71,71,0,1,0,100.33,0A71,71,0,0,0,94.66,99.85Zm59.52,40.8a13.24,13.24,0,1,1-18.71,0A13.23,13.23,0,0,1,154.18,140.65Z"/></g></svg>