<svg id="Camada_1" data-name="Camada 1" xmlns="http://www.w3.org/2000/svg" viewBox="0 0 293.26 293.18"><defs><style>.cls-1,.cls-2,.cls-6{fill:none;}.cls-1{stroke:#d6d7d7;stroke-width:8px;}.cls-1,.cls-2,.cls-3{stroke-miterlimit:10;}.cls-2,.cls-3{stroke:#20354c;}.cls-2,.cls-3,.cls-6{stroke-linecap:round;stroke-width:4px;}.cls-3{fill:#2866ae;}.cls-4{fill:#f6a115;}.cls-5{fill:#fdb93f;}.cls-6{stroke:#21344a;stroke-linejoin:round;}</style></defs><title>design</title><circle class="cls-1" cx="146.63" cy="145.18" r="139.01"/><path class="cls-2" d="M95,178.1s23.44-11.72,35.39-9.91c9.6,1.45,10.48,8.34,19.32,11s24.59.45,24.59,6.76c0,9.47-18.11,10.14-38.5,4.74"/><path class="cls-2" d="M172.15,190.68s27.16-22.17,35.09-17.21c5.12,3.21,5.38,10.95-18.51,24.92s-28.64,22.31-46.9,13.29S125,197,117.26,200.42c-2.38,1.06-8.79,5.63-8.79,5.63"/><path class="cls-2" d="M194.3,173.38s-1.66-4.78-7.81-4.78C179.4,168.6,162,181,162,181"/><path class="cls-2" d="M179.5,169.11s-1.67-4.78-7.82-4.78c-7.09,0-24.5,12.35-24.5,12.35"/><rect class="cls-3" x="83.23" y="162.52" width="23.44" height="56.79" rx="8.5"/><polygon class="cls-4" points="175.68 99.3 175.68 132.84 146.63 149.61 146.63 116.07 175.68 99.3"/><polygon class="cls-5" points="175.68 99.3 146.63 116.07 117.58 99.3 146.63 82.52 175.68 99.3"/><polygon class="cls-4" points="146.63 116.07 146.63 149.61 117.58 132.84 117.58 99.3 146.63 116.07"/><polygon class="cls-6" points="175.68 99.3 146.63 82.52 117.58 99.3 117.58 132.84 146.63 149.61 175.68 132.84 175.68 99.3"/><polyline class="cls-6" points="117.58 99.3 146.63 116.07 175.68 99.3"/><line class="cls-6" x1="146.63" y1="116.07" x2="146.63" y2="149.61"/><line class="cls-6" x1="130.89" y1="77.92" x2="127.56" y2="72.17"/><line class="cls-6" x1="146.63" y1="73.7" x2="146.63" y2="67.06"/><line class="cls-6" x1="162.38" y1="77.92" x2="165.7" y2="72.17"/><line class="cls-6" x1="173.9" y1="89.44" x2="179.65" y2="86.12"/><line class="cls-6" x1="119.35" y1="89.44" x2="113.61" y2="86.13"/></svg>