<svg id="Camada_1" data-name="Camada 1" xmlns="http://www.w3.org/2000/svg" viewBox="0 0 293.26 293.18"><defs><style>.cls-1,.cls-6,.cls-7{fill:none;}.cls-1{stroke:#d6d7d7;stroke-miterlimit:10;stroke-width:8px;}.cls-2{fill:#fff;}.cls-3{fill:#d8d5d5;}.cls-4{fill:#2866ae;}.cls-5{fill:#fdb93f;}.cls-6,.cls-7{stroke:#21344a;stroke-linecap:round;stroke-linejoin:round;}.cls-6{stroke-width:4px;}.cls-7{stroke-width:3px;}</style></defs><title>documento</title><circle class="cls-1" cx="146.63" cy="145.18" r="139.01"/><path class="cls-2" d="M208.05,106.71V224.17H95.22V66.2h72.32v40.49H208ZM123,206.09v-13.2h-13.2v13.2Zm0-30.68v-13.2h-13.2v13.2Zm0-30.68v-13.2h-13.2v13.2Z"/><polygon class="cls-3" points="208.04 106.69 167.54 106.69 167.54 66.2 208.04 106.69"/><rect class="cls-4" x="109.76" y="192.89" width="13.2" height="13.2"/><rect class="cls-4" x="109.76" y="162.21" width="13.2" height="13.2"/><rect class="cls-5" x="109.76" y="131.53" width="13.2" height="13.2"/><polygon class="cls-6" points="208.04 106.69 208.05 106.71 208.05 224.17 95.22 224.17 95.22 66.2 167.54 66.2 208.04 106.69"/><polyline class="cls-6" points="167.54 66.2 167.54 106.69 208.04 106.69 208.05 106.69"/><rect class="cls-7" x="109.76" y="131.53" width="13.2" height="13.2"/><rect class="cls-7" x="109.76" y="162.21" width="13.2" height="13.2"/><rect class="cls-7" x="109.76" y="192.89" width="13.2" height="13.2"/><line class="cls-7" x1="132.73" y1="133.79" x2="181.92" y2="133.79"/><line class="cls-7" x1="132.73" y1="142.53" x2="189.17" y2="142.53"/><line class="cls-7" x1="132.73" y1="164.44" x2="181.92" y2="164.44"/><line class="cls-7" x1="132.73" y1="173.18" x2="189.17" y2="173.18"/><line class="cls-7" x1="132.73" y1="195.12" x2="181.92" y2="195.12"/><line class="cls-7" x1="132.73" y1="203.85" x2="189.17" y2="203.85"/></svg>