<svg id="Camada_1" data-name="Camada 1" xmlns="http://www.w3.org/2000/svg" viewBox="0 0 293.26 293.18"><defs><style>.cls-1,.cls-3{fill:none;}.cls-1{stroke:#d6d7d7;stroke-miterlimit:10;stroke-width:8px;}.cls-2{fill:#aab5c7;}.cls-3{stroke:#21344a;stroke-linecap:round;stroke-linejoin:round;stroke-width:4px;}</style></defs><title>engrenagem</title><circle class="cls-1" cx="146.63" cy="145.18" r="139.01"/><path class="cls-2" d="M227.51,129l-18.88,7.82a62.16,62.16,0,0,1,0,16.65l18.88,7.82A83,83,0,0,1,215.24,191l-18.88-7.82a63.07,63.07,0,0,1-11.77,11.77l7.82,18.88a83,83,0,0,1-29.64,12.27L155,207.19a63.28,63.28,0,0,1-16.65,0l-7.82,18.88a82.85,82.85,0,0,1-29.63-12.28l7.82-18.88a63.07,63.07,0,0,1-11.78-11.76L78,191a83.48,83.48,0,0,1-12.27-29.64l18.88-7.82a63.2,63.2,0,0,1,0-16.64l-18.88-7.82A82.84,82.84,0,0,1,78,99.4l18.87,7.82a63.42,63.42,0,0,1,11.78-11.77l-7.82-18.88A83,83,0,0,1,130.48,64.3l7.82,18.88a63.28,63.28,0,0,1,16.65,0l7.82-18.88a83.15,83.15,0,0,1,29.64,12.28l-7.82,18.87a63.07,63.07,0,0,1,11.77,11.77l18.88-7.82A83.2,83.2,0,0,1,227.51,129Zm-80.88-7.11a23.26,23.26,0,1,0,23.26,23.26A23.26,23.26,0,0,0,146.63,121.93Z"/><circle class="cls-3" cx="146.63" cy="145.19" r="23.26"/><path class="cls-3" d="M208.63,153.51l18.88,7.82A83,83,0,0,1,215.24,191l-18.88-7.82a63.07,63.07,0,0,1-11.77,11.77l7.82,18.88a83,83,0,0,1-29.64,12.27L155,207.19a63.28,63.28,0,0,1-16.65,0l-7.82,18.88a82.85,82.85,0,0,1-29.63-12.28l7.82-18.88a63.07,63.07,0,0,1-11.78-11.76L78,191a83.48,83.48,0,0,1-12.27-29.64l18.88-7.82a63.2,63.2,0,0,1,0-16.64l-18.88-7.82A82.84,82.84,0,0,1,78,99.4l18.87,7.82a63.42,63.42,0,0,1,11.78-11.77l-7.82-18.88A83,83,0,0,1,130.48,64.3l7.82,18.88a63.28,63.28,0,0,1,16.65,0l7.82-18.88a83.15,83.15,0,0,1,29.64,12.28l-7.82,18.87a63.07,63.07,0,0,1,11.77,11.77l18.88-7.82A83.2,83.2,0,0,1,227.51,129l-18.88,7.82a62.16,62.16,0,0,1,0,16.65Z"/></svg>