<svg id="Camada_1" data-name="Camada 1" xmlns="http://www.w3.org/2000/svg" viewBox="0 0 293.26 293.18"><defs><style>.cls-1,.cls-3{fill:none;}.cls-1{stroke:#d6d7d7;stroke-miterlimit:10;stroke-width:8px;}.cls-2{fill:#d8d5d5;}.cls-3{stroke:#21344a;stroke-linecap:round;stroke-linejoin:round;stroke-width:4px;}</style></defs><title>estrategia</title><circle class="cls-1" cx="146.63" cy="145.18" r="139.01"/><path class="cls-2" d="M108.74,204.34V192.09a8.85,8.85,0,0,0,2.77,6.12c5.68,5.95,19.73,10.14,38.64,10.14s35.07-4.19,41.78-10.14c2.14-1.88,3.31-4,3.31-6.12h0v12.25h0c0,9-20.19,16.25-45.09,16.25S108.74,213.31,108.74,204.34Z"/><path class="cls-3" d="M108.74,204.34c0,9,16.49,16.25,41.41,16.25s45.09-7.28,45.09-16.25"/><path class="cls-3" d="M109.42,189a7.46,7.46,0,0,0-.68,3.09,8.85,8.85,0,0,0,2.77,6.12c5.68,5.95,19.73,10.14,38.64,10.14s35.07-4.19,41.78-10.14c2.14-1.88,3.31-4,3.31-6.12"/><path class="cls-3" d="M155.28,121.65a19.28,19.28,0,0,0,.37-4.44"/><path class="cls-3" d="M139.44,84.85c-10.56,3.25-18.78,11.08-21.25,16-9.53,18.84-21.19,21.29-21.25,27.93-.1,13.06,11,17.15,24.3,8.08,6.24-4.27,13.69-4.89,20.06-5.85,6.88-1,12.49-2.48,14-9.3"/><path class="cls-3" d="M141.4,131.6c7.94,20.4-25.39,26.55-32,57.4a4.64,4.64,0,0,0-.11.51"/><path class="cls-3" d="M132.6,106.69a2,2,0,0,1-1.32,2.54,2,2,0,1,1,1.32-2.54Z"/><path class="cls-3" d="M189.94,155.26c-.54,3.41-1.49,6.81-1.14,10.17,1.18,11.2,6.44,20.63,6.44,26.66"/><path class="cls-3" d="M139.44,84.85c.38-1.38-1.31-3.23-3.15-5.15-3.58-3.72-7.75-7.72,1.66-9,1.93-.26,4.14-.53,6.58-.72a62.81,62.81,0,0,1,12.43.16,46.09,46.09,0,0,1,10.38,2.44,40.84,40.84,0,0,1,9.22,4.71,44,44,0,0,1,7.63,6.62A54.07,54.07,0,0,1,190.3,92c.16.25.32.51.47.77,11.15,18.46,2.6,40.6-.83,62.49"/><line class="cls-3" x1="195.25" y1="192.09" x2="195.25" y2="204.34"/><line class="cls-3" x1="108.74" y1="192.09" x2="108.74" y2="204.34"/><line class="cls-3" x1="176.56" y1="77.31" x2="172.02" y2="85.2"/><line class="cls-3" x1="184.19" y1="83.93" x2="178.57" y2="89.8"/><line class="cls-3" x1="190.3" y1="92" x2="183.61" y2="96.29"/><line class="cls-3" x1="194.42" y1="101.16" x2="187.18" y2="103.73"/><line class="cls-3" x1="195.9" y1="110.7" x2="189.2" y2="111.5"/><line class="cls-3" x1="195.5" y1="120.21" x2="189.95" y2="119.71"/><line class="cls-3" x1="193.84" y1="130.09" x2="189.42" y2="129.1"/><line class="cls-3" x1="191.5" y1="140.4" x2="188.35" y2="139.37"/><line class="cls-3" x1="155.28" y1="121.65" x2="155.27" y2="121.66"/><line class="cls-3" x1="189.94" y1="155.26" x2="189.94" y2="155.26"/><polyline class="cls-3" points="144.62 72.26 144.62 72.27 145.91 79.73"/><line class="cls-3" x1="157.05" y1="72.43" x2="155.83" y2="80.23"/><line class="cls-3" x1="167.42" y1="74.86" x2="164.59" y2="82.42"/></svg>