<svg id="Camada_1" data-name="Camada 1" xmlns="http://www.w3.org/2000/svg" viewBox="0 0 61 194"><defs><style>.cls-1{fill:#fff;}.cls-2{fill:#687181;}.cls-3{fill:#22344b;}.cls-4{fill:#2967ae;}</style></defs><rect class="cls-1" width="61" height="194"/><path class="cls-2" d="M30.56,170.59a3.55,3.55,0,0,1-2.22-.65,2.24,2.24,0,0,1-.12-3.39H25.09v-1h8.53v.94l-.64,0a2.1,2.1,0,0,1,.75,1.72,2,2,0,0,1-.85,1.7,3.54,3.54,0,0,1-2.23.66Zm.11-1a2.69,2.69,0,0,0,1.6-.42,1.38,1.38,0,0,0,.58-1.17,1.5,1.5,0,0,0-.88-1.43H29.21a1.51,1.51,0,0,0-.85,1.42,1.37,1.37,0,0,0,.58,1.18A3,3,0,0,0,30.67,169.57Z"/><path class="cls-2" d="M33.72,161.44a2.65,2.65,0,0,1-.8,2,3,3,0,0,1-2.14.77h-.19a3.58,3.58,0,0,1-1.6-.34,2.76,2.76,0,0,1-1.1-1,2.44,2.44,0,0,1-.4-1.33,2.26,2.26,0,0,1,.77-1.82,3.35,3.35,0,0,1,2.21-.65h.43v4.07a2.2,2.2,0,0,0,1.44-.52,1.64,1.64,0,0,0,.55-1.26,1.77,1.77,0,0,0-.22-.92,2.3,2.3,0,0,0-.59-.66l.49-.63A2.51,2.51,0,0,1,33.72,161.44Zm-5.38.13a1.37,1.37,0,0,0,.45,1,2.15,2.15,0,0,0,1.27.52v-3H30a2,2,0,0,0-1.21.42A1.31,1.31,0,0,0,28.34,161.57Z"/><path class="cls-2" d="M32,154.42a.76.76,0,0,0-.65.31,3,3,0,0,0-.4,1.09,5,5,0,0,1-.4,1.24,1.84,1.84,0,0,1-.56.68,1.32,1.32,0,0,1-.77.22,1.58,1.58,0,0,1-1.25-.62,2.45,2.45,0,0,1-.51-1.6,2.54,2.54,0,0,1,.53-1.66,1.69,1.69,0,0,1,1.35-.64v1a.94.94,0,0,0-.73.36,1.36,1.36,0,0,0-.31.9,1.44,1.44,0,0,0,.24.88.78.78,0,0,0,.64.32.63.63,0,0,0,.56-.29,3.42,3.42,0,0,0,.36-1.06,5.38,5.38,0,0,1,.41-1.25,1.9,1.9,0,0,1,.57-.71,1.44,1.44,0,0,1,.82-.23,1.52,1.52,0,0,1,1.29.64,2.74,2.74,0,0,1,.49,1.67,2.9,2.9,0,0,1-.26,1.28,2.12,2.12,0,0,1-.71.87,1.68,1.68,0,0,1-1,.31v-1a1.09,1.09,0,0,0,.82-.41,1.63,1.63,0,0,0,.3-1,1.66,1.66,0,0,0-.24-.94A.65.65,0,0,0,32,154.42Z"/><path class="cls-2" d="M33.72,149.56a2.65,2.65,0,0,1-.8,2,3,3,0,0,1-2.14.77h-.19A3.58,3.58,0,0,1,29,152a2.76,2.76,0,0,1-1.1-.95,2.44,2.44,0,0,1-.4-1.33,2.26,2.26,0,0,1,.77-1.82,3.35,3.35,0,0,1,2.21-.65h.43v4.07a2.2,2.2,0,0,0,1.44-.52,1.64,1.64,0,0,0,.55-1.26,1.77,1.77,0,0,0-.22-.92,2.3,2.3,0,0,0-.59-.66l.49-.63A2.5,2.5,0,0,1,33.72,149.56Zm-5.38.13a1.37,1.37,0,0,0,.45,1,2.15,2.15,0,0,0,1.27.52v-3H30a2,2,0,0,0-1.21.42A1.31,1.31,0,0,0,28.34,149.69Z"/><path class="cls-2" d="M27.6,145.06l.75,0a2.19,2.19,0,0,1-.87-1.8c0-1.27.72-1.91,2.15-1.92h4v1h-4a1.35,1.35,0,0,0-1,.3,1.19,1.19,0,0,0-.31.91,1.48,1.48,0,0,0,.27.88,1.83,1.83,0,0,0,.7.59h4.28v1h-6Z"/><path class="cls-2" d="M28.33,138.73a2.19,2.19,0,0,1-.84-1.78c0-1.27.72-1.91,2.15-1.92h4v1h-4a1.35,1.35,0,0,0-1,.3,1.19,1.19,0,0,0-.31.91,1.5,1.5,0,0,0,.27.88,1.83,1.83,0,0,0,.7.59h4.28v1H25.09v-1h3.24Z"/><path class="cls-2" d="M33.61,129.79a2,2,0,0,1-.63.14,2.28,2.28,0,0,1,.74,1.71,2.16,2.16,0,0,1-.5,1.46,1.62,1.62,0,0,1-1.27.57,1.73,1.73,0,0,1-1.46-.71,3.34,3.34,0,0,1-.52-2v-1H29.5a1.17,1.17,0,0,0-.86.32,1.3,1.3,0,0,0-.32.95,1.46,1.46,0,0,0,.28.92.8.8,0,0,0,.67.37v1a1.44,1.44,0,0,1-.87-.32,2.1,2.1,0,0,1-.66-.87,2.92,2.92,0,0,1-.24-1.2,2.38,2.38,0,0,1,.52-1.63,1.9,1.9,0,0,1,1.43-.61H32.2a3.35,3.35,0,0,0,1.31-.21h.09v1.09Zm-.78,1.7a1.79,1.79,0,0,0-.25-.92,1.51,1.51,0,0,0-.65-.63H30.7v.8c0,1.26.37,1.89,1.1,1.89a.94.94,0,0,0,.75-.32A1.17,1.17,0,0,0,32.83,131.49Z"/><path class="cls-2" d="M30.56,127.56a3.55,3.55,0,0,1-2.22-.65,2.24,2.24,0,0,1-.12-3.39H25.09v-1h8.53v.94l-.64,0a2.09,2.09,0,0,1,.75,1.71,2,2,0,0,1-.85,1.7,3.54,3.54,0,0,1-2.23.66h-.09Zm.11-1a2.69,2.69,0,0,0,1.6-.42,1.38,1.38,0,0,0,.58-1.17,1.5,1.5,0,0,0-.88-1.43H29.21a1.51,1.51,0,0,0-.85,1.41,1.37,1.37,0,0,0,.58,1.18A2.89,2.89,0,0,0,30.67,126.54Z"/><path class="cls-2" d="M30.55,121.17a3.57,3.57,0,0,1-1.59-.35,2.55,2.55,0,0,1-1.47-2.38,2.5,2.5,0,0,1,.85-2,3.25,3.25,0,0,1,2.26-.76h.07a3.48,3.48,0,0,1,1.57.34,2.46,2.46,0,0,1,1.08,1,2.66,2.66,0,0,1,.39,1.44,2.53,2.53,0,0,1-.85,2,3.29,3.29,0,0,1-2.25.76h-.06Zm.12-1a2.54,2.54,0,0,0,1.6-.46,1.49,1.49,0,0,0,.61-1.24,1.46,1.46,0,0,0-.61-1.24,2.79,2.79,0,0,0-1.72-.46,2.58,2.58,0,0,0-1.6.47,1.49,1.49,0,0,0-.61,1.25,1.46,1.46,0,0,0,.61,1.23A2.8,2.8,0,0,0,30.67,120.14Z"/><path class="cls-2" d="M30.67,106.53a3.6,3.6,0,0,1,2.21.63,2,2,0,0,1,.84,1.7,2.21,2.21,0,0,1-.69,1.72h2.89v1H27.61v-.94l.67,0a2.11,2.11,0,0,1-.78-1.74,2,2,0,0,1,.82-1.71,3.63,3.63,0,0,1,2.27-.63Zm-.11,1A2.62,2.62,0,0,0,29,108a1.4,1.4,0,0,0-.59,1.19,1.52,1.52,0,0,0,.83,1.4h2.87a1.51,1.51,0,0,0,.82-1.41A1.42,1.42,0,0,0,32.3,108,2.9,2.9,0,0,0,30.56,107.56Z"/><path class="cls-2" d="M30.55,105.5a3.57,3.57,0,0,1-1.59-.35,2.55,2.55,0,0,1-1.47-2.38,2.5,2.5,0,0,1,.85-2A3.25,3.25,0,0,1,30.6,100h.07a3.48,3.48,0,0,1,1.57.34,2.46,2.46,0,0,1,1.08,1,2.66,2.66,0,0,1,.39,1.44,2.53,2.53,0,0,1-.85,2,3.29,3.29,0,0,1-2.25.76h-.06Zm.12-1a2.54,2.54,0,0,0,1.6-.46,1.49,1.49,0,0,0,.61-1.24,1.46,1.46,0,0,0-.61-1.24,2.79,2.79,0,0,0-1.72-.46,2.58,2.58,0,0,0-1.6.47,1.49,1.49,0,0,0-.61,1.25A1.46,1.46,0,0,0,29,104,2.87,2.87,0,0,0,30.67,104.47Z"/><path class="cls-2" d="M28.52,95.84a2.71,2.71,0,0,0,0,.51,1.36,1.36,0,0,0,.86,1.37H33.6v1h-6v-1l.69,0a1.59,1.59,0,0,1-.81-1.43,1.12,1.12,0,0,1,.08-.46Z"/><path class="cls-3" d="M32.37,26.53h-.92V25.36a1.69,1.69,0,0,0,0-.43.5.5,0,0,0-.14-.26.61.61,0,0,0-.25-.14,1.28,1.28,0,0,0-.36,0H27.52V23.41h3.19a2.88,2.88,0,0,1,.78.09,1.08,1.08,0,0,1,.51.3,1.18,1.18,0,0,1,.28.57,3.79,3.79,0,0,1,.09.9Z"/><path class="cls-3" d="M29.05,27.59a.9.9,0,0,0-.31,0,.37.37,0,0,0-.18.14.66.66,0,0,0-.08.28c0,.12,0,.26,0,.44v2.64h1.47V28.49c0-.17,0-.32,0-.44a.66.66,0,0,0-.08-.28.28.28,0,0,0-.18-.14,1,1,0,0,0-.32,0Zm3.32.71-1.75,2.82h1.75v1.07H27.55V28.41a5.39,5.39,0,0,1,.06-.87,1.38,1.38,0,0,1,.23-.59,1,1,0,0,1,.45-.34A2.08,2.08,0,0,1,29,26.5h.33a1.92,1.92,0,0,1,.69.11.93.93,0,0,1,.43.35,1.47,1.47,0,0,1,.22.6,5.34,5.34,0,0,1,.06.86v.85l1.63-2.83V28.3Z"/><path class="cls-3" d="M29.15,33.47a.67.67,0,0,0-.53.17,1,1,0,0,0-.14.6V37h1.65V34.23a1,1,0,0,0-.13-.59.64.64,0,0,0-.51-.16h-.34ZM31,37h1.38v1.08H27.55V34.21a4.12,4.12,0,0,1,.08-.86,1.18,1.18,0,0,1,.27-.56,1.09,1.09,0,0,1,.48-.3,2.53,2.53,0,0,1,.72-.09h.42a2.72,2.72,0,0,1,.71.08.88.88,0,0,1,.45.29,1.32,1.32,0,0,1,.24.56,5.13,5.13,0,0,1,.07.88Z"/><path class="cls-3" d="M32.37,39.41h-3.2l3.1,2.37a.65.65,0,0,1,0,1l-3.1,2.37h3.2v1H27.85a.37.37,0,0,1-.33-.17.77.77,0,0,1-.11-.42.87.87,0,0,1,.05-.31.66.66,0,0,1,.17-.21l3.64-2.74-3.64-2.76a.52.52,0,0,1-.17-.2.6.6,0,0,1-.05-.29.77.77,0,0,1,.11-.42.37.37,0,0,1,.33-.17h4.52Z"/><rect class="cls-3" x="25.65" y="48.65" width="8.59" height="0.4"/><path class="cls-3" d="M25.89,83.85V82.13l5.1-4h-5.1V76.32h8.24V77.9L28.86,82h5.27v1.84H25.89Z"/><path class="cls-3" d="M25.89,66.44v-2l5.78-2.19L25.89,60v-2l8.2,3.38v1.62Z"/><path class="cls-3" d="M34.08,51.34v2L28.3,55.56l5.78,2.19v2l-8.2-3.38V54.73Z"/><rect class="cls-3" x="25.89" y="85.24" width="8.24" height="1.86"/><path class="cls-4" d="M30,69.91a.85.85,0,1,1-.85.85A.85.85,0,0,1,30,69.91Z"/><path class="cls-4" d="M25.39,70.77A4.57,4.57,0,1,0,30,66.2,4.57,4.57,0,0,0,25.39,70.77Zm7.41,0A2.84,2.84,0,1,1,30,67.93,2.84,2.84,0,0,1,32.8,70.77Z"/></svg>