<svg id="Camada_1" data-name="Camada 1" xmlns="http://www.w3.org/2000/svg" viewBox="0 0 293.26 293.18"><defs><style>.cls-1,.cls-3{fill:none;}.cls-1{stroke:#d6d7d7;stroke-miterlimit:10;stroke-width:8px;}.cls-2{fill:#d8d5d5;}.cls-3{stroke:#21344a;stroke-linecap:round;stroke-linejoin:round;stroke-width:4px;}</style></defs><title>ferramenta fundo branco</title><circle class="cls-1" cx="146.63" cy="146.56" r="139.01"/><path class="cls-2" d="M215.86,93.64a30.47,30.47,0,0,1-39.18,38.9,3.18,3.18,0,0,0-1.17-.21,3.38,3.38,0,0,0-2.39,1L135.39,171a3.4,3.4,0,0,0-.78,3.57,30.45,30.45,0,0,1-38.89,39.17l16.16-16.15a3.41,3.41,0,0,0,0-4.79L98.35,179.31a3.39,3.39,0,0,0-4.79,0L77.4,195.47A30.46,30.46,0,0,1,106,154.7a30.32,30.32,0,0,1,10.55,1.88,3.32,3.32,0,0,0,1.17.21,3.4,3.4,0,0,0,2.39-1l37.72-37.72a3.4,3.4,0,0,0,.79-3.56,30.43,30.43,0,0,1,38.88-39.18l-16,16a3.39,3.39,0,0,0,0,4.79L195,109.69a3.41,3.41,0,0,0,2.39,1,3.38,3.38,0,0,0,2.39-1Z"/><path class="cls-3" d="M106,215.58a30.41,30.41,0,0,1-10.32-1.8l16.16-16.15a3.41,3.41,0,0,0,0-4.79L98.35,179.31a3.39,3.39,0,0,0-4.79,0L77.4,195.47A30.46,30.46,0,0,1,106,154.7a30.32,30.32,0,0,1,10.55,1.88,3.32,3.32,0,0,0,1.17.21,3.4,3.4,0,0,0,2.39-1l37.72-37.72a3.4,3.4,0,0,0,.79-3.56,30.43,30.43,0,0,1,38.88-39.18l-16,16a3.39,3.39,0,0,0,0,4.79L195,109.69a3.41,3.41,0,0,0,2.39,1,3.38,3.38,0,0,0,2.39-1l16.05-16a30.47,30.47,0,0,1-39.18,38.9,3.18,3.18,0,0,0-1.17-.21,3.38,3.38,0,0,0-2.39,1L135.39,171a3.4,3.4,0,0,0-.78,3.57,30.44,30.44,0,0,1-28.57,41Z"/><line class="cls-3" x1="136.66" y1="98.68" x2="134.32" y2="88.82"/><line class="cls-3" x1="114.75" y1="110.49" x2="107.8" y2="103.12"/><line class="cls-3" x1="101.69" y1="131.67" x2="91.98" y2="128.76"/><line class="cls-3" x1="156.6" y1="189.89" x2="158.94" y2="199.75"/><line class="cls-3" x1="178.51" y1="178.08" x2="185.46" y2="185.46"/><line class="cls-3" x1="191.58" y1="156.9" x2="201.29" y2="159.81"/></svg>