<svg id="Camada_1" data-name="Camada 1" xmlns="http://www.w3.org/2000/svg" viewBox="0 0 293.26 293.18"><defs><style>.cls-1{fill:none;stroke:#d6d7d7;stroke-width:8px;}.cls-1,.cls-4{stroke-miterlimit:10;}.cls-2{fill:#f6a115;}.cls-3{fill:#21344a;}.cls-4{fill:#fff;stroke:#21344a;stroke-width:4px;}</style></defs><title>fluxo</title><circle class="cls-1" cx="146.63" cy="146.56" r="139.01"/><path class="cls-2" d="M136.57,210.11a24.34,24.34,0,1,1,0-48.67,36,36,0,1,0,0-72H84.29V81h52.29a44.45,44.45,0,1,1,0,88.89,15.89,15.89,0,0,0,0,31.77H209v8.45Z"/><path class="cls-3" d="M136.58,83a42.45,42.45,0,1,1,0,84.89,17.89,17.89,0,0,0,0,35.77H207v4.45H136.57a22.34,22.34,0,1,1,0-44.67,38,38,0,1,0,0-76H86.29V83h50.29m0-4H82.29V91.45h54.29a34,34,0,1,1,0,68,26.34,26.34,0,1,0,0,52.67H211V199.66H136.57a13.89,13.89,0,0,1,0-27.77,46.45,46.45,0,1,0,0-92.89Z"/><path class="cls-4" d="M207,192.14a13.75,13.75,0,1,1-13.75,13.74A13.74,13.74,0,0,1,207,192.14Z"/><path class="cls-4" d="M160.63,192.14a13.75,13.75,0,1,1-13.74,13.74,13.75,13.75,0,0,1,13.74-13.74Z"/><path class="cls-4" d="M135.25,71.48a13.75,13.75,0,1,1-13.74,13.75,13.74,13.74,0,0,1,13.74-13.75Z"/><path class="cls-4" d="M176.8,109.09a13.75,13.75,0,1,1-13.74,13.74,13.74,13.74,0,0,1,13.74-13.74Z"/><path class="cls-4" d="M144,150.58a13.75,13.75,0,1,1-13.75,13.75A13.76,13.76,0,0,1,144,150.58Z"/><path class="cls-4" d="M86.29,71.48A13.75,13.75,0,1,1,72.54,85.23,13.74,13.74,0,0,1,86.29,71.48Z"/></svg>