<svg id="Camada_1" data-name="Camada 1" xmlns="http://www.w3.org/2000/svg" xmlns:xlink="http://www.w3.org/1999/xlink" viewBox="0 0 2365.81 742.9"><defs><style>.cls-1,.cls-11,.cls-19,.cls-2,.cls-24,.cls-3,.cls-32,.cls-40,.cls-41,.cls-44,.cls-47,.cls-48,.cls-6{fill:none;}.cls-2{stroke:#1d1d1b;stroke-width:2.16px;}.cls-24,.cls-3,.cls-34,.cls-40,.cls-47,.cls-48{stroke:#21344a;}.cls-11,.cls-19,.cls-3,.cls-6{stroke-miterlimit:10;}.cls-3,.cls-6{stroke-width:35px;}.cls-4{fill:#4b6187;}.cls-25,.cls-29,.cls-5{fill:#f1eced;}.cls-6{stroke:#f6a115;}.cls-7{fill:#f5af3b;}.cls-8{fill:#2866ae;}.cls-9{font-size:7px;font-family:Roboto-Black, Roboto;font-weight:800;}.cls-26,.cls-27,.cls-30,.cls-34,.cls-9{fill:#fff;}.cls-10{fill:#6dcdd9;}.cls-11{stroke:#86899e;}.cls-11,.cls-19,.cls-24,.cls-32,.cls-34,.cls-40,.cls-47,.cls-48{stroke-linecap:round;}.cls-11,.cls-19{stroke-dasharray:5 5;}.cls-12{fill:#728fb8;}.cls-13{fill:#21344a;}.cls-14,.cls-16,.cls-42{font-size:12px;}.cls-14,.cls-15{fill:#3e4f6b;}.cls-14,.cls-16,.cls-25,.cls-26,.cls-27,.cls-29,.cls-43{font-family:Roboto-Bold, Roboto;font-weight:700;}.cls-16{fill:#fdb93f;}.cls-17{fill:#fed58c;}.cls-18{fill:#f6a115;}.cls-19{stroke:#fed58c;}.cls-20,.cls-42{fill:#aab5c7;}.cls-21{fill:#f95000;}.cls-22{fill:#d8d5d5;}.cls-23{fill:#e9521b;}.cls-24,.cls-32,.cls-34,.cls-40,.cls-41,.cls-44,.cls-47,.cls-48{stroke-linejoin:round;}.cls-24{stroke-width:1.08px;}.cls-25,.cls-26,.cls-27,.cls-29,.cls-43,.cls-45{font-size:8px;}.cls-25,.cls-26,.cls-28{letter-spacing:-0.01em;}.cls-31{fill:#f59c1a;}.cls-32{stroke:#34334b;}.cls-32,.cls-34{stroke-width:0.35px;}.cls-33{fill:#6da6d9;}.cls-35{fill:url(#_10_lpi_30_);}.cls-36{fill:#454966;}.cls-37{fill:#f3f0f0;}.cls-38{fill:#f4991a;}.cls-39{fill:#11293b;}.cls-40{stroke-width:0.75px;}.cls-41,.cls-44{stroke:#aab5c7;}.cls-41{stroke-width:2px;}.cls-42{font-family:RobotoMono-Regular, Roboto Mono;}.cls-43,.cls-45{fill:#1a1414;}.cls-44{stroke-width:2.09px;}.cls-45{font-family:Roboto-Regular, Roboto;}.cls-46{fill:url(#_10_lpi_30_3);}.cls-47{stroke-width:1.03px;}.cls-48{stroke-width:1.08px;}</style><pattern id="_10_lpi_30_" data-name="10 lpi 30%" width="72" height="72" patternTransform="translate(-80.08 80.89) scale(0.16)" patternUnits="userSpaceOnUse" viewBox="0 0 72 72"><rect class="cls-1" width="72" height="72"/><line class="cls-2" x1="71.75" y1="68.4" x2="144.25" y2="68.4"/><line class="cls-2" x1="71.75" y1="54" x2="144.25" y2="54"/><line class="cls-2" x1="71.75" y1="39.6" x2="144.25" y2="39.6"/><line class="cls-2" x1="71.75" y1="25.2" x2="144.25" y2="25.2"/><line class="cls-2" x1="71.75" y1="10.8" x2="144.25" y2="10.8"/><line class="cls-2" x1="71.75" y1="61.2" x2="144.25" y2="61.2"/><line class="cls-2" x1="71.75" y1="46.8" x2="144.25" y2="46.8"/><line class="cls-2" x1="71.75" y1="32.4" x2="144.25" y2="32.4"/><line class="cls-2" x1="71.75" y1="18" x2="144.25" y2="18"/><line class="cls-2" x1="71.75" y1="3.6" x2="144.25" y2="3.6"/><line class="cls-2" x1="-0.25" y1="68.4" x2="72.25" y2="68.4"/><line class="cls-2" x1="-0.25" y1="54" x2="72.25" y2="54"/><line class="cls-2" x1="-0.25" y1="39.6" x2="72.25" y2="39.6"/><line class="cls-2" x1="-0.25" y1="25.2" x2="72.25" y2="25.2"/><line class="cls-2" x1="-0.25" y1="10.8" x2="72.25" y2="10.8"/><line class="cls-2" x1="-0.25" y1="61.2" x2="72.25" y2="61.2"/><line class="cls-2" x1="-0.25" y1="46.8" x2="72.25" y2="46.8"/><line class="cls-2" x1="-0.25" y1="32.4" x2="72.25" y2="32.4"/><line class="cls-2" x1="-0.25" y1="18" x2="72.25" y2="18"/><line class="cls-2" x1="-0.25" y1="3.6" x2="72.25" y2="3.6"/><line class="cls-2" x1="-72.25" y1="68.4" x2="0.25" y2="68.4"/><line class="cls-2" x1="-72.25" y1="54" x2="0.25" y2="54"/><line class="cls-2" x1="-72.25" y1="39.6" x2="0.25" y2="39.6"/><line class="cls-2" x1="-72.25" y1="25.2" x2="0.25" y2="25.2"/><line class="cls-2" x1="-72.25" y1="10.8" x2="0.25" y2="10.8"/><line class="cls-2" x1="-72.25" y1="61.2" x2="0.25" y2="61.2"/><line class="cls-2" x1="-72.25" y1="46.8" x2="0.25" y2="46.8"/><line class="cls-2" x1="-72.25" y1="32.4" x2="0.25" y2="32.4"/><line class="cls-2" x1="-72.25" y1="18" x2="0.25" y2="18"/><line class="cls-2" x1="-72.25" y1="3.6" x2="0.25" y2="3.6"/></pattern><pattern id="_10_lpi_30_3" data-name="10 lpi 30%" width="72" height="72" patternTransform="translate(-65.41 235.16) scale(0.16)" patternUnits="userSpaceOnUse" viewBox="0 0 72 72"><rect class="cls-1" width="72" height="72"/><line class="cls-2" x1="71.75" y1="68.4" x2="144.25" y2="68.4"/><line class="cls-2" x1="71.75" y1="54" x2="144.25" y2="54"/><line class="cls-2" x1="71.75" y1="39.6" x2="144.25" y2="39.6"/><line class="cls-2" x1="71.75" y1="25.2" x2="144.25" y2="25.2"/><line class="cls-2" x1="71.75" y1="10.8" x2="144.25" y2="10.8"/><line class="cls-2" x1="71.75" y1="61.2" x2="144.25" y2="61.2"/><line class="cls-2" x1="71.75" y1="46.8" x2="144.25" y2="46.8"/><line class="cls-2" x1="71.75" y1="32.4" x2="144.25" y2="32.4"/><line class="cls-2" x1="71.75" y1="18" x2="144.25" y2="18"/><line class="cls-2" x1="71.75" y1="3.6" x2="144.25" y2="3.6"/><line class="cls-2" x1="-0.25" y1="68.4" x2="72.25" y2="68.4"/><line class="cls-2" x1="-0.25" y1="54" x2="72.25" y2="54"/><line class="cls-2" x1="-0.25" y1="39.6" x2="72.25" y2="39.6"/><line class="cls-2" x1="-0.25" y1="25.2" x2="72.25" y2="25.2"/><line class="cls-2" x1="-0.25" y1="10.8" x2="72.25" y2="10.8"/><line class="cls-2" x1="-0.25" y1="61.2" x2="72.25" y2="61.2"/><line class="cls-2" x1="-0.25" y1="46.8" x2="72.25" y2="46.8"/><line class="cls-2" x1="-0.25" y1="32.4" x2="72.25" y2="32.4"/><line class="cls-2" x1="-0.25" y1="18" x2="72.25" y2="18"/><line class="cls-2" x1="-0.25" y1="3.6" x2="72.25" y2="3.6"/><line class="cls-2" x1="-72.25" y1="68.4" x2="0.25" y2="68.4"/><line class="cls-2" x1="-72.25" y1="54" x2="0.25" y2="54"/><line class="cls-2" x1="-72.25" y1="39.6" x2="0.25" y2="39.6"/><line class="cls-2" x1="-72.25" y1="25.2" x2="0.25" y2="25.2"/><line class="cls-2" x1="-72.25" y1="10.8" x2="0.25" y2="10.8"/><line class="cls-2" x1="-72.25" y1="61.2" x2="0.25" y2="61.2"/><line class="cls-2" x1="-72.25" y1="46.8" x2="0.25" y2="46.8"/><line class="cls-2" x1="-72.25" y1="32.4" x2="0.25" y2="32.4"/><line class="cls-2" x1="-72.25" y1="18" x2="0.25" y2="18"/><line class="cls-2" x1="-72.25" y1="3.6" x2="0.25" y2="3.6"/></pattern></defs><path class="cls-3" d="M602.94,189.1A113.68,113.68,0,0,0,489.26,75.42,58.58,58.58,0,0,0,430.68,134c0,32.36,26.22,58.59,59.28,58.59H645.32"/><circle class="cls-4" cx="441.1" cy="126.98" r="40"/><path class="cls-5" d="M425.31,121.75a2.55,2.55,0,0,1-.44,1.56,1.44,1.44,0,0,1-1.2.59,1.33,1.33,0,0,1-1-.45v2h-1.12v-5.86h1l0,.42a1.33,1.33,0,0,1,1.07-.49,1.45,1.45,0,0,1,1.22.57,2.62,2.62,0,0,1,.43,1.6Zm-1.13-.09a1.68,1.68,0,0,0-.21-.91.68.68,0,0,0-.6-.32.76.76,0,0,0-.74.41v1.73a.76.76,0,0,0,.74.42C423.91,123,424.18,122.55,424.18,121.66Z"/><path class="cls-5" d="M427.87,123.9a2.07,2.07,0,0,1-1.51-.57,2,2,0,0,1-.58-1.52v-.11a2.64,2.64,0,0,1,.24-1.14,1.87,1.87,0,0,1,.7-.77,2,2,0,0,1,1-.27,1.79,1.79,0,0,1,1.37.54,2.25,2.25,0,0,1,.49,1.55v.46h-2.69a1.1,1.1,0,0,0,.33.67,1,1,0,0,0,.7.25,1.24,1.24,0,0,0,1-.47l.55.62a1.79,1.79,0,0,1-.68.56A2.34,2.34,0,0,1,427.87,123.9Zm-.12-3.47a.71.71,0,0,0-.55.22,1.18,1.18,0,0,0-.27.65h1.57v-.09a.82.82,0,0,0-.2-.58A.7.7,0,0,0,427.75,120.43Z"/><path class="cls-5" d="M432.46,122.65a.37.37,0,0,0-.2-.32,2.63,2.63,0,0,0-.66-.22c-1-.21-1.51-.63-1.51-1.28a1.17,1.17,0,0,1,.47-.94,1.89,1.89,0,0,1,1.22-.37,2.06,2.06,0,0,1,1.29.37,1.22,1.22,0,0,1,.48,1h-1.13a.52.52,0,0,0-.16-.4.62.62,0,0,0-.48-.16.67.67,0,0,0-.45.13.4.4,0,0,0-.15.33.35.35,0,0,0,.18.3,1.71,1.71,0,0,0,.59.2,5.63,5.63,0,0,1,.72.19,1.17,1.17,0,0,1,.89,1.14,1.08,1.08,0,0,1-.5.93,2.11,2.11,0,0,1-1.28.36,2.16,2.16,0,0,1-.94-.19,1.69,1.69,0,0,1-.65-.52,1.25,1.25,0,0,1-.23-.71H431a.58.58,0,0,0,.22.46.93.93,0,0,0,.56.16.77.77,0,0,0,.49-.13A.38.38,0,0,0,432.46,122.65Z"/><path class="cls-5" d="M434,121.67a2.58,2.58,0,0,1,.44-1.58,1.48,1.48,0,0,1,1.22-.57,1.31,1.31,0,0,1,1.08.51l.08-.44h1v5.86h-1.13v-2a1.32,1.32,0,0,1-1,.44,1.44,1.44,0,0,1-1.2-.59A2.64,2.64,0,0,1,434,121.67Zm1.13.08a1.67,1.67,0,0,0,.21.92.68.68,0,0,0,.6.32.77.77,0,0,0,.74-.42v-1.74a.76.76,0,0,0-.73-.4.7.7,0,0,0-.61.31A1.88,1.88,0,0,0,435.16,121.75Z"/><path class="cls-5" d="M441.18,123.39a1.43,1.43,0,0,1-1.16.51,1.35,1.35,0,0,1-1-.39,1.68,1.68,0,0,1-.36-1.15v-2.77h1.13v2.74q0,.66.6.66a.82.82,0,0,0,.79-.4v-3h1.13v4.23h-1.06Z"/><path class="cls-5" d="M443,118.5a.57.57,0,0,1,.17-.42.65.65,0,0,1,.47-.16.65.65,0,0,1,.46.16.6.6,0,0,1,0,.84.65.65,0,0,1-.46.17.64.64,0,0,1-.46-.17A.54.54,0,0,1,443,118.5Zm1.2,5.32H443.1v-4.23h1.13Z"/><path class="cls-5" d="M447.37,122.65a.37.37,0,0,0-.2-.32,2.63,2.63,0,0,0-.66-.22c-1-.21-1.51-.63-1.51-1.28a1.17,1.17,0,0,1,.47-.94,1.89,1.89,0,0,1,1.22-.37,2,2,0,0,1,1.29.37,1.22,1.22,0,0,1,.48,1h-1.13a.52.52,0,0,0-.16-.4.62.62,0,0,0-.48-.16.67.67,0,0,0-.45.13.4.4,0,0,0-.15.33.35.35,0,0,0,.18.3,1.71,1.71,0,0,0,.6.2,5.91,5.91,0,0,1,.71.19,1.17,1.17,0,0,1,.89,1.14,1.08,1.08,0,0,1-.5.93,2.11,2.11,0,0,1-1.28.36,2.16,2.16,0,0,1-.94-.19,1.69,1.69,0,0,1-.65-.52,1.25,1.25,0,0,1-.23-.71h1.07a.58.58,0,0,0,.22.46,1,1,0,0,0,.56.16.77.77,0,0,0,.49-.13A.38.38,0,0,0,447.37,122.65Z"/><path class="cls-5" d="M451.57,123.82a1.55,1.55,0,0,1-.12-.38,1.34,1.34,0,0,1-1.06.46,1.49,1.49,0,0,1-1-.36,1.16,1.16,0,0,1-.41-.91,1.21,1.21,0,0,1,.5-1,2.43,2.43,0,0,1,1.44-.36h.52V121a.68.68,0,0,0-.15-.47.59.59,0,0,0-.48-.18.69.69,0,0,0-.45.14.47.47,0,0,0-.16.37H449a1.16,1.16,0,0,1,.23-.68,1.54,1.54,0,0,1,.64-.49,2.52,2.52,0,0,1,.93-.17,1.84,1.84,0,0,1,1.24.39,1.36,1.36,0,0,1,.46,1.1v1.83a1.93,1.93,0,0,0,.17.91v.07Zm-.94-.79a.9.9,0,0,0,.46-.11.67.67,0,0,0,.32-.3v-.72H451c-.57,0-.87.19-.91.58v.07a.45.45,0,0,0,.15.35A.57.57,0,0,0,450.63,123Z"/><path class="cls-5" d="M457.18,123.9a2.07,2.07,0,0,1-1.51-.57,2,2,0,0,1-.58-1.52v-.11a2.64,2.64,0,0,1,.24-1.14,1.87,1.87,0,0,1,.7-.77,2,2,0,0,1,1-.27,1.75,1.75,0,0,1,1.36.54,2.21,2.21,0,0,1,.5,1.55v.46h-2.69a1.1,1.1,0,0,0,.33.67,1,1,0,0,0,.7.25,1.24,1.24,0,0,0,1-.47l.55.62a1.79,1.79,0,0,1-.68.56A2.34,2.34,0,0,1,457.18,123.9Zm-.12-3.47a.71.71,0,0,0-.55.22,1.18,1.18,0,0,0-.27.65h1.57v-.09a.82.82,0,0,0-.2-.58A.72.72,0,0,0,457.06,120.43Z"/><path class="cls-5" d="M410.7,134.82v-3.4h-.63v-.83h.63v-.36a1.43,1.43,0,0,1,.41-1.1,1.58,1.58,0,0,1,1.14-.39,2.67,2.67,0,0,1,.57.08v.87a1.65,1.65,0,0,0-.34,0c-.43,0-.64.2-.64.59v.34h.84v.83h-.84v3.4Z"/><path class="cls-5" d="M413,132.67a2.49,2.49,0,0,1,.24-1.12,1.87,1.87,0,0,1,.7-.77,2.13,2.13,0,0,1,1.06-.26,1.9,1.9,0,0,1,1.39.52,2.1,2.1,0,0,1,.61,1.42v.29a2.21,2.21,0,0,1-.55,1.56,1.88,1.88,0,0,1-1.45.59,1.9,1.9,0,0,1-1.46-.59,2.21,2.21,0,0,1-.55-1.59Zm1.13.08a1.58,1.58,0,0,0,.23.92.75.75,0,0,0,.65.32.76.76,0,0,0,.64-.32,1.73,1.73,0,0,0,.23-1,1.6,1.6,0,0,0-.23-.92.75.75,0,0,0-.65-.32.72.72,0,0,0-.64.32A1.76,1.76,0,0,0,414.13,132.75Z"/><path class="cls-5" d="M420,131.65l-.41,0a.83.83,0,0,0-.84.43v2.77h-1.13v-4.23h1.07l0,.51a1,1,0,0,1,.94-.58,1,1,0,0,1,.35,0Z"/><path class="cls-5" d="M421.52,130.59l0,.48a1.49,1.49,0,0,1,1.22-.55,1.12,1.12,0,0,1,1.12.64,1.45,1.45,0,0,1,1.27-.64,1.24,1.24,0,0,1,1,.4,1.79,1.79,0,0,1,.34,1.2v2.7h-1.14v-2.7a.77.77,0,0,0-.14-.52.6.6,0,0,0-.49-.17.72.72,0,0,0-.71.49v2.9h-1.13v-2.69a.82.82,0,0,0-.14-.53.66.66,0,0,0-.5-.17.73.73,0,0,0-.69.4v3h-1.13v-4.23Z"/><path class="cls-5" d="M429.75,134.82a1.22,1.22,0,0,1-.11-.38,1.35,1.35,0,0,1-1.07.46,1.52,1.52,0,0,1-1-.36,1.16,1.16,0,0,1-.4-.91,1.2,1.2,0,0,1,.49-1,2.47,2.47,0,0,1,1.44-.36h.52V132a.68.68,0,0,0-.15-.47.58.58,0,0,0-.47-.18.69.69,0,0,0-.45.14.44.44,0,0,0-.16.37h-1.13a1.16,1.16,0,0,1,.23-.68,1.54,1.54,0,0,1,.64-.49,2.45,2.45,0,0,1,.93-.17,1.86,1.86,0,0,1,1.24.39,1.39,1.39,0,0,1,.46,1.1v1.83a2,2,0,0,0,.16.91v.07Zm-.93-.79a.9.9,0,0,0,.46-.11.65.65,0,0,0,.31-.3v-.72h-.42c-.56,0-.86.19-.9.58v.07a.48.48,0,0,0,.14.35A.59.59,0,0,0,428.82,134Z"/><path class="cls-5" d="M433.27,134a.77.77,0,0,0,.51-.17.6.6,0,0,0,.2-.46H435a1.46,1.46,0,0,1-.23.79,1.68,1.68,0,0,1-.63.55,2,2,0,0,1-.89.2,1.83,1.83,0,0,1-1.43-.58,2.26,2.26,0,0,1-.52-1.59v-.07a2.25,2.25,0,0,1,.52-1.56,1.79,1.79,0,0,1,1.42-.58,1.76,1.76,0,0,1,1.27.45,1.57,1.57,0,0,1,.49,1.2H434a.77.77,0,0,0-.2-.54.77.77,0,0,0-1.11.08,1.66,1.66,0,0,0-.2.94v.11a1.62,1.62,0,0,0,.2.94A.68.68,0,0,0,433.27,134Zm.41.81,0,.22a.63.63,0,0,1,.58.68.78.78,0,0,1-.35.68,1.73,1.73,0,0,1-1,.25l0-.65c.3,0,.44-.11.44-.32a.21.21,0,0,0-.13-.22,1.24,1.24,0,0,0-.42-.08l.12-.56Z"/><path class="cls-5" d="M438.05,134.82a1.22,1.22,0,0,1-.11-.38,1.35,1.35,0,0,1-1.07.46,1.48,1.48,0,0,1-1-.36,1.13,1.13,0,0,1-.41-.91,1.18,1.18,0,0,1,.5-1,2.42,2.42,0,0,1,1.43-.36h.52V132a.68.68,0,0,0-.15-.47.57.57,0,0,0-.47-.18.69.69,0,0,0-.45.14.44.44,0,0,0-.16.37h-1.13a1.16,1.16,0,0,1,.23-.68,1.54,1.54,0,0,1,.64-.49,2.45,2.45,0,0,1,.93-.17,1.86,1.86,0,0,1,1.24.39A1.39,1.39,0,0,1,439,132v1.83a1.93,1.93,0,0,0,.17.91v.07Zm.74-5.95a1,1,0,0,1-.26.74.79.79,0,0,1-.62.3,1.12,1.12,0,0,1-.27,0,1.64,1.64,0,0,1-.32-.15,1.91,1.91,0,0,0-.29-.13.58.58,0,0,0-.19,0,.35.35,0,0,0-.24.1.41.41,0,0,0-.09.28l-.66,0a1.11,1.11,0,0,1,.26-.74.79.79,0,0,1,.62-.3.73.73,0,0,1,.22,0,1.74,1.74,0,0,1,.34.14l.33.14.18,0a.31.31,0,0,0,.24-.1.33.33,0,0,0,.1-.27ZM437.12,134a.9.9,0,0,0,.46-.11.65.65,0,0,0,.31-.3v-.72h-.42c-.56,0-.86.19-.9.58v.07a.48.48,0,0,0,.14.35A.59.59,0,0,0,437.12,134Z"/><path class="cls-5" d="M439.64,132.67a2.49,2.49,0,0,1,.24-1.12,1.8,1.8,0,0,1,.7-.77,2.11,2.11,0,0,1,1.06-.26A1.9,1.9,0,0,1,443,131a2.14,2.14,0,0,1,.61,1.42v.29a2.21,2.21,0,0,1-.54,1.56,2.1,2.1,0,0,1-2.92,0,2.25,2.25,0,0,1-.54-1.59Zm1.13.08a1.58,1.58,0,0,0,.22.92.77.77,0,0,0,.65.32.74.74,0,0,0,.64-.32,1.66,1.66,0,0,0,.23-1,1.53,1.53,0,0,0-.23-.92.73.73,0,0,0-.64-.32.75.75,0,0,0-.65.32A1.76,1.76,0,0,0,440.77,132.75Z"/><path class="cls-5" d="M446,132.68a2.53,2.53,0,0,1,.45-1.58,1.43,1.43,0,0,1,1.21-.58,1.29,1.29,0,0,1,1,.46v-2.16h1.13v6h-1l0-.45a1.33,1.33,0,0,1-1.09.53,1.44,1.44,0,0,1-1.19-.59A2.63,2.63,0,0,1,446,132.68Zm1.13.08a1.63,1.63,0,0,0,.21.91.68.68,0,0,0,.6.32.76.76,0,0,0,.74-.44v-1.67a.74.74,0,0,0-.73-.45C447.4,131.43,447.12,131.88,447.12,132.76Z"/><path class="cls-5" d="M452.54,134.9a2.07,2.07,0,0,1-1.51-.57,2,2,0,0,1-.58-1.52v-.11a2.64,2.64,0,0,1,.24-1.14,1.87,1.87,0,0,1,.7-.77,2,2,0,0,1,1-.27,1.75,1.75,0,0,1,1.36.54,2.21,2.21,0,0,1,.5,1.55v.46h-2.69a1.1,1.1,0,0,0,.33.67,1,1,0,0,0,.7.25,1.24,1.24,0,0,0,1-.47l.55.62a1.75,1.75,0,0,1-.69.56A2.26,2.26,0,0,1,452.54,134.9Zm-.13-3.47a.7.7,0,0,0-.54.22,1.18,1.18,0,0,0-.27.65h1.57v-.09a.82.82,0,0,0-.2-.58A.73.73,0,0,0,452.41,131.43Z"/><path class="cls-5" d="M459.13,131.65l-.41,0a.85.85,0,0,0-.84.43v2.77h-1.13v-4.23h1.07l0,.51a1.1,1.1,0,0,1,1.3-.53Z"/><path class="cls-5" d="M461.54,134.9a2.09,2.09,0,0,1-1.52-.57,2,2,0,0,1-.58-1.52v-.11a2.51,2.51,0,0,1,.25-1.14,1.78,1.78,0,0,1,.69-.77,2,2,0,0,1,1-.27,1.77,1.77,0,0,1,1.37.54,2.26,2.26,0,0,1,.5,1.55v.46h-2.7a1.1,1.1,0,0,0,.33.67,1,1,0,0,0,.7.25,1.22,1.22,0,0,0,1-.47l.56.62a1.75,1.75,0,0,1-.69.56A2.32,2.32,0,0,1,461.54,134.9Zm-.13-3.47a.72.72,0,0,0-.55.22,1.18,1.18,0,0,0-.26.65h1.57v-.09a.87.87,0,0,0-.21-.58A.7.7,0,0,0,461.41,131.43Z"/><path class="cls-5" d="M463.66,132.68a2.6,2.6,0,0,1,.44-1.58,1.45,1.45,0,0,1,1.22-.58,1.29,1.29,0,0,1,1,.46v-2.16h1.13v6h-1l-.05-.45a1.36,1.36,0,0,1-1.09.53,1.44,1.44,0,0,1-1.2-.59A2.63,2.63,0,0,1,463.66,132.68Zm1.13.08a1.63,1.63,0,0,0,.21.91.67.67,0,0,0,.6.32.77.77,0,0,0,.74-.44v-1.67a.75.75,0,0,0-.73-.45C465.06,131.43,464.79,131.88,464.79,132.76Z"/><path class="cls-5" d="M470.21,134.9a2.07,2.07,0,0,1-1.51-.57,2,2,0,0,1-.59-1.52v-.11a2.51,2.51,0,0,1,.25-1.14,1.74,1.74,0,0,1,.7-.77,1.94,1.94,0,0,1,1-.27,1.77,1.77,0,0,1,1.37.54,2.26,2.26,0,0,1,.5,1.55v.46h-2.69a1,1,0,0,0,.33.67,1,1,0,0,0,.69.25,1.22,1.22,0,0,0,1-.47l.56.62a1.75,1.75,0,0,1-.69.56A2.32,2.32,0,0,1,470.21,134.9Zm-.13-3.47a.7.7,0,0,0-.54.22,1.18,1.18,0,0,0-.27.65h1.57v-.09a.86.86,0,0,0-.2-.58A.73.73,0,0,0,470.08,131.43Z"/><path class="cls-4" d="M479,191.67a.78.78,0,0,1-1,.52l-14.79-4.58a.77.77,0,0,1,.46-1.48l14.79,4.57A.77.77,0,0,1,479,191.67Z"/><path class="cls-4" d="M479,191.67a.75.75,0,0,1-.38.46l-4.87,2.57a.78.78,0,1,1-.73-1.37l4.19-2.21L475,186.91a.78.78,0,1,1,1.38-.72l2.58,4.89A.81.81,0,0,1,479,191.67Z"/><path class="cls-4" d="M585.54,127.74a.79.79,0,0,1,1,.37l6.68,14a.78.78,0,0,1-1.41.67l-6.67-14A.78.78,0,0,1,585.54,127.74Z"/><path class="cls-4" d="M585.54,127.74a.78.78,0,0,1,.6,0l5.2,1.84a.77.77,0,1,1-.52,1.46l-4.47-1.57-1.58,4.48a.78.78,0,0,1-1.47-.52l1.85-5.21A.76.76,0,0,1,585.54,127.74Z"/><path class="cls-4" d="M519.08,79a.77.77,0,0,1,1-.49l14.64,5a.78.78,0,0,1,.48,1,.77.77,0,0,1-1,.48L519.56,80A.77.77,0,0,1,519.08,79Z"/><path class="cls-4" d="M519.08,79a.76.76,0,0,1,.39-.45l5-2.41a.77.77,0,1,1,.68,1.39l-4.26,2.08,2.08,4.27a.78.78,0,1,1-1.4.68l-2.42-5A.76.76,0,0,1,519.08,79Z"/><path class="cls-4" d="M559.54,192.52a.77.77,0,0,1-.78.77H543.28a.77.77,0,0,1-.78-.77.78.78,0,0,1,.78-.78h15.48A.78.78,0,0,1,559.54,192.52Z"/><path class="cls-4" d="M559.54,192.52a.83.83,0,0,1-.23.55l-3.9,3.89a.77.77,0,1,1-1.1-1.09l3.35-3.35-3.36-3.37a.77.77,0,0,1,0-1.1.78.78,0,0,1,1.1,0l3.91,3.92A.79.79,0,0,1,559.54,192.52Z"/><path class="cls-6" d="M718,597.63A113.68,113.68,0,0,1,604.31,711.3a58.58,58.58,0,0,1-58.58-58.58c0-32.36,26.23-58.58,59.28-58.58H760.37"/><circle class="cls-7" cx="556.15" cy="659.74" r="40"/><path class="cls-5" d="M540.44,654.5a2.59,2.59,0,0,1-.44,1.57,1.43,1.43,0,0,1-1.2.58,1.28,1.28,0,0,1-1-.44v2h-1.13v-5.85h1l0,.41a1.36,1.36,0,0,1,1.07-.49,1.43,1.43,0,0,1,1.22.58,2.61,2.61,0,0,1,.43,1.59Zm-1.13-.08a1.66,1.66,0,0,0-.21-.91.68.68,0,0,0-.6-.32.73.73,0,0,0-.73.41v1.73a.73.73,0,0,0,.73.41Q539.31,655.74,539.31,654.42Z"/><path class="cls-5" d="M543,656.65a2.09,2.09,0,0,1-1.52-.57,2,2,0,0,1-.58-1.51v-.11a2.45,2.45,0,0,1,.25-1.14,1.75,1.75,0,0,1,.69-.78,2,2,0,0,1,1-.27,1.76,1.76,0,0,1,1.37.55,2.22,2.22,0,0,1,.49,1.55v.46h-2.69a1,1,0,0,0,.33.66,1,1,0,0,0,.7.25,1.19,1.19,0,0,0,1-.47l.56.62a1.66,1.66,0,0,1-.69.56A2.17,2.17,0,0,1,543,656.65Zm-.13-3.47a.72.72,0,0,0-.55.23,1.11,1.11,0,0,0-.26.65h1.57V654a.87.87,0,0,0-.21-.58A.71.71,0,0,0,542.88,653.18Z"/><path class="cls-5" d="M547.59,655.41a.36.36,0,0,0-.2-.33,2.32,2.32,0,0,0-.66-.21c-1-.21-1.51-.64-1.51-1.28a1.16,1.16,0,0,1,.47-.94,1.89,1.89,0,0,1,1.22-.38,2,2,0,0,1,1.29.38,1.19,1.19,0,0,1,.48,1h-1.13a.54.54,0,0,0-.15-.4.66.66,0,0,0-.49-.16.64.64,0,0,0-.44.13.38.38,0,0,0-.16.32.36.36,0,0,0,.18.31,2.16,2.16,0,0,0,.6.2,3.43,3.43,0,0,1,.71.19,1.16,1.16,0,0,1,.89,1.13,1.1,1.1,0,0,1-.49.94,2.14,2.14,0,0,1-1.29.35,2.35,2.35,0,0,1-.94-.18,1.69,1.69,0,0,1-.65-.52,1.26,1.26,0,0,1-.23-.72h1.07a.6.6,0,0,0,.22.46.89.89,0,0,0,.56.16.84.84,0,0,0,.49-.12A.38.38,0,0,0,547.59,655.41Z"/><path class="cls-5" d="M549.16,654.42a2.5,2.5,0,0,1,.45-1.57,1.43,1.43,0,0,1,1.21-.58,1.32,1.32,0,0,1,1.09.52l.07-.44h1v5.85h-1.13v-2a1.28,1.28,0,0,1-1,.44,1.44,1.44,0,0,1-1.21-.58A2.65,2.65,0,0,1,549.16,654.42Zm1.13.08a1.68,1.68,0,0,0,.21.93.7.7,0,0,0,.6.31.75.75,0,0,0,.74-.41v-1.75a.76.76,0,0,0-.73-.4.68.68,0,0,0-.6.32A1.76,1.76,0,0,0,550.29,654.5Z"/><path class="cls-5" d="M556.31,656.15a1.4,1.4,0,0,1-1.16.5,1.28,1.28,0,0,1-1-.39,1.68,1.68,0,0,1-.37-1.14v-2.77h1.13v2.73q0,.66.6.66a.82.82,0,0,0,.79-.39v-3h1.13v4.23h-1.06Z"/><path class="cls-5" d="M558.17,651.26a.54.54,0,0,1,.17-.42.62.62,0,0,1,.46-.17.64.64,0,0,1,.46.17.6.6,0,0,1,0,.84.74.74,0,0,1-.92,0A.54.54,0,0,1,558.17,651.26Zm1.2,5.32h-1.14v-4.23h1.14Z"/><path class="cls-5" d="M562.5,655.41a.36.36,0,0,0-.2-.33,2.32,2.32,0,0,0-.66-.21c-1-.21-1.51-.64-1.51-1.28a1.16,1.16,0,0,1,.47-.94,1.89,1.89,0,0,1,1.22-.38,2,2,0,0,1,1.29.38,1.19,1.19,0,0,1,.48,1h-1.13a.54.54,0,0,0-.15-.4.66.66,0,0,0-.49-.16.64.64,0,0,0-.44.13.38.38,0,0,0-.16.32.36.36,0,0,0,.18.31,2.16,2.16,0,0,0,.6.2,3.43,3.43,0,0,1,.71.19,1.16,1.16,0,0,1,.89,1.13,1.1,1.1,0,0,1-.49.94,2.14,2.14,0,0,1-1.29.35,2.35,2.35,0,0,1-.94-.18,1.58,1.58,0,0,1-.64-.52,1.2,1.2,0,0,1-.24-.72h1.07a.6.6,0,0,0,.22.46.89.89,0,0,0,.56.16.84.84,0,0,0,.49-.12A.38.38,0,0,0,562.5,655.41Z"/><path class="cls-5" d="M566.7,656.58a1.22,1.22,0,0,1-.11-.38,1.39,1.39,0,0,1-1.07.45,1.55,1.55,0,0,1-1-.35,1.18,1.18,0,0,1-.41-.91,1.2,1.2,0,0,1,.5-1A2.5,2.5,0,0,1,566,654h.52v-.24a.72.72,0,0,0-.15-.47.62.62,0,0,0-.48-.17.64.64,0,0,0-.44.13.49.49,0,0,0-.17.38h-1.12a1.13,1.13,0,0,1,.22-.68,1.52,1.52,0,0,1,.64-.49,2.34,2.34,0,0,1,.93-.18,1.84,1.84,0,0,1,1.24.39,1.38,1.38,0,0,1,.46,1.11v1.83a2,2,0,0,0,.17.91v.07Zm-.93-.79a1,1,0,0,0,.46-.11.69.69,0,0,0,.31-.3v-.73h-.42c-.57,0-.87.2-.91.59v.07a.43.43,0,0,0,.15.34A.54.54,0,0,0,565.77,655.79Z"/><path class="cls-5" d="M572.32,656.65a2.09,2.09,0,0,1-1.52-.57,2,2,0,0,1-.58-1.51v-.11a2.58,2.58,0,0,1,.24-1.14,1.84,1.84,0,0,1,.7-.78,2,2,0,0,1,1-.27,1.76,1.76,0,0,1,1.37.55,2.22,2.22,0,0,1,.49,1.55v.46h-2.69a1,1,0,0,0,.33.66,1,1,0,0,0,.7.25,1.22,1.22,0,0,0,1-.47l.55.62a1.57,1.57,0,0,1-.68.56A2.17,2.17,0,0,1,572.32,656.65Zm-.13-3.47a.72.72,0,0,0-.55.23,1.18,1.18,0,0,0-.27.65H573V654a.87.87,0,0,0-.21-.58A.71.71,0,0,0,572.19,653.18Z"/><path class="cls-5" d="M525.83,667.58v-3.4h-.63v-.83h.63V663a1.46,1.46,0,0,1,.41-1.1,1.58,1.58,0,0,1,1.14-.4,2.84,2.84,0,0,1,.58.08l0,.88a1.09,1.09,0,0,0-.34,0c-.42,0-.64.2-.64.6v.34h.84v.83H527v3.4Z"/><path class="cls-5" d="M528.13,665.42a2.43,2.43,0,0,1,.25-1.12,1.81,1.81,0,0,1,.69-.76,2.06,2.06,0,0,1,1.06-.27,1.93,1.93,0,0,1,1.4.53,2.07,2.07,0,0,1,.6,1.42v.29a2.19,2.19,0,0,1-.55,1.56,1.87,1.87,0,0,1-1.45.58,1.89,1.89,0,0,1-1.46-.58,2.26,2.26,0,0,1-.55-1.59Zm1.13.08a1.62,1.62,0,0,0,.23.93.83.83,0,0,0,1.29,0,1.77,1.77,0,0,0,.23-1,1.57,1.57,0,0,0-.23-.91.75.75,0,0,0-.65-.33.74.74,0,0,0-.64.32A1.78,1.78,0,0,0,529.26,665.5Z"/><path class="cls-5" d="M535.13,664.41l-.41,0a.82.82,0,0,0-.84.43v2.77h-1.13v-4.23h1.07l0,.5a1.06,1.06,0,0,1,.94-.58,1.29,1.29,0,0,1,.35.05Z"/><path class="cls-5" d="M536.65,663.35l0,.47a1.52,1.52,0,0,1,1.22-.55,1.13,1.13,0,0,1,1.12.65,1.46,1.46,0,0,1,1.27-.65,1.27,1.27,0,0,1,1,.4,1.82,1.82,0,0,1,.34,1.21v2.7h-1.13v-2.7a.81.81,0,0,0-.14-.52.64.64,0,0,0-.5-.17.7.7,0,0,0-.7.48v2.91h-1.13v-2.69a.85.85,0,0,0-.14-.54.64.64,0,0,0-.5-.16.72.72,0,0,0-.69.4v3h-1.13v-4.23Z"/><path class="cls-5" d="M544.89,667.58a1.21,1.21,0,0,1-.12-.38,1.37,1.37,0,0,1-1.06.45,1.53,1.53,0,0,1-1-.35,1.15,1.15,0,0,1-.41-.91,1.17,1.17,0,0,1,.5-1,2.5,2.5,0,0,1,1.44-.37h.52v-.24a.67.67,0,0,0-.16-.47.6.6,0,0,0-.47-.17.69.69,0,0,0-.45.13.48.48,0,0,0-.16.38h-1.13a1.14,1.14,0,0,1,.23-.68,1.46,1.46,0,0,1,.64-.49,2.34,2.34,0,0,1,.93-.18,1.86,1.86,0,0,1,1.24.39,1.41,1.41,0,0,1,.46,1.11v1.83a2,2,0,0,0,.17.91v.07Zm-.94-.79a1,1,0,0,0,.46-.11.72.72,0,0,0,.32-.3v-.73h-.43c-.56,0-.86.2-.9.59v.07a.43.43,0,0,0,.15.34A.52.52,0,0,0,544,666.79Z"/><path class="cls-5" d="M548.4,666.74a.72.72,0,0,0,.51-.17.56.56,0,0,0,.2-.45h1.06a1.45,1.45,0,0,1-.23.78,1.62,1.62,0,0,1-.63.56,2,2,0,0,1-.89.19,1.85,1.85,0,0,1-1.43-.57,2.27,2.27,0,0,1-.52-1.59v-.08a2.25,2.25,0,0,1,.52-1.56,1.84,1.84,0,0,1,1.42-.58,1.8,1.8,0,0,1,1.28.45,1.57,1.57,0,0,1,.48,1.2h-1.06a.74.74,0,0,0-.2-.53.66.66,0,0,0-.51-.21.68.68,0,0,0-.6.29,1.69,1.69,0,0,0-.2.93v.12a1.62,1.62,0,0,0,.2.94A.67.67,0,0,0,548.4,666.74Zm.41.81,0,.23a.64.64,0,0,1,.59.68.8.8,0,0,1-.36.68,1.79,1.79,0,0,1-1,.25l0-.66c.29,0,.43-.1.43-.31a.23.23,0,0,0-.13-.23,1.19,1.19,0,0,0-.42-.08l.12-.56Z"/><path class="cls-5" d="M553.19,667.58a1.21,1.21,0,0,1-.12-.38,1.37,1.37,0,0,1-1.06.45,1.53,1.53,0,0,1-1-.35,1.15,1.15,0,0,1-.41-.91,1.2,1.2,0,0,1,.5-1,2.5,2.5,0,0,1,1.44-.37H553v-.24a.72.72,0,0,0-.15-.47.62.62,0,0,0-.48-.17.69.69,0,0,0-.45.13.51.51,0,0,0-.16.38h-1.13a1.14,1.14,0,0,1,.23-.68,1.46,1.46,0,0,1,.64-.49,2.34,2.34,0,0,1,.93-.18,1.86,1.86,0,0,1,1.24.39,1.38,1.38,0,0,1,.46,1.11v1.83a2,2,0,0,0,.17.91v.07Zm.73-6a1.11,1.11,0,0,1-.25.74.82.82,0,0,1-.63.3.77.77,0,0,1-.27,0,1.8,1.8,0,0,1-.31-.14,1.46,1.46,0,0,0-.3-.13.58.58,0,0,0-.19,0,.29.29,0,0,0-.23.1.36.36,0,0,0-.1.28l-.66,0a1.11,1.11,0,0,1,.26-.74.81.81,0,0,1,.63-.31.83.83,0,0,1,.22,0,2,2,0,0,1,.33.15,2.06,2.06,0,0,0,.33.13.58.58,0,0,0,.19,0,.33.33,0,0,0,.23-.1.36.36,0,0,0,.1-.28Zm-1.67,5.16a1,1,0,0,0,.46-.11.72.72,0,0,0,.32-.3v-.73h-.43c-.56,0-.86.2-.9.59v.07a.43.43,0,0,0,.15.34A.53.53,0,0,0,552.25,666.79Z"/><path class="cls-5" d="M554.77,665.42a2.56,2.56,0,0,1,.24-1.12,1.84,1.84,0,0,1,.7-.76,2,2,0,0,1,1.06-.27,1.91,1.91,0,0,1,1.39.53,2.08,2.08,0,0,1,.61,1.42v.29a2.23,2.23,0,0,1-.55,1.56,2.12,2.12,0,0,1-2.91,0,2.21,2.21,0,0,1-.55-1.59Zm1.13.08a1.62,1.62,0,0,0,.23.93.74.74,0,0,0,.65.31.76.76,0,0,0,.64-.31,1.77,1.77,0,0,0,.23-1,1.57,1.57,0,0,0-.23-.91.75.75,0,0,0-.65-.33.74.74,0,0,0-.64.32A1.78,1.78,0,0,0,555.9,665.5Z"/><path class="cls-5" d="M561.13,665.43a2.5,2.5,0,0,1,.44-1.57,1.45,1.45,0,0,1,1.21-.59,1.32,1.32,0,0,1,1,.46v-2.15h1.14v6h-1l-.06-.45a1.32,1.32,0,0,1-1.08.52,1.43,1.43,0,0,1-1.2-.58A2.64,2.64,0,0,1,561.13,665.43Zm1.13.09a1.66,1.66,0,0,0,.2.91.67.67,0,0,0,.6.31.74.74,0,0,0,.74-.44v-1.67a.75.75,0,0,0-.73-.44C562.53,664.19,562.26,664.63,562.26,665.52Z"/><path class="cls-5" d="M567.68,667.65a2.09,2.09,0,0,1-1.52-.57,2,2,0,0,1-.58-1.51v-.11a2.58,2.58,0,0,1,.24-1.14,1.84,1.84,0,0,1,.7-.78,2,2,0,0,1,1-.27,1.76,1.76,0,0,1,1.37.55,2.22,2.22,0,0,1,.49,1.55v.46h-2.69a1,1,0,0,0,.33.66,1,1,0,0,0,.7.25,1.22,1.22,0,0,0,1-.47l.55.62a1.57,1.57,0,0,1-.68.56A2.17,2.17,0,0,1,567.68,667.65Zm-.13-3.47a.72.72,0,0,0-.55.23,1.18,1.18,0,0,0-.27.65h1.57V665a.82.82,0,0,0-.2-.58A.71.71,0,0,0,567.55,664.18Z"/><path class="cls-5" d="M574.26,664.41l-.4,0a.82.82,0,0,0-.84.43v2.77h-1.13v-4.23H573l0,.5a1.07,1.07,0,0,1,.95-.58,1.34,1.34,0,0,1,.35.05Z"/><path class="cls-5" d="M576.67,667.65a2.07,2.07,0,0,1-1.51-.57,2,2,0,0,1-.59-1.51v-.11a2.45,2.45,0,0,1,.25-1.14,1.72,1.72,0,0,1,.7-.78,1.94,1.94,0,0,1,1-.27,1.74,1.74,0,0,1,1.37.55,2.22,2.22,0,0,1,.5,1.55v.46h-2.69a1,1,0,0,0,1,.91,1.19,1.19,0,0,0,1-.47l.56.62a1.66,1.66,0,0,1-.69.56A2.17,2.17,0,0,1,576.67,667.65Zm-.13-3.47a.71.71,0,0,0-.54.23,1.18,1.18,0,0,0-.27.65h1.57V665a.86.86,0,0,0-.2-.58A.73.73,0,0,0,576.54,664.18Z"/><path class="cls-5" d="M578.79,665.43a2.5,2.5,0,0,1,.45-1.57,1.44,1.44,0,0,1,1.21-.59,1.32,1.32,0,0,1,1,.46v-2.15h1.13v6h-1l-.05-.45a1.34,1.34,0,0,1-1.09.52,1.43,1.43,0,0,1-1.2-.58A2.64,2.64,0,0,1,578.79,665.43Zm1.13.09a1.66,1.66,0,0,0,.21.91.67.67,0,0,0,.6.31.75.75,0,0,0,.74-.44v-1.67a.75.75,0,0,0-.73-.44C580.19,664.19,579.92,664.63,579.92,665.52Z"/><path class="cls-5" d="M585.34,667.65a2.07,2.07,0,0,1-1.51-.57,2,2,0,0,1-.59-1.51v-.11a2.58,2.58,0,0,1,.25-1.14,1.77,1.77,0,0,1,.7-.78,2,2,0,0,1,1-.27,1.74,1.74,0,0,1,1.36.55,2.22,2.22,0,0,1,.5,1.55v.46h-2.69a1,1,0,0,0,.33.66,1,1,0,0,0,.7.25,1.22,1.22,0,0,0,1-.47l.55.62a1.66,1.66,0,0,1-.69.56A2.17,2.17,0,0,1,585.34,667.65Zm-.13-3.47a.71.71,0,0,0-.54.23,1.18,1.18,0,0,0-.27.65H586V665a.82.82,0,0,0-.2-.58A.73.73,0,0,0,585.21,664.18Z"/><circle class="cls-8" cx="1346.17" cy="143.14" r="7"/><text class="cls-9" transform="translate(1341.72 145.87)">SD</text><circle class="cls-10" cx="834.59" cy="143.14" r="7"/><text class="cls-9" transform="translate(830.03 145.81) rotate(-0.51)">PP</text><line class="cls-3" x1="602.97" y1="192.59" x2="1473.56" y2="192.59"/><line class="cls-3" x1="1101.61" y1="192.63" x2="1742.95" y2="192.63"/><path class="cls-3" d="M268.78,428.71H485.87c64.7,0,118.09-51.46,118.09-116.16v-72.5L603,183.43"/><path class="cls-3" d="M61.65,285.38v59.23a84.1,84.1,0,0,0,84.1,84.1H512.36"/><line class="cls-11" x1="247.7" y1="261.88" x2="20.47" y2="261.88"/><circle class="cls-12" cx="61.39" cy="261.87" r="37.5"/><path class="cls-13" d="M61.39,226.88a35,35,0,1,1-35,35,35,35,0,0,1,35-35m0-5a40,40,0,1,0,40,40,40,40,0,0,0-40-40Z"/><circle class="cls-4" cx="428.41" cy="428.75" r="40"/><circle class="cls-4" cx="307.01" cy="428.75" r="40"/><circle class="cls-4" cx="186.63" cy="428.75" r="40"/><circle class="cls-4" cx="1102.85" cy="191.79" r="40"/><circle class="cls-4" cx="1358.32" cy="191.79" r="40"/><circle class="cls-4" cx="1487.75" cy="191.79" r="40"/><circle class="cls-4" cx="1615.24" cy="191.79" r="40"/><circle class="cls-12" cx="1742.95" cy="191.79" r="37.5"/><path class="cls-13" d="M1743,156.79a35,35,0,1,1-35,35,35,35,0,0,1,35-35m0-5a40,40,0,1,0,40,40,40,40,0,0,0-40-40Z"/><path class="cls-6" d="M718.12,584.28V525.46a83.23,83.23,0,0,0-83.23-83.23H415.2"/><path class="cls-6" d="M96.73,585.56V526.33a84.1,84.1,0,0,1,84.11-84.1H488.67"/><circle class="cls-7" cx="419.96" cy="442.23" r="40"/><circle class="cls-7" cx="298.56" cy="442.1" r="40"/><circle class="cls-7" cx="178.16" cy="442.1" r="40"/><line class="cls-11" x1="407.25" y1="276.55" x2="624.32" y2="276.55"/><text class="cls-14" transform="translate(407.25 270.63)">APROFUNDAMENTO</text><line class="cls-11" x1="1051.06" y1="95.16" x2="1051.06" y2="214.5"/><text class="cls-14" transform="translate(1057.11 103.62)">MONITORAMENTO</text><path class="cls-15" d="M177.41,272.18H176v3.12h-1.76v-8.53h3.17a3.56,3.56,0,0,1,2.33.68,2.3,2.3,0,0,1,.82,1.9,2.66,2.66,0,0,1-.37,1.46,2.69,2.69,0,0,1-1.15.92l1.85,3.49v.08H179Zm-1.4-1.42h1.42a1.46,1.46,0,0,0,1-.34,1.2,1.2,0,0,0,.37-.93,1.29,1.29,0,0,0-.35-.95,1.43,1.43,0,0,0-1.05-.34H176Z"/><path class="cls-15" d="M187,271.61h-3.37v2.28h4v1.41h-5.72v-8.53h5.71v1.43h-4v2H187Z"/><path class="cls-15" d="M188.66,275.3v-8.53h2.62a4,4,0,0,1,2,.51,3.55,3.55,0,0,1,1.38,1.44,4.34,4.34,0,0,1,.5,2.12v.4a4.41,4.41,0,0,1-.49,2.11,3.42,3.42,0,0,1-1.38,1.44,4,4,0,0,1-2,.51Zm1.76-7.1v5.69h.85a1.9,1.9,0,0,0,1.57-.67,3,3,0,0,0,.56-1.93v-.45a3.07,3.07,0,0,0-.54-2,1.89,1.89,0,0,0-1.58-.67Z"/><path class="cls-15" d="M201.59,271.61h-3.37v2.28h4v1.41h-5.72v-8.53h5.71v1.43h-3.95v2h3.37Z"/><path class="cls-15" d="M208.34,271.82H205v3.48h-1.76v-8.53h5.55v1.43H205v2.2h3.37Z"/><path class="cls-15" d="M211.65,275.3h-1.76v-8.53h1.76Z"/><path class="cls-15" d="M220.22,275.3h-1.76L215,269.69v5.61h-1.76v-8.53H215l3.43,5.63v-5.63h1.75Z"/><path class="cls-15" d="M223.62,275.3h-1.75v-8.53h1.75Z"/><path class="cls-15" d="M232,272.46a3,3,0,0,1-1,2.17,3.54,3.54,0,0,1-2.41.79,3.24,3.24,0,0,1-2.59-1.1,4.59,4.59,0,0,1-.94-3v-.52a5.13,5.13,0,0,1,.44-2.17,3.3,3.3,0,0,1,1.24-1.44,3.85,3.85,0,0,1,4.25.3,3.2,3.2,0,0,1,1,2.22H230.2a1.73,1.73,0,0,0-.46-1.2,1.68,1.68,0,0,0-1.2-.37,1.5,1.5,0,0,0-1.32.63,3.47,3.47,0,0,0-.44,1.95v.64a3.81,3.81,0,0,0,.41,2,1.48,1.48,0,0,0,1.33.63,1.72,1.72,0,0,0,1.21-.37,1.67,1.67,0,0,0,.46-1.15Zm-2.79,2.81-.06.34a.93.93,0,0,1,.87,1,1.17,1.17,0,0,1-.53,1,2.61,2.61,0,0,1-1.51.38l0-1c.44,0,.65-.16.65-.48a.33.33,0,0,0-.19-.33,1.53,1.53,0,0,0-.64-.12l.18-.84Z"/><path class="cls-15" d="M237.92,273.54h-3.08l-.59,1.76h-1.87l3.18-8.53h1.63l3.19,8.53h-1.87Zm.68-9a1.64,1.64,0,0,1-.39,1.11,1.2,1.2,0,0,1-.94.45,1.62,1.62,0,0,1-.4-.05,3.47,3.47,0,0,1-.47-.22,3.2,3.2,0,0,0-.44-.2,1.36,1.36,0,0,0-.3,0,.45.45,0,0,0-.34.15.57.57,0,0,0-.15.42l-1-.06a1.68,1.68,0,0,1,.38-1.11,1.18,1.18,0,0,1,.94-.46,1.14,1.14,0,0,1,.33.05,3.46,3.46,0,0,1,.51.21,4.9,4.9,0,0,0,.49.21,1.27,1.27,0,0,0,.28,0,.52.52,0,0,0,.35-.14.57.57,0,0,0,.15-.42Zm-3.29,7.55h2.14l-1.08-3.19Z"/><path class="cls-15" d="M248.19,271.23a5.1,5.1,0,0,1-.45,2.21,3.36,3.36,0,0,1-1.27,1.46,3.51,3.51,0,0,1-1.91.52,3.57,3.57,0,0,1-1.89-.51,3.47,3.47,0,0,1-1.29-1.46,5,5,0,0,1-.46-2.17v-.42a5.18,5.18,0,0,1,.45-2.22,3.38,3.38,0,0,1,1.29-1.47,3.71,3.71,0,0,1,3.79,0,3.36,3.36,0,0,1,1.28,1.47,5.13,5.13,0,0,1,.46,2.21Zm-1.79-.39a3.62,3.62,0,0,0-.48-2,1.7,1.7,0,0,0-2.73,0,3.48,3.48,0,0,0-.49,2v.42a3.65,3.65,0,0,0,.48,2,1.56,1.56,0,0,0,1.38.72,1.53,1.53,0,0,0,1.36-.7,3.52,3.52,0,0,0,.48-2Z"/><path class="cls-15" d="M183.57,290.3v-8.53h2.62a4,4,0,0,1,2,.51,3.55,3.55,0,0,1,1.38,1.44,4.45,4.45,0,0,1,.5,2.12v.4a4.41,4.41,0,0,1-.49,2.11,3.55,3.55,0,0,1-1.38,1.44,4,4,0,0,1-2,.51Zm1.76-7.1v5.69h.85a1.9,1.9,0,0,0,1.57-.67,3,3,0,0,0,.56-1.93v-.45a3.07,3.07,0,0,0-.54-2,1.9,1.9,0,0,0-1.58-.67Z"/><path class="cls-15" d="M196.5,286.61h-3.38v2.28h4v1.41h-5.72v-8.53h5.7v1.43h-3.95v2h3.38Z"/><path class="cls-15" d="M201.11,290.3v-8.53h2.62a4,4,0,0,1,2,.51,3.57,3.57,0,0,1,1.39,1.44,4.45,4.45,0,0,1,.5,2.12v.4a4.53,4.53,0,0,1-.49,2.11,3.55,3.55,0,0,1-1.38,1.44,4,4,0,0,1-2,.51Zm1.75-7.1v5.69h.85a1.9,1.9,0,0,0,1.58-.67,3.1,3.1,0,0,0,.56-1.93v-.45a3.07,3.07,0,0,0-.54-2,1.9,1.9,0,0,0-1.58-.67Z"/><path class="cls-15" d="M214,286.61h-3.38v2.28h4v1.41H208.9v-8.53h5.71v1.43h-4v2H214Z"/><path class="cls-15" d="M220.08,288.06a.91.91,0,0,0-.35-.76,4.45,4.45,0,0,0-1.27-.56,8.58,8.58,0,0,1-1.45-.59,2.35,2.35,0,0,1-1.45-2.11,2,2,0,0,1,.39-1.23,2.45,2.45,0,0,1,1.12-.85,4.28,4.28,0,0,1,1.64-.31,3.71,3.71,0,0,1,1.63.34,2.67,2.67,0,0,1,1.11.93,2.47,2.47,0,0,1,.39,1.37h-1.76a1.14,1.14,0,0,0-.37-.91,1.48,1.48,0,0,0-1-.33,1.61,1.61,0,0,0-1,.28.85.85,0,0,0-.36.71.83.83,0,0,0,.42.7,4.54,4.54,0,0,0,1.23.53,5.3,5.3,0,0,1,2.19,1.12,2.24,2.24,0,0,1,.68,1.66,2.05,2.05,0,0,1-.84,1.74,3.64,3.64,0,0,1-2.25.63,4.38,4.38,0,0,1-1.8-.36,2.85,2.85,0,0,1-1.23-1,2.55,2.55,0,0,1-.42-1.45h1.76c0,.94.56,1.41,1.69,1.41a1.65,1.65,0,0,0,1-.25A.85.85,0,0,0,220.08,288.06Z"/><path class="cls-15" d="M227.85,288.54h-3.08l-.59,1.76h-1.87l3.18-8.53h1.63l3.19,8.53h-1.87Zm-2.61-1.42h2.13l-1.07-3.19Z"/><path class="cls-15" d="M236.24,286.82h-3.38v3.48h-1.75v-8.53h5.55v1.43h-3.8v2.2h3.38Z"/><path class="cls-15" d="M239.55,290.3h-1.76v-8.53h1.76Z"/><path class="cls-15" d="M248.19,286.23a5.1,5.1,0,0,1-.45,2.21,3.36,3.36,0,0,1-1.27,1.46,3.51,3.51,0,0,1-1.91.52,3.57,3.57,0,0,1-1.89-.51,3.47,3.47,0,0,1-1.29-1.46,5,5,0,0,1-.46-2.17v-.42a5.18,5.18,0,0,1,.45-2.22,3.38,3.38,0,0,1,1.29-1.47,3.71,3.71,0,0,1,3.79,0,3.36,3.36,0,0,1,1.28,1.47,5.13,5.13,0,0,1,.46,2.21Zm-1.79-.39a3.62,3.62,0,0,0-.48-2,1.7,1.7,0,0,0-2.73,0,3.48,3.48,0,0,0-.49,2v.42a3.65,3.65,0,0,0,.48,2,1.56,1.56,0,0,0,1.38.72,1.53,1.53,0,0,0,1.36-.7,3.52,3.52,0,0,0,.48-2Z"/><text class="cls-16" transform="translate(210.58 566.01)">REDEFINIÇÃO<tspan x="9.32" y="15">DE DESAFIO</tspan></text><path class="cls-17" d="M246,442.23a.78.78,0,0,1-.78.78H229.78a.78.78,0,0,1,0-1.56h15.48A.78.78,0,0,1,246,442.23Z"/><path class="cls-17" d="M246,442.23a.75.75,0,0,1-.23.55l-3.89,3.9a.78.78,0,0,1-1.1,0,.77.77,0,0,1,0-1.1l3.35-3.35-3.37-3.36a.78.78,0,0,1,1.1-1.1l3.91,3.91A.78.78,0,0,1,246,442.23Z"/><path class="cls-17" d="M98,516a.78.78,0,0,1,.78.78v15.48a.78.78,0,1,1-1.56,0V516.8A.78.78,0,0,1,98,516Z"/><path class="cls-17" d="M98,516a.76.76,0,0,1,.55.23l3.9,3.9a.78.78,0,1,1-1.1,1.1L98,517.9l-3.36,3.36a.78.78,0,0,1-1.1,0,.78.78,0,0,1,0-1.1l3.91-3.91A.76.76,0,0,1,98,516Z"/><path class="cls-17" d="M124.44,465.5a.78.78,0,0,1,0,1.1l-10.54,11.34a.78.78,0,0,1-1.14-1.06l10.54-11.34A.78.78,0,0,1,124.44,465.5Z"/><path class="cls-17" d="M124.44,465.5a.73.73,0,0,1,.24.54l.21,5.51a.78.78,0,0,1-1.56.06l-.17-4.74-4.75.18a.79.79,0,0,1-.81-.75.77.77,0,0,1,.75-.8l5.53-.21A.8.8,0,0,1,124.44,465.5Z"/><path class="cls-17" d="M701.28,476.65a.78.78,0,0,1-1.09-.11l-9.8-12a.78.78,0,0,1,1.2-1l9.8,12A.78.78,0,0,1,701.28,476.65Z"/><path class="cls-17" d="M701.28,476.65a.78.78,0,0,1-.57.17l-5.48-.55a.78.78,0,0,1-.7-.85.77.77,0,0,1,.85-.69l4.72.47.47-4.73a.78.78,0,0,1,.85-.7.76.76,0,0,1,.69.85l-.55,5.5A.77.77,0,0,1,701.28,476.65Z"/><path class="cls-17" d="M370.11,442.23a.78.78,0,0,1-.78.78H353.85a.78.78,0,1,1,0-1.56h15.48A.78.78,0,0,1,370.11,442.23Z"/><path class="cls-17" d="M370.11,442.23a.75.75,0,0,1-.23.55l-3.9,3.9a.78.78,0,0,1-1.1-1.1l3.35-3.35-3.36-3.36a.78.78,0,0,1,1.1-1.1l3.91,3.91A.78.78,0,0,1,370.11,442.23Z"/><path class="cls-17" d="M505.3,442.23a.78.78,0,0,1-.78.78H489a.78.78,0,1,1,0-1.56h15.48A.78.78,0,0,1,505.3,442.23Z"/><path class="cls-17" d="M505.3,442.23a.75.75,0,0,1-.23.55l-3.9,3.9a.78.78,0,0,1-1.1-1.1l3.35-3.35-3.36-3.36a.78.78,0,0,1,1.1-1.1l3.91,3.91A.78.78,0,0,1,505.3,442.23Z"/><path class="cls-17" d="M577.49,442.23a.78.78,0,0,1-.78.78H561.23a.78.78,0,1,1,0-1.56h15.48A.78.78,0,0,1,577.49,442.23Z"/><path class="cls-17" d="M577.49,442.23a.75.75,0,0,1-.23.55l-3.9,3.9a.78.78,0,1,1-1.1-1.1l3.35-3.35-3.36-3.36a.78.78,0,1,1,1.1-1.1l3.91,3.91A.78.78,0,0,1,577.49,442.23Z"/><path class="cls-17" d="M644.35,442.23a.78.78,0,0,1-.78.78H628.09a.78.78,0,1,1,0-1.56h15.48A.78.78,0,0,1,644.35,442.23Z"/><path class="cls-17" d="M644.35,442.23a.75.75,0,0,1-.23.55l-3.9,3.9a.78.78,0,0,1-1.1-1.1l3.35-3.35-3.36-3.36a.78.78,0,0,1,1.1-1.1l3.91,3.91A.78.78,0,0,1,644.35,442.23Z"/><circle class="cls-17" cx="97.87" cy="585.56" r="35"/><path class="cls-18" d="M97.87,553.06a32.5,32.5,0,1,1-32.5,32.5,32.54,32.54,0,0,1,32.5-32.5m0-5a37.5,37.5,0,1,0,37.5,37.5,37.5,37.5,0,0,0-37.5-37.5Z"/><line class="cls-19" x1="285.79" y1="585.56" x2="140.46" y2="585.56"/><text class="cls-14" transform="translate(1434.95 103.62)">COMUNICAÇÃO</text><line class="cls-11" x1="1428.95" y1="95.16" x2="1428.95" y2="213.32"/><circle class="cls-20" cx="1446.73" cy="162.63" r="7"/><text class="cls-9" transform="translate(1442.13 165.24)">CC</text><circle class="cls-20" cx="1574.3" cy="162.63" r="7"/><text class="cls-9" transform="translate(1569.7 165.24)">CC</text><circle class="cls-21" cx="1061.28" cy="162.63" r="7"/><text class="cls-9" transform="translate(1056.72 165.36)">CD</text><circle class="cls-18" cx="1317.34" cy="162.67" r="7"/><text class="cls-9" transform="translate(1315.08 165.34)">D</text><circle class="cls-21" cx="1329.95" cy="150.01" r="7"/><text class="cls-9" transform="translate(1325.39 152.74)">CD</text><path class="cls-4" d="M655.86,192.59a.77.77,0,0,1-.77.78H639.61a.78.78,0,0,1-.78-.78.77.77,0,0,1,.78-.77h15.48A.76.76,0,0,1,655.86,192.59Z"/><path class="cls-4" d="M655.86,192.59a.78.78,0,0,1-.22.55l-3.9,3.9a.78.78,0,0,1-1.1,0,.77.77,0,0,1,0-1.1l3.35-3.35-3.37-3.36a.78.78,0,0,1,1.1-1.1l3.92,3.91A.82.82,0,0,1,655.86,192.59Z"/><path class="cls-4" d="M61.43,331.41a.77.77,0,0,1-.77-.78V315.15a.76.76,0,0,1,.77-.77.77.77,0,0,1,.78.77v15.48A.78.78,0,0,1,61.43,331.41Z"/><path class="cls-4" d="M61.43,331.41a.78.78,0,0,1-.55-.23L57,327.28a.77.77,0,0,1,1.09-1.1l3.35,3.35,3.37-3.36a.78.78,0,0,1,1.1,1.1L62,331.18A.75.75,0,0,1,61.43,331.41Z"/><path class="cls-4" d="M1175.51,192.64a.78.78,0,0,1-.78.77h-15.48a.78.78,0,1,1,0-1.55h15.48A.78.78,0,0,1,1175.51,192.64Z"/><path class="cls-4" d="M1175.51,192.64a.78.78,0,0,1-.23.54l-3.9,3.9a.77.77,0,0,1-1.1,0,.78.78,0,0,1,0-1.1l3.35-3.34-3.36-3.37a.77.77,0,0,1,0-1.1.78.78,0,0,1,1.1,0l3.91,3.92A.79.79,0,0,1,1175.51,192.64Z"/><path class="cls-4" d="M1303.24,192.64a.77.77,0,0,1-.77.77H1287a.78.78,0,1,1,0-1.55h15.48A.77.77,0,0,1,1303.24,192.64Z"/><path class="cls-4" d="M1303.24,192.64a.77.77,0,0,1-.22.54l-3.9,3.9a.78.78,0,0,1-1.1-1.1l3.35-3.34-3.37-3.37a.78.78,0,0,1,1.1-1.1l3.92,3.92A.78.78,0,0,1,1303.24,192.64Z"/><path class="cls-4" d="M1422.15,192.64a.77.77,0,0,1-.77.77H1405.9a.78.78,0,1,1,0-1.55h15.48A.77.77,0,0,1,1422.15,192.64Z"/><path class="cls-4" d="M1422.15,192.64a.77.77,0,0,1-.22.54l-3.9,3.9a.78.78,0,0,1-1.1-1.1l3.35-3.34-3.37-3.37a.78.78,0,0,1,1.1-1.1l3.92,3.92A.78.78,0,0,1,1422.15,192.64Z"/><path class="cls-4" d="M790.58,192.49a.78.78,0,0,1-.78.78H774.32a.78.78,0,1,1,0-1.56H789.8A.78.78,0,0,1,790.58,192.49Z"/><path class="cls-4" d="M790.58,192.49a.76.76,0,0,1-.23.55l-3.9,3.9a.78.78,0,0,1-1.1-1.1l3.35-3.35-3.36-3.36a.78.78,0,0,1,1.1-1.1l3.91,3.91A.76.76,0,0,1,790.58,192.49Z"/><path class="cls-4" d="M919.18,192.49a.78.78,0,0,1-.78.78H902.92a.78.78,0,1,1,0-1.56H918.4A.78.78,0,0,1,919.18,192.49Z"/><path class="cls-4" d="M919.18,192.49a.81.81,0,0,1-.23.55l-3.9,3.9a.78.78,0,0,1-1.1-1.1l3.35-3.35-3.36-3.36a.77.77,0,0,1,0-1.1.78.78,0,0,1,1.1,0l3.91,3.91A.81.81,0,0,1,919.18,192.49Z"/><path class="cls-4" d="M1041.48,192.49a.78.78,0,0,1-.78.78h-15.48a.78.78,0,1,1,0-1.56h15.48A.78.78,0,0,1,1041.48,192.49Z"/><path class="cls-4" d="M1041.48,192.49a.76.76,0,0,1-.23.55l-3.9,3.9a.78.78,0,0,1-1.1-1.1l3.35-3.35-3.36-3.36a.78.78,0,1,1,1.1-1.1l3.91,3.91A.76.76,0,0,1,1041.48,192.49Z"/><path class="cls-4" d="M1687.61,192.64a.78.78,0,0,1-.77.77h-15.48a.78.78,0,1,1,0-1.55h15.48A.78.78,0,0,1,1687.61,192.64Z"/><path class="cls-4" d="M1687.61,192.64a.77.77,0,0,1-.22.54l-3.9,3.9a.78.78,0,0,1-1.1-1.1l3.35-3.34-3.37-3.37a.78.78,0,0,1,1.1-1.1l3.92,3.92A.78.78,0,0,1,1687.61,192.64Z"/><path class="cls-4" d="M1560,192.64a.77.77,0,0,1-.77.77h-15.48a.78.78,0,1,1,0-1.55h15.48A.77.77,0,0,1,1560,192.64Z"/><path class="cls-4" d="M1560,192.64a.77.77,0,0,1-.22.54l-3.9,3.9a.78.78,0,0,1-1.1-1.1l3.35-3.34-3.36-3.37a.77.77,0,1,1,1.09-1.1l3.92,3.92A.78.78,0,0,1,1560,192.64Z"/><path class="cls-4" d="M73.8,388.67a.79.79,0,0,1-1-.39l-6.41-14.09a.78.78,0,0,1,.39-1,.77.77,0,0,1,1,.39l6.41,14.09A.79.79,0,0,1,73.8,388.67Z"/><path class="cls-4" d="M73.8,388.67a.8.8,0,0,1-.59,0L68,386.75a.78.78,0,0,1,.55-1.45L73,387l1.67-4.46a.78.78,0,0,1,1.46.55l-1.94,5.18A.84.84,0,0,1,73.8,388.67Z"/><path class="cls-4" d="M116.52,423.9a.78.78,0,0,1-1,.33l-13.74-7.14a.79.79,0,0,1-.33-1,.78.78,0,0,1,1-.33l13.74,7.14A.78.78,0,0,1,116.52,423.9Z"/><path class="cls-4" d="M116.52,423.9a.79.79,0,0,1-.46.38l-5.25,1.66a.78.78,0,0,1-1-.51.77.77,0,0,1,.51-1l4.51-1.43-1.43-4.53a.78.78,0,0,1,.51-1,.77.77,0,0,1,1,.51l1.67,5.27A.83.83,0,0,1,116.52,423.9Z"/><path class="cls-22" d="M1754.68,198.81v3c0,2.87-5.25,5.19-11.73,5.19s-11.74-2.32-11.74-5.19v-3a2.58,2.58,0,0,0,.43,1.39.41.41,0,0,0,0,.09h0c1.45,2.15,5.94,3.71,11.26,3.71s9.81-1.56,11.25-3.71h0l.06-.1h0A2.53,2.53,0,0,0,1754.68,198.81Z"/><path class="cls-23" d="M1751.41,186.1a1.53,1.53,0,0,0,0-.3h0a56.71,56.71,0,0,1,2.67,11.37,28.6,28.6,0,0,1,.18,3l-.06.1h0c-1.44,2.15-5.94,3.71-11.25,3.71s-9.81-1.56-11.26-3.71h0a.41.41,0,0,1,0-.09h0a28.63,28.63,0,0,1,.18-3,57.3,57.3,0,0,1,2.67-11.36h0a1.45,1.45,0,0,0,0,.3c0,2,3.88,3.62,8.47,3.62S1751.41,188.1,1751.41,186.1Z"/><path class="cls-23" d="M1751.38,185.8a1.53,1.53,0,0,1,0,.3c0,2-3.87,3.62-8.46,3.62s-8.47-1.62-8.47-3.62a1.45,1.45,0,0,1,0-.3c.37-1.86,4.08-3.33,8.44-3.33S1751,183.94,1751.38,185.8Z"/><path class="cls-24" d="M1731.21,201.77c0,2.87,5.25,5.19,11.74,5.19s11.73-2.32,11.73-5.19"/><path class="cls-24" d="M1754.07,197.15h0a2.72,2.72,0,0,1,.6,1.65,2.53,2.53,0,0,1-.42,1.38h0l-.06.1h0c-1.44,2.15-5.94,3.71-11.25,3.71s-9.81-1.56-11.26-3.71h0a.41.41,0,0,1,0-.09,2.58,2.58,0,0,1-.43-1.39,2.7,2.7,0,0,1,.61-1.66v0"/><path class="cls-24" d="M1734.51,185.8a1.45,1.45,0,0,0,0,.3c0,2,3.88,3.62,8.47,3.62s8.46-1.62,8.46-3.62a1.53,1.53,0,0,0,0-.3c-.36-1.86-4.08-3.33-8.43-3.33S1734.88,183.94,1734.51,185.8Z"/><path class="cls-24" d="M1751.41,185.79a56.71,56.71,0,0,1,2.67,11.37,28.6,28.6,0,0,1,.18,3"/><path class="cls-24" d="M1734.49,185.79a57.3,57.3,0,0,0-2.67,11.36,28.63,28.63,0,0,0-.18,3"/><line class="cls-24" x1="1754.68" y1="198.81" x2="1754.68" y2="201.77"/><line class="cls-24" x1="1731.21" y1="198.81" x2="1731.21" y2="201.77"/><line class="cls-24" x1="1736.83" y1="179.73" x2="1735.54" y2="177.5"/><line class="cls-24" x1="1742.95" y1="178.09" x2="1742.95" y2="175.51"/><line class="cls-24" x1="1749.06" y1="179.73" x2="1750.35" y2="177.5"/><line class="cls-24" x1="1753.54" y1="184.21" x2="1755.78" y2="182.92"/><line class="cls-24" x1="1732.35" y1="184.21" x2="1730.11" y2="182.92"/><circle class="cls-18" cx="1190.11" cy="162.63" r="7"/><text class="cls-9" transform="translate(1187.85 165.29)">D</text><circle class="cls-21" cx="1202.76" cy="150.01" r="7"/><text class="cls-9" transform="translate(1198.2 152.74)">CD</text><circle class="cls-10" cx="1218.99" cy="143.14" r="7"/><text class="cls-9" transform="translate(1214.43 145.87)">PP</text><circle class="cls-4" cx="1231.13" cy="191.79" r="40"/><circle class="cls-4" cx="717.66" cy="191.79" r="40"/><text class="cls-25" transform="translate(697.01 189.78)">delimitação<tspan x="2.48" y="11">de escopo</tspan></text><path class="cls-5" d="M1339.45,175.48a2.57,2.57,0,0,1,.44-1.57,1.45,1.45,0,0,1,1.21-.59,1.26,1.26,0,0,1,1,.46v-2.16h1.14v6h-1l-.06-.44a1.32,1.32,0,0,1-1.08.52,1.42,1.42,0,0,1-1.2-.59A2.61,2.61,0,0,1,1339.45,175.48Zm1.13.08a1.79,1.79,0,0,0,.2.92.68.68,0,0,0,.61.31.75.75,0,0,0,.73-.44v-1.67a.73.73,0,0,0-.73-.44Q1340.58,174.24,1340.58,175.56Z"/><path class="cls-5" d="M1346,177.7a2.09,2.09,0,0,1-1.52-.57,2,2,0,0,1-.58-1.52v-.11a2.51,2.51,0,0,1,.25-1.14,1.78,1.78,0,0,1,.69-.77,2,2,0,0,1,1-.27,1.74,1.74,0,0,1,1.37.55,2.22,2.22,0,0,1,.5,1.55v.46H1345a1.1,1.1,0,0,0,.33.66,1,1,0,0,0,.7.25,1.22,1.22,0,0,0,1-.47l.56.62a1.66,1.66,0,0,1-.69.56A2.32,2.32,0,0,1,1346,177.7Zm-.13-3.47a.72.72,0,0,0-.55.23,1.11,1.11,0,0,0-.26.65h1.57V175a.85.85,0,0,0-.21-.58A.71.71,0,0,0,1345.87,174.23Z"/><path class="cls-5" d="M1350.58,176.46a.36.36,0,0,0-.2-.33,2.32,2.32,0,0,0-.66-.21c-1-.21-1.51-.64-1.51-1.28a1.16,1.16,0,0,1,.47-.94,1.89,1.89,0,0,1,1.22-.38,2,2,0,0,1,1.29.38,1.19,1.19,0,0,1,.48,1h-1.13a.57.57,0,0,0-.15-.4.82.82,0,0,0-.93,0,.41.41,0,0,0-.16.33.33.33,0,0,0,.18.3,1.65,1.65,0,0,0,.6.2,5.43,5.43,0,0,1,.71.19,1.17,1.17,0,0,1,.89,1.14,1.11,1.11,0,0,1-.49.94,2.5,2.5,0,0,1-2.23.16,1.51,1.51,0,0,1-.64-.52,1.19,1.19,0,0,1-.24-.71h1.07a.62.62,0,0,0,.22.46.89.89,0,0,0,.56.16.84.84,0,0,0,.49-.12A.38.38,0,0,0,1350.58,176.46Z"/><path class="cls-5" d="M1354.27,177.7a2.07,2.07,0,0,1-1.51-.57,2,2,0,0,1-.58-1.52v-.11a2.64,2.64,0,0,1,.24-1.14,1.87,1.87,0,0,1,.7-.77,2,2,0,0,1,1-.27,1.72,1.72,0,0,1,1.36.55,2.17,2.17,0,0,1,.5,1.55v.46h-2.69a1.1,1.1,0,0,0,.33.66,1,1,0,0,0,.7.25,1.24,1.24,0,0,0,1-.47l.55.62a1.7,1.7,0,0,1-.68.56A2.34,2.34,0,0,1,1354.27,177.7Zm-.12-3.47a.72.72,0,0,0-.55.23,1.18,1.18,0,0,0-.27.65h1.57V175a.8.8,0,0,0-.2-.58A.72.72,0,0,0,1354.15,174.23Z"/><path class="cls-5" d="M1357.61,173.4l0,.49a1.46,1.46,0,0,1,1.21-.57,1.23,1.23,0,0,1,1,.39,1.88,1.88,0,0,1,.34,1.18v2.73h-1.13v-2.7a.7.7,0,0,0-.16-.52.67.67,0,0,0-.52-.16.77.77,0,0,0-.71.4v3h-1.13V173.4Z"/><path class="cls-5" d="M1362.07,173.86a1.42,1.42,0,0,1,1.13-.54c.92,0,1.39.53,1.4,1.6v2.7h-1.13V175a.77.77,0,0,0-.16-.54.64.64,0,0,0-.52-.17.76.76,0,0,0-.72.38v3H1361v-6h1.12Z"/><path class="cls-5" d="M1365.19,175.47a2.53,2.53,0,0,1,.25-1.12,1.76,1.76,0,0,1,.69-.76,2.06,2.06,0,0,1,1.06-.27,1.93,1.93,0,0,1,1.4.52,2.11,2.11,0,0,1,.6,1.43v.28a2.21,2.21,0,0,1-.54,1.56,2.11,2.11,0,0,1-2.92,0,2.27,2.27,0,0,1-.55-1.6Zm1.13.08a1.58,1.58,0,0,0,.23.92.73.73,0,0,0,.65.32.74.74,0,0,0,.64-.31,1.77,1.77,0,0,0,.23-1,1.62,1.62,0,0,0-.23-.92.76.76,0,0,0-.65-.32.74.74,0,0,0-.64.32A1.78,1.78,0,0,0,1366.32,175.55Z"/><path class="cls-5" d="M1373.67,177.7a2.07,2.07,0,0,1-1.51-.57,2,2,0,0,1-.59-1.52v-.11a2.65,2.65,0,0,1,.25-1.14,1.8,1.8,0,0,1,.7-.77,2,2,0,0,1,1-.27,1.74,1.74,0,0,1,1.36.55,2.22,2.22,0,0,1,.5,1.55v.46h-2.69a1,1,0,0,0,.33.66,1,1,0,0,0,.7.25,1.24,1.24,0,0,0,1-.47l.55.62a1.66,1.66,0,0,1-.69.56A2.32,2.32,0,0,1,1373.67,177.7Zm-.13-3.47a.71.71,0,0,0-.54.23,1.18,1.18,0,0,0-.27.65h1.57V175a.8.8,0,0,0-.2-.58A.73.73,0,0,0,1373.54,174.23Z"/><path class="cls-5" d="M1339.77,187.79a.77.77,0,0,0,.51-.17.58.58,0,0,0,.2-.46h1.06a1.39,1.39,0,0,1-.24.79,1.56,1.56,0,0,1-.63.56,2,2,0,0,1-.88.19,1.84,1.84,0,0,1-1.43-.57,2.3,2.3,0,0,1-.52-1.6v-.07a2.25,2.25,0,0,1,.52-1.56,2,2,0,0,1,2.69-.13,1.61,1.61,0,0,1,.49,1.2h-1.06a.72.72,0,0,0-.2-.53.75.75,0,0,0-1.11.08,1.6,1.6,0,0,0-.21.93v.12a1.73,1.73,0,0,0,.2.94A.7.7,0,0,0,1339.77,187.79Z"/><path class="cls-5" d="M1341.93,186.47a2.52,2.52,0,0,1,.24-1.12,1.72,1.72,0,0,1,.7-.76,2,2,0,0,1,1.05-.27,1.93,1.93,0,0,1,1.4.52,2.11,2.11,0,0,1,.6,1.43v.28a2.21,2.21,0,0,1-.54,1.56,1.86,1.86,0,0,1-1.46.59,1.91,1.91,0,0,1-1.46-.58,2.26,2.26,0,0,1-.54-1.6Zm1.13.08a1.58,1.58,0,0,0,.22.92.73.73,0,0,0,.65.32.74.74,0,0,0,.64-.31,1.69,1.69,0,0,0,.23-1,1.55,1.55,0,0,0-.23-.92.81.81,0,0,0-1.29,0A1.79,1.79,0,0,0,1343.06,186.55Z"/><path class="cls-5" d="M1347.59,184.4l0,.49a1.48,1.48,0,0,1,1.22-.57,1.25,1.25,0,0,1,1,.39,1.88,1.88,0,0,1,.33,1.18v2.73H1349v-2.7a.75.75,0,0,0-.15-.52.7.7,0,0,0-.52-.16.78.78,0,0,0-.72.4v3h-1.13V184.4Z"/><path class="cls-5" d="M1353.24,187.46a.37.37,0,0,0-.21-.33,2.32,2.32,0,0,0-.66-.21c-1-.21-1.5-.64-1.5-1.28a1.15,1.15,0,0,1,.46-.94,1.89,1.89,0,0,1,1.22-.38,2,2,0,0,1,1.29.38,1.19,1.19,0,0,1,.48,1h-1.13a.57.57,0,0,0-.15-.4.82.82,0,0,0-.93,0,.41.41,0,0,0-.16.33.33.33,0,0,0,.18.3,1.65,1.65,0,0,0,.6.2,5.43,5.43,0,0,1,.71.19,1.16,1.16,0,0,1,.89,1.14,1.11,1.11,0,0,1-.49.94,2.5,2.5,0,0,1-2.23.16,1.51,1.51,0,0,1-.64-.52,1.19,1.19,0,0,1-.24-.71h1.07a.59.59,0,0,0,.23.46.84.84,0,0,0,.55.16.82.82,0,0,0,.49-.12A.39.39,0,0,0,1353.24,187.46Z"/><path class="cls-5" d="M1356.33,183.36v1h.72v.83h-.72v2.11a.5.5,0,0,0,.09.33.46.46,0,0,0,.35.1l.33,0v.85a2.26,2.26,0,0,1-.69.1,1.08,1.08,0,0,1-1.21-1.2v-2.27h-.61v-.83h.61v-1Z"/><path class="cls-5" d="M1360,185.46l-.41,0a.84.84,0,0,0-.84.43v2.76h-1.13V184.4h1.07l0,.5a1,1,0,0,1,.94-.58,1.29,1.29,0,0,1,.35.05Z"/><path class="cls-5" d="M1363,188.2a1.43,1.43,0,0,1-1.15.5,1.34,1.34,0,0,1-1-.39,1.68,1.68,0,0,1-.37-1.14V184.4h1.13v2.73q0,.66.6.66a.8.8,0,0,0,.79-.4v-3h1.14v4.22H1363Z"/><path class="cls-5" d="M1366.6,187.79a.76.76,0,0,0,.5-.17.62.62,0,0,0,.21-.46h1.06a1.54,1.54,0,0,1-.87,1.35,2,2,0,0,1-.88.19,1.82,1.82,0,0,1-1.43-.57,2.3,2.3,0,0,1-.53-1.6v-.07a2.29,2.29,0,0,1,.52-1.56,1.81,1.81,0,0,1,1.43-.58,1.78,1.78,0,0,1,1.27.45,1.61,1.61,0,0,1,.49,1.2h-1.06a.77.77,0,0,0-.21-.53.66.66,0,0,0-.51-.21.7.7,0,0,0-.6.29,1.69,1.69,0,0,0-.2.93v.12a1.73,1.73,0,0,0,.2.94A.69.69,0,0,0,1366.6,187.79Zm.41.81,0,.23a.63.63,0,0,1,.59.67.77.77,0,0,1-.36.68,1.7,1.7,0,0,1-1,.25l0-.65c.29,0,.44-.1.44-.32a.24.24,0,0,0-.13-.22,1.26,1.26,0,0,0-.43-.08l.12-.56Z"/><path class="cls-5" d="M1371.38,188.62a1.16,1.16,0,0,1-.11-.37,1.39,1.39,0,0,1-1.07.45,1.5,1.5,0,0,1-1-.36,1.16,1.16,0,0,1-.41-.9,1.18,1.18,0,0,1,.5-1,2.43,2.43,0,0,1,1.44-.37h.52v-.24a.72.72,0,0,0-.15-.47.59.59,0,0,0-.48-.17.66.66,0,0,0-.44.13.46.46,0,0,0-.16.38h-1.13a1.13,1.13,0,0,1,.22-.68,1.45,1.45,0,0,1,.64-.49,2.34,2.34,0,0,1,.93-.18,1.84,1.84,0,0,1,1.24.39,1.36,1.36,0,0,1,.46,1.11v1.83a2.13,2.13,0,0,0,.17.91v.06Zm.74-5.94a1.11,1.11,0,0,1-.26.74.82.82,0,0,1-.63.29,1,1,0,0,1-.26,0,1.55,1.55,0,0,1-.32-.14,1.71,1.71,0,0,0-.29-.14l-.2,0a.29.29,0,0,0-.23.1.37.37,0,0,0-.1.27l-.65,0a1.1,1.1,0,0,1,.25-.73.8.8,0,0,1,.85-.28l.34.14a2,2,0,0,0,.32.14.58.58,0,0,0,.19,0,.36.36,0,0,0,.24-.09.41.41,0,0,0,.1-.28Zm-1.67,5.16a1,1,0,0,0,.46-.11.81.81,0,0,0,.31-.3v-.73h-.42c-.57,0-.87.2-.9.59v.07a.43.43,0,0,0,.15.34A.58.58,0,0,0,1370.45,187.84Z"/><path class="cls-5" d="M1373,186.47a2.4,2.4,0,0,1,.25-1.12,1.76,1.76,0,0,1,.69-.76,2.06,2.06,0,0,1,1.06-.27,1.93,1.93,0,0,1,1.4.52,2.11,2.11,0,0,1,.6,1.43v.28a2.17,2.17,0,0,1-.55,1.56,1.84,1.84,0,0,1-1.45.59,1.89,1.89,0,0,1-1.46-.58,2.27,2.27,0,0,1-.55-1.6Zm1.13.08a1.58,1.58,0,0,0,.23.92.73.73,0,0,0,.65.32.76.76,0,0,0,.64-.31,1.77,1.77,0,0,0,.23-1,1.62,1.62,0,0,0-.23-.92.77.77,0,0,0-.65-.32.74.74,0,0,0-.64.32A1.78,1.78,0,0,0,1374.09,186.55Z"/><path class="cls-5" d="M1341.65,197.48a2.57,2.57,0,0,1,.44-1.57,1.45,1.45,0,0,1,1.22-.59,1.26,1.26,0,0,1,1,.46v-2.16h1.14v6h-1l-.06-.44a1.32,1.32,0,0,1-1.08.52,1.42,1.42,0,0,1-1.2-.59A2.61,2.61,0,0,1,1341.65,197.48Zm1.13.08a1.69,1.69,0,0,0,.21.92.65.65,0,0,0,.6.31.75.75,0,0,0,.73-.44v-1.67a.73.73,0,0,0-.73-.44Q1342.78,196.24,1342.78,197.56Z"/><path class="cls-5" d="M1348.2,199.7a2.09,2.09,0,0,1-1.52-.57,2,2,0,0,1-.58-1.52v-.11a2.51,2.51,0,0,1,.25-1.14,1.78,1.78,0,0,1,.69-.77,2,2,0,0,1,1-.27,1.74,1.74,0,0,1,1.37.55,2.22,2.22,0,0,1,.5,1.55v.46h-2.7a1.1,1.1,0,0,0,.33.66,1,1,0,0,0,.7.25,1.22,1.22,0,0,0,1-.47l.56.62a1.66,1.66,0,0,1-.69.56A2.32,2.32,0,0,1,1348.2,199.7Zm-.13-3.47a.73.73,0,0,0-.55.23,1.18,1.18,0,0,0-.26.65h1.57V197a.85.85,0,0,0-.21-.58A.71.71,0,0,0,1348.07,196.23Z"/><path class="cls-5" d="M1356.21,197.55a2.49,2.49,0,0,1-.44,1.56,1.4,1.4,0,0,1-1.2.59,1.33,1.33,0,0,1-1-.44v2h-1.13V195.4h1l0,.41a1.33,1.33,0,0,1,1.08-.49,1.41,1.41,0,0,1,1.21.58,2.57,2.57,0,0,1,.43,1.59Zm-1.13-.08a1.64,1.64,0,0,0-.2-.91.68.68,0,0,0-.61-.32.73.73,0,0,0-.73.4v1.73a.75.75,0,0,0,.74.42C1354.82,198.79,1355.08,198.35,1355.08,197.47Z"/><path class="cls-5" d="M1359.28,199.62a1.16,1.16,0,0,1-.11-.37,1.37,1.37,0,0,1-1.07.45,1.52,1.52,0,0,1-1-.36,1.16,1.16,0,0,1-.41-.9,1.18,1.18,0,0,1,.5-1,2.43,2.43,0,0,1,1.44-.37h.52v-.24a.72.72,0,0,0-.15-.47.58.58,0,0,0-.47-.17.69.69,0,0,0-.45.13.46.46,0,0,0-.16.38h-1.13a1.08,1.08,0,0,1,.23-.68,1.39,1.39,0,0,1,.64-.49,2.27,2.27,0,0,1,.93-.18,1.86,1.86,0,0,1,1.24.39,1.39,1.39,0,0,1,.45,1.11v1.83a2.13,2.13,0,0,0,.17.91v.06Zm-.93-.78a1,1,0,0,0,.46-.11.81.81,0,0,0,.31-.3v-.73h-.42c-.57,0-.87.2-.9.59v.07a.43.43,0,0,0,.15.34A.6.6,0,0,0,1358.35,198.84Z"/><path class="cls-5" d="M1361,194.3a.55.55,0,0,1,.17-.41.66.66,0,0,1,.47-.17.65.65,0,0,1,.46.17.55.55,0,0,1,.17.41.58.58,0,0,1-.17.43.65.65,0,0,1-.46.16.63.63,0,0,1-.46-.16A.55.55,0,0,1,1361,194.3Zm1.2,5.32h-1.13V195.4h1.13Z"/><path class="cls-5" d="M1364.12,195.4l0,.49a1.46,1.46,0,0,1,1.21-.57,1.23,1.23,0,0,1,1,.39,1.88,1.88,0,0,1,.34,1.18v2.73h-1.13v-2.7a.7.7,0,0,0-.16-.52.67.67,0,0,0-.52-.16.77.77,0,0,0-.71.4v3h-1.13V195.4Z"/><path class="cls-5" d="M1369.43,199.7a2.07,2.07,0,0,1-1.51-.57,2,2,0,0,1-.59-1.52v-.11a2.51,2.51,0,0,1,.25-1.14,1.74,1.74,0,0,1,.7-.77,1.94,1.94,0,0,1,1-.27,1.74,1.74,0,0,1,1.37.55,2.22,2.22,0,0,1,.5,1.55v.46h-2.69a1,1,0,0,0,.33.66,1,1,0,0,0,.69.25,1.22,1.22,0,0,0,1-.47l.56.62a1.66,1.66,0,0,1-.69.56A2.32,2.32,0,0,1,1369.43,199.7Zm-.13-3.47a.71.71,0,0,0-.54.23,1.18,1.18,0,0,0-.27.65h1.57V197a.84.84,0,0,0-.2-.58A.73.73,0,0,0,1369.3,196.23Z"/><path class="cls-5" d="M1372.92,199.62h-1.13v-6h1.13Z"/><path class="cls-5" d="M1332.69,208.48a2.5,2.5,0,0,1,.44-1.57,1.44,1.44,0,0,1,1.21-.59,1.29,1.29,0,0,1,1,.46v-2.16h1.13v6h-1l0-.44a1.32,1.32,0,0,1-1.09.52,1.41,1.41,0,0,1-1.19-.59A2.61,2.61,0,0,1,1332.69,208.48Zm1.12.08a1.69,1.69,0,0,0,.21.92.67.67,0,0,0,.6.31.76.76,0,0,0,.74-.44v-1.67a.73.73,0,0,0-.73-.44C1334.09,207.24,1333.81,207.68,1333.81,208.56Z"/><path class="cls-5" d="M1339.23,210.7a2.07,2.07,0,0,1-1.51-.57,2,2,0,0,1-.58-1.52v-.11a2.64,2.64,0,0,1,.24-1.14,1.87,1.87,0,0,1,.7-.77,2,2,0,0,1,1-.27,1.72,1.72,0,0,1,1.36.55,2.17,2.17,0,0,1,.5,1.55v.46h-2.69a1.1,1.1,0,0,0,.33.66,1,1,0,0,0,.7.25,1.24,1.24,0,0,0,1-.47l.55.62a1.7,1.7,0,0,1-.68.56A2.34,2.34,0,0,1,1339.23,210.7Zm-.12-3.47a.72.72,0,0,0-.55.23,1.18,1.18,0,0,0-.27.65h1.57V208a.8.8,0,0,0-.2-.58A.72.72,0,0,0,1339.11,207.23Z"/><path class="cls-5" d="M1343.44,205.3a.52.52,0,0,1,.17-.41.62.62,0,0,1,.46-.17.64.64,0,0,1,.46.17.52.52,0,0,1,.17.41.54.54,0,0,1-.17.43.74.74,0,0,1-.92,0A.54.54,0,0,1,1343.44,205.3Zm1.2,5.32h-1.14V206.4h1.14Z"/><path class="cls-5" d="M1346.53,206.4l0,.49a1.48,1.48,0,0,1,1.22-.57,1.25,1.25,0,0,1,1,.39,1.88,1.88,0,0,1,.33,1.18v2.73H1348v-2.7a.75.75,0,0,0-.15-.52.7.7,0,0,0-.52-.16.78.78,0,0,0-.72.4v3h-1.13V206.4Z"/><path class="cls-5" d="M1349.71,208.48a2.57,2.57,0,0,1,.44-1.57,1.45,1.45,0,0,1,1.22-.59,1.29,1.29,0,0,1,1,.46v-2.16h1.13v6h-1l0-.44a1.35,1.35,0,0,1-1.09.52,1.42,1.42,0,0,1-1.2-.59A2.61,2.61,0,0,1,1349.71,208.48Zm1.13.08a1.69,1.69,0,0,0,.21.92.66.66,0,0,0,.6.31.77.77,0,0,0,.74-.44v-1.67a.74.74,0,0,0-.73-.44C1351.11,207.24,1350.84,207.68,1350.84,208.56Z"/><path class="cls-5" d="M1354.31,205.3a.52.52,0,0,1,.17-.41.62.62,0,0,1,.46-.17.64.64,0,0,1,.46.17.55.55,0,0,1,.17.41.58.58,0,0,1-.17.43.74.74,0,0,1-.92,0A.54.54,0,0,1,1354.31,205.3Zm1.2,5.32h-1.14V206.4h1.14Z"/><path class="cls-5" d="M1358.11,209.79a.77.77,0,0,0,.51-.17.58.58,0,0,0,.2-.46h1.06a1.46,1.46,0,0,1-.23.79,1.63,1.63,0,0,1-.63.56,2,2,0,0,1-.89.19,1.85,1.85,0,0,1-1.43-.57,2.35,2.35,0,0,1-.52-1.6v-.07a2.25,2.25,0,0,1,.52-1.56,1.81,1.81,0,0,1,1.43-.58,1.79,1.79,0,0,1,1.27.45,1.57,1.57,0,0,1,.48,1.2h-1.06a.72.72,0,0,0-.2-.53.66.66,0,0,0-.51-.21.68.68,0,0,0-.6.29,1.69,1.69,0,0,0-.2.93v.12a1.73,1.73,0,0,0,.2.94A.67.67,0,0,0,1358.11,209.79Z"/><path class="cls-5" d="M1362.9,210.62a1.46,1.46,0,0,1-.12-.37,1.35,1.35,0,0,1-1.06.45,1.49,1.49,0,0,1-1-.36,1.16,1.16,0,0,1-.41-.9,1.18,1.18,0,0,1,.5-1,2.43,2.43,0,0,1,1.44-.37h.52v-.24a.72.72,0,0,0-.15-.47.59.59,0,0,0-.48-.17.69.69,0,0,0-.45.13.5.5,0,0,0-.16.38h-1.13a1.14,1.14,0,0,1,.23-.68,1.39,1.39,0,0,1,.64-.49,2.34,2.34,0,0,1,.93-.18,1.84,1.84,0,0,1,1.24.39,1.36,1.36,0,0,1,.46,1.11v1.83a2,2,0,0,0,.17.91v.06Zm-.94-.78a1,1,0,0,0,.46-.11.78.78,0,0,0,.32-.3v-.73h-.42c-.57,0-.87.2-.91.59v.07a.43.43,0,0,0,.15.34A.57.57,0,0,0,1362,209.84Z"/><path class="cls-5" d="M1364.48,208.48a2.57,2.57,0,0,1,.44-1.57,1.45,1.45,0,0,1,1.22-.59,1.29,1.29,0,0,1,1,.46v-2.16h1.13v6h-1l0-.44a1.35,1.35,0,0,1-1.09.52,1.42,1.42,0,0,1-1.2-.59A2.61,2.61,0,0,1,1364.48,208.48Zm1.13.08a1.69,1.69,0,0,0,.21.92.66.66,0,0,0,.6.31.77.77,0,0,0,.74-.44v-1.67a.74.74,0,0,0-.73-.44C1365.88,207.24,1365.61,207.68,1365.61,208.56Z"/><path class="cls-5" d="M1368.91,208.47a2.52,2.52,0,0,1,.24-1.12,1.72,1.72,0,0,1,.7-.76,2,2,0,0,1,1.06-.27,1.9,1.9,0,0,1,1.39.52,2.17,2.17,0,0,1,.61,1.43v.28a2.21,2.21,0,0,1-.54,1.56,1.86,1.86,0,0,1-1.46.59,1.91,1.91,0,0,1-1.46-.58,2.26,2.26,0,0,1-.54-1.6Zm1.13.08a1.58,1.58,0,0,0,.22.92.75.75,0,0,0,.65.32.73.73,0,0,0,.64-.31,1.69,1.69,0,0,0,.23-1,1.55,1.55,0,0,0-.23-.92.75.75,0,0,0-.64-.32.77.77,0,0,0-.65.32A1.79,1.79,0,0,0,1370,208.55Z"/><path class="cls-5" d="M1375.9,207.46l-.4,0a.82.82,0,0,0-.84.43v2.76h-1.13V206.4h1.06l0,.5a1,1,0,0,1,.94-.58,1.34,1.34,0,0,1,.35.05Z"/><path class="cls-5" d="M1378.31,210.7a2.07,2.07,0,0,1-1.51-.57,2,2,0,0,1-.59-1.52v-.11a2.65,2.65,0,0,1,.25-1.14,1.8,1.8,0,0,1,.7-.77,2,2,0,0,1,1-.27,1.74,1.74,0,0,1,1.36.55,2.22,2.22,0,0,1,.5,1.55v.46h-2.69a1,1,0,0,0,.33.66,1,1,0,0,0,.7.25,1.24,1.24,0,0,0,1-.47l.55.62a1.66,1.66,0,0,1-.69.56A2.32,2.32,0,0,1,1378.31,210.7Zm-.13-3.47a.71.71,0,0,0-.54.23,1.18,1.18,0,0,0-.27.65h1.57V208a.8.8,0,0,0-.2-.58A.73.73,0,0,0,1378.18,207.23Z"/><path class="cls-5" d="M1382.9,209.46a.37.37,0,0,0-.21-.33,2.13,2.13,0,0,0-.65-.21c-1-.21-1.51-.64-1.51-1.28a1.15,1.15,0,0,1,.46-.94,1.92,1.92,0,0,1,1.23-.38,2,2,0,0,1,1.28.38,1.2,1.2,0,0,1,.49,1h-1.13a.58.58,0,0,0-.16-.4.69.69,0,0,0-.49-.16.7.7,0,0,0-.44.13.44.44,0,0,0-.16.33.33.33,0,0,0,.18.3,1.65,1.65,0,0,0,.6.2,5.43,5.43,0,0,1,.71.19,1.17,1.17,0,0,1,.9,1.14,1.12,1.12,0,0,1-.5.94,2.2,2.2,0,0,1-1.28.35,2.16,2.16,0,0,1-.94-.19,1.54,1.54,0,0,1-.65-.52,1.18,1.18,0,0,1-.23-.71h1.07a.58.58,0,0,0,.22.46.86.86,0,0,0,.55.16.82.82,0,0,0,.49-.12A.39.39,0,0,0,1382.9,209.46Z"/><circle class="cls-4" cx="974.86" cy="191.79" r="40"/><circle class="cls-21" cx="934.07" cy="162.63" r="7"/><text class="cls-9" transform="translate(929.51 165.29)">CD</text><text class="cls-25" transform="translate(945.12 183.12)">coleta preliminar<tspan x="11.98" y="11">e escolha </tspan><tspan x="3.85" y="22">de indicadores</tspan></text><text class="cls-25" transform="translate(1079.58 184.82)">arquitetura e <tspan x="-3.66" y="11">coleta contínua</tspan><tspan x="7.4" y="22">de dados</tspan></text><text class="cls-26" transform="translate(164.17 444.44)">anúncio</text><text class="cls-27" transform="translate(398.42 435.69)">fechamento<tspan x="4.84" y="11">do time e</tspan><tspan x="-0.26" y="22">cronograma</tspan></text><text class="cls-27" transform="translate(41.1 264.21)">radar Inova</text><text class="cls-27" transform="translate(82.25 584.65)"><tspan class="cls-28">alert</tspan><tspan x="15.96" y="0">a ou</tspan><tspan x="-4.67" y="11">radar Inova</tspan></text><text class="cls-29" transform="translate(1469.8 188.06)">produção <tspan x="-2.68" y="11">de relatório</tspan></text><text class="cls-29" transform="translate(1595.69 191.24)">divulgação<tspan x="1.26" y="11">do projeto</tspan></text><text class="cls-25" transform="translate(1210.2 190.32)">modelagem<tspan x="5.23" y="11">e análise</tspan></text><circle class="cls-30" cx="339.46" cy="413.07" r="7"/><circle class="cls-18" cx="339.46" cy="413.07" r="7"/><text class="cls-9" transform="translate(337.19 415.73)">D</text><circle class="cls-8" cx="1073.94" cy="150.01" r="7"/><text class="cls-9" transform="translate(1069.47 152.6)">SD</text><path class="cls-30" d="M280.05,435.77l-.41,0a.84.84,0,0,0-.84.44v2.76h-1.13v-4.23h1.07l0,.51a1,1,0,0,1,.94-.58,1,1,0,0,1,.35.05Z"/><path class="cls-30" d="M282.54,439a2.09,2.09,0,0,1-1.52-.57,2,2,0,0,1-.58-1.52v-.11a2.48,2.48,0,0,1,.25-1.14,1.78,1.78,0,0,1,.69-.77,2,2,0,0,1,1-.27,1.77,1.77,0,0,1,1.37.54,2.24,2.24,0,0,1,.5,1.55v.47h-2.7a1.1,1.1,0,0,0,.33.66,1,1,0,0,0,.7.25,1.22,1.22,0,0,0,1-.47l.56.62a1.75,1.75,0,0,1-.69.56A2.32,2.32,0,0,1,282.54,439Zm-.13-3.47a.71.71,0,0,0-.55.22,1.14,1.14,0,0,0-.26.66h1.57v-.09a.88.88,0,0,0-.21-.59A.7.7,0,0,0,282.41,435.55Z"/><path class="cls-30" d="M284.74,436.8a2.6,2.6,0,0,1,.44-1.58,1.45,1.45,0,0,1,1.22-.58,1.29,1.29,0,0,1,1,.46v-2.16h1.13v6h-1l-.06-.45a1.33,1.33,0,0,1-1.08.53,1.44,1.44,0,0,1-1.2-.59A2.63,2.63,0,0,1,284.74,436.8Zm1.13.08a1.63,1.63,0,0,0,.21.91.66.66,0,0,0,.6.32.77.77,0,0,0,.74-.44V436a.75.75,0,0,0-.73-.45C286.14,435.55,285.87,436,285.87,436.88Z"/><path class="cls-30" d="M291.37,439a2,2,0,0,1-2.1-2.09v-.11a2.48,2.48,0,0,1,.25-1.14,1.78,1.78,0,0,1,.69-.77,2,2,0,0,1,1-.27,1.77,1.77,0,0,1,1.37.54,2.24,2.24,0,0,1,.5,1.55v.47h-2.69a1,1,0,0,0,.33.66,1,1,0,0,0,.69.25,1.22,1.22,0,0,0,1-.47l.56.62a1.75,1.75,0,0,1-.69.56A2.32,2.32,0,0,1,291.37,439Zm-.13-3.47a.69.69,0,0,0-.54.22,1.21,1.21,0,0,0-.27.66H292v-.09a.88.88,0,0,0-.21-.59A.7.7,0,0,0,291.24,435.55Z"/><path class="cls-30" d="M294.06,438.94v-3.4h-.63v-.83h.63v-.35a1.47,1.47,0,0,1,.4-1.11,1.62,1.62,0,0,1,1.15-.39,2.27,2.27,0,0,1,.57.08v.87a1.65,1.65,0,0,0-.34,0c-.43,0-.64.2-.64.59v.34H296v.83h-.84v3.4Z"/><path class="cls-30" d="M296.61,433.62a.54.54,0,0,1,.17-.42.61.61,0,0,1,.46-.16.63.63,0,0,1,.46.16.6.6,0,0,1,0,.84.71.71,0,0,1-.92,0A.54.54,0,0,1,296.61,433.62Zm1.2,5.32h-1.14v-4.23h1.14Z"/><path class="cls-30" d="M299.78,434.71l0,.49a1.47,1.47,0,0,1,1.22-.56,1.25,1.25,0,0,1,1,.39,1.86,1.86,0,0,1,.33,1.18v2.73h-1.13v-2.7a.73.73,0,0,0-.15-.52.71.71,0,0,0-.52-.17.79.79,0,0,0-.72.41v3h-1.13v-4.23Z"/><path class="cls-30" d="M303.21,433.62a.57.57,0,0,1,.17-.42.74.74,0,0,1,.92,0,.6.6,0,0,1,0,.84.71.71,0,0,1-.92,0A.57.57,0,0,1,303.21,433.62Zm1.2,5.32h-1.13v-4.23h1.13Z"/><path class="cls-30" d="M307.1,438.11a.76.76,0,0,0,.5-.17.64.64,0,0,0,.21-.46h1.06a1.56,1.56,0,0,1-.24.79,1.47,1.47,0,0,1-.63.55,2,2,0,0,1-.88.2,1.8,1.8,0,0,1-1.43-.58,2.26,2.26,0,0,1-.53-1.59v-.07a2.23,2.23,0,0,1,.52-1.56,1.81,1.81,0,0,1,1.43-.58,1.78,1.78,0,0,1,1.27.45,1.61,1.61,0,0,1,.49,1.2h-1.06a.82.82,0,0,0-.21-.54.66.66,0,0,0-.51-.2.68.68,0,0,0-.6.28,1.75,1.75,0,0,0-.2.94v.11a1.7,1.7,0,0,0,.2.94A.69.69,0,0,0,307.1,438.11Zm.41.81-.05.22a.64.64,0,0,1,.59.68.79.79,0,0,1-.36.68,1.7,1.7,0,0,1-1,.25l0-.65c.29,0,.44-.11.44-.32a.22.22,0,0,0-.14-.22,1.14,1.14,0,0,0-.42-.08l.12-.56Z"/><path class="cls-30" d="M312,438.94a1.22,1.22,0,0,1-.11-.38,1.36,1.36,0,0,1-1.07.46,1.5,1.5,0,0,1-1-.36,1.16,1.16,0,0,1-.41-.91,1.2,1.2,0,0,1,.5-1,2.43,2.43,0,0,1,1.44-.36h.52v-.24a.7.7,0,0,0-.15-.47.59.59,0,0,0-.48-.18.64.64,0,0,0-.44.14.45.45,0,0,0-.17.37h-1.12a1.15,1.15,0,0,1,.22-.68,1.61,1.61,0,0,1,.64-.49,2.52,2.52,0,0,1,.93-.17,1.84,1.84,0,0,1,1.24.39,1.36,1.36,0,0,1,.46,1.1V438a2,2,0,0,0,.17.91v.07Zm.74-5.95a1.11,1.11,0,0,1-.26.74.8.8,0,0,1-.63.3,1,1,0,0,1-.26,0,2.41,2.41,0,0,1-.32-.14,2.18,2.18,0,0,0-.29-.14.65.65,0,0,0-.2,0,.32.32,0,0,0-.23.09.37.37,0,0,0-.1.28l-.65,0a1.12,1.12,0,0,1,.25-.74.8.8,0,0,1,.63-.3.78.78,0,0,1,.22,0,2,2,0,0,1,.34.14l.32.14.19,0a.33.33,0,0,0,.24-.1A.37.37,0,0,0,312,433ZM311,438.16a.93.93,0,0,0,.46-.12.73.73,0,0,0,.31-.29V437h-.42c-.57,0-.87.19-.91.59v.06a.45.45,0,0,0,.15.35A.58.58,0,0,0,311,438.16Z"/><path class="cls-30" d="M313.62,436.79a2.4,2.4,0,0,1,.25-1.12,1.76,1.76,0,0,1,.69-.76,2.06,2.06,0,0,1,1.06-.27,1.93,1.93,0,0,1,1.4.52,2.09,2.09,0,0,1,.6,1.42v.29a2.17,2.17,0,0,1-.55,1.56,1.88,1.88,0,0,1-1.45.59,1.9,1.9,0,0,1-1.46-.59,2.21,2.21,0,0,1-.55-1.59Zm1.13.08a1.58,1.58,0,0,0,.23.92.81.81,0,0,0,1.29,0,1.73,1.73,0,0,0,.23-1,1.6,1.6,0,0,0-.23-.92.75.75,0,0,0-.65-.32.72.72,0,0,0-.64.32A1.76,1.76,0,0,0,314.75,436.87Z"/><path class="cls-30" d="M279.93,447.8a2.53,2.53,0,0,1,.45-1.58,1.43,1.43,0,0,1,1.21-.58,1.29,1.29,0,0,1,1,.46v-2.16h1.13v6h-1l-.05-.45a1.34,1.34,0,0,1-1.09.53,1.46,1.46,0,0,1-1.2-.59A2.63,2.63,0,0,1,279.93,447.8Zm1.13.08a1.63,1.63,0,0,0,.21.91.68.68,0,0,0,.6.32.76.76,0,0,0,.74-.44V447a.74.74,0,0,0-.73-.45C281.33,446.55,281.06,447,281.06,447.88Z"/><path class="cls-30" d="M284.44,447.79a2.52,2.52,0,0,1,.24-1.12,1.78,1.78,0,0,1,.7-.76,2,2,0,0,1,1.06-.27,1.9,1.9,0,0,1,1.39.52,2.1,2.1,0,0,1,.61,1.42v.29a2.21,2.21,0,0,1-.55,1.56,2.09,2.09,0,0,1-2.91,0,2.21,2.21,0,0,1-.55-1.59Zm1.13.08a1.58,1.58,0,0,0,.23.92.75.75,0,0,0,.65.32.76.76,0,0,0,.64-.32,1.73,1.73,0,0,0,.23-1,1.6,1.6,0,0,0-.23-.92.75.75,0,0,0-.65-.32.72.72,0,0,0-.64.32A1.76,1.76,0,0,0,285.57,447.87Z"/><path class="cls-30" d="M291,447.8a2.53,2.53,0,0,1,.44-1.58,1.44,1.44,0,0,1,1.21-.58,1.29,1.29,0,0,1,1,.46v-2.16h1.14v6h-1l-.06-.45a1.33,1.33,0,0,1-1.08.53,1.44,1.44,0,0,1-1.2-.59A2.63,2.63,0,0,1,291,447.8Zm1.13.08a1.73,1.73,0,0,0,.2.91.68.68,0,0,0,.6.32.76.76,0,0,0,.74-.44V447a.74.74,0,0,0-.73-.45C292.36,446.55,292.09,447,292.09,447.88Z"/><path class="cls-30" d="M297.59,450a2.09,2.09,0,0,1-1.52-.57,2,2,0,0,1-.58-1.52v-.11a2.61,2.61,0,0,1,.24-1.14,1.87,1.87,0,0,1,.7-.77,2,2,0,0,1,1-.27,1.79,1.79,0,0,1,1.37.54,2.24,2.24,0,0,1,.49,1.55v.47h-2.69a1.1,1.1,0,0,0,.33.66,1,1,0,0,0,.7.25,1.24,1.24,0,0,0,1-.47l.55.62a1.65,1.65,0,0,1-.68.56A2.32,2.32,0,0,1,297.59,450Zm-.13-3.47a.71.71,0,0,0-.55.22,1.21,1.21,0,0,0-.27.66h1.57v-.09a.83.83,0,0,0-.2-.59A.7.7,0,0,0,297.46,446.55Z"/><path class="cls-30" d="M302.25,448.77a.34.34,0,0,0-.2-.32,2.63,2.63,0,0,0-.66-.22c-1-.21-1.51-.63-1.51-1.28a1.17,1.17,0,0,1,.47-.94,1.89,1.89,0,0,1,1.22-.37,2,2,0,0,1,1.29.38,1.19,1.19,0,0,1,.48,1h-1.13a.52.52,0,0,0-.16-.4.62.62,0,0,0-.48-.16.69.69,0,0,0-.45.13.43.43,0,0,0-.15.33.35.35,0,0,0,.18.3,1.71,1.71,0,0,0,.6.2,4.48,4.48,0,0,1,.71.19,1.17,1.17,0,0,1,.89,1.14,1.1,1.1,0,0,1-.49.93,2.16,2.16,0,0,1-1.29.36,2.35,2.35,0,0,1-.94-.19,1.69,1.69,0,0,1-.65-.52,1.25,1.25,0,0,1-.23-.71h1.07a.62.62,0,0,0,.22.46,1,1,0,0,0,.56.16.84.84,0,0,0,.49-.12A.39.39,0,0,0,302.25,448.77Z"/><path class="cls-30" d="M306.53,449.94a1.55,1.55,0,0,1-.12-.38,1.34,1.34,0,0,1-1.06.46,1.49,1.49,0,0,1-1-.36,1.16,1.16,0,0,1-.41-.91,1.2,1.2,0,0,1,.5-1,2.43,2.43,0,0,1,1.44-.36h.52v-.24a.7.7,0,0,0-.15-.47.59.59,0,0,0-.48-.18.69.69,0,0,0-.45.14.47.47,0,0,0-.16.37H304a1.16,1.16,0,0,1,.23-.68,1.54,1.54,0,0,1,.64-.49,2.52,2.52,0,0,1,.93-.17A1.84,1.84,0,0,1,307,446a1.36,1.36,0,0,1,.46,1.1V449a2,2,0,0,0,.17.91v.07Zm-.94-.78a.9.9,0,0,0,.46-.12.7.7,0,0,0,.32-.29V448H306c-.57,0-.87.19-.91.59v.06a.45.45,0,0,0,.15.35A.57.57,0,0,0,305.59,449.16Z"/><path class="cls-30" d="M308.68,449.94v-3.4h-.63v-.83h.63v-.35a1.47,1.47,0,0,1,.4-1.11,1.62,1.62,0,0,1,1.15-.39,2.27,2.27,0,0,1,.57.08v.87a1.65,1.65,0,0,0-.34,0c-.43,0-.64.2-.64.59v.34h.84v.83h-.84v3.4Z"/><path class="cls-30" d="M311.23,444.62a.54.54,0,0,1,.17-.42.61.61,0,0,1,.46-.16.63.63,0,0,1,.46.16.6.6,0,0,1,0,.84.71.71,0,0,1-.92,0A.54.54,0,0,1,311.23,444.62Zm1.2,5.32h-1.14v-4.23h1.14Z"/><path class="cls-30" d="M313.18,447.79a2.52,2.52,0,0,1,.24-1.12,1.78,1.78,0,0,1,.7-.76,2,2,0,0,1,1.06-.27,1.9,1.9,0,0,1,1.39.52,2.14,2.14,0,0,1,.61,1.42v.29a2.21,2.21,0,0,1-.54,1.56,2.1,2.1,0,0,1-2.92,0,2.25,2.25,0,0,1-.54-1.59Zm1.13.08a1.58,1.58,0,0,0,.22.92.77.77,0,0,0,.65.32.74.74,0,0,0,.64-.32,1.66,1.66,0,0,0,.23-1,1.53,1.53,0,0,0-.23-.92.73.73,0,0,0-.64-.32.75.75,0,0,0-.65.32A1.76,1.76,0,0,0,314.31,447.87Z"/><path class="cls-4" d="M592,364.12a.77.77,0,0,1,.27,1.06l-8,13.26a.77.77,0,0,1-1.06.27.78.78,0,0,1-.27-1.07l8-13.26A.77.77,0,0,1,592,364.12Z"/><path class="cls-4" d="M592,364.12a.73.73,0,0,1,.35.47l1.33,5.36a.78.78,0,1,1-1.51.37l-1.14-4.6-4.61,1.15a.78.78,0,0,1-.38-1.51l5.37-1.33A.77.77,0,0,1,592,364.12Z"/><path class="cls-4" d="M603.89,301.86a.77.77,0,0,1,.78.77l0,15.48a.78.78,0,0,1-.78.78.79.79,0,0,1-.78-.77l0-15.48A.78.78,0,0,1,603.89,301.86Z"/><path class="cls-4" d="M603.89,301.86a.8.8,0,0,1,.55.22l3.91,3.89a.78.78,0,0,1,0,1.1.78.78,0,0,1-1.1,0l-3.36-3.34-3.35,3.37a.78.78,0,0,1-1.1,0,.78.78,0,0,1,0-1.1l3.9-3.93A.8.8,0,0,1,603.89,301.86Z"/><path class="cls-4" d="M603.89,234.2a.78.78,0,0,1,.78.78l0,15.48a.78.78,0,1,1-1.55,0l0-15.48A.78.78,0,0,1,603.89,234.2Z"/><path class="cls-4" d="M603.89,234.2a.78.78,0,0,1,.55.23l3.91,3.88a.78.78,0,0,1,0,1.1.78.78,0,0,1-1.1,0l-3.36-3.34-3.35,3.37a.78.78,0,0,1-1.1-1.1l3.9-3.92A.75.75,0,0,1,603.89,234.2Z"/><path class="cls-4" d="M549.22,410.54a.78.78,0,0,1-.33,1l-13.74,7.13a.78.78,0,0,1-.72-1.38l13.74-7.13A.78.78,0,0,1,549.22,410.54Z"/><path class="cls-4" d="M549.22,410.54a.72.72,0,0,1,0,.59l-1.66,5.26a.78.78,0,1,1-1.48-.47l1.43-4.51L543,410a.78.78,0,0,1-.5-1,.77.77,0,0,1,1-.5l5.28,1.67A.77.77,0,0,1,549.22,410.54Z"/><circle class="cls-22" cx="1015.9" cy="225.19" r="9.36"/><path class="cls-31" d="M1014.43,228.62a3.85,3.85,0,1,1,2.93,0,4,4,0,0,1-.84.24v0l.37-1.78a.23.23,0,0,0,0-.18.21.21,0,0,0-.16-.08h-1.58a.21.21,0,0,0-.16.08.23.23,0,0,0,0,.18l.37,1.78v0A4,4,0,0,1,1014.43,228.62Z"/><path class="cls-30" d="M1014.43,228.74a1.45,1.45,0,0,0,.57,1.15,1.73,1.73,0,0,0,1.79,0,1.48,1.48,0,0,0,.57-1.15v1.19a1.47,1.47,0,0,1-.57,1.15,1.47,1.47,0,0,1-2.36-1.15Z"/><path class="cls-31" d="M1016.85,226.88a.23.23,0,0,1,0,.18l-.37,1.78v0a4.23,4.23,0,0,1-.63,0,4.07,4.07,0,0,1-.61,0v0l-.37-1.78a.23.23,0,0,1,0-.18.21.21,0,0,1,.16-.08h1.58A.21.21,0,0,1,1016.85,226.88Z"/><path class="cls-30" d="M1014.43,228.62a4,4,0,0,0,.85.24,4.07,4.07,0,0,0,.61,0,4.23,4.23,0,0,0,.63,0,4,4,0,0,0,.84-.24h0v.12a1.48,1.48,0,0,1-.57,1.15,1.47,1.47,0,0,1-2.36-1.15Z"/><line class="cls-32" x1="1013.57" y1="220.65" x2="1013.08" y2="219.8"/><line class="cls-32" x1="1015.9" y1="220.03" x2="1015.9" y2="219.04"/><line class="cls-32" x1="1018.23" y1="220.65" x2="1018.72" y2="219.8"/><line class="cls-32" x1="1019.94" y1="222.36" x2="1020.79" y2="221.87"/><line class="cls-32" x1="1011.86" y1="222.36" x2="1011.01" y2="221.87"/><path class="cls-32" d="M1017.36,228.62v1.31a1.47,1.47,0,0,1-.57,1.15,1.47,1.47,0,0,1-2.36-1.15v-1.31h0"/><path class="cls-32" d="M1014.43,228.74a1.45,1.45,0,0,0,.57,1.15,1.73,1.73,0,0,0,1.79,0,1.48,1.48,0,0,0,.57-1.15"/><path class="cls-32" d="M1014.43,228.62a3.85,3.85,0,1,1,2.93,0,4,4,0,0,1-.84.24,4.23,4.23,0,0,1-.63,0,4.07,4.07,0,0,1-.61,0A4,4,0,0,1,1014.43,228.62Z"/><path class="cls-32" d="M1015.28,228.84l-.37-1.78a.23.23,0,0,1,0-.18.21.21,0,0,1,.16-.08h1.58a.21.21,0,0,1,.16.08.23.23,0,0,1,0,.18l-.37,1.78"/><circle class="cls-4" cx="846.46" cy="191.79" r="40"/><text class="cls-25" transform="translate(819.25 183.12)">levantamento e<tspan x="1.17" y="11">priorização de </tspan><tspan x="6.6" y="22">indicadores</tspan></text><circle class="cls-18" cx="818.37" cy="149.98" r="7"/><text class="cls-9" transform="translate(816.09 152.68) rotate(-0.25)">D</text><circle class="cls-33" cx="805.71" cy="162.63" r="7"/><text class="cls-9" transform="translate(800.33 165.2) rotate(2.5)">MR</text><circle class="cls-10" cx="506.31" cy="660.2" r="7"/><text class="cls-9" transform="translate(501.75 662.86) rotate(-0.51)">PP</text><circle class="cls-18" cx="519.45" cy="626.57" r="7"/><text class="cls-9" transform="translate(517.16 629.27) rotate(-0.25)">D</text><circle class="cls-33" cx="509.85" cy="642.3" r="7"/><text class="cls-9" transform="translate(504.47 644.87) rotate(2.5)">MR</text><circle class="cls-22" cx="854.91" cy="139.82" r="9.36"/><path class="cls-34" d="M860.3,139.82a5.35,5.35,0,0,1-3.09,4.86,4.42,4.42,0,0,1-.6.24,5.38,5.38,0,1,1-1.7-10.49,5,5,0,0,1,1.82.33,3.85,3.85,0,0,1,.47.19A5.37,5.37,0,0,1,860.3,139.82Z"/><path class="cls-35" d="M860.3,139.82a5.65,5.65,0,0,1-3.57,5.15c-1.82-.86-2.6-3-2.6-5.15s.78-4.25,2.6-5.11A5.8,5.8,0,0,1,860.3,139.82Z"/><circle class="cls-22" cx="456.4" cy="479.25" r="9.36"/><path class="cls-31" d="M454.93,482.68a3.85,3.85,0,1,1,2.93,0,4,4,0,0,1-.84.24h0l.37-1.79a.21.21,0,0,0-.2-.25h-1.58a.21.21,0,0,0-.2.25l.37,1.79h0A3.46,3.46,0,0,1,454.93,482.68Z"/><path class="cls-30" d="M457.29,484a1.43,1.43,0,0,0,.57-1.15V484a1.46,1.46,0,0,1-.57,1.16,1.79,1.79,0,0,1-1.79,0,1.46,1.46,0,0,1-.57-1.16V482.8a1.43,1.43,0,0,0,.57,1.15,1.73,1.73,0,0,0,1.79,0Z"/><path class="cls-31" d="M457.35,481a.21.21,0,0,1,0,.17l-.37,1.79h0a3.22,3.22,0,0,1-.63.05,3.08,3.08,0,0,1-.61-.05h0l-.37-1.79a.21.21,0,0,1,.2-.25h1.58A.21.21,0,0,1,457.35,481Z"/><path class="cls-30" d="M457.86,482.8a1.43,1.43,0,0,1-.57,1.15,1.73,1.73,0,0,1-1.79,0,1.43,1.43,0,0,1-.57-1.15v-.12a3.46,3.46,0,0,0,.85.24,3.08,3.08,0,0,0,.61.05,3.22,3.22,0,0,0,.63-.05,4,4,0,0,0,.84-.24h0Z"/><line class="cls-32" x1="454.07" y1="474.72" x2="453.58" y2="473.86"/><line class="cls-32" x1="456.4" y1="474.09" x2="456.4" y2="473.11"/><line class="cls-32" x1="458.73" y1="474.72" x2="459.23" y2="473.86"/><line class="cls-32" x1="460.44" y1="476.42" x2="461.29" y2="475.93"/><line class="cls-32" x1="452.36" y1="476.42" x2="451.51" y2="475.93"/><path class="cls-32" d="M457.86,482.69V484a1.46,1.46,0,0,1-.57,1.16,1.79,1.79,0,0,1-1.79,0,1.46,1.46,0,0,1-.57-1.16v-1.31h0"/><path class="cls-32" d="M454.93,482.8a1.43,1.43,0,0,0,.57,1.15,1.73,1.73,0,0,0,1.79,0,1.43,1.43,0,0,0,.57-1.15"/><path class="cls-32" d="M454.93,482.68a3.85,3.85,0,1,1,2.93,0,4,4,0,0,1-.84.24,3.22,3.22,0,0,1-.63.05,3.08,3.08,0,0,1-.61-.05A3.46,3.46,0,0,1,454.93,482.68Z"/><path class="cls-32" d="M455.78,482.91l-.37-1.79a.21.21,0,0,1,.2-.25h1.58a.21.21,0,0,1,.2.25l-.37,1.79"/><circle class="cls-36" cx="603.06" cy="190.3" r="26.21"/><line class="cls-11" x1="665.87" y1="97.84" x2="665.87" y2="217.19"/><text class="cls-14" transform="translate(671.92 106.31)">PRIORIZAÇÃO</text><path class="cls-37" d="M614.06,183.41v13.78a11,11,0,1,1-22,0V183.41a11,11,0,1,1,22,0Zm-5.52,0a5.48,5.48,0,1,0-5.48,5.48A5.48,5.48,0,0,0,608.54,183.43Zm0,15.35a5.48,5.48,0,1,0-5.48,5.47A5.48,5.48,0,0,0,608.54,198.78Z"/><path class="cls-38" d="M603.06,178a5.48,5.48,0,1,1-5.47,5.47A5.48,5.48,0,0,1,603.06,178Zm2.51,5.14a.44.44,0,0,0,0-.62l-2.2-2.19,0,0a.24.24,0,0,0-.11-.06l0,0h-.26l0,0-.08,0-.07,0-2.19,2.2a.44.44,0,0,0,0,.62.43.43,0,0,0,.61,0l1.46-1.46v4.95a.44.44,0,1,0,.87,0v-4.95L605,183.1A.44.44,0,0,0,605.57,183.1Z"/><path class="cls-10" d="M603.06,193.3a5.48,5.48,0,1,1-5.47,5.48A5.48,5.48,0,0,1,603.06,193.3Zm3.44,5.48a.35.35,0,0,0,0-.17s0,0,0,0l0-.05,0-.06,0,0-2.17-2.17a.44.44,0,1,0-.62.62l1.46,1.45h-5a.44.44,0,1,0,0,.88H605l-1.44,1.44a.44.44,0,1,0,.62.62l2.16-2.16,0,0A.44.44,0,0,0,606.5,198.78Z"/><path class="cls-39" d="M606.5,198.78a.44.44,0,0,1-.13.31l0,0a.45.45,0,0,1-.28.1H605l.44-.44-.43-.44h1a.45.45,0,0,1,.28.1l0,0,0,.06,0,.05s0,0,0,0A.35.35,0,0,1,606.5,198.78Z"/><path class="cls-39" d="M606.45,198.58s0,0,0,0S606.45,198.59,606.45,198.58Z"/><path class="cls-39" d="M606.37,198.47l0,.06Z"/><path class="cls-39" d="M606.34,198.44l0,0Z"/><path class="cls-39" d="M606.34,199.12l-2.16,2.16a.44.44,0,1,1-.62-.62l1.44-1.44h1.06A.45.45,0,0,0,606.34,199.12Z"/><path class="cls-39" d="M604.17,196.27l2.17,2.17a.45.45,0,0,0-.28-.1h-1l-1.46-1.45a.44.44,0,1,1,.62-.62Z"/><path class="cls-39" d="M605.57,182.48a.44.44,0,0,1-.62.62l-1.45-1.45V180.6a.44.44,0,0,0-.13-.31Z"/><path class="cls-39" d="M605.44,198.78l-.44.44h-4.94a.44.44,0,1,1,0-.88h5Z"/><path class="cls-39" d="M603.5,181.65v4.95a.44.44,0,1,1-.87,0v-4.95l.43-.43Z"/><path class="cls-39" d="M603.34,180.26a.24.24,0,0,0-.11-.06A.24.24,0,0,1,603.34,180.26Z"/><path class="cls-39" d="M603.19,180.18h0Z"/><path class="cls-39" d="M603.06,180.16h.13l0,0a.24.24,0,0,1,.11.06l0,0a.44.44,0,0,1,.13.31v1.05l-.44-.43-.43.43V180.6a.48.48,0,0,1,.12-.31l.07,0,.08,0,0,0h.13Z"/><path class="cls-39" d="M603,180.17h0Z"/><path class="cls-39" d="M602.9,180.2l-.08,0Z"/><path class="cls-39" d="M600.56,182.49l2.19-2.2a.48.48,0,0,0-.12.31v1.05l-1.46,1.46a.43.43,0,0,1-.61,0A.44.44,0,0,1,600.56,182.49Z"/><path class="cls-40" d="M603.06,172.41a11,11,0,0,0-11,11v13.78a11,11,0,0,0,22,0V183.41A11,11,0,0,0,603.06,172.41Z"/><circle class="cls-40" cx="603.06" cy="183.43" r="5.47"/><circle class="cls-40" cx="603.06" cy="198.78" r="5.47"/><path class="cls-40" d="M595.84,183.43a7.22,7.22,0,0,1,14.44,0"/><path class="cls-40" d="M595.84,198.77a7.22,7.22,0,1,1,14.44,0"/><rect class="cls-41" x="1597.47" y="537.66" width="205.79" height="175.88"/><text class="cls-42" transform="translate(1597.47 531.66)">APRENDIZADOS</text><circle class="cls-18" cx="1634.41" cy="571.24" r="7"/><text class="cls-9" transform="translate(1632.14 573.9)">D</text><circle class="cls-10" cx="1634.41" cy="671.41" r="7"/><text class="cls-9" transform="translate(1629.85 674.01)">PP</text><circle class="cls-10" cx="1634.41" cy="611.23" r="7"/><circle class="cls-20" cx="1634.41" cy="611.24" r="7"/><text class="cls-9" transform="translate(1629.81 613.85)">CC</text><circle class="cls-21" cx="1634.41" cy="631.22" r="7"/><text class="cls-9" transform="translate(1629.85 633.95)">CD</text><circle class="cls-8" cx="1634.42" cy="651.12" r="7"/><text class="cls-9" transform="translate(1629.95 653.71)">SD</text><circle class="cls-33" cx="1634.41" cy="591.24" r="7"/><text class="cls-9" transform="translate(1629.06 593.97)">MR</text><text class="cls-43" transform="translate(1648.69 574.65)">design<tspan x="0" y="19.98">mobilização de rede</tspan><tspan x="0" y="39.95">campanhas de comunicação</tspan><tspan x="0" y="59.93">ciência de dados</tspan><tspan x="0" y="79.9">soluções digitais</tspan><tspan x="0" y="99.88">políticas públicas informadas</tspan><tspan x="0" y="111.88">por evidência</tspan></text><rect class="cls-44" x="1836.11" y="537.66" width="206.83" height="175.88"/><text class="cls-42" transform="translate(1836.11 532.37)">INOVAÇÃO ABERTA</text><circle class="cls-22" cx="1875.41" cy="573.61" r="9.36"/><text class="cls-43" transform="translate(1890.33 576.23)">inovação aberta</text><text class="cls-45" transform="translate(1866.04 598.47)">Sempre que houver este símbolo, o <tspan x="0" y="12">processo poderá ser aberto para </tspan><tspan x="0" y="24">participação de atores externos nas </tspan><tspan x="0" y="36">fases subsequentes, por meio de </tspan><tspan x="0" y="48">encomendas tecnológicas, hackathons </tspan><tspan x="0" y="60">ou concursos.</tspan></text><rect class="cls-44" x="2075.78" y="537.66" width="206.83" height="175.88"/><text class="cls-42" transform="translate(2076.44 532.37)">LADO SOMBRIO</text><text class="cls-43" transform="translate(2130.67 576.23)">lado sombrio</text><text class="cls-45" transform="translate(2106.38 598.47)">A priorização de indicadores começa <tspan x="0" y="12">pelo “lado sombrio” – um processo </tspan><tspan x="0" y="24">colaborativo entre especialistas para </tspan><tspan x="0" y="36">imaginar a rotina do gestor mais </tspan><tspan x="0" y="48">ineficiente ou mais corrupto possível. </tspan><tspan x="0" y="60">Como ele esconderia ineficiências ou </tspan><tspan x="0" y="72">desvios de recursos? Quais dados, e em </tspan><tspan x="0" y="84">qual ordem, precisaríamos enxergar para </tspan><tspan x="0" y="96">evitar o pior?</tspan></text><circle class="cls-22" cx="2115.73" cy="573.61" r="9.36"/><path class="cls-34" d="M2121.12,573.6a5.35,5.35,0,0,1-3.09,4.87,6.25,6.25,0,0,1-.6.24,5.32,5.32,0,0,1-1.7.28,5.39,5.39,0,0,1,0-10.77,5.2,5.2,0,0,1,1.82.32l.47.2A5.37,5.37,0,0,1,2121.12,573.6Z"/><path class="cls-46" d="M2121.12,573.6a5.65,5.65,0,0,1-3.57,5.16c-1.81-.86-2.6-3-2.6-5.16s.79-4.24,2.6-5.1A5.8,5.8,0,0,1,2121.12,573.6Z"/><path class="cls-31" d="M1873.94,577a3.85,3.85,0,1,1,2.93,0,4,4,0,0,1-.84.24h0l.37-1.79a.23.23,0,0,0,0-.18.21.21,0,0,0-.16-.08h-1.58a.21.21,0,0,0-.16.08.2.2,0,0,0,0,.18l.37,1.78v0A3.8,3.8,0,0,1,1873.94,577Z"/><path class="cls-30" d="M1876.87,577.16v1.19a1.47,1.47,0,0,1-.57,1.15,1.44,1.44,0,0,1-.9.25,1.39,1.39,0,0,1-.89-.25,1.44,1.44,0,0,1-.57-1.15v-1.19a1.44,1.44,0,0,0,.57,1.15,1.39,1.39,0,0,0,.89.25,1.44,1.44,0,0,0,.9-.25A1.47,1.47,0,0,0,1876.87,577.16Z"/><path class="cls-30" d="M1876.87,577v.12a1.47,1.47,0,0,1-.57,1.15,1.44,1.44,0,0,1-.9.25,1.39,1.39,0,0,1-.89-.25,1.44,1.44,0,0,1-.57-1.15V577a3.8,3.8,0,0,0,.85.24,4.07,4.07,0,0,0,.61.05,4.23,4.23,0,0,0,.63-.05,4,4,0,0,0,.84-.24Z"/><path class="cls-31" d="M1876.36,575.3a.23.23,0,0,1,0,.18l-.37,1.79h0a4.23,4.23,0,0,1-.63.05,4.07,4.07,0,0,1-.61-.05v0l-.37-1.78a.2.2,0,0,1,0-.18.21.21,0,0,1,.16-.08h1.58A.21.21,0,0,1,1876.36,575.3Z"/><line class="cls-32" x1="1873.08" y1="569.07" x2="1872.58" y2="568.22"/><line class="cls-32" x1="1875.41" y1="568.45" x2="1875.41" y2="567.46"/><line class="cls-32" x1="1877.74" y1="569.07" x2="1878.23" y2="568.22"/><line class="cls-32" x1="1879.45" y1="570.78" x2="1880.3" y2="570.29"/><line class="cls-32" x1="1871.37" y1="570.78" x2="1870.52" y2="570.29"/><path class="cls-32" d="M1876.87,577v1.31a1.47,1.47,0,0,1-.57,1.15,1.44,1.44,0,0,1-.9.25,1.39,1.39,0,0,1-.89-.25,1.44,1.44,0,0,1-.57-1.15V577h0"/><path class="cls-32" d="M1873.94,577.16a1.44,1.44,0,0,0,.57,1.15,1.39,1.39,0,0,0,.89.25,1.44,1.44,0,0,0,.9-.25,1.47,1.47,0,0,0,.57-1.15"/><path class="cls-32" d="M1873.94,577a3.85,3.85,0,1,1,2.93,0,4,4,0,0,1-.84.24,4.23,4.23,0,0,1-.63.05,4.07,4.07,0,0,1-.61-.05A3.8,3.8,0,0,1,1873.94,577Z"/><path class="cls-32" d="M1874.79,577.26l-.37-1.78a.2.2,0,0,1,0-.18.21.21,0,0,1,.16-.08h1.58a.21.21,0,0,1,.16.08.23.23,0,0,1,0,.18l-.37,1.79"/><path class="cls-6" d="M996.77,462.22A145.54,145.54,0,0,0,851.23,316.68a75,75,0,0,0-75,75c0,41.43,33.58,75,75.89,75H1051"/><path class="cls-17" d="M801.37,447.62a.69.69,0,0,1-1,0l-9.31-10.2a.69.69,0,1,1,1-.93l9.31,10.19A.69.69,0,0,1,801.37,447.62Z"/><path class="cls-17" d="M801.37,447.62a.72.72,0,0,1-.5.18l-4.91-.22a.7.7,0,1,1,.06-1.39l4.22.19.19-4.23a.69.69,0,0,1,.72-.66.68.68,0,0,1,.66.72l-.22,4.93A.72.72,0,0,1,801.37,447.62Z"/><path class="cls-17" d="M988.14,413.7a.69.69,0,0,1-.9-.38l-5.16-12.8a.69.69,0,1,1,1.28-.52l5.17,12.8A.69.69,0,0,1,988.14,413.7Z"/><path class="cls-17" d="M988.14,413.7a.7.7,0,0,1-.53,0l-4.52-1.93a.69.69,0,1,1,.54-1.27l3.89,1.65,1.66-3.9a.69.69,0,1,1,1.27.54l-1.93,4.54A.69.69,0,0,1,988.14,413.7Z"/><path class="cls-17" d="M845.28,316.88a.71.71,0,0,1,.69-.71l13.8-.21a.69.69,0,0,1,.7.68.69.69,0,0,1-.68.71l-13.8.21A.7.7,0,0,1,845.28,316.88Z"/><path class="cls-17" d="M845.28,316.88a.72.72,0,0,1,.2-.5l3.42-3.53a.7.7,0,0,1,1,1l-2.94,3,3,2.95a.69.69,0,0,1,0,1,.69.69,0,0,1-1,0l-3.55-3.44A.71.71,0,0,1,845.28,316.88Z"/><path class="cls-17" d="M957.93,466.62a.69.69,0,0,1-.69.7H943.43a.7.7,0,0,1,0-1.39h13.81A.69.69,0,0,1,957.93,466.62Z"/><path class="cls-17" d="M957.93,466.62a.68.68,0,0,1-.2.49l-3.48,3.48a.69.69,0,1,1-1-1l3-3-3-3a.69.69,0,0,1,1-1l3.49,3.48A.7.7,0,0,1,957.93,466.62Z"/><line class="cls-6" x1="985.88" y1="466.68" x2="1514.9" y2="466.68"/><circle class="cls-7" cx="1260.99" cy="466.69" r="40"/><circle class="cls-7" cx="1122.45" cy="466.69" r="40"/><circle class="cls-7" cx="1387.95" cy="466.69" r="40"/><circle class="cls-17" cx="1514.9" cy="466.68" r="37.5"/><path class="cls-18" d="M1514.9,431.69a35,35,0,1,1-35,35,35,35,0,0,1,35-35m0-5a40,40,0,1,0,40,40,40,40,0,0,0-40-40Z"/><circle class="cls-7" cx="888.66" cy="466.46" r="40"/><text class="cls-16" transform="translate(530.16 522.86)">APROFUNDAMENTO</text><path class="cls-17" d="M718.25,551.65a.79.79,0,0,1-.78-.78l0-15.49a.78.78,0,0,1,1.56,0L719,550.87A.78.78,0,0,1,718.25,551.65Z"/><path class="cls-17" d="M718.25,551.65a.83.83,0,0,1-.55-.23l-3.89-3.92a.78.78,0,0,1,1.11-1.09l3.33,3.36,3.38-3.35a.78.78,0,0,1,1.1,0,.78.78,0,0,1,0,1.1l-3.92,3.9A.83.83,0,0,1,718.25,551.65Z"/><path class="cls-6" d="M996.25,447.81v60.08c0,46.45-37.66,86.1-84.11,86.1H719.52"/><path class="cls-17" d="M995.56,518.37a.78.78,0,0,1,.59.93l-3.51,15.08a.78.78,0,0,1-1.51-.35l3.5-15.08A.78.78,0,0,1,995.56,518.37Z"/><path class="cls-17" d="M995.56,518.37a.75.75,0,0,1,.49.34l2.91,4.68a.77.77,0,0,1-.24,1.07.79.79,0,0,1-1.08-.24l-2.5-4-4,2.51a.77.77,0,0,1-1.07-.25.79.79,0,0,1,.25-1.07l4.7-2.92A.74.74,0,0,1,995.56,518.37Z"/><path class="cls-17" d="M780.1,594a.78.78,0,0,1-.78.78H763.84a.78.78,0,0,1,0-1.56h15.48A.78.78,0,0,1,780.1,594Z"/><path class="cls-17" d="M780.1,594a.78.78,0,0,1-.23.55l-3.89,3.9a.78.78,0,0,1-1.1,0,.77.77,0,0,1,0-1.1l3.35-3.35-3.37-3.36a.78.78,0,0,1,0-1.1.77.77,0,0,1,1.1,0l3.91,3.91A.75.75,0,0,1,780.1,594Z"/><path class="cls-17" d="M861.28,594a.78.78,0,0,1-.78.78H845a.78.78,0,0,1,0-1.56H860.5A.78.78,0,0,1,861.28,594Z"/><path class="cls-17" d="M861.28,594a.78.78,0,0,1-.23.55l-3.9,3.9a.78.78,0,1,1-1.1-1.1L859.4,594,856,590.64a.78.78,0,0,1,0-1.1.77.77,0,0,1,1.1,0l3.91,3.91A.75.75,0,0,1,861.28,594Z"/><path class="cls-17" d="M944.33,587.27a.8.8,0,0,1-.49,1l-14.68,4.9a.78.78,0,1,1-.5-1.47l14.69-4.91A.79.79,0,0,1,944.33,587.27Z"/><path class="cls-17" d="M944.33,587.27a.83.83,0,0,1,0,.6l-2.47,4.93a.78.78,0,1,1-1.39-.69l2.12-4.24-4.26-2.13a.77.77,0,0,1-.34-1,.78.78,0,0,1,1-.35l5,2.47A.86.86,0,0,1,944.33,587.27Z"/><path class="cls-17" d="M1191.39,466.69a.78.78,0,0,1-.78.78h-15.48a.78.78,0,1,1,0-1.56h15.48A.78.78,0,0,1,1191.39,466.69Z"/><path class="cls-17" d="M1191.39,466.69a.76.76,0,0,1-.23.55l-3.9,3.9a.78.78,0,1,1-1.1-1.1l3.35-3.35-3.36-3.36a.78.78,0,1,1,1.1-1.1l3.91,3.91A.76.76,0,0,1,1191.39,466.69Z"/><path class="cls-17" d="M1333,466.69a.78.78,0,0,1-.78.78h-15.48a.78.78,0,1,1,0-1.56h15.48A.78.78,0,0,1,1333,466.69Z"/><path class="cls-17" d="M1333,466.69a.81.81,0,0,1-.23.55l-3.9,3.9a.78.78,0,1,1-1.1-1.1l3.35-3.35-3.36-3.36a.77.77,0,0,1,0-1.1.78.78,0,0,1,1.1,0l3.91,3.91A.81.81,0,0,1,1333,466.69Z"/><path class="cls-17" d="M1456.88,466.69a.77.77,0,0,1-.77.78h-15.48a.78.78,0,1,1,0-1.56h15.48A.77.77,0,0,1,1456.88,466.69Z"/><path class="cls-17" d="M1456.88,466.69a.8.8,0,0,1-.22.55l-3.9,3.9a.78.78,0,1,1-1.1-1.1l3.35-3.35-3.36-3.36a.77.77,0,0,1,0-1.1.78.78,0,0,1,1.1,0l3.91,3.91A.8.8,0,0,1,1456.88,466.69Z"/><path class="cls-17" d="M1051.48,466.69a.78.78,0,0,1-.78.78h-15.48a.78.78,0,1,1,0-1.56h15.48A.78.78,0,0,1,1051.48,466.69Z"/><path class="cls-17" d="M1051.48,466.69a.76.76,0,0,1-.23.55l-3.9,3.9a.78.78,0,1,1-1.1-1.1l3.35-3.35-3.36-3.36a.78.78,0,1,1,1.1-1.1l3.91,3.91A.76.76,0,0,1,1051.48,466.69Z"/><line class="cls-19" x1="735.37" y1="508.99" x2="530.16" y2="508.99"/><circle class="cls-7" cx="940.36" cy="346.7" r="40"/><circle class="cls-10" cx="1474.25" cy="437.53" r="7"/><text class="cls-9" transform="translate(1469.69 440.19)">PP</text><circle class="cls-20" cx="1219.97" cy="437.53" r="7"/><text class="cls-9" transform="translate(1215.37 440.13)">CC</text><circle class="cls-20" cx="1346.54" cy="437.53" r="7"/><text class="cls-9" transform="translate(1341.95 440.13)">CC</text><circle class="cls-10" cx="1081.48" cy="437.51" r="7"/><text class="cls-9" transform="translate(1076.92 440.17)">PP</text><circle class="cls-18" cx="739.37" cy="348.85" r="7"/><text class="cls-9" transform="translate(737.11 351.51)">D</text><circle class="cls-18" cx="923.13" cy="298.61" r="7"/><text class="cls-9" transform="translate(920.86 301.27)">D</text><circle class="cls-10" cx="943.25" cy="295.88" r="7"/><text class="cls-9" transform="translate(938.69 298.61)">PP</text><text class="cls-16" transform="translate(1073.62 378.21)">IMPLEMENTAÇÃO</text><circle class="cls-7" cx="996.03" cy="466.79" r="26.21"/><text class="cls-16" transform="translate(1209.31 378.5)">COMUNICAÇÃO</text><line class="cls-19" x1="1203.31" y1="370.03" x2="1203.31" y2="488.2"/><path class="cls-37" d="M1007.59,461.07v13.78a11,11,0,0,1-22,0V461.07a11,11,0,0,1,22,0Zm-5.53,0a5.48,5.48,0,1,0-5.47,5.48A5.47,5.47,0,0,0,1002.06,461.09Zm0,15.35a5.48,5.48,0,1,0-5.47,5.48A5.47,5.47,0,0,0,1002.06,476.44Z"/><path class="cls-38" d="M996.59,455.62a5.48,5.48,0,1,1-5.48,5.47A5.47,5.47,0,0,1,996.59,455.62Zm2.5,5.14a.44.44,0,0,0,0-.62L996.93,458l0,0-.1-.08h0l0,0h0l-.11,0-.1,0h0l0,0h0l-.11.08,0,0-2.17,2.17a.44.44,0,0,0,.62.62l1.46-1.45v4.94a.44.44,0,0,0,.43.44.44.44,0,0,0,.44-.44v-4.94l1.45,1.44A.43.43,0,0,0,999.09,460.76Z"/><path class="cls-10" d="M996.59,471a5.48,5.48,0,1,1-5.48,5.47A5.47,5.47,0,0,1,996.59,471Zm3.44,5.47a.29.29,0,0,0,0-.09v0a.49.49,0,0,0-.11-.18l0,0-2.17-2.17a.44.44,0,0,0-.62,0,.43.43,0,0,0,0,.61l1.45,1.46h-4.94a.44.44,0,1,0,0,.87h4.94l-1.44,1.45a.43.43,0,0,0,0,.61.44.44,0,0,0,.62,0l2.19-2.19a.42.42,0,0,0,.11-.18v0A.43.43,0,0,0,1000,476.44Z"/><path class="cls-39" d="M1000,476.35v0Z"/><path class="cls-39" d="M1000,476.57v0Z"/><path class="cls-39" d="M1000,476.57a.42.42,0,0,1-.11.18.44.44,0,0,1-.31.13h-1.06l.44-.44-.44-.43h1.06a.42.42,0,0,1,.28.1l0,0a.49.49,0,0,1,.11.18v0a.29.29,0,0,1,0,.09.43.43,0,0,1,0,.11Z"/><path class="cls-39" d="M999.9,476.75l-2.19,2.19a.44.44,0,0,1-.62,0,.43.43,0,0,1,0-.61l1.44-1.45h1.06A.44.44,0,0,0,999.9,476.75Z"/><path class="cls-39" d="M997.7,473.94l2.17,2.17a.42.42,0,0,0-.28-.1h-1.06l-1.45-1.46a.43.43,0,0,1,0-.61A.44.44,0,0,1,997.7,473.94Z"/><path class="cls-39" d="M999.09,460.14a.44.44,0,0,1,0,.62.43.43,0,0,1-.61,0L997,459.32v-1.06a.48.48,0,0,0-.1-.28Z"/><path class="cls-39" d="M999,476.44l-.44.44h-4.94a.44.44,0,1,1,0-.87h4.94Z"/><path class="cls-39" d="M997,459.32v4.94a.44.44,0,0,1-.44.44.44.44,0,0,1-.43-.44v-4.94l.43-.44Z"/><path class="cls-39" d="M996.8,457.87h0Z"/><path class="cls-39" d="M996.72,457.84h0Z"/><path class="cls-39" d="M996.49,457.84l.1,0,.11,0h0l0,0h0l.1.08,0,0a.48.48,0,0,1,.1.28v1.06l-.44-.44-.43.44v-1.06a.47.47,0,0,1,.09-.28l0,0,.11-.08h0l0,0Z"/><path class="cls-39" d="M996.49,457.84h0Z"/><path class="cls-39" d="M996.43,457.86h0Z"/><path class="cls-39" d="M994.08,460.15l2.17-2.17a.47.47,0,0,0-.09.28v1.06l-1.46,1.45a.44.44,0,0,1-.62-.62Z"/><path class="cls-47" d="M996.59,450.07a11,11,0,0,0-11,11v13.78a11,11,0,0,0,22,0V461.07A11,11,0,0,0,996.59,450.07Z"/><circle class="cls-48" cx="996.59" cy="461.09" r="5.47"/><circle class="cls-48" cx="996.59" cy="476.44" r="5.47"/><path class="cls-48" d="M989.36,461.09a7.23,7.23,0,0,1,14.45,0"/><path class="cls-48" d="M989.36,476.43a7.23,7.23,0,0,1,14.45,0"/><path class="cls-30" d="M1529.38,471c1.54,3.17,1.1,7.88,1.07,8.23a1.38,1.38,0,0,0-.51-1c-1-.92-3.35-1.57-6.09-1.57s-5.1.65-6.09,1.57a1.34,1.34,0,0,0-.51,1s-.53-5,1.07-8.25v-.17h0c.2-1.11,2.59-2,5.52-2s5.33.88,5.52,2Z"/><path class="cls-22" d="M1530.45,479.27v0c0,1.41-3,2.55-6.6,2.55s-6.6-1.14-6.6-2.55a1.34,1.34,0,0,1,.51-1c1,.92,3.35,1.56,6.09,1.56s5.1-.64,6.09-1.56a1.38,1.38,0,0,1,.51,1Z"/><path class="cls-30" d="M1528.2,455.17l1.17,15.7c-.19-1.11-2.59-2-5.52-2s-5.32.88-5.52,2l.2-2.73h.46l.92-1.82v-4.44H1519l.5-6.71.33-.65h0a8.34,8.34,0,0,1,8,0Z"/><path class="cls-8" d="M1523.85,476.74c2.74,0,5.1.65,6.09,1.57-1,.92-3.35,1.56-6.09,1.56s-5.1-.64-6.09-1.56C1518.75,477.39,1521.11,476.74,1523.85,476.74Z"/><path class="cls-22" d="M1527.18,453.19l.68,1.33a8.34,8.34,0,0,0-8,0l.69-1.33h0c0-.71,1.49-1.29,3.33-1.29S1527.18,452.48,1527.18,453.19Z"/><polygon class="cls-30" points="1519.91 461.88 1519.91 466.32 1509.88 466.32 1509.88 461.88 1510.79 461.88 1519 461.88 1519.91 461.88"/><polygon class="cls-22" points="1519.91 466.32 1518.99 468.14 1518.53 468.14 1511.26 468.14 1510.8 468.14 1509.88 466.32 1519.91 466.32"/><path class="cls-30" d="M1512.54,479.27h0v0a1.36,1.36,0,0,0-.5-1c-1-.92-3.35-1.57-6.1-1.57s-5.09.65-6.09,1.57a1.38,1.38,0,0,0-.51,1s-.53-5,1.07-8.25v-.15c.17-1.12,2.58-2,5.52-2s5.34.88,5.52,2h0V471C1513,474.21,1512.58,478.92,1512.54,479.27Z"/><path class="cls-22" d="M1512,478.31a1.36,1.36,0,0,1,.5,1c0,1.41-3,2.55-6.6,2.55s-6.6-1.14-6.6-2.55a1.38,1.38,0,0,1,.51-1h0c1,.92,3.35,1.56,6.09,1.56S1511,479.23,1512,478.31Z"/><path class="cls-30" d="M1511.46,470.87h0c-.18-1.11-2.58-2-5.52-2s-5.35.89-5.52,2l1.17-15.72.34-.65a8.34,8.34,0,0,1,8,0h0l.33.64.5,6.71h-.91v4.44l.92,1.82h.46Z"/><path class="cls-8" d="M1505.94,476.74c2.75,0,5.1.65,6.1,1.57-1,.92-3.35,1.56-6.1,1.56s-5.09-.64-6.09-1.56h0C1500.85,477.39,1503.2,476.74,1505.94,476.74Z"/><path class="cls-22" d="M1509.27,453.19l.69,1.33a8.34,8.34,0,0,0-8,0l.68-1.33c0-.71,1.49-1.29,3.33-1.29S1509.27,452.48,1509.27,453.19Z"/><path class="cls-24" d="M1530.45,479.27v0c0,1.41-3,2.55-6.6,2.55s-6.6-1.14-6.6-2.55a1.34,1.34,0,0,1,.51-1c1-.92,3.35-1.57,6.09-1.57s5.1.65,6.09,1.57a1.38,1.38,0,0,1,.51,1"/><path class="cls-24" d="M1512.54,479.29c0,1.41-3,2.55-6.6,2.55s-6.6-1.14-6.6-2.55a1.38,1.38,0,0,1,.51-1c1-.92,3.35-1.57,6.09-1.57s5.1.65,6.1,1.57A1.36,1.36,0,0,1,1512.54,479.29Z"/><path class="cls-24" d="M1517.76,478.31c1,.92,3.35,1.56,6.09,1.56s5.1-.64,6.09-1.56"/><path class="cls-24" d="M1499.85,478.31c1,.92,3.35,1.56,6.09,1.56s5.1-.64,6.1-1.56"/><path class="cls-24" d="M1511.46,470.88a.62.62,0,0,1,0,.13"/><path class="cls-24" d="M1500.41,471s0-.08,0-.12c.17-1.12,2.58-2,5.52-2s5.34.88,5.52,2"/><path class="cls-24" d="M1502.61,453.19c0-.71,1.49-1.29,3.33-1.29s3.33.58,3.33,1.29"/><path class="cls-24" d="M1510,454.53a.84.84,0,0,1,.33.64"/><path class="cls-24" d="M1501.59,455.17a.89.89,0,0,1,.34-.65,8.34,8.34,0,0,1,8,0"/><path class="cls-24" d="M1519.83,454.52a8.34,8.34,0,0,1,8,0,.89.89,0,0,1,.34.65"/><path class="cls-24" d="M1519.5,455.17a.92.92,0,0,1,.33-.65"/><path class="cls-24" d="M1520.52,453.19c0-.71,1.49-1.29,3.33-1.29s3.33.58,3.33,1.29"/><path class="cls-24" d="M1518.33,470.87c.2-1.11,2.59-2,5.52-2s5.33.88,5.52,2a.71.71,0,0,1,0,.14"/><path class="cls-24" d="M1518.32,471a.61.61,0,0,1,0-.14"/><polygon class="cls-24" points="1509.88 466.32 1519.91 466.32 1519.91 461.88 1519 461.88 1510.79 461.88 1509.88 461.88 1509.88 466.32"/><polyline class="cls-24" points="1509.88 466.32 1510.8 468.14 1511.26 468.14 1518.53 468.14 1518.99 468.14 1519.91 466.32"/><path class="cls-24" d="M1502.61,453.19l-.68,1.33-.34.65-1.17,15.72V471c-1.6,3.29-1.07,8.25-1.07,8.25"/><path class="cls-24" d="M1511.26,468.14l.2,2.73h0V471c1.53,3.17,1.1,7.88,1.06,8.23h0v0"/><polyline class="cls-24" points="1510.79 461.88 1510.29 455.17 1509.96 454.53 1509.96 454.52 1509.27 453.19"/><path class="cls-24" d="M1518.53,468.14l-.2,2.73h0V471c-1.6,3.29-1.07,8.25-1.07,8.25"/><polyline class="cls-24" points="1519 461.88 1519.5 455.17 1519.83 454.52 1519.83 454.52 1520.52 453.19"/><path class="cls-24" d="M1527.18,453.19l.68,1.33.34.65,1.17,15.7V471c1.54,3.17,1.1,7.88,1.07,8.23h0v0"/><circle class="cls-21" cx="860.25" cy="424.69" r="7"/><text class="cls-9" transform="translate(855.69 427.41)">CD</text><circle class="cls-8" cx="847.59" cy="437.31" r="7"/><text class="cls-9" transform="translate(843.14 440.04)">SD</text><text class="cls-27" transform="translate(925.81 339.17)">geração<tspan x="-7.96" y="11">e seleção de</tspan><tspan x="-6.66" y="22">alternativas</tspan></text><text class="cls-27" transform="translate(871.13 465.59)"><tspan class="cls-28">teste com</tspan><tspan x="0.85" y="11">o usuário</tspan></text><text class="cls-26" transform="translate(1099.34 465.13)">estratégia de<tspan x="-4.26" y="11">implementação</tspan></text><text class="cls-26" transform="translate(1243.32 464.14)">produção<tspan x="-3.52" y="11">de relatório</tspan></text><text class="cls-26" transform="translate(1368.75 465.14)">divulgação<tspan x="1.26" y="11">do projeto</tspan></text><line class="cls-19" x1="1067.57" y1="370.03" x2="1067.57" y2="485.75"/><circle class="cls-7" cx="780.12" cy="378" r="40"/><text class="cls-27" transform="translate(759.47 375.93)"><tspan class="cls-28">desenh</tspan><tspan x="25.75" y="0">o do</tspan><tspan x="4.13" y="11">protótipo</tspan></text><text class="cls-16" transform="translate(1012.75 569.18)">SESSÃO DE IDEIAS</text><line class="cls-19" x1="961.67" y1="553.11" x2="1115.51" y2="553.11"/><path class="cls-17" d="M594,595.05a.78.78,0,0,0-1-.51l-14.79,4.57a.77.77,0,0,0,.46,1.48L593.5,596A.78.78,0,0,0,594,595.05Z"/><path class="cls-17" d="M594,595.05a.83.83,0,0,0-.38-.46L588.76,592a.78.78,0,1,0-.73,1.37l4.19,2.21L590,599.81a.78.78,0,1,0,1.38.72l2.58-4.89A.76.76,0,0,0,594,595.05Z"/><path class="cls-17" d="M700.6,659a.77.77,0,0,0,1-.37l6.68-14a.78.78,0,0,0-.37-1,.77.77,0,0,0-1,.37l-6.68,14A.78.78,0,0,0,700.6,659Z"/><path class="cls-17" d="M700.6,659a.75.75,0,0,0,.59,0l5.2-1.84a.77.77,0,0,0,.47-1,.78.78,0,0,0-1-.47l-4.47,1.58-1.58-4.49a.78.78,0,0,0-1-.47.76.76,0,0,0-.47,1l1.84,5.22A.78.78,0,0,0,700.6,659Z"/><path class="cls-17" d="M634.13,707.72a.78.78,0,0,0,1,.48l14.63-5.05a.77.77,0,0,0,.48-1,.78.78,0,0,0-1-.48l-14.63,5.05A.77.77,0,0,0,634.13,707.72Z"/><path class="cls-17" d="M634.13,707.72a.8.8,0,0,0,.39.44l5,2.42a.79.79,0,0,0,1-.36.77.77,0,0,0-.36-1l-4.26-2.08,2.08-4.27a.77.77,0,1,0-1.39-.68l-2.43,5A.78.78,0,0,0,634.13,707.72Z"/><path class="cls-17" d="M674.59,594.21a.78.78,0,0,0-.78-.78H658.33a.78.78,0,1,0,0,1.55h15.48A.78.78,0,0,0,674.59,594.21Z"/><path class="cls-17" d="M674.59,594.21a.75.75,0,0,0-.23-.55l-3.9-3.9a.77.77,0,0,0-1.1,0,.78.78,0,0,0,0,1.1l3.35,3.35-3.36,3.36a.77.77,0,0,0,0,1.1.78.78,0,0,0,1.1,0l3.91-3.91A.78.78,0,0,0,674.59,594.21Z"/><circle class="cls-7" cx="718.13" cy="596.4" r="26.21"/><path class="cls-37" d="M729.13,603.29V589.51a11,11,0,0,0-22,0v13.78a11,11,0,0,0,22,0Zm-5.53,0a5.48,5.48,0,1,1-5.47-5.48A5.47,5.47,0,0,1,723.6,603.27Zm0-15.35a5.48,5.48,0,1,1-5.47-5.48A5.47,5.47,0,0,1,723.6,587.92Z"/><path class="cls-38" d="M718.13,608.74a5.48,5.48,0,1,0-5.48-5.47A5.47,5.47,0,0,0,718.13,608.74Zm2.5-5.14a.44.44,0,0,1,0,.62l-2.16,2.16,0,0a.42.42,0,0,1-.18.11h0l-.1,0-.1,0h0a.49.49,0,0,1-.18-.11l0,0-2.17-2.17a.44.44,0,0,1,.62-.62L717.7,605V600.1a.44.44,0,0,1,.43-.44.44.44,0,0,1,.44.44V605L720,603.6A.43.43,0,0,1,720.63,603.6Z"/><path class="cls-10" d="M718.13,593.39a5.48,5.48,0,1,0-5.48-5.47A5.47,5.47,0,0,0,718.13,593.39Zm3.44-5.47a.36.36,0,0,1,0,.1v0l0,0a.38.38,0,0,1-.09.15l0,0-2.17,2.17a.44.44,0,0,1-.62,0,.43.43,0,0,1,0-.61l1.45-1.46h-4.94a.44.44,0,1,1,0-.87h4.94L718.63,586a.43.43,0,0,1,0-.61.44.44,0,0,1,.62,0l2.17,2.17,0,0a.44.44,0,0,1,.1.16v0A.43.43,0,0,1,721.57,587.92Z"/><path class="cls-39" d="M721.55,588v0Z"/><path class="cls-39" d="M721.55,587.79v0Z"/><path class="cls-39" d="M721.57,587.92a.43.43,0,0,0,0-.11v0a.44.44,0,0,0-.1-.16l0,0a.44.44,0,0,0-.29-.11h-1.06l.44.44-.44.43h1.06a.42.42,0,0,0,.28-.1l0,0a.46.46,0,0,0,.09-.15l0,0v0A.36.36,0,0,0,721.57,587.92Z"/><path class="cls-39" d="M721.44,588.23a.38.38,0,0,0,.09-.15A.46.46,0,0,1,721.44,588.23Z"/><path class="cls-39" d="M721.54,587.77a.44.44,0,0,0-.1-.16A.44.44,0,0,1,721.54,587.77Z"/><path class="cls-39" d="M721.42,587.59l-2.17-2.17a.44.44,0,0,0-.62,0,.43.43,0,0,0,0,.61l1.44,1.45h1.06A.44.44,0,0,1,721.42,587.59Z"/><path class="cls-39" d="M719.24,590.42l2.17-2.17a.42.42,0,0,1-.28.1h-1.06l-1.45,1.46a.43.43,0,0,0,0,.61A.44.44,0,0,0,719.24,590.42Z"/><path class="cls-39" d="M720.63,604.22a.44.44,0,0,0,0-.62.43.43,0,0,0-.61,0L718.57,605v1.06a.48.48,0,0,1-.1.28Z"/><path class="cls-39" d="M720.51,587.92l-.44-.44h-4.94a.44.44,0,1,0,0,.87h4.94Z"/><path class="cls-39" d="M718.57,605V600.1a.44.44,0,0,0-.44-.44.44.44,0,0,0-.43.44V605l.43.44Z"/><path class="cls-39" d="M718.26,606.52h0Z"/><path class="cls-39" d="M718,606.52l.1,0,.1,0h0a.42.42,0,0,0,.18-.11l0,0a.48.48,0,0,0,.1-.28V605l-.44.44-.43-.44v1.06a.47.47,0,0,0,.09.28l0,0a.49.49,0,0,0,.18.11Z"/><path class="cls-39" d="M718,606.52h0Z"/><path class="cls-39" d="M715.62,604.21l2.17,2.17a.47.47,0,0,1-.09-.28V605l-1.46-1.45a.44.44,0,0,0-.62.62Z"/><path class="cls-40" d="M718.13,614.29a11,11,0,0,1-11-11V589.51a11,11,0,0,1,22,0v13.78A11,11,0,0,1,718.13,614.29Z"/><path class="cls-40" d="M723.6,603.27a5.48,5.48,0,1,0-5.47,5.47A5.47,5.47,0,0,0,723.6,603.27Z"/><circle class="cls-40" cx="718.13" cy="587.92" r="5.47"/><path class="cls-40" d="M710.9,603.27a7.23,7.23,0,0,0,14.45,0"/><path class="cls-40" d="M710.9,587.93a7.23,7.23,0,0,0,14.45,0"/><circle class="cls-10" cx="391.25" cy="126.52" r="7"/><text class="cls-9" transform="translate(386.69 129.19) rotate(-0.51)">PP</text><circle class="cls-21" cx="404.39" cy="160.15" r="7"/><text class="cls-9" transform="translate(399.83 162.81)">CD</text><circle class="cls-33" cx="394.8" cy="144.46" r="7"/><text class="cls-9" transform="translate(389.42 147.03) rotate(2.5)">MR</text></svg>