<svg id="Camada_1" data-name="Camada 1" xmlns="http://www.w3.org/2000/svg" viewBox="0 0 293.26 293.18"><defs><style>.cls-1,.cls-5{fill:none;}.cls-1{stroke:#d6d7d7;stroke-miterlimit:10;stroke-width:8px;}.cls-2{fill:#f6a115;}.cls-3{fill:#6dcdd9;}.cls-4{fill:#f95000;}.cls-5{stroke:#21344a;stroke-linecap:round;stroke-linejoin:round;stroke-width:4px;}</style></defs><title>indicadores</title><circle class="cls-1" cx="146.63" cy="145.18" r="139.01"/><rect class="cls-2" x="178.12" y="148.41" width="25.9" height="49.24"/><rect class="cls-3" x="139.21" y="126.21" width="25.9" height="71.45"/><rect class="cls-4" x="100.29" y="99.18" width="25.91" height="98.48"/><polyline class="cls-5" points="226.12 197.65 226.09 197.65 218.31 197.65 204.02 197.65 178.12 197.65 165.1 197.65 139.21 197.65 126.19 197.65 100.29 197.65 86.92 197.65 86.92 82.72 86.92 74.91 81.14 82.72 86.92 82.72 92.77 82.72 86.92 74.91"/><polyline class="cls-5" points="226.12 197.62 218.31 191.84 218.31 197.65 218.31 203.47 226.09 197.65 226.12 197.62"/><polyline class="cls-5" points="100.29 197.65 100.29 99.17 126.19 99.17 126.19 197.65"/><polyline class="cls-5" points="139.21 197.65 139.21 126.21 165.1 126.21 165.1 197.65"/><polyline class="cls-5" points="178.12 197.65 178.12 148.41 204.02 148.41 204.02 197.65"/></svg>