<svg id="Camada_1" data-name="Camada 1" xmlns="http://www.w3.org/2000/svg" viewBox="0 0 293.26 293.18"><defs><style>.cls-1{fill:none;stroke:#d6d7d7;stroke-width:8px;}.cls-1,.cls-2,.cls-3{stroke-miterlimit:10;}.cls-2{fill:#edac24;stroke-width:4px;}.cls-2,.cls-3{stroke:#22354c;}.cls-3{fill:#fff;stroke-width:3px;}</style></defs><title>informaçao</title><circle class="cls-1" cx="146.63" cy="145.18" r="139.01"/><path class="cls-2" d="M75.07,182.63C65.94,171.55,62,159.56,62,145.18c0-38.33,37.9-69.4,84.66-69.4s84.67,31.07,84.67,69.4-37.91,69.41-84.67,69.41c-22.06,0-43.83-8.59-58.9-19.92"/><polyline class="cls-2" points="75.27 182.43 61.97 207.28 87.73 194.66"/><path class="cls-3" d="M126.65,130.94h27.41v36.15h15.25v8.09H126.65v-8.09h16v-28h-16Zm15-11.45a4.79,4.79,0,0,1,1.71-3.78,7,7,0,0,1,4.79-1.49,7.2,7.2,0,0,1,4.87,1.49,5,5,0,0,1,0,7.56,7.2,7.2,0,0,1-4.87,1.49,7,7,0,0,1-4.79-1.49A4.79,4.79,0,0,1,141.66,119.49Z"/></svg>