<svg id="Camada_1" data-name="Camada 1" xmlns="http://www.w3.org/2000/svg" viewBox="0 0 293.26 293.18"><defs><style>.cls-1,.cls-6,.cls-7{fill:none;}.cls-1{stroke:#d6d7d7;stroke-width:8px;}.cls-1,.cls-7{stroke-miterlimit:10;}.cls-2{fill:#bbba55;}.cls-3{fill:#a7ccc2;}.cls-4{fill:#8482a4;}.cls-5{fill:#fff;}.cls-6{stroke:#21344a;stroke-linecap:round;stroke-linejoin:round;}.cls-6,.cls-7{stroke-width:4px;}.cls-7{stroke:#2e3d59;}</style></defs><title>integra</title><circle class="cls-1" cx="146.63" cy="145.18" r="139.01"/><path class="cls-2" d="M231.93,118.09A17.1,17.1,0,1,1,214,147.22a16.75,16.75,0,0,1-3.08-2.43,17.09,17.09,0,0,1,21-26.7Z"/><path class="cls-3" d="M176.89,175a21.23,21.23,0,1,1-5.82-5.29A21.25,21.25,0,0,1,176.89,175Z"/><path class="cls-4" d="M92,176.11a13.49,13.49,0,1,1-18.55,4.43A13.49,13.49,0,0,1,92,176.11Z"/><path class="cls-5" d="M128.94,110.74a25.3,25.3,0,1,1,19.18-15.2,27,27,0,0,1-1.8,3.5A25.26,25.26,0,0,1,128.94,110.74Z"/><path class="cls-6" d="M128.94,110.74A25.26,25.26,0,0,0,146.32,99a27,27,0,0,0,1.8-3.5,25.33,25.33,0,1,0-19.18,15.2Z"/><line class="cls-6" x1="98.39" y1="186.79" x2="138.74" y2="186.9"/><line class="cls-6" x1="176.89" y1="174.96" x2="210.94" y2="144.79"/><polyline class="cls-6" points="128.93 110.74 128.94 110.74 151.09 168.46"/><line class="cls-6" x1="148.12" y1="95.54" x2="208.41" y2="123.7"/><path class="cls-7" d="M210.94,144.79a16.75,16.75,0,0,0,3.08,2.43,17.13,17.13,0,1,0-3.08-2.43Z"/><path class="cls-7" d="M138.74,186.9a21.27,21.27,0,1,0,3.13-10.26A21.18,21.18,0,0,0,138.74,186.9Z"/><path class="cls-7" d="M96.4,194.67a13.49,13.49,0,1,0-18.56,4.43A13.49,13.49,0,0,0,96.4,194.67Z"/></svg>