<svg id="Camada_1" data-name="Camada 1" xmlns="http://www.w3.org/2000/svg" xmlns:xlink="http://www.w3.org/1999/xlink" viewBox="0 0 254.73 265.87"><defs><style>.cls-1,.cls-7,.cls-8{fill:none;}.cls-2{clip-path:url(#clip-path);}.cls-3{fill:#bbba55;}.cls-4{fill:#a7ccc2;}.cls-5{fill:#8482a4;}.cls-6{fill:#fff;}.cls-7{stroke:#21344a;stroke-linecap:round;stroke-linejoin:round;}.cls-7,.cls-8{stroke-width:5px;}.cls-8{stroke:#2e3d59;stroke-miterlimit:10;}</style><clipPath id="clip-path"><rect class="cls-1" x="6.89" y="3.83" width="247.84" height="262.51"/></clipPath></defs><title>integra sangrando</title><g class="cls-2"><path class="cls-3" d="M244.57,82.79a23.84,23.84,0,1,1-6.27,47.27,23.16,23.16,0,0,1-5.3-1.35,23.83,23.83,0,0,1,11.57-45.92Z"/><path class="cls-4" d="M206.77,186.47A29.6,29.6,0,1,1,165,223.35a29.61,29.61,0,0,1,41.8-36.88Z"/><path class="cls-5" d="M99.28,236.16a18.82,18.82,0,1,1-21.11,16.18A18.81,18.81,0,0,1,99.28,236.16Z"/><path class="cls-6" d="M109.24,131.93A35.28,35.28,0,1,1,125,101.67a36.16,36.16,0,0,1-.29,5.48A35.26,35.26,0,0,1,109.24,131.93Z"/><path class="cls-7" d="M109.24,131.93a35.26,35.26,0,0,0,15.49-24.78,36.16,36.16,0,0,0,.29-5.48,35.27,35.27,0,1,0-15.78,30.26Z"/><line class="cls-7" x1="113.52" y1="246.12" x2="164.97" y2="223.35"/><line class="cls-7" x1="206.77" y1="186.47" x2="232.99" y2="128.72"/><polyline class="cls-7" points="109.23 131.92 109.24 131.93 170.23 192.85"/><line class="cls-7" x1="125.02" y1="101.67" x2="217.8" y2="103.29"/><path class="cls-8" d="M233,128.71a23.16,23.16,0,0,0,5.3,1.35,23.91,23.91,0,1,0-5.3-1.35Z"/><path class="cls-8" d="M165,223.35a29.65,29.65,0,1,0-1.84-14.85A29.58,29.58,0,0,0,165,223.35Z"/><path class="cls-8" d="M115.46,257.29a18.81,18.81,0,1,0-21.12,16.18A18.81,18.81,0,0,0,115.46,257.29Z"/></g></svg>