<svg id="Camada_3" data-name="Camada 3" xmlns="http://www.w3.org/2000/svg" viewBox="0 0 765.75 726.45"><defs><style>.cls-1{fill:none;stroke-width:28px;}.cls-1,.cls-2{stroke:#ef9214;stroke-miterlimit:10;}.cls-2{fill:#f3ac4f;stroke-width:9px;}</style></defs><title>lara</title><path class="cls-1" d="M283.19,422.86A163.2,163.2,0,0,1,120,586.06,84.11,84.11,0,0,1,35.89,502c0-46.44,37.66-84.1,85.1-84.1H371.05"/><path class="cls-1" d="M285.19,405.36l-2-56.18A83.24,83.24,0,0,0,200,265.94H85.8"/><path class="cls-1" d="M587.78,285.93A145.54,145.54,0,0,0,442.24,140.39a75,75,0,0,0-75,75c0,41.42,33.58,75,75.89,75H642"/><line class="cls-1" x1="576.89" y1="290.4" x2="766.32" y2="290.4"/><path class="cls-1" d="M587.26,271.53v60.08c0,46.44-37.66,86.1-84.11,86.1H371.05"/><circle class="cls-2" cx="83.78" cy="265.94" r="40"/></svg>