<svg id="Camada_1" data-name="Camada 1" xmlns="http://www.w3.org/2000/svg" xmlns:xlink="http://www.w3.org/1999/xlink" viewBox="0 0 1798.02 560.47"><defs><style>.cls-1,.cls-19,.cls-2,.cls-20,.cls-26,.cls-3,.cls-33,.cls-34,.cls-35,.cls-36,.cls-9{fill:none;}.cls-2{stroke:#1d1d1b;stroke-width:2.16px;}.cls-3{stroke:#f6a115;stroke-width:35px;}.cls-3,.cls-9{stroke-miterlimit:10;}.cls-4{fill:#f5af3b;}.cls-5{fill:#f1eced;}.cls-21,.cls-6{font-size:12px;}.cls-6{fill:#fdb93f;}.cls-10,.cls-11,.cls-25,.cls-6{font-family:Roboto-Bold, Roboto;font-weight:700;}.cls-7{fill:#fed58c;}.cls-8{fill:#f6a115;}.cls-9{stroke:#fed58c;stroke-dasharray:5 5;}.cls-19,.cls-28,.cls-33,.cls-34,.cls-35,.cls-36,.cls-9{stroke-linecap:round;}.cls-10,.cls-11,.cls-25,.cls-27{font-size:8px;}.cls-10,.cls-11,.cls-13,.cls-14,.cls-28{fill:#fff;}.cls-10,.cls-12{letter-spacing:-0.01em;}.cls-14{font-size:7px;font-family:Roboto-Black, Roboto;font-weight:800;}.cls-15{fill:#6dcdd9;}.cls-16{fill:#6da6d9;}.cls-17{fill:#d8d5d5;}.cls-18{fill:#f59c1a;}.cls-19{stroke:#34334b;}.cls-19,.cls-20,.cls-26,.cls-28,.cls-33,.cls-34,.cls-35,.cls-36{stroke-linejoin:round;}.cls-19,.cls-28{stroke-width:0.35px;}.cls-20,.cls-26{stroke:#aab5c7;}.cls-20{stroke-width:2px;}.cls-21,.cls-22{fill:#aab5c7;}.cls-21{font-family:RobotoMono-Regular, Roboto Mono;}.cls-23{fill:#f95000;}.cls-24{fill:#2866ae;}.cls-25,.cls-27{fill:#1a1414;}.cls-26{stroke-width:2.09px;}.cls-27{font-family:Roboto-Regular, Roboto;}.cls-28,.cls-33,.cls-34,.cls-35,.cls-36{stroke:#21344a;}.cls-29{fill:url(#_10_lpi_30_);}.cls-30{fill:#f3f0f0;}.cls-31{fill:#f4991a;}.cls-32{fill:#11293b;}.cls-33{stroke-width:1.03px;}.cls-34{stroke-width:1.08px;}.cls-35{stroke-width:1.08px;}.cls-36{stroke-width:0.75px;}</style><pattern id="_10_lpi_30_" data-name="10 lpi 30%" width="72" height="72" patternTransform="translate(-222.5 123.82) scale(0.16)" patternUnits="userSpaceOnUse" viewBox="0 0 72 72"><rect class="cls-1" width="72" height="72"/><line class="cls-2" x1="71.75" y1="68.4" x2="144.25" y2="68.4"/><line class="cls-2" x1="71.75" y1="54" x2="144.25" y2="54"/><line class="cls-2" x1="71.75" y1="39.6" x2="144.25" y2="39.6"/><line class="cls-2" x1="71.75" y1="25.2" x2="144.25" y2="25.2"/><line class="cls-2" x1="71.75" y1="10.8" x2="144.25" y2="10.8"/><line class="cls-2" x1="71.75" y1="61.2" x2="144.25" y2="61.2"/><line class="cls-2" x1="71.75" y1="46.8" x2="144.25" y2="46.8"/><line class="cls-2" x1="71.75" y1="32.4" x2="144.25" y2="32.4"/><line class="cls-2" x1="71.75" y1="18" x2="144.25" y2="18"/><line class="cls-2" x1="71.75" y1="3.6" x2="144.25" y2="3.6"/><line class="cls-2" x1="-0.25" y1="68.4" x2="72.25" y2="68.4"/><line class="cls-2" x1="-0.25" y1="54" x2="72.25" y2="54"/><line class="cls-2" x1="-0.25" y1="39.6" x2="72.25" y2="39.6"/><line class="cls-2" x1="-0.25" y1="25.2" x2="72.25" y2="25.2"/><line class="cls-2" x1="-0.25" y1="10.8" x2="72.25" y2="10.8"/><line class="cls-2" x1="-0.25" y1="61.2" x2="72.25" y2="61.2"/><line class="cls-2" x1="-0.25" y1="46.8" x2="72.25" y2="46.8"/><line class="cls-2" x1="-0.25" y1="32.4" x2="72.25" y2="32.4"/><line class="cls-2" x1="-0.25" y1="18" x2="72.25" y2="18"/><line class="cls-2" x1="-0.25" y1="3.6" x2="72.25" y2="3.6"/><line class="cls-2" x1="-72.25" y1="68.4" x2="0.25" y2="68.4"/><line class="cls-2" x1="-72.25" y1="54" x2="0.25" y2="54"/><line class="cls-2" x1="-72.25" y1="39.6" x2="0.25" y2="39.6"/><line class="cls-2" x1="-72.25" y1="25.2" x2="0.25" y2="25.2"/><line class="cls-2" x1="-72.25" y1="10.8" x2="0.25" y2="10.8"/><line class="cls-2" x1="-72.25" y1="61.2" x2="0.25" y2="61.2"/><line class="cls-2" x1="-72.25" y1="46.8" x2="0.25" y2="46.8"/><line class="cls-2" x1="-72.25" y1="32.4" x2="0.25" y2="32.4"/><line class="cls-2" x1="-72.25" y1="18" x2="0.25" y2="18"/><line class="cls-2" x1="-72.25" y1="3.6" x2="0.25" y2="3.6"/></pattern></defs><path class="cls-3" d="M702.8,327.42A113.68,113.68,0,0,1,589.12,441.1a58.59,58.59,0,0,1-58.59-58.58c0-32.36,26.23-58.59,59.28-58.59H745.18"/><circle class="cls-4" cx="540.95" cy="389.53" r="40"/><path class="cls-5" d="M525.25,384.3a2.49,2.49,0,0,1-.45,1.56,1.41,1.41,0,0,1-1.19.59,1.35,1.35,0,0,1-1-.44v2h-1.13v-5.85h1l0,.41a1.31,1.31,0,0,1,1.07-.49,1.41,1.41,0,0,1,1.21.58,2.57,2.57,0,0,1,.44,1.59Zm-1.13-.08a1.63,1.63,0,0,0-.21-.91.67.67,0,0,0-.61-.32.74.74,0,0,0-.73.4v1.73a.76.76,0,0,0,.74.42Q524.12,385.54,524.12,384.22Z"/><path class="cls-5" d="M527.81,386.45a2.07,2.07,0,0,1-1.51-.57,2,2,0,0,1-.59-1.52v-.11a2.65,2.65,0,0,1,.25-1.14,1.8,1.8,0,0,1,.7-.77,2,2,0,0,1,1-.27,1.75,1.75,0,0,1,1.36.54,2.27,2.27,0,0,1,.5,1.56v.46h-2.69a1.1,1.1,0,0,0,.33.66,1,1,0,0,0,.7.25,1.24,1.24,0,0,0,1-.47l.55.62a1.66,1.66,0,0,1-.69.56A2.32,2.32,0,0,1,527.81,386.45Zm-.13-3.47a.68.68,0,0,0-.54.23,1.15,1.15,0,0,0-.27.65h1.57v-.09a.83.83,0,0,0-.2-.59A.77.77,0,0,0,527.68,383Z"/><path class="cls-5" d="M532.4,385.2a.36.36,0,0,0-.21-.32,2.13,2.13,0,0,0-.65-.21c-1-.22-1.51-.64-1.51-1.29a1.19,1.19,0,0,1,.47-.94,1.87,1.87,0,0,1,1.22-.37,2,2,0,0,1,1.28.38,1.17,1.17,0,0,1,.49,1h-1.13a.54.54,0,0,0-.16-.4.67.67,0,0,0-.49-.16.72.72,0,0,0-.44.13.44.44,0,0,0-.16.33.38.38,0,0,0,.18.3,1.65,1.65,0,0,0,.6.2,5.43,5.43,0,0,1,.71.19,1.17,1.17,0,0,1,.9,1.14,1.11,1.11,0,0,1-.5.93,2.13,2.13,0,0,1-1.28.36,2.16,2.16,0,0,1-.94-.19,1.54,1.54,0,0,1-.65-.52,1.18,1.18,0,0,1-.23-.71H531a.58.58,0,0,0,.22.46.86.86,0,0,0,.55.16.82.82,0,0,0,.49-.12A.38.38,0,0,0,532.4,385.2Z"/><path class="cls-5" d="M534,384.22a2.55,2.55,0,0,1,.44-1.57,1.45,1.45,0,0,1,1.22-.58,1.29,1.29,0,0,1,1.08.52l.07-.44h1V388h-1.14v-2a1.31,1.31,0,0,1-1,.44,1.42,1.42,0,0,1-1.2-.59A2.62,2.62,0,0,1,534,384.22Zm1.13.08a1.67,1.67,0,0,0,.21.92.68.68,0,0,0,.6.32.75.75,0,0,0,.73-.41v-1.75a.74.74,0,0,0-.72-.4.7.7,0,0,0-.61.31A1.9,1.9,0,0,0,535.1,384.3Z"/><path class="cls-5" d="M541.11,385.94a1.39,1.39,0,0,1-1.15.51,1.35,1.35,0,0,1-1-.39,1.62,1.62,0,0,1-.36-1.14v-2.77h1.13v2.73q0,.66.6.66a.82.82,0,0,0,.79-.4v-3h1.13v4.22h-1.06Z"/><path class="cls-5" d="M543,381.05a.57.57,0,0,1,.17-.42.65.65,0,0,1,.46-.16.65.65,0,0,1,.47.16.57.57,0,0,1,.17.42.54.54,0,0,1-.18.42.62.62,0,0,1-.46.17.63.63,0,0,1-.45-.17A.54.54,0,0,1,543,381.05Zm1.2,5.32H543v-4.22h1.13Z"/><path class="cls-5" d="M547.31,385.2a.36.36,0,0,0-.21-.32,2.13,2.13,0,0,0-.65-.21c-1-.22-1.51-.64-1.51-1.29a1.19,1.19,0,0,1,.47-.94,1.87,1.87,0,0,1,1.22-.37,2,2,0,0,1,1.28.38,1.17,1.17,0,0,1,.49,1h-1.13a.54.54,0,0,0-.16-.4.67.67,0,0,0-.49-.16.72.72,0,0,0-.44.13.44.44,0,0,0-.16.33.38.38,0,0,0,.18.3,1.65,1.65,0,0,0,.6.2,5.43,5.43,0,0,1,.71.19,1.17,1.17,0,0,1,.9,1.14,1.11,1.11,0,0,1-.5.93,2.13,2.13,0,0,1-1.28.36,2.16,2.16,0,0,1-.94-.19,1.54,1.54,0,0,1-.65-.52,1.18,1.18,0,0,1-.23-.71h1.07a.58.58,0,0,0,.22.46.86.86,0,0,0,.55.16.82.82,0,0,0,.49-.12A.38.38,0,0,0,547.31,385.2Z"/><path class="cls-5" d="M551.51,386.37a1.21,1.21,0,0,1-.12-.38,1.34,1.34,0,0,1-1.06.46,1.49,1.49,0,0,1-1-.36,1.13,1.13,0,0,1-.41-.91,1.18,1.18,0,0,1,.5-1,2.43,2.43,0,0,1,1.44-.36h.52v-.24a.7.7,0,0,0-.16-.47.57.57,0,0,0-.47-.18.69.69,0,0,0-.45.14.46.46,0,0,0-.16.38H549a1.12,1.12,0,0,1,.23-.68,1.39,1.39,0,0,1,.64-.49,2.3,2.3,0,0,1,.93-.18,1.86,1.86,0,0,1,1.24.39,1.39,1.39,0,0,1,.46,1.1v1.84a2,2,0,0,0,.17.91v.06Zm-.94-.78a1,1,0,0,0,.46-.11.85.85,0,0,0,.32-.3v-.73h-.43c-.56,0-.86.2-.9.59v.06a.45.45,0,0,0,.15.35A.56.56,0,0,0,550.57,385.59Z"/><path class="cls-5" d="M557.12,386.45a2.07,2.07,0,0,1-1.51-.57,2,2,0,0,1-.59-1.52v-.11a2.65,2.65,0,0,1,.25-1.14,1.87,1.87,0,0,1,.7-.77,2,2,0,0,1,1-.27,1.75,1.75,0,0,1,1.36.54,2.27,2.27,0,0,1,.5,1.56v.46h-2.69a1,1,0,0,0,.33.66,1,1,0,0,0,.7.25,1.24,1.24,0,0,0,1-.47l.55.62a1.66,1.66,0,0,1-.69.56A2.32,2.32,0,0,1,557.12,386.45ZM557,383a.68.68,0,0,0-.54.23,1.15,1.15,0,0,0-.27.65h1.57v-.09a.83.83,0,0,0-.2-.59A.77.77,0,0,0,557,383Z"/><path class="cls-5" d="M510.64,397.37V394H510v-.82h.63v-.36a1.47,1.47,0,0,1,.4-1.11,1.62,1.62,0,0,1,1.15-.39,2.85,2.85,0,0,1,.57.08v.87a1.65,1.65,0,0,0-.34,0c-.43,0-.64.2-.64.6v.34h.84V394h-.84v3.4Z"/><path class="cls-5" d="M512.94,395.22a2.52,2.52,0,0,1,.24-1.12,1.78,1.78,0,0,1,.7-.76,2,2,0,0,1,1.06-.27,1.9,1.9,0,0,1,1.39.52,2.14,2.14,0,0,1,.61,1.42v.29a2.21,2.21,0,0,1-.54,1.56,1.9,1.9,0,0,1-1.46.59,1.88,1.88,0,0,1-1.46-.59,2.25,2.25,0,0,1-.54-1.59Zm1.13.08a1.58,1.58,0,0,0,.22.92.77.77,0,0,0,.65.32.76.76,0,0,0,.64-.31,1.71,1.71,0,0,0,.23-1,1.53,1.53,0,0,0-.23-.92.75.75,0,0,0-.64-.32.77.77,0,0,0-.65.32A1.79,1.79,0,0,0,514.07,395.3Z"/><path class="cls-5" d="M519.93,394.2l-.4,0a.82.82,0,0,0-.84.44v2.76h-1.13v-4.22h1.06l0,.5a1.09,1.09,0,0,1,1.29-.53Z"/><path class="cls-5" d="M521.45,393.15l0,.47a1.47,1.47,0,0,1,1.21-.55,1.14,1.14,0,0,1,1.13.64,1.44,1.44,0,0,1,1.27-.64,1.25,1.25,0,0,1,1,.4,1.85,1.85,0,0,1,.33,1.2v2.7h-1.13v-2.69a.84.84,0,0,0-.14-.53.61.61,0,0,0-.49-.16.71.71,0,0,0-.71.48v2.9h-1.13v-2.69a.78.78,0,0,0-.15-.53.61.61,0,0,0-.49-.16.75.75,0,0,0-.7.39v3H520.4v-4.22Z"/><path class="cls-5" d="M529.69,397.37a1.22,1.22,0,0,1-.11-.38,1.36,1.36,0,0,1-1.07.46,1.52,1.52,0,0,1-1-.36,1.16,1.16,0,0,1-.41-.91,1.21,1.21,0,0,1,.5-1,2.43,2.43,0,0,1,1.44-.36h.52v-.24a.7.7,0,0,0-.15-.47.58.58,0,0,0-.47-.18.69.69,0,0,0-.45.14.46.46,0,0,0-.16.38h-1.13a1.11,1.11,0,0,1,.22-.68,1.51,1.51,0,0,1,.64-.49,2.34,2.34,0,0,1,.93-.18,1.82,1.82,0,0,1,1.24.39,1.36,1.36,0,0,1,.46,1.1v1.84a2.13,2.13,0,0,0,.17.91v.06Zm-.93-.78a1,1,0,0,0,.46-.11.81.81,0,0,0,.31-.3v-.73h-.42c-.57,0-.87.2-.9.59v.06a.45.45,0,0,0,.15.35A.6.6,0,0,0,528.76,396.59Z"/><path class="cls-5" d="M533.21,396.54a.77.77,0,0,0,.51-.17.6.6,0,0,0,.2-.46H535a1.39,1.39,0,0,1-.24.79,1.47,1.47,0,0,1-.63.55,1.84,1.84,0,0,1-.88.2,1.81,1.81,0,0,1-1.43-.58,2.26,2.26,0,0,1-.53-1.59v-.07a2.29,2.29,0,0,1,.52-1.56,1.83,1.83,0,0,1,1.43-.58,1.78,1.78,0,0,1,1.27.45,1.61,1.61,0,0,1,.49,1.2h-1.06a.77.77,0,0,0-.2-.54.78.78,0,0,0-1.12.08,1.75,1.75,0,0,0-.2.94v.12a1.75,1.75,0,0,0,.2.94A.7.7,0,0,0,533.21,396.54Zm.41.81,0,.23a.62.62,0,0,1,.58.67.79.79,0,0,1-.36.68,1.68,1.68,0,0,1-1,.25l0-.65c.29,0,.44-.11.44-.32a.21.21,0,0,0-.13-.22,1.26,1.26,0,0,0-.43-.08l.12-.56Z"/><path class="cls-5" d="M538,397.37a1.22,1.22,0,0,1-.11-.38,1.36,1.36,0,0,1-1.07.46,1.52,1.52,0,0,1-1-.36,1.16,1.16,0,0,1-.41-.91,1.21,1.21,0,0,1,.5-1,2.45,2.45,0,0,1,1.44-.36h.52v-.24a.7.7,0,0,0-.15-.47.58.58,0,0,0-.47-.18.69.69,0,0,0-.45.14.46.46,0,0,0-.16.38h-1.13a1.11,1.11,0,0,1,.22-.68,1.48,1.48,0,0,1,.65-.49,2.27,2.27,0,0,1,.93-.18,1.86,1.86,0,0,1,1.24.39,1.38,1.38,0,0,1,.45,1.1v1.84a2.13,2.13,0,0,0,.17.91v.06Zm.74-5.95a1.09,1.09,0,0,1-.26.74.8.8,0,0,1-.63.3,1.09,1.09,0,0,1-.26,0,1.82,1.82,0,0,1-.32-.14,1.41,1.41,0,0,0-.29-.14l-.2,0a.32.32,0,0,0-.23.09.41.41,0,0,0-.1.28l-.65,0a1.12,1.12,0,0,1,.25-.74.82.82,0,0,1,.63-.3.78.78,0,0,1,.22,0l.34.14a3.47,3.47,0,0,0,.32.14l.19,0a.36.36,0,0,0,.24-.09.41.41,0,0,0,.1-.28Zm-1.67,5.17a1,1,0,0,0,.46-.11.75.75,0,0,0,.31-.3v-.73h-.42c-.56,0-.87.2-.9.59v.06a.45.45,0,0,0,.15.35A.6.6,0,0,0,537.06,396.59Z"/><path class="cls-5" d="M539.58,395.22a2.52,2.52,0,0,1,.24-1.12,1.72,1.72,0,0,1,.7-.76,2,2,0,0,1,1.05-.27,1.93,1.93,0,0,1,1.4.52,2.09,2.09,0,0,1,.6,1.42v.29a2.21,2.21,0,0,1-.54,1.56,1.9,1.9,0,0,1-1.46.59,1.88,1.88,0,0,1-1.46-.59,2.25,2.25,0,0,1-.54-1.59Zm1.13.08a1.58,1.58,0,0,0,.22.92.76.76,0,0,0,.65.32.77.77,0,0,0,.64-.31,1.79,1.79,0,0,0,.23-1,1.6,1.6,0,0,0-.23-.92.81.81,0,0,0-1.29,0A1.79,1.79,0,0,0,540.71,395.3Z"/><path class="cls-5" d="M545.93,395.23a2.53,2.53,0,0,1,.45-1.58,1.43,1.43,0,0,1,1.21-.58,1.29,1.29,0,0,1,1,.46v-2.16h1.13v6h-1l-.05-.45a1.34,1.34,0,0,1-1.09.53,1.46,1.46,0,0,1-1.2-.59A2.61,2.61,0,0,1,545.93,395.23Zm1.13.08a1.63,1.63,0,0,0,.21.91.68.68,0,0,0,.6.32.77.77,0,0,0,.74-.44v-1.67a.74.74,0,0,0-.73-.44C547.33,394,547.06,394.43,547.06,395.31Z"/><path class="cls-5" d="M552.48,397.45a2.07,2.07,0,0,1-1.51-.57,2,2,0,0,1-.59-1.52v-.11a2.65,2.65,0,0,1,.25-1.14,1.8,1.8,0,0,1,.7-.77,2,2,0,0,1,1-.27,1.75,1.75,0,0,1,1.36.54,2.27,2.27,0,0,1,.5,1.56v.46h-2.69a1,1,0,0,0,.33.66,1,1,0,0,0,.7.25,1.24,1.24,0,0,0,1-.47l.55.62a1.66,1.66,0,0,1-.69.56A2.32,2.32,0,0,1,552.48,397.45Zm-.13-3.47a.68.68,0,0,0-.54.23,1.15,1.15,0,0,0-.27.65h1.57v-.09a.87.87,0,0,0-.2-.59A.77.77,0,0,0,552.35,394Z"/><path class="cls-5" d="M559.07,394.2l-.41,0a.82.82,0,0,0-.84.44v2.76h-1.13v-4.22h1.07l0,.5a1,1,0,0,1,.94-.58,1,1,0,0,1,.35.05Z"/><path class="cls-5" d="M561.48,397.45a2.08,2.08,0,0,1-1.52-.57,2,2,0,0,1-.58-1.52v-.11a2.64,2.64,0,0,1,.24-1.14,1.87,1.87,0,0,1,.7-.77,2,2,0,0,1,1-.27,1.79,1.79,0,0,1,1.37.54,2.26,2.26,0,0,1,.49,1.56v.46h-2.69a1.1,1.1,0,0,0,.33.66,1,1,0,0,0,.7.25,1.24,1.24,0,0,0,1-.47l.55.62a1.63,1.63,0,0,1-.68.56A2.32,2.32,0,0,1,561.48,397.45Zm-.13-3.47a.68.68,0,0,0-.55.23,1.15,1.15,0,0,0-.27.65h1.57v-.09a.83.83,0,0,0-.2-.59A.74.74,0,0,0,561.35,394Z"/><path class="cls-5" d="M563.6,395.23a2.6,2.6,0,0,1,.44-1.58,1.45,1.45,0,0,1,1.22-.58,1.26,1.26,0,0,1,1,.46v-2.16h1.14v6h-1l-.06-.45a1.33,1.33,0,0,1-1.08.53,1.44,1.44,0,0,1-1.2-.59A2.61,2.61,0,0,1,563.6,395.23Zm1.13.08a1.63,1.63,0,0,0,.21.91.66.66,0,0,0,.6.32.75.75,0,0,0,.73-.44v-1.67a.73.73,0,0,0-.73-.44Q564.73,394,564.73,395.31Z"/><path class="cls-5" d="M570.15,397.45a2.09,2.09,0,0,1-1.52-.57,2,2,0,0,1-.58-1.52v-.11a2.51,2.51,0,0,1,.25-1.14,1.78,1.78,0,0,1,.69-.77,2,2,0,0,1,1-.27,1.77,1.77,0,0,1,1.37.54,2.27,2.27,0,0,1,.5,1.56v.46h-2.7a1.1,1.1,0,0,0,.33.66,1,1,0,0,0,.7.25,1.22,1.22,0,0,0,1-.47l.56.62a1.66,1.66,0,0,1-.69.56A2.32,2.32,0,0,1,570.15,397.45ZM570,394a.68.68,0,0,0-.55.23,1.14,1.14,0,0,0-.26.65h1.57v-.09a.88.88,0,0,0-.21-.59A.74.74,0,0,0,570,394Z"/><path class="cls-3" d="M702.93,314.08V255.26A83.24,83.24,0,0,0,619.7,172H400"/><path class="cls-3" d="M81.54,315.35V256.12a84.1,84.1,0,0,1,84.1-84.1H473.48"/><circle class="cls-4" cx="404.77" cy="172.02" r="40"/><circle class="cls-4" cx="283.37" cy="171.9" r="40"/><circle class="cls-4" cx="162.97" cy="171.9" r="40"/><text class="cls-6" transform="translate(195.38 295.8)">REDEFINIÇÃO<tspan x="9.32" y="15">DE DESAFIO</tspan></text><path class="cls-7" d="M230.85,172a.77.77,0,0,1-.78.77H214.59a.77.77,0,0,1-.78-.77.78.78,0,0,1,.78-.78h15.48A.78.78,0,0,1,230.85,172Z"/><path class="cls-7" d="M230.85,172a.78.78,0,0,1-.23.55l-3.9,3.9a.78.78,0,0,1-1.1-1.1L229,172l-3.36-3.37a.77.77,0,0,1,1.1-1.09l3.91,3.91A.75.75,0,0,1,230.85,172Z"/><path class="cls-7" d="M82.79,245.82a.77.77,0,0,1,.77.77v15.49a.77.77,0,0,1-.77.77.78.78,0,0,1-.78-.77V246.59A.78.78,0,0,1,82.79,245.82Z"/><path class="cls-7" d="M82.79,245.82a.78.78,0,0,1,.55.23l3.9,3.89a.78.78,0,0,1,0,1.1.77.77,0,0,1-1.1,0l-3.35-3.35-3.37,3.37a.77.77,0,0,1-1.09-1.1l3.91-3.91A.75.75,0,0,1,82.79,245.82Z"/><path class="cls-7" d="M109.24,195.29a.78.78,0,0,1,0,1.1L98.75,207.73a.77.77,0,0,1-1.1,0,.76.76,0,0,1,0-1.09l10.53-11.34A.78.78,0,0,1,109.24,195.29Z"/><path class="cls-7" d="M109.24,195.29a.81.81,0,0,1,.25.55l.2,5.51a.78.78,0,0,1-1.55.05l-.18-4.73-4.75.17a.76.76,0,0,1-.8-.74.78.78,0,0,1,.75-.81l5.52-.2A.76.76,0,0,1,109.24,195.29Z"/><path class="cls-7" d="M686.09,206.44a.76.76,0,0,1-1.09-.11l-9.81-12a.78.78,0,0,1,.11-1.09.79.79,0,0,1,1.1.11l9.8,12A.78.78,0,0,1,686.09,206.44Z"/><path class="cls-7" d="M686.09,206.44a.78.78,0,0,1-.57.18l-5.49-.55a.79.79,0,0,1-.69-.85.78.78,0,0,1,.85-.7l4.71.47.47-4.73a.78.78,0,0,1,1.55.15l-.55,5.51A.77.77,0,0,1,686.09,206.44Z"/><path class="cls-7" d="M354.91,172a.76.76,0,0,1-.77.77H338.66a.77.77,0,0,1-.78-.77.78.78,0,0,1,.78-.78h15.48A.77.77,0,0,1,354.91,172Z"/><path class="cls-7" d="M354.91,172a.82.82,0,0,1-.22.55l-3.9,3.9a.78.78,0,0,1-1.1,0,.77.77,0,0,1,0-1.1L353,172l-3.36-3.37a.77.77,0,0,1,1.09-1.09l3.92,3.91A.78.78,0,0,1,354.91,172Z"/><path class="cls-7" d="M490.11,172a.77.77,0,0,1-.78.77H473.85a.77.77,0,0,1-.78-.77.78.78,0,0,1,.78-.78h15.48A.78.78,0,0,1,490.11,172Z"/><path class="cls-7" d="M490.11,172a.83.83,0,0,1-.23.55l-3.9,3.9a.78.78,0,1,1-1.1-1.1l3.35-3.35-3.36-3.37a.76.76,0,0,1,0-1.09.77.77,0,0,1,1.1,0l3.91,3.91A.79.79,0,0,1,490.11,172Z"/><path class="cls-7" d="M562.29,172a.76.76,0,0,1-.77.77H546a.77.77,0,0,1-.78-.77.78.78,0,0,1,.78-.78h15.48A.77.77,0,0,1,562.29,172Z"/><path class="cls-7" d="M562.29,172a.82.82,0,0,1-.22.55l-3.9,3.9a.78.78,0,1,1-1.1-1.1l3.35-3.35-3.36-3.37a.76.76,0,0,1,0-1.09.77.77,0,0,1,1.1,0l3.91,3.91A.78.78,0,0,1,562.29,172Z"/><path class="cls-7" d="M629.16,172a.77.77,0,0,1-.78.77H612.9a.77.77,0,0,1-.78-.77.78.78,0,0,1,.78-.78h15.48A.78.78,0,0,1,629.16,172Z"/><path class="cls-7" d="M629.16,172a.83.83,0,0,1-.23.55l-3.9,3.9a.78.78,0,0,1-1.1-1.1l3.35-3.35-3.36-3.37a.76.76,0,0,1,0-1.09.77.77,0,0,1,1.1,0l3.91,3.91A.79.79,0,0,1,629.16,172Z"/><circle class="cls-7" cx="82.68" cy="315.35" r="35"/><path class="cls-8" d="M82.68,282.85a32.5,32.5,0,1,1-32.5,32.5,32.54,32.54,0,0,1,32.5-32.5m0-5a37.5,37.5,0,1,0,37.5,37.5,37.5,37.5,0,0,0-37.5-37.5Z"/><line class="cls-9" x1="270.6" y1="315.35" x2="125.26" y2="315.35"/><text class="cls-10" transform="translate(148.98 174.23)">anúncio</text><text class="cls-11" transform="translate(383.23 165.49)">fechamento<tspan x="4.84" y="11">do time e</tspan><tspan x="-0.26" y="22">cronograma</tspan></text><text class="cls-11" transform="translate(67.06 314.45)"><tspan class="cls-12">alert</tspan><tspan x="15.96" y="0">a ou</tspan><tspan x="-4.67" y="11">radar Inova</tspan></text><circle class="cls-13" cx="324.26" cy="142.87" r="7"/><circle class="cls-8" cx="324.26" cy="142.87" r="7"/><text class="cls-14" transform="translate(322 145.53)">D</text><path class="cls-13" d="M264.85,165.57l-.4,0a.82.82,0,0,0-.84.43v2.77h-1.13v-4.23h1.07l0,.5a1.05,1.05,0,0,1,.94-.58,1.34,1.34,0,0,1,.35,0Z"/><path class="cls-13" d="M267.34,168.81a2.07,2.07,0,0,1-1.51-.57,2,2,0,0,1-.58-1.52v-.1a2.58,2.58,0,0,1,.24-1.14,1.84,1.84,0,0,1,.7-.78,2,2,0,0,1,1-.27,1.72,1.72,0,0,1,1.36.55,2.17,2.17,0,0,1,.5,1.55V167h-2.69a1,1,0,0,0,.33.66,1,1,0,0,0,.7.25,1.22,1.22,0,0,0,1-.47l.55.62a1.66,1.66,0,0,1-.69.56A2.14,2.14,0,0,1,267.34,168.81Zm-.13-3.47a.71.71,0,0,0-.54.23,1.18,1.18,0,0,0-.27.65H268v-.09a.82.82,0,0,0-.2-.58A.73.73,0,0,0,267.21,165.34Z"/><path class="cls-13" d="M269.55,166.59A2.5,2.5,0,0,1,270,165a1.45,1.45,0,0,1,1.21-.59,1.29,1.29,0,0,1,1,.46v-2.15h1.13v6h-1l-.06-.45a1.32,1.32,0,0,1-1.09.52,1.43,1.43,0,0,1-1.19-.58A2.66,2.66,0,0,1,269.55,166.59Zm1.13.09a1.66,1.66,0,0,0,.2.91.67.67,0,0,0,.6.31.74.74,0,0,0,.74-.44v-1.67a.75.75,0,0,0-.73-.44C271,165.35,270.68,165.79,270.68,166.68Z"/><path class="cls-13" d="M276.18,168.81a2.09,2.09,0,0,1-1.52-.57,2,2,0,0,1-.58-1.52v-.1a2.58,2.58,0,0,1,.24-1.14,1.84,1.84,0,0,1,.7-.78,2,2,0,0,1,1-.27,1.76,1.76,0,0,1,1.37.55,2.22,2.22,0,0,1,.49,1.55V167h-2.69a1,1,0,0,0,.33.66,1,1,0,0,0,.7.25,1.22,1.22,0,0,0,1-.47l.55.62a1.63,1.63,0,0,1-.68.56A2.17,2.17,0,0,1,276.18,168.81Zm-.13-3.47a.72.72,0,0,0-.55.23,1.18,1.18,0,0,0-.27.65h1.57v-.09a.82.82,0,0,0-.2-.58A.71.71,0,0,0,276.05,165.34Z"/><path class="cls-13" d="M278.86,168.74v-3.4h-.63v-.83h.63v-.36a1.46,1.46,0,0,1,.41-1.1,1.58,1.58,0,0,1,1.14-.4,2.84,2.84,0,0,1,.58.08v.88a1.2,1.2,0,0,0-.35,0q-.63,0-.63.6v.34h.84v.83H280v3.4Z"/><path class="cls-13" d="M281.41,163.42a.57.57,0,0,1,.17-.42.66.66,0,0,1,.47-.17.65.65,0,0,1,.46.17.6.6,0,0,1,0,.84.65.65,0,0,1-.46.16.63.63,0,0,1-.46-.16A.54.54,0,0,1,281.41,163.42Zm1.2,5.32h-1.13v-4.23h1.13Z"/><path class="cls-13" d="M284.58,164.51l0,.49a1.46,1.46,0,0,1,1.21-.57,1.21,1.21,0,0,1,1,.4,1.84,1.84,0,0,1,.34,1.18v2.73H286V166a.7.7,0,0,0-.16-.52.69.69,0,0,0-.52-.16.77.77,0,0,0-.71.41v3h-1.13v-4.23Z"/><path class="cls-13" d="M288,163.42a.54.54,0,0,1,.17-.42.62.62,0,0,1,.46-.17.65.65,0,0,1,.46.17.6.6,0,0,1,0,.84.74.74,0,0,1-.92,0A.54.54,0,0,1,288,163.42Zm1.19,5.32h-1.13v-4.23h1.13Z"/><path class="cls-13" d="M291.9,167.9a.72.72,0,0,0,.51-.17.56.56,0,0,0,.2-.45h1.06a1.45,1.45,0,0,1-.23.78,1.7,1.7,0,0,1-.63.56,2,2,0,0,1-.89.19,1.85,1.85,0,0,1-1.43-.57,2.29,2.29,0,0,1-.52-1.59v-.08a2.25,2.25,0,0,1,.52-1.56,1.82,1.82,0,0,1,1.42-.58,1.8,1.8,0,0,1,1.28.45,1.6,1.6,0,0,1,.48,1.2h-1.06a.74.74,0,0,0-.2-.53.75.75,0,0,0-1.11.08,1.6,1.6,0,0,0-.2.93v.12a1.62,1.62,0,0,0,.2.94A.67.67,0,0,0,291.9,167.9Zm.41.81,0,.23a.62.62,0,0,1,.58.68.79.79,0,0,1-.35.68,1.81,1.81,0,0,1-1,.25l0-.66c.3,0,.44-.1.44-.31a.23.23,0,0,0-.13-.23,1.24,1.24,0,0,0-.42-.08l.12-.56Z"/><path class="cls-13" d="M296.77,168.74a1.21,1.21,0,0,1-.12-.38,1.37,1.37,0,0,1-1.06.45,1.53,1.53,0,0,1-1-.35,1.15,1.15,0,0,1-.41-.91,1.17,1.17,0,0,1,.5-1,2.5,2.5,0,0,1,1.44-.37h.51v-.24a.67.67,0,0,0-.15-.47.6.6,0,0,0-.47-.17.69.69,0,0,0-.45.13.46.46,0,0,0-.16.38h-1.13a1.14,1.14,0,0,1,.23-.68,1.46,1.46,0,0,1,.64-.49,2.3,2.3,0,0,1,.93-.18,1.86,1.86,0,0,1,1.24.39,1.41,1.41,0,0,1,.46,1.11v1.83a2,2,0,0,0,.17.91v.07Zm.73-6a1.11,1.11,0,0,1-.25.74.82.82,0,0,1-.63.3,1.1,1.1,0,0,1-.27,0,2.22,2.22,0,0,1-.32-.14,1.24,1.24,0,0,0-.29-.13.58.58,0,0,0-.19,0,.33.33,0,0,0-.24.1.38.38,0,0,0-.09.28l-.66,0a1.11,1.11,0,0,1,.26-.74.8.8,0,0,1,.62-.31.85.85,0,0,1,.23,0,2.4,2.4,0,0,1,.33.15,2.06,2.06,0,0,0,.33.13.58.58,0,0,0,.19,0,.33.33,0,0,0,.23-.1.36.36,0,0,0,.1-.28ZM295.83,168a1,1,0,0,0,.46-.11.65.65,0,0,0,.31-.3v-.73h-.42c-.56,0-.86.2-.9.59v.07a.43.43,0,0,0,.15.34A.56.56,0,0,0,295.83,168Z"/><path class="cls-13" d="M298.43,166.58a2.52,2.52,0,0,1,.24-1.12,1.77,1.77,0,0,1,.7-.76,2,2,0,0,1,1.06-.27,1.91,1.91,0,0,1,1.39.53,2.12,2.12,0,0,1,.61,1.42v.29a2.24,2.24,0,0,1-.54,1.56,2.13,2.13,0,0,1-2.92,0,2.25,2.25,0,0,1-.54-1.59Zm1.13.08a1.64,1.64,0,0,0,.22.93.76.76,0,0,0,.65.31.73.73,0,0,0,.64-.31,1.69,1.69,0,0,0,.23-1,1.49,1.49,0,0,0-.23-.91.74.74,0,0,0-.64-.33.77.77,0,0,0-.65.32A1.79,1.79,0,0,0,299.56,166.66Z"/><path class="cls-13" d="M264.74,177.59a2.57,2.57,0,0,1,.44-1.57,1.45,1.45,0,0,1,1.22-.59,1.29,1.29,0,0,1,1,.46v-2.15h1.13v6h-1l-.06-.45a1.32,1.32,0,0,1-1.08.52,1.43,1.43,0,0,1-1.2-.58A2.66,2.66,0,0,1,264.74,177.59Zm1.13.09a1.66,1.66,0,0,0,.21.91.65.65,0,0,0,.6.31.75.75,0,0,0,.74-.44v-1.67a.76.76,0,0,0-.73-.44C266.14,176.35,265.87,176.79,265.87,177.68Z"/><path class="cls-13" d="M269.25,177.58a2.52,2.52,0,0,1,.24-1.12,1.77,1.77,0,0,1,.7-.76,2,2,0,0,1,1.05-.27,1.93,1.93,0,0,1,1.4.53,2.07,2.07,0,0,1,.6,1.42v.29a2.24,2.24,0,0,1-.54,1.56,2.13,2.13,0,0,1-2.92,0,2.25,2.25,0,0,1-.54-1.59Zm1.13.08a1.64,1.64,0,0,0,.22.93.83.83,0,0,0,1.29,0,1.69,1.69,0,0,0,.23-1,1.49,1.49,0,0,0-.23-.91.74.74,0,0,0-.65-.33.75.75,0,0,0-.64.32A1.79,1.79,0,0,0,270.38,177.66Z"/><path class="cls-13" d="M275.76,177.59a2.5,2.5,0,0,1,.45-1.57,1.44,1.44,0,0,1,1.21-.59,1.29,1.29,0,0,1,1,.46v-2.15h1.13v6h-1l-.05-.45a1.34,1.34,0,0,1-1.09.52,1.45,1.45,0,0,1-1.2-.58A2.66,2.66,0,0,1,275.76,177.59Zm1.13.09a1.66,1.66,0,0,0,.21.91.67.67,0,0,0,.6.31.74.74,0,0,0,.74-.44v-1.67a.75.75,0,0,0-.73-.44C277.16,176.35,276.89,176.79,276.89,177.68Z"/><path class="cls-13" d="M282.39,179.81a2.07,2.07,0,0,1-1.51-.57,2,2,0,0,1-.59-1.52v-.1a2.58,2.58,0,0,1,.25-1.14,1.77,1.77,0,0,1,.7-.78,2,2,0,0,1,1-.27,1.72,1.72,0,0,1,1.36.55,2.22,2.22,0,0,1,.5,1.55V178h-2.69a1,1,0,0,0,.33.66,1,1,0,0,0,.7.25,1.22,1.22,0,0,0,1-.47l.55.62a1.66,1.66,0,0,1-.69.56A2.17,2.17,0,0,1,282.39,179.81Zm-.13-3.47a.71.71,0,0,0-.54.23,1.18,1.18,0,0,0-.27.65H283v-.09a.82.82,0,0,0-.2-.58A.73.73,0,0,0,282.26,176.34Z"/><path class="cls-13" d="M287.06,178.57a.37.37,0,0,0-.21-.33,2.13,2.13,0,0,0-.65-.21c-1-.21-1.51-.64-1.51-1.28a1.13,1.13,0,0,1,.47-.94,1.87,1.87,0,0,1,1.22-.38,2,2,0,0,1,1.28.38,1.2,1.2,0,0,1,.49,1H287a.54.54,0,0,0-.16-.41.68.68,0,0,0-.49-.15.66.66,0,0,0-.44.13.4.4,0,0,0-.16.32.36.36,0,0,0,.18.31,2.16,2.16,0,0,0,.6.2,3.43,3.43,0,0,1,.71.19,1.15,1.15,0,0,1,.9,1.13,1.11,1.11,0,0,1-.5.94,2.13,2.13,0,0,1-1.28.35,2.32,2.32,0,0,1-.94-.18,1.7,1.7,0,0,1-.65-.52,1.19,1.19,0,0,1-.23-.72h1.07a.57.57,0,0,0,.22.46.86.86,0,0,0,.55.16.82.82,0,0,0,.49-.12A.39.39,0,0,0,287.06,178.57Z"/><path class="cls-13" d="M291.33,179.74a1.22,1.22,0,0,1-.11-.38,1.37,1.37,0,0,1-1.07.45,1.57,1.57,0,0,1-1-.35,1.17,1.17,0,0,1-.4-.91,1.19,1.19,0,0,1,.49-1,2.55,2.55,0,0,1,1.44-.37h.52v-.24a.72.72,0,0,0-.15-.47.61.61,0,0,0-.47-.17.69.69,0,0,0-.45.13.46.46,0,0,0-.16.38h-1.13a1.14,1.14,0,0,1,.23-.68,1.46,1.46,0,0,1,.64-.49,2.27,2.27,0,0,1,.93-.18,1.86,1.86,0,0,1,1.24.39,1.41,1.41,0,0,1,.46,1.11v1.83a2,2,0,0,0,.16.91v.07Zm-.93-.79a1,1,0,0,0,.46-.11.65.65,0,0,0,.31-.3v-.73h-.42c-.56,0-.86.2-.9.59v.07a.42.42,0,0,0,.14.34A.6.6,0,0,0,290.4,179Z"/><path class="cls-13" d="M293.48,179.74v-3.4h-.63v-.83h.63v-.36a1.46,1.46,0,0,1,.41-1.1,1.58,1.58,0,0,1,1.14-.4,2.84,2.84,0,0,1,.58.08v.88a1.2,1.2,0,0,0-.35,0c-.42,0-.64.2-.64.6v.34h.84v.83h-.84v3.4Z"/><path class="cls-13" d="M296,174.42a.57.57,0,0,1,.17-.42.66.66,0,0,1,.47-.17.65.65,0,0,1,.46.17.57.57,0,0,1,.17.42.54.54,0,0,1-.18.42.61.61,0,0,1-.45.16.63.63,0,0,1-.46-.16A.54.54,0,0,1,296,174.42Zm1.2,5.32H296.1v-4.23h1.13Z"/><path class="cls-13" d="M298,177.58a2.52,2.52,0,0,1,.24-1.12,1.77,1.77,0,0,1,.7-.76,2,2,0,0,1,1.05-.27,1.93,1.93,0,0,1,1.4.53,2.07,2.07,0,0,1,.6,1.42v.29a2.24,2.24,0,0,1-.54,1.56,2.13,2.13,0,0,1-2.92,0,2.25,2.25,0,0,1-.54-1.59Zm1.12.08a1.64,1.64,0,0,0,.23.93.83.83,0,0,0,1.29,0,1.77,1.77,0,0,0,.23-1,1.57,1.57,0,0,0-.23-.91.74.74,0,0,0-.65-.33.75.75,0,0,0-.64.32A1.78,1.78,0,0,0,299.11,177.66Z"/><circle class="cls-15" cx="491.11" cy="390" r="7"/><text class="cls-14" transform="translate(486.55 392.66) rotate(-0.51)">PP</text><circle class="cls-8" cx="504.25" cy="356.37" r="7"/><text class="cls-14" transform="translate(501.97 359.07) rotate(-0.25)">D</text><circle class="cls-16" cx="494.66" cy="372.09" r="7"/><text class="cls-14" transform="translate(489.27 374.66) rotate(2.5)">MR</text><circle class="cls-17" cx="441.21" cy="209.05" r="9.36"/><path class="cls-18" d="M439.73,212.48a3.85,3.85,0,1,1,2.94,0,4,4,0,0,1-.84.24h0l.37-1.79a.23.23,0,0,0,0-.18.21.21,0,0,0-.16-.08h-1.58a.19.19,0,0,0-.16.08.2.2,0,0,0,0,.18l.37,1.78v0A4,4,0,0,1,439.73,212.48Z"/><path class="cls-13" d="M442.67,212.6v1.19a1.47,1.47,0,0,1-.57,1.15,1.44,1.44,0,0,1-.9.25,1.39,1.39,0,0,1-.89-.25,1.48,1.48,0,0,1-.58-1.15V212.6a1.48,1.48,0,0,0,.58,1.15,1.39,1.39,0,0,0,.89.25,1.44,1.44,0,0,0,.9-.25A1.47,1.47,0,0,0,442.67,212.6Z"/><path class="cls-13" d="M442.67,212.48v.12a1.47,1.47,0,0,1-.57,1.15,1.44,1.44,0,0,1-.9.25,1.39,1.39,0,0,1-.89-.25,1.48,1.48,0,0,1-.58-1.15v-.12a4,4,0,0,0,1.47.29,4.23,4.23,0,0,0,.63-.05,4,4,0,0,0,.84-.24Z"/><path class="cls-18" d="M442.16,210.74a.23.23,0,0,1,0,.18l-.37,1.79h0a4.23,4.23,0,0,1-.63.05,4.07,4.07,0,0,1-.61-.05v0l-.37-1.78a.2.2,0,0,1,0-.18.19.19,0,0,1,.16-.08H442A.21.21,0,0,1,442.16,210.74Z"/><line class="cls-19" x1="438.88" y1="204.51" x2="438.38" y2="203.66"/><line class="cls-19" x1="441.21" y1="203.89" x2="441.21" y2="202.9"/><line class="cls-19" x1="443.54" y1="204.51" x2="444.03" y2="203.66"/><line class="cls-19" x1="445.25" y1="206.22" x2="446.1" y2="205.73"/><line class="cls-19" x1="437.17" y1="206.22" x2="436.32" y2="205.73"/><path class="cls-19" d="M442.67,212.48v1.31a1.47,1.47,0,0,1-.57,1.15,1.44,1.44,0,0,1-.9.25,1.39,1.39,0,0,1-.89-.25,1.48,1.48,0,0,1-.58-1.15v-1.31h0"/><path class="cls-19" d="M439.73,212.6a1.48,1.48,0,0,0,.58,1.15,1.39,1.39,0,0,0,.89.25,1.44,1.44,0,0,0,.9-.25,1.47,1.47,0,0,0,.57-1.15"/><path class="cls-19" d="M439.73,212.48a3.85,3.85,0,1,1,2.94,0,4,4,0,0,1-.84.24,4.23,4.23,0,0,1-.63.05,4,4,0,0,1-1.47-.29Z"/><path class="cls-19" d="M440.59,212.7l-.37-1.78a.2.2,0,0,1,0-.18.19.19,0,0,1,.16-.08H442a.21.21,0,0,1,.16.08.23.23,0,0,1,0,.18l-.37,1.79"/><rect class="cls-20" x="1070.19" y="354.18" width="205.79" height="175.88"/><text class="cls-21" transform="translate(1070.19 348.18)">APRENDIZADOS</text><circle class="cls-8" cx="1107.12" cy="387.76" r="7"/><text class="cls-14" transform="translate(1104.86 390.42)">D</text><circle class="cls-15" cx="1107.12" cy="487.93" r="7"/><text class="cls-14" transform="translate(1102.57 490.53)">PP</text><circle class="cls-15" cx="1107.12" cy="427.75" r="7"/><circle class="cls-22" cx="1107.12" cy="427.76" r="7"/><text class="cls-14" transform="translate(1102.53 430.37)">CC</text><circle class="cls-23" cx="1107.12" cy="447.73" r="7"/><text class="cls-14" transform="translate(1102.56 450.46)">CD</text><circle class="cls-24" cx="1107.14" cy="467.64" r="7"/><text class="cls-14" transform="translate(1102.67 470.23)">SD</text><circle class="cls-16" cx="1107.12" cy="407.75" r="7"/><text class="cls-14" transform="translate(1101.77 410.48)">MR</text><text class="cls-25" transform="translate(1121.41 391.16)">design<tspan x="0" y="19.98">mobilização de rede</tspan><tspan x="0" y="39.95">campanhas de comunicação</tspan><tspan x="0" y="59.93">ciência de dados</tspan><tspan x="0" y="79.9">soluções digitais</tspan><tspan x="0" y="99.88">políticas públicas informadas</tspan><tspan x="0" y="111.88">por evidência</tspan></text><rect class="cls-26" x="1308.82" y="354.18" width="206.83" height="175.88"/><text class="cls-21" transform="translate(1308.82 348.89)">INOVAÇÃO ABERTA</text><circle class="cls-17" cx="1348.13" cy="390.12" r="9.36"/><text class="cls-25" transform="translate(1363.05 392.75)">inovação aberta</text><text class="cls-27" transform="translate(1338.76 414.98)">Sempre que houver este símbolo, o <tspan x="0" y="12">processo poderá ser aberto para </tspan><tspan x="0" y="24">participação de atores externos nas </tspan><tspan x="0" y="36">fases subsequentes, por meio de </tspan><tspan x="0" y="48">encomendas tecnológicas, hackathons </tspan><tspan x="0" y="60">ou concursos.</tspan></text><rect class="cls-26" x="1548.49" y="354.18" width="206.83" height="175.88"/><text class="cls-21" transform="translate(1549.16 348.89)">LADO SOMBRIO</text><text class="cls-25" transform="translate(1603.38 392.75)">lado sombrio</text><text class="cls-27" transform="translate(1579.1 414.99)">A priorização de indicadores começa <tspan x="0" y="12">pelo “lado sombrio” – um processo </tspan><tspan x="0" y="24">colaborativo entre especialistas para </tspan><tspan x="0" y="36">imaginar a rotina do gestor mais </tspan><tspan x="0" y="48">ineficiente ou mais corrupto possível. </tspan><tspan x="0" y="60">Como ele esconderia ineficiências ou </tspan><tspan x="0" y="72">desvios de recursos? Quais dados, e em </tspan><tspan x="0" y="84">qual ordem, precisaríamos enxergar para </tspan><tspan x="0" y="96">evitar o pior?</tspan></text><circle class="cls-17" cx="1588.45" cy="390.12" r="9.36"/><path class="cls-28" d="M1593.84,390.12a5.34,5.34,0,0,1-3.09,4.86,5.09,5.09,0,0,1-.6.25,5.65,5.65,0,0,1-1.7.27,5.38,5.38,0,1,1,0-10.76,5.24,5.24,0,0,1,1.82.32l.47.2A5.37,5.37,0,0,1,1593.84,390.12Z"/><path class="cls-29" d="M1593.84,390.12a5.66,5.66,0,0,1-3.57,5.16c-1.82-.86-2.6-3-2.6-5.16s.78-4.24,2.6-5.11A5.84,5.84,0,0,1,1593.84,390.12Z"/><path class="cls-18" d="M1346.65,393.56a3.86,3.86,0,1,1,2.93,0,3.29,3.29,0,0,1-.83.23h0l.37-1.79a.2.2,0,0,0,0-.17.21.21,0,0,0-.17-.08h-1.57a.21.21,0,0,0-.17.08.2.2,0,0,0,0,.17l.36,1.79v0A4.13,4.13,0,0,1,1346.65,393.56Z"/><path class="cls-13" d="M1349.58,393.67v1.19A1.46,1.46,0,0,1,1349,396a1.39,1.39,0,0,1-.89.25,1.44,1.44,0,0,1-.9-.25,1.49,1.49,0,0,1-.57-1.16v-1.19a1.49,1.49,0,0,0,.57,1.16,1.44,1.44,0,0,0,.9.25,1.39,1.39,0,0,0,.89-.25A1.46,1.46,0,0,0,1349.58,393.67Z"/><path class="cls-13" d="M1349.58,393.56v.11a1.46,1.46,0,0,1-.57,1.16,1.39,1.39,0,0,1-.89.25,1.44,1.44,0,0,1-.9-.25,1.49,1.49,0,0,1-.57-1.16v-.11a4.13,4.13,0,0,0,.85.24,4.21,4.21,0,0,0,.62.05,3.36,3.36,0,0,0,.63-.06,3.29,3.29,0,0,0,.83-.23Z"/><path class="cls-18" d="M1349.08,391.82a.2.2,0,0,1,0,.17l-.37,1.79h0a3.36,3.36,0,0,1-.63.06,4.21,4.21,0,0,1-.62-.05v0l-.36-1.79a.2.2,0,0,1,0-.17.21.21,0,0,1,.17-.08h1.57A.21.21,0,0,1,1349.08,391.82Z"/><line class="cls-19" x1="1345.79" y1="385.59" x2="1345.3" y2="384.74"/><line class="cls-19" x1="1348.13" y1="384.96" x2="1348.13" y2="383.98"/><line class="cls-19" x1="1350.46" y1="385.59" x2="1350.95" y2="384.74"/><line class="cls-19" x1="1352.16" y1="387.3" x2="1353.02" y2="386.8"/><line class="cls-19" x1="1344.08" y1="387.3" x2="1343.23" y2="386.8"/><path class="cls-19" d="M1349.58,393.56v1.3A1.46,1.46,0,0,1,1349,396a1.39,1.39,0,0,1-.89.25,1.44,1.44,0,0,1-.9-.25,1.49,1.49,0,0,1-.57-1.16v-1.3h0"/><path class="cls-19" d="M1346.65,393.67a1.49,1.49,0,0,0,.57,1.16,1.44,1.44,0,0,0,.9.25,1.39,1.39,0,0,0,.89-.25,1.46,1.46,0,0,0,.57-1.16"/><path class="cls-19" d="M1346.65,393.56a3.86,3.86,0,1,1,2.93,0,3.29,3.29,0,0,1-.83.23,3.36,3.36,0,0,1-.63.06,4.21,4.21,0,0,1-.62-.05A4.13,4.13,0,0,1,1346.65,393.56Z"/><path class="cls-19" d="M1347.5,393.78l-.36-1.79a.2.2,0,0,1,0-.17.21.21,0,0,1,.17-.08h1.57a.21.21,0,0,1,.17.08.2.2,0,0,1,0,.17l-.37,1.79"/><path class="cls-3" d="M981.58,192A145.54,145.54,0,0,0,836,46.47a75,75,0,0,0-75,75c0,41.42,33.58,75,75.9,75h198.91"/><path class="cls-7" d="M786.17,177.41a.69.69,0,0,1-1,0l-9.31-10.19a.69.69,0,0,1,0-1,.69.69,0,0,1,1,0l9.31,10.2A.67.67,0,0,1,786.17,177.41Z"/><path class="cls-7" d="M786.17,177.41a.69.69,0,0,1-.5.19l-4.91-.23a.69.69,0,0,1,.06-1.38l4.22.19.2-4.24a.69.69,0,0,1,.72-.66.69.69,0,0,1,.66.73l-.22,4.92A.67.67,0,0,1,786.17,177.41Z"/><path class="cls-7" d="M973,143.5a.69.69,0,0,1-.9-.39l-5.17-12.8a.7.7,0,0,1,.38-.9.71.71,0,0,1,.91.38l5.16,12.8A.69.69,0,0,1,973,143.5Z"/><path class="cls-7" d="M973,143.5a.7.7,0,0,1-.53,0l-4.53-1.92a.7.7,0,0,1,.55-1.28l3.88,1.66L974,138a.69.69,0,0,1,1.28.54l-1.93,4.55A.72.72,0,0,1,973,143.5Z"/><path class="cls-7" d="M830.09,46.67a.69.69,0,0,1,.68-.7l13.81-.22a.7.7,0,0,1,0,1.39l-13.81.22A.7.7,0,0,1,830.09,46.67Z"/><path class="cls-7" d="M830.09,46.67a.7.7,0,0,1,.2-.49l3.42-3.53a.69.69,0,1,1,1,1l-2.94,3,3,3a.69.69,0,0,1-1,1l-3.54-3.43A.69.69,0,0,1,830.09,46.67Z"/><path class="cls-7" d="M942.74,196.42a.69.69,0,0,1-.69.69H928.24a.69.69,0,0,1,0-1.38h13.81A.69.69,0,0,1,942.74,196.42Z"/><path class="cls-7" d="M942.74,196.42a.7.7,0,0,1-.2.49l-3.48,3.48a.69.69,0,1,1-1-1l3-3-3-3a.69.69,0,1,1,1-1l3.49,3.49A.7.7,0,0,1,942.74,196.42Z"/><line class="cls-3" x1="970.69" y1="196.48" x2="1499.7" y2="196.48"/><circle class="cls-4" cx="1245.8" cy="196.48" r="40"/><circle class="cls-4" cx="1107.26" cy="196.48" r="40"/><circle class="cls-4" cx="1372.75" cy="196.48" r="40"/><circle class="cls-7" cx="1499.7" cy="196.48" r="37.5"/><path class="cls-8" d="M1499.7,161.48a35,35,0,1,1-35,35,35,35,0,0,1,35-35m0-5a40,40,0,1,0,40,40,40,40,0,0,0-40-40Z"/><circle class="cls-4" cx="873.46" cy="196.26" r="40"/><text class="cls-6" transform="translate(514.97 252.66)">APROFUNDAMENTO</text><path class="cls-7" d="M703.05,281.44a.77.77,0,0,1-.77-.78l.05-15.48a.78.78,0,1,1,1.55,0l0,15.49A.78.78,0,0,1,703.05,281.44Z"/><path class="cls-7" d="M703.05,281.44a.78.78,0,0,1-.55-.23l-3.88-3.91a.78.78,0,0,1,1.1-1.1l3.34,3.36,3.37-3.35a.78.78,0,0,1,1.1,0,.78.78,0,0,1,0,1.1l-3.93,3.89A.75.75,0,0,1,703.05,281.44Z"/><path class="cls-3" d="M981.05,177.61v60.07c0,46.45-37.65,86.11-84.1,86.11H704.33"/><path class="cls-7" d="M980.37,248.16a.78.78,0,0,1,.58.94l-3.5,15.08a.78.78,0,1,1-1.51-.36l3.5-15.08A.78.78,0,0,1,980.37,248.16Z"/><path class="cls-7" d="M980.37,248.16a.75.75,0,0,1,.48.35l2.92,4.68a.78.78,0,1,1-1.32.82l-2.5-4-4,2.52a.79.79,0,0,1-1.07-.25.77.77,0,0,1,.25-1.07l4.69-2.93A.82.82,0,0,1,980.37,248.16Z"/><path class="cls-7" d="M764.91,323.79a.78.78,0,0,1-.78.78H748.65a.78.78,0,0,1-.78-.78.77.77,0,0,1,.78-.77h15.48A.77.77,0,0,1,764.91,323.79Z"/><path class="cls-7" d="M764.91,323.79a.75.75,0,0,1-.23.55l-3.9,3.9a.77.77,0,0,1-1.1,0,.78.78,0,0,1,0-1.1l3.35-3.35-3.36-3.36a.78.78,0,0,1,1.1-1.1l3.91,3.91A.78.78,0,0,1,764.91,323.79Z"/><path class="cls-7" d="M846.08,323.79a.77.77,0,0,1-.77.78H829.83a.78.78,0,0,1-.78-.78.77.77,0,0,1,.78-.77h15.48A.76.76,0,0,1,846.08,323.79Z"/><path class="cls-7" d="M846.08,323.79a.78.78,0,0,1-.22.55l-3.9,3.9a.77.77,0,0,1-1.1,0,.78.78,0,0,1,0-1.1l3.35-3.35-3.36-3.36a.77.77,0,1,1,1.09-1.1l3.92,3.91A.82.82,0,0,1,846.08,323.79Z"/><path class="cls-7" d="M929.14,317.07a.78.78,0,0,1-.5,1L914,323a.78.78,0,0,1-.49-1.48l14.68-4.9A.78.78,0,0,1,929.14,317.07Z"/><path class="cls-7" d="M929.14,317.07a.76.76,0,0,1,0,.59l-2.46,4.94a.78.78,0,0,1-1.39-.7l2.12-4.24-4.26-2.12a.78.78,0,0,1-.35-1,.77.77,0,0,1,1-.35l5,2.47A.77.77,0,0,1,929.14,317.07Z"/><path class="cls-7" d="M1176.2,196.49a.78.78,0,0,1-.78.77h-15.48a.78.78,0,1,1,0-1.55h15.48A.78.78,0,0,1,1176.2,196.49Z"/><path class="cls-7" d="M1176.2,196.49a.78.78,0,0,1-.23.54l-3.9,3.9a.77.77,0,0,1-1.1,0,.78.78,0,0,1,0-1.1l3.35-3.34-3.36-3.37a.77.77,0,0,1,0-1.1.78.78,0,0,1,1.1,0l3.91,3.92A.79.79,0,0,1,1176.2,196.49Z"/><path class="cls-7" d="M1317.79,196.49a.78.78,0,0,1-.78.77h-15.48a.78.78,0,0,1,0-1.55H1317A.78.78,0,0,1,1317.79,196.49Z"/><path class="cls-7" d="M1317.79,196.49a.74.74,0,0,1-.23.54l-3.89,3.9a.78.78,0,1,1-1.1-1.1l3.35-3.34-3.37-3.37a.78.78,0,1,1,1.1-1.1l3.91,3.92A.75.75,0,0,1,1317.79,196.49Z"/><path class="cls-7" d="M1441.69,196.49a.78.78,0,0,1-.78.77h-15.48a.78.78,0,0,1,0-1.55h15.48A.78.78,0,0,1,1441.69,196.49Z"/><path class="cls-7" d="M1441.69,196.49a.74.74,0,0,1-.23.54l-3.9,3.9a.76.76,0,0,1-1.09,0,.77.77,0,0,1,0-1.1l3.34-3.34-3.36-3.37a.78.78,0,1,1,1.1-1.1l3.91,3.92A.75.75,0,0,1,1441.69,196.49Z"/><path class="cls-7" d="M1036.28,196.49a.77.77,0,0,1-.77.77H1020a.78.78,0,1,1,0-1.55h15.48A.77.77,0,0,1,1036.28,196.49Z"/><path class="cls-7" d="M1036.28,196.49a.77.77,0,0,1-.22.54l-3.9,3.9a.78.78,0,0,1-1.1-1.1l3.35-3.34-3.36-3.37a.77.77,0,1,1,1.09-1.1l3.92,3.92A.78.78,0,0,1,1036.28,196.49Z"/><line class="cls-9" x1="720.18" y1="238.78" x2="514.97" y2="238.78"/><circle class="cls-4" cx="925.16" cy="76.5" r="40"/><circle class="cls-15" cx="1459.05" cy="167.33" r="7"/><text class="cls-14" transform="translate(1454.5 169.99)">PP</text><circle class="cls-22" cx="1204.77" cy="167.33" r="7"/><text class="cls-14" transform="translate(1200.18 169.93)">CC</text><circle class="cls-22" cx="1331.35" cy="167.33" r="7"/><text class="cls-14" transform="translate(1326.76 169.93)">CC</text><circle class="cls-15" cx="1066.28" cy="167.3" r="7"/><text class="cls-14" transform="translate(1061.73 169.96)">PP</text><circle class="cls-8" cx="724.18" cy="78.64" r="7"/><text class="cls-14" transform="translate(721.91 81.3)">D</text><circle class="cls-8" cx="907.93" cy="28.4" r="7"/><text class="cls-14" transform="translate(905.67 31.06)">D</text><circle class="cls-15" cx="928.06" cy="25.67" r="7"/><text class="cls-14" transform="translate(923.5 28.4)">PP</text><text class="cls-6" transform="translate(1058.43 108)">IMPLEMENTAÇÃO</text><circle class="cls-4" cx="980.84" cy="196.58" r="26.21"/><text class="cls-6" transform="translate(1194.12 108.29)">COMUNICAÇÃO</text><line class="cls-9" x1="1188.12" y1="99.83" x2="1188.12" y2="217.99"/><path class="cls-30" d="M992.4,190.87v13.77a11,11,0,1,1-22,0V190.87a11,11,0,1,1,22,0Zm-5.53,0a5.48,5.48,0,1,0-5.48,5.47A5.48,5.48,0,0,0,986.87,190.89Zm0,15.34a5.48,5.48,0,1,0-5.48,5.48A5.47,5.47,0,0,0,986.87,206.23Z"/><path class="cls-31" d="M981.39,185.41a5.48,5.48,0,1,1-5.47,5.48A5.48,5.48,0,0,1,981.39,185.41Zm2.51,5.15a.44.44,0,0,0,0-.62l-2.16-2.16,0,0a.46.46,0,0,0-.31-.13h-.17l-.07,0h0l-.06.06,0,0L978.89,190a.43.43,0,0,0,0,.61.42.42,0,0,0,.62,0l1.45-1.45v4.95a.44.44,0,0,0,.88,0v-4.95l1.44,1.45A.44.44,0,0,0,983.9,190.56Z"/><path class="cls-15" d="M981.39,200.76a5.48,5.48,0,1,1-5.47,5.47A5.47,5.47,0,0,1,981.39,200.76Zm3.44,5.48a.31.31,0,0,0,0-.1v0a.42.42,0,0,0-.11-.18l0,0-2.17-2.17a.43.43,0,0,0-.61,0,.44.44,0,0,0,0,.62l1.45,1.45H978.4a.44.44,0,0,0-.44.44.43.43,0,0,0,.44.43h4.94l-1.45,1.45a.44.44,0,0,0,.62.62l2.19-2.19a.49.49,0,0,0,.11-.18v0A.34.34,0,0,0,984.83,206.24Z"/><path class="cls-32" d="M984.82,206.14a.31.31,0,0,1,0,.1.34.34,0,0,1,0,.1v0a.49.49,0,0,1-.11.18.41.41,0,0,1-.31.12h-1l.44-.43-.44-.44h1a.43.43,0,0,1,.28.1l0,0a.42.42,0,0,1,.11.18Z"/><path class="cls-32" d="M984.82,206.14v0Z"/><path class="cls-32" d="M984.81,206.37v0Z"/><path class="cls-32" d="M984.7,206.55l-2.19,2.19a.44.44,0,0,1-.62-.62l1.45-1.45h1A.41.41,0,0,0,984.7,206.55Z"/><path class="cls-32" d="M982.5,203.73l2.17,2.17a.43.43,0,0,0-.28-.1h-1l-1.45-1.45a.44.44,0,0,1,0-.62A.43.43,0,0,1,982.5,203.73Z"/><path class="cls-32" d="M983.9,189.94a.44.44,0,0,1-.62.62l-1.44-1.45v-1.05a.43.43,0,0,0-.1-.28Z"/><path class="cls-32" d="M983.78,206.24l-.44.43H978.4a.43.43,0,0,1-.44-.43.44.44,0,0,1,.44-.44h4.94Z"/><path class="cls-32" d="M981.84,189.11v4.95a.44.44,0,0,1-.88,0v-4.95l.44-.44Z"/><path class="cls-32" d="M981.84,188.06v1.05l-.44-.44-.44.44v-1.05a.43.43,0,0,1,.1-.28l0,0,.06-.06h0l.07,0h.17a.46.46,0,0,1,.31.13l0,0A.43.43,0,0,1,981.84,188.06Z"/><path class="cls-32" d="M981.71,187.75l0,0Z"/><path class="cls-32" d="M981.3,187.63h0Z"/><path class="cls-32" d="M981.23,187.65l-.07,0Z"/><path class="cls-32" d="M981.15,187.69l-.06.06Z"/><path class="cls-32" d="M981.09,187.75l0,0Z"/><path class="cls-32" d="M978.89,190l2.17-2.17a.43.43,0,0,0-.1.28v1.05l-1.45,1.45a.42.42,0,0,1-.62,0A.43.43,0,0,1,978.89,190Z"/><path class="cls-33" d="M981.39,179.86a11,11,0,0,0-11,11v13.77a11,11,0,0,0,22,0V190.87A11,11,0,0,0,981.39,179.86Z"/><circle class="cls-34" cx="981.39" cy="190.89" r="5.47"/><circle class="cls-34" cx="981.39" cy="206.23" r="5.47"/><path class="cls-34" d="M974.17,190.89a7.23,7.23,0,1,1,14.45,0"/><path class="cls-34" d="M974.17,206.23a7.23,7.23,0,1,1,14.45,0"/><path class="cls-13" d="M1514.19,200.83c1.59,3.3,1.06,8.25,1.06,8.25a1.36,1.36,0,0,0-.5-1c-1-.92-3.35-1.57-6.1-1.57s-5.09.65-6.09,1.57a1.36,1.36,0,0,0-.5,1s-.54-5,1.06-8.25l0-.16h0c.2-1.11,2.59-2,5.51-2s5.33.88,5.52,2Z"/><path class="cls-17" d="M1514.75,208.1a1.36,1.36,0,0,1,.5,1c0,1.41-3,2.55-6.6,2.55s-6.59-1.14-6.59-2.55a1.36,1.36,0,0,1,.5-1c1,.92,3.35,1.57,6.09,1.57S1513.75,209,1514.75,208.1Z"/><path class="cls-13" d="M1504.31,185l.33-.64a8.27,8.27,0,0,1,8,0l.34.65,1.16,15.7c-.19-1.12-2.58-2-5.52-2s-5.31.88-5.51,2l.2-2.73h.46l.92-1.82v-4.43h-.91l.49-6.71Z"/><path class="cls-24" d="M1508.65,206.53c2.75,0,5.1.65,6.1,1.57-1,.92-3.35,1.57-6.1,1.57s-5.09-.65-6.09-1.57C1503.56,207.18,1505.91,206.53,1508.65,206.53Z"/><path class="cls-17" d="M1512,183l.69,1.33a8.27,8.27,0,0,0-8,0l.69-1.33c0-.71,1.49-1.29,3.32-1.29S1512,182.28,1512,183Z"/><polygon class="cls-13" points="1504.72 191.68 1504.72 196.11 1494.69 196.11 1494.69 191.68 1495.6 191.68 1503.81 191.68 1504.72 191.68"/><polygon class="cls-17" points="1504.72 196.11 1503.8 197.93 1503.34 197.93 1496.07 197.93 1495.6 197.93 1494.69 196.11 1504.72 196.11"/><path class="cls-13" d="M1496.28,200.83c1.54,3.18,1.1,7.88,1.07,8.23a1.39,1.39,0,0,0-.51-1c-1-.92-3.35-1.57-6.09-1.57s-5.1.65-6.09,1.57a1.34,1.34,0,0,0-.51,1s-.53-5,1.07-8.25v-.16c.19-1.12,2.59-2,5.52-2s5.32.88,5.52,2h0Z"/><path class="cls-17" d="M1497.35,209.07h0c0,1.41-3,2.55-6.6,2.55s-6.6-1.14-6.6-2.55a1.34,1.34,0,0,1,.51-1c1,.92,3.35,1.57,6.09,1.57s5.1-.65,6.09-1.57a1.39,1.39,0,0,1,.51,1Z"/><path class="cls-13" d="M1496.06,197.93l.21,2.73c-.2-1.11-2.6-2-5.52-2s-5.33.88-5.52,2l1.17-15.7.33-.65a8.31,8.31,0,0,1,8,0h0l.33.65.5,6.71h-.91v4.43l.91,1.82Z"/><ellipse class="cls-24" cx="1490.75" cy="208.1" rx="6.09" ry="1.57"/><path class="cls-17" d="M1494.08,183l.68,1.32a8.31,8.31,0,0,0-8,0l.69-1.33c0-.71,1.49-1.29,3.33-1.29S1494.08,182.28,1494.08,183Z"/><path class="cls-35" d="M1515.25,209.08c0,1.41-3,2.55-6.6,2.55s-6.59-1.14-6.59-2.55a1.36,1.36,0,0,1,.5-1c1-.92,3.35-1.57,6.09-1.57s5.1.65,6.1,1.57A1.36,1.36,0,0,1,1515.25,209.08Z"/><path class="cls-35" d="M1497.35,209.07h0c0,1.41-3,2.55-6.6,2.55s-6.6-1.14-6.6-2.55a1.34,1.34,0,0,1,.51-1c1-.92,3.35-1.57,6.09-1.57s5.1.65,6.09,1.57a1.39,1.39,0,0,1,.51,1"/><path class="cls-35" d="M1502.56,208.1c1,.92,3.35,1.57,6.09,1.57s5.1-.65,6.1-1.57"/><path class="cls-35" d="M1484.66,208.1c1,.92,3.35,1.57,6.09,1.57s5.1-.65,6.09-1.57"/><path class="cls-35" d="M1496.27,200.67a.61.61,0,0,1,0,.14"/><path class="cls-35" d="M1485.22,200.81a.61.61,0,0,1,0-.14c.19-1.12,2.59-2,5.52-2s5.32.88,5.52,2"/><path class="cls-35" d="M1487.42,183c0-.71,1.49-1.29,3.33-1.29s3.33.58,3.33,1.29"/><path class="cls-35" d="M1486.4,185a.92.92,0,0,1,.33-.65,8.31,8.31,0,0,1,8,0,.91.91,0,0,1,.34.66"/><path class="cls-35" d="M1504.31,185h0a.86.86,0,0,1,.33-.64,8.27,8.27,0,0,1,8,0,.89.89,0,0,1,.34.65"/><path class="cls-35" d="M1505.33,183c0-.71,1.49-1.29,3.32-1.29s3.33.58,3.33,1.29"/><path class="cls-35" d="M1503.14,200.66c.2-1.11,2.59-2,5.51-2s5.33.88,5.52,2a.59.59,0,0,1,0,.14"/><path class="cls-35" d="M1503.12,200.81a.59.59,0,0,1,0-.14"/><polygon class="cls-35" points="1494.69 196.11 1504.72 196.11 1504.72 191.68 1503.81 191.68 1495.6 191.68 1494.69 191.68 1494.69 196.11"/><polyline class="cls-35" points="1494.69 196.11 1495.6 197.93 1496.07 197.93 1503.34 197.93 1503.8 197.93 1504.72 196.11"/><path class="cls-35" d="M1487.42,183l-.69,1.33-.33.65-1.17,15.7v.16c-1.6,3.3-1.07,8.25-1.07,8.25"/><path class="cls-35" d="M1496.06,197.93l.21,2.73h0v.16c1.54,3.18,1.1,7.88,1.07,8.23h0"/><polyline class="cls-35" points="1495.6 191.68 1495.1 184.97 1494.77 184.32 1494.76 184.31 1494.08 182.99"/><path class="cls-35" d="M1503.34,197.93l-.2,2.73h0l0,.16c-1.6,3.3-1.06,8.25-1.06,8.25"/><polyline class="cls-35" points="1503.81 191.68 1504.3 184.97 1504.31 184.96 1504.64 184.32 1505.33 182.99"/><path class="cls-35" d="M1512,183l.69,1.33.34.65,1.16,15.7,0,.16c1.59,3.3,1.06,8.25,1.06,8.25"/><circle class="cls-23" cx="845.06" cy="154.48" r="7"/><text class="cls-14" transform="translate(840.5 157.21)">CD</text><circle class="cls-24" cx="832.4" cy="167.1" r="7"/><text class="cls-14" transform="translate(827.95 169.83)">SD</text><text class="cls-11" transform="translate(910.62 68.97)">geração<tspan x="-7.96" y="11">e seleção de</tspan><tspan x="-6.66" y="22">alternativas</tspan></text><text class="cls-11" transform="translate(855.93 195.39)"><tspan class="cls-12">teste com</tspan><tspan x="0.85" y="11">o usuário</tspan></text><text class="cls-10" transform="translate(1084.15 194.93)">estratégia de<tspan x="-4.26" y="11">implementação</tspan></text><text class="cls-10" transform="translate(1228.12 193.93)">produção<tspan x="-3.52" y="11">de relatório</tspan></text><text class="cls-10" transform="translate(1353.56 194.93)">divulgação<tspan x="1.26" y="11">do projeto</tspan></text><line class="cls-9" x1="1052.38" y1="99.83" x2="1052.38" y2="215.55"/><circle class="cls-4" cx="764.93" cy="107.8" r="40"/><text class="cls-11" transform="translate(744.28 105.72)"><tspan class="cls-12">desenh</tspan><tspan x="25.75" y="0">o do</tspan><tspan x="4.13" y="11">protótipo</tspan></text><text class="cls-6" transform="translate(997.55 298.97)">SESSÃO DE IDEIAS</text><line class="cls-9" x1="946.47" y1="282.91" x2="1100.32" y2="282.91"/><path class="cls-7" d="M578.82,324.84a.77.77,0,0,0-1-.51l-14.79,4.57a.78.78,0,0,0-.51,1,.77.77,0,0,0,1,.51l14.79-4.57A.78.78,0,0,0,578.82,324.84Z"/><path class="cls-7" d="M578.82,324.84a.77.77,0,0,0-.38-.45l-4.87-2.58a.78.78,0,0,0-1.05.33.77.77,0,0,0,.32,1.05L577,325.4l-2.22,4.2a.78.78,0,1,0,1.37.73l2.59-4.89A.83.83,0,0,0,578.82,324.84Z"/><path class="cls-7" d="M685.4,388.77a.78.78,0,0,0,1-.36l6.67-14a.77.77,0,0,0-.36-1,.79.79,0,0,0-1,.37l-6.67,14A.76.76,0,0,0,685.4,388.77Z"/><path class="cls-7" d="M685.4,388.77a.83.83,0,0,0,.6,0l5.19-1.84a.78.78,0,0,0-.51-1.47l-4.47,1.58-1.58-4.48a.78.78,0,1,0-1.47.51l1.84,5.22A.79.79,0,0,0,685.4,388.77Z"/><path class="cls-7" d="M618.93,436.18a.78.78,0,0,0,1,.49l14.64-5.05a.79.79,0,0,0,.48-1,.77.77,0,0,0-1-.48l-14.63,5.05A.77.77,0,0,0,618.93,436.18Z"/><path class="cls-7" d="M618.93,436.18a.77.77,0,0,0,.4.45l5,2.41a.77.77,0,0,0,1-.35.77.77,0,0,0-.35-1l-4.26-2.08,2.08-4.27a.78.78,0,0,0-1.4-.68l-2.42,5A.81.81,0,0,0,618.93,436.18Z"/><path class="cls-7" d="M659.39,324a.77.77,0,0,0-.77-.78H643.14a.78.78,0,0,0,0,1.56h15.48A.77.77,0,0,0,659.39,324Z"/><path class="cls-7" d="M659.39,324a.8.8,0,0,0-.22-.55l-3.9-3.9a.78.78,0,0,0-1.1,0,.77.77,0,0,0,0,1.1l3.35,3.35-3.37,3.36a.78.78,0,0,0,0,1.1.77.77,0,0,0,1.1,0l3.92-3.91A.8.8,0,0,0,659.39,324Z"/><circle class="cls-4" cx="702.93" cy="326.19" r="26.21"/><path class="cls-30" d="M713.94,333.08V319.31a11,11,0,1,0-22,0v13.77a11,11,0,1,0,22,0Zm-5.53,0a5.48,5.48,0,1,1-5.48-5.47A5.48,5.48,0,0,1,708.41,333.06Zm0-15.35a5.48,5.48,0,1,1-5.48-5.47A5.48,5.48,0,0,1,708.41,317.71Z"/><path class="cls-31" d="M702.93,338.54a5.48,5.48,0,1,0-5.47-5.48A5.48,5.48,0,0,0,702.93,338.54Zm2.51-5.15a.44.44,0,0,1,0,.62l-2.19,2.19a.49.49,0,0,1-.18.11h-.3l0,0-.1-.08,0,0L700.43,334a.43.43,0,0,1,0-.61.44.44,0,0,1,.62,0l1.45,1.45v-4.95a.44.44,0,0,1,.88,0v4.95l1.44-1.45A.44.44,0,0,1,705.44,333.39Z"/><path class="cls-15" d="M702.93,323.19a5.48,5.48,0,1,0-5.47-5.48A5.48,5.48,0,0,0,702.93,323.19Zm3.44-5.48a.41.41,0,0,1,0,.11v0s0,0,0,0l0,0a.28.28,0,0,1-.08.11l0,0L704,320.22a.43.43,0,0,1-.61,0,.44.44,0,0,1,0-.62l1.45-1.45h-4.94a.44.44,0,0,1,0-.88h4.94l-1.45-1.44a.44.44,0,0,1,.62-.62l2.16,2.16,0,0a.28.28,0,0,1,.08.11l0,.05v.05A.38.38,0,0,1,706.37,317.71Z"/><path class="cls-32" d="M706.36,317.82a.41.41,0,0,0,0-.11.38.38,0,0,0,0-.1v-.05l0-.05a.28.28,0,0,0-.08-.11l0,0a.43.43,0,0,0-.28-.1h-1l.44.44-.44.44h1a.43.43,0,0,0,.28-.1l0,0a.28.28,0,0,0,.08-.11l0,0s0,0,0,0Z"/><path class="cls-32" d="M706.35,317.58v0Z"/><path class="cls-32" d="M706.36,317.82v0Z"/><path class="cls-32" d="M706.32,317.91l0,0Z"/><path class="cls-32" d="M706.32,317.51l0,.05Z"/><path class="cls-32" d="M704,320.22l2.17-2.17a.43.43,0,0,1-.28.1h-1l-1.45,1.45a.44.44,0,0,0,0,.62A.43.43,0,0,0,704,320.22Z"/><path class="cls-32" d="M706.21,317.37l-2.16-2.16a.44.44,0,0,0-.62.62l1.45,1.44h1A.43.43,0,0,1,706.21,317.37Z"/><path class="cls-32" d="M705.44,334a.44.44,0,1,0-.62-.62l-1.44,1.45v1.05a.44.44,0,0,1-.13.31Z"/><path class="cls-32" d="M705.32,317.71l-.44-.44h-4.94a.44.44,0,0,0,0,.88h4.94Z"/><path class="cls-32" d="M703.38,334.84v-4.95a.44.44,0,0,0-.88,0v4.95l.44.44Z"/><path class="cls-32" d="M703.38,335.89v-1.05l-.44.44-.44-.44v1.05a.43.43,0,0,0,.1.28l0,0,.1.08,0,0h.3a.49.49,0,0,0,.18-.11A.44.44,0,0,0,703.38,335.89Z"/><path class="cls-32" d="M703.07,336.31h0Z"/><path class="cls-32" d="M702.84,336.32h0Z"/><path class="cls-32" d="M702.77,336.3l0,0Z"/><path class="cls-32" d="M702.63,336.2l0,0Z"/><path class="cls-32" d="M700.43,334l2.17,2.17a.43.43,0,0,1-.1-.28v-1.05l-1.45-1.45a.44.44,0,0,0-.62,0A.43.43,0,0,0,700.43,334Z"/><path class="cls-36" d="M702.93,344.09a11,11,0,0,1-11-11V319.31a11,11,0,0,1,22,0v13.77A11,11,0,0,1,702.93,344.09Z"/><circle class="cls-36" cx="702.93" cy="333.06" r="5.47"/><circle class="cls-36" cx="702.93" cy="317.71" r="5.47"/><path class="cls-36" d="M695.71,333.06a7.23,7.23,0,1,0,14.45,0"/><path class="cls-36" d="M695.71,317.72a7.23,7.23,0,1,0,14.45,0"/></svg>