<svg id="Camada_1" data-name="Camada 1" xmlns="http://www.w3.org/2000/svg" viewBox="0 0 293.26 293.18"><defs><style>.cls-1,.cls-3{fill:none;}.cls-1{stroke:#d6d7d7;stroke-miterlimit:10;stroke-width:8px;}.cls-2{fill:#fff;}.cls-2,.cls-4{stroke:#21344a;}.cls-2,.cls-3,.cls-4,.cls-5{stroke-linecap:round;stroke-linejoin:round;stroke-width:4px;}.cls-3{stroke:#122a3b;}.cls-4{fill:#2866ae;}.cls-5{fill:#6dcdd9;stroke:#22344a;}</style></defs><title>maos</title><circle class="cls-1" cx="146.63" cy="145.18" r="139.01"/><path class="cls-2" d="M79.13,152.58s17.77,24.54,60.32,49.09c0,0,21.35,11.12,29.45-3.93,0,0,9.25,2.7,12.76-6.54a12.82,12.82,0,0,0,.82-2.21c0-.41,9,.11,11.29-9.89,0,0,9.78,0,9.74-10.57,0-4.71-13.58-14.56-23.24-20.62s-23.72-15.21-33.05-17.83-21.68-8.92-31.34-11.05-12.56-7.69-12.56-7.69Z"/><path class="cls-2" d="M193.25,112.2a15.46,15.46,0,0,1-13.71,3.4c-8.19-2-32.08-10.15-45.82-1.48S110.81,134.41,120,141.61s17.35-7.36,17.35-7.36,4-5.07,9.9-4.17c7.58,1.16,48.84,27,54.24,34.38,0,0,9.28-5,14.87-12.65Z"/><rect class="cls-2" x="104.24" y="158.71" width="14.52" height="33.82" rx="7.26" transform="translate(125.08 -31.96) rotate(36.15)"/><rect class="cls-2" x="115.16" y="170.9" width="14.52" height="28.87" rx="7.26" transform="translate(132.91 -36.53) rotate(36.15)"/><rect class="cls-2" x="126.13" y="183.47" width="14.52" height="22.66" rx="7.26" transform="translate(140.61 -41.19) rotate(36.15)"/><rect class="cls-2" x="91.08" y="158.59" width="14.54" height="21.29" rx="7.27" transform="translate(118.78 -25.43) rotate(36.15)"/><line class="cls-3" x1="168.9" y1="197.74" x2="148.12" y2="187.27"/><line class="cls-3" x1="182.48" y1="188.99" x2="156.14" y2="173.85"/><line class="cls-3" x1="193.77" y1="179.1" x2="163.66" y2="160.1"/><path class="cls-4" d="M62.41,155.4l6.3,3.73a5.72,5.72,0,0,0,7.86-2l27.58-47.33a5.72,5.72,0,0,0-2.08-7.84L94.6,97.61a5.71,5.71,0,0,0-7.87,2.19L60.31,147.72A5.71,5.71,0,0,0,62.41,155.4Z"/><path class="cls-5" d="M191.74,109.5l26.51,45.95a5.45,5.45,0,0,0,7.38,2l7.24-4A5.45,5.45,0,0,0,235,146l-25.9-46.48a5.46,5.46,0,0,0-7.51-2.05l-7.85,4.57A5.46,5.46,0,0,0,191.74,109.5Z"/></svg>