<svg id="Camada_1" data-name="Camada 1" xmlns="http://www.w3.org/2000/svg" viewBox="0 0 293.26 293.18"><defs><style>.cls-1,.cls-2,.cls-3{fill:none;}.cls-1{stroke:#d6d7d7;stroke-width:8px;}.cls-1,.cls-4{stroke-miterlimit:10;}.cls-2,.cls-3{stroke:#22344b;stroke-linecap:round;stroke-linejoin:round;stroke-width:4px;}.cls-3{stroke-dasharray:11.95 11.95;}.cls-4{fill:#e8541c;stroke:#21344a;stroke-width:2px;}.cls-5{fill:#23354b;}</style></defs><title>mapeamento</title><circle class="cls-1" cx="146.63" cy="145.18" r="139.01"/><line class="cls-2" x1="78.06" y1="210.65" x2="84.06" y2="210.65"/><path class="cls-3" d="M96,210.65H207.35s32.12-3.94,32.12-32.81S206,143.72,206,143.72H93.17s-39.37,5.57-39.37-30S87.92,82,87.92,82h58.55"/><line class="cls-2" x1="152.45" y1="82.03" x2="158.45" y2="82.03"/><path class="cls-4" d="M198.83,94.68A5.45,5.45,0,0,1,195,104a5.4,5.4,0,0,1-3.85-1.59L178.34,89.61l-12.78,12.78a5.45,5.45,0,0,1-7.71-7.71l12.78-12.77L157.85,69.12a5.45,5.45,0,1,1,7.71-7.7l12.78,12.77,12.79-12.77a5.44,5.44,0,1,1,7.7,7.7L186.05,81.91Z"/><circle class="cls-5" cx="65.53" cy="210.65" r="6.55"/></svg>