<svg id="Camada_1" data-name="Camada 1" xmlns="http://www.w3.org/2000/svg" viewBox="0 0 293.26 293.18"><defs><style>.cls-1,.cls-4{fill:none;}.cls-1{stroke:#d6d7d7;stroke-miterlimit:10;stroke-width:8px;}.cls-2{fill:#fff;}.cls-3{fill:#2866ae;}.cls-4{stroke:#21344a;stroke-linecap:round;stroke-linejoin:round;stroke-width:4px;}</style></defs><circle class="cls-1" cx="146.63" cy="145.18" r="139.01"/><path class="cls-2" d="M137.76,153.13a8.87,8.87,0,1,0,8.87-8.85A8.88,8.88,0,0,0,137.76,153.13Zm8.87,29.51a29.5,29.5,0,1,1,29.49-29.51A29.5,29.5,0,0,1,146.63,182.64Z"/><path class="cls-3" d="M155.5,153.13a8.87,8.87,0,1,1-8.87-8.85A8.87,8.87,0,0,1,155.5,153.13Z"/><path class="cls-2" d="M146.63,105.61a47.53,47.53,0,1,0,47.53,47.52A47.53,47.53,0,0,0,146.63,105.61ZM61.41,153.14c0-14.89,30.79-50.35,85.22-50.35,54.62,0,85.23,34.94,85.23,50.35,0,15.57-30.61,50.36-85.23,50.36C92.2,203.5,61.41,169.19,61.41,153.14Z"/><path class="cls-3" d="M146.63,123.65a29.5,29.5,0,1,0,29.49,29.48A29.49,29.49,0,0,0,146.63,123.65ZM99.11,153.13a47.53,47.53,0,1,1,47.52,47.54A47.53,47.53,0,0,1,99.11,153.13Z"/><ellipse class="cls-4" cx="146.63" cy="153.14" rx="85.22" ry="50.36"/><path class="cls-4" d="M155.5,153.13a8.87,8.87,0,1,1-8.87-8.85A8.87,8.87,0,0,1,155.5,153.13Z"/><path class="cls-4" d="M146.63,105.61a47.53,47.53,0,1,0,47.53,47.52A47.53,47.53,0,0,0,146.63,105.61Z"/><path class="cls-4" d="M146.63,182.64a29.5,29.5,0,1,1,29.49-29.51A29.5,29.5,0,0,1,146.63,182.64Z"/><line class="cls-4" x1="146.63" y1="90.76" x2="146.63" y2="77.26"/><line class="cls-4" x1="180.18" y1="95.06" x2="183.71" y2="82.04"/><line class="cls-4" x1="211.57" y1="109" x2="218.4" y2="97.37"/><line class="cls-4" x1="113.07" y1="95.06" x2="109.55" y2="82.04"/><line class="cls-4" x1="81.7" y1="109" x2="74.86" y2="97.37"/></svg>