<svg id="Camada_1" data-name="Camada 1" xmlns="http://www.w3.org/2000/svg" viewBox="0 0 293.26 293.18"><defs><style>.cls-1,.cls-5{fill:none;}.cls-1{stroke:#d6d7d7;stroke-miterlimit:10;stroke-width:8px;}.cls-2{fill:#2866ae;}.cls-3{fill:#fff;}.cls-4{fill:#d8d5d5;}.cls-5{stroke:#21344a;stroke-linecap:round;stroke-linejoin:round;stroke-width:4px;}</style></defs><title>pcp</title><circle class="cls-1" cx="146.63" cy="145.18" r="139.01"/><path class="cls-2" d="M151.69,150.54a6.77,6.77,0,1,1-6.75,6.77A6.76,6.76,0,0,1,151.69,150.54Z"/><path class="cls-2" d="M151.69,121a36.27,36.27,0,1,1-36.26,36.27A36.27,36.27,0,0,1,151.69,121Zm22.51,36.27a22.5,22.5,0,1,0-22.51,22.49A22.5,22.5,0,0,0,174.2,157.31Z"/><path class="cls-3" d="M210.59,105.37V226.92H93.82V63.45h74.85v41.9h41.9ZM188,157.31a36.27,36.27,0,1,0-36.28,36.26A36.27,36.27,0,0,0,188,157.31Z"/><polygon class="cls-4" points="210.57 105.35 168.67 105.35 168.67 63.45 210.57 105.35"/><path class="cls-3" d="M151.69,134.8a22.5,22.5,0,1,1-22.49,22.51A22.5,22.5,0,0,1,151.69,134.8Zm6.77,22.51a6.76,6.76,0,1,0-6.77,6.76A6.76,6.76,0,0,0,158.46,157.31Z"/><polygon class="cls-5" points="210.57 105.35 210.59 105.37 210.59 226.92 93.82 226.92 93.82 63.45 168.67 63.45 210.57 105.35"/><path class="cls-5" d="M151.69,150.54a6.77,6.77,0,1,1-6.75,6.77A6.76,6.76,0,0,1,151.69,150.54Z"/><path class="cls-5" d="M115.43,157.31A36.27,36.27,0,1,0,151.69,121,36.27,36.27,0,0,0,115.43,157.31Z"/><path class="cls-5" d="M174.2,157.31a22.5,22.5,0,1,1-22.51-22.51A22.5,22.5,0,0,1,174.2,157.31Z"/><polyline class="cls-5" points="168.67 63.45 168.67 105.35 210.57 105.35 210.59 105.35"/></svg>