<svg id="Camada_1" data-name="Camada 1" xmlns="http://www.w3.org/2000/svg" viewBox="0 0 293.26 293.18"><defs><style>.cls-1,.cls-3,.cls-6{fill:none;}.cls-1{stroke:#d6d7d7;stroke-width:8px;}.cls-1,.cls-6{stroke-miterlimit:10;}.cls-2{fill:#d8d5d5;}.cls-3,.cls-6{stroke:#21344a;stroke-width:4px;}.cls-3{stroke-linecap:round;stroke-linejoin:round;}.cls-4{fill:#2866ae;}.cls-5{fill:#fff;}</style></defs><title>pesquisa de mesa_1</title><circle class="cls-1" cx="146.63" cy="145.18" r="139.01"/><polygon class="cls-2" points="200.44 172.88 219.81 206.61 63.81 206.61 83.18 172.88 87.82 172.88 195.8 172.88 200.44 172.88"/><path class="cls-2" d="M202,99.52v67.19a6.17,6.17,0,0,1-6.17,6.17h-108a6.18,6.18,0,0,1-6.17-6.17V99.52a6.17,6.17,0,0,1,6.17-6.17h108A6.17,6.17,0,0,1,202,99.52Zm-8.92,63.8V102.91H90.58v60.41Z"/><path class="cls-3" d="M195.8,172.88a6.17,6.17,0,0,0,6.17-6.17V99.52a6.17,6.17,0,0,0-6.17-6.17h-108a6.17,6.17,0,0,0-6.17,6.17v67.19a6.18,6.18,0,0,0,6.17,6.17"/><polygon class="cls-3" points="219.81 206.61 200.44 172.88 195.8 172.88 87.82 172.88 83.18 172.88 63.81 206.61 219.81 206.61"/><rect class="cls-3" x="90.58" y="102.91" width="102.47" height="60.41"/><polyline class="cls-3" points="63.81 206.61 65.34 214.26 218.28 214.26 219.81 206.61"/><path class="cls-2" d="M256.37,169.05c2,2,1.18,6.09-2.3,9.57s-7.56,4.33-9.58,2.32l-.18-.2-34.67-36.93c-1.11-1.11-1.19-3-.23-4.95l4.9-4.9c2-1,3.83-.88,4.94.24l36.94,34.66Z"/><polygon class="cls-2" points="214.3 133.95 209.4 138.85 204.81 134.26 207.08 132 207.47 131.6 209.71 129.37 214.3 133.95"/><path class="cls-4" d="M207.25,69.71a43.9,43.9,0,0,1,.22,61.89l-.39.4a43.92,43.92,0,1,1,.17-62.29Zm-7.12,55a33.83,33.83,0,1,0-47.84,0A33.85,33.85,0,0,0,200.13,124.69Z"/><path class="cls-5" d="M200.12,76.84a33.82,33.82,0,1,1-47.83,0A33.85,33.85,0,0,1,200.12,76.84Z"/><path class="cls-3" d="M200.13,124.69a33.83,33.83,0,1,1,0-47.85A33.84,33.84,0,0,1,200.13,124.69Z"/><path class="cls-6" d="M207.47,131.6a43.38,43.38,0,1,0-.39.4"/><path class="cls-3" d="M254.07,178.62c-3.48,3.49-7.56,4.33-9.58,2.32l-.18-.2-34.67-36.93c-1.11-1.11-1.19-3-.23-4.95l4.9-4.9c2-1,3.83-.88,4.94.24l36.94,34.66.18.19C258.39,171.07,257.55,175.14,254.07,178.62Z"/><polyline class="cls-3" points="209.41 138.86 209.4 138.85 204.81 134.26 207.08 132 207.47 131.6 209.71 129.37 214.3 133.95 209.4 138.85"/></svg>