<svg id="Camada_1" data-name="Camada 1" xmlns="http://www.w3.org/2000/svg" viewBox="0 0 293.26 293.18"><defs><style>.cls-1,.cls-4,.cls-6{fill:none;}.cls-1{stroke:#d6d7d7;stroke-width:8px;}.cls-1,.cls-6{stroke-miterlimit:10;}.cls-2{fill:#fff;}.cls-3{fill:#d8d5d5;}.cls-4,.cls-6{stroke:#21344a;stroke-width:4px;}.cls-4{stroke-linecap:round;stroke-linejoin:round;}.cls-5{fill:#2866ae;}</style></defs><title>pesquisa de mesa fundo branco</title><circle class="cls-1" cx="146.63" cy="146.56" r="139.01"/><rect class="cls-2" x="90.58" y="102.91" width="102.47" height="60.41"/><polygon class="cls-2" points="64.16 208.34 65.49 214.49 218.28 214.26 219.81 207.61 64.16 208.34"/><polygon class="cls-3" points="200.44 172.88 219.81 206.61 63.81 206.61 83.18 172.88 87.82 172.88 195.8 172.88 200.44 172.88"/><path class="cls-3" d="M202,99.52v67.19a6.17,6.17,0,0,1-6.17,6.17h-108a6.18,6.18,0,0,1-6.17-6.17V99.52a6.17,6.17,0,0,1,6.17-6.17h108A6.17,6.17,0,0,1,202,99.52Zm-8.92,63.8V102.91H90.58v60.41Z"/><path class="cls-4" d="M195.8,172.88a6.17,6.17,0,0,0,6.17-6.17V99.52a6.17,6.17,0,0,0-6.17-6.17h-108a6.17,6.17,0,0,0-6.17,6.17v67.19a6.18,6.18,0,0,0,6.17,6.17"/><polygon class="cls-4" points="219.81 206.61 200.44 172.88 195.8 172.88 87.82 172.88 83.18 172.88 63.81 206.61 219.81 206.61"/><rect class="cls-4" x="90.58" y="102.91" width="102.47" height="60.41"/><polyline class="cls-4" points="63.81 206.61 65.34 214.26 218.28 214.26 219.81 206.61"/><path class="cls-3" d="M256.38,169.05c2,2,1.17,6.1-2.32,9.58s-7.55,4.32-9.57,2.3l-.18-.19L209.64,143.8c-1.11-1.11-1.19-3-.24-4.94l4.9-4.89c2-1,3.85-.89,5,.22l36.92,34.68Z"/><polygon class="cls-3" points="209.71 129.37 214.29 133.96 209.39 138.85 204.82 134.27 207.08 132.01 207.47 131.6 209.71 129.37"/><path class="cls-5" d="M207.26,69.71a43.91,43.91,0,0,1,.21,61.89l-.39.41a43.92,43.92,0,1,1,.18-62.3Zm-7.13,55a33.83,33.83,0,1,0-47.85,0A33.83,33.83,0,0,0,200.13,124.69Z"/><path class="cls-2" d="M200.12,76.85a33.82,33.82,0,1,1-47.84,0A33.83,33.83,0,0,1,200.12,76.85Z"/><path class="cls-4" d="M200.13,124.69a33.83,33.83,0,1,1,0-47.84A33.84,33.84,0,0,1,200.13,124.69Z"/><path class="cls-6" d="M207.47,131.6a42.87,42.87,0,1,0-.39.41"/><path class="cls-4" d="M254.06,178.63c-3.48,3.48-7.55,4.32-9.57,2.3l-.18-.19L209.64,143.8c-1.11-1.11-1.19-3-.24-4.94l4.9-4.89c2-1,3.85-.89,5,.22l36.92,34.68.2.18C258.38,171.06,257.55,175.15,254.06,178.63Z"/><polyline class="cls-4" points="209.4 138.86 209.39 138.85 204.82 134.27 207.08 132.01 207.47 131.6 209.71 129.37 214.29 133.96 209.39 138.85"/></svg>