<svg id="Camada_1" data-name="Camada 1" xmlns="http://www.w3.org/2000/svg" viewBox="0 0 293.26 293.18"><defs><style>.cls-1,.cls-5{fill:none;}.cls-1{stroke:#d6d7d7;stroke-miterlimit:10;stroke-width:8px;}.cls-2{fill:#d8d5d5;}.cls-3{fill:#aab5c7;}.cls-4{fill:#f6a115;}.cls-5{stroke:#21344a;stroke-linecap:round;stroke-linejoin:round;stroke-width:4px;}</style></defs><title>Prancheta 2 cópia</title><circle class="cls-1" cx="146.63" cy="146.56" r="139.01"/><path class="cls-2" d="M193.84,176c6-4.5,9.52-9.92,9.52-15.74v31.46c0,15.67-25.39,28.37-56.73,28.37S89.9,207.42,89.9,191.75V160.29c0,5.82,3.5,11.24,9.52,15.74,10.17,7.61,27.52,12.62,47.21,12.62S183.67,183.64,193.84,176Zm-9.32,22.05a4.38,4.38,0,0,0-.28-1.54,4.33,4.33,0,0,0-8.38,1.54,4.17,4.17,0,0,0,.11,1,4.33,4.33,0,0,0,8.55-1Z"/><path class="cls-2" d="M203.36,128.82v31.47c0,5.82-3.5,11.24-9.52,15.74-10.17,7.61-27.51,12.62-47.21,12.62s-37-5-47.21-12.62c-6-4.5-9.52-9.92-9.52-15.74V128.82c0,5.82,3.51,11.24,9.53,15.74,10.17,7.61,27.52,12.62,47.2,12.62s37-5,47.2-12.62C199.85,140.06,203.36,134.64,203.36,128.82Zm-18.84,38a4.33,4.33,0,0,0-8.66,0,4.17,4.17,0,0,0,.11,1,4.33,4.33,0,0,0,8.55-1Z"/><path class="cls-2" d="M203.36,97.36v31.46c0,5.82-3.51,11.24-9.53,15.74-10.17,7.61-27.51,12.62-47.2,12.62s-37-5-47.2-12.62c-6-4.5-9.53-9.92-9.53-15.74V97.36c0,5.82,3.5,11.23,9.52,15.73,10.17,7.62,27.52,12.63,47.21,12.63s37-5,47.21-12.63C199.86,108.59,203.36,103.18,203.36,97.36ZM184.52,135.5a4.48,4.48,0,0,0-.28-1.55,4.33,4.33,0,0,0-8.38,1.55,4.28,4.28,0,0,0,.11,1,4.34,4.34,0,0,0,8.55-1Z"/><path class="cls-3" d="M203.36,97.36c0,5.82-3.5,11.23-9.52,15.73-10.17,7.62-27.51,12.63-47.21,12.63s-37-5-47.21-12.63c-6-4.5-9.52-9.91-9.52-15.73C89.9,81.69,115.3,69,146.63,69S203.36,81.69,203.36,97.36Z"/><path class="cls-4" d="M184.24,134a4.48,4.48,0,0,1,.28,1.55,4.32,4.32,0,1,1-.28-1.55Z"/><path class="cls-4" d="M184.24,165.25a4.35,4.35,0,0,1-4.05,5.88A4.35,4.35,0,0,1,176,167.8a4.17,4.17,0,0,1-.11-1,4.33,4.33,0,0,1,8.38-1.54Z"/><path class="cls-2" d="M184.24,196.54a4.34,4.34,0,1,1-8.27,2.55,4.17,4.17,0,0,1-.11-1,4.33,4.33,0,0,1,8.38-1.54Z"/><path class="cls-5" d="M89.9,97.36C89.9,81.69,115.3,69,146.63,69s56.73,12.7,56.73,28.37"/><path class="cls-5" d="M89.9,128.82V97.36c0,5.82,3.5,11.23,9.52,15.73,10.17,7.62,27.52,12.63,47.21,12.63s37-5,47.21-12.63c6-4.5,9.52-9.91,9.52-15.73v31.46"/><path class="cls-5" d="M203.36,160.29v31.46c0,15.67-25.39,28.37-56.73,28.37S89.9,207.42,89.9,191.75V160.29"/><path class="cls-5" d="M203.36,128.82v31.47c0,5.82-3.5,11.24-9.52,15.74-10.17,7.61-27.51,12.62-47.21,12.62s-37-5-47.21-12.62c-6-4.5-9.52-9.92-9.52-15.74V128.82c0,5.82,3.51,11.24,9.53,15.74,10.17,7.61,27.52,12.62,47.2,12.62s37-5,47.2-12.62C199.85,140.06,203.36,134.64,203.36,128.82Z"/><path class="cls-5" d="M184.52,135.5a4.32,4.32,0,1,1-.28-1.55A4.48,4.48,0,0,1,184.52,135.5Z"/><path class="cls-5" d="M184.52,166.79a4.33,4.33,0,0,1-8.55,1,4.17,4.17,0,0,1-.11-1,4.33,4.33,0,1,1,8.66,0Z"/><path class="cls-5" d="M184.52,198.08a4.33,4.33,0,0,1-8.55,1,4.17,4.17,0,0,1-.11-1,4.33,4.33,0,0,1,8.38-1.54A4.38,4.38,0,0,1,184.52,198.08Z"/></svg>