<svg id="Camada_1" data-name="Camada 1" xmlns="http://www.w3.org/2000/svg" viewBox="0 0 293.26 293.18"><defs><style>.cls-1,.cls-5{fill:none;}.cls-1{stroke:#d6d7d7;stroke-miterlimit:10;stroke-width:8px;}.cls-2{fill:#687181;}.cls-3{fill:#fff;}.cls-4{fill:#a9b4c6;}.cls-5{stroke:#21344a;stroke-linecap:round;stroke-linejoin:round;stroke-width:4px;}</style></defs><title>Prancheta 2 cópia 3</title><circle class="cls-1" cx="146.63" cy="146.59" r="139.01"/><path class="cls-2" d="M209.85,140.43c.25,2.95-2.39,14.56-14.67,14.56h0a24.69,24.69,0,0,1-5.14-.29,76.57,76.57,0,0,1-24.1-9,166.35,166.35,0,0,0,11.56-20.9l-.06,0c2.39-3.76-1.56-12.28-9-19.35s-16.11-10.6-19.76-8l0,0A203.18,203.18,0,0,0,128.44,110a92.39,92.39,0,0,1-8.65-21.78,18,18,0,0,1-.47-4.58c.1-7.2,3.76-17.93,19.57-17.93,0,0,20.88-1.31,46.7,24.5S209.61,137.49,209.85,140.43Z"/><path class="cls-3" d="M195.17,155h0c-.86.19-21.35,4.88-37.85,10.14a118.74,118.74,0,0,0-15.33,5.8c-1.77.88-3.53,1.86-5.27,2.91-12.51,7.59-23.62,18.84-23.62,18.84s-8.16,9.18-22.4-5.05c-13.05-13.06-10.84-21.76-10.38-23.12a1,1,0,0,1,.18-.32C81.86,162.43,96.17,144,102.93,132c6.88-12.19,15.64-46.22,16.18-48.33h.21a18,18,0,0,0,.47,4.58A92.39,92.39,0,0,0,128.44,110c7.9,14.17,16.76,20.59,16.76,20.59a111.79,111.79,0,0,0,20.73,15.07h0a76.57,76.57,0,0,0,24.1,9A24.69,24.69,0,0,0,195.17,155Z"/><path class="cls-3" d="M195.15,155l-37.83,10.21,0-.07C173.8,159.88,194.29,155.19,195.15,155Z"/><path class="cls-3" d="M142,170.94a118.74,118.74,0,0,1,15.33-5.8l0,.07a1.15,1.15,0,0,0-.26,2.11l23.6,13.28a6.54,6.54,0,0,1,3.28,6.8c-.44,2.58-1.86,5.93-5.56,9.63-8.26,8.26-14,10.51-17.43,9.72-5.66-1.31-7.67-13.26-10.35-17.47a55.78,55.78,0,0,0-13.76-15.2l-.14-.23C138.44,172.8,140.2,171.82,142,170.94Z"/><path class="cls-4" d="M128.44,110a203.18,203.18,0,0,1,20.21-12.69l0,0a3,3,0,0,0-.54.46c-3.25,3.41.72,12.46,8.54,19.91s17.06,11,20.31,7.56a4,4,0,0,0,.44-.56l.06,0a166.35,166.35,0,0,1-11.56,20.9h0A111.79,111.79,0,0,1,145.2,130.6S136.34,124.18,128.44,110Z"/><path class="cls-4" d="M177,125.29c-3.25,3.41-12.48-.11-20.31-7.56s-11.79-16.5-8.54-19.91a3,3,0,0,1,.54-.46c3.65-2.58,12.34,1,19.76,8s11.38,15.59,9,19.35A4,4,0,0,1,177,125.29Z"/><path class="cls-5" d="M165.93,145.67A111.79,111.79,0,0,1,145.2,130.6s-8.86-6.42-16.76-20.59a92.39,92.39,0,0,1-8.65-21.78,18,18,0,0,1-.47-4.58"/><path class="cls-5" d="M195.17,155a24.69,24.69,0,0,1-5.14-.29,76.57,76.57,0,0,1-24.1-9"/><path class="cls-5" d="M195.15,155c-.86.19-21.35,4.88-37.85,10.14a118.74,118.74,0,0,0-15.33,5.8c-1.77.88-3.53,1.86-5.27,2.91-12.51,7.59-23.62,18.84-23.62,18.84s-8.16,9.18-22.4-5.05c-13.05-13.06-10.84-21.76-10.38-23.12a1,1,0,0,1,.18-.32C81.86,162.43,96.17,144,102.93,132c6.88-12.19,15.64-46.22,16.18-48.33l0-.11"/><path class="cls-5" d="M119.32,83.65c.1-7.2,3.76-17.93,19.57-17.93,0,0,20.88-1.31,46.7,24.5s24,47.27,24.26,50.21S207.46,155,195.18,155h0"/><path class="cls-5" d="M195.17,155h0"/><path class="cls-5" d="M136.84,174.08a55.78,55.78,0,0,1,13.76,15.2c2.68,4.21,4.69,16.16,10.35,17.47,3.38.79,9.17-1.46,17.43-9.72,3.7-3.7,5.12-7.05,5.56-9.63a6.54,6.54,0,0,0-3.28-6.8l-23.6-13.28a1.15,1.15,0,0,1,.26-2.11L195.15,155"/><path class="cls-5" d="M148.68,97.36a3,3,0,0,0-.54.46c-3.25,3.41.72,12.46,8.54,19.91s17.06,11,20.31,7.56a4,4,0,0,0,.44-.56c2.39-3.76-1.56-12.28-9-19.35S152.33,94.78,148.68,97.36Z"/><path class="cls-5" d="M177.49,124.77a166.35,166.35,0,0,1-11.56,20.9h0"/><path class="cls-5" d="M148.65,97.32A203.18,203.18,0,0,0,128.44,110"/></svg>