<svg id="Camada_1" data-name="Camada 1" xmlns="http://www.w3.org/2000/svg" viewBox="0 0 293.26 293.18"><defs><style>.cls-1,.cls-4{fill:none;}.cls-1{stroke:#d6d7d7;stroke-miterlimit:10;stroke-width:8px;}.cls-2{fill:#d8d5d5;}.cls-3{fill:#2866ae;}.cls-4{stroke:#21344a;stroke-linecap:round;stroke-linejoin:round;stroke-width:4px;}</style></defs><title>Prancheta 2 cópia 2</title><circle class="cls-1" cx="146.63" cy="146.56" r="139.01"/><path class="cls-2" d="M215.23,201.71c2.28,2.28,1.34,6.89-2.6,10.84s-8.57,4.88-10.84,2.61l-.21-.22-39.24-41.8c-1.26-1.26-1.35-3.36-.27-5.6l5.55-5.54c2.23-1.09,4.34-1,5.6.26L215,201.51Z"/><polygon class="cls-2" points="167.62 162 162.07 167.54 156.88 162.35 159.54 159.69 159.77 159.46 162.42 156.8 167.62 161.99 167.62 162"/><path class="cls-3" d="M159.65,89.29a49.7,49.7,0,0,1,.12,70.17l-.23.23a49.7,49.7,0,1,1,.11-70.4Zm-13.33,57a30.84,30.84,0,1,0-43.61,0A30.84,30.84,0,0,0,146.32,146.24Z"/><path class="cls-3" d="M131.06,117.87a9.27,9.27,0,1,1-13.1,0A9.27,9.27,0,0,1,131.06,117.87Z"/><path class="cls-4" d="M131.06,117.87a9.27,9.27,0,1,1-13.1,0A9.27,9.27,0,0,1,131.06,117.87Z"/><path class="cls-4" d="M159.77,159.46a49.7,49.7,0,1,0-.23.23"/><path class="cls-4" d="M146.32,146.24a30.84,30.84,0,1,1,0-43.61A30.83,30.83,0,0,1,146.32,146.24Z"/><path class="cls-4" d="M167.62,162c2.23-1.09,4.34-1,5.6.26L215,201.51l.22.2c2.28,2.28,1.34,6.89-2.6,10.84s-8.57,4.88-10.84,2.61l-.21-.22-39.24-41.8c-1.26-1.26-1.35-3.36-.27-5.6Z"/><polyline class="cls-4" points="162.07 167.54 162.07 167.54 156.88 162.35 159.54 159.69 159.77 159.46 162.42 156.8 167.62 161.99 167.62 162 162.07 167.54"/></svg>