<svg xmlns="http://www.w3.org/2000/svg" xmlns:xlink="http://www.w3.org/1999/xlink" viewBox="0 0 220 220"><defs><style>.cls-1,.cls-3,.cls-4{fill:none;}.cls-2{clip-path:url(#clip-path);}.cls-3,.cls-4{stroke:#fff;stroke-width:2.75px;}.cls-3{stroke-miterlimit:10;}.cls-4{stroke-linecap:round;stroke-linejoin:round;}</style><clipPath id="clip-path"><rect class="cls-1" x="40.36" y="42.83" width="134.34" height="134.34"/></clipPath></defs><title>Prancheta 114 copy 7 cópia 20</title><g id="Camada_1" data-name="Camada 1"><g class="cls-2"><circle class="cls-3" cx="107.53" cy="110" r="65.9"/><path class="cls-3" d="M97.28,133.84a26.77,26.77,0,1,1,20.4,0,26.06,26.06,0,0,1-5.82,1.65v-.08L114.41,123a1.43,1.43,0,0,0-.26-1.22,1.41,1.41,0,0,0-1.13-.55H102a1.43,1.43,0,0,0-1.37,1.77l2.56,12.42,0,.11A26.79,26.79,0,0,1,97.28,133.84Z"/><path class="cls-3" d="M117.52,135v8.25a10.2,10.2,0,0,1-3.9,8,9.64,9.64,0,0,1-6.14,1.72,9.63,9.63,0,0,1-6.13-1.72,10.2,10.2,0,0,1-3.9-8V135a10.22,10.22,0,0,0,3.9,8,9.62,9.62,0,0,0,6.13,1.71,9.64,9.64,0,0,0,6.14-1.71A10.22,10.22,0,0,0,117.52,135Z"/><path class="cls-3" d="M117.52,134.54v.75a9.58,9.58,0,0,1-3.9,7.61,10,10,0,0,1-6.14,1.64,10,10,0,0,1-6.13-1.64,9.58,9.58,0,0,1-3.9-7.61v-.78a26.19,26.19,0,0,0,5.82,1.59,27.81,27.81,0,0,0,4.21.32,27.38,27.38,0,0,0,10-1.9Z"/><path class="cls-3" d="M114,122.17a1.41,1.41,0,0,1,.25,1.19l-2.49,12.11v.07a26.12,26.12,0,0,1-8.4,0l0-.11-2.49-12.09a1.38,1.38,0,0,1,1.34-1.72h10.67A1.4,1.4,0,0,1,114,122.17Z"/><path class="cls-4" d="M103.08,136.13l-2.63-12.76a1.4,1.4,0,0,1,.26-1.25,1.45,1.45,0,0,1,1.15-.57H113.2a1.46,1.46,0,0,1,1.42,1.82L112,136.15m-15-1.62a27.59,27.59,0,1,1,21,0,27.72,27.72,0,0,1-14.94,1.7A27.31,27.31,0,0,1,97,134.53Zm0,.84a10.48,10.48,0,0,0,4.09,8.24,10.17,10.17,0,0,0,6.43,1.77,10.18,10.18,0,0,0,6.44-1.77,10.48,10.48,0,0,0,4.09-8.24m0-.82v9.33a10.48,10.48,0,0,1-4.09,8.24,10.25,10.25,0,0,1-6.44,1.77,10.24,10.24,0,0,1-6.43-1.77A10.48,10.48,0,0,1,97,143.88v-9.37M78.54,89.8l-6.1-3.51m64.08,3.51,6.11-3.51M124.27,77.6l3.52-6.08m-20.26,1.62v-7M90.79,77.6l-3.52-6.08"/></g></g></svg>