<svg id="Camada_1" data-name="Camada 1" xmlns="http://www.w3.org/2000/svg" viewBox="0 0 293.26 293.18"><defs><style>.cls-1,.cls-2,.cls-6{fill:none;}.cls-1{stroke:#d6d7d7;stroke-width:8px;}.cls-1,.cls-2,.cls-3{stroke-miterlimit:10;}.cls-2,.cls-3{stroke:#20354c;}.cls-2,.cls-3,.cls-6{stroke-linecap:round;stroke-width:4px;}.cls-3{fill:#2866ae;}.cls-4{fill:#f6a115;}.cls-5{fill:#fdb93f;}.cls-6{stroke:#21344a;stroke-linejoin:round;}</style></defs><title>Prancheta 2 cópia 4</title><circle class="cls-1" cx="146.63" cy="145.18" r="139.01"/><path class="cls-2" d="M96.39,175.81s23.24-11.62,35.09-9.84c9.52,1.44,10.39,8.27,19.16,10.95s24.37.45,24.37,6.71c0,9.38-17.95,10.05-38.17,4.69"/><path class="cls-2" d="M172.93,188.28s26.93-22,34.79-17.07c5.08,3.18,5.34,10.86-18.35,24.71S161,218,142.87,209.1s-16.73-14.58-24.35-11.17c-2.37,1-8.72,5.58-8.72,5.58"/><path class="cls-2" d="M194.9,171.13s-1.65-4.75-7.75-4.75c-7,0-24.29,12.25-24.29,12.25"/><path class="cls-2" d="M180.22,166.89s-1.66-4.74-7.75-4.74c-7,0-24.29,12.24-24.29,12.24"/><rect class="cls-3" x="84.77" y="160.35" width="23.24" height="56.31" rx="8.5"/><polygon class="cls-4" points="176.43 97.67 176.43 130.93 147.63 147.56 147.63 114.3 176.43 97.67"/><polygon class="cls-5" points="176.43 97.67 147.63 114.3 118.83 97.67 147.63 81.04 176.43 97.67"/><polygon class="cls-4" points="147.63 114.3 147.63 147.56 118.83 130.93 118.83 97.67 147.63 114.3"/><polygon class="cls-6" points="176.43 97.67 147.63 81.04 118.83 97.67 118.83 130.93 147.63 147.56 176.43 130.93 176.43 97.67"/><polyline class="cls-6" points="118.83 97.67 147.63 114.3 176.43 97.67"/><line class="cls-6" x1="147.63" y1="114.3" x2="147.63" y2="147.56"/><line class="cls-6" x1="132.02" y1="76.47" x2="128.73" y2="70.77"/><line class="cls-6" x1="147.63" y1="72.29" x2="147.63" y2="65.71"/><line class="cls-6" x1="163.24" y1="76.47" x2="166.53" y2="70.77"/><line class="cls-6" x1="174.67" y1="87.9" x2="180.37" y2="84.61"/><line class="cls-6" x1="120.59" y1="87.9" x2="114.89" y2="84.61"/></svg>