<svg id="Camada_1" data-name="Camada 1" xmlns="http://www.w3.org/2000/svg" viewBox="0 0 293.26 293.18"><defs><style>.cls-1{fill:none;stroke:#d6d7d7;stroke-width:8px;}.cls-1,.cls-2,.cls-3{stroke-miterlimit:10;}.cls-2{fill:#f6a115;}.cls-2,.cls-3{stroke:#22354c;stroke-width:4px;}.cls-3{fill:#6dcdd9;}</style></defs><circle class="cls-1" cx="146.63" cy="145.18" r="139.01"/><path class="cls-2" d="M59.36,131.58s23.33-.16,47.39-.16,25.63,14.09,38.12,40.87,33.47,25,33.47,25h29.9v13.21l25.67-23.25-26.85-23.41.28,13.13H183.41s-11-.87-16.94-10.44-12.7-56.14-47.31-56.14H59.37Z"/><path class="cls-3" d="M85.87,180h33.29c34.61,0,41.42-46.57,47.31-56.14s16.94-10.45,16.94-10.45h23.93l-.28,13.14,26.85-23.41L208.24,79.87V93.09h-29.9s-21-1.78-33.47,25S130.81,159.15,106.75,159l-12.29-.1-8.6,0Z"/></svg>