<svg id="Camada_1" data-name="Camada 1" xmlns="http://www.w3.org/2000/svg" viewBox="0 0 293.26 293.18"><defs><style>.cls-1,.cls-4{fill:none;}.cls-1{stroke:#d6d7d7;stroke-miterlimit:10;stroke-width:8px;}.cls-2{fill:#fff;}.cls-3{fill:#d8d5d5;}.cls-4,.cls-5,.cls-6,.cls-7{stroke:#21344a;stroke-linecap:round;stroke-linejoin:round;stroke-width:4px;}.cls-5{fill:#f95000;}.cls-6{fill:#6dcdd9;}.cls-7{fill:#f6a115;}</style></defs><title>relatorio</title><circle class="cls-1" cx="146.63" cy="145.18" r="139.01"/><polygon class="cls-2" points="206.76 105.36 206.76 226.92 90 226.92 90 63.44 164.84 63.44 164.84 105.36 206.75 105.36 206.76 105.36"/><polygon class="cls-3" points="206.75 105.36 164.84 105.36 164.84 63.44 206.75 105.36"/><polygon class="cls-4" points="206.75 105.36 206.76 105.36 206.76 226.92 90 226.92 90 63.44 164.84 63.44 206.75 105.36"/><polyline class="cls-4" points="164.84 63.44 164.84 105.36 206.75 105.36 206.76 105.36"/><rect class="cls-5" x="105.23" y="125.38" width="21.96" height="83.48"/><rect class="cls-6" x="138.22" y="148.3" width="21.96" height="60.57"/><rect class="cls-7" x="171.21" y="167.12" width="21.96" height="41.74"/></svg>