<svg id="Camada_1" data-name="Camada 1" xmlns="http://www.w3.org/2000/svg" xmlns:xlink="http://www.w3.org/1999/xlink" viewBox="0 0 254.73 265.87"><defs><style>.cls-1,.cls-7,.cls-8{fill:none;}.cls-2{clip-path:url(#clip-path);}.cls-3{fill:#f6a217;}.cls-4{fill:#fff;}.cls-5{fill:#f3f0f0;}.cls-6{fill:#e9521b;}.cls-7,.cls-8{stroke:#21344a;stroke-width:4px;}.cls-7{stroke-miterlimit:10;}.cls-8{stroke-linecap:round;stroke-linejoin:round;}</style><clipPath id="clip-path"><rect class="cls-1" x="6.89" y="3.83" width="247.84" height="262.51"/></clipPath></defs><title>sem circulo menos cortada</title><g class="cls-2"><path class="cls-3" d="M210.56,56.7A122.42,122.42,0,1,1,96.33,44.39,121.84,121.84,0,0,1,210.56,56.7Zm17.21,66.92A92.65,92.65,0,0,0,107.62,72.11l-.15.06A92.51,92.51,0,0,0,176.3,243.92l.16-.06a92.62,92.62,0,0,0,51.31-120.24Z"/><path class="cls-4" d="M227.77,123.62l-1.86.74a2.43,2.43,0,0,0-3.16-1.34L154,150.58c.21-9.35,2.39-20.17,8.54-32.51.24-.49.09-.79-.38-.92l16.71-39.06a2.43,2.43,0,0,0-1.27-3.19l.8-1.82A92.19,92.19,0,0,1,227.77,123.62Z"/><path class="cls-4" d="M225.91,124.36l1.86-.74a92.29,92.29,0,0,1-.81,70.69l-1.84-.77a2.44,2.44,0,0,0-1.28-3.19l-69.4-29.67c-.19-1.58-.33-3.21-.41-4.89l70.52-28.26A2.44,2.44,0,0,0,225.91,124.36Z"/><path class="cls-5" d="M222.75,123a2.43,2.43,0,1,1,1.8,4.51L154,155.79c-.08-1.68-.11-3.41-.06-5.21Z"/><path class="cls-4" d="M178.37,73.08l-.8,1.82a2.42,2.42,0,0,0-3.2,1.28l-18,42.1a91,91,0,0,0-22.63,12.52L111.55,75.45a2.43,2.43,0,0,0-3.16-1.35l-.77-2A92.2,92.2,0,0,1,178.37,73.08Z"/><path class="cls-4" d="M227,194.31a92.24,92.24,0,0,1-50.5,49.55l-.82-2a2.43,2.43,0,0,0,1.34-3.17l-16.06-40.08a24.09,24.09,0,0,0,4.82-.83c7.18-2.27,13.56-14.61,9.41-13.58-1.84.45-10.51-.8-20.72-1.78l-.25-.62c3.33-.06,4.23-1.71,3-6.81-.65-2.67-1.33-5.56-1.9-8.7l66.64,28.5a2.36,2.36,0,0,0,1.86,0,2.44,2.44,0,0,0,1.34-1.3Z"/><path class="cls-5" d="M177.57,74.9a2.43,2.43,0,0,1,1.27,3.19l-16.71,39.06c-.89-.24-2.93.14-5.77,1.13l18-42.1A2.42,2.42,0,0,1,177.57,74.9Z"/><path class="cls-5" d="M223.84,190.35a2.43,2.43,0,0,1-.06,4.49,2.36,2.36,0,0,1-1.86,0l-66.64-28.5c-.33-1.81-.62-3.69-.84-5.64Z"/><path class="cls-4" d="M162.13,117.15c.47.13.62.43.38.92-6.15,12.34-8.33,23.16-8.54,32.51l-7.41,3Z"/><path class="cls-4" d="M162.13,117.15l-15.57,36.4-1.36,3.18,3.15,1.33,6.09,2.62c.22,1.95.51,3.83.84,5.64l-8.83-3.78,7.73,19.29a31.76,31.76,0,0,1-5.46-.59L142,164.34l-6.3,14.73c-1.58-.22-3.27-.42-5-.58l6.86-16.07L101.06,177c.19-1.09,1.06-3,2.18-6.1l32.42-13L114.87,149c1-1.35,2.13-2.65,3.23-3.91l19.48,8.33-7.83-19.55c1.33-1.09,2.66-2.13,4-3.1l8.36,20.85,14.27-33.37C159.2,117.29,161.24,116.91,162.13,117.15Z"/><path class="cls-4" d="M156.36,118.28l-14.27,33.37-8.36-20.85A91,91,0,0,1,156.36,118.28Z"/><path class="cls-6" d="M175.15,184.23c4.15-1-2.23,11.31-9.41,13.58a24.09,24.09,0,0,1-4.82.83l-6.49-16.19C164.64,183.43,173.31,184.68,175.15,184.23Z"/><path class="cls-4" d="M154,150.58c-.05,1.8,0,3.53.06,5.21l-5.68,2.27-3.15-1.33,1.36-3.18Z"/><path class="cls-4" d="M148.35,158.06l5.68-2.27c.08,1.68.22,3.31.41,4.89Z"/><circle class="cls-3" cx="87.29" cy="28.58" r="17.17"/><path class="cls-4" d="M146.45,162.54l8.83,3.78c.57,3.14,1.25,6,1.9,8.7,1.23,5.1.33,6.75-3,6.81Z"/><path class="cls-5" d="M160.92,198.64,177,238.72a2.43,2.43,0,1,1-4.5,1.81l-16.69-41.64C157.65,198.85,159.38,198.77,160.92,198.64Z"/><path class="cls-6" d="M154.43,182.45l6.49,16.19c-1.54.13-3.27.21-5.13.25L149,182C150.85,182.13,152.67,182.29,154.43,182.45Z"/><path class="cls-5" d="M154.18,181.83l.25.62c-1.76-.16-3.58-.32-5.41-.46l-.3-.75A31.76,31.76,0,0,0,154.18,181.83Z"/><path class="cls-5" d="M111.55,75.45l22.18,55.35c-1.32,1-2.65,2-4,3.1L107,77.26a2.43,2.43,0,1,1,4.51-1.81Z"/><path class="cls-4" d="M175.64,241.89l.82,2-.16.06a92.2,92.2,0,0,1-70.78-.86l.94-2a2.45,2.45,0,0,0,3.2-1.28l17.92-41.89c7.36.35,19.26,1.16,28.21,1l16.69,41.64A2.43,2.43,0,0,0,175.64,241.89Z"/><path class="cls-4" d="M107.62,72.11l.77,2A2.43,2.43,0,0,0,107,77.26l22.71,56.64a94.24,94.24,0,0,0-11.65,11.22l-56-24a2.41,2.41,0,0,0-3.19,1.28l-2-.77a92.22,92.22,0,0,1,50.59-49.51Z"/><path class="cls-6" d="M149,182l6.77,16.9c-8.95.19-20.85-.62-28.21-1l7-16.44C139.2,181.39,144.18,181.62,149,182Z"/><path class="cls-4" d="M148.72,181.24l.3.75c-4.84-.37-9.82-.6-14.41-.51l1-2.41C141,179.78,145.36,180.66,148.72,181.24Z"/><path class="cls-4" d="M142,164.34l6.77,16.9c-3.36-.58-7.69-1.46-13.07-2.17Z"/><path class="cls-4" d="M129.75,133.9l7.83,19.55-19.48-8.33A94.24,94.24,0,0,1,129.75,133.9Z"/><path class="cls-4" d="M137.48,162.42l-6.86,16.07h0c-.93-.11-1.89-.19-2.87-.26-22-1.69-27.27,2.05-26.67-1.21Z"/><path class="cls-4" d="M135.66,157.92l-32.42,13c.17-.45.34-.92.5-1.42A71.23,71.23,0,0,1,114.87,149Z"/><path class="cls-5" d="M135.65,179.07l-1,2.41c-1.89,0-3.7.14-5.42.31l1.41-3.3h0C132.38,178.65,134.07,178.85,135.65,179.07Z"/><path class="cls-6" d="M134.61,181.48l-7,16.44c-.84,0-1.62-.08-2.34-.1a4.13,4.13,0,0,1-2.32-1.35l6.27-14.68C130.91,181.62,132.72,181.52,134.61,181.48Z"/><path class="cls-5" d="M62.11,121.17l56,24c-1.1,1.26-2.19,2.56-3.23,3.91L60.19,125.64a2.43,2.43,0,0,1,1.92-4.47Z"/><path class="cls-4" d="M130.6,178.49l-1.41,3.3a27.42,27.42,0,0,0-10,2.45c-3.16,1.64.48,9.14,3.73,12.23l-17.73,41.44a2.42,2.42,0,0,0,1.27,3.18l-.94,2A92.3,92.3,0,0,1,56,192.46l2.1-.84A2.44,2.44,0,0,0,61.28,193L101.06,177c-.6,3.26,4.69-.48,26.67,1.21C128.71,178.3,129.67,178.38,130.6,178.49Z"/><path class="cls-6" d="M129.19,181.79l-6.27,14.68c-3.25-3.09-6.89-10.59-3.73-12.23A27.42,27.42,0,0,1,129.19,181.79Z"/><path class="cls-4" d="M60.19,125.64,114.87,149a71.23,71.23,0,0,0-11.13,20.47c-.16.5-.33,1-.5,1.42L59.48,188.45a2.44,2.44,0,0,0-1.37,3.17l-2.1.84a92.24,92.24,0,0,1,.87-70.78l2,.77A2.43,2.43,0,0,0,60.19,125.64Z"/><path class="cls-5" d="M127.58,197.92l-17.92,41.89a2.43,2.43,0,1,1-4.47-1.9l17.73-41.44a4.13,4.13,0,0,0,2.32,1.35C126,197.84,126.74,197.88,127.58,197.92Z"/><path class="cls-5" d="M59.48,188.45l43.76-17.53c-1.12,3.13-2,5-2.18,6.1L61.28,193a2.43,2.43,0,1,1-1.8-4.51Z"/><path class="cls-7" d="M96.33,44.39a122.54,122.54,0,1,1-68.1,159.2A122.47,122.47,0,0,1,96.33,44.39Z"/><path class="cls-7" d="M56.88,121.68a92.22,92.22,0,0,1,50.59-49.51l.15-.06a92.52,92.52,0,0,1,68.84,171.75l-.16.06A92.46,92.46,0,0,1,56.88,121.68Z"/><circle class="cls-8" cx="87.29" cy="28.58" r="17.17"/><path class="cls-7" d="M130.62,178.49c1.76.16,3.45.36,5,.58,5.38.71,9.71,1.59,13.07,2.17a31.76,31.76,0,0,0,5.46.59c3.33-.06,4.23-1.71,3-6.81-.65-2.67-1.33-5.56-1.9-8.7-.33-1.81-.62-3.69-.84-5.64-.19-1.58-.33-3.21-.41-4.89s-.11-3.41-.06-5.21c.21-9.35,2.39-20.17,8.54-32.51.24-.49.09-.79-.38-.92-.89-.24-2.93.14-5.77,1.13a91,91,0,0,0-22.63,12.52c-1.32,1-2.65,2-4,3.1a94.24,94.24,0,0,0-11.65,11.22c-1.1,1.26-2.19,2.56-3.23,3.91a71.23,71.23,0,0,0-11.13,20.47c-.16.5-.33,1-.5,1.42-1.12,3.13-2,5-2.18,6.1-.6,3.26,4.69-.48,26.67,1.21,1,.07,1.94.15,2.87.26"/><path class="cls-7" d="M122.92,196.47c-3.25-3.09-6.89-10.59-3.73-12.23a27.42,27.42,0,0,1,10-2.45c1.72-.17,3.53-.27,5.42-.31,4.59-.09,9.57.14,14.41.51,1.83.14,3.65.3,5.41.46,10.21,1,18.88,2.23,20.72,1.78,4.15-1-2.23,11.31-9.41,13.58a24.09,24.09,0,0,1-4.82.83c-1.54.13-3.27.21-5.13.25-8.95.19-20.85-.62-28.21-1-.84,0-1.62-.08-2.34-.1A4.13,4.13,0,0,1,122.92,196.47Z"/></g></svg>