<svg id="Camada_1" data-name="Camada 1" xmlns="http://www.w3.org/2000/svg" xmlns:xlink="http://www.w3.org/1999/xlink" viewBox="0 0 197.8 210.18"><defs><style>.cls-1,.cls-4,.cls-5{fill:none;}.cls-2{clip-path:url(#clip-path);}.cls-3{fill:#f6a217;}.cls-4{stroke:#21344a;stroke-miterlimit:10;stroke-width:4px;}.cls-5{stroke:#11293b;stroke-linecap:round;stroke-linejoin:round;stroke-width:16px;}</style><clipPath id="clip-path"><rect class="cls-1" x="-277.22" y="-43.32" width="242.17" height="253.98"/></clipPath></defs><title>seta1_1</title><g class="cls-2"><path class="cls-3" d="M-32.87,51.89a121.82,121.82,0,0,1,45,55.79A122.59,122.59,0,0,1-56,266.9a122.63,122.63,0,0,1-152.8-54.56,124,124,0,0,1-6.41-13.56A122.58,122.58,0,0,1-147.1,39.58,122.47,122.47,0,0,1-32.87,51.89Zm17.2,66.92a92.19,92.19,0,0,0-49.4-50.54,92.18,92.18,0,0,0-70.74-1l-.16.06a92.21,92.21,0,0,0-50.59,49.51,92.2,92.2,0,0,0-.86,70.78,92.23,92.23,0,0,0,49.51,50.6,92.2,92.2,0,0,0,70.78.86l.15-.06a92.23,92.23,0,0,0,50.5-49.56A92.27,92.27,0,0,0-15.67,118.81Z"/><path class="cls-4" d="M-147.1,39.58A122.47,122.47,0,0,1-32.87,51.89a121.82,121.82,0,0,1,45,55.79A122.59,122.59,0,0,1-56,266.9a122.63,122.63,0,0,1-152.8-54.56,124,124,0,0,1-6.41-13.56A122.58,122.58,0,0,1-147.1,39.58Z"/></g><polyline class="cls-5" points="53.18 105.5 129.01 181.33 53.18 105.5 129.01 28.85"/></svg>