<svg id="Camada_1" data-name="Camada 1" xmlns="http://www.w3.org/2000/svg" viewBox="0 0 1569.26 1410.76"><defs><style>.cls-1,.cls-14,.cls-15,.cls-16,.cls-17{fill:none;}.cls-1,.cls-14,.cls-15,.cls-16,.cls-17,.cls-2{stroke:#21344a;}.cls-1,.cls-2{stroke-linecap:round;stroke-linejoin:round;stroke-width:6px;}.cls-2,.cls-3,.cls-9{fill:#21344a;}.cls-3{font-size:27px;font-family:Roboto-Medium, Roboto;font-weight:500;}.cls-4{letter-spacing:-0.01em;}.cls-5{letter-spacing:-0.01em;}.cls-6{letter-spacing:0em;}.cls-7{letter-spacing:-0.1em;}.cls-8{letter-spacing:0em;}.cls-9{font-size:39px;font-family:Roboto-Bold, Roboto;font-weight:700;}.cls-10{letter-spacing:-0.09em;}.cls-11{letter-spacing:-0.01em;}.cls-12{letter-spacing:-0.01em;}.cls-13{letter-spacing:0em;}.cls-14,.cls-15,.cls-16,.cls-17{stroke-miterlimit:10;}.cls-15{stroke-dasharray:15.02 15.02;}.cls-16{stroke-dasharray:15.05 15.05;}.cls-17{stroke-dasharray:15;}.cls-18{fill:#71c7d5;}.cls-19{fill:#fdd07f;}.cls-20{fill:#f18959;}</style></defs><polyline class="cls-1" points="123.66 120.1 123.66 1309.09 1314.34 1309.09"/><polygon class="cls-2" points="1314.34 1328.49 1339.49 1308.95 1314.34 1290.71 1314.34 1328.49"/><text class="cls-3" transform="translate(196.19 1360.79)">MUI<tspan class="cls-4" x="48.86" y="0">T</tspan><tspan x="64.88" y="0">O </tspan><tspan x="0" y="32.4">BAI</tspan><tspan class="cls-5" x="42.62" y="32.4">X</tspan><tspan class="cls-6" x="59.38" y="32.4">O</tspan></text><text class="cls-3" transform="translate(18.55 1184.43)">MUI<tspan class="cls-4" x="48.86" y="0">T</tspan><tspan x="64.88" y="0">O </tspan><tspan x="5.5" y="32.4">BAI</tspan><tspan class="cls-5" x="48.12" y="32.4">X</tspan><tspan class="cls-6" x="64.88" y="32.4">O</tspan></text><text class="cls-3" transform="translate(24.04 967.51)">BAI<tspan class="cls-5" x="42.62" y="0">X</tspan><tspan class="cls-6" x="59.38" y="0">O</tspan></text><text class="cls-3" transform="translate(19.26 732.9)">MÉDIO</text><text class="cls-3" transform="translate(37.53 497.1)">A<tspan class="cls-7" x="17.97" y="0">L</tspan><tspan class="cls-4" x="29.87" y="0">T</tspan><tspan class="cls-8" x="45.89" y="0">O</tspan></text><text class="cls-3" transform="translate(18.55 248.2)">MUI<tspan class="cls-4" x="48.86" y="0">T</tspan><tspan x="64.88" y="0">O </tspan><tspan x="18.98" y="32.4">A</tspan><tspan class="cls-7" x="36.95" y="32.4">L</tspan><tspan class="cls-4" x="48.86" y="32.4">T</tspan><tspan class="cls-8" x="64.88" y="32.4">O</tspan></text><text class="cls-9" transform="translate(61.82 65.83)">CUS<tspan class="cls-4" x="75.16" y="0">T</tspan><tspan x="98.76" y="0">O</tspan></text><text class="cls-9" transform="translate(1372.64 1322.91)">IM<tspan class="cls-10" x="45.53" y="0">P</tspan><tspan x="67.3" y="0">A</tspan><tspan class="cls-11" x="93.54" y="0">C</tspan><tspan class="cls-12" x="118.5" y="0">T</tspan><tspan class="cls-13" x="142.1" y="0">O</tspan></text><text class="cls-3" transform="translate(440.39 1360.79)">BAI<tspan class="cls-5" x="42.62" y="0">X</tspan><tspan class="cls-6" x="59.38" y="0">O</tspan></text><text class="cls-3" transform="translate(667.35 1360.79)">MÉDIO</text><text class="cls-3" transform="translate(920.24 1360.79)">A<tspan class="cls-7" x="17.97" y="0">L</tspan><tspan class="cls-4" x="29.87" y="0">T</tspan><tspan class="cls-8" x="45.89" y="0">O</tspan></text><text class="cls-3" transform="translate(1132.58 1360.79)">MUI<tspan class="cls-4" x="48.86" y="0">T</tspan><tspan x="64.88" y="0">O </tspan><tspan x="0" y="32.4">A</tspan><tspan class="cls-7" x="17.97" y="32.4">L</tspan><tspan class="cls-4" x="29.87" y="32.4">T</tspan><tspan class="cls-8" x="45.89" y="32.4">O</tspan></text><line class="cls-14" x1="358.66" y1="1309.09" x2="358.66" y2="1301.59"/><line class="cls-15" x1="358.66" y1="1286.57" x2="358.66" y2="152.39"/><line class="cls-14" x1="358.66" y1="144.88" x2="358.66" y2="137.38"/><line class="cls-14" x1="593.66" y1="1309.09" x2="593.66" y2="1301.59"/><line class="cls-15" x1="593.66" y1="1286.57" x2="593.66" y2="152.39"/><line class="cls-14" x1="593.66" y1="144.88" x2="593.66" y2="137.38"/><line class="cls-14" x1="828.66" y1="1309.09" x2="828.66" y2="1301.59"/><line class="cls-15" x1="828.66" y1="1286.57" x2="828.66" y2="152.39"/><line class="cls-14" x1="828.66" y1="144.88" x2="828.66" y2="137.38"/><line class="cls-14" x1="1063.66" y1="1309.09" x2="1063.66" y2="1301.59"/><line class="cls-15" x1="1063.66" y1="1286.57" x2="1063.66" y2="152.39"/><line class="cls-14" x1="1063.66" y1="144.88" x2="1063.66" y2="137.38"/><line class="cls-14" x1="1298.66" y1="1309.09" x2="1298.66" y2="1301.59"/><line class="cls-15" x1="1298.66" y1="1286.57" x2="1298.66" y2="152.39"/><line class="cls-14" x1="1298.66" y1="144.88" x2="1298.66" y2="137.38"/><line class="cls-14" x1="1298.66" y1="1077.38" x2="1291.16" y2="1077.38"/><line class="cls-16" x1="1276.11" y1="1077.38" x2="139.69" y2="1077.38"/><line class="cls-14" x1="132.16" y1="1077.38" x2="124.66" y2="1077.38"/><line class="cls-14" x1="1298.66" y1="842.38" x2="1291.16" y2="842.38"/><line class="cls-16" x1="1276.11" y1="842.38" x2="139.69" y2="842.38"/><line class="cls-14" x1="132.16" y1="842.38" x2="124.66" y2="842.38"/><line class="cls-14" x1="1298.66" y1="607.38" x2="1291.16" y2="607.38"/><line class="cls-16" x1="1276.11" y1="607.38" x2="139.69" y2="607.38"/><line class="cls-14" x1="132.16" y1="607.38" x2="124.66" y2="607.38"/><line class="cls-14" x1="1298.66" y1="372.38" x2="1291.16" y2="372.38"/><line class="cls-16" x1="1276.11" y1="372.38" x2="139.69" y2="372.38"/><line class="cls-14" x1="132.16" y1="372.38" x2="124.66" y2="372.38"/><line class="cls-17" x1="1298.66" y1="137.38" x2="124.66" y2="137.38"/><rect class="cls-18" x="172.51" y="645.57" width="65.6" height="65.6"/><rect class="cls-19" x="388.26" y="748.62" width="65.6" height="65.6"/><rect class="cls-18" x="620.29" y="870.54" width="65.6" height="65.6"/><rect class="cls-19" x="713" y="913.83" width="65.6" height="65.6"/><rect class="cls-18" x="1099.78" y="1098.58" width="65.6" height="65.6"/><rect class="cls-20" x="1187.94" y="1175.33" width="65.6" height="65.6"/><rect class="cls-19" x="854.64" y="411.25" width="65.6" height="65.6"/><rect class="cls-20" x="972.69" y="503.58" width="65.6" height="65.6"/><rect class="cls-18" x="1099.78" y="411.25" width="65.6" height="65.6"/><rect class="cls-20" x="1099.78" y="278.62" width="65.6" height="65.6"/><rect class="cls-20" x="1198.27" y="222.08" width="65.6" height="65.6"/><rect class="cls-19" x="1099.78" y="159.65" width="65.6" height="65.6"/><rect class="cls-20" x="1198.27" y="411.25" width="65.6" height="65.6"/><rect class="cls-19" x="1113.06" y="503.63" width="65.6" height="65.6"/><polygon class="cls-2" points="142.92 118.85 123.38 93.69 105.14 118.85 142.92 118.85"/></svg>