<svg id="Camada_1" data-name="Camada 1" xmlns="http://www.w3.org/2000/svg" viewBox="0 0 293.26 293.18"><defs><style>.cls-1,.cls-2,.cls-5{fill:none;}.cls-1{stroke:#d6d7d7;stroke-miterlimit:10;stroke-width:8px;}.cls-2{stroke:#21344a;}.cls-2,.cls-5{stroke-linecap:round;stroke-linejoin:round;stroke-width:4px;}.cls-3{fill:#e9521b;}.cls-4{fill:#6dcdd9;}.cls-5{stroke:#22344a;}</style></defs><title>solucoes digitais2</title><circle class="cls-1" cx="146.63" cy="145.18" r="139.01"/><rect class="cls-2" x="102.2" y="71.08" width="82.51" height="146.22" rx="7.2"/><line class="cls-2" x1="102.2" y1="88.5" x2="184.67" y2="88.5"/><line class="cls-2" x1="102.2" y1="199.23" x2="184.67" y2="199.23"/><line class="cls-2" x1="134.29" y1="79.58" x2="152.62" y2="79.58"/><line class="cls-2" x1="120.39" y1="79.58" x2="122.21" y2="79.58"/><line class="cls-2" x1="139.31" y1="207.73" x2="147.6" y2="207.73"/><path class="cls-3" d="M169.88,99.75a10.85,10.85,0,0,1,13.42,17,10.42,10.42,0,0,1-2.12,1.3,10.84,10.84,0,0,1-11.3-18.34Z"/><path class="cls-4" d="M191.69,145A13.46,13.46,0,1,1,185,166.17,13.46,13.46,0,0,1,191.69,145Z"/><path class="cls-3" d="M173.8,195.75a8.56,8.56,0,1,1-1.43,12A8.55,8.55,0,0,1,173.8,195.75Z"/><path class="cls-4" d="M143,159.45a16,16,0,1,1-4.86-14.74,14.81,14.81,0,0,1,1.69,1.84A16,16,0,0,1,143,159.45Z"/><path class="cls-5" d="M143,159.45a16,16,0,0,0-3.17-12.9,14.81,14.81,0,0,0-1.69-1.84A16,16,0,1,0,143,159.45Z"/><path class="cls-2" d="M181.18,118.09a10.42,10.42,0,0,0,2.12-1.3,10.87,10.87,0,1,0-2.12,1.3Z"/><path class="cls-5" d="M182.18,158.89a13.46,13.46,0,1,0,24-9.38,13.47,13.47,0,0,0-24,9.38Z"/><path class="cls-2" d="M185.81,197.18a8.56,8.56,0,1,0-1.42,12A8.55,8.55,0,0,0,185.81,197.18Z"/><line class="cls-2" x1="181.56" y1="194.27" x2="190.45" y2="170.28"/><line class="cls-2" x1="191.69" y1="144.96" x2="181.18" y2="118.1"/><polyline class="cls-2" points="142.97 159.45 142.98 159.45 182.18 158.9"/><line class="cls-2" x1="138.12" y1="144.71" x2="168.07" y2="114.98"/></svg>