<svg id="Camada_1" data-name="Camada 1" xmlns="http://www.w3.org/2000/svg" viewBox="0 0 293.26 293.18"><defs><style>.cls-1,.cls-3{fill:none;}.cls-1{stroke:#d6d7d7;stroke-width:8px;}.cls-1,.cls-3,.cls-4{stroke-miterlimit:10;}.cls-2{fill:#fff;}.cls-3{stroke:#21344a;stroke-width:4px;}.cls-4{fill:#2866ae;stroke:#23354b;stroke-width:3px;}</style></defs><title>upload</title><circle class="cls-1" cx="146.63" cy="145.18" r="139.01"/><path class="cls-2" d="M214.61,140.71a29.15,29.15,0,1,1-28,51,60.09,60.09,0,0,1-62.49,1,38.65,38.65,0,1,1-27.07-68.9,60,60,0,0,1,117.52,17Z"/><path class="cls-3" d="M231.67,167.24a29.14,29.14,0,0,1-45,24.44,60.09,60.09,0,0,1-62.49,1,38.65,38.65,0,1,1-27.07-68.9,60,60,0,0,1,117.52,17A29.14,29.14,0,0,1,231.67,167.24Z"/><path class="cls-4" d="M119.72,181.19v21.2a3.06,3.06,0,0,0,3.06,3.06h60.75a3.06,3.06,0,0,0,3.06-3.06v-21.2a3.05,3.05,0,0,0-3.06-3.05h-6.88a3.05,3.05,0,0,0-3.06,3.05v7.55a3.06,3.06,0,0,1-3.06,3H137.46a3.06,3.06,0,0,1-3.06-3v-7.55a3.05,3.05,0,0,0-3.06-3.05h-8.56A3.05,3.05,0,0,0,119.72,181.19Z"/><path class="cls-4" d="M169.29,152.33a2.89,2.89,0,0,1-.87,2.09,3,3,0,0,1-4.19,0l-8.11-8.11v31.74a3,3,0,1,1-5.93,0V146.31l-8.11,8.11a3,3,0,0,1-4.19,0,3,3,0,0,1,0-4.19l13.16-13.17.17-.15a2.92,2.92,0,0,1,1.56-.7,2.31,2.31,0,0,1,.37,0h.21a3,3,0,0,1,1.89.86l13.18,13.18A2.93,2.93,0,0,1,169.29,152.33Z"/></svg>