<?xml version="1.0" encoding="utf-8"?>
<!-- Generator: Adobe Illustrator 24.1.2, SVG Export Plug-In . SVG Version: 6.00 Build 0)  -->
<svg version="1.1" id="Camada_1" xmlns="http://www.w3.org/2000/svg" xmlns:xlink="http://www.w3.org/1999/xlink" x="0px" y="0px"
	 viewBox="0 0 37.46 191.79" style="enable-background:new 0 0 37.46 191.79;" xml:space="preserve">
<style type="text/css">
	.st0{fill:#FFFFFF;}
	.st1{fill:#687181;}
	.st2{fill:#22344B;}
	.st3{fill:#2967AE;}
</style>
<g>
	<rect class="st0" width="37.46" height="191.79"/>
</g>
<g>
	<g>
		<path class="st1" d="M19,168.19c-0.86,0-1.55-0.2-2.07-0.61c-0.52-0.41-0.78-0.94-0.78-1.6c0-0.66,0.22-1.17,0.67-1.56H13.9v-0.96
			h7.95v0.88l-0.6,0.05c0.47,0.38,0.7,0.92,0.7,1.6c0,0.65-0.26,1.18-0.8,1.59c-0.53,0.41-1.22,0.61-2.08,0.61H19z M19.11,167.24
			c0.63,0,1.13-0.13,1.49-0.39c0.36-0.26,0.54-0.62,0.54-1.09c0-0.61-0.27-1.05-0.82-1.33h-2.57c-0.53,0.29-0.79,0.73-0.79,1.32
			c0,0.47,0.18,0.83,0.54,1.1C17.87,167.11,18.4,167.24,19.11,167.24z"/>
		<path class="st1" d="M21.95,159.66c0,0.76-0.25,1.38-0.75,1.85c-0.5,0.48-1.16,0.71-2,0.71h-0.18c-0.56,0-1.05-0.11-1.49-0.32
			c-0.44-0.21-0.78-0.51-1.02-0.89c-0.25-0.38-0.37-0.79-0.37-1.24c0-0.73,0.24-1.29,0.72-1.7c0.48-0.4,1.16-0.61,2.06-0.61h0.4
			v3.79c0.55-0.01,1-0.18,1.34-0.48c0.34-0.31,0.51-0.7,0.51-1.18c0-0.34-0.07-0.62-0.21-0.86c-0.14-0.23-0.32-0.44-0.55-0.62
			l0.46-0.58C21.59,158.02,21.95,158.72,21.95,159.66z M16.93,159.78c0,0.39,0.14,0.71,0.42,0.97c0.28,0.26,0.68,0.42,1.18,0.49
			v-2.8h-0.07c-0.49,0.03-0.86,0.16-1.13,0.39C17.07,159.06,16.93,159.38,16.93,159.78z"/>
		<path class="st1" d="M20.37,153.11c-0.26,0-0.46,0.1-0.6,0.29c-0.14,0.19-0.27,0.53-0.37,1.02c-0.1,0.48-0.23,0.87-0.37,1.15
			c-0.14,0.28-0.32,0.49-0.52,0.63c-0.2,0.14-0.44,0.2-0.71,0.2c-0.46,0-0.85-0.19-1.16-0.58c-0.32-0.39-0.48-0.88-0.48-1.49
			c0-0.63,0.16-1.15,0.49-1.54c0.33-0.39,0.75-0.59,1.26-0.59v0.96c-0.26,0-0.49,0.11-0.68,0.33c-0.19,0.22-0.29,0.5-0.29,0.84
			c0,0.35,0.08,0.62,0.23,0.82c0.15,0.2,0.35,0.29,0.6,0.29c0.23,0,0.41-0.09,0.52-0.27c0.12-0.18,0.23-0.51,0.34-0.99
			c0.11-0.48,0.23-0.87,0.38-1.16c0.15-0.3,0.33-0.52,0.54-0.66c0.21-0.14,0.46-0.22,0.76-0.22c0.5,0,0.9,0.2,1.2,0.6
			c0.3,0.4,0.45,0.92,0.45,1.56c0,0.45-0.08,0.84-0.24,1.19c-0.16,0.35-0.38,0.62-0.67,0.81c-0.28,0.19-0.59,0.29-0.92,0.29v-0.96
			c0.32-0.02,0.58-0.15,0.76-0.39c0.19-0.24,0.28-0.56,0.28-0.95c0-0.36-0.07-0.65-0.22-0.87
			C20.81,153.22,20.61,153.11,20.37,153.11z"/>
		<path class="st1" d="M21.95,148.58c0,0.76-0.25,1.38-0.75,1.85c-0.5,0.48-1.16,0.71-2,0.71h-0.18c-0.56,0-1.05-0.11-1.49-0.32
			c-0.44-0.21-0.78-0.51-1.02-0.89c-0.25-0.38-0.37-0.79-0.37-1.24c0-0.73,0.24-1.29,0.72-1.7c0.48-0.4,1.16-0.61,2.06-0.61h0.4
			v3.79c0.55-0.01,1-0.18,1.34-0.48c0.34-0.31,0.51-0.7,0.51-1.18c0-0.34-0.07-0.62-0.21-0.86c-0.14-0.23-0.32-0.44-0.55-0.62
			l0.46-0.58C21.59,146.94,21.95,147.64,21.95,148.58z M16.93,148.7c0,0.39,0.14,0.71,0.42,0.97c0.28,0.26,0.68,0.42,1.18,0.49v-2.8
			h-0.07c-0.49,0.03-0.86,0.16-1.13,0.39C17.07,147.98,16.93,148.3,16.93,148.7z"/>
		<path class="st1" d="M16.25,144.39l0.7-0.03c-0.54-0.43-0.81-0.99-0.81-1.68c0-1.18,0.67-1.78,2-1.79h3.7v0.96h-3.7
			c-0.4,0-0.7,0.1-0.89,0.28c-0.19,0.18-0.29,0.46-0.29,0.85c0,0.31,0.08,0.58,0.25,0.82c0.17,0.23,0.38,0.42,0.65,0.55h3.99v0.96
			h-5.6V144.39z"/>
		<path class="st1" d="M16.93,138.49c-0.52-0.42-0.78-0.98-0.78-1.66c0-1.18,0.67-1.78,2-1.79h3.7V136h-3.7
			c-0.4,0-0.7,0.1-0.89,0.28c-0.19,0.18-0.29,0.46-0.29,0.85c0,0.31,0.08,0.58,0.25,0.82c0.17,0.23,0.38,0.42,0.65,0.55h3.99v0.96
			H13.9v-0.96H16.93z"/>
		<path class="st1" d="M21.85,130.15c-0.11,0.06-0.31,0.1-0.59,0.13c0.46,0.44,0.69,0.98,0.69,1.59c0,0.55-0.16,1.01-0.47,1.36
			c-0.31,0.35-0.71,0.53-1.19,0.53c-0.58,0-1.03-0.22-1.36-0.67c-0.32-0.44-0.48-1.07-0.48-1.87v-0.93h-0.44
			c-0.34,0-0.6,0.1-0.8,0.3c-0.2,0.2-0.3,0.5-0.3,0.88c0,0.34,0.09,0.63,0.26,0.86c0.17,0.23,0.38,0.35,0.63,0.35v0.96
			c-0.28,0-0.55-0.1-0.81-0.3c-0.26-0.2-0.47-0.47-0.62-0.81c-0.15-0.34-0.23-0.71-0.23-1.12c0-0.65,0.16-1.15,0.48-1.52
			c0.32-0.37,0.77-0.55,1.33-0.57h2.58c0.51,0,0.92-0.07,1.23-0.2h0.08V130.15z M21.12,131.74c0-0.3-0.08-0.59-0.23-0.85
			s-0.36-0.46-0.6-0.58h-1.15v0.75c0,1.17,0.34,1.76,1.03,1.76c0.3,0,0.54-0.1,0.7-0.3C21.04,132.31,21.12,132.05,21.12,131.74z"/>
		<path class="st1" d="M19,128.08c-0.86,0-1.55-0.2-2.07-0.61c-0.52-0.41-0.78-0.94-0.78-1.6c0-0.65,0.22-1.17,0.67-1.56H13.9v-0.96
			h7.95v0.88l-0.6,0.05c0.47,0.38,0.7,0.92,0.7,1.6c0,0.65-0.26,1.18-0.8,1.59c-0.53,0.41-1.22,0.61-2.08,0.61H19z M19.11,127.12
			c0.63,0,1.13-0.13,1.49-0.39c0.36-0.26,0.54-0.62,0.54-1.09c0-0.61-0.27-1.05-0.82-1.33h-2.57c-0.53,0.29-0.79,0.73-0.79,1.32
			c0,0.47,0.18,0.84,0.54,1.1C17.87,126.99,18.4,127.12,19.11,127.12z"/>
		<path class="st1" d="M19,122.12c-0.55,0-1.04-0.11-1.48-0.32c-0.44-0.22-0.78-0.52-1.01-0.9c-0.24-0.39-0.36-0.82-0.36-1.32
			c0-0.76,0.26-1.38,0.79-1.85c0.53-0.47,1.23-0.71,2.11-0.71h0.07c0.54,0,1.03,0.1,1.47,0.31c0.43,0.21,0.77,0.51,1.01,0.89
			c0.24,0.39,0.36,0.83,0.36,1.34c0,0.76-0.26,1.37-0.79,1.85c-0.53,0.47-1.23,0.71-2.1,0.71H19z M19.11,121.16
			c0.62,0,1.12-0.14,1.49-0.43c0.38-0.29,0.56-0.67,0.56-1.16c0-0.49-0.19-0.87-0.57-1.16c-0.38-0.29-0.92-0.43-1.6-0.43
			c-0.62,0-1.11,0.15-1.49,0.44c-0.38,0.29-0.57,0.68-0.57,1.16c0,0.47,0.19,0.85,0.56,1.14C17.88,121.01,18.41,121.16,19.11,121.16
			z"/>
		<path class="st1" d="M19.11,108.47c0.85,0,1.54,0.2,2.06,0.59c0.52,0.39,0.78,0.92,0.78,1.58c0,0.68-0.22,1.21-0.65,1.6H24v0.96
			h-7.75v-0.87l0.62-0.05c-0.48-0.39-0.72-0.93-0.72-1.62c0-0.67,0.25-1.2,0.76-1.6c0.51-0.39,1.21-0.59,2.12-0.59H19.11z
			 M19,109.43c-0.63,0-1.13,0.13-1.49,0.4c-0.37,0.27-0.55,0.64-0.55,1.11c0,0.58,0.26,1.01,0.77,1.3h2.68
			c0.51-0.29,0.77-0.72,0.77-1.31c0-0.46-0.18-0.82-0.55-1.1C20.26,109.56,19.72,109.43,19,109.43z"/>
		<path class="st1" d="M19,107.51c-0.55,0-1.04-0.11-1.48-0.32c-0.44-0.22-0.78-0.52-1.01-0.9c-0.24-0.39-0.36-0.82-0.36-1.32
			c0-0.76,0.26-1.38,0.79-1.85c0.53-0.47,1.23-0.71,2.11-0.71h0.07c0.54,0,1.03,0.1,1.47,0.31c0.43,0.21,0.77,0.51,1.01,0.89
			c0.24,0.39,0.36,0.83,0.36,1.34c0,0.76-0.26,1.37-0.79,1.85c-0.53,0.47-1.23,0.71-2.1,0.71H19z M19.11,106.55
			c0.62,0,1.12-0.14,1.49-0.43c0.38-0.29,0.56-0.67,0.56-1.16c0-0.49-0.19-0.87-0.57-1.16c-0.38-0.29-0.92-0.43-1.6-0.43
			c-0.62,0-1.11,0.15-1.49,0.44c-0.38,0.29-0.57,0.68-0.57,1.16c0,0.47,0.19,0.85,0.56,1.14C17.88,106.4,18.41,106.55,19.11,106.55z
			"/>
		<path class="st1" d="M17.11,98.51c-0.02,0.14-0.04,0.3-0.04,0.47c0,0.63,0.27,1.05,0.8,1.28h3.97v0.96h-5.6v-0.93l0.65-0.02
			c-0.5-0.31-0.75-0.76-0.75-1.33c0-0.19,0.03-0.33,0.07-0.42H17.11z"/>
	</g>
	<g id="XMLID_221_">
		<g id="XMLID_247_">
			<path id="XMLID_255_" class="st2" d="M20.88,26.91h-0.98v-1.25c0-0.19-0.02-0.34-0.05-0.46c-0.03-0.12-0.08-0.21-0.15-0.28
				c-0.07-0.07-0.15-0.12-0.26-0.14c-0.11-0.03-0.23-0.04-0.39-0.04h-3.33V23.6h3.39c0.33,0,0.6,0.03,0.83,0.09
				c0.22,0.06,0.41,0.17,0.54,0.32c0.14,0.15,0.24,0.35,0.3,0.61c0.06,0.25,0.09,0.57,0.09,0.96V26.91z"/>
			<path id="XMLID_252_" class="st2" d="M17.35,28.04c-0.14,0-0.25,0.02-0.33,0.05c-0.09,0.03-0.15,0.08-0.2,0.15
				c-0.05,0.07-0.08,0.17-0.09,0.29c-0.02,0.13-0.02,0.28-0.02,0.47v2.8h1.56v-2.8c0-0.19-0.01-0.34-0.02-0.46
				c-0.02-0.12-0.05-0.22-0.09-0.29c-0.05-0.07-0.11-0.12-0.2-0.15c-0.09-0.03-0.2-0.05-0.34-0.05H17.35z M20.88,28.8l-1.86,3h1.86
				v1.13h-5.13v-4.01c0-0.36,0.02-0.67,0.07-0.92c0.05-0.26,0.13-0.46,0.24-0.63c0.12-0.16,0.27-0.28,0.47-0.36
				c0.2-0.08,0.45-0.11,0.76-0.11h0.35c0.3,0,0.54,0.04,0.73,0.12c0.19,0.08,0.35,0.2,0.46,0.37c0.11,0.17,0.19,0.38,0.24,0.64
				c0.05,0.26,0.07,0.56,0.07,0.91v0.9l1.74-3.01V28.8z"/>
			<path id="XMLID_249_" class="st2" d="M17.45,34.28c-0.28,0-0.46,0.06-0.56,0.18c-0.1,0.12-0.15,0.33-0.15,0.64v2.93h1.75v-2.95
				c0-0.3-0.05-0.51-0.14-0.62c-0.09-0.12-0.27-0.17-0.54-0.17H17.45z M19.41,38.03h1.47v1.14h-5.13v-4.1
				c0-0.37,0.03-0.67,0.09-0.92c0.06-0.25,0.15-0.44,0.29-0.59c0.13-0.15,0.3-0.26,0.51-0.32c0.21-0.06,0.47-0.09,0.77-0.09h0.44
				c0.31,0,0.56,0.03,0.76,0.09c0.2,0.06,0.36,0.16,0.48,0.31c0.12,0.15,0.2,0.34,0.25,0.59c0.05,0.25,0.07,0.56,0.07,0.93V38.03z"
				/>
			<path id="XMLID_248_" class="st2" d="M20.88,40.6h-3.4l3.29,2.52c0.15,0.12,0.22,0.29,0.22,0.51c0,0.22-0.07,0.39-0.22,0.51
				l-3.29,2.51h3.4v1.04h-4.81c-0.16,0-0.28-0.06-0.36-0.18c-0.08-0.12-0.11-0.27-0.11-0.44c0-0.14,0.02-0.24,0.06-0.33
				c0.04-0.08,0.1-0.15,0.19-0.22l3.87-2.91l-3.87-2.94c-0.09-0.07-0.15-0.13-0.19-0.21c-0.04-0.07-0.06-0.18-0.06-0.31
				c0-0.18,0.04-0.32,0.11-0.44c0.08-0.12,0.19-0.18,0.36-0.18h4.81V40.6z"/>
		</g>
		
			<rect id="XMLID_246_" x="18.09" y="46.06" transform="matrix(6.123234e-17 -1 1 6.123234e-17 -32.32 68.9359)" class="st2" width="0.43" height="9.13"/>
		<g id="XMLID_222_">
			<path id="XMLID_244_" class="st2" d="M13.99,87.81v-1.83l5.42-4.22h-5.42v-1.95h8.76v1.68l-5.6,4.36h5.6v1.95H13.99z"/>
			<path id="XMLID_242_" class="st2" d="M13.99,69.32v-2.16l6.14-2.32l-6.14-2.32v-2.11L22.69,64v1.73L13.99,69.32z"/>
			<path id="XMLID_240_" class="st2" d="M22.69,53.27v2.16l-6.14,2.32l6.14,2.32v2.11l-8.71-3.59v-1.73L22.69,53.27z"/>
			<rect id="XMLID_239_" x="13.98" y="89.28" class="st2" width="8.76" height="1.98"/>
			<path id="XMLID_238_" class="st3" d="M18.32,73.01c0.5,0,0.91,0.41,0.91,0.91c0,0.5-0.41,0.91-0.91,0.91
				c-0.5,0-0.91-0.41-0.91-0.91C17.41,73.41,17.82,73.01,18.32,73.01z"/>
			<path id="XMLID_223_" class="st3" d="M13.46,73.91c0,2.68,2.18,4.86,4.86,4.86c2.68,0,4.86-2.18,4.86-4.86
				c0-2.68-2.18-4.86-4.86-4.86C15.63,69.05,13.46,71.23,13.46,73.91z M21.33,73.91c0,1.67-1.35,3.02-3.02,3.02
				c-1.66,0-3.02-1.35-3.02-3.02c0-1.67,1.35-3.02,3.02-3.02C19.98,70.9,21.33,72.25,21.33,73.91z"/>
		</g>
	</g>
</g>
</svg>
