<?xml version="1.0" encoding="utf-8"?>
<!-- Generator: Adobe Illustrator 24.1.2, SVG Export Plug-In . SVG Version: 6.00 Build 0)  -->
<svg version="1.1" id="Camada_1" xmlns="http://www.w3.org/2000/svg" xmlns:xlink="http://www.w3.org/1999/xlink" x="0px" y="0px"
	 viewBox="0 0 431.49 104.17" style="enable-background:new 0 0 431.49 104.17;" xml:space="preserve">
<style type="text/css">
	.st0{fill:#88B0C3;}
	.st1{fill:#FFFFFF;}
	.st2{fill:#52539F;}
	.st3{fill:#222321;}
	.st4{fill:#6D70B3;}
	.st5{fill:#B89E17;}
	.st6{fill:#C15118;}
	.st7{fill:#EE7A5F;}
	.st8{fill:#F1A500;}
	.st9{fill:none;stroke:#23354B;stroke-width:4;stroke-linecap:round;stroke-linejoin:round;stroke-miterlimit:10;}
	.st10{fill:none;stroke:#21344A;stroke-width:6;stroke-linecap:round;stroke-linejoin:round;stroke-miterlimit:10;}
	.st11{fill:none;stroke:#21344A;stroke-width:4;stroke-linecap:round;stroke-linejoin:round;}
	.st12{fill:none;stroke:#21344A;stroke-width:4;stroke-linecap:round;stroke-linejoin:round;stroke-dasharray:13.2457,13.2457;}
	.st13{fill:none;stroke:#21344A;stroke-width:4;stroke-linecap:round;stroke-linejoin:round;stroke-dasharray:12.5997,12.5997;}
	.st14{fill:none;stroke:#21344A;stroke-width:4;stroke-linecap:round;stroke-linejoin:round;stroke-dasharray:10.8141,10.8141;}
	.st15{fill:none;stroke:#21344A;stroke-width:4;stroke-linecap:round;stroke-linejoin:round;stroke-dasharray:10.405,10.405;}
	.st16{fill:#23354B;}
	.st17{fill:none;stroke:#23354B;stroke-width:4;stroke-miterlimit:10;}
	.st18{fill:#88B0C3;stroke:#23354B;stroke-width:4;stroke-linecap:round;stroke-linejoin:round;stroke-miterlimit:10;}
	.st19{fill:#52539F;stroke:#23354B;stroke-width:4;stroke-linecap:round;stroke-linejoin:round;stroke-miterlimit:10;}
	.st20{fill:#EE7A5F;stroke:#23354B;stroke-width:4;stroke-linecap:round;stroke-linejoin:round;stroke-miterlimit:10;}
	.st21{fill:#F1A500;stroke:#23354B;stroke-width:4;stroke-linecap:round;stroke-linejoin:round;stroke-miterlimit:10;}
	.st22{fill:#21344A;}
	.st23{fill:#F1A500;stroke:#21344A;stroke-width:4;stroke-linecap:round;stroke-linejoin:round;stroke-miterlimit:10;}
	.st24{fill:#EE7A5F;stroke:#21344A;stroke-width:4;stroke-linecap:round;stroke-linejoin:round;stroke-miterlimit:10;}
</style>
<g>
	<g>
		<circle class="st1" cx="54.33" cy="29.74" r="5.18"/>
		<circle class="st1" cx="54.33" cy="10.07" r="4.14"/>
		<circle class="st1" cx="54.33" cy="78.31" r="5.18"/>
		<circle class="st1" cx="54.33" cy="97.98" r="4.14"/>
		<circle class="st1" cx="54.33" cy="54.03" r="8.29"/>
		<circle class="st1" cx="36.12" cy="35.82" r="5.18"/>
		<circle class="st1" cx="23.85" cy="23.55" r="4.14"/>
		<circle class="st1" cx="29.01" cy="54.03" r="5.18"/>
		<circle class="st1" cx="10.37" cy="54.03" r="4.14"/>
		<circle class="st1" cx="36.12" cy="72.23" r="5.18"/>
		<circle class="st1" cx="23.85" cy="84.5" r="4.14"/>
	</g>
	<g>
		<path class="st1" d="M105.08,84.66c-15.77,0-25.72-6.97-26.06-20.8c0-0.46,0.34-0.8,0.8-0.8h8.46c0.46,0,0.8,0.34,0.8,0.8
			c0.34,9.37,6.06,13.6,16.46,13.6c8.69,0,14.52-3.66,14.52-10.17c0-15.43-39.78-2.97-39.78-26.75c0-11.32,9.37-17.26,23.32-17.26
			c13.6,0,23.78,5.83,24.46,18.17c0,0.46-0.34,0.8-0.8,0.8h-8.12c-0.46,0-0.8-0.34-0.8-0.8c-0.69-7.54-6.4-11.09-14.86-11.09
			c-8.12,0-13.26,2.97-13.26,9.49c0,14.63,39.78,1.94,39.78,26.63C130,78.03,119.26,84.66,105.08,84.66z"/>
		<path class="st1" d="M135.6,19.51c-0.46,0.11-0.91-0.11-1.14-0.46l-1.6-4c-0.23-0.34,0-0.8,0.34-1.03l25.15-11.89
			c0.34-0.23,0.8,0,0.91,0.46l2.4,6.74c0.11,0.46-0.11,0.91-0.57,1.03L135.6,19.51z M139.61,83.4c-0.46,0-0.8-0.34-0.8-0.8
			l0.23-29.49l-0.23-27.78c0-0.46,0.34-0.8,0.8-0.8h9.03c0.46,0,0.8,0.34,0.8,0.8L149.21,53l0.23,29.6c0,0.46-0.34,0.8-0.8,0.8
			H139.61z"/>
		<path class="st1" d="M161.09,83.4c-0.46,0-0.8-0.34-0.8-0.8l0.34-26.06l-0.23-31.21c0-0.46,0.34-0.8,0.8-0.8h8.57
			c0.46,0,0.8,0.34,0.8,0.8l-0.23,9.14c3.54-5.94,10.17-11.32,19.55-11.32c12.12,0,19.77,8,19.77,23.32v11.77l0.23,24.35
			c0,0.46-0.34,0.8-0.8,0.8h-9.03c-0.46,0-0.8-0.34-0.8-0.8l0.23-24.35V46.94c0-10.63-5.03-15.43-12.46-15.43
			c-7.66,0-13.94,6.17-16.23,17.83v8.92l0.23,24.35c0,0.46-0.34,0.8-0.8,0.8H161.09z"/>
		<path class="st1" d="M248.54,81.92c0,0.46-0.34,0.92-0.8,1.03c-2.4,0.69-5.37,1.49-8.12,1.49c-8.57,0-15.89-4.46-15.89-17.26
			l0.11-34.52h-6.86c-0.46,0-0.8-0.34-0.8-0.8v-6.52c0-0.46,0.34-0.8,0.8-0.8h6.86l-0.11-13.95c0-0.46,0.34-0.8,0.8-0.8h8.92
			c0.46,0,0.8,0.34,0.8,0.8l-0.23,13.95h13.83c0.46,0,0.8,0.34,0.8,0.8v6.52c0,0.46-0.34,0.8-0.8,0.8h-13.83l0.11,34.29
			c0,7.09,2.4,9.26,7.31,9.26c2.4,0,4.69-0.34,6.29-0.8c0.46-0.11,0.8,0.23,0.8,0.57V81.92z"/>
		<path class="st1" d="M305.12,62.94c0.46,0,0.8,0.34,0.69,0.8c-1.71,12.12-10.63,21.03-25.83,21.03
			c-18.29,0-28.12-12.69-28.12-30.63c0-18.4,10.52-30.98,27.55-30.98c17.15,0,27.21,11.77,27.43,31.43c0,0.46-0.34,0.8-0.8,0.8
			h-43.78c0.34,14.17,6.29,21.72,17.83,21.72c8.8,0,13.95-4.69,15.66-13.37c0.12-0.46,0.46-0.8,0.91-0.8H305.12z M279.52,30.71
			c-9.72,0-15.43,6.29-16.92,17.37h33.04C295.29,38.71,289.92,30.71,279.52,30.71z"/>
		<path class="st1" d="M338.85,84.66c-15.77,0-25.72-6.97-26.06-20.8c0-0.46,0.34-0.8,0.8-0.8h8.46c0.46,0,0.8,0.34,0.8,0.8
			c0.34,9.37,6.06,13.6,16.46,13.6c8.69,0,14.52-3.66,14.52-10.17c0-15.43-39.78-2.97-39.78-26.75c0-11.32,9.37-17.26,23.32-17.26
			c13.6,0,23.78,5.83,24.46,18.17c0,0.46-0.34,0.8-0.8,0.8h-8.12c-0.46,0-0.8-0.34-0.8-0.8c-0.69-7.54-6.4-11.09-14.86-11.09
			c-8.12,0-13.26,2.97-13.26,9.49c0,14.63,39.78,1.94,39.78,26.63C363.76,78.03,353.02,84.66,338.85,84.66z"/>
		<path class="st1" d="M423.55,62.94c0.46,0,0.8,0.34,0.69,0.8c-1.71,12.12-10.63,21.03-25.83,21.03
			c-18.29,0-28.12-12.69-28.12-30.63c0-18.4,10.52-30.98,27.55-30.98c17.14,0,27.2,11.77,27.43,31.43c0,0.46-0.34,0.8-0.8,0.8
			h-43.78c0.34,14.17,6.29,21.72,17.83,21.72c8.8,0,13.95-4.69,15.66-13.37c0.11-0.46,0.46-0.8,0.91-0.8H423.55z M397.94,30.71
			c-9.71,0-15.43,6.29-16.92,17.37h33.03C413.72,38.71,408.35,30.71,397.94,30.71z"/>
	</g>
</g>
</svg>
