<svg id="Layer_1" data-name="Layer 1" xmlns="http://www.w3.org/2000/svg" viewBox="0 0 355 349"><defs><style>.cls-1{fill:#fff;stroke:#d5d5d5;stroke-miterlimit:10;stroke-width:8px;}.cls-2{fill:#2d22bc;}</style></defs><circle class="cls-1" cx="174.31" cy="176.65" r="139.01"/><path class="cls-2" d="M208.42,158.54a77.28,77.28,0,0,1-12.36-12c-20.23-25.67-9.75-47.21-9.75-47.21-37.56,15.36-46.11,39.72-46.52,57.87l0,.19a68.58,68.58,0,0,0,5.36,22.4,6.24,6.24,0,0,1-5.12,8.47,6.53,6.53,0,0,1-6.82-3.63c-2.15-4.56-5-11.81-4.18-16.92a52.94,52.94,0,0,0-11,28.63c-2,26.77,17.1,51.26,44.12,56.59,31.66,6.23,61.64-14.9,65.9-45.58A53.14,53.14,0,0,0,208.42,158.54Z"/></svg>